<?xml version="1.0" standalone="no"?>
<!DOCTYPE svg PUBLIC "-//W3C//DTD SVG 1.1//EN" "http://www.w3.org/Graphics/SVG/1.1/DTD/svg11.dtd" >
<svg xmlns="http://www.w3.org/2000/svg" xmlns:xlink="http://www.w3.org/1999/xlink" version="1.1">
<metadata>
Created by FontForge 20201107 at Thu May 25 22:27:38 2023
 By 
Copyright (c) 2017-2023 SKODA AUTO a.s. All rights reserved.
</metadata>
<defs>
<font id="SKODANext-Regular" horiz-adv-x="600" >
  <font-face 
    font-family="SKODA Next"
    font-weight="400"
    font-stretch="normal"
    units-per-em="1000"
    panose-1="2 11 5 4 2 6 3 2 2 4"
    ascent="756"
    descent="-244"
    x-height="496"
    cap-height="704"
    bbox="-588 -344 4432 1027"
    underline-thickness="50"
    underline-position="-125"
    unicode-range="U+000D-FEFF"
  />
<missing-glyph horiz-adv-x="472" 
d="M0 704h472v-704h-472v704zM378 92v520h-284v-520h284z" />
    <glyph glyph-name="ff" unicode="ff" horiz-adv-x="668" 
d="M656 412h-168v-412h-100v412h-196v-412h-100v412h-88v84h88v48q0 81 43 126.5t121 45.5q51 0 101 -30l-40 -68q-26 14 -57 14q-30 0 -49 -22t-19 -58v-56h196v48q0 81 43 126.5t121 45.5q51 0 101 -30l-40 -68q-26 14 -57 14q-30 0 -49 -22t-19 -58v-56h168v-84z" />
    <glyph glyph-name="fi" unicode="fi" horiz-adv-x="552" 
d="M360 412h-168v-412h-100v412h-88v84h88v48q0 81 43 126.5t121 45.5q50 0 101 -30l-40 -68q-26 14 -57 14q-30 0 -49 -22t-19 -58v-56h168v-84zM388 496h100v-496h-100v496zM384 704h104v-100h-104v100z" />
    <glyph glyph-name="fl" unicode="fl" horiz-adv-x="552" 
d="M360 412h-168v-412h-100v412h-88v84h88v48q0 81 43 126.5t121 45.5q50 0 101 -30l-40 -68q-26 14 -57 14q-30 0 -49 -22t-19 -58v-56h168v-84zM388 704h100v-704h-100v704z" />
    <glyph glyph-name="ffi" unicode="ffi" horiz-adv-x="848" 
d="M488 496h168v-84h-168v-412h-100v412h-196v-412h-100v412h-88v84h88v48q0 81 43 126.5t121 45.5q51 0 101 -30l-40 -68q-26 14 -57 14q-30 0 -49 -22t-19 -58v-56h196v48q0 81 43 126.5t121 45.5q50 0 101 -30l-40 -68q-26 14 -57 14q-30 0 -49 -22t-19 -58v-56zM680 704
h104v-100h-104v100zM684 0v496h100v-496h-100z" />
    <glyph glyph-name="ffl" unicode="ffl" horiz-adv-x="848" 
d="M488 496h168v-84h-168v-412h-100v412h-196v-412h-100v412h-88v84h88v48q0 81 43 126.5t121 45.5q51 0 101 -30l-40 -68q-26 14 -57 14q-30 0 -49 -22t-19 -58v-56h196v48q0 81 43 126.5t121 45.5q50 0 101 -30l-40 -68q-26 14 -57 14q-30 0 -49 -22t-19 -58v-56zM684 704
h100v-704h-100v704z" />
    <glyph glyph-name=".notdef" horiz-adv-x="472" 
d="M0 704h472v-704h-472v704zM378 92v520h-284v-520h284z" />
    <glyph glyph-name=".null" horiz-adv-x="0" 
 />
    <glyph glyph-name="nonmarkingreturn" horiz-adv-x="333" 
 />
    <glyph glyph-name="NULL" horiz-adv-x="0" 
 />
    <glyph glyph-name="NULL" horiz-adv-x="0" 
 />
    <glyph glyph-name="CR" unicode="&#xd;" horiz-adv-x="240" 
 />
    <glyph glyph-name="space" unicode=" " horiz-adv-x="240" 
 />
    <glyph glyph-name="exclam" unicode="!" horiz-adv-x="212" 
d="M52 624v80h108v-80l-16 -416h-76zM48 116h116v-116h-116v116z" />
    <glyph glyph-name="quotedbl" unicode="&#x22;" horiz-adv-x="364" 
d="M48 624v80h96v-80l-8 -244h-80zM220 624v80h96v-80l-8 -244h-80z" />
    <glyph glyph-name="numbersign" unicode="#" 
d="M576 420h-119l-10 -136h129v-76h-135l-17 -208h-80l17 208h-142l-17 -208h-80l17 208h-113v76h119l10 136h-129v76h135l17 208h80l-17 -208h142l17 208h80l-17 -208h113v-76zM367 284l10 136h-142l-10 -136h142z" />
    <glyph glyph-name="dollar" unicode="$" 
d="M543.5 93q-28.5 -44 -80.5 -71t-119 -32v-110h-72v110q-76 7 -139 41t-102 86l80 51q25 -34 67 -58t94 -31v239l-24 6q-87 23 -139.5 69.5t-52.5 126.5q0 52 26.5 94.5t75.5 69t114 31.5v109h72v-110q67 -8 122.5 -36.5t86.5 -74.5l-79 -50q-22 29 -56 47t-74 24v-224
l52 -12q87 -20 131.5 -67t44.5 -129q0 -55 -28.5 -99zM184 459q28 -25 88 -42v210q-56 -6 -86 -32.5t-30 -67.5q0 -43 28 -68zM439 114q33 30 33 74q0 45 -29 68t-99 43v-221q62 6 95 36z" />
    <glyph glyph-name="percent" unicode="%" horiz-adv-x="744" 
d="M50 376q-43 52 -42 144q1 93 44 144.5t116 51.5q76 0 118 -51t42 -145q0 -92 -43 -144t-117 -52q-75 0 -118 52zM560 704h80l-456 -704h-80zM228 428q20 32 20 92q0 63 -18.5 93.5t-61.5 30.5q-41 0 -60.5 -31t-19.5 -93q0 -124 80 -124q40 0 60 32zM458.5 39.5
q-42.5 51.5 -42.5 144.5t43.5 144.5t116.5 51.5q76 0 118 -51t42 -145q0 -92 -43 -144t-117 -52q-75 0 -117.5 51.5zM636 92q20 32 20 92q0 63 -18.5 93.5t-61.5 30.5q-41 0 -60.5 -31t-19.5 -93q0 -124 80 -124q40 0 60 32z" />
    <glyph glyph-name="ampersand" unicode="&#x26;" horiz-adv-x="708" 
d="M556 0l-71 73q-85 -85 -205 -85q-60 0 -111.5 23t-82 66t-30.5 99q0 58 34 110.5t103 90.5q-45 47 -63 83t-18 88q0 39 21 78t63.5 64.5t103.5 25.5q55 0 99.5 -20.5t70.5 -57.5t26 -86q0 -53 -31 -97t-110 -107l124 -127q31 66 39 135h92q-5 -53 -21 -105.5t-43 -97.5
l150 -153h-140zM237 603.5q-25 -24.5 -25 -59.5q0 -28 17.5 -56t67.5 -80q55 42 77 73.5t22 62.5q0 35 -24.5 59.5t-67.5 24.5q-42 0 -67 -24.5zM424 137l-172 178q-49 -28 -70.5 -59t-21.5 -72q0 -48 35.5 -78t96.5 -30q73 0 132 61z" />
    <glyph glyph-name="quotesingle" unicode="'" horiz-adv-x="192" 
d="M48 624v80h96v-80l-8 -244h-80z" />
    <glyph glyph-name="parenleft" unicode="(" horiz-adv-x="312" 
d="M103 560.5q35 130.5 100 222.5l71 -41q-54 -88 -82 -205.5t-28 -228.5t28 -228.5t82 -205.5l-71 -41q-65 92 -100 222.5t-35 252.5t35 252.5z" />
    <glyph glyph-name="parenright" unicode=")" horiz-adv-x="312" 
d="M209 55.5q-35 -130.5 -100 -222.5l-71 41q54 88 82 205.5t28 228.5t-28 228.5t-82 205.5l71 41q65 -92 100 -222.5t35 -252.5t-35 -252.5z" />
    <glyph glyph-name="asterisk" unicode="*" horiz-adv-x="420" 
d="M250 496l74 -80l32 -44l-60 -44l-32 48l-54 90l-54 -90l-32 -48l-60 44l32 44l74 80l-106 24l-52 16l24 68l52 -16l96 -45l-12 105v56h72v-56l-9 -105l97 45l52 16l24 -68l-56 -16z" />
    <glyph glyph-name="plus" unicode="+" 
d="M540 404v-84h-196v-192h-88v192h-196v84h196v188h88v-188h196z" />
    <glyph glyph-name="comma" unicode="," horiz-adv-x="204" 
d="M164 120v-116q-3 -87 -52 -164h-72q43 95 44 160h-40v120h120z" />
    <glyph glyph-name="hyphen" unicode="-" horiz-adv-x="388" 
d="M40 336h308v-92h-308v92z" />
    <glyph glyph-name="period" unicode="." horiz-adv-x="212" 
d="M48 116h116v-116h-116v116z" />
    <glyph glyph-name="slash" unicode="/" horiz-adv-x="372" 
d="M304 704h96l-344 -808h-96z" />
    <glyph glyph-name="zero" unicode="0" 
d="M104 80.5q-68 92.5 -68 271.5t68 271.5t196 92.5t196 -92.5t68 -271.5t-68 -271.5t-196 -92.5t-196 92.5zM417 149.5q39 65.5 39 202.5t-39 202.5t-117 65.5t-117 -65.5t-39 -202.5t39 -202.5t117 -65.5t117 65.5z" />
    <glyph glyph-name="one" unicode="1" 
d="M352 704h72v-704h-104v589l-192 -81l-44 76z" />
    <glyph glyph-name="two" unicode="2" 
d="M560 92v-92h-496v56l188 188q82 82 121 139.5t39 108.5q0 53 -34.5 90.5t-101.5 37.5q-41 0 -77 -21t-65 -61l-84 51q39 61 101.5 94t128.5 33q79 0 133 -30.5t80.5 -80.5t26.5 -109q0 -50 -22 -96.5t-63.5 -94t-114.5 -117.5l-96 -96h336z" />
    <glyph glyph-name="three" unicode="3" 
d="M519.5 299q32.5 -46 32.5 -103q0 -61 -31.5 -108t-89.5 -73.5t-135 -26.5q-168 0 -256 120l84 49q68 -77 172 -77q73 0 110.5 34t37.5 86q0 112 -188 112h-56v92h76q70 0 107 30t37 82q0 49 -34 78.5t-98 29.5q-48 0 -89 -17.5t-70 -53.5l-82 48q40 57 103 86t134 29
q78 0 133.5 -27t83 -70.5t27.5 -94.5q0 -112 -104 -159q63 -20 95.5 -66z" />
    <glyph glyph-name="four" unicode="4" 
d="M580 244v-88h-104v-156h-100v156h-360v64l384 484h76v-460h104zM146 244h230v286z" />
    <glyph glyph-name="five" unicode="5" 
d="M420.5 435q55.5 -29 89.5 -83t34 -124q0 -69 -34 -123.5t-93 -85.5t-129 -31q-78 0 -137.5 28t-104.5 91l74 58q30 -44 68 -64.5t92 -20.5q40 0 75.5 17.5t58 50t22.5 76.5q0 65 -46 106.5t-118 41.5q-42 0 -78 -20t-62 -58l-68 64l52 346h380v-92h-298l-28 -189
q23 21 55 31t79 10q61 0 116.5 -29z" />
    <glyph glyph-name="six" unicode="6" 
d="M446.5 437q55.5 -31 86.5 -84.5t31 -120.5q0 -64 -29.5 -120t-87 -90t-135.5 -34q-75 0 -134.5 37.5t-94.5 117t-35 201.5q0 115 36.5 199t101 128.5t146.5 44.5q139 0 220 -108l-78 -50q-54 62 -138 62q-46 0 -86.5 -23.5t-67 -75.5t-30.5 -131q29 38 72.5 58t95.5 20
q71 0 126.5 -31zM387 104q31 20 48 53t17 71q0 62 -40.5 103t-103.5 41q-45 0 -87.5 -20.5t-67.5 -56.5q6 -113 50.5 -162t112.5 -49q40 0 71 20z" />
    <glyph glyph-name="seven" unicode="7" 
d="M60 704h492v-68l-300 -636h-112l291 612h-371v92z" />
    <glyph glyph-name="eight" unicode="8" 
d="M532 291q28 -44 28 -103q0 -57 -33 -103t-92 -71.5t-135 -25.5q-79 0 -138 25.5t-90.5 71t-31.5 103.5t26.5 101.5t75.5 69.5q-86 48 -86 157q0 57 30.5 102.5t85.5 71.5t128 26q71 0 126.5 -25t86.5 -69.5t31 -101.5q0 -54 -23.5 -94.5t-67.5 -65.5q51 -25 79 -69z
M200 591q-36 -33 -36 -83t35 -81t101 -31q67 0 101.5 31t34.5 81t-36 83t-100 33t-100 -33zM410 112q42 32 42 88q0 55 -39 85.5t-113 30.5q-72 0 -112 -30.5t-40 -85.5q0 -56 41 -88t111 -32q68 0 110 32z" />
    <glyph glyph-name="nine" unicode="9" 
d="M422.5 678.5q59.5 -37.5 94.5 -117t35 -201.5q0 -115 -36.5 -199t-101 -128.5t-146.5 -44.5q-139 0 -220 108l78 50q54 -62 138 -62q46 0 86.5 23.5t67 75.5t30.5 131q-29 -38 -72.5 -58t-95.5 -20q-71 0 -126.5 31t-86.5 84.5t-31 120.5q0 64 29.5 120t87 90t135.5 34
q75 0 134.5 -37.5zM379.5 352.5q42.5 20.5 67.5 56.5q-6 113 -50.5 162t-112.5 49q-40 0 -71 -20t-48 -53t-17 -71q0 -62 40.5 -103t103.5 -41q45 0 87.5 20.5z" />
    <glyph glyph-name="colon" unicode=":" horiz-adv-x="212" 
d="M48 446h116v-115h-116v115zM48 116h116v-116h-116v116z" />
    <glyph glyph-name="semicolon" unicode=";" horiz-adv-x="220" 
d="M164 446v-115h-116v115h116zM172 116v-112q0 -83 -48 -164h-76q43 87 44 160h-36v116h116z" />
    <glyph glyph-name="less" unicode="&#x3c;" 
d="M508 596v-100l-304 -134l304 -138v-100l-436 204v68z" />
    <glyph glyph-name="equal" unicode="=" 
d="M72 312h456v-84h-456v84zM72 496h456v-84h-456v84z" />
    <glyph glyph-name="greater" unicode="&#x3e;" 
d="M92 596l436 -204v-68l-436 -200v100l304 134l-304 138v100z" />
    <glyph glyph-name="question" unicode="?" horiz-adv-x="500" 
d="M380.5 688.5q51.5 -27.5 77.5 -71.5t26 -93q0 -84 -50.5 -140t-145.5 -91l-2 -85h-104l2 132q72 30 111 52t60 52.5t21 75.5q0 42 -35 71t-93 29q-46 0 -85 -19.5t-68 -56.5l-80 47q85 125 241 125q73 0 124.5 -27.5zM176 0v116h116v-116h-116z" />
    <glyph glyph-name="at" unicode="@" horiz-adv-x="920" 
d="M656 492v-288q0 -25 16 -38.5t44 -13.5q43 0 67.5 44.5t24.5 127.5q0 91 -45 165t-123.5 116.5t-175.5 42.5q-99 0 -179.5 -45.5t-126.5 -125t-46 -177.5q0 -99 46 -179.5t126.5 -126.5t179.5 -46q61 0 117.5 17t100.5 50l60 -34q-119 -101 -278 -101q-116 0 -213 56
t-154 152t-57 212t56.5 211t154 150t213.5 55q115 0 210.5 -54.5t150.5 -146t55 -195.5q0 -62 -20 -116t-60 -87t-96 -33q-44 0 -75.5 18t-48.5 48q-45 -58 -128 -58q-57 0 -105 28.5t-75.5 76.5t-27.5 103q0 54 28 101t75.5 75t104.5 28q76 0 121 -50l35 38h48z
M520.5 192.5q27.5 16.5 43.5 43.5v126q-33 62 -106 62q-56 0 -87 -36.5t-31 -87.5q0 -52 31 -88t87 -36q35 0 62.5 16.5z" />
    <glyph glyph-name="A" unicode="A" horiz-adv-x="684" 
d="M568 0l-64 156h-327l-65 -156h-108l304 704h68l304 -704h-112zM216 248h250l-124 302z" />
    <glyph glyph-name="B" unicode="B" horiz-adv-x="624" 
d="M562.5 306q29.5 -43 29.5 -98q0 -63 -29 -110t-79 -72.5t-112 -25.5h-288v704h256q59 0 108.5 -22.5t78.5 -66t29 -103.5q0 -44 -22 -79.5t-59 -61.5q58 -22 87.5 -65zM188 612v-212h148q53 0 82.5 30.5t29.5 77.5q0 43 -31.5 73.5t-80.5 30.5h-148zM452.5 121.5
q31.5 29.5 31.5 78.5q0 46 -34.5 77t-81.5 31h-180v-216h184q49 0 80.5 29.5z" />
    <glyph glyph-name="C" unicode="C" horiz-adv-x="684" 
d="M192 37.5q-77 49.5 -118.5 132.5t-41.5 182q0 101 41.5 184t118.5 131.5t180 48.5q100 0 175.5 -45t121.5 -122l-85 -51q-35 56 -89.5 89t-122.5 33q-69 0 -121.5 -34.5t-81.5 -95t-29 -138.5t29 -138.5t81.5 -95t121.5 -34.5q68 0 121.5 31t86.5 90l87 -49
q-47 -81 -122 -124.5t-173 -43.5q-103 0 -180 49.5z" />
    <glyph glyph-name="D" unicode="D" horiz-adv-x="720" 
d="M507 659.5q85 -44.5 133 -125t48 -182.5q0 -101 -48.5 -181t-133 -125.5t-190.5 -45.5h-232v704h232q106 0 191 -44.5zM451 124q60 32 94.5 91t34.5 137q0 80 -34.5 139t-94.5 90t-135 31h-128v-520h128q75 0 135 32z" />
    <glyph glyph-name="E" unicode="E" horiz-adv-x="588" 
d="M188 92h360v-92h-464v704h456v-92h-352v-208h300v-92h-300v-220z" />
    <glyph glyph-name="F" unicode="F" horiz-adv-x="548" 
d="M536 612h-348v-212h292v-92h-292v-308h-104v704h452v-92z" />
    <glyph glyph-name="G" unicode="G" horiz-adv-x="744" 
d="M684 0h-72l-28 52q-72 -64 -192 -64q-107 0 -189 49t-126.5 132.5t-44.5 182.5q0 100 44.5 183t126 132t185.5 49q97 0 170.5 -39.5t121.5 -108.5l-84 -51q-39 51 -93 77t-119 26q-73 0 -128.5 -37t-85.5 -97.5t-30 -129.5q0 -79 32 -142t89 -98.5t131 -35.5
q66 0 117 22.5t75 53.5v136h-212v92h312v-384z" />
    <glyph glyph-name="H" unicode="H" horiz-adv-x="740" 
d="M552 704h104v-704h-104v312h-364v-312h-104v704h104v-296h364v296z" />
    <glyph glyph-name="I" unicode="I" horiz-adv-x="272" 
d="M84 704h104v-704h-104v704z" />
    <glyph glyph-name="J" unicode="J" horiz-adv-x="500" 
d="M92 12.5q-52 24.5 -90 74.5l87 53q18 -27 50.5 -41.5t72.5 -14.5q52 0 84 32t32 88v500h104v-500q0 -64 -28 -113t-80 -76t-120 -27q-60 0 -112 24.5z" />
    <glyph glyph-name="K" unicode="K" horiz-adv-x="656" 
d="M672 0h-128l-246 305l-110 -121v-184h-104v704h104v-384l344 384h128l-296 -326z" />
    <glyph glyph-name="L" unicode="L" horiz-adv-x="524" 
d="M188 92h324v-92h-428v704h104v-612z" />
    <glyph glyph-name="M" unicode="M" horiz-adv-x="892" 
d="M808 704v-704h-100v450l-228 -450h-68l-228 449v-449h-100v704h80l282 -564l282 564h80z" />
    <glyph glyph-name="N" unicode="N" horiz-adv-x="732" 
d="M548 704h100v-704h-60l-404 494v-494h-100v704h56l408 -507v507z" />
    <glyph glyph-name="O" unicode="O" horiz-adv-x="792" 
d="M212.5 36.5q-83.5 48.5 -132 132t-48.5 183.5q0 102 48.5 185.5t131.5 131t184 47.5q102 0 185.5 -48t131 -131.5t47.5 -184.5q0 -99 -47.5 -182.5t-131 -132.5t-185.5 -49q-100 0 -183.5 48.5zM526.5 117.5q58.5 33.5 92 94.5t33.5 140q0 82 -33.5 142.5t-92 93
t-130.5 32.5t-130.5 -33t-92 -94t-33.5 -141t33.5 -141t92 -94t130.5 -33t130.5 33.5z" />
    <glyph glyph-name="P" unicode="P" horiz-adv-x="592" 
d="M456 673.5q54 -30.5 85 -81.5t31 -112t-30 -112.5t-84 -81.5t-122 -30h-148v-256h-104v704h252q66 0 120 -30.5zM427.5 386.5q36.5 38.5 36.5 93.5t-36.5 93.5t-91.5 38.5h-148v-264h148q55 0 91.5 38.5z" />
    <glyph glyph-name="Q" unicode="Q" horiz-adv-x="784" 
d="M692 0l-66 72q-47 -40 -107 -62t-127 -22q-100 0 -182.5 49t-130 132.5t-47.5 182.5q0 101 47.5 184.5t130 131.5t182.5 48q102 0 184.5 -48t129 -131.5t46.5 -184.5q0 -118 -65 -213l129 -139h-124zM172.5 212q32.5 -61 90 -94.5t129.5 -33.5q48 0 89.5 15t74.5 43
l-140 154h120l76 -82q32 59 32 138q0 81 -32.5 142t-90 93.5t-129.5 32.5t-129.5 -33.5t-90 -94.5t-32.5 -140t32.5 -140z" />
    <glyph glyph-name="R" unicode="R" horiz-adv-x="636" 
d="M504 0l-205 276h-111v-276h-104v704h224q73 0 128 -27.5t85.5 -75.5t30.5 -109q0 -71 -40.5 -121.5t-108.5 -72.5l225 -298h-124zM188 368h120q60 0 98 35t38 89t-37.5 87t-98.5 33h-120v-244z" />
    <glyph glyph-name="S" unicode="S" horiz-adv-x="584" 
d="M140.5 23q-72.5 35 -113.5 94l87 55q28 -40 77.5 -64t112.5 -24q73 0 108.5 27.5t35.5 76.5q0 44 -32 70t-100 42l-68 16q-89 21 -144.5 68.5t-55.5 131.5q0 58 30.5 103.5t86 71t127.5 25.5q76 0 143.5 -30t104.5 -83l-87 -55q-26 34 -70 53t-91 19q-65 0 -100.5 -27
t-35.5 -73q0 -43 38.5 -68t117.5 -44l68 -16q176 -42 176 -200q0 -61 -32 -107t-90.5 -71.5t-133.5 -25.5q-87 0 -159.5 35z" />
    <glyph glyph-name="T" unicode="T" 
d="M588 704v-92h-236v-612h-104v612h-236v92h576z" />
    <glyph glyph-name="U" unicode="U" horiz-adv-x="720" 
d="M207.5 25q-66.5 37 -103 102.5t-36.5 148.5v428h104v-428q0 -57 24.5 -100.5t67 -67.5t96.5 -24q87 0 137.5 52.5t50.5 139.5v428h104v-428q0 -84 -35 -149.5t-101 -102t-156 -36.5q-86 0 -152.5 37z" />
    <glyph glyph-name="V" unicode="V" horiz-adv-x="644" 
d="M540 704h108l-292 -704h-68l-292 704h112l214 -539z" />
    <glyph glyph-name="W" unicode="W" horiz-adv-x="1052" 
d="M944 704h108l-264 -704h-68l-199 503l-189 -503h-68l-264 704h112l188 -523l188 523h72l194 -520z" />
    <glyph glyph-name="X" unicode="X" horiz-adv-x="616" 
d="M628 0h-120l-202 277l-198 -277h-120l261 356l-253 348h120l193 -266l191 266h120l-254 -344z" />
    <glyph glyph-name="Y" unicode="Y" horiz-adv-x="636" 
d="M524 704h116l-268 -436v-268h-104v268l-272 436h116l212 -333z" />
    <glyph glyph-name="Z" unicode="Z" horiz-adv-x="588" 
d="M560 704v-64l-388 -548h388v-92h-532v52l392 560h-392v92h532z" />
    <glyph glyph-name="bracketleft" unicode="[" horiz-adv-x="392" 
d="M308 682h-132v-752h132v-82h-224v916h224v-82z" />
    <glyph glyph-name="backslash" unicode="\" horiz-adv-x="372" 
d="M316 -104l-344 808h96l344 -808h-96z" />
    <glyph glyph-name="bracketright" unicode="]" horiz-adv-x="392" 
d="M308 764v-916h-224v82h132v752h-132v82h224z" />
    <glyph glyph-name="asciicircum" unicode="^" 
d="M540 336h-100l-143 254l-137 -254h-100l208 368h64z" />
    <glyph glyph-name="underscore" unicode="_" horiz-adv-x="468" 
d="M20 -12h428v-96h-428v96z" />
    <glyph glyph-name="grave" unicode="`" 
d="M170 704h108l108 -140v-4h-84z" />
    <glyph glyph-name="a" unicode="a" horiz-adv-x="492" 
d="M384.5 457q47.5 -51 47.5 -129v-328h-68l-29 55q-26 -32 -66 -49.5t-81 -17.5q-70 0 -115 39t-45 109q0 65 55 110t165 62l84 13v3q0 46 -25.5 71t-78.5 25q-67 0 -121 -48l-69 47q37 46 90 67.5t108 21.5q101 0 148.5 -51zM272.5 91.5q34.5 15.5 59.5 40.5v110l-60 -10
q-75 -12 -109.5 -33t-34.5 -63q0 -25 19.5 -42.5t52.5 -17.5q38 0 72.5 15.5z" />
    <glyph glyph-name="b" unicode="b" horiz-adv-x="568" 
d="M425 473.5q55 -34.5 85 -94t30 -131.5q0 -71 -29 -130.5t-85.5 -94.5t-133.5 -35q-78 0 -134 53l-22 -41h-72v704h100v-256q22 29 56.5 44.5t79.5 15.5q70 0 125 -34.5zM393.5 124.5q42.5 44.5 42.5 123.5q0 51 -20 89t-55 58.5t-77 20.5q-74 0 -120 -52v-232
q43 -52 124 -52q63 0 105.5 44.5z" />
    <glyph glyph-name="c" unicode="c" horiz-adv-x="516" 
d="M152.5 19.5q-57.5 31.5 -91 90.5t-33.5 138t33.5 138t90 90.5t124.5 31.5q75 0 132 -33t89 -90l-87 -46q-21 37 -56 57t-78 20q-62 0 -103 -45t-41 -123q0 -82 43 -125t105 -43q42 0 75 19.5t52 54.5l86 -47q-33 -55 -88.5 -87t-124.5 -32q-70 0 -127.5 31.5z" />
    <glyph glyph-name="d" unicode="d" horiz-adv-x="568" 
d="M504 704v-704h-72l-26 49q-22 -29 -58 -45t-80 -16q-70 0 -125 34.5t-85 94t-30 131.5q0 71 30 130.5t87.5 94.5t134.5 35q69 0 124 -42v238h100zM404 132v241q-43 43 -120 43q-41 0 -75.5 -19.5t-55.5 -57.5t-21 -91q0 -51 20 -89t55 -58.5t77 -20.5q74 0 120 52z" />
    <glyph glyph-name="e" unicode="e" horiz-adv-x="532" 
d="M178 113.5q42 -37.5 102 -37.5q43 0 80 18.5t59 53.5l74 -44q-31 -53 -88 -84.5t-133 -31.5q-68 0 -123.5 32.5t-88 91.5t-32.5 136q0 72 30 131.5t86.5 94t131.5 34.5q67 0 118 -32.5t78.5 -85.5t27.5 -114v-52h-368q4 -73 46 -110.5zM182.5 390.5
q-35.5 -29.5 -46.5 -86.5h262q-8 51 -42 83.5t-88 32.5q-50 0 -85.5 -29.5z" />
    <glyph glyph-name="f" unicode="f" horiz-adv-x="372" 
d="M360 412h-168v-412h-100v412h-88v84h88v48q0 81 43 126.5t121 45.5q51 0 101 -30l-40 -68q-26 14 -57 14q-30 0 -49 -22t-19 -58v-56h168v-84z" />
    <glyph glyph-name="g" unicode="g" horiz-adv-x="568" 
d="M504 496v-504q0 -57 -28 -104.5t-79.5 -75.5t-120.5 -28q-62 0 -117.5 24t-89.5 64l67 53q24 -26 59.5 -39.5t76.5 -13.5q64 0 98 33.5t34 86.5v56q-22 -29 -56.5 -44.5t-79.5 -15.5q-70 0 -125 34.5t-85 94t-30 131.5q0 71 30 130.5t87.5 94.5t134.5 35q80 0 137 -52
l19 40h68zM404 132v236q-22 22 -52.5 35t-67.5 13q-41 0 -75.5 -19.5t-55.5 -57.5t-21 -91q0 -51 20 -89t55 -58.5t77 -20.5q74 0 120 52z" />
    <glyph glyph-name="h" unicode="h" horiz-adv-x="544" 
d="M435 451.5q49 -56.5 49 -143.5v-308h-100v296q0 60 -30.5 90t-81.5 30q-62 0 -108 -52v-364h-100v704h100v-260q21 31 54 47.5t74 16.5q94 0 143 -56.5z" />
    <glyph glyph-name="i" unicode="i" horiz-adv-x="228" 
d="M64 496h100v-496h-100v496zM60 704h104v-100h-104v100z" />
    <glyph glyph-name="j" unicode="j" horiz-adv-x="228" 
d="M60 704h104v-100h-104v100zM16 -128q23 0 35.5 14t12.5 42v568h100v-564q0 -67 -37 -107.5t-99 -40.5q-52 0 -91 25l43 74q17 -11 36 -11z" />
    <glyph glyph-name="k" unicode="k" horiz-adv-x="532" 
d="M532 0h-116l-157 224l-95 -100v-124h-100v704h100v-462l232 254h120l-191 -202z" />
    <glyph glyph-name="l" unicode="l" horiz-adv-x="228" 
d="M64 704h100v-704h-100v704z" />
    <glyph glyph-name="m" unicode="m" horiz-adv-x="860" 
d="M749.5 452.5q50.5 -55.5 50.5 -144.5v-308h-100v296q0 120 -112 120q-32 0 -64 -14.5t-45 -36.5q5 -30 5 -57v-308h-100v296q0 62 -32 91t-84 29q-30 0 -57 -14.5t-47 -37.5v-364h-100v496h72l28 -52q21 31 54 47.5t74 16.5q108 0 158 -73q31 39 70 56t88 17
q91 0 141.5 -55.5z" />
    <glyph glyph-name="n" unicode="n" horiz-adv-x="544" 
d="M435 451.5q49 -56.5 49 -143.5v-308h-100v296q0 62 -32 91t-84 29q-30 0 -57 -14.5t-47 -37.5v-364h-100v496h72l28 -52q21 31 54 47.5t74 16.5q94 0 143 -56.5z" />
    <glyph glyph-name="o" unicode="o" horiz-adv-x="568" 
d="M152.5 22q-58.5 34 -91.5 93.5t-33 132.5t33 132.5t91.5 93.5t131.5 34q75 0 133 -34t90.5 -93t32.5 -133t-32.5 -133t-90.5 -93t-133 -34q-73 0 -131.5 34zM362 102q35 22 54.5 60.5t19.5 85.5t-19.5 85.5t-54.5 60.5t-78 22t-78 -22t-54.5 -60.5t-19.5 -85.5
t19.5 -85.5t54.5 -60.5t78 -22t78 22z" />
    <glyph glyph-name="p" unicode="p" horiz-adv-x="568" 
d="M425 473.5q55 -34.5 85 -94t30 -131.5q0 -71 -30 -130.5t-87.5 -94.5t-134.5 -35q-69 0 -124 42v-238h-100v704h72l26 -49q22 29 58 45t80 16q70 0 125 -34.5zM359.5 99.5q34.5 19.5 55.5 57.5t21 91q0 51 -20 89t-55 58.5t-77 20.5q-74 0 -120 -52v-241q43 -43 120 -43
q41 0 75.5 19.5z" />
    <glyph glyph-name="q" unicode="q" horiz-adv-x="568" 
d="M504 496v-704h-100v256q-22 -29 -56.5 -44.5t-79.5 -15.5q-70 0 -125 34.5t-85 94t-30 131.5q0 71 29 130.5t85.5 94.5t133.5 35q78 0 134 -53l22 41h72zM404 132v232q-43 52 -124 52q-63 0 -105.5 -44.5t-42.5 -123.5q0 -51 20 -89t55 -58.5t77 -20.5q74 0 120 52z" />
    <glyph glyph-name="r" unicode="r" horiz-adv-x="372" 
d="M325.5 498.5q26.5 -9.5 38.5 -23.5l-41 -71q-23 16 -59 16q-67 0 -100 -56v-364h-100v496h72l21 -45q41 57 111 57q31 0 57.5 -9.5z" />
    <glyph glyph-name="s" unicode="s" horiz-adv-x="456" 
d="M110 11q-50 23 -87 75l74 46q28 -31 59 -45.5t76 -14.5q46 0 69 17t23 43q0 27 -23.5 45t-80.5 31l-52 12q-60 14 -94 50.5t-34 89.5q0 70 52.5 109t135.5 39q59 0 110 -22t83 -62l-75 -46q-49 46 -126 46q-35 0 -55.5 -15.5t-20.5 -40.5t19.5 -40.5t68.5 -27.5l52 -12
q77 -18 110.5 -55.5t33.5 -96.5q0 -43 -25.5 -77t-71 -52.5t-103.5 -18.5q-68 0 -118 23z" />
    <glyph glyph-name="t" unicode="t" horiz-adv-x="384" 
d="M372 35q-52 -47 -120 -47q-52 0 -90 21t-58 55t-20 72v276h-72v84h80v104l88 56h4v-160h180v-84h-180v-268q0 -31 21 -49.5t51 -18.5q38 0 71 28z" />
    <glyph glyph-name="u" unicode="u" horiz-adv-x="544" 
d="M480 496v-496h-72l-28 52q-21 -31 -54 -47.5t-74 -16.5q-94 0 -143 56.5t-49 143.5v308h100v-296q0 -62 32 -91t84 -29q30 0 57 14.5t47 37.5v364h100z" />
    <glyph glyph-name="v" unicode="v" horiz-adv-x="504" 
d="M400 496h104l-220 -496h-64l-220 496h104l150 -350z" />
    <glyph glyph-name="w" unicode="w" horiz-adv-x="808" 
d="M704 496h104l-192 -496h-72l-137 332l-147 -332h-68l-192 496h104l127 -346l141 346h68l138 -346z" />
    <glyph glyph-name="x" unicode="x" horiz-adv-x="472" 
d="M480 0h-116l-130 173l-126 -173h-116l186 247l-186 249h116l128 -171l124 171h116l-184 -245z" />
    <glyph glyph-name="y" unicode="y" horiz-adv-x="508" 
d="M404 496h104l-312 -704h-92l104 234l-208 470h104l152 -359z" />
    <glyph glyph-name="z" unicode="z" horiz-adv-x="444" 
d="M150 84h270v-84h-396v56l257 356h-253v84h388v-56z" />
    <glyph glyph-name="braceleft" unicode="{" horiz-adv-x="284" 
d="M172.5 340q-23.5 -34 -80.5 -34q57 0 80.5 -34t23.5 -112v-172q0 -32 14.5 -46t47.5 -14h66v-80h-68q-83 0 -115.5 35t-32.5 99v188q0 92 -68 92h-28v88h28q68 0 68 92v188q0 64 32.5 99t115.5 35h68v-80h-66q-33 0 -47.5 -14t-14.5 -46v-172q0 -78 -23.5 -112z" />
    <glyph glyph-name="bar" unicode="|" horiz-adv-x="260" 
d="M84 764h92v-912h-92v912z" />
    <glyph glyph-name="braceright" unicode="}" horiz-adv-x="284" 
d="M272 354v-88h-28q-68 0 -68 -92v-188q0 -64 -32.5 -99t-115.5 -35h-68v80h66q33 0 47.5 14t14.5 46v172q0 78 23.5 112t80.5 34q-57 0 -80.5 34t-23.5 112v172q0 32 -14.5 46t-47.5 14h-66v80h68q83 0 115.5 -35t32.5 -99v-188q0 -92 68 -92h28z" />
    <glyph glyph-name="asciitilde" unicode="~" 
d="M328 308l-64 20q-63 20 -84 20q-28 0 -28 -28v-16h-88v24q0 47 26 75.5t78 28.5q39 0 104 -20l64 -20q63 -20 84 -20q28 0 28 28v16h88v-24q0 -47 -26 -75.5t-78 -28.5q-39 0 -104 20z" />
    <glyph glyph-name="uni00A0" unicode="&#xa0;" horiz-adv-x="240" 
 />
    <glyph glyph-name="exclamdown" unicode="&#xa1;" horiz-adv-x="212" 
d="M48 380v116h116v-116h-116zM160 -208h-108v80l16 416h76l16 -416v-80z" />
    <glyph glyph-name="cent" unicode="&#xa2;" 
d="M416.5 209.5q25.5 18.5 41.5 47.5l83 -46q-29 -49 -76.5 -79.5t-106.5 -37.5v-94h-72v95q-60 9 -107.5 42.5t-75 88.5t-27.5 126q0 72 27.5 127.5t75.5 88.5t107 41v95h72v-94q63 -7 111 -38.5t76 -82.5l-84 -45q-33 61 -103 75v-334q33 6 58.5 24.5zM208 242
q30 -42 78 -55v330q-49 -12 -78.5 -55t-29.5 -110q0 -68 30 -110z" />
    <glyph glyph-name="sterling" unicode="&#xa3;" 
d="M253 165q-18 -43 -48 -73h327v-92h-474v56q53 49 81.5 93t32.5 103h-100v72h91q-9 27 -18 49q-17 41 -26 74.5t-9 76.5q0 54 25 97.5t74 69t119 25.5q61 0 119 -29t94 -83l-83 -50q-25 31 -57.5 48.5t-68.5 17.5q-58 0 -87 -27t-29 -77q0 -30 7 -55.5t20 -60.5
q18 -43 25 -76h192v-72h-186q-3 -44 -21 -87z" />
    <glyph glyph-name="currency" unicode="&#xa4;" 
d="M476 227l70 -71l-50 -50l-74 73q-53 -31 -122 -31q-68 0 -121 33l-75 -75l-50 50l72 72q-40 53 -40 122q0 71 41 125l-73 73l50 50l76 -76q52 32 120 32t121 -31l75 75l50 -50l-72 -72q40 -54 40 -126q0 -71 -38 -123zM388.5 262.5q33.5 34.5 33.5 87.5q0 51 -34 86.5
t-88 35.5q-55 0 -88.5 -34.5t-33.5 -87.5q0 -51 34 -86.5t88 -35.5q55 0 88.5 34.5z" />
    <glyph glyph-name="yen" unicode="&#xa5;" 
d="M600 704l-206 -356h126v-72h-164v-48h164v-72h-164v-156h-104v156h-164v72h164v48h-164v72h129l-217 356h116l192 -326l176 326h116z" />
    <glyph glyph-name="brokenbar" unicode="&#xa6;" horiz-adv-x="260" 
d="M84 764h92v-356h-92v356zM84 206h92v-354h-92v354z" />
    <glyph glyph-name="section" unicode="&#xa7;" 
d="M516 -36q0 -49 -26 -90t-76 -65.5t-118 -24.5q-153 0 -232 110l75 51q62 -65 153 -65q55 0 85.5 19t30.5 53q0 27 -10 44.5t-39.5 32t-90.5 31.5l-72 20q-73 21 -114.5 63.5t-41.5 100.5q0 54 30.5 93.5t80.5 60.5q-75 51 -75 138q0 49 26 90t76 65.5t118 24.5
q66 0 122.5 -22t96.5 -69l-63 -71q-32 33 -71 49.5t-81 16.5q-55 0 -85.5 -19t-30.5 -53q0 -28 9 -45.5t38 -32t89 -30.5l76 -20q73 -19 114.5 -62t41.5 -102q0 -54 -30.5 -93.5t-80.5 -60.5q75 -51 75 -138zM332 148q10 -3 18.5 -5.5t15.5 -4.5q37 17 57.5 41t20.5 53
q0 38 -27 62t-81 38l-76 20q-10 3 -18.5 5.5t-15.5 4.5q-37 -17 -57.5 -41t-20.5 -53q0 -38 27.5 -62t80.5 -38z" />
    <glyph glyph-name="dieresis" unicode="&#xa8;" 
d="M36 688h92v-96h-92v96zM224 688h92v-96h-92v96z" />
    <glyph glyph-name="copyright" unicode="&#xa9;" horiz-adv-x="800" 
d="M210 37q-84 49 -131 132t-47 183q0 99 47 182.5t131 132.5t190 49t190 -49t131 -132.5t47 -182.5q0 -100 -46.5 -183t-130.5 -132t-191 -49q-106 0 -190 49zM550.5 86.5q68.5 38.5 109 108t40.5 157.5t-40.5 157.5t-109 108t-150.5 38.5t-150.5 -38.5t-109 -108
t-40.5 -157.5t40.5 -157.5t109 -108t150.5 -38.5t150.5 38.5zM298.5 182q-45.5 26 -70 71t-24.5 99q0 55 25.5 99.5t70 70.5t100.5 26q60 0 106.5 -26.5t69.5 -69.5l-68 -38q-15 26 -41 42t-63 16q-52 0 -82 -33.5t-30 -86.5t30 -86.5t82 -33.5q38 0 65.5 17t43.5 46l66 -37
q-22 -45 -68 -73.5t-109 -28.5q-58 0 -103.5 26z" />
    <glyph glyph-name="ordfeminine" unicode="&#xaa;" horiz-adv-x="384" 
d="M308 678q40 -38 40 -98v-244h-52l-25 39q-46 -51 -115 -51q-57 0 -92.5 30t-35.5 78q0 55 40.5 90t135.5 46l64 8q0 34 -21 53t-59 19q-62 0 -101 -44l-55 40q28 34 69.5 53t90.5 19q76 0 116 -38zM268 436v78l-52 -6q-56 -7 -82 -22.5t-26 -45.5q0 -48 60 -48
q59 0 100 44z" />
    <glyph glyph-name="guillemotleft" unicode="&#xab;" horiz-adv-x="476" 
d="M266 458l-143 -176l140 -169l-72 -43l-183 210l184 221zM443 443l-128 -161l125 -154l-72 -42l-164 194l165 205z" />
    <glyph glyph-name="logicalnot" unicode="&#xac;" 
d="M436 316h-372v88h460v-236h-88v148z" />
    <glyph glyph-name="uni00AD" unicode="&#xad;" horiz-adv-x="388" 
d="M40 336h308v-92h-308v92z" />
    <glyph glyph-name="registered" unicode="&#xae;" horiz-adv-x="452" 
d="M327.5 690q45.5 -26 71 -71t25.5 -99q0 -55 -25 -99.5t-70 -70.5t-103 -26t-103 26t-70 71t-25 99t25.5 99t71 71t101.5 26t101.5 -26zM306.5 380q36.5 20 58 56.5t21.5 83.5q0 48 -21.5 84t-58 56t-80.5 20q-45 0 -81.5 -20t-57.5 -56.5t-21 -83.5t21 -83.5t57.5 -56.5
t81.5 -20q44 0 80.5 20zM298 523.5q-10 -15.5 -28 -23.5l58 -80h-56l-48 70h-30v-70h-46v206h86q33 0 53.5 -18.5t20.5 -47.5q0 -21 -10 -36.5zM194 526h32q15 0 23.5 9t8.5 23q0 13 -9 20.5t-23 7.5h-32v-60z" />
    <glyph glyph-name="macron" unicode="&#xaf;" 
d="M140 680h312v-76h-312v76z" />
    <glyph glyph-name="degree" unicode="&#xb0;" horiz-adv-x="452" 
d="M123.5 368q-44.5 24 -70 66.5t-25.5 93.5q0 54 25.5 97t70.5 67t100 24q58 0 103.5 -23.5t71 -66.5t25.5 -98t-25.5 -97t-71 -64.5t-103.5 -22.5q-56 0 -100.5 24zM302 453.5q30 29.5 30 74.5q0 43 -30.5 75.5t-77.5 32.5t-75.5 -31t-28.5 -77q0 -43 28.5 -73.5
t75.5 -30.5q48 0 78 29.5z" />
    <glyph glyph-name="plusminus" unicode="&#xb1;" 
d="M344 460h196v-84h-196v-192h-88v192h-196v84h196v188h88v-188zM64 60v80h472v-80h-472z" />
    <glyph glyph-name="twosuperior" unicode="&#xb2;" horiz-adv-x="340" 
d="M320 568v-72h-292v40l128 120q34 33 47 53t13 43t-16 39.5t-44 16.5q-22 0 -40 -10.5t-35 -34.5l-58 32q51 81 141 81q64 0 98 -34t34 -82q0 -39 -20 -70t-60 -66l-64 -56h168z" />
    <glyph glyph-name="threesuperior" unicode="&#xb3;" horiz-adv-x="340" 
d="M299.5 652q16.5 -24 16.5 -52q0 -51 -42.5 -83.5t-105.5 -32.5q-51 0 -88.5 18.5t-55.5 52.5l62 36q12 -21 30 -30t48 -9q33 0 52.5 14.5t19.5 37.5t-20.5 35.5t-55.5 12.5h-48v60h44q32 0 50 13.5t18 34.5q0 22 -16 35t-48 13q-46 0 -79 -40l-55 31q43 77 142 77
q62 0 99 -30.5t37 -73.5q0 -56 -51 -83q30 -13 46.5 -37z" />
    <glyph glyph-name="acute" unicode="&#xb4;" 
d="M156 564l108 140h108l-132 -144h-84v4z" />
    <glyph glyph-name="mu" unicode="&#xb5;" horiz-adv-x="604" 
d="M601 18q-39 -30 -89 -30q-83 0 -110 69q-20 -33 -56.5 -51t-77.5 -18q-61 0 -100 34v-230h-96v704h100v-296q0 -62 30 -91t78 -29q37 0 63 14t49 38v364h100v-372q0 -48 40 -48q17 0 33 9z" />
    <glyph glyph-name="paragraph" unicode="&#xb6;" horiz-adv-x="628" 
d="M380 0h-96v288h-28q-70 0 -123.5 28t-83 75.5t-29.5 104.5t29.5 104.5t81.5 75.5t117 28h132v-704zM448 704h96v-704h-96v704z" />
    <glyph glyph-name="periodcentered" unicode="&#xb7;" horiz-adv-x="212" 
d="M48 420h116v-116h-116v116z" />
    <glyph glyph-name="cedilla" unicode="&#xb8;" 
d="M296.5 -81q19.5 -22 19.5 -51q0 -35 -27 -59.5t-65 -24.5q-26 0 -46.5 12.5t-33.5 35.5l36 28q6 -11 17 -17.5t27 -6.5q18 0 27 9.5t9 22.5q0 16 -15.5 26t-32.5 10h-24l32 96h36l-13 -51q34 -8 53.5 -30z" />
    <glyph glyph-name="onesuperior" unicode="&#xb9;" horiz-adv-x="340" 
d="M200 864h48v-368h-76v279l-108 -43l-32 60z" />
    <glyph glyph-name="ordmasculine" unicode="&#xba;" horiz-adv-x="448" 
d="M121.5 349.5q-45.5 25.5 -71.5 70.5t-26 100t26 100t71.5 70.5t102.5 25.5q58 0 103.5 -25.5t71 -70t25.5 -100.5t-25.5 -100.5t-71 -70t-103.5 -25.5q-57 0 -102.5 25.5zM307.5 430.5q32.5 34.5 32.5 89.5q0 54 -32.5 89t-83.5 35q-52 0 -84 -34.5t-32 -89.5t32.5 -89.5
t83.5 -34.5t83.5 34.5z" />
    <glyph glyph-name="guillemotright" unicode="&#xbb;" horiz-adv-x="476" 
d="M284 501l184 -221l-183 -210l-72 43l140 169l-143 176zM107 485l165 -205l-164 -194l-72 42l125 154l-128 161z" />
    <glyph glyph-name="onequarter" unicode="&#xbc;" horiz-adv-x="752" 
d="M200 704h48v-368h-76v279l-108 -43l-32 60zM564 704h80l-456 -704h-80zM708 148v-60h-52v-84h-76v84h-196v40l216 244h56v-224h52zM480 148h100v116z" />
    <glyph glyph-name="onehalf" unicode="&#xbd;" horiz-adv-x="752" 
d="M200 704h48v-368h-76v279l-108 -43l-32 60zM564 704h80l-456 -704h-80zM732 76v-72h-292v40l128 120q34 33 47 53t13 43t-16 39.5t-44 16.5q-22 0 -40 -10.5t-35 -34.5l-58 32q51 81 141 81q64 0 98 -34t34 -82q0 -39 -20 -70t-60 -66l-64 -56h168z" />
    <glyph glyph-name="threequarters" unicode="&#xbe;" horiz-adv-x="752" 
d="M299.5 492q16.5 -24 16.5 -52q0 -51 -42.5 -83.5t-105.5 -32.5q-51 0 -88.5 18.5t-55.5 52.5l62 36q12 -21 30 -30t48 -9q33 0 52.5 14.5t19.5 37.5t-20.5 35.5t-55.5 12.5h-48v60h44q32 0 50 13.5t18 34.5q0 22 -16 35t-48 13q-46 0 -79 -40l-55 31q43 77 142 77
q62 0 99 -30.5t37 -73.5q0 -56 -51 -83q30 -13 46.5 -37zM564 704h80l-456 -704h-80zM708 148v-60h-52v-84h-76v84h-196v40l216 244h56v-224h52zM480 148h100v116z" />
    <glyph glyph-name="questiondown" unicode="&#xbf;" horiz-adv-x="500" 
d="M324 496v-116h-116v116h116zM485 -95q-85 -125 -241 -125q-73 0 -124.5 27.5t-77.5 71.5t-26 93q0 84 50.5 140t145.5 91l2 85h104l-2 -132q-72 -30 -111 -52t-60 -52.5t-21 -75.5q0 -42 35 -71t93 -29q46 0 85 19.5t68 56.5z" />
    <glyph glyph-name="Agrave" unicode="&#xc0;" horiz-adv-x="684" 
d="M568 0l-64 156h-327l-65 -156h-108l304 704h68l304 -704h-112zM216 248h250l-124 302zM206 912h108l108 -140v-4h-84z" />
    <glyph glyph-name="Aacute" unicode="&#xc1;" horiz-adv-x="684" 
d="M568 0l-64 156h-327l-65 -156h-108l304 704h68l304 -704h-112zM216 248h250l-124 302zM264 772l108 140h108l-132 -144h-84v4z" />
    <glyph glyph-name="Acircumflex" unicode="&#xc2;" horiz-adv-x="684" 
d="M568 0l-64 156h-327l-65 -156h-108l304 704h68l304 -704h-112zM216 248h250l-124 302zM520 760h-96l-83 86l-77 -86h-92l128 152h88z" />
    <glyph glyph-name="Atilde" unicode="&#xc3;" horiz-adv-x="684" 
d="M568 0l-64 156h-327l-65 -156h-108l304 704h68l304 -704h-112zM216 248h250l-124 302zM378 777.5q-24 13.5 -58 36.5q-37 26 -44 26q-12 0 -12 -12v-56h-64v52q0 55 15 75.5t49 20.5q17 0 41 -13.5t56 -36.5q41 -30 51 -30q12 0 12 12v60h64v-56q0 -50 -16 -71t-52 -21
q-18 0 -42 13.5z" />
    <glyph glyph-name="Adieresis" unicode="&#xc4;" horiz-adv-x="684" 
d="M568 0l-64 156h-327l-65 -156h-108l304 704h68l304 -704h-112zM216 248h250l-124 302zM204 896h92v-96h-92v96zM392 896h92v-96h-92v96z" />
    <glyph glyph-name="Aring" unicode="&#xc5;" horiz-adv-x="684" 
d="M568 0l-64 156h-327l-65 -156h-108l304 704h68l304 -704h-112zM216 248h250l-124 302zM270.5 775.5q-30.5 27.5 -30.5 68.5t30.5 68.5t73.5 27.5t73.5 -27.5t30.5 -68.5t-30.5 -68.5t-73.5 -27.5t-73.5 27.5zM376 812.5q12 12.5 12 31.5t-12 31.5t-32 12.5t-32 -12.5
t-12 -31.5t12 -31.5t32 -12.5t32 12.5z" />
    <glyph glyph-name="AE" unicode="&#xc6;" horiz-adv-x="1000" 
d="M600 92h360v-92h-464v156h-274l-98 -156h-116l448 704h496v-92h-352v-208h300v-92h-300v-220zM279 248h217v347z" />
    <glyph glyph-name="Ccedilla" unicode="&#xc7;" horiz-adv-x="684" 
d="M493.5 115q53.5 31 86.5 90l87 -49q-45 -77 -115.5 -120.5t-162.5 -47.5l-10 -39q34 -8 53.5 -30t19.5 -51q0 -35 -27 -59.5t-65 -24.5q-26 0 -46.5 12.5t-33.5 35.5l36 28q6 -11 17 -17.5t27 -6.5q18 0 27 9.5t9 22.5q0 16 -15.5 26t-32.5 10h-24l28 84
q-97 5 -169.5 55.5t-111.5 131.5t-39 177q0 101 41.5 184t118.5 131.5t180 48.5q100 0 175.5 -45t121.5 -122l-85 -51q-35 56 -89.5 89t-122.5 33q-69 0 -121.5 -34.5t-81.5 -95t-29 -138.5t29 -138.5t81.5 -95t121.5 -34.5q68 0 121.5 31z" />
    <glyph glyph-name="Egrave" unicode="&#xc8;" horiz-adv-x="588" 
d="M188 92h360v-92h-464v704h456v-92h-352v-208h300v-92h-300v-220zM174 912h108l108 -140v-4h-84z" />
    <glyph glyph-name="Eacute" unicode="&#xc9;" horiz-adv-x="588" 
d="M188 92h360v-92h-464v704h456v-92h-352v-208h300v-92h-300v-220zM232 772l108 140h108l-132 -144h-84v4z" />
    <glyph glyph-name="Ecircumflex" unicode="&#xca;" horiz-adv-x="588" 
d="M188 92h360v-92h-464v704h456v-92h-352v-208h300v-92h-300v-220zM488 760h-96l-83 86l-77 -86h-92l128 152h88z" />
    <glyph glyph-name="Edieresis" unicode="&#xcb;" horiz-adv-x="588" 
d="M188 92h360v-92h-464v704h456v-92h-352v-208h300v-92h-300v-220zM172 896h92v-96h-92v96zM360 896h92v-96h-92v96z" />
    <glyph glyph-name="Igrave" unicode="&#xcc;" horiz-adv-x="272" 
d="M84 704h104v-704h-104v704zM-2 912h108l108 -140v-4h-84z" />
    <glyph glyph-name="Iacute" unicode="&#xcd;" horiz-adv-x="272" 
d="M84 704h104v-704h-104v704zM56 772l108 140h108l-132 -144h-84v4z" />
    <glyph glyph-name="Icircumflex" unicode="&#xce;" horiz-adv-x="272" 
d="M84 704h104v-704h-104v704zM312 760h-96l-83 86l-77 -86h-92l128 152h88z" />
    <glyph glyph-name="Idieresis" unicode="&#xcf;" horiz-adv-x="272" 
d="M84 704h104v-704h-104v704zM-4 896h92v-96h-92v96zM184 896h92v-96h-92v96z" />
    <glyph glyph-name="Eth" unicode="&#xd0;" horiz-adv-x="720" 
d="M507 659.5q85 -44.5 133 -125t48 -182.5q0 -101 -48.5 -181t-133 -125.5t-190.5 -45.5h-232v320h-64v64h64v320h232q106 0 191 -44.5zM451 124q60 32 94.5 91t34.5 137q0 80 -34.5 139t-94.5 90t-135 31h-128v-228h168v-64h-168v-228h128q75 0 135 32z" />
    <glyph glyph-name="Ntilde" unicode="&#xd1;" horiz-adv-x="732" 
d="M548 704h100v-704h-60l-404 494v-494h-100v704h56l408 -507v507zM402 777.5q-24 13.5 -58 36.5q-37 26 -44 26q-12 0 -12 -12v-56h-64v52q0 55 15 75.5t49 20.5q17 0 41 -13.5t56 -36.5q41 -30 51 -30q12 0 12 12v60h64v-56q0 -50 -16 -71t-52 -21q-18 0 -42 13.5z" />
    <glyph glyph-name="Ograve" unicode="&#xd2;" horiz-adv-x="792" 
d="M212.5 36.5q-83.5 48.5 -132 132t-48.5 183.5q0 102 48.5 185.5t131.5 131t184 47.5q102 0 185.5 -48t131 -131.5t47.5 -184.5q0 -99 -47.5 -182.5t-131 -132.5t-185.5 -49q-100 0 -183.5 48.5zM526.5 117.5q58.5 33.5 92 94.5t33.5 140q0 82 -33.5 142.5t-92 93
t-130.5 32.5t-130.5 -33t-92 -94t-33.5 -141t33.5 -141t92 -94t130.5 -33t130.5 33.5zM258 912h108l108 -140v-4h-84z" />
    <glyph glyph-name="Oacute" unicode="&#xd3;" horiz-adv-x="792" 
d="M212.5 36.5q-83.5 48.5 -132 132t-48.5 183.5q0 102 48.5 185.5t131.5 131t184 47.5q102 0 185.5 -48t131 -131.5t47.5 -184.5q0 -99 -47.5 -182.5t-131 -132.5t-185.5 -49q-100 0 -183.5 48.5zM526.5 117.5q58.5 33.5 92 94.5t33.5 140q0 82 -33.5 142.5t-92 93
t-130.5 32.5t-130.5 -33t-92 -94t-33.5 -141t33.5 -141t92 -94t130.5 -33t130.5 33.5zM316 772l108 140h108l-132 -144h-84v4z" />
    <glyph glyph-name="Ocircumflex" unicode="&#xd4;" horiz-adv-x="792" 
d="M212.5 36.5q-83.5 48.5 -132 132t-48.5 183.5q0 102 48.5 185.5t131.5 131t184 47.5q102 0 185.5 -48t131 -131.5t47.5 -184.5q0 -99 -47.5 -182.5t-131 -132.5t-185.5 -49q-100 0 -183.5 48.5zM526.5 117.5q58.5 33.5 92 94.5t33.5 140q0 82 -33.5 142.5t-92 93
t-130.5 32.5t-130.5 -33t-92 -94t-33.5 -141t33.5 -141t92 -94t130.5 -33t130.5 33.5zM572 760h-96l-83 86l-77 -86h-92l128 152h88z" />
    <glyph glyph-name="Otilde" unicode="&#xd5;" horiz-adv-x="792" 
d="M212.5 36.5q-83.5 48.5 -132 132t-48.5 183.5q0 102 48.5 185.5t131.5 131t184 47.5q102 0 185.5 -48t131 -131.5t47.5 -184.5q0 -99 -47.5 -182.5t-131 -132.5t-185.5 -49q-100 0 -183.5 48.5zM526.5 117.5q58.5 33.5 92 94.5t33.5 140q0 82 -33.5 142.5t-92 93
t-130.5 32.5t-130.5 -33t-92 -94t-33.5 -141t33.5 -141t92 -94t130.5 -33t130.5 33.5zM430 777.5q-24 13.5 -58 36.5q-37 26 -44 26q-12 0 -12 -12v-56h-64v52q0 55 15 75.5t49 20.5q17 0 41 -13.5t56 -36.5q41 -30 51 -30q12 0 12 12v60h64v-56q0 -50 -16 -71t-52 -21
q-18 0 -42 13.5z" />
    <glyph glyph-name="Odieresis" unicode="&#xd6;" horiz-adv-x="792" 
d="M212.5 36.5q-83.5 48.5 -132 132t-48.5 183.5q0 102 48.5 185.5t131.5 131t184 47.5q102 0 185.5 -48t131 -131.5t47.5 -184.5q0 -99 -47.5 -182.5t-131 -132.5t-185.5 -49q-100 0 -183.5 48.5zM526.5 117.5q58.5 33.5 92 94.5t33.5 140q0 82 -33.5 142.5t-92 93
t-130.5 32.5t-130.5 -33t-92 -94t-33.5 -141t33.5 -141t92 -94t130.5 -33t130.5 33.5zM256 896h92v-96h-92v96zM444 896h92v-96h-92v96z" />
    <glyph glyph-name="multiply" unicode="&#xd7;" 
d="M508 516l-152 -154l152 -154l-60 -60l-152 154l-152 -154l-60 60l152 154l-152 154l60 60l152 -154l152 154z" />
    <glyph glyph-name="Oslash" unicode="&#xd8;" horiz-adv-x="792" 
d="M731.5 498q28.5 -68 28.5 -146q0 -99 -47.5 -182.5t-131 -132.5t-185.5 -49q-107 0 -197 56l-35 -44h-84l67 85q-54 51 -84.5 119.5t-30.5 147.5q0 102 48.5 185.5t131.5 131t184 47.5q114 0 203 -59l37 47h84l-69 -88q52 -50 80.5 -118zM208 162l331 419q-64 39 -143 39
q-72 0 -130.5 -33t-92 -94t-33.5 -141q0 -114 68 -190zM526.5 117.5q58.5 33.5 92 94.5t33.5 140q0 112 -63 186l-330 -417q62 -37 137 -37q72 0 130.5 33.5z" />
    <glyph glyph-name="Ugrave" unicode="&#xd9;" horiz-adv-x="720" 
d="M207.5 25q-66.5 37 -103 102.5t-36.5 148.5v428h104v-428q0 -57 24.5 -100.5t67 -67.5t96.5 -24q87 0 137.5 52.5t50.5 139.5v428h104v-428q0 -84 -35 -149.5t-101 -102t-156 -36.5q-86 0 -152.5 37zM222 912h108l108 -140v-4h-84z" />
    <glyph glyph-name="Uacute" unicode="&#xda;" horiz-adv-x="720" 
d="M207.5 25q-66.5 37 -103 102.5t-36.5 148.5v428h104v-428q0 -57 24.5 -100.5t67 -67.5t96.5 -24q87 0 137.5 52.5t50.5 139.5v428h104v-428q0 -84 -35 -149.5t-101 -102t-156 -36.5q-86 0 -152.5 37zM280 772l108 140h108l-132 -144h-84v4z" />
    <glyph glyph-name="Ucircumflex" unicode="&#xdb;" horiz-adv-x="720" 
d="M207.5 25q-66.5 37 -103 102.5t-36.5 148.5v428h104v-428q0 -57 24.5 -100.5t67 -67.5t96.5 -24q87 0 137.5 52.5t50.5 139.5v428h104v-428q0 -84 -35 -149.5t-101 -102t-156 -36.5q-86 0 -152.5 37zM536 760h-96l-83 86l-77 -86h-92l128 152h88z" />
    <glyph glyph-name="Udieresis" unicode="&#xdc;" horiz-adv-x="720" 
d="M207.5 25q-66.5 37 -103 102.5t-36.5 148.5v428h104v-428q0 -57 24.5 -100.5t67 -67.5t96.5 -24q87 0 137.5 52.5t50.5 139.5v428h104v-428q0 -84 -35 -149.5t-101 -102t-156 -36.5q-86 0 -152.5 37zM220 896h92v-96h-92v96zM408 896h92v-96h-92v96z" />
    <glyph glyph-name="Yacute" unicode="&#xdd;" horiz-adv-x="636" 
d="M524 704h116l-268 -436v-268h-104v268l-272 436h116l212 -333zM240 772l108 140h108l-132 -144h-84v4z" />
    <glyph glyph-name="Thorn" unicode="&#xde;" horiz-adv-x="592" 
d="M457 547.5q54 -28.5 84.5 -78t30.5 -109.5q0 -61 -30 -110t-83.5 -77.5t-122.5 -28.5h-148v-144h-104v704h104v-128h148q67 0 121 -28.5zM428 271q36 35 36 89t-36 89t-92 35h-148v-248h148q56 0 92 35z" />
    <glyph glyph-name="germandbls" unicode="&#xdf;" horiz-adv-x="588" 
d="M526.5 309.5q33.5 -47.5 33.5 -109.5q0 -68 -29 -115.5t-78.5 -72t-108.5 -24.5q-69 0 -117 33l44 74q35 -19 73 -19q43 0 77.5 28t34.5 88q0 57 -38.5 92.5t-113.5 35.5h-48v80h48q47 0 77.5 33.5t30.5 82.5q0 47 -30 77.5t-82 30.5q-48 0 -78 -29.5t-30 -82.5v-512
h-100v412h-88v84h88v4q0 60 23.5 109t70.5 78t114 29q70 0 118 -28.5t71 -72.5t23 -91q0 -46 -19.5 -82.5t-56.5 -59.5q57 -25 90.5 -72.5z" />
    <glyph glyph-name="agrave" unicode="&#xe0;" horiz-adv-x="492" 
d="M384.5 457q47.5 -51 47.5 -129v-328h-68l-29 55q-26 -32 -66 -49.5t-81 -17.5q-70 0 -115 39t-45 109q0 65 55 110t165 62l84 13v3q0 46 -25.5 71t-78.5 25q-67 0 -121 -48l-69 47q37 46 90 67.5t108 21.5q101 0 148.5 -51zM272.5 91.5q34.5 15.5 59.5 40.5v110l-60 -10
q-75 -12 -109.5 -33t-34.5 -63q0 -25 19.5 -42.5t52.5 -17.5q38 0 72.5 15.5zM102 704h108l108 -140v-4h-84z" />
    <glyph glyph-name="aacute" unicode="&#xe1;" horiz-adv-x="492" 
d="M384.5 457q47.5 -51 47.5 -129v-328h-68l-29 55q-26 -32 -66 -49.5t-81 -17.5q-70 0 -115 39t-45 109q0 65 55 110t165 62l84 13v3q0 46 -25.5 71t-78.5 25q-67 0 -121 -48l-69 47q37 46 90 67.5t108 21.5q101 0 148.5 -51zM272.5 91.5q34.5 15.5 59.5 40.5v110l-60 -10
q-75 -12 -109.5 -33t-34.5 -63q0 -25 19.5 -42.5t52.5 -17.5q38 0 72.5 15.5zM160 564l108 140h108l-132 -144h-84v4z" />
    <glyph glyph-name="acircumflex" unicode="&#xe2;" horiz-adv-x="492" 
d="M384.5 457q47.5 -51 47.5 -129v-328h-68l-29 55q-26 -32 -66 -49.5t-81 -17.5q-70 0 -115 39t-45 109q0 65 55 110t165 62l84 13v3q0 46 -25.5 71t-78.5 25q-67 0 -121 -48l-69 47q37 46 90 67.5t108 21.5q101 0 148.5 -51zM272.5 91.5q34.5 15.5 59.5 40.5v110l-60 -10
q-75 -12 -109.5 -33t-34.5 -63q0 -25 19.5 -42.5t52.5 -17.5q38 0 72.5 15.5zM416 552h-96l-83 86l-77 -86h-92l128 152h88z" />
    <glyph glyph-name="atilde" unicode="&#xe3;" horiz-adv-x="492" 
d="M384.5 457q47.5 -51 47.5 -129v-328h-68l-29 55q-26 -32 -66 -49.5t-81 -17.5q-70 0 -115 39t-45 109q0 65 55 110t165 62l84 13v3q0 46 -25.5 71t-78.5 25q-67 0 -121 -48l-69 47q37 46 90 67.5t108 21.5q101 0 148.5 -51zM272.5 91.5q34.5 15.5 59.5 40.5v110l-60 -10
q-75 -12 -109.5 -33t-34.5 -63q0 -25 19.5 -42.5t52.5 -17.5q38 0 72.5 15.5zM274 569.5q-24 13.5 -58 36.5q-37 26 -44 26q-12 0 -12 -12v-56h-64v52q0 55 15 75.5t49 20.5q17 0 41 -13.5t56 -36.5q41 -30 51 -30q12 0 12 12v60h64v-56q0 -50 -16 -71t-52 -21
q-18 0 -42 13.5z" />
    <glyph glyph-name="adieresis" unicode="&#xe4;" horiz-adv-x="492" 
d="M384.5 457q47.5 -51 47.5 -129v-328h-68l-29 55q-26 -32 -66 -49.5t-81 -17.5q-70 0 -115 39t-45 109q0 65 55 110t165 62l84 13v3q0 46 -25.5 71t-78.5 25q-67 0 -121 -48l-69 47q37 46 90 67.5t108 21.5q101 0 148.5 -51zM272.5 91.5q34.5 15.5 59.5 40.5v110l-60 -10
q-75 -12 -109.5 -33t-34.5 -63q0 -25 19.5 -42.5t52.5 -17.5q38 0 72.5 15.5zM100 688h92v-96h-92v96zM288 688h92v-96h-92v96z" />
    <glyph glyph-name="aring" unicode="&#xe5;" horiz-adv-x="492" 
d="M384.5 457q47.5 -51 47.5 -129v-328h-68l-29 55q-26 -32 -66 -49.5t-81 -17.5q-70 0 -115 39t-45 109q0 65 55 110t165 62l84 13v3q0 46 -25.5 71t-78.5 25q-67 0 -121 -48l-69 47q37 46 90 67.5t108 21.5q101 0 148.5 -51zM272.5 91.5q34.5 15.5 59.5 40.5v110l-60 -10
q-75 -12 -109.5 -33t-34.5 -63q0 -25 19.5 -42.5t52.5 -17.5q38 0 72.5 15.5zM166.5 567.5q-30.5 27.5 -30.5 68.5t30.5 68.5t73.5 27.5t73.5 -27.5t30.5 -68.5t-30.5 -68.5t-73.5 -27.5t-73.5 27.5zM272 604.5q12 12.5 12 31.5t-12 31.5t-32 12.5t-32 -12.5t-12 -31.5
t12 -31.5t32 -12.5t32 12.5z" />
    <glyph glyph-name="ae" unicode="&#xe6;" horiz-adv-x="836" 
d="M484.5 111.5q41.5 -35.5 99.5 -35.5q44 0 81.5 18t59.5 53l72 -43q-31 -52 -87.5 -84t-125.5 -32q-60 0 -109.5 21.5t-83.5 62.5q-36 -43 -88 -63.5t-103 -20.5q-49 0 -88.5 18.5t-61.5 50t-22 71.5q0 76 59 119.5t173 60.5l72 11v5q0 45 -26 70.5t-74 25.5
q-37 0 -67.5 -11.5t-57.5 -36.5l-68 47q38 43 90 66t111 23q57 0 97.5 -19t63.5 -53q65 72 167 72q73 0 126.5 -33.5t81.5 -88.5t28 -118v-52h-367q6 -69 47.5 -104.5zM483.5 388.5q-35.5 -31.5 -44.5 -92.5h264q-5 55 -40.5 89.5t-94.5 34.5q-49 0 -84.5 -31.5zM286 91
q37 15 65 50q-17 42 -19 99l-52 -8q-78 -12 -115 -34t-37 -62q0 -27 21.5 -43.5t62.5 -16.5q37 0 74 15z" />
    <glyph glyph-name="ccedilla" unicode="&#xe7;" horiz-adv-x="516" 
d="M355 99.5q33 19.5 52 54.5l86 -47q-30 -52 -81 -83t-115 -35l-10 -40q34 -8 53.5 -30t19.5 -51q0 -35 -27 -59.5t-65 -24.5q-26 0 -46.5 12.5t-33.5 35.5l36 28q6 -11 17 -17.5t27 -6.5q18 0 27 9.5t9 22.5q0 16 -15.5 26t-32.5 10h-24l28 85q-66 4 -118.5 36.5t-83 90
t-30.5 132.5q0 79 33.5 138t90 90.5t124.5 31.5q75 0 132 -33t89 -90l-87 -46q-21 37 -56 57t-78 20q-62 0 -103 -45t-41 -123q0 -82 43 -125t105 -43q42 0 75 19.5z" />
    <glyph glyph-name="egrave" unicode="&#xe8;" horiz-adv-x="532" 
d="M178 113.5q42 -37.5 102 -37.5q43 0 80 18.5t59 53.5l74 -44q-31 -53 -88 -84.5t-133 -31.5q-68 0 -123.5 32.5t-88 91.5t-32.5 136q0 72 30 131.5t86.5 94t131.5 34.5q67 0 118 -32.5t78.5 -85.5t27.5 -114v-52h-368q4 -73 46 -110.5zM182.5 390.5
q-35.5 -29.5 -46.5 -86.5h262q-8 51 -42 83.5t-88 32.5q-50 0 -85.5 -29.5zM134 704h108l108 -140v-4h-84z" />
    <glyph glyph-name="eacute" unicode="&#xe9;" horiz-adv-x="532" 
d="M178 113.5q42 -37.5 102 -37.5q43 0 80 18.5t59 53.5l74 -44q-31 -53 -88 -84.5t-133 -31.5q-68 0 -123.5 32.5t-88 91.5t-32.5 136q0 72 30 131.5t86.5 94t131.5 34.5q67 0 118 -32.5t78.5 -85.5t27.5 -114v-52h-368q4 -73 46 -110.5zM182.5 390.5
q-35.5 -29.5 -46.5 -86.5h262q-8 51 -42 83.5t-88 32.5q-50 0 -85.5 -29.5zM192 564l108 140h108l-132 -144h-84v4z" />
    <glyph glyph-name="ecircumflex" unicode="&#xea;" horiz-adv-x="532" 
d="M178 113.5q42 -37.5 102 -37.5q43 0 80 18.5t59 53.5l74 -44q-31 -53 -88 -84.5t-133 -31.5q-68 0 -123.5 32.5t-88 91.5t-32.5 136q0 72 30 131.5t86.5 94t131.5 34.5q67 0 118 -32.5t78.5 -85.5t27.5 -114v-52h-368q4 -73 46 -110.5zM182.5 390.5
q-35.5 -29.5 -46.5 -86.5h262q-8 51 -42 83.5t-88 32.5q-50 0 -85.5 -29.5zM448 552h-96l-83 86l-77 -86h-92l128 152h88z" />
    <glyph glyph-name="edieresis" unicode="&#xeb;" horiz-adv-x="532" 
d="M178 113.5q42 -37.5 102 -37.5q43 0 80 18.5t59 53.5l74 -44q-31 -53 -88 -84.5t-133 -31.5q-68 0 -123.5 32.5t-88 91.5t-32.5 136q0 72 30 131.5t86.5 94t131.5 34.5q67 0 118 -32.5t78.5 -85.5t27.5 -114v-52h-368q4 -73 46 -110.5zM182.5 390.5
q-35.5 -29.5 -46.5 -86.5h262q-8 51 -42 83.5t-88 32.5q-50 0 -85.5 -29.5zM132 688h92v-96h-92v96zM320 688h92v-96h-92v96z" />
    <glyph glyph-name="igrave" unicode="&#xec;" horiz-adv-x="228" 
d="M64 496h100v-496h-100v496zM-26 704h108l108 -140v-4h-84z" />
    <glyph glyph-name="iacute" unicode="&#xed;" horiz-adv-x="228" 
d="M64 496h100v-496h-100v496zM32 564l108 140h108l-132 -144h-84v4z" />
    <glyph glyph-name="icircumflex" unicode="&#xee;" horiz-adv-x="228" 
d="M64 496h100v-496h-100v496zM288 552h-96l-83 86l-77 -86h-92l128 152h88z" />
    <glyph glyph-name="idieresis" unicode="&#xef;" horiz-adv-x="228" 
d="M64 496h100v-496h-100v496zM-28 688h92v-96h-92v96zM160 688h92v-96h-92v96z" />
    <glyph glyph-name="eth" unicode="&#xf0;" horiz-adv-x="552" 
d="M491.5 467.5q32.5 -84.5 32.5 -179.5q0 -156 -70.5 -228t-177.5 -72q-69 0 -125.5 28.5t-89.5 82t-33 125.5q0 69 31.5 122t86 81.5t122.5 28.5q45 0 80 -14.5t58 -40.5q-27 98 -101 170l-157 -87l-32 56l136 75q-45 31 -98 54l91 53q55 -27 95 -58l100 56l32 -56
l-80 -45q67 -67 99.5 -151.5zM379.5 129q40.5 49 40.5 155q-21 37 -63 58.5t-89 21.5q-56 0 -96 -37.5t-40 -102.5q0 -63 41 -103.5t103 -40.5q63 0 103.5 49z" />
    <glyph glyph-name="ntilde" unicode="&#xf1;" horiz-adv-x="544" 
d="M190 564h-65v52q0 55 15 75.5t50 20.5q18 0 42.5 -13.5t57.5 -36.5q16 -12 31 -21t22 -9q12 0 12 12v60h66v-56q0 -51 -16 -71.5t-54 -20.5q-18 0 -42 13t-61 38q-38 25 -45 25q-13 0 -13 -12v-56zM435 451.5q49 -56.5 49 -143.5v-308h-100v296q0 62 -32 91t-84 29
q-30 0 -57 -14.5t-47 -37.5v-364h-100v496h72l28 -52q21 31 54 47.5t74 16.5q94 0 143 -56.5z" />
    <glyph glyph-name="ograve" unicode="&#xf2;" horiz-adv-x="568" 
d="M152.5 22q-58.5 34 -91.5 93.5t-33 132.5t33 132.5t91.5 93.5t131.5 34q75 0 133 -34t90.5 -93t32.5 -133t-32.5 -133t-90.5 -93t-133 -34q-73 0 -131.5 34zM362 102q35 22 54.5 60.5t19.5 85.5t-19.5 85.5t-54.5 60.5t-78 22t-78 -22t-54.5 -60.5t-19.5 -85.5
t19.5 -85.5t54.5 -60.5t78 -22t78 22zM146 704h108l108 -140v-4h-84z" />
    <glyph glyph-name="oacute" unicode="&#xf3;" horiz-adv-x="568" 
d="M152.5 22q-58.5 34 -91.5 93.5t-33 132.5t33 132.5t91.5 93.5t131.5 34q75 0 133 -34t90.5 -93t32.5 -133t-32.5 -133t-90.5 -93t-133 -34q-73 0 -131.5 34zM362 102q35 22 54.5 60.5t19.5 85.5t-19.5 85.5t-54.5 60.5t-78 22t-78 -22t-54.5 -60.5t-19.5 -85.5
t19.5 -85.5t54.5 -60.5t78 -22t78 22zM204 564l108 140h108l-132 -144h-84v4z" />
    <glyph glyph-name="ocircumflex" unicode="&#xf4;" horiz-adv-x="568" 
d="M152.5 22q-58.5 34 -91.5 93.5t-33 132.5t33 132.5t91.5 93.5t131.5 34q75 0 133 -34t90.5 -93t32.5 -133t-32.5 -133t-90.5 -93t-133 -34q-73 0 -131.5 34zM362 102q35 22 54.5 60.5t19.5 85.5t-19.5 85.5t-54.5 60.5t-78 22t-78 -22t-54.5 -60.5t-19.5 -85.5
t19.5 -85.5t54.5 -60.5t78 -22t78 22zM460 552h-96l-83 86l-77 -86h-92l128 152h88z" />
    <glyph glyph-name="otilde" unicode="&#xf5;" horiz-adv-x="568" 
d="M152.5 22q-58.5 34 -91.5 93.5t-33 132.5t33 132.5t91.5 93.5t131.5 34q75 0 133 -34t90.5 -93t32.5 -133t-32.5 -133t-90.5 -93t-133 -34q-73 0 -131.5 34zM362 102q35 22 54.5 60.5t19.5 85.5t-19.5 85.5t-54.5 60.5t-78 22t-78 -22t-54.5 -60.5t-19.5 -85.5
t19.5 -85.5t54.5 -60.5t78 -22t78 22zM318 569.5q-24 13.5 -58 36.5q-37 26 -44 26q-12 0 -12 -12v-56h-64v52q0 55 15 75.5t49 20.5q17 0 41 -13.5t56 -36.5q41 -30 51 -30q12 0 12 12v60h64v-56q0 -50 -16 -71t-52 -21q-18 0 -42 13.5z" />
    <glyph glyph-name="odieresis" unicode="&#xf6;" horiz-adv-x="568" 
d="M152.5 22q-58.5 34 -91.5 93.5t-33 132.5t33 132.5t91.5 93.5t131.5 34q75 0 133 -34t90.5 -93t32.5 -133t-32.5 -133t-90.5 -93t-133 -34q-73 0 -131.5 34zM362 102q35 22 54.5 60.5t19.5 85.5t-19.5 85.5t-54.5 60.5t-78 22t-78 -22t-54.5 -60.5t-19.5 -85.5
t19.5 -85.5t54.5 -60.5t78 -22t78 22zM144 688h92v-96h-92v96zM332 688h92v-96h-92v96z" />
    <glyph glyph-name="divide" unicode="&#xf7;" 
d="M246 591h111v-111h-111v111zM72 404h456v-84h-456v84zM246 239h111v-111h-111v111z" />
    <glyph glyph-name="oslash" unicode="&#xf8;" horiz-adv-x="568" 
d="M478 424q30 -35 46 -80t16 -96q0 -74 -32.5 -133t-90.5 -93t-133 -34q-81 0 -145 43l-27 -31h-84l63 73q-30 34 -46.5 79t-16.5 96q0 73 33 132.5t91.5 93.5t131.5 34q84 0 146 -42l26 30h84zM158 151l208 241q-37 24 -82 24q-43 0 -78 -22t-54.5 -60.5t-19.5 -85.5
q0 -56 26 -97zM410 345l-208 -241q37 -24 82 -24q43 0 78 22t54.5 60.5t19.5 85.5q0 56 -26 97z" />
    <glyph glyph-name="ugrave" unicode="&#xf9;" horiz-adv-x="544" 
d="M480 496v-496h-72l-28 52q-21 -31 -54 -47.5t-74 -16.5q-94 0 -143 56.5t-49 143.5v308h100v-296q0 -62 32 -91t84 -29q30 0 57 14.5t47 37.5v364h100zM134 704h108l108 -140v-4h-84z" />
    <glyph glyph-name="uacute" unicode="&#xfa;" horiz-adv-x="544" 
d="M480 496v-496h-72l-28 52q-21 -31 -54 -47.5t-74 -16.5q-94 0 -143 56.5t-49 143.5v308h100v-296q0 -62 32 -91t84 -29q30 0 57 14.5t47 37.5v364h100zM192 564l108 140h108l-132 -144h-84v4z" />
    <glyph glyph-name="ucircumflex" unicode="&#xfb;" horiz-adv-x="544" 
d="M480 496v-496h-72l-28 52q-21 -31 -54 -47.5t-74 -16.5q-94 0 -143 56.5t-49 143.5v308h100v-296q0 -62 32 -91t84 -29q30 0 57 14.5t47 37.5v364h100zM448 552h-96l-83 86l-77 -86h-92l128 152h88z" />
    <glyph glyph-name="udieresis" unicode="&#xfc;" horiz-adv-x="544" 
d="M480 496v-496h-72l-28 52q-21 -31 -54 -47.5t-74 -16.5q-94 0 -143 56.5t-49 143.5v308h100v-296q0 -62 32 -91t84 -29q30 0 57 14.5t47 37.5v364h100zM132 688h92v-96h-92v96zM320 688h92v-96h-92v96z" />
    <glyph glyph-name="yacute" unicode="&#xfd;" horiz-adv-x="508" 
d="M404 496h104l-312 -704h-92l104 234l-208 470h104l152 -359zM172 564l108 140h108l-132 -144h-84v4z" />
    <glyph glyph-name="thorn" unicode="&#xfe;" horiz-adv-x="568" 
d="M425 473.5q55 -34.5 85 -94t30 -131.5q0 -71 -30 -130.5t-87.5 -94.5t-134.5 -35q-69 0 -124 42v-238h-100v912h100v-255q22 28 57 43.5t79 15.5q70 0 125 -34.5zM359.5 99.5q34.5 19.5 55.5 57.5t21 91q0 51 -20 89t-55 58.5t-77 20.5q-74 0 -120 -52v-241
q43 -43 120 -43q41 0 75.5 19.5z" />
    <glyph glyph-name="ydieresis" unicode="&#xff;" horiz-adv-x="508" 
d="M404 496h104l-312 -704h-92l104 234l-208 470h104l152 -359zM112 688h92v-96h-92v96zM300 688h92v-96h-92v96z" />
    <glyph glyph-name="Amacron" unicode="&#x100;" horiz-adv-x="684" 
d="M568 0l-64 156h-327l-65 -156h-108l304 704h68l304 -704h-112zM216 248h250l-124 302zM188 888h312v-76h-312v76z" />
    <glyph glyph-name="amacron" unicode="&#x101;" horiz-adv-x="492" 
d="M384.5 457q47.5 -51 47.5 -129v-328h-68l-29 55q-26 -32 -66 -49.5t-81 -17.5q-70 0 -115 39t-45 109q0 65 55 110t165 62l84 13v3q0 46 -25.5 71t-78.5 25q-67 0 -121 -48l-69 47q37 46 90 67.5t108 21.5q101 0 148.5 -51zM272.5 91.5q34.5 15.5 59.5 40.5v110l-60 -10
q-75 -12 -109.5 -33t-34.5 -63q0 -25 19.5 -42.5t52.5 -17.5q38 0 72.5 15.5zM84 680h312v-76h-312v76z" />
    <glyph glyph-name="Abreve" unicode="&#x102;" horiz-adv-x="684" 
d="M568 0l-64 156h-327l-65 -156h-108l304 704h68l304 -704h-112zM216 248h250l-124 302zM251 814.5q-36 34.5 -39 97.5h67q2 -30 18 -47.5t47 -17.5q29 0 44 17.5t17 47.5h67q-4 -63 -39 -97.5t-89 -34.5q-57 0 -93 34.5z" />
    <glyph glyph-name="abreve" unicode="&#x103;" horiz-adv-x="492" 
d="M384.5 457q47.5 -51 47.5 -129v-328h-68l-29 55q-26 -32 -66 -49.5t-81 -17.5q-70 0 -115 39t-45 109q0 65 55 110t165 62l84 13v3q0 46 -25.5 71t-78.5 25q-67 0 -121 -48l-69 47q37 46 90 67.5t108 21.5q101 0 148.5 -51zM272.5 91.5q34.5 15.5 59.5 40.5v110l-60 -10
q-75 -12 -109.5 -33t-34.5 -63q0 -25 19.5 -42.5t52.5 -17.5q38 0 72.5 15.5zM147 606.5q-36 34.5 -39 97.5h67q2 -30 18 -47.5t47 -17.5q29 0 44 17.5t17 47.5h67q-4 -63 -39 -97.5t-89 -34.5q-57 0 -93 34.5z" />
    <glyph glyph-name="Aogonek" unicode="&#x104;" horiz-adv-x="684" 
d="M616 -124l12 -72q-22 -10 -39 -15t-37 -5q-45 0 -72.5 22t-27.5 66q0 47 32.5 86t74.5 63l-55 135h-327l-65 -156h-108l304 704h68l304 -704h-64q-35 -20 -59.5 -49t-24.5 -55q0 -16 11 -26t29 -10q23 0 44 16zM216 248h250l-124 302z" />
    <glyph glyph-name="aogonek" unicode="&#x105;" horiz-adv-x="492" 
d="M360.5 -49q-24.5 -29 -24.5 -55q0 -16 11 -26t29 -10q23 0 44 16l12 -72q-22 -10 -39 -15t-37 -5q-45 0 -72.5 22t-27.5 66t29.5 82t69.5 62l-20 39q-26 -32 -66 -49.5t-81 -17.5q-70 0 -115 39t-45 109q0 65 55 110t165 62l84 13v3q0 46 -25.5 71t-78.5 25
q-67 0 -121 -48l-69 47q37 46 90 67.5t108 21.5q101 0 148.5 -51t47.5 -129v-328h-12q-35 -20 -59.5 -49zM272.5 91.5q34.5 15.5 59.5 40.5v110l-60 -10q-75 -12 -109.5 -33t-34.5 -63q0 -25 19.5 -42.5t52.5 -17.5q38 0 72.5 15.5z" />
    <glyph glyph-name="Cacute" unicode="&#x106;" horiz-adv-x="684" 
d="M192 37.5q-77 49.5 -118.5 132.5t-41.5 182q0 101 41.5 184t118.5 131.5t180 48.5q100 0 175.5 -45t121.5 -122l-85 -51q-35 56 -89.5 89t-122.5 33q-69 0 -121.5 -34.5t-81.5 -95t-29 -138.5t29 -138.5t81.5 -95t121.5 -34.5q68 0 121.5 31t86.5 90l87 -49
q-47 -81 -122 -124.5t-173 -43.5q-103 0 -180 49.5zM304 772l108 140h108l-132 -144h-84v4z" />
    <glyph glyph-name="cacute" unicode="&#x107;" horiz-adv-x="516" 
d="M152.5 19.5q-57.5 31.5 -91 90.5t-33.5 138t33.5 138t90 90.5t124.5 31.5q75 0 132 -33t89 -90l-87 -46q-21 37 -56 57t-78 20q-62 0 -103 -45t-41 -123q0 -82 43 -125t105 -43q42 0 75 19.5t52 54.5l86 -47q-33 -55 -88.5 -87t-124.5 -32q-70 0 -127.5 31.5zM196 564
l108 140h108l-132 -144h-84v4z" />
    <glyph glyph-name="Ccircumflex" unicode="&#x108;" horiz-adv-x="684" 
d="M192 37.5q-77 49.5 -118.5 132.5t-41.5 182q0 101 41.5 184t118.5 131.5t180 48.5q100 0 175.5 -45t121.5 -122l-85 -51q-35 56 -89.5 89t-122.5 33q-69 0 -121.5 -34.5t-81.5 -95t-29 -138.5t29 -138.5t81.5 -95t121.5 -34.5q68 0 121.5 31t86.5 90l87 -49
q-47 -81 -122 -124.5t-173 -43.5q-103 0 -180 49.5zM560 760h-96l-83 86l-77 -86h-92l128 152h88z" />
    <glyph glyph-name="ccircumflex" unicode="&#x109;" horiz-adv-x="516" 
d="M152.5 19.5q-57.5 31.5 -91 90.5t-33.5 138t33.5 138t90 90.5t124.5 31.5q75 0 132 -33t89 -90l-87 -46q-21 37 -56 57t-78 20q-62 0 -103 -45t-41 -123q0 -82 43 -125t105 -43q42 0 75 19.5t52 54.5l86 -47q-33 -55 -88.5 -87t-124.5 -32q-70 0 -127.5 31.5zM452 552
h-96l-83 86l-77 -86h-92l128 152h88z" />
    <glyph glyph-name="Cdotaccent" unicode="&#x10a;" horiz-adv-x="684" 
d="M192 37.5q-77 49.5 -118.5 132.5t-41.5 182q0 101 41.5 184t118.5 131.5t180 48.5q100 0 175.5 -45t121.5 -122l-85 -51q-35 56 -89.5 89t-122.5 33q-69 0 -121.5 -34.5t-81.5 -95t-29 -138.5t29 -138.5t81.5 -95t121.5 -34.5q68 0 121.5 31t86.5 90l87 -49
q-47 -81 -122 -124.5t-173 -43.5q-103 0 -180 49.5zM332 912h104v-100h-104v100z" />
    <glyph glyph-name="cdotaccent" unicode="&#x10b;" horiz-adv-x="516" 
d="M152.5 19.5q-57.5 31.5 -91 90.5t-33.5 138t33.5 138t90 90.5t124.5 31.5q75 0 132 -33t89 -90l-87 -46q-21 37 -56 57t-78 20q-62 0 -103 -45t-41 -123q0 -82 43 -125t105 -43q42 0 75 19.5t52 54.5l86 -47q-33 -55 -88.5 -87t-124.5 -32q-70 0 -127.5 31.5zM224 704
h104v-100h-104v100z" />
    <glyph glyph-name="Ccaron" unicode="&#x10c;" horiz-adv-x="684" 
d="M192 37.5q-77 49.5 -118.5 132.5t-41.5 182q0 101 41.5 184t118.5 131.5t180 48.5q100 0 175.5 -45t121.5 -122l-85 -51q-35 56 -89.5 89t-122.5 33q-69 0 -121.5 -34.5t-81.5 -95t-29 -138.5t29 -138.5t81.5 -95t121.5 -34.5q68 0 121.5 31t86.5 90l87 -49
q-47 -81 -122 -124.5t-173 -43.5q-103 0 -180 49.5zM464 912h92l-128 -152h-88l-132 152h96l83 -86z" />
    <glyph glyph-name="ccaron" unicode="&#x10d;" horiz-adv-x="516" 
d="M152.5 19.5q-57.5 31.5 -91 90.5t-33.5 138t33.5 138t90 90.5t124.5 31.5q75 0 132 -33t89 -90l-87 -46q-21 37 -56 57t-78 20q-62 0 -103 -45t-41 -123q0 -82 43 -125t105 -43q42 0 75 19.5t52 54.5l86 -47q-33 -55 -88.5 -87t-124.5 -32q-70 0 -127.5 31.5zM356 704h92
l-128 -152h-88l-132 152h96l83 -86z" />
    <glyph glyph-name="Dcaron" unicode="&#x10e;" horiz-adv-x="720" 
d="M507 659.5q85 -44.5 133 -125t48 -182.5q0 -101 -48.5 -181t-133 -125.5t-190.5 -45.5h-232v704h232q106 0 191 -44.5zM451 124q60 32 94.5 91t34.5 137q0 80 -34.5 139t-94.5 90t-135 31h-128v-520h128q75 0 135 32zM396 912h92l-128 -152h-88l-132 152h96l83 -86z" />
    <glyph glyph-name="dcaron" unicode="&#x10f;" horiz-adv-x="592" 
d="M504 704v-704h-72l-26 49q-22 -29 -58 -45t-80 -16q-70 0 -125 34.5t-85 94t-30 131.5q0 71 30 130.5t87.5 94.5t134.5 35q69 0 124 -42v238h100zM404 132v241q-43 43 -120 43q-41 0 -75.5 -19.5t-55.5 -57.5t-21 -91q0 -51 20 -89t55 -58.5t77 -20.5q74 0 120 52z
M551 681l1 23h80q-14 -103 -32 -168h-60q2 21 11 145z" />
    <glyph glyph-name="Dcroat" unicode="&#x110;" horiz-adv-x="720" 
d="M507 659.5q85 -44.5 133 -125t48 -182.5q0 -101 -48.5 -181t-133 -125.5t-190.5 -45.5h-232v320h-64v64h64v320h232q106 0 191 -44.5zM451 124q60 32 94.5 91t34.5 137q0 80 -34.5 139t-94.5 90t-135 31h-128v-228h168v-64h-168v-228h128q75 0 135 32z" />
    <glyph glyph-name="dcroat" unicode="&#x111;" horiz-adv-x="568" 
d="M568 572h-64v-572h-72l-26 49q-22 -29 -58 -45t-80 -16q-70 0 -125 34.5t-85 94t-30 131.5q0 71 30 130.5t87.5 94.5t134.5 35q69 0 124 -42v106h-132v60h132v72h100v-72h64v-60zM404 132v241q-43 43 -120 43q-41 0 -75.5 -19.5t-55.5 -57.5t-21 -91q0 -51 20 -89
t55 -58.5t77 -20.5q74 0 120 52z" />
    <glyph glyph-name="Emacron" unicode="&#x112;" horiz-adv-x="588" 
d="M188 92h360v-92h-464v704h456v-92h-352v-208h300v-92h-300v-220zM156 888h312v-76h-312v76z" />
    <glyph glyph-name="emacron" unicode="&#x113;" horiz-adv-x="532" 
d="M178 113.5q42 -37.5 102 -37.5q43 0 80 18.5t59 53.5l74 -44q-31 -53 -88 -84.5t-133 -31.5q-68 0 -123.5 32.5t-88 91.5t-32.5 136q0 72 30 131.5t86.5 94t131.5 34.5q67 0 118 -32.5t78.5 -85.5t27.5 -114v-52h-368q4 -73 46 -110.5zM182.5 390.5
q-35.5 -29.5 -46.5 -86.5h262q-8 51 -42 83.5t-88 32.5q-50 0 -85.5 -29.5zM116 680h312v-76h-312v76z" />
    <glyph glyph-name="Ebreve" unicode="&#x114;" horiz-adv-x="588" 
d="M188 92h360v-92h-464v704h456v-92h-352v-208h300v-92h-300v-220zM219 814.5q-36 34.5 -39 97.5h67q2 -30 18 -47.5t47 -17.5q29 0 44 17.5t17 47.5h67q-4 -63 -39 -97.5t-89 -34.5q-57 0 -93 34.5z" />
    <glyph glyph-name="ebreve" unicode="&#x115;" horiz-adv-x="532" 
d="M178 113.5q42 -37.5 102 -37.5q43 0 80 18.5t59 53.5l74 -44q-31 -53 -88 -84.5t-133 -31.5q-68 0 -123.5 32.5t-88 91.5t-32.5 136q0 72 30 131.5t86.5 94t131.5 34.5q67 0 118 -32.5t78.5 -85.5t27.5 -114v-52h-368q4 -73 46 -110.5zM182.5 390.5
q-35.5 -29.5 -46.5 -86.5h262q-8 51 -42 83.5t-88 32.5q-50 0 -85.5 -29.5zM179 606.5q-36 34.5 -39 97.5h67q2 -30 18 -47.5t47 -17.5q29 0 44 17.5t17 47.5h67q-4 -63 -39 -97.5t-89 -34.5q-57 0 -93 34.5z" />
    <glyph glyph-name="Edotaccent" unicode="&#x116;" horiz-adv-x="588" 
d="M188 92h360v-92h-464v704h456v-92h-352v-208h300v-92h-300v-220zM260 912h104v-100h-104v100z" />
    <glyph glyph-name="edotaccent" unicode="&#x117;" horiz-adv-x="532" 
d="M178 113.5q42 -37.5 102 -37.5q43 0 80 18.5t59 53.5l74 -44q-31 -53 -88 -84.5t-133 -31.5q-68 0 -123.5 32.5t-88 91.5t-32.5 136q0 72 30 131.5t86.5 94t131.5 34.5q67 0 118 -32.5t78.5 -85.5t27.5 -114v-52h-368q4 -73 46 -110.5zM182.5 390.5
q-35.5 -29.5 -46.5 -86.5h262q-8 51 -42 83.5t-88 32.5q-50 0 -85.5 -29.5zM220 704h104v-100h-104v100z" />
    <glyph glyph-name="Eogonek" unicode="&#x118;" horiz-adv-x="588" 
d="M468.5 -49q-24.5 -29 -24.5 -55q0 -16 11 -26t29 -10q23 0 44 16l12 -72q-22 -10 -39.5 -15t-36.5 -5q-45 0 -72.5 22t-27.5 66q0 38 21.5 71t54.5 57h-356v704h456v-92h-352v-208h300v-92h-300v-220h360v-92h-20q-35 -20 -59.5 -49z" />
    <glyph glyph-name="eogonek" unicode="&#x119;" horiz-adv-x="532" 
d="M178 113.5q42 -37.5 102 -37.5q43 0 80 18.5t59 53.5l74 -44q-25 -43 -64 -70q-85 -81 -85 -134q0 -18 11 -29t29 -11q20 0 44 12l8 -68q-40 -20 -76 -20q-46 0 -75 21.5t-29 66.5q0 33 16.5 61.5t49.5 58.5q-21 -4 -50 -4q-68 0 -123.5 32.5t-88 91.5t-32.5 136
q0 72 30 131.5t86.5 94t131.5 34.5q67 0 118 -32.5t78.5 -85.5t27.5 -114v-52h-368q4 -73 46 -110.5zM182.5 390.5q-35.5 -29.5 -46.5 -86.5h262q-8 51 -42 83.5t-88 32.5q-50 0 -85.5 -29.5z" />
    <glyph glyph-name="Ecaron" unicode="&#x11a;" horiz-adv-x="588" 
d="M188 92h360v-92h-464v704h456v-92h-352v-208h300v-92h-300v-220zM392 912h92l-128 -152h-88l-132 152h96l83 -86z" />
    <glyph glyph-name="ecaron" unicode="&#x11b;" horiz-adv-x="532" 
d="M178 113.5q42 -37.5 102 -37.5q43 0 80 18.5t59 53.5l74 -44q-31 -53 -88 -84.5t-133 -31.5q-68 0 -123.5 32.5t-88 91.5t-32.5 136q0 72 30 131.5t86.5 94t131.5 34.5q67 0 118 -32.5t78.5 -85.5t27.5 -114v-52h-368q4 -73 46 -110.5zM182.5 390.5
q-35.5 -29.5 -46.5 -86.5h262q-8 51 -42 83.5t-88 32.5q-50 0 -85.5 -29.5zM352 704h92l-128 -152h-88l-132 152h96l83 -86z" />
    <glyph glyph-name="Gcircumflex" unicode="&#x11c;" horiz-adv-x="744" 
d="M684 0h-72l-28 52q-72 -64 -192 -64q-107 0 -189 49t-126.5 132.5t-44.5 182.5q0 100 44.5 183t126 132t185.5 49q97 0 170.5 -39.5t121.5 -108.5l-84 -51q-39 51 -93 77t-119 26q-73 0 -128.5 -37t-85.5 -97.5t-30 -129.5q0 -79 32 -142t89 -98.5t131 -35.5
q66 0 117 22.5t75 53.5v136h-212v92h312v-384zM556 760h-96l-83 86l-77 -86h-92l128 152h88z" />
    <glyph glyph-name="gcircumflex" unicode="&#x11d;" horiz-adv-x="568" 
d="M504 496v-504q0 -57 -28 -104.5t-79.5 -75.5t-120.5 -28q-62 0 -117.5 24t-89.5 64l67 53q24 -26 59.5 -39.5t76.5 -13.5q64 0 98 33.5t34 86.5v56q-22 -29 -56.5 -44.5t-79.5 -15.5q-70 0 -125 34.5t-85 94t-30 131.5q0 71 30 130.5t87.5 94.5t134.5 35q80 0 137 -52
l19 40h68zM404 132v236q-22 22 -52.5 35t-67.5 13q-41 0 -75.5 -19.5t-55.5 -57.5t-21 -91q0 -51 20 -89t55 -58.5t77 -20.5q74 0 120 52zM456 552h-96l-83 86l-77 -86h-92l128 152h88z" />
    <glyph glyph-name="Gbreve" unicode="&#x11e;" horiz-adv-x="744" 
d="M684 0h-72l-28 52q-72 -64 -192 -64q-107 0 -189 49t-126.5 132.5t-44.5 182.5q0 100 44.5 183t126 132t185.5 49q97 0 170.5 -39.5t121.5 -108.5l-84 -51q-39 51 -93 77t-119 26q-73 0 -128.5 -37t-85.5 -97.5t-30 -129.5q0 -79 32 -142t89 -98.5t131 -35.5
q66 0 117 22.5t75 53.5v136h-212v92h312v-384zM287 814.5q-36 34.5 -39 97.5h67q2 -30 18 -47.5t47 -17.5q29 0 44 17.5t17 47.5h67q-4 -63 -39 -97.5t-89 -34.5q-57 0 -93 34.5z" />
    <glyph glyph-name="gbreve" unicode="&#x11f;" horiz-adv-x="568" 
d="M504 496v-504q0 -57 -28 -104.5t-79.5 -75.5t-120.5 -28q-62 0 -117.5 24t-89.5 64l67 53q24 -26 59.5 -39.5t76.5 -13.5q64 0 98 33.5t34 86.5v56q-22 -29 -56.5 -44.5t-79.5 -15.5q-70 0 -125 34.5t-85 94t-30 131.5q0 71 30 130.5t87.5 94.5t134.5 35q80 0 137 -52
l19 40h68zM404 132v236q-22 22 -52.5 35t-67.5 13q-41 0 -75.5 -19.5t-55.5 -57.5t-21 -91q0 -51 20 -89t55 -58.5t77 -20.5q74 0 120 52zM187 606.5q-36 34.5 -39 97.5h67q2 -30 18 -47.5t47 -17.5q29 0 44 17.5t17 47.5h67q-4 -63 -39 -97.5t-89 -34.5q-57 0 -93 34.5z
" />
    <glyph glyph-name="Gdotaccent" unicode="&#x120;" horiz-adv-x="744" 
d="M684 0h-72l-28 52q-72 -64 -192 -64q-107 0 -189 49t-126.5 132.5t-44.5 182.5q0 100 44.5 183t126 132t185.5 49q97 0 170.5 -39.5t121.5 -108.5l-84 -51q-39 51 -93 77t-119 26q-73 0 -128.5 -37t-85.5 -97.5t-30 -129.5q0 -79 32 -142t89 -98.5t131 -35.5
q66 0 117 22.5t75 53.5v136h-212v92h312v-384zM328 912h104v-100h-104v100z" />
    <glyph glyph-name="gdotaccent" unicode="&#x121;" horiz-adv-x="568" 
d="M504 496v-504q0 -57 -28 -104.5t-79.5 -75.5t-120.5 -28q-62 0 -117.5 24t-89.5 64l67 53q24 -26 59.5 -39.5t76.5 -13.5q64 0 98 33.5t34 86.5v56q-22 -29 -56.5 -44.5t-79.5 -15.5q-70 0 -125 34.5t-85 94t-30 131.5q0 71 30 130.5t87.5 94.5t134.5 35q80 0 137 -52
l19 40h68zM404 132v236q-22 22 -52.5 35t-67.5 13q-41 0 -75.5 -19.5t-55.5 -57.5t-21 -91q0 -51 20 -89t55 -58.5t77 -20.5q74 0 120 52zM228 704h104v-100h-104v100z" />
    <glyph glyph-name="Gcommaaccent" unicode="&#x122;" horiz-adv-x="744" 
d="M684 0h-72l-28 52q-72 -64 -192 -64q-107 0 -189 49t-126.5 132.5t-44.5 182.5q0 100 44.5 183t126 132t185.5 49q97 0 170.5 -39.5t121.5 -108.5l-84 -51q-39 51 -93 77t-119 26q-73 0 -128.5 -37t-85.5 -97.5t-30 -129.5q0 -79 32 -142t89 -98.5t131 -35.5
q66 0 117 22.5t75 53.5v136h-212v92h312v-384zM422 -68v-76q-1 -40 -32 -104h-52q31 63 32 104h-32v76h84z" />
    <glyph glyph-name="gcommaaccent" unicode="&#x123;" horiz-adv-x="568" 
d="M504 496v-504q0 -57 -28 -104.5t-79.5 -75.5t-120.5 -28q-62 0 -117.5 24t-89.5 64l67 53q24 -26 59.5 -39.5t76.5 -13.5q64 0 98 33.5t34 86.5v56q-22 -29 -56.5 -44.5t-79.5 -15.5q-70 0 -125 34.5t-85 94t-30 131.5q0 71 30 130.5t87.5 94.5t134.5 35q80 0 137 -52
l19 40h68zM404 132v236q-22 22 -52.5 35t-67.5 13q-41 0 -75.5 -19.5t-55.5 -57.5t-21 -91q0 -51 20 -89t55 -58.5t77 -20.5q74 0 120 52zM296 672h32v-84h-92v76q0 54 36 116h56q-32 -73 -32 -108z" />
    <glyph glyph-name="Hcircumflex" unicode="&#x124;" horiz-adv-x="740" 
d="M552 704h104v-704h-104v312h-364v-312h-104v704h104v-296h364v296zM540 760h-96l-83 86l-77 -86h-92l128 152h88z" />
    <glyph glyph-name="hcircumflex" unicode="&#x125;" horiz-adv-x="544" 
d="M435 451.5q49 -56.5 49 -143.5v-308h-100v296q0 60 -30.5 90t-81.5 30q-62 0 -108 -52v-364h-100v704h100v-260q21 31 54 47.5t74 16.5q94 0 143 -56.5zM296 760h-96l-83 86l-77 -86h-92l128 152h88z" />
    <glyph glyph-name="Hbar" unicode="&#x126;" horiz-adv-x="740" 
d="M720 596v-64h-64v-532h-104v312h-364v-312h-104v532h-64v64h64v108h104v-108h364v108h104v-108h64zM552 408v124h-364v-124h364z" />
    <glyph glyph-name="hbar" unicode="&#x127;" horiz-adv-x="544" 
d="M435 451.5q49 -56.5 49 -143.5v-308h-100v296q0 60 -30.5 90t-81.5 30q-62 0 -108 -52v-364h-100v572h-64v60h64v72h100v-72h132v-60h-132v-128q21 31 54 47.5t74 16.5q94 0 143 -56.5z" />
    <glyph glyph-name="Itilde" unicode="&#x128;" horiz-adv-x="272" 
d="M84 704h104v-704h-104v704zM170 777.5q-24 13.5 -58 36.5q-37 26 -44 26q-12 0 -12 -12v-56h-64v52q0 55 15 75.5t49 20.5q17 0 41 -13.5t56 -36.5q41 -30 51 -30q12 0 12 12v60h64v-56q0 -50 -16 -71t-52 -21q-18 0 -42 13.5z" />
    <glyph glyph-name="itilde" unicode="&#x129;" horiz-adv-x="228" 
d="M64 496h100v-496h-100v496zM146 569.5q-24 13.5 -58 36.5q-37 26 -44 26q-12 0 -12 -12v-56h-64v52q0 55 15 75.5t49 20.5q17 0 41 -13.5t56 -36.5q41 -30 51 -30q12 0 12 12v60h64v-56q0 -50 -16 -71t-52 -21q-18 0 -42 13.5z" />
    <glyph glyph-name="Imacron" unicode="&#x12a;" horiz-adv-x="272" 
d="M84 704h104v-704h-104v704zM-20 888h312v-76h-312v76z" />
    <glyph glyph-name="imacron" unicode="&#x12b;" horiz-adv-x="228" 
d="M64 496h100v-496h-100v496zM-44 680h312v-76h-312v76z" />
    <glyph glyph-name="Ibreve" unicode="&#x12c;" horiz-adv-x="272" 
d="M84 704h104v-704h-104v704zM43 814.5q-36 34.5 -39 97.5h67q2 -30 18 -47.5t47 -17.5q29 0 44 17.5t17 47.5h67q-4 -63 -39 -97.5t-89 -34.5q-57 0 -93 34.5z" />
    <glyph glyph-name="ibreve" unicode="&#x12d;" horiz-adv-x="228" 
d="M64 496h100v-496h-100v496zM19 606.5q-36 34.5 -39 97.5h67q2 -30 18 -47.5t47 -17.5q29 0 44 17.5t17 47.5h67q-4 -63 -39 -97.5t-89 -34.5q-57 0 -93 34.5z" />
    <glyph glyph-name="Iogonek" unicode="&#x12e;" horiz-adv-x="272" 
d="M200 -196q-22 -10 -39 -15t-37 -5q-45 0 -72.5 22t-27.5 66q0 38 21.5 71t54.5 57h-16v704h104v-704q-35 -20 -59.5 -49t-24.5 -55q0 -16 11 -26t29 -10q23 0 44 16z" />
    <glyph glyph-name="iogonek" unicode="&#x12f;" horiz-adv-x="228" 
d="M164 704v-100h-104v100h104zM195 -195q-20 -11 -38 -16t-39 -5q-44 0 -71 22t-27 66q0 63 69 128h-25v496h100v-496q-63 -66 -63 -102q0 -17 10.5 -26.5t27.5 -9.5q20 0 46 14z" />
    <glyph glyph-name="Idotaccent" unicode="&#x130;" horiz-adv-x="272" 
d="M84 704h104v-704h-104v704zM84 912h104v-100h-104v100z" />
    <glyph glyph-name="dotlessi" unicode="&#x131;" horiz-adv-x="228" 
d="M64 496h100v-496h-100v496z" />
    <glyph glyph-name="IJ" unicode="&#x132;" horiz-adv-x="692" 
d="M84 704h104v-704h-104v704zM272 29l47 82q39 -27 89 -27q52 0 82 28t30 80v512h104v-508q0 -61 -26.5 -108.5t-75.5 -73.5t-114 -26q-75 0 -136 41z" />
    <glyph glyph-name="ij" unicode="&#x133;" horiz-adv-x="456" 
d="M60 704h104v-100h-104v100zM288 704h104v-100h-104v100zM64 496h100v-496h-100v496zM244 -128q23 0 35.5 14t12.5 42v568h100v-564q0 -67 -37 -107.5t-99 -40.5q-52 0 -91 25l43 74q17 -11 36 -11z" />
    <glyph glyph-name="Jcircumflex" unicode="&#x134;" horiz-adv-x="500" 
d="M92 12.5q-52 24.5 -90 74.5l87 53q18 -27 50.5 -41.5t72.5 -14.5q52 0 84 32t32 88v500h104v-500q0 -64 -28 -113t-80 -76t-120 -27q-60 0 -112 24.5zM560 760h-96l-83 86l-77 -86h-92l128 152h88z" />
    <glyph glyph-name="jcircumflex" unicode="&#x135;" horiz-adv-x="228" 
d="M16 -128q23 0 35.5 14t12.5 42v568h100v-564q0 -67 -37 -107.5t-99 -40.5q-52 0 -91 25l43 74q17 -11 36 -11zM288 552h-96l-83 86l-77 -86h-92l128 152h88z" />
    <glyph glyph-name="Kcommaaccent" unicode="&#x136;" horiz-adv-x="656" 
d="M672 0h-128l-246 305l-110 -121v-184h-104v704h104v-384l344 384h128l-296 -326zM404 -68v-76q-1 -40 -32 -104h-52q31 63 32 104h-32v76h84z" />
    <glyph glyph-name="kcommaaccent" unicode="&#x137;" horiz-adv-x="532" 
d="M532 0h-116l-157 224l-95 -100v-124h-100v704h100v-462l232 254h120l-191 -202zM326 -68v-76q-1 -40 -32 -104h-52q31 63 32 104h-32v76h84z" />
    <glyph glyph-name="kgreenlandic" unicode="&#x138;" horiz-adv-x="532" 
d="M532 0h-116l-157 224l-95 -100v-124h-100v496h100v-254l232 254h120l-191 -202z" />
    <glyph glyph-name="Lacute" unicode="&#x139;" horiz-adv-x="524" 
d="M188 92h324v-92h-428v704h104v-612zM86 772l108 140h108l-132 -144h-84v4z" />
    <glyph glyph-name="lacute" unicode="&#x13a;" horiz-adv-x="228" 
d="M64 704h100v-704h-100v704zM66 776l108 140h108l-132 -144h-84v4z" />
    <glyph glyph-name="Lcommaaccent" unicode="&#x13b;" horiz-adv-x="524" 
d="M188 92h324v-92h-428v704h104v-612zM334 -68v-76q-1 -40 -32 -104h-52q31 63 32 104h-32v76h84z" />
    <glyph glyph-name="lcommaaccent" unicode="&#x13c;" horiz-adv-x="228" 
d="M64 704h100v-704h-100v704zM156 -68v-76q-1 -40 -32 -104h-52q31 63 32 104h-32v76h84z" />
    <glyph glyph-name="Lcaron" unicode="&#x13d;" horiz-adv-x="524" 
d="M188 92h324v-92h-428v704h104v-612zM292 627l4 77h84q-12 -120 -28 -216h-68q4 43 8 139z" />
    <glyph glyph-name="lcaron" unicode="&#x13e;" horiz-adv-x="240" 
d="M64 704h100v-704h-100v704zM219 681l1 23h80q-14 -103 -32 -168h-60q2 21 11 145z" />
    <glyph glyph-name="Ldot" unicode="&#x13f;" horiz-adv-x="524" 
d="M188 92h324v-92h-428v704h104v-612zM336 440h116v-116h-116v116z" />
    <glyph glyph-name="ldot" unicode="&#x140;" horiz-adv-x="360" 
d="M64 704h100v-704h-100v704zM236 420h116v-116h-116v116z" />
    <glyph glyph-name="Lslash" unicode="&#x141;" horiz-adv-x="524" 
d="M188 92h324v-92h-428v288l-76 -44v72l76 44v344h104v-284l172 100v-72l-172 -100v-256z" />
    <glyph glyph-name="lslash" unicode="&#x142;" horiz-adv-x="228" 
d="M248 524v-64l-84 -48v-412h-100v356l-84 -48v64l84 48v284h100v-228z" />
    <glyph glyph-name="Nacute" unicode="&#x143;" horiz-adv-x="732" 
d="M548 704h100v-704h-60l-404 494v-494h-100v704h56l408 -507v507zM288 772l108 140h108l-132 -144h-84v4z" />
    <glyph glyph-name="nacute" unicode="&#x144;" horiz-adv-x="544" 
d="M423 720l-136 -144h-86v4l111 140h111zM435 451.5q49 -56.5 49 -143.5v-308h-100v296q0 62 -32 91t-84 29q-30 0 -57 -14.5t-47 -37.5v-364h-100v496h72l28 -52q21 31 54 47.5t74 16.5q94 0 143 -56.5z" />
    <glyph glyph-name="Ncommaaccent" unicode="&#x145;" horiz-adv-x="732" 
d="M548 704h100v-704h-60l-404 494v-494h-100v704h56l408 -507v507zM414 -68v-76q-1 -40 -32 -104h-52q31 63 32 104h-32v76h84z" />
    <glyph glyph-name="ncommaaccent" unicode="&#x146;" horiz-adv-x="544" 
d="M435 451.5q49 -56.5 49 -143.5v-308h-100v296q0 62 -32 91t-84 29q-30 0 -57 -14.5t-47 -37.5v-364h-100v496h72l28 -52q21 31 54 47.5t74 16.5q94 0 143 -56.5zM316 -68v-76q-1 -40 -32 -104h-52q31 63 32 104h-32v76h84z" />
    <glyph glyph-name="Ncaron" unicode="&#x147;" horiz-adv-x="732" 
d="M548 704h100v-704h-60l-404 494v-494h-100v704h56l408 -507v507zM448 912h92l-128 -152h-88l-132 152h96l83 -86z" />
    <glyph glyph-name="ncaron" unicode="&#x148;" horiz-adv-x="544" 
d="M319 552h-91l-136 152h99l86 -86l79 86h95zM435 451.5q49 -56.5 49 -143.5v-308h-100v296q0 62 -32 91t-84 29q-30 0 -57 -14.5t-47 -37.5v-364h-100v496h72l28 -52q21 31 54 47.5t74 16.5q94 0 143 -56.5z" />
    <glyph glyph-name="napostrophe" unicode="&#x149;" horiz-adv-x="748" 
d="M164 704v-116q0 -45 -14.5 -88t-37.5 -76h-72q20 45 31.5 83.5t12.5 76.5h-40v120h120zM639 451.5q49 -56.5 49 -143.5v-308h-100v296q0 62 -32 91t-84 29q-30 0 -57 -14.5t-47 -37.5v-364h-100v496h72l28 -52q21 31 54 47.5t74 16.5q94 0 143 -56.5z" />
    <glyph glyph-name="Eng" unicode="&#x14a;" horiz-adv-x="732" 
d="M648 704v-772q0 -68 -38 -108t-102 -40q-49 0 -88 23l45 77q18 -12 35 -12q23 0 35.5 14t12.5 42v121l-364 446v-495h-100v704h56l408 -506v506h100z" />
    <glyph glyph-name="eng" unicode="&#x14b;" horiz-adv-x="544" 
d="M435 451.5q49 -56.5 49 -143.5v-376q0 -68 -38 -108t-102 -40q-49 0 -87 24l43 75q17 -11 36 -11q23 0 35.5 14t12.5 42v368q0 62 -32 91t-84 29q-30 0 -57 -14.5t-47 -37.5v-364h-100v496h72l28 -52q21 31 54 47.5t74 16.5q94 0 143 -56.5z" />
    <glyph glyph-name="Omacron" unicode="&#x14c;" horiz-adv-x="792" 
d="M212.5 36.5q-83.5 48.5 -132 132t-48.5 183.5q0 102 48.5 185.5t131.5 131t184 47.5q102 0 185.5 -48t131 -131.5t47.5 -184.5q0 -99 -47.5 -182.5t-131 -132.5t-185.5 -49q-100 0 -183.5 48.5zM526.5 117.5q58.5 33.5 92 94.5t33.5 140q0 82 -33.5 142.5t-92 93
t-130.5 32.5t-130.5 -33t-92 -94t-33.5 -141t33.5 -141t92 -94t130.5 -33t130.5 33.5zM240 888h312v-76h-312v76z" />
    <glyph glyph-name="omacron" unicode="&#x14d;" horiz-adv-x="568" 
d="M152.5 22q-58.5 34 -91.5 93.5t-33 132.5t33 132.5t91.5 93.5t131.5 34q75 0 133 -34t90.5 -93t32.5 -133t-32.5 -133t-90.5 -93t-133 -34q-73 0 -131.5 34zM362 102q35 22 54.5 60.5t19.5 85.5t-19.5 85.5t-54.5 60.5t-78 22t-78 -22t-54.5 -60.5t-19.5 -85.5
t19.5 -85.5t54.5 -60.5t78 -22t78 22zM128 680h312v-76h-312v76z" />
    <glyph glyph-name="Obreve" unicode="&#x14e;" horiz-adv-x="792" 
d="M212.5 36.5q-83.5 48.5 -132 132t-48.5 183.5q0 102 48.5 185.5t131.5 131t184 47.5q102 0 185.5 -48t131 -131.5t47.5 -184.5q0 -99 -47.5 -182.5t-131 -132.5t-185.5 -49q-100 0 -183.5 48.5zM526.5 117.5q58.5 33.5 92 94.5t33.5 140q0 82 -33.5 142.5t-92 93
t-130.5 32.5t-130.5 -33t-92 -94t-33.5 -141t33.5 -141t92 -94t130.5 -33t130.5 33.5zM303 814.5q-36 34.5 -39 97.5h67q2 -30 18 -47.5t47 -17.5q29 0 44 17.5t17 47.5h67q-4 -63 -39 -97.5t-89 -34.5q-57 0 -93 34.5z" />
    <glyph glyph-name="obreve" unicode="&#x14f;" horiz-adv-x="568" 
d="M152.5 22q-58.5 34 -91.5 93.5t-33 132.5t33 132.5t91.5 93.5t131.5 34q75 0 133 -34t90.5 -93t32.5 -133t-32.5 -133t-90.5 -93t-133 -34q-73 0 -131.5 34zM362 102q35 22 54.5 60.5t19.5 85.5t-19.5 85.5t-54.5 60.5t-78 22t-78 -22t-54.5 -60.5t-19.5 -85.5
t19.5 -85.5t54.5 -60.5t78 -22t78 22zM191 606.5q-36 34.5 -39 97.5h67q2 -30 18 -47.5t47 -17.5q29 0 44 17.5t17 47.5h67q-4 -63 -39 -97.5t-89 -34.5q-57 0 -93 34.5z" />
    <glyph glyph-name="Ohungarumlaut" unicode="&#x150;" horiz-adv-x="792" 
d="M212.5 36.5q-83.5 48.5 -132 132t-48.5 183.5q0 102 48.5 185.5t131.5 131t184 47.5q102 0 185.5 -48t131 -131.5t47.5 -184.5q0 -99 -47.5 -182.5t-131 -132.5t-185.5 -49q-100 0 -183.5 48.5zM526.5 117.5q58.5 33.5 92 94.5t33.5 140q0 82 -33.5 142.5t-92 93
t-130.5 32.5t-130.5 -33t-92 -94t-33.5 -141t33.5 -141t92 -94t130.5 -33t130.5 33.5zM276 760l96 148h96l-120 -152h-72v4zM428 760l96 148h96l-120 -152h-72v4z" />
    <glyph glyph-name="ohungarumlaut" unicode="&#x151;" horiz-adv-x="568" 
d="M152.5 22q-58.5 34 -91.5 93.5t-33 132.5t33 132.5t91.5 93.5t131.5 34q75 0 133 -34t90.5 -93t32.5 -133t-32.5 -133t-90.5 -93t-133 -34q-73 0 -131.5 34zM362 102q35 22 54.5 60.5t19.5 85.5t-19.5 85.5t-54.5 60.5t-78 22t-78 -22t-54.5 -60.5t-19.5 -85.5
t19.5 -85.5t54.5 -60.5t78 -22t78 22zM148 556l96 148h96l-120 -152h-72v4zM300 556l96 148h96l-120 -152h-72v4z" />
    <glyph glyph-name="OE" unicode="&#x152;" horiz-adv-x="1004" 
d="M964 92v-92h-464q-48 -12 -112 -12q-100 0 -181.5 48.5t-128 131.5t-46.5 184t46.5 184t128 131.5t181.5 48.5q64 0 112 -12h456v-92h-352v-208h300v-92h-300v-220h360zM500 100v504q-44 16 -104 16q-72 0 -130.5 -33t-92 -94t-33.5 -141t33.5 -141t92 -94t130.5 -33
q60 0 104 16z" />
    <glyph glyph-name="oe" unicode="&#x153;" horiz-adv-x="944" 
d="M591 112.5q42 -36.5 101 -36.5q44 0 80.5 17.5t58.5 54.5l73 -44q-31 -52 -87 -84t-125 -32q-64 0 -116.5 26t-85.5 73q-34 -47 -87.5 -73t-118.5 -26q-73 0 -131.5 34t-91.5 93.5t-33 132.5t33 132.5t91.5 93.5t131.5 34q66 0 119 -26.5t87 -73.5q31 46 79.5 73
t110.5 27q73 0 125.5 -33.5t79.5 -88t27 -118.5v-48h-367q4 -71 46 -107.5zM593 389.5q-36 -30.5 -46 -89.5h264q-7 53 -41.5 86.5t-89.5 33.5q-51 0 -87 -30.5zM362 102q35 22 54.5 60.5t19.5 85.5t-19.5 85.5t-54.5 60.5t-78 22t-78 -22t-54.5 -60.5t-19.5 -85.5
t19.5 -85.5t54.5 -60.5t78 -22t78 22z" />
    <glyph glyph-name="Racute" unicode="&#x154;" horiz-adv-x="636" 
d="M504 0l-205 276h-111v-276h-104v704h224q73 0 128 -27.5t85.5 -75.5t30.5 -109q0 -71 -40.5 -121.5t-108.5 -72.5l225 -298h-124zM188 368h120q60 0 98 35t38 89t-37.5 87t-98.5 33h-120v-244zM219 772l108 140h108l-132 -144h-84v4z" />
    <glyph glyph-name="racute" unicode="&#x155;" horiz-adv-x="372" 
d="M325.5 498.5q26.5 -9.5 38.5 -23.5l-41 -71q-23 16 -59 16q-67 0 -100 -56v-364h-100v496h72l21 -45q41 57 111 57q31 0 57.5 -9.5zM124 564l108 140h108l-132 -144h-84v4z" />
    <glyph glyph-name="Rcommaaccent" unicode="&#x156;" horiz-adv-x="636" 
d="M504 0l-205 276h-111v-276h-104v704h224q73 0 128 -27.5t85.5 -75.5t30.5 -109q0 -71 -40.5 -121.5t-108.5 -72.5l225 -298h-124zM188 368h120q60 0 98 35t38 89t-37.5 87t-98.5 33h-120v-244zM372 -68v-76q-1 -40 -32 -104h-52q31 63 32 104h-32v76h84z" />
    <glyph glyph-name="rcommaaccent" unicode="&#x157;" horiz-adv-x="372" 
d="M325.5 498.5q26.5 -9.5 38.5 -23.5l-41 -71q-23 16 -59 16q-67 0 -100 -56v-364h-100v496h72l21 -45q41 57 111 57q31 0 57.5 -9.5zM154 -68v-76q-1 -40 -32 -104h-52q31 63 32 104h-32v76h84z" />
    <glyph glyph-name="Rcaron" unicode="&#x158;" horiz-adv-x="636" 
d="M504 0l-205 276h-111v-276h-104v704h224q73 0 128 -27.5t85.5 -75.5t30.5 -109q0 -71 -40.5 -121.5t-108.5 -72.5l225 -298h-124zM188 368h120q60 0 98 35t38 89t-37.5 87t-98.5 33h-120v-244zM379 912h92l-128 -152h-88l-132 152h96l83 -86z" />
    <glyph glyph-name="rcaron" unicode="&#x159;" horiz-adv-x="372" 
d="M325.5 498.5q26.5 -9.5 38.5 -23.5l-41 -71q-23 16 -59 16q-67 0 -100 -56v-364h-100v496h72l21 -45q41 57 111 57q31 0 57.5 -9.5zM284 704h92l-128 -152h-88l-132 152h96l83 -86z" />
    <glyph glyph-name="Sacute" unicode="&#x15a;" horiz-adv-x="584" 
d="M140.5 23q-72.5 35 -113.5 94l87 55q28 -40 77.5 -64t112.5 -24q73 0 108.5 27.5t35.5 76.5q0 44 -32 70t-100 42l-68 16q-89 21 -144.5 68.5t-55.5 131.5q0 58 30.5 103.5t86 71t127.5 25.5q76 0 143.5 -30t104.5 -83l-87 -55q-26 34 -70 53t-91 19q-65 0 -100.5 -27
t-35.5 -73q0 -43 38.5 -68t117.5 -44l68 -16q176 -42 176 -200q0 -61 -32 -107t-90.5 -71.5t-133.5 -25.5q-87 0 -159.5 35zM212 772l108 140h108l-132 -144h-84v4z" />
    <glyph glyph-name="sacute" unicode="&#x15b;" horiz-adv-x="456" 
d="M110 11q-50 23 -87 75l74 46q28 -31 59 -45.5t76 -14.5q46 0 69 17t23 43q0 27 -23.5 45t-80.5 31l-52 12q-60 14 -94 50.5t-34 89.5q0 70 52.5 109t135.5 39q59 0 110 -22t83 -62l-75 -46q-49 46 -126 46q-35 0 -55.5 -15.5t-20.5 -40.5t19.5 -40.5t68.5 -27.5l52 -12
q77 -18 110.5 -55.5t33.5 -96.5q0 -43 -25.5 -77t-71 -52.5t-103.5 -18.5q-68 0 -118 23zM148 564l108 140h108l-132 -144h-84v4z" />
    <glyph glyph-name="Scircumflex" unicode="&#x15c;" horiz-adv-x="584" 
d="M140.5 23q-72.5 35 -113.5 94l87 55q28 -40 77.5 -64t112.5 -24q73 0 108.5 27.5t35.5 76.5q0 44 -32 70t-100 42l-68 16q-89 21 -144.5 68.5t-55.5 131.5q0 58 30.5 103.5t86 71t127.5 25.5q76 0 143.5 -30t104.5 -83l-87 -55q-26 34 -70 53t-91 19q-65 0 -100.5 -27
t-35.5 -73q0 -43 38.5 -68t117.5 -44l68 -16q176 -42 176 -200q0 -61 -32 -107t-90.5 -71.5t-133.5 -25.5q-87 0 -159.5 35zM468 760h-96l-83 86l-77 -86h-92l128 152h88z" />
    <glyph glyph-name="scircumflex" unicode="&#x15d;" horiz-adv-x="456" 
d="M110 11q-50 23 -87 75l74 46q28 -31 59 -45.5t76 -14.5q46 0 69 17t23 43q0 27 -23.5 45t-80.5 31l-52 12q-60 14 -94 50.5t-34 89.5q0 70 52.5 109t135.5 39q59 0 110 -22t83 -62l-75 -46q-49 46 -126 46q-35 0 -55.5 -15.5t-20.5 -40.5t19.5 -40.5t68.5 -27.5l52 -12
q77 -18 110.5 -55.5t33.5 -96.5q0 -43 -25.5 -77t-71 -52.5t-103.5 -18.5q-68 0 -118 23zM404 552h-96l-83 86l-77 -86h-92l128 152h88z" />
    <glyph glyph-name="Scedilla" unicode="&#x15e;" horiz-adv-x="584" 
d="M525.5 88q-30.5 -45 -85.5 -71.5t-127 -28.5l-10 -39q34 -8 53.5 -30t19.5 -51q0 -35 -27 -59.5t-65 -24.5q-26 0 -46.5 12.5t-33.5 35.5l36 28q6 -11 17 -17.5t27 -6.5q18 0 27 9.5t9 22.5q0 16 -15.5 26t-32.5 10h-24l28 85q-80 4 -145.5 38.5t-103.5 89.5l87 55
q28 -40 77.5 -64t112.5 -24q73 0 108.5 27.5t35.5 76.5q0 44 -32 70t-100 42l-68 16q-89 21 -144.5 68.5t-55.5 131.5q0 58 30.5 103.5t86 71t127.5 25.5q76 0 143.5 -30t104.5 -83l-87 -55q-26 34 -70 53t-91 19q-65 0 -100.5 -27t-35.5 -73q0 -43 38.5 -68t117.5 -44
l68 -16q176 -42 176 -200q0 -59 -30.5 -104z" />
    <glyph glyph-name="scedilla" unicode="&#x15f;" horiz-adv-x="456" 
d="M377.5 33q-50.5 -40 -132.5 -45l-10 -39q34 -8 53.5 -30t19.5 -51q0 -35 -27 -59.5t-65 -24.5q-26 0 -46.5 12.5t-33.5 35.5l36 28q6 -11 17 -17.5t27 -6.5q18 0 27 9.5t9 22.5q0 16 -15.5 26t-32.5 10h-24l28 84q-60 3 -105.5 26.5t-79.5 71.5l74 46q28 -31 59 -45.5
t76 -14.5q46 0 69 17t23 43q0 27 -23.5 45t-80.5 31l-52 12q-60 14 -94 50.5t-34 89.5q0 70 52.5 109t135.5 39q59 0 110 -22t83 -62l-75 -46q-49 46 -126 46q-35 0 -55.5 -15.5t-20.5 -40.5t19.5 -40.5t68.5 -27.5l52 -12q77 -18 110.5 -55.5t33.5 -96.5q0 -63 -50.5 -103z
" />
    <glyph glyph-name="Scaron" unicode="&#x160;" horiz-adv-x="584" 
d="M140.5 23q-72.5 35 -113.5 94l87 55q28 -40 77.5 -64t112.5 -24q73 0 108.5 27.5t35.5 76.5q0 44 -32 70t-100 42l-68 16q-89 21 -144.5 68.5t-55.5 131.5q0 58 30.5 103.5t86 71t127.5 25.5q76 0 143.5 -30t104.5 -83l-87 -55q-26 34 -70 53t-91 19q-65 0 -100.5 -27
t-35.5 -73q0 -43 38.5 -68t117.5 -44l68 -16q176 -42 176 -200q0 -61 -32 -107t-90.5 -71.5t-133.5 -25.5q-87 0 -159.5 35zM372 912h92l-128 -152h-88l-132 152h96l83 -86z" />
    <glyph glyph-name="scaron" unicode="&#x161;" horiz-adv-x="456" 
d="M110 11q-50 23 -87 75l74 46q28 -31 59 -45.5t76 -14.5q46 0 69 17t23 43q0 27 -23.5 45t-80.5 31l-52 12q-60 14 -94 50.5t-34 89.5q0 70 52.5 109t135.5 39q59 0 110 -22t83 -62l-75 -46q-49 46 -126 46q-35 0 -55.5 -15.5t-20.5 -40.5t19.5 -40.5t68.5 -27.5l52 -12
q77 -18 110.5 -55.5t33.5 -96.5q0 -43 -25.5 -77t-71 -52.5t-103.5 -18.5q-68 0 -118 23zM308 704h92l-128 -152h-88l-132 152h96l83 -86z" />
    <glyph glyph-name="uni0162" unicode="&#x162;" 
d="M588 704v-92h-236v-612h-104v612h-236v92h576zM342 -68v-76q-1 -40 -32 -104h-52q31 63 32 104h-32v76h84z" />
    <glyph glyph-name="uni0163" unicode="&#x163;" horiz-adv-x="384" 
d="M372 35q-52 -47 -120 -47q-52 0 -90 21t-58 55t-20 72v276h-72v84h80v104l88 56h4v-160h180v-84h-180v-268q0 -31 21 -49.5t51 -18.5q38 0 71 28zM254 -68v-76q-1 -40 -32 -104h-52q31 63 32 104h-32v76h84z" />
    <glyph glyph-name="Tcaron" unicode="&#x164;" 
d="M588 704v-92h-236v-612h-104v612h-236v92h576zM380 912h92l-128 -152h-88l-132 152h96l83 -86z" />
    <glyph glyph-name="tcaron" unicode="&#x165;" horiz-adv-x="384" 
d="M372 35q-52 -47 -120 -47q-52 0 -90 21t-58 55t-20 72v276h-72v84h80v104l88 56h4v-160h180v-84h-180v-268q0 -31 21 -49.5t51 -18.5q38 0 71 28zM247 681l1 23h80q-14 -103 -32 -168h-60q2 21 11 145z" />
    <glyph glyph-name="Tbar" unicode="&#x166;" 
d="M588 612h-236v-236h157v-64h-157v-312h-104v312h-152v64h152v236h-236v92h576v-92z" />
    <glyph glyph-name="tbar" unicode="&#x167;" horiz-adv-x="384" 
d="M372 35q-52 -47 -120 -47q-52 0 -90 21t-58 55t-20 72v97h-62v64h62v115h-72v84h80v104l88 56h4v-160h180v-84h-180v-115h156v-64h-156v-89q0 -31 21 -49.5t51 -18.5q38 0 71 28z" />
    <glyph glyph-name="Utilde" unicode="&#x168;" horiz-adv-x="720" 
d="M207.5 25q-66.5 37 -103 102.5t-36.5 148.5v428h104v-428q0 -57 24.5 -100.5t67 -67.5t96.5 -24q87 0 137.5 52.5t50.5 139.5v428h104v-428q0 -84 -35 -149.5t-101 -102t-156 -36.5q-86 0 -152.5 37zM394 777.5q-24 13.5 -58 36.5q-37 26 -44 26q-12 0 -12 -12v-56h-64
v52q0 55 15 75.5t49 20.5q17 0 41 -13.5t56 -36.5q41 -30 51 -30q12 0 12 12v60h64v-56q0 -50 -16 -71t-52 -21q-18 0 -42 13.5z" />
    <glyph glyph-name="utilde" unicode="&#x169;" horiz-adv-x="544" 
d="M480 496v-496h-72l-28 52q-21 -31 -54 -47.5t-74 -16.5q-94 0 -143 56.5t-49 143.5v308h100v-296q0 -62 32 -91t84 -29q30 0 57 14.5t47 37.5v364h100zM306 569.5q-24 13.5 -58 36.5q-37 26 -44 26q-12 0 -12 -12v-56h-64v52q0 55 15 75.5t49 20.5q17 0 41 -13.5
t56 -36.5q41 -30 51 -30q12 0 12 12v60h64v-56q0 -50 -16 -71t-52 -21q-18 0 -42 13.5z" />
    <glyph glyph-name="Umacron" unicode="&#x16a;" horiz-adv-x="720" 
d="M207.5 25q-66.5 37 -103 102.5t-36.5 148.5v428h104v-428q0 -57 24.5 -100.5t67 -67.5t96.5 -24q87 0 137.5 52.5t50.5 139.5v428h104v-428q0 -84 -35 -149.5t-101 -102t-156 -36.5q-86 0 -152.5 37zM204 888h312v-76h-312v76z" />
    <glyph glyph-name="umacron" unicode="&#x16b;" horiz-adv-x="544" 
d="M480 496v-496h-72l-28 52q-21 -31 -54 -47.5t-74 -16.5q-94 0 -143 56.5t-49 143.5v308h100v-296q0 -62 32 -91t84 -29q30 0 57 14.5t47 37.5v364h100zM116 680h312v-76h-312v76z" />
    <glyph glyph-name="Ubreve" unicode="&#x16c;" horiz-adv-x="720" 
d="M207.5 25q-66.5 37 -103 102.5t-36.5 148.5v428h104v-428q0 -57 24.5 -100.5t67 -67.5t96.5 -24q87 0 137.5 52.5t50.5 139.5v428h104v-428q0 -84 -35 -149.5t-101 -102t-156 -36.5q-86 0 -152.5 37zM267 814.5q-36 34.5 -39 97.5h67q2 -30 18 -47.5t47 -17.5
q29 0 44 17.5t17 47.5h67q-4 -63 -39 -97.5t-89 -34.5q-57 0 -93 34.5z" />
    <glyph glyph-name="ubreve" unicode="&#x16d;" horiz-adv-x="544" 
d="M480 496v-496h-72l-28 52q-21 -31 -54 -47.5t-74 -16.5q-94 0 -143 56.5t-49 143.5v308h100v-296q0 -62 32 -91t84 -29q30 0 57 14.5t47 37.5v364h100zM179 606.5q-36 34.5 -39 97.5h67q2 -30 18 -47.5t47 -17.5q29 0 44 17.5t17 47.5h67q-4 -63 -39 -97.5t-89 -34.5
q-57 0 -93 34.5z" />
    <glyph glyph-name="Uring" unicode="&#x16e;" horiz-adv-x="720" 
d="M207.5 25q-66.5 37 -103 102.5t-36.5 148.5v428h104v-428q0 -57 24.5 -100.5t67 -67.5t96.5 -24q87 0 137.5 52.5t50.5 139.5v428h104v-428q0 -84 -35 -149.5t-101 -102t-156 -36.5q-86 0 -152.5 37zM286.5 775.5q-30.5 27.5 -30.5 68.5t30.5 68.5t73.5 27.5t73.5 -27.5
t30.5 -68.5t-30.5 -68.5t-73.5 -27.5t-73.5 27.5zM392 812.5q12 12.5 12 31.5t-12 31.5t-32 12.5t-32 -12.5t-12 -31.5t12 -31.5t32 -12.5t32 12.5z" />
    <glyph glyph-name="uring" unicode="&#x16f;" horiz-adv-x="544" 
d="M480 496v-496h-72l-28 52q-21 -31 -54 -47.5t-74 -16.5q-94 0 -143 56.5t-49 143.5v308h100v-296q0 -62 32 -91t84 -29q30 0 57 14.5t47 37.5v364h100zM198.5 567.5q-30.5 27.5 -30.5 68.5t30.5 68.5t73.5 27.5t73.5 -27.5t30.5 -68.5t-30.5 -68.5t-73.5 -27.5
t-73.5 27.5zM304 604.5q12 12.5 12 31.5t-12 31.5t-32 12.5t-32 -12.5t-12 -31.5t12 -31.5t32 -12.5t32 12.5z" />
    <glyph glyph-name="Uhungarumlaut" unicode="&#x170;" horiz-adv-x="720" 
d="M207.5 25q-66.5 37 -103 102.5t-36.5 148.5v428h104v-428q0 -57 24.5 -100.5t67 -67.5t96.5 -24q87 0 137.5 52.5t50.5 139.5v428h104v-428q0 -84 -35 -149.5t-101 -102t-156 -36.5q-86 0 -152.5 37zM240 760l96 148h96l-120 -152h-72v4zM392 760l96 148h96l-120 -152
h-72v4z" />
    <glyph glyph-name="uhungarumlaut" unicode="&#x171;" horiz-adv-x="544" 
d="M480 496v-496h-72l-28 52q-21 -31 -54 -47.5t-74 -16.5q-94 0 -143 56.5t-49 143.5v308h100v-296q0 -62 32 -91t84 -29q30 0 57 14.5t47 37.5v364h100zM136 556l96 148h96l-120 -152h-72v4zM288 556l96 148h96l-120 -152h-72v4z" />
    <glyph glyph-name="Uogonek" unicode="&#x172;" horiz-adv-x="720" 
d="M652 704v-428q0 -104 -53.5 -178t-148.5 -99q-34 -20 -58 -49t-24 -54q0 -16 11 -26t29 -10q23 0 44 16l12 -72q-22 -10 -39 -15t-37 -5q-45 0 -72.5 22t-27.5 66q0 61 61 116q-83 2 -147 39.5t-99 102t-35 146.5v428h104v-428q0 -57 24.5 -100.5t67 -67.5t96.5 -24
q87 0 137.5 52.5t50.5 139.5v428h104z" />
    <glyph glyph-name="uogonek" unicode="&#x173;" horiz-adv-x="544" 
d="M492 -192q-22 -10 -39 -15t-37 -5q-45 0 -72.5 22t-27.5 66q0 41 24.5 75.5t61.5 59.5l-22 41q-21 -31 -54 -47.5t-74 -16.5q-94 0 -143 56.5t-49 143.5v308h100v-296q0 -62 32 -91t84 -29q30 0 57 14.5t47 37.5v364h100v-496h-7q-32 -20 -54.5 -47.5t-22.5 -52.5
q0 -16 11 -26t29 -10q23 0 44 16z" />
    <glyph glyph-name="Wcircumflex" unicode="&#x174;" horiz-adv-x="1052" 
d="M944 704h108l-264 -704h-68l-199 503l-189 -503h-68l-264 704h112l188 -523l188 523h72l194 -520zM696 760h-96l-83 86l-77 -86h-92l128 152h88z" />
    <glyph glyph-name="wcircumflex" unicode="&#x175;" horiz-adv-x="808" 
d="M704 496h104l-192 -496h-72l-137 332l-147 -332h-68l-192 496h104l127 -346l141 346h68l138 -346zM584 552h-96l-83 86l-77 -86h-92l128 152h88z" />
    <glyph glyph-name="Ycircumflex" unicode="&#x176;" horiz-adv-x="636" 
d="M524 704h116l-268 -436v-268h-104v268l-272 436h116l212 -333zM496 760h-96l-83 86l-77 -86h-92l128 152h88z" />
    <glyph glyph-name="ycircumflex" unicode="&#x177;" horiz-adv-x="508" 
d="M404 496h104l-312 -704h-92l104 234l-208 470h104l152 -359zM428 552h-96l-83 86l-77 -86h-92l128 152h88z" />
    <glyph glyph-name="Ydieresis" unicode="&#x178;" horiz-adv-x="636" 
d="M524 704h116l-268 -436v-268h-104v268l-272 436h116l212 -333zM180 896h92v-96h-92v96zM368 896h92v-96h-92v96z" />
    <glyph glyph-name="Zacute" unicode="&#x179;" horiz-adv-x="588" 
d="M560 704v-64l-388 -548h388v-92h-532v52l392 560h-392v92h532zM216 772l108 140h108l-132 -144h-84v4z" />
    <glyph glyph-name="zacute" unicode="&#x17a;" horiz-adv-x="444" 
d="M150 84h270v-84h-396v56l257 356h-253v84h388v-56zM136 564l108 140h108l-132 -144h-84v4z" />
    <glyph glyph-name="Zdotaccent" unicode="&#x17b;" horiz-adv-x="588" 
d="M560 704v-64l-388 -548h388v-92h-532v52l392 560h-392v92h532zM244 912h104v-100h-104v100z" />
    <glyph glyph-name="zdotaccent" unicode="&#x17c;" horiz-adv-x="444" 
d="M150 84h270v-84h-396v56l257 356h-253v84h388v-56zM164 704h104v-100h-104v100z" />
    <glyph glyph-name="Zcaron" unicode="&#x17d;" horiz-adv-x="588" 
d="M560 704v-64l-388 -548h388v-92h-532v52l392 560h-392v92h532zM376 912h92l-128 -152h-88l-132 152h96l83 -86z" />
    <glyph glyph-name="zcaron" unicode="&#x17e;" horiz-adv-x="444" 
d="M150 84h270v-84h-396v56l257 356h-253v84h388v-56zM296 704h92l-128 -152h-88l-132 152h96l83 -86z" />
    <glyph glyph-name="Schwa" unicode="&#x18f;" horiz-adv-x="763" 
d="M560.5 668.5q82.5 -47.5 126.5 -129.5t44 -183t-43.5 -185t-126.5 -133.5t-195 -49.5q-107 0 -182.5 44.5t-113.5 120t-38 165.5v59h592q-2 72 -35.5 127.5t-91.5 86t-131 30.5q-137 0 -227 -110l-85 60q119 145 312 145q112 0 194.5 -47.5zM532.5 138q68.5 55 85.5 147
h-479q9 -95 70 -148.5t157 -53.5q98 0 166.5 55z" />
    <glyph glyph-name="florin" unicode="&#x192;" 
d="M335 396h171v-72h-147q21 -63 30 -98.5t9 -69.5q0 -79 -48.5 -123.5t-133.5 -44.5q-54 0 -98 25t-76 70l76 49q38 -58 102 -58q38 0 61 21t23 61q0 23 -8 51t-28 87l-10 30h-140v72h116q-18 51 -27 86.5t-9 65.5q0 79 51 123.5t135 44.5q53 0 97.5 -25.5t76.5 -69.5
l-76 -49q-38 58 -102 58q-39 0 -62.5 -22t-23.5 -60q0 -23 8 -51t28 -87z" />
    <glyph glyph-name="Ohorn" unicode="&#x1a0;" horiz-adv-x="792" 
d="M730 501q30 -69 30 -149q0 -99 -47.5 -182.5t-131 -132.5t-185.5 -49q-100 0 -183.5 48.5t-132 132t-48.5 183.5q0 102 48.5 185.5t131.5 131t184 47.5q93 0 173 -41h19q28 0 43.5 12t15.5 35q0 24 -15 50l74 25q10 -17 16 -38t6 -39q0 -39 -21 -65t-61 -35
q54 -50 84 -119zM526.5 117.5q58.5 33.5 92 94.5t33.5 140q0 82 -33.5 142.5t-92 93t-130.5 32.5t-130.5 -33t-92 -94t-33.5 -141t33.5 -141t92 -94t130.5 -33t130.5 33.5z" />
    <glyph glyph-name="ohorn" unicode="&#x1a1;" horiz-adv-x="568" 
d="M537 451q-18 -25 -52 -36q27 -33 41 -76t14 -91q0 -74 -32.5 -133t-90.5 -93t-133 -34q-73 0 -131.5 34t-91.5 93.5t-33 132.5t33 132.5t91.5 93.5t131.5 34q81 0 143 -40q22 2 34.5 13.5t12.5 32.5q0 24 -15 50l74 25q10 -17 16 -38t6 -39q0 -36 -18 -61zM362 102
q35 22 54.5 60.5t19.5 85.5t-19.5 85.5t-54.5 60.5t-78 22t-78 -22t-54.5 -60.5t-19.5 -85.5t19.5 -85.5t54.5 -60.5t78 -22t78 22z" />
    <glyph glyph-name="Uhorn" unicode="&#x1af;" horiz-adv-x="774" 
d="M756 797q10 -17 16 -38t6 -39q0 -49 -32 -76.5t-92 -27.5h-2v-340q0 -84 -35 -149.5t-101 -102t-156 -36.5q-86 0 -152.5 37t-103 102.5t-36.5 148.5v428h104v-428q0 -57 24.5 -100.5t67 -67.5t96.5 -24q87 0 137.5 52.5t50.5 139.5v428h104v-28q45 5 45 46q0 24 -15 50z
" />
    <glyph glyph-name="uhorn" unicode="&#x1b0;" horiz-adv-x="605" 
d="M593 589q10 -17 16 -38t6 -39q0 -49 -32 -76.5t-92 -27.5h-11v-408h-72l-28 52q-21 -31 -54 -47.5t-74 -16.5q-94 0 -143 56.5t-49 143.5v308h100v-296q0 -62 32 -91t84 -29q30 0 57 14.5t47 37.5v364h100v-29q25 1 39.5 13t14.5 34q0 24 -15 50z" />
    <glyph glyph-name="Scommaaccent" unicode="&#x218;" horiz-adv-x="584" 
d="M140.5 23q-72.5 35 -113.5 94l87 55q28 -40 77.5 -64t112.5 -24q73 0 108.5 27.5t35.5 76.5q0 44 -32 70t-100 42l-68 16q-89 21 -144.5 68.5t-55.5 131.5q0 58 30.5 103.5t86 71t127.5 25.5q76 0 143.5 -30t104.5 -83l-87 -55q-26 34 -70 53t-91 19q-65 0 -100.5 -27
t-35.5 -73q0 -43 38.5 -68t117.5 -44l68 -16q176 -42 176 -200q0 -61 -32 -107t-90.5 -71.5t-133.5 -25.5q-87 0 -159.5 35zM338 -68v-76q-1 -40 -32 -104h-52q31 63 32 104h-32v76h84z" />
    <glyph glyph-name="scommaaccent" unicode="&#x219;" horiz-adv-x="456" 
d="M110 11q-50 23 -87 75l74 46q28 -31 59 -45.5t76 -14.5q46 0 69 17t23 43q0 27 -23.5 45t-80.5 31l-52 12q-60 14 -94 50.5t-34 89.5q0 70 52.5 109t135.5 39q59 0 110 -22t83 -62l-75 -46q-49 46 -126 46q-35 0 -55.5 -15.5t-20.5 -40.5t19.5 -40.5t68.5 -27.5l52 -12
q77 -18 110.5 -55.5t33.5 -96.5q0 -43 -25.5 -77t-71 -52.5t-103.5 -18.5q-68 0 -118 23zM270 -68v-76q-1 -40 -32 -104h-52q31 63 32 104h-32v76h84z" />
    <glyph glyph-name="uni021A" unicode="&#x21a;" 
d="M588 704v-92h-236v-612h-104v612h-236v92h576zM342 -68v-76q-1 -40 -32 -104h-52q31 63 32 104h-32v76h84z" />
    <glyph glyph-name="uni021B" unicode="&#x21b;" horiz-adv-x="384" 
d="M372 35q-52 -47 -120 -47q-52 0 -90 21t-58 55t-20 72v276h-72v84h80v104l88 56h4v-160h180v-84h-180v-268q0 -31 21 -49.5t51 -18.5q38 0 71 28zM254 -68v-76q-1 -40 -32 -104h-52q31 63 32 104h-32v76h84z" />
    <glyph glyph-name="dotlessj" unicode="&#x237;" horiz-adv-x="228" 
d="M16 -128q23 0 35.5 14t12.5 42v568h100v-564q0 -67 -37 -107.5t-99 -40.5q-52 0 -91 25l43 74q17 -11 36 -11z" />
    <glyph glyph-name="schwa" unicode="&#x259;" horiz-adv-x="532" 
d="M383.5 475.5q55.5 -32.5 88 -91.5t32.5 -136q0 -72 -30 -131.5t-86.5 -94t-131.5 -34.5q-67 0 -118 32.5t-78.5 85.5t-27.5 114v52h368q-4 73 -46 110.5t-102 37.5q-43 0 -80 -18.5t-59 -53.5l-74 44q31 53 88 84.5t133 31.5q68 0 123.5 -32.5zM349.5 105.5
q35.5 29.5 46.5 86.5h-262q8 -51 42 -83.5t88 -32.5q50 0 85.5 29.5z" />
    <glyph glyph-name="h.sups" unicode="&#x2b0;" horiz-adv-x="424" 
d="M341 832.5q39 -40.5 39 -104.5v-232h-79v221q0 41 -22 64t-62 23q-30 0 -49 -11.5t-36 -31.5v-265h-80v522h80v-191q22 23 46 34.5t56 11.5q68 0 107 -40.5z" />
    <glyph glyph-name="j.sups" unicode="&#x2b2;" horiz-adv-x="228" 
d="M107 1009h76v-69h-76v69zM64 401q19 0 30 9.5t11 28.5v425h79v-427q0 -48 -29.5 -74.5t-79.5 -26.5q-41 0 -70 16l29 57q13 -8 30 -8z" />
    <glyph glyph-name="r.sups" unicode="&#x2b3;" horiz-adv-x="316" 
d="M306 851l-34 -65q-22 14 -53 14q-59 0 -87 -45v-259h-80v368h49l26 -42q16 23 45 37t58 14q45 0 76 -22z" />
    <glyph glyph-name="w.sups" unicode="&#x2b7;" horiz-adv-x="640" 
d="M557 864h78l-156 -370h-53l-107 244l-103 -244h-54l-157 370h87l98 -246l102 246h52l111 -251z" />
    <glyph glyph-name="y.sups" unicode="&#x2b8;" horiz-adv-x="403" 
d="M319 864h79l-231 -522h-80l83 179l-165 343h87l118 -250z" />
    <glyph glyph-name="circumflex" unicode="&#x2c6;" 
d="M416 552h-96l-83 86l-77 -86h-92l128 152h88z" />
    <glyph glyph-name="caron" unicode="&#x2c7;" 
d="M372 704h92l-128 -152h-88l-132 152h96l83 -86z" />
    <glyph glyph-name="uni02C9" unicode="&#x2c9;" 
d="M140 680h312v-76h-312v76z" />
    <glyph glyph-name="breve" unicode="&#x2d8;" 
d="M147 606.5q-36 34.5 -39 97.5h67q2 -30 18 -47.5t47 -17.5q29 0 44 17.5t17 47.5h67q-4 -63 -39 -97.5t-89 -34.5q-57 0 -93 34.5z" />
    <glyph glyph-name="dotaccent" unicode="&#x2d9;" 
d="M60 704h104v-100h-104v100z" />
    <glyph glyph-name="ring" unicode="&#x2da;" 
d="M226.5 567.5q-30.5 27.5 -30.5 68.5t30.5 68.5t73.5 27.5t73.5 -27.5t30.5 -68.5t-30.5 -68.5t-73.5 -27.5t-73.5 27.5zM332 604.5q12 12.5 12 31.5t-12 31.5t-32 12.5t-32 -12.5t-12 -31.5t12 -31.5t32 -12.5t32 12.5z" />
    <glyph glyph-name="ogonek" unicode="&#x2db;" 
d="M207.5 -194q-27.5 22 -27.5 66q0 51 37.5 92.5t82.5 63.5l44 -16v-12q-35 -20 -59.5 -49t-24.5 -55q0 -16 11 -26t29 -10q23 0 44 16l12 -72q-22 -10 -39 -15t-37 -5q-45 0 -72.5 22z" />
    <glyph glyph-name="tilde" unicode="&#x2dc;" 
d="M330 569.5q-24 13.5 -58 36.5q-37 26 -44 26q-12 0 -12 -12v-56h-64v52q0 55 15 75.5t49 20.5q17 0 41 -13.5t56 -36.5q41 -30 51 -30q12 0 12 12v60h64v-56q0 -50 -16 -71t-52 -21q-18 0 -42 13.5z" />
    <glyph glyph-name="hungarumlaut" unicode="&#x2dd;" 
d="M96 556l96 148h96l-120 -152h-72v4zM248 556l96 148h96l-120 -152h-72v4z" />
    <glyph glyph-name="l.sups" unicode="&#x2e1;" horiz-adv-x="176" 
d="M52 1018h80v-522h-80v522z" />
    <glyph glyph-name="s.sups" unicode="&#x2e2;" horiz-adv-x="356" 
d="M83 505q-35 18 -59 56l55 28q20 -24 43.5 -34t54.5 -10q76 0 76 50q0 24 -15.5 33.5t-48.5 16.5l-30 6q-52 10 -90.5 33t-38.5 76q0 51 41.5 82t114.5 31q90 0 139 -56l-54 -36q-17 18 -38 26t-51 8q-39 0 -56 -12.5t-17 -35.5q0 -24 16 -34.5t57 -18.5l30 -6
q120 -24 120 -109q0 -52 -42 -82t-117 -30q-55 0 -90 18z" />
    <glyph glyph-name="x.sups" unicode="&#x2e3;" horiz-adv-x="379" 
d="M374 496h-93l-94 127l-95 -127h-87l141 183l-137 185h90l92 -123l88 123h89l-135 -179z" />
    <glyph glyph-name="gravecomb" unicode="&#x300;" horiz-adv-x="0" 
d="M-430 704h108l108 -140v-4h-84z" />
    <glyph glyph-name="acutecomb" unicode="&#x301;" horiz-adv-x="0" 
d="M-444 564l108 140h108l-132 -144h-84v4z" />
    <glyph glyph-name="circumflexcomb" unicode="&#x302;" horiz-adv-x="0" 
d="M-184 552h-96l-83 86l-77 -86h-92l128 152h88z" />
    <glyph glyph-name="tildecomb" unicode="&#x303;" horiz-adv-x="0" 
d="M-270 569.5q-24 13.5 -58 36.5q-37 26 -44 26q-12 0 -12 -12v-56h-64v52q0 55 15 75.5t49 20.5q17 0 41 -13.5t56 -36.5q41 -30 51 -30q12 0 12 12v60h64v-56q0 -50 -16 -71t-52 -21q-18 0 -42 13.5z" />
    <glyph glyph-name="macroncomb" unicode="&#x304;" horiz-adv-x="0" 
d="M-460 664h312v-76h-312v76z" />
    <glyph glyph-name="brevecomb" unicode="&#x306;" horiz-adv-x="0" 
d="M-453 606.5q-36 34.5 -39 97.5h67q2 -30 18 -47.5t47 -17.5q29 0 44 17.5t17 47.5h67q-4 -63 -39 -97.5t-89 -34.5q-57 0 -93 34.5z" />
    <glyph glyph-name="dotaccentcomb" unicode="&#x307;" horiz-adv-x="0" 
d="M-540 704h104v-100h-104v100z" />
    <glyph glyph-name="dieresiscomb" unicode="&#x308;" horiz-adv-x="0" 
d="M-564 688h92v-96h-92v96zM-376 688h92v-96h-92v96z" />
    <glyph glyph-name="hookabovecomb" unicode="&#x309;" horiz-adv-x="0" 
d="M-49 608q-19 -20 -54 -23v-38h-48v76h24q18 0 28 9t10 27q0 15 -9.5 23.5t-26.5 8.5q-28 0 -48 -24l-32 33q13 20 35 31.5t50 11.5q42 0 66 -24t24 -60q0 -31 -19 -51z" />
    <glyph glyph-name="ringcomb" unicode="&#x30a;" horiz-adv-x="0" 
d="M-373.5 567.5q-30.5 27.5 -30.5 68.5t30.5 68.5t73.5 27.5t73.5 -27.5t30.5 -68.5t-30.5 -68.5t-73.5 -27.5t-73.5 27.5zM-268 604.5q12 12.5 12 31.5t-12 31.5t-32 12.5t-32 -12.5t-12 -31.5t12 -31.5t32 -12.5t32 12.5z" />
    <glyph glyph-name="hungarumlautcomb" unicode="&#x30b;" horiz-adv-x="0" 
d="M-504 556l96 148h96l-120 -152h-72v4zM-352 556l96 148h96l-120 -152h-72v4z" />
    <glyph glyph-name="caroncomb" unicode="&#x30c;" horiz-adv-x="0" 
d="M-228 704h92l-128 -152h-88l-132 152h96l83 -86z" />
    <glyph glyph-name="commaturnedabovecomb" unicode="&#x312;" horiz-adv-x="0" 
d="M-304 672h32v-84h-92v76q0 54 36 116h56q-32 -73 -32 -108z" />
    <glyph glyph-name="uni031B" unicode="&#x31b;" horiz-adv-x="0" 
d="M-37 618q10 -17 16 -38t6 -39q0 -49 -32 -76.5t-92 -27.5h-55v59h39q28 0 43.5 12t15.5 35q0 24 -15 50z" />
    <glyph glyph-name="dotbelowcomb" unicode="&#x323;" horiz-adv-x="0" 
d="M-134 -66h104v-100h-104v100z" />
    <glyph glyph-name="commaaccent" unicode="&#x326;" horiz-adv-x="0" 
d="M-260 -68v-76q-1 -40 -32 -104h-52q31 63 32 104h-32v76h84z" />
    <glyph glyph-name="cedillacomb" unicode="&#x327;" horiz-adv-x="0" 
d="M-303.5 -81q19.5 -22 19.5 -51q0 -35 -27 -59.5t-65 -24.5q-26 0 -46.5 12.5t-33.5 35.5l36 28q6 -11 17 -17.5t27 -6.5q18 0 27 9.5t9 22.5q0 16 -15.5 26t-32.5 10h-24l32 96h36l-13 -51q34 -8 53.5 -30z" />
    <glyph glyph-name="ogonekcomb" unicode="&#x328;" horiz-adv-x="0" 
d="M-392.5 -194q-27.5 22 -27.5 66q0 51 37.5 92.5t82.5 63.5l44 -16v-12q-35 -20 -59.5 -49t-24.5 -55q0 -16 11 -26t29 -10q23 0 44 16l12 -72q-22 -10 -39 -15t-37 -5q-45 0 -72.5 22z" />
    <glyph glyph-name="uni0335" unicode="&#x335;" horiz-adv-x="0" 
d="M-588 324h320v-64h-320v64z" />
    <glyph glyph-name="numeralsigngreek" unicode="&#x374;" horiz-adv-x="236" 
d="M40 534l48 170h108l-72 -174h-84v4z" />
    <glyph glyph-name="numeralsignlowergreek" unicode="&#x375;" horiz-adv-x="236" 
d="M40 -170l48 170h108l-72 -174h-84v4z" />
    <glyph glyph-name="questiongreek" unicode="&#x37e;" horiz-adv-x="220" 
d="M164 446v-115h-116v115h116zM172 116v-112q0 -83 -48 -164h-76q43 87 44 160h-36v116h116z" />
    <glyph glyph-name="tonos" unicode="&#x384;" 
d="M228 620q9 34 12 84h84q-6 -48 -20.5 -88t-35.5 -64h-68q19 34 28 68z" />
    <glyph glyph-name="dieresistonos" unicode="&#x385;" 
d="M152 660q9 34 12 84h88q-3 -46 -18.5 -86.5t-37.5 -65.5h-72q19 34 28 68zM8 688h88v-96h-88v96zM280 688h88v-96h-88v96z" />
    <glyph glyph-name="Alphatonos" unicode="&#x386;" horiz-adv-x="684" 
d="M568 0l-64 156h-327l-65 -156h-108l304 704h68l304 -704h-112zM216 248h250l-124 302zM92 620q9 34 12 84h84q-6 -48 -20.5 -88t-35.5 -64h-68q19 34 28 68z" />
    <glyph glyph-name="anoteleia" unicode="&#x387;" horiz-adv-x="212" 
d="M48 420h116v-116h-116v116z" />
    <glyph glyph-name="Epsilontonos" unicode="&#x388;" horiz-adv-x="680" 
d="M280 92h360v-92h-464v704h456v-92h-352v-208h300v-92h-300v-220zM28 620q9 34 12 84h84q-6 -48 -20.5 -88t-35.5 -64h-68q19 34 28 68z" />
    <glyph glyph-name="Etatonos" unicode="&#x389;" horiz-adv-x="828" 
d="M640 704h104v-704h-104v312h-364v-312h-104v704h104v-296h364v296zM28 620q9 34 12 84h84q-6 -48 -20.5 -88t-35.5 -64h-68q19 34 28 68z" />
    <glyph glyph-name="Iotatonos" unicode="&#x38a;" horiz-adv-x="357" 
d="M169 704h104v-704h-104v704zM28 620q9 34 12 84h84q-6 -48 -20.5 -88t-35.5 -64h-68q19 34 28 68z" />
    <glyph glyph-name="Omicrontonos" unicode="&#x38c;" horiz-adv-x="844" 
d="M264.5 36.5q-83.5 48.5 -132 132t-48.5 183.5q0 102 48.5 185.5t131.5 131t184 47.5q102 0 185.5 -48t131 -131.5t47.5 -184.5q0 -99 -47.5 -182.5t-131 -132.5t-185.5 -49q-100 0 -183.5 48.5zM578.5 117.5q58.5 33.5 92 94.5t33.5 140q0 82 -33.5 142.5t-92 93
t-130.5 32.5t-130.5 -33t-92 -94t-33.5 -141t33.5 -141t92 -94t130.5 -33t130.5 33.5zM28 620q9 34 12 84h84q-6 -48 -20.5 -88t-35.5 -64h-68q19 34 28 68z" />
    <glyph glyph-name="Upsilontonos" unicode="&#x38e;" horiz-adv-x="780" 
d="M668 704h116l-268 -436v-268h-104v268l-272 436h116l212 -333zM28 620q9 34 12 84h84q-6 -48 -20.5 -88t-35.5 -64h-68q19 34 28 68z" />
    <glyph glyph-name="Omegatonos" unicode="&#x38f;" horiz-adv-x="872" 
d="M596 92h220v-92h-304v164q90 23 147 79.5t57 148.5q0 65 -34.5 117t-94.5 81.5t-131 29.5t-131 -29.5t-94.5 -81.5t-34.5 -117q0 -92 56.5 -148t147.5 -80v-164h-304v92h220v9q-102 35 -165 113t-63 182q0 88 49.5 161.5t133.5 116t185 42.5t185 -42.5t133.5 -116
t49.5 -161.5q0 -105 -63.5 -183t-164.5 -112v-9zM30 620q9 34 12 84h84q-6 -48 -20.5 -88t-35.5 -64h-68q19 34 28 68z" />
    <glyph glyph-name="iotadieresistonos" unicode="&#x390;" horiz-adv-x="272" 
d="M191 -12q-61 0 -96 36.5t-35 103.5v368h100v-372q0 -21 11 -34.5t29 -13.5q20 0 39 12l39 -72q-39 -28 -87 -28zM80 660q9 34 12 84h88q-3 -46 -18.5 -86.5t-37.5 -65.5h-72q19 34 28 68zM-64 688h88v-96h-88v96zM208 688h88v-96h-88v96z" />
    <glyph glyph-name="Alpha" unicode="&#x391;" horiz-adv-x="684" 
d="M568 0l-64 156h-327l-65 -156h-108l304 704h68l304 -704h-112zM216 248h250l-124 302z" />
    <glyph glyph-name="Beta" unicode="&#x392;" horiz-adv-x="624" 
d="M562.5 306q29.5 -43 29.5 -98q0 -63 -29 -110t-79 -72.5t-112 -25.5h-288v704h256q59 0 108.5 -22.5t78.5 -66t29 -103.5q0 -44 -22 -79.5t-59 -61.5q58 -22 87.5 -65zM188 612v-212h148q53 0 82.5 30.5t29.5 77.5q0 43 -31.5 73.5t-80.5 30.5h-148zM452.5 121.5
q31.5 29.5 31.5 78.5q0 46 -34.5 77t-81.5 31h-180v-216h184q49 0 80.5 29.5z" />
    <glyph glyph-name="Gamma" unicode="&#x393;" horiz-adv-x="524" 
d="M512 704v-92h-324v-612h-104v704h428z" />
    <glyph glyph-name="uni0394" unicode="&#x394;" horiz-adv-x="692" 
d="M380 704l308 -704h-684l308 704h68zM151 92h387l-192 459z" />
    <glyph glyph-name="Epsilon" unicode="&#x395;" horiz-adv-x="588" 
d="M188 92h360v-92h-464v704h456v-92h-352v-208h300v-92h-300v-220z" />
    <glyph glyph-name="Zeta" unicode="&#x396;" horiz-adv-x="588" 
d="M560 704v-64l-388 -548h388v-92h-532v52l392 560h-392v92h532z" />
    <glyph glyph-name="Eta" unicode="&#x397;" horiz-adv-x="740" 
d="M552 704h104v-704h-104v312h-364v-312h-104v704h104v-296h364v296z" />
    <glyph glyph-name="Theta" unicode="&#x398;" horiz-adv-x="792" 
d="M212.5 36.5q-83.5 48.5 -132 132t-48.5 183.5q0 102 48.5 185.5t131.5 131t184 47.5q102 0 185.5 -48t131 -131.5t47.5 -184.5q0 -99 -47.5 -182.5t-131 -132.5t-185.5 -49q-100 0 -183.5 48.5zM526.5 117.5q58.5 33.5 92 94.5t33.5 140q0 82 -33.5 142.5t-92 93
t-130.5 32.5t-130.5 -33t-92 -94t-33.5 -141t33.5 -141t92 -94t130.5 -33t130.5 33.5zM226 397h332v-84h-332v84z" />
    <glyph glyph-name="Iota" unicode="&#x399;" horiz-adv-x="272" 
d="M84 704h104v-704h-104v704z" />
    <glyph glyph-name="Kappa" unicode="&#x39a;" horiz-adv-x="656" 
d="M656 0h-143l-325 328v-328h-104v704h104v-328l316 328h130l-338 -348z" />
    <glyph glyph-name="Lambda" unicode="&#x39b;" horiz-adv-x="682" 
d="M678 0h-112l-225 550l-229 -550h-108l303 704h68z" />
    <glyph glyph-name="Mu" unicode="&#x39c;" horiz-adv-x="892" 
d="M808 704v-704h-100v450l-228 -450h-68l-228 449v-449h-100v704h80l282 -564l282 564h80z" />
    <glyph glyph-name="Nu" unicode="&#x39d;" horiz-adv-x="732" 
d="M548 704h100v-704h-60l-404 494v-494h-100v704h56l408 -507v507z" />
    <glyph glyph-name="Xi" unicode="&#x39e;" horiz-adv-x="576" 
d="M48 704h480v-92h-480v92zM92 404h392v-92h-392v92zM40 92h496v-92h-496v92z" />
    <glyph glyph-name="Omicron" unicode="&#x39f;" horiz-adv-x="792" 
d="M212.5 36.5q-83.5 48.5 -132 132t-48.5 183.5q0 102 48.5 185.5t131.5 131t184 47.5q102 0 185.5 -48t131 -131.5t47.5 -184.5q0 -99 -47.5 -182.5t-131 -132.5t-185.5 -49q-100 0 -183.5 48.5zM526.5 117.5q58.5 33.5 92 94.5t33.5 140q0 82 -33.5 142.5t-92 93
t-130.5 32.5t-130.5 -33t-92 -94t-33.5 -141t33.5 -141t92 -94t130.5 -33t130.5 33.5z" />
    <glyph glyph-name="Pi" unicode="&#x3a0;" horiz-adv-x="732" 
d="M648 704v-704h-104v608h-356v-608h-104v704h564z" />
    <glyph glyph-name="Rho" unicode="&#x3a1;" horiz-adv-x="592" 
d="M456 673.5q54 -30.5 85 -81.5t31 -112t-30 -112.5t-84 -81.5t-122 -30h-148v-256h-104v704h252q66 0 120 -30.5zM427.5 386.5q36.5 38.5 36.5 93.5t-36.5 93.5t-91.5 38.5h-148v-264h148q55 0 91.5 38.5z" />
    <glyph glyph-name="Sigma" unicode="&#x3a3;" horiz-adv-x="556" 
d="M185 92h339v-92h-484v56l230 298l-221 286v64h467v-92h-323l195 -256v-8z" />
    <glyph glyph-name="Tau" unicode="&#x3a4;" 
d="M588 704v-92h-236v-612h-104v612h-236v92h576z" />
    <glyph glyph-name="Upsilon" unicode="&#x3a5;" horiz-adv-x="636" 
d="M524 704h116l-268 -436v-268h-104v268l-272 436h116l212 -333z" />
    <glyph glyph-name="Phi" unicode="&#x3a6;" horiz-adv-x="804" 
d="M741.5 220.5q-38.5 -59.5 -112.5 -97.5t-177 -45v-78h-96v78q-103 7 -178 45t-114.5 97.5t-39.5 131.5q0 73 39 132.5t114 97t179 44.5v78h96v-78q103 -7 177 -44.5t112.5 -97t38.5 -132.5q0 -72 -38.5 -131.5zM185.5 224q57.5 -49 170.5 -58v372q-113 -9 -170.5 -58
t-57.5 -128t57.5 -128zM619 224.5q57 49.5 57 127.5q0 80 -57 128.5t-167 57.5v-372q110 9 167 58.5z" />
    <glyph glyph-name="Chi" unicode="&#x3a7;" horiz-adv-x="616" 
d="M628 0h-120l-202 277l-198 -277h-120l261 356l-253 348h120l193 -266l191 266h120l-254 -344z" />
    <glyph glyph-name="Psi" unicode="&#x3a8;" horiz-adv-x="800" 
d="M740 704v-252q0 -81 -34 -145.5t-99.5 -104.5t-158.5 -48v-154h-96v154q-139 13 -215.5 93t-76.5 205v252h104v-252q0 -182 188 -202v454h96v-454q96 10 142 60.5t46 141.5v252h104z" />
    <glyph glyph-name="uni03A9" unicode="&#x3a9;" horiz-adv-x="832" 
d="M556 92h220v-92h-304v164q90 23 147 79.5t57 148.5q0 65 -34.5 117t-94.5 81.5t-131 29.5t-131 -29.5t-94.5 -81.5t-34.5 -117q0 -92 56.5 -148t147.5 -80v-164h-304v92h220v9q-102 35 -165 113t-63 182q0 88 49.5 161.5t133.5 116t185 42.5t185 -42.5t133.5 -116
t49.5 -161.5q0 -105 -63.5 -183t-164.5 -112v-9z" />
    <glyph glyph-name="Iotadieresis" unicode="&#x3aa;" horiz-adv-x="272" 
d="M84 704h104v-704h-104v704zM0 896h92v-96h-92v96zM188 896h92v-96h-92v96z" />
    <glyph glyph-name="Upsilondieresis" unicode="&#x3ab;" horiz-adv-x="636" 
d="M524 704h116l-268 -436v-268h-104v268l-272 436h116l212 -333zM180 896h92v-96h-92v96zM368 896h92v-96h-92v96z" />
    <glyph glyph-name="alphatonos" unicode="&#x3ac;" horiz-adv-x="612" 
d="M609 18q-39 -30 -89 -30q-80 0 -107 64q-23 -27 -64 -45.5t-85 -18.5q-70 0 -124 34.5t-83 94t-29 131.5q0 71 29 130.5t85.5 94.5t133.5 35q37 0 71.5 -13t60.5 -35l20 36h72v-372q0 -48 40 -48q17 0 33 9zM400 132v241q-43 43 -120 43q-63 0 -105.5 -44.5t-42.5 -123.5
q0 -76 42 -122t106 -46q74 0 120 52zM264 620q9 34 12 84h84q-6 -48 -20.5 -88t-35.5 -64h-68q19 34 28 68z" />
    <glyph glyph-name="epsilontonos" unicode="&#x3ad;" horiz-adv-x="460" 
d="M447 76q-72 -88 -205 -88q-71 0 -118.5 22t-69.5 56t-22 73q0 42 24 73t61 44q-32 15 -52.5 42t-20.5 66q0 48 30 80.5t76.5 48t96.5 15.5q61 0 111 -21.5t85 -59.5l-77 -46q-50 43 -122 43q-41 0 -68.5 -18t-27.5 -51t27.5 -48t84.5 -15h80v-80h-84q-120 0 -120 -69
q0 -35 30 -53t86 -18q36 0 64.5 10t55.5 38zM252 620q9 34 12 84h84q-6 -48 -20.5 -88t-35.5 -64h-68q19 34 28 68z" />
    <glyph glyph-name="etatonos" unicode="&#x3ae;" horiz-adv-x="544" 
d="M435 451.5q49 -56.5 49 -143.5v-516h-100v504q0 62 -32 91t-84 29q-30 0 -57 -14.5t-47 -37.5v-364h-100v496h72l28 -52q21 31 54 47.5t74 16.5q94 0 143 -56.5zM275 620q9 34 12 84h84q-6 -48 -20.5 -88t-35.5 -64h-68q19 34 28 68z" />
    <glyph glyph-name="iotatonos" unicode="&#x3af;" horiz-adv-x="272" 
d="M191 -12q-61 0 -96 36.5t-35 103.5v368h100v-372q0 -21 11 -34.5t29 -13.5q20 0 39 12l39 -72q-39 -28 -87 -28zM96 620q9 34 12 84h84q-6 -48 -20.5 -88t-35.5 -64h-68q19 34 28 68z" />
    <glyph glyph-name="upsilondieresistonos" unicode="&#x3b0;" horiz-adv-x="532" 
d="M111 44.5q-51 56.5 -51 143.5v308h100v-296q0 -63 28 -91.5t76 -28.5q67 0 99.5 51.5t32.5 128.5q0 114 -52 202l85 46q67 -106 67 -248q0 -74 -24.5 -135.5t-77 -99t-130.5 -37.5q-102 0 -153 56.5zM224 660q9 34 12 84h88q-3 -46 -18.5 -86.5t-37.5 -65.5h-72
q19 34 28 68zM80 688h88v-96h-88v96zM352 688h88v-96h-88v96z" />
    <glyph glyph-name="alpha" unicode="&#x3b1;" horiz-adv-x="612" 
d="M609 18q-39 -30 -89 -30q-80 0 -107 64q-23 -27 -64 -45.5t-85 -18.5q-70 0 -124 34.5t-83 94t-29 131.5q0 71 29 130.5t85.5 94.5t133.5 35q37 0 71.5 -13t60.5 -35l20 36h72v-372q0 -48 40 -48q17 0 33 9zM400 132v241q-43 43 -120 43q-63 0 -105.5 -44.5t-42.5 -123.5
q0 -76 42 -122t106 -46q74 0 120 52z" />
    <glyph glyph-name="beta" unicode="&#x3b2;" horiz-adv-x="560" 
d="M498.5 306.5q33.5 -47.5 33.5 -106.5q0 -61 -30 -109t-82.5 -75.5t-119.5 -27.5q-83 0 -140 39v-235h-100v696q0 105 59.5 166.5t160.5 61.5q59 0 107.5 -26.5t76.5 -70.5t28 -95q0 -41 -21.5 -80.5t-70.5 -66.5q65 -23 98.5 -70.5zM389.5 112q38.5 32 38.5 88
q0 55 -41 87.5t-103 32.5h-64v80h52q49 0 82.5 28.5t33.5 91.5q0 45 -33.5 74.5t-82.5 29.5q-52 0 -82 -38.5t-30 -101.5v-359q54 -45 132 -45q59 0 97.5 32z" />
    <glyph glyph-name="gamma" unicode="&#x3b3;" horiz-adv-x="504" 
d="M419 243.5q-52 -135.5 -123 -253.5v-198h-100v222l-192 482h104l154 -388q44 88 79.5 190t58.5 198h96q-25 -117 -77 -252.5z" />
    <glyph glyph-name="delta" unicode="&#x3b4;" horiz-adv-x="556" 
d="M478 384q50 -58 50 -146q0 -70 -32.5 -127t-90.5 -90t-131 -33q-75 0 -131 33.5t-85.5 89.5t-29.5 121q0 82 49 142t133 81q-53 22 -81.5 52.5t-28.5 76.5q0 63 47.5 97.5t137.5 34.5q100 0 174 -49l-44 -73q-60 34 -131 34q-76 0 -76 -48q0 -25 32.5 -48t99.5 -52
q88 -38 138 -96zM351 100q34 20 53.5 55.5t19.5 80.5t-19.5 79.5t-53.5 53.5t-75 19q-61 0 -102.5 -42t-41.5 -110q0 -45 19 -81t52.5 -55.5t73.5 -19.5t74 20z" />
    <glyph glyph-name="epsilon" unicode="&#x3b5;" horiz-adv-x="460" 
d="M447 76q-72 -88 -205 -88q-71 0 -118.5 22t-69.5 56t-22 73q0 42 24 73t61 44q-32 15 -52.5 42t-20.5 66q0 48 30 80.5t76.5 48t96.5 15.5q61 0 111 -21.5t85 -59.5l-77 -46q-50 43 -122 43q-41 0 -68.5 -18t-27.5 -51t27.5 -48t84.5 -15h80v-80h-84q-120 0 -120 -69
q0 -35 30 -53t86 -18q36 0 64.5 10t55.5 38z" />
    <glyph glyph-name="zeta" unicode="&#x3b6;" horiz-adv-x="424" 
d="M201.5 452.5q-69.5 -88.5 -69.5 -188.5q0 -61 32 -99t88 -65l40 -20q64 -32 92 -60.5t28 -71.5q0 -32 -17 -65t-55 -72l-67 41q43 45 43 72q0 25 -17.5 40.5t-58.5 35.5l-48 24q-77 39 -120.5 94.5t-43.5 137.5q0 102 61 191.5t173 172.5h-222v84h372v-64
q-141 -99 -210.5 -187.5z" />
    <glyph glyph-name="eta" unicode="&#x3b7;" horiz-adv-x="544" 
d="M435 451.5q49 -56.5 49 -143.5v-516h-100v504q0 62 -32 91t-84 29q-30 0 -57 -14.5t-47 -37.5v-364h-100v496h72l28 -52q21 31 54 47.5t74 16.5q94 0 143 -56.5z" />
    <glyph glyph-name="theta" unicode="&#x3b8;" horiz-adv-x="564" 
d="M461.5 625.5q66.5 -90.5 66.5 -273.5t-66.5 -273.5t-181.5 -90.5q-111 0 -177.5 91t-66.5 273q0 184 66 274t178 90q115 0 181.5 -90.5zM181 570.5q-38 -53.5 -44 -170.5h290q-7 117 -46 170.5t-101 53.5q-61 0 -99 -53.5zM383 136.5q39 56.5 44 179.5h-290
q5 -124 43 -180t100 -56q64 0 103 56.5z" />
    <glyph glyph-name="iota" unicode="&#x3b9;" horiz-adv-x="272" 
d="M191 -12q-61 0 -96 36.5t-35 103.5v368h100v-372q0 -21 11 -34.5t29 -13.5q20 0 39 12l39 -72q-39 -28 -87 -28z" />
    <glyph glyph-name="kappa" unicode="&#x3ba;" horiz-adv-x="500" 
d="M500 0h-124l-212 220v-220h-100v496h100v-220l196 220h120l-226 -243z" />
    <glyph glyph-name="lambda" unicode="&#x3bb;" horiz-adv-x="504" 
d="M400 0l-147 387l-149 -387h-104l205 508l-33 80q-9 22 -23 31t-33 9q-20 0 -39 -12l-38 69q39 31 93 31q51 0 82 -31.5t58 -100.5l232 -584h-104z" />
    <glyph glyph-name="uni03BC" unicode="&#x3bc;" horiz-adv-x="604" 
d="M601 18q-39 -30 -89 -30q-83 0 -110 69q-20 -33 -56.5 -51t-77.5 -18q-61 0 -100 34v-230h-96v704h100v-296q0 -62 30 -91t78 -29q37 0 63 14t49 38v364h100v-372q0 -48 40 -48q17 0 33 9z" />
    <glyph glyph-name="nu" unicode="&#x3bd;" horiz-adv-x="492" 
d="M492 496q-24 -116 -79.5 -242t-136.5 -254h-64l-212 496h104l150 -367q98 183 142 367h96z" />
    <glyph glyph-name="xi" unicode="&#x3be;" horiz-adv-x="452" 
d="M405.5 29.5q26.5 -34.5 26.5 -69.5q0 -39 -18 -74.5t-58 -74.5l-68 42q24 26 34 44.5t10 42.5q0 21 -14 35t-54 33l-56 24q-72 29 -124 80.5t-52 119.5q0 125 112 167q-96 41 -96 141q0 78 56.5 127t159.5 49q96 0 172 -47l-42 -73q-59 36 -123 36q-57 0 -88 -23.5
t-31 -68.5q0 -44 36.5 -72t83.5 -28h112v-84h-120q-67 0 -97.5 -31t-30.5 -77q0 -47 30 -76t94 -56l56 -24q63 -28 89.5 -62.5z" />
    <glyph glyph-name="omicron" unicode="&#x3bf;" horiz-adv-x="568" 
d="M152.5 22q-58.5 34 -91.5 93.5t-33 132.5t33 132.5t91.5 93.5t131.5 34q75 0 133 -34t90.5 -93t32.5 -133t-32.5 -133t-90.5 -93t-133 -34q-73 0 -131.5 34zM362 102q35 22 54.5 60.5t19.5 85.5t-19.5 85.5t-54.5 60.5t-78 22t-78 -22t-54.5 -60.5t-19.5 -85.5
t19.5 -85.5t54.5 -60.5t78 -22t78 22z" />
    <glyph glyph-name="pi" unicode="&#x3c0;" horiz-adv-x="632" 
d="M620 17q-43 -29 -88 -29q-65 0 -100.5 34t-35.5 102v288h-188v-412h-100v412h-96v84h596v-84h-112v-280q0 -28 12.5 -42t35.5 -14q18 0 35 11z" />
    <glyph glyph-name="rho" unicode="&#x3c1;" horiz-adv-x="572" 
d="M428.5 472q55.5 -36 85.5 -95.5t30 -128.5q0 -71 -30 -130.5t-86 -94.5t-132 -35q-39 0 -74 14.5t-62 38.5v-249h-100v456q0 88 32.5 146.5t86.5 86t121 27.5q73 0 128.5 -36zM368 100q33 20 52.5 58t19.5 90q0 75 -41.5 121.5t-106.5 46.5q-62 0 -97 -44.5t-35 -115.5
v-116q53 -60 136 -60q39 0 72 20z" />
    <glyph glyph-name="sigma1" unicode="&#x3c2;" horiz-adv-x="496" 
d="M360 -76q0 25 -18 40t-58 32l-48 20q-93 39 -150.5 98t-57.5 150q0 74 32.5 129t87.5 85t120 30q75 0 131 -33t87 -89l-88 -47q-19 37 -53.5 57t-76.5 20q-58 0 -97 -38.5t-39 -97.5q0 -62 36.5 -103t111.5 -73l56 -24q66 -28 93 -57.5t27 -78.5q0 -31 -17 -63t-55 -70
l-67 41q43 45 43 72z" />
    <glyph glyph-name="sigma" unicode="&#x3c3;" horiz-adv-x="596" 
d="M584 412h-124q80 -51 80 -168q0 -73 -32.5 -131.5t-91 -91.5t-132.5 -33q-73 0 -131.5 33t-91.5 91.5t-33 131.5q0 71 32 128.5t90 90.5t134 33h300v-84zM362.5 101q34.5 21 54 58.5t19.5 84.5q0 71 -43 115.5t-109 44.5t-109 -44.5t-43 -115.5q0 -47 19.5 -84.5
t54 -58.5t78.5 -21t78.5 21z" />
    <glyph glyph-name="tau" unicode="&#x3c4;" horiz-adv-x="420" 
d="M252 412v-288q0 -48 40 -48q20 0 39 12l36 -67q-40 -33 -93 -33q-55 0 -88.5 34.5t-33.5 101.5v288h-140v84h396v-84h-156z" />
    <glyph glyph-name="upsilon" unicode="&#x3c5;" horiz-adv-x="532" 
d="M111 44.5q-51 56.5 -51 143.5v308h100v-296q0 -63 28 -91.5t76 -28.5q67 0 99.5 51.5t32.5 128.5q0 114 -52 202l85 46q67 -106 67 -248q0 -74 -24.5 -135.5t-77 -99t-130.5 -37.5q-102 0 -153 56.5z" />
    <glyph glyph-name="phi" unicode="&#x3c6;" horiz-adv-x="716" 
d="M603 75q-77 -73 -207 -85v-198h-96v198q-127 12 -195.5 85t-68.5 201q0 65 19.5 121t62.5 110l75 -43q-57 -83 -57 -184q0 -92 41 -144t123 -59v199q0 115 42.5 173.5t133.5 58.5q97 0 150.5 -62.5t53.5 -169.5q0 -128 -77 -201zM576 276q0 72 -25.5 106t-70.5 34
q-46 0 -65 -32.5t-19 -107.5v-198q180 16 180 198z" />
    <glyph glyph-name="chi" unicode="&#x3c7;" horiz-adv-x="504" 
d="M520 -208h-112l-157 274l-159 -274h-108l215 364l-195 340h112l139 -243l137 243h108l-193 -333z" />
    <glyph glyph-name="psi" unicode="&#x3c8;" horiz-adv-x="728" 
d="M628.5 81q-59.5 -78 -212.5 -91v-198h-96v197q-143 7 -201.5 67.5t-58.5 159.5v280h100v-264q0 -77 38.5 -111.5t121.5 -39.5v535h96v-533q69 8 106.5 35.5t51.5 70.5t14 107q0 54 -5 94.5t-17 105.5h95q27 -99 27 -200q0 -137 -59.5 -215z" />
    <glyph glyph-name="omega" unicode="&#x3c9;" horiz-adv-x="744" 
d="M708 248q0 -122 -48.5 -191t-147.5 -69q-51 0 -84.5 25t-53.5 74q-22 -48 -60 -73.5t-86 -25.5q-97 0 -144.5 72.5t-47.5 191.5q0 73 18.5 136.5t58.5 119.5l79 -45q-56 -89 -56 -211q0 -78 25.5 -125t74.5 -47q39 0 65.5 44.5t26.5 127.5v140h92v-144q0 -82 24 -125
t64 -43q53 0 76.5 41t23.5 127q0 125 -56 215l76 45q80 -113 80 -260z" />
    <glyph glyph-name="iotadieresis" unicode="&#x3ca;" horiz-adv-x="272" 
d="M191 -12q-61 0 -96 36.5t-35 103.5v368h100v-372q0 -21 11 -34.5t29 -13.5q20 0 39 12l39 -72q-39 -28 -87 -28zM-36 688h92v-96h-92v96zM152 688h92v-96h-92v96z" />
    <glyph glyph-name="upsilondieresis" unicode="&#x3cb;" horiz-adv-x="532" 
d="M111 44.5q-51 56.5 -51 143.5v308h100v-296q0 -63 28 -91.5t76 -28.5q67 0 99.5 51.5t32.5 128.5q0 114 -52 202l85 46q67 -106 67 -248q0 -74 -24.5 -135.5t-77 -99t-130.5 -37.5q-102 0 -153 56.5zM108 688h92v-96h-92v96zM296 688h92v-96h-92v96z" />
    <glyph glyph-name="omicrontonos" unicode="&#x3cc;" horiz-adv-x="568" 
d="M152.5 22q-58.5 34 -91.5 93.5t-33 132.5t33 132.5t91.5 93.5t131.5 34q75 0 133 -34t90.5 -93t32.5 -133t-32.5 -133t-90.5 -93t-133 -34q-73 0 -131.5 34zM362 102q35 22 54.5 60.5t19.5 85.5t-19.5 85.5t-54.5 60.5t-78 22t-78 -22t-54.5 -60.5t-19.5 -85.5
t19.5 -85.5t54.5 -60.5t78 -22t78 22zM276 620q9 34 12 84h84q-6 -48 -20.5 -88t-35.5 -64h-68q19 34 28 68z" />
    <glyph glyph-name="upsilontonos" unicode="&#x3cd;" horiz-adv-x="532" 
d="M111 44.5q-51 56.5 -51 143.5v308h100v-296q0 -63 28 -91.5t76 -28.5q67 0 99.5 51.5t32.5 128.5q0 114 -52 202l85 46q67 -106 67 -248q0 -74 -24.5 -135.5t-77 -99t-130.5 -37.5q-102 0 -153 56.5zM240 620q9 34 12 84h84q-6 -48 -20.5 -88t-35.5 -64h-68q19 34 28 68z
" />
    <glyph glyph-name="omegatonos" unicode="&#x3ce;" horiz-adv-x="744" 
d="M708 248q0 -122 -48.5 -191t-147.5 -69q-51 0 -84.5 25t-53.5 74q-22 -48 -60 -73.5t-86 -25.5q-97 0 -144.5 72.5t-47.5 191.5q0 73 18.5 136.5t58.5 119.5l79 -45q-56 -89 -56 -211q0 -78 25.5 -125t74.5 -47q39 0 65.5 44.5t26.5 127.5v140h92v-144q0 -82 24 -125
t64 -43q53 0 76.5 41t23.5 127q0 125 -56 215l76 45q80 -113 80 -260zM364 620q9 34 12 84h84q-6 -48 -20.5 -88t-35.5 -64h-68q19 34 28 68z" />
    <glyph glyph-name="uni0400" unicode="&#x400;" horiz-adv-x="588" 
d="M188 92h360v-92h-464v704h456v-92h-352v-208h300v-92h-300v-220zM158 912h108l108 -140v-4h-84z" />
    <glyph glyph-name="uni0401" unicode="&#x401;" horiz-adv-x="588" 
d="M188 92h360v-92h-464v704h456v-92h-352v-208h300v-92h-300v-220zM156 896h92v-96h-92v96zM344 896h92v-96h-92v96z" />
    <glyph glyph-name="uni0402" unicode="&#x402;" horiz-adv-x="776" 
d="M637.5 410q51.5 -30 79 -80.5t27.5 -109.5q0 -70 -29.5 -122.5t-80.5 -81t-114 -28.5q-42 0 -73 8.5t-62 30.5l48 82q33 -25 79 -25q58 0 93 35t35 101q0 34 -17 63.5t-47.5 47t-67.5 17.5q-93 0 -156 -72v-276h-104v612h-236v92h576v-92h-236v-236q31 30 73.5 47
t90.5 17q70 0 121.5 -30z" />
    <glyph glyph-name="uni0403" unicode="&#x403;" horiz-adv-x="524" 
d="M512 704v-92h-324v-612h-104v704h428zM212 772l108 140h108l-132 -144h-84v4z" />
    <glyph glyph-name="uni0404" unicode="&#x404;" horiz-adv-x="692" 
d="M675 143q-49 -74 -125 -114.5t-170 -40.5q-103 0 -182 49.5t-122.5 133t-43.5 181.5q0 100 43 183.5t122.5 132t182.5 48.5q97 0 172.5 -42.5t121.5 -114.5l-83 -49q-36 50 -91 80t-120 30q-92 0 -156.5 -59.5t-79.5 -156.5h336v-92h-338q8 -67 40 -119t83.5 -80.5
t114.5 -28.5q68 0 122.5 28.5t87.5 82.5z" />
    <glyph glyph-name="uni0405" unicode="&#x405;" horiz-adv-x="584" 
d="M140.5 23q-72.5 35 -113.5 94l87 55q28 -40 77.5 -64t112.5 -24q73 0 108.5 27.5t35.5 76.5q0 44 -32 70t-100 42l-68 16q-89 21 -144.5 68.5t-55.5 131.5q0 58 30.5 103.5t86 71t127.5 25.5q76 0 143.5 -30t104.5 -83l-87 -55q-26 34 -70 53t-91 19q-65 0 -100.5 -27
t-35.5 -73q0 -43 38.5 -68t117.5 -44l68 -16q176 -42 176 -200q0 -61 -32 -107t-90.5 -71.5t-133.5 -25.5q-87 0 -159.5 35z" />
    <glyph glyph-name="uni0406" unicode="&#x406;" horiz-adv-x="272" 
d="M84 704h104v-704h-104v704z" />
    <glyph glyph-name="uni0407" unicode="&#x407;" horiz-adv-x="272" 
d="M84 704h104v-704h-104v704zM-4 896h92v-96h-92v96zM184 896h92v-96h-92v96z" />
    <glyph glyph-name="uni0408" unicode="&#x408;" horiz-adv-x="500" 
d="M92 12.5q-52 24.5 -90 74.5l87 53q18 -27 50.5 -41.5t72.5 -14.5q52 0 84 32t32 88v500h104v-500q0 -64 -28 -113t-80 -76t-120 -27q-60 0 -112 24.5z" />
    <glyph glyph-name="uni0409" unicode="&#x409;" horiz-adv-x="1060" 
d="M925 407.5q54 -28.5 84.5 -78t30.5 -109.5q0 -61 -30 -111t-84 -79.5t-122 -29.5h-260v612h-248v-204q0 -160 -20 -251.5t-61 -130t-107 -38.5q-24 0 -54 7t-56 23l47 77q26 -15 55 -15q30 0 50 23t31 87.5t11 185.5v328h456v-268h156q67 0 121 -28.5zM896 128.5
q36 36.5 36 91.5t-36 91.5t-92 36.5h-156v-256h156q56 0 92 36.5z" />
    <glyph glyph-name="uni040A" unicode="&#x40a;" horiz-adv-x="1080" 
d="M952.5 377q50.5 -27 79 -73t28.5 -100q0 -56 -27.5 -102.5t-75.5 -74t-109 -27.5h-296v312h-364v-312h-104v704h104v-300h364v300h104v-300h184q62 0 112.5 -27zM919 125q33 33 33 79q0 43 -33 75.5t-83 32.5h-180v-220h180q50 0 83 33z" />
    <glyph glyph-name="uni040B" unicode="&#x40b;" horiz-adv-x="812" 
d="M643 411.5q50 -28.5 77.5 -78t27.5 -109.5v-224h-104v216q0 61 -36 96.5t-100 35.5q-53 0 -90.5 -20.5t-65.5 -59.5v-268h-104v612h-236v92h576v-92h-236v-247q62 75 176 75q65 0 115 -28.5z" />
    <glyph glyph-name="uni040C" unicode="&#x40c;" horiz-adv-x="656" 
d="M341 358l331 -358h-132l-288 308h-64v-308h-104v704h104v-300h71l269 300h128zM280 772l108 140h108l-132 -144h-84v4z" />
    <glyph glyph-name="uni040D" unicode="&#x40d;" horiz-adv-x="732" 
d="M592 704h56v-704h-104v493l-400 -493h-60v704h104v-502zM242 912h108l108 -140v-4h-84z" />
    <glyph glyph-name="uni040E" unicode="&#x40e;" horiz-adv-x="620" 
d="M628 704l-264 -572q-35 -76 -79.5 -110t-100.5 -34q-63 0 -111 38l45 73q28 -23 62 -23q33 0 55.5 19.5t44.5 68.5l3 6l-287 534h116l218 -428l190 428h108zM219 814.5q-36 34.5 -39 97.5h67q2 -30 18 -47.5t47 -17.5q29 0 44 17.5t17 47.5h67q-4 -63 -39 -97.5
t-89 -34.5q-57 0 -93 34.5z" />
    <glyph glyph-name="uni040F" unicode="&#x40f;" horiz-adv-x="732" 
d="M544 704h104v-704h-228l-24 -172h-60l-24 172h-228v704h104v-612h356v612z" />
    <glyph glyph-name="uni0410" unicode="&#x410;" horiz-adv-x="684" 
d="M568 0l-64 156h-327l-65 -156h-108l304 704h68l304 -704h-112zM216 248h250l-124 302z" />
    <glyph glyph-name="uni0411" unicode="&#x411;" horiz-adv-x="612" 
d="M489 376.5q49 -27.5 76 -73.5t27 -101t-27.5 -101t-76.5 -73.5t-109 -27.5h-295v704h452v-92h-347l1 -208h189q61 0 110 -27.5zM451 125q33 33 33 79q0 43 -33 75.5t-83 32.5h-178l1 -220h177q50 0 83 33z" />
    <glyph glyph-name="uni0412" unicode="&#x412;" horiz-adv-x="624" 
d="M562.5 306q29.5 -43 29.5 -98q0 -63 -29 -110t-79 -72.5t-112 -25.5h-288v704h256q59 0 108.5 -22.5t78.5 -66t29 -103.5q0 -44 -22 -79.5t-59 -61.5q58 -22 87.5 -65zM188 612v-212h148q53 0 82.5 30.5t29.5 77.5q0 43 -31.5 73.5t-80.5 30.5h-148zM452.5 121.5
q31.5 29.5 31.5 78.5q0 46 -34.5 77t-81.5 31h-180v-216h184q49 0 80.5 29.5z" />
    <glyph glyph-name="uni0413" unicode="&#x413;" horiz-adv-x="524" 
d="M512 704v-92h-324v-612h-104v704h428z" />
    <glyph glyph-name="uni0414" unicode="&#x414;" horiz-adv-x="724" 
d="M704 92v-264h-72l-28 172h-484l-28 -172h-72v264h61q35 28 58.5 96.5t24.5 155.5v360h464v-612h76zM188 92h336v520h-260v-256q-1 -173 -76 -264z" />
    <glyph glyph-name="uni0415" unicode="&#x415;" horiz-adv-x="588" 
d="M188 92h360v-92h-464v704h456v-92h-352v-208h300v-92h-300v-220z" />
    <glyph glyph-name="uni0416" unicode="&#x416;" horiz-adv-x="908" 
d="M634 356l290 -356h-128l-248 312h-44v-312h-104v312h-44l-244 -312h-128l284 354l-264 350h120l228 -300h48v300h104v-300h48l232 300h120z" />
    <glyph glyph-name="uni0417" unicode="&#x417;" horiz-adv-x="580" 
d="M516 298q32 -47 32 -102q0 -60 -32 -107t-91 -74t-137 -27q-186 0 -272 136l82 48q67 -92 190 -92q74 0 113 34.5t39 85.5q0 57 -47.5 84.5t-124.5 27.5h-80v92h80q71 0 109.5 30t38.5 82q0 49 -36.5 78.5t-103.5 29.5q-50 0 -92.5 -19t-70.5 -58l-81 49q45 63 105 91.5
t139 28.5q82 0 138 -26.5t83 -70t27 -95.5q0 -108 -100 -157q60 -22 92 -69z" />
    <glyph glyph-name="uni0418" unicode="&#x418;" horiz-adv-x="732" 
d="M592 704h56v-704h-104v493l-400 -493h-60v704h104v-502z" />
    <glyph glyph-name="uni0419" unicode="&#x419;" horiz-adv-x="732" 
d="M592 704h56v-704h-104v493l-400 -493h-60v704h104v-502zM287 814.5q-36 34.5 -39 97.5h67q2 -30 18 -47.5t47 -17.5q29 0 44 17.5t17 47.5h67q-4 -63 -39 -97.5t-89 -34.5q-57 0 -93 34.5z" />
    <glyph glyph-name="uni041A" unicode="&#x41a;" horiz-adv-x="656" 
d="M341 358l331 -358h-132l-288 308h-64v-308h-104v704h104v-300h71l269 300h128z" />
    <glyph glyph-name="uni041B" unicode="&#x41b;" horiz-adv-x="748" 
d="M664 0h-104v612h-264v-204q0 -160 -20 -251.5t-61 -130t-107 -38.5q-24 0 -54 7t-56 23l47 77q26 -15 55 -15q30 0 50 23t31 87.5t11 185.5v328h472v-704z" />
    <glyph glyph-name="uni041C" unicode="&#x41c;" horiz-adv-x="892" 
d="M808 704v-704h-100v450l-228 -450h-68l-228 449v-449h-100v704h80l282 -564l282 564h80z" />
    <glyph glyph-name="uni041D" unicode="&#x41d;" horiz-adv-x="740" 
d="M552 704h104v-704h-104v312h-364v-312h-104v704h104v-296h364v296z" />
    <glyph glyph-name="uni041E" unicode="&#x41e;" horiz-adv-x="792" 
d="M212.5 36.5q-83.5 48.5 -132 132t-48.5 183.5q0 102 48.5 185.5t131.5 131t184 47.5q102 0 185.5 -48t131 -131.5t47.5 -184.5q0 -99 -47.5 -182.5t-131 -132.5t-185.5 -49q-100 0 -183.5 48.5zM526.5 117.5q58.5 33.5 92 94.5t33.5 140q0 82 -33.5 142.5t-92 93
t-130.5 32.5t-130.5 -33t-92 -94t-33.5 -141t33.5 -141t92 -94t130.5 -33t130.5 33.5z" />
    <glyph glyph-name="uni041F" unicode="&#x41f;" horiz-adv-x="740" 
d="M656 704v-704h-104v608h-364v-608h-104v704h572z" />
    <glyph glyph-name="uni0420" unicode="&#x420;" horiz-adv-x="592" 
d="M456 673.5q54 -30.5 85 -81.5t31 -112t-30 -112.5t-84 -81.5t-122 -30h-148v-256h-104v704h252q66 0 120 -30.5zM427.5 386.5q36.5 38.5 36.5 93.5t-36.5 93.5t-91.5 38.5h-148v-264h148q55 0 91.5 38.5z" />
    <glyph glyph-name="uni0421" unicode="&#x421;" horiz-adv-x="684" 
d="M192 37.5q-77 49.5 -118.5 132.5t-41.5 182q0 101 41.5 184t118.5 131.5t180 48.5q100 0 175.5 -45t121.5 -122l-85 -51q-35 56 -89.5 89t-122.5 33q-69 0 -121.5 -34.5t-81.5 -95t-29 -138.5t29 -138.5t81.5 -95t121.5 -34.5q68 0 121.5 31t86.5 90l87 -49
q-47 -81 -122 -124.5t-173 -43.5q-103 0 -180 49.5z" />
    <glyph glyph-name="uni0422" unicode="&#x422;" 
d="M588 704v-92h-236v-612h-104v612h-236v92h576z" />
    <glyph glyph-name="uni0423" unicode="&#x423;" horiz-adv-x="620" 
d="M628 704l-264 -572q-35 -76 -79.5 -110t-100.5 -34q-63 0 -111 38l45 73q28 -23 62 -23q33 0 55.5 19.5t44.5 68.5l3 6l-287 534h116l218 -428l190 428h108z" />
    <glyph glyph-name="uni0424" unicode="&#x424;" horiz-adv-x="808" 
d="M737 209q-39 -65 -111.5 -102t-169.5 -39v-80h-104v80q-97 2 -169.5 38.5t-111.5 102t-39 151.5t39 151t111.5 102t169.5 39v64h104v-64q97 -1 169.5 -37.5t111.5 -102t39 -152.5q0 -86 -39 -151zM195 212.5q55 -51.5 157 -52.5v400q-102 -1 -157 -52.5t-55 -147.5
t55 -147.5zM613 213q55 52 55 147q0 96 -55 147.5t-157 52.5v-400q102 1 157 53z" />
    <glyph glyph-name="uni0425" unicode="&#x425;" horiz-adv-x="616" 
d="M628 0h-120l-202 277l-198 -277h-120l261 356l-253 348h120l193 -266l191 266h120l-254 -344z" />
    <glyph glyph-name="uni0426" unicode="&#x426;" horiz-adv-x="744" 
d="M724 92v-264h-68l-32 172h-540v704h104v-612h356v612h104v-612h76z" />
    <glyph glyph-name="uni0427" unicode="&#x427;" horiz-adv-x="644" 
d="M560 704v-704h-104v327q-33 -37 -75 -54t-97 -17q-65 0 -115 28.5t-77.5 78t-27.5 109.5v232h104v-224q0 -61 36 -96.5t100 -35.5q51 0 87.5 19t64.5 56v281h104z" />
    <glyph glyph-name="uni0428" unicode="&#x428;" horiz-adv-x="1040" 
d="M852 704h104v-704h-872v704h104v-612h280v612h104v-612h280v612z" />
    <glyph glyph-name="uni0429" unicode="&#x429;" horiz-adv-x="1056" 
d="M1036 92v-264h-72l-32 172h-848v704h104v-612h280v612h104v-612h280v612h104v-612h80z" />
    <glyph glyph-name="uni042A" unicode="&#x42a;" horiz-adv-x="728" 
d="M593 407.5q54 -28.5 84.5 -78t30.5 -109.5q0 -61 -30 -111t-84 -79.5t-122 -29.5h-272v612h-188v92h292v-268h168q67 0 121 -28.5zM564 128.5q36 36.5 36 91.5t-36 91.5t-92 36.5h-168v-256h168q56 0 92 36.5z" />
    <glyph glyph-name="uni042B" unicode="&#x42b;" horiz-adv-x="872" 
d="M477 407.5q54 -28.5 84.5 -78t30.5 -109.5q0 -61 -30 -111t-84 -79.5t-122 -29.5h-272v704h104v-268h168q67 0 121 -28.5zM684 704h104v-704h-104v704zM448 128.5q36 36.5 36 91.5t-36 91.5t-92 36.5h-168v-256h168q56 0 92 36.5z" />
    <glyph glyph-name="uni042C" unicode="&#x42c;" horiz-adv-x="612" 
d="M477 407.5q54 -28.5 84.5 -78t30.5 -109.5q0 -61 -30 -111t-84 -79.5t-122 -29.5h-272v704h104v-268h168q67 0 121 -28.5zM448 128.5q36 36.5 36 91.5t-36 91.5t-92 36.5h-168v-256h168q56 0 92 36.5z" />
    <glyph glyph-name="uni042D" unicode="&#x42d;" horiz-adv-x="696" 
d="M497.5 667.5q79.5 -48.5 123 -132t43.5 -183.5q0 -98 -43.5 -181.5t-123 -133t-181.5 -49.5q-96 0 -172.5 40.5t-125.5 114.5l87 52q33 -54 87.5 -82.5t123.5 -28.5q62 0 113.5 29t84 80.5t40.5 118.5h-338v92h336q-10 63 -43 112.5t-83 76.5t-110 27q-66 0 -121 -29.5
t-90 -78.5l-86 48q48 72 124 114t173 42q102 0 181.5 -48.5z" />
    <glyph glyph-name="uni042E" unicode="&#x42e;" horiz-adv-x="1028" 
d="M831.5 668.5q77.5 -47.5 121 -130.5t43.5 -186t-43.5 -186t-121 -130.5t-175.5 -47.5q-90 0 -164 41.5t-120 115.5t-54 167h-130v-312h-104v704h104v-296h131q11 89 57 159t118.5 109.5t161.5 39.5q98 0 175.5 -47.5zM775 116q53 32 83 93t30 143q0 83 -30 143.5
t-82.5 92.5t-119.5 32q-66 0 -119 -32t-83 -93t-30 -143t30 -143t83 -93t119 -32t119 32z" />
    <glyph glyph-name="uni042F" unicode="&#x42f;" horiz-adv-x="636" 
d="M552 0h-104v276h-117l-199 -276h-124l218 297q-69 22 -109.5 73t-40.5 122q0 61 30.5 109t85.5 75.5t128 27.5h232v-704zM448 368v244h-128q-61 0 -98.5 -33t-37.5 -87t38 -89t98 -35h128z" />
    <glyph glyph-name="uni0430" unicode="&#x430;" horiz-adv-x="492" 
d="M384.5 457q47.5 -51 47.5 -129v-328h-68l-29 55q-26 -32 -66 -49.5t-81 -17.5q-70 0 -115 39t-45 109q0 65 55 110t165 62l84 13v3q0 46 -25.5 71t-78.5 25q-67 0 -121 -48l-69 47q37 46 90 67.5t108 21.5q101 0 148.5 -51zM272.5 91.5q34.5 15.5 59.5 40.5v110l-60 -10
q-75 -12 -109.5 -33t-34.5 -63q0 -25 19.5 -42.5t52.5 -17.5q38 0 72.5 15.5z" />
    <glyph glyph-name="uni0431" unicode="&#x431;" horiz-adv-x="568" 
d="M477.5 418q62.5 -66 62.5 -178q0 -75 -33 -132.5t-89.5 -88.5t-125.5 -31q-127 0 -193.5 83.5t-66.5 232.5q0 127 29.5 209t96.5 128t182 59l176 20l12 -88l-180 -24q-77 -10 -122.5 -33.5t-67.5 -66t-25 -112.5q25 40 71 64t100 24q111 0 173.5 -66zM393.5 122
q42.5 42 42.5 118q0 71 -39.5 111.5t-104.5 40.5q-44 0 -84.5 -19t-71.5 -55v-26q0 -106 41.5 -159t110.5 -53q63 0 105.5 42z" />
    <glyph glyph-name="uni0432" unicode="&#x432;" horiz-adv-x="516" 
d="M463 216q21 -30 21 -68q0 -67 -45 -107.5t-111 -40.5h-264v496h240q65 0 108.5 -36.5t43.5 -99.5q0 -64 -54 -98q40 -16 61 -46zM164 416v-128h124q32 0 50 18.5t18 45.5q0 28 -19 46t-49 18h-124zM365 97q19 17 19 47t-19.5 47t-52.5 17h-148v-128h152q30 0 49 17z" />
    <glyph glyph-name="uni0433" unicode="&#x433;" horiz-adv-x="400" 
d="M392 496v-84h-228v-412h-100v496h328z" />
    <glyph glyph-name="uni0434" unicode="&#x434;" horiz-adv-x="596" 
d="M580 84v-224h-60l-28 140h-388l-28 -140h-60v224h56q30 31 39 72.5t9 135.5v204h392v-412h68zM207 162.5q-13 -48.5 -42 -78.5h247v328h-192v-116q0 -85 -13 -133.5z" />
    <glyph glyph-name="uni0435" unicode="&#x435;" horiz-adv-x="532" 
d="M178 113.5q42 -37.5 102 -37.5q43 0 80 18.5t59 53.5l74 -44q-31 -53 -88 -84.5t-133 -31.5q-68 0 -123.5 32.5t-88 91.5t-32.5 136q0 72 30 131.5t86.5 94t131.5 34.5q67 0 118 -32.5t78.5 -85.5t27.5 -114v-52h-368q4 -73 46 -110.5zM182.5 390.5
q-35.5 -29.5 -46.5 -86.5h262q-8 51 -42 83.5t-88 32.5q-50 0 -85.5 -29.5z" />
    <glyph glyph-name="uni0436" unicode="&#x436;" horiz-adv-x="720" 
d="M521 255l199 -255h-112l-160 212h-40v-212h-96v212h-40l-160 -212h-112l201 257l-197 239h108l160 -200h40v200h96v-200h40l160 200h108z" />
    <glyph glyph-name="uni0437" unicode="&#x437;" horiz-adv-x="456" 
d="M399 213.5q25 -31.5 25 -77.5q0 -37 -22 -70.5t-70 -55.5t-120 -22q-125 0 -200 87l71 49q25 -27 56 -39.5t77 -12.5t75 18t29 50q0 39 -31 55.5t-89 16.5h-56v80h52q55 0 79.5 17t24.5 51q0 32 -27.5 48t-68.5 16q-68 0 -115 -43l-76 46q34 39 83.5 60t111.5 21
q85 0 140.5 -37.5t55.5 -106.5q0 -37 -19 -64t-51 -42q40 -13 65 -44.5z" />
    <glyph glyph-name="uni0438" unicode="&#x438;" horiz-adv-x="564" 
d="M436 496h64v-496h-96v324l-284 -324h-56v496h96v-326z" />
    <glyph glyph-name="uni0439" unicode="&#x439;" horiz-adv-x="564" 
d="M436 496h64v-496h-96v324l-284 -324h-56v496h96v-326zM199 606.5q-36 34.5 -39 97.5h67q2 -30 18 -47.5t47 -17.5q29 0 44 17.5t17 47.5h67q-4 -63 -39 -97.5t-89 -34.5q-57 0 -93 34.5z" />
    <glyph glyph-name="uni043A" unicode="&#x43a;" horiz-adv-x="524" 
d="M316 255l208 -255h-120l-172 212h-68v-212h-100v496h100v-200h68l176 200h112z" />
    <glyph glyph-name="uni043B" unicode="&#x43b;" horiz-adv-x="572" 
d="M508 0h-100v412h-176v-116q0 -122 -17 -189t-51.5 -93t-91.5 -26q-46 0 -84 22l35 66q21 -8 41 -8q24 0 39.5 15.5t24 61t8.5 131.5v220h372v-496z" />
    <glyph glyph-name="uni043C" unicode="&#x43c;" horiz-adv-x="656" 
d="M512 496h80v-496h-96v282l-144 -282h-52l-140 277v-277h-96v496h80l184 -383z" />
    <glyph glyph-name="uni043D" unicode="&#x43d;" horiz-adv-x="556" 
d="M392 496h100v-496h-100v216h-228v-216h-100v496h100v-196h228v196z" />
    <glyph glyph-name="uni043E" unicode="&#x43e;" horiz-adv-x="568" 
d="M152.5 22q-58.5 34 -91.5 93.5t-33 132.5t33 132.5t91.5 93.5t131.5 34q75 0 133 -34t90.5 -93t32.5 -133t-32.5 -133t-90.5 -93t-133 -34q-73 0 -131.5 34zM362 102q35 22 54.5 60.5t19.5 85.5t-19.5 85.5t-54.5 60.5t-78 22t-78 -22t-54.5 -60.5t-19.5 -85.5
t19.5 -85.5t54.5 -60.5t78 -22t78 22z" />
    <glyph glyph-name="uni043F" unicode="&#x43f;" horiz-adv-x="556" 
d="M492 496v-496h-100v412h-228v-412h-100v496h428z" />
    <glyph glyph-name="uni0440" unicode="&#x440;" horiz-adv-x="568" 
d="M425 473.5q55 -34.5 85 -94t30 -131.5q0 -71 -30 -130.5t-87.5 -94.5t-134.5 -35q-69 0 -124 42v-238h-100v704h72l26 -49q22 29 58 45t80 16q70 0 125 -34.5zM359.5 99.5q34.5 19.5 55.5 57.5t21 91q0 51 -20 89t-55 58.5t-77 20.5q-74 0 -120 -52v-241q43 -43 120 -43
q41 0 75.5 19.5z" />
    <glyph glyph-name="uni0441" unicode="&#x441;" horiz-adv-x="516" 
d="M152.5 19.5q-57.5 31.5 -91 90.5t-33.5 138t33.5 138t90 90.5t124.5 31.5q75 0 132 -33t89 -90l-87 -46q-21 37 -56 57t-78 20q-62 0 -103 -45t-41 -123q0 -82 43 -125t105 -43q42 0 75 19.5t52 54.5l86 -47q-33 -55 -88.5 -87t-124.5 -32q-70 0 -127.5 31.5z" />
    <glyph glyph-name="uni0442" unicode="&#x442;" horiz-adv-x="468" 
d="M456 496v-84h-164v-412h-100v412h-164v84h428z" />
    <glyph glyph-name="uni0443" unicode="&#x443;" horiz-adv-x="508" 
d="M404 496h104l-312 -704h-92l104 234l-208 470h104l152 -359z" />
    <glyph glyph-name="uni0444" unicode="&#x444;" horiz-adv-x="712" 
d="M611 67.5q-73 -67.5 -207 -77.5v-198h-96v198q-133 10 -206.5 77.5t-73.5 180.5t73 180t207 78v198h96v-198q134 -10 207 -77.5t73 -180.5t-73 -180.5zM176.5 129q44.5 -45 131.5 -52v342q-87 -7 -131.5 -52t-44.5 -119t44.5 -119zM536 128.5q44 44.5 44 119.5
q0 76 -44 120t-132 51v-342q88 7 132 51.5z" />
    <glyph glyph-name="uni0445" unicode="&#x445;" horiz-adv-x="472" 
d="M480 0h-116l-130 173l-126 -173h-116l186 247l-186 249h116l128 -171l124 171h116l-184 -245z" />
    <glyph glyph-name="uni0446" unicode="&#x446;" horiz-adv-x="572" 
d="M488 84h68v-224h-60l-28 140h-404v496h100v-412h224v412h100v-412z" />
    <glyph glyph-name="uni0447" unicode="&#x447;" horiz-adv-x="516" 
d="M452 496v-496h-100v204q-22 -24 -52.5 -36t-63.5 -12q-82 0 -133 48t-51 148v144h100v-136q0 -112 108 -112q56 0 92 36v212h100z" />
    <glyph glyph-name="uni0448" unicode="&#x448;" horiz-adv-x="780" 
d="M616 496h100v-496h-652v496h100v-412h176v412h100v-412h176v412z" />
    <glyph glyph-name="uni0449" unicode="&#x449;" horiz-adv-x="800" 
d="M716 84h68v-224h-60l-32 140h-628v496h100v-412h176v412h100v-412h176v412h100v-412z" />
    <glyph glyph-name="uni044A" unicode="&#x44a;" horiz-adv-x="556" 
d="M492.5 265.5q43.5 -42.5 43.5 -109.5t-44 -111.5t-128 -44.5h-232v412h-124v84h224v-188h132q85 0 128.5 -42.5zM416 104.5q20 20.5 20 51.5t-20 51.5t-52 20.5h-132v-144h132q32 0 52 20.5z" />
    <glyph glyph-name="uni044B" unicode="&#x44b;" horiz-adv-x="692" 
d="M416.5 265.5q43.5 -42.5 43.5 -109.5t-44 -111.5t-128 -44.5h-224v496h100v-188h124q85 0 128.5 -42.5zM528 496h100v-496h-100v496zM340 104.5q20 20.5 20 51.5t-20 51.5t-52 20.5h-124v-144h124q32 0 52 20.5z" />
    <glyph glyph-name="uni044C" unicode="&#x44c;" horiz-adv-x="488" 
d="M424.5 265.5q43.5 -42.5 43.5 -109.5t-44 -111.5t-128 -44.5h-232v496h100v-188h132q85 0 128.5 -42.5zM348 104.5q20 20.5 20 51.5t-20 51.5t-52 20.5h-132v-144h132q32 0 52 20.5z" />
    <glyph glyph-name="uni044D" unicode="&#x44d;" horiz-adv-x="524" 
d="M370.5 476.5q57.5 -31.5 91.5 -90.5t34 -138q0 -80 -34 -139t-92.5 -90t-129.5 -31q-69 0 -125 32t-90 87l84 47q22 -35 55.5 -54.5t75.5 -19.5q60 0 100.5 33t49.5 99h-218v80h216q-10 59 -48 91.5t-96 32.5q-42 0 -79.5 -20t-59.5 -57l-85 46q34 60 93.5 91.5
t130.5 31.5q69 0 126.5 -31.5z" />
    <glyph glyph-name="uni044E" unicode="&#x44e;" horiz-adv-x="772" 
d="M629.5 474q55.5 -34 85 -93t29.5 -133t-29.5 -133t-85 -93t-129.5 -34q-66 0 -118 28t-84 78t-40 114h-94v-208h-100v496h100v-204h95q13 96 78 156t163 60q74 0 129.5 -34zM602.5 127q37.5 47 37.5 121t-37.5 121t-102.5 47t-102.5 -47t-37.5 -121t37.5 -121t102.5 -47
t102.5 47z" />
    <glyph glyph-name="uni044F" unicode="&#x44f;" horiz-adv-x="512" 
d="M448 496v-496h-100v176h-99l-121 -176h-116l140 194q-47 17 -75.5 55t-28.5 87q0 43 21.5 79.5t62 58.5t96.5 22h220zM348 260v152h-124q-32 0 -54 -22.5t-22 -53.5t22 -53.5t54 -22.5h124z" />
    <glyph glyph-name="uni0450" unicode="&#x450;" horiz-adv-x="532" 
d="M178 113.5q42 -37.5 102 -37.5q43 0 80 18.5t59 53.5l74 -44q-31 -53 -88 -84.5t-133 -31.5q-68 0 -123.5 32.5t-88 91.5t-32.5 136q0 72 30 131.5t86.5 94t131.5 34.5q67 0 118 -32.5t78.5 -85.5t27.5 -114v-52h-368q4 -73 46 -110.5zM182.5 390.5
q-35.5 -29.5 -46.5 -86.5h262q-8 51 -42 83.5t-88 32.5q-50 0 -85.5 -29.5zM126 704h108l108 -140v-4h-84z" />
    <glyph glyph-name="uni0451" unicode="&#x451;" horiz-adv-x="532" 
d="M178 113.5q42 -37.5 102 -37.5q43 0 80 18.5t59 53.5l74 -44q-31 -53 -88 -84.5t-133 -31.5q-68 0 -123.5 32.5t-88 91.5t-32.5 136q0 72 30 131.5t86.5 94t131.5 34.5q67 0 118 -32.5t78.5 -85.5t27.5 -114v-52h-368q4 -73 46 -110.5zM182.5 390.5
q-35.5 -29.5 -46.5 -86.5h262q-8 51 -42 83.5t-88 32.5q-50 0 -85.5 -29.5zM124 688h92v-96h-92v96zM312 688h92v-96h-92v96z" />
    <glyph glyph-name="uni0452" unicode="&#x452;" horiz-adv-x="544" 
d="M435 451.5q49 -56.5 49 -143.5v-376q0 -67 -37 -107.5t-99 -40.5q-52 0 -91 25l43 74q17 -11 36 -11q23 0 35.5 14t12.5 42v368q0 60 -30.5 90t-81.5 30q-62 0 -108 -52v-364h-100v572h-64v60h64v72h100v-72h132v-60h-132v-128q21 31 54 47.5t74 16.5q94 0 143 -56.5z
" />
    <glyph glyph-name="uni0453" unicode="&#x453;" horiz-adv-x="400" 
d="M392 496v-84h-228v-412h-100v496h328zM164 564l108 140h108l-132 -144h-84v4z" />
    <glyph glyph-name="uni0454" unicode="&#x454;" horiz-adv-x="524" 
d="M359.5 99.5q33.5 19.5 55.5 54.5l84 -47q-34 -55 -90 -87t-125 -32q-71 0 -129.5 31t-92.5 90t-34 139q0 79 34 138t91.5 90.5t126.5 31.5q71 0 130.5 -31.5t93.5 -91.5l-85 -46q-22 37 -59.5 57t-79.5 20q-58 0 -96 -32.5t-48 -91.5h216v-80h-218q9 -66 49.5 -99
t100.5 -33q42 0 75.5 19.5z" />
    <glyph glyph-name="uni0455" unicode="&#x455;" horiz-adv-x="456" 
d="M110 11q-50 23 -87 75l74 46q28 -31 59 -45.5t76 -14.5q46 0 69 17t23 43q0 27 -23.5 45t-80.5 31l-52 12q-60 14 -94 50.5t-34 89.5q0 70 52.5 109t135.5 39q59 0 110 -22t83 -62l-75 -46q-49 46 -126 46q-35 0 -55.5 -15.5t-20.5 -40.5t19.5 -40.5t68.5 -27.5l52 -12
q77 -18 110.5 -55.5t33.5 -96.5q0 -43 -25.5 -77t-71 -52.5t-103.5 -18.5q-68 0 -118 23z" />
    <glyph glyph-name="uni0456" unicode="&#x456;" horiz-adv-x="228" 
d="M64 496h100v-496h-100v496zM60 704h104v-100h-104v100z" />
    <glyph glyph-name="uni0457" unicode="&#x457;" horiz-adv-x="228" 
d="M64 496h100v-496h-100v496zM-28 688h92v-96h-92v96zM160 688h92v-96h-92v96z" />
    <glyph glyph-name="uni0458" unicode="&#x458;" horiz-adv-x="228" 
d="M16 -128q23 0 35.5 14t12.5 42v568h100v-564q0 -67 -37 -107.5t-99 -40.5q-52 0 -91 25l43 74q17 -11 36 -11zM60 704h104v-100h-104v100z" />
    <glyph glyph-name="uni0459" unicode="&#x459;" horiz-adv-x="832" 
d="M768.5 265.5q43.5 -42.5 43.5 -109.5t-44 -111.5t-128 -44.5h-232v412h-176v-116q0 -122 -17 -189t-51.5 -93t-91.5 -26q-46 0 -84 22l35 66q21 -8 41 -8q24 0 39.5 15.5t24 61t8.5 131.5v220h372v-188h132q85 0 128.5 -42.5zM692 104.5q20 20.5 20 51.5t-20 51.5
t-52 20.5h-132v-144h132q32 0 52 20.5z" />
    <glyph glyph-name="uni045A" unicode="&#x45a;" horiz-adv-x="788" 
d="M724.5 259q43.5 -41 43.5 -107q0 -67 -43.5 -109.5t-128.5 -42.5h-224v220h-208v-220h-100v496h100v-196h208v196h100v-196h124q85 0 128.5 -41zM648.5 103q19.5 19 19.5 49t-19.5 49t-52.5 19h-124v-136h124q33 0 52.5 19z" />
    <glyph glyph-name="uni045B" unicode="&#x45b;" horiz-adv-x="544" 
d="M435 451.5q49 -56.5 49 -143.5v-308h-100v296q0 60 -30.5 90t-81.5 30q-62 0 -108 -52v-364h-100v572h-64v60h64v72h100v-72h132v-60h-132v-128q21 31 54 47.5t74 16.5q94 0 143 -56.5z" />
    <glyph glyph-name="uni045C" unicode="&#x45c;" horiz-adv-x="524" 
d="M316 255l208 -255h-120l-172 212h-68v-212h-100v496h100v-200h68l176 200h112zM212 564l108 140h108l-132 -144h-84v4z" />
    <glyph glyph-name="uni045D" unicode="&#x45d;" horiz-adv-x="564" 
d="M436 496h64v-496h-96v324l-284 -324h-56v496h96v-326zM154 704h108l108 -140v-4h-84z" />
    <glyph glyph-name="uni045E" unicode="&#x45e;" horiz-adv-x="508" 
d="M404 496h104l-312 -704h-92l104 234l-208 470h104l152 -359zM163 606.5q-36 34.5 -39 97.5h67q2 -30 18 -47.5t47 -17.5q29 0 44 17.5t17 47.5h67q-4 -63 -39 -97.5t-89 -34.5q-57 0 -93 34.5z" />
    <glyph glyph-name="uni045F" unicode="&#x45f;" horiz-adv-x="552" 
d="M388 496h100v-496h-168l-20 -140h-52l-20 140h-164v496h100v-412h224v412z" />
    <glyph glyph-name="uni0490" unicode="&#x490;" horiz-adv-x="520" 
d="M446 860h66v-248h-324v-612h-104v704h334z" />
    <glyph glyph-name="uni0491" unicode="&#x491;" horiz-adv-x="400" 
d="M336 620h56v-208h-228v-412h-100v496h248z" />
    <glyph glyph-name="uni0492" unicode="&#x492;" horiz-adv-x="540" 
d="M528 612h-324v-208h228v-92h-228v-312h-104v312h-100v92h100v300h428v-92z" />
    <glyph glyph-name="uni0493" unicode="&#x493;" horiz-adv-x="400" 
d="M392 412h-228v-136h172v-84h-172v-192h-100v192h-52v84h52v220h328v-84z" />
    <glyph glyph-name="uni0496" unicode="&#x496;" horiz-adv-x="960" 
d="M849 92h131v-264h-68l-32 172h-84l-248 312h-44v-312h-104v312h-44l-244 -312h-128l284 354l-264 350h120l228 -300h48v300h104v-300h48l232 300h120l-270 -348z" />
    <glyph glyph-name="uni0497" unicode="&#x497;" horiz-adv-x="756" 
d="M654 84h86v-224h-60l-28 140h-48v5l-156 207h-40v-212h-96v212h-40l-160 -212h-112l201 257l-197 239h108l160 -200h40v200h96v-200h40l160 200h108l-195 -241z" />
    <glyph glyph-name="uni049A" unicode="&#x49a;" horiz-adv-x="672" 
d="M587 92h105v-264h-72l-28 172h-52l-288 308h-64v-308h-104v704h104v-300h71l269 300h128l-315 -346z" />
    <glyph glyph-name="uni049B" unicode="&#x49b;" horiz-adv-x="560" 
d="M456 84h88v-224h-60l-28 140h-52l-172 212h-68v-212h-100v496h100v-200h68l176 200h112l-204 -241z" />
    <glyph glyph-name="uni049C" unicode="&#x49c;" horiz-adv-x="656" 
d="M410 377l262 -377h-124l-224 324h-8v-164h-64v164h-64v-324h-104v704h104v-288h64v148h64v-148h8l216 288h120z" />
    <glyph glyph-name="uni049D" unicode="&#x49d;" horiz-adv-x="528" 
d="M416 0l-145 208h-3v-116h-60v116h-44v-208h-100v496h100v-200h44v108h60v-108h3l145 200h108l-179 -244l183 -252h-112z" />
    <glyph glyph-name="uni04A2" unicode="&#x4a2;" horiz-adv-x="752" 
d="M656 92h76v-264h-68l-32 172h-80v312h-364v-312h-104v704h104v-296h364v296h104v-612z" />
    <glyph glyph-name="uni04A3" unicode="&#x4a3;" horiz-adv-x="576" 
d="M492 84h68v-224h-60l-28 140h-80v216h-228v-216h-100v496h100v-196h228v196h100v-412z" />
    <glyph glyph-name="uni04AE" unicode="&#x4ae;" horiz-adv-x="636" 
d="M524 704h116l-268 -436v-268h-104v268l-272 436h116l212 -333z" />
    <glyph glyph-name="uni04AF" unicode="&#x4af;" horiz-adv-x="516" 
d="M412 496h104l-208 -496v-208h-100v208l-208 496h104l156 -391z" />
    <glyph glyph-name="uni04B0" unicode="&#x4b0;" horiz-adv-x="636" 
d="M372 268v-39h134v-64h-134v-165h-104v165h-150v64h150v39l-272 436h116l212 -333l200 333h116z" />
    <glyph glyph-name="uni04B1" unicode="&#x4b1;" horiz-adv-x="516" 
d="M308 0v-36h120v-60h-120v-112h-100v112h-112v60h112v36l-208 496h104l156 -391l152 391h104z" />
    <glyph glyph-name="uni04B2" unicode="&#x4b2;" horiz-adv-x="636" 
d="M561 92h95v-264h-68l-32 172h-48l-202 277l-198 -277h-120l261 356l-253 348h120l193 -266l191 266h120l-254 -344z" />
    <glyph glyph-name="uni04B3" unicode="&#x4b3;" horiz-adv-x="500" 
d="M417 84h75v-224h-60l-28 140h-40l-130 173l-126 -173h-116l186 247l-186 249h116l128 -171l124 171h116l-184 -245z" />
    <glyph glyph-name="uni04B8" unicode="&#x4b8;" horiz-adv-x="644" 
d="M560 704v-704h-104v327q-47 -55 -120 -67v-152h-64v148q-62 3 -109.5 32.5t-73 77.5t-25.5 106v232h104v-224q0 -53 27 -87t77 -42v165h64v-166q74 11 120 73v281h104z" />
    <glyph glyph-name="uni04B9" unicode="&#x4b9;" horiz-adv-x="516" 
d="M452 496v-496h-100v204q-29 -30 -68 -41v-123h-60v116q-77 4 -124.5 52.5t-47.5 143.5v144h100v-136q0 -92 72 -108v100h60v-102q38 4 68 34v212h100z" />
    <glyph glyph-name="uni04BA" unicode="&#x4ba;" horiz-adv-x="648" 
d="M475 419.5q50 -28.5 77.5 -78t27.5 -109.5v-232h-104v224q0 61 -36 96.5t-100 35.5q-51 0 -87.5 -19t-64.5 -56v-281h-104v704h104v-327q33 37 75 54t97 17q65 0 115 -28.5z" />
    <glyph glyph-name="uni04BB" unicode="&#x4bb;" horiz-adv-x="544" 
d="M435 451.5q49 -56.5 49 -143.5v-308h-100v296q0 60 -30.5 90t-81.5 30q-62 0 -108 -52v-364h-100v704h100v-260q21 31 54 47.5t74 16.5q94 0 143 -56.5z" />
    <glyph glyph-name="uni04C0" unicode="&#x4c0;" horiz-adv-x="272" 
d="M84 704h104v-704h-104v704z" />
    <glyph glyph-name="uni04CF" unicode="&#x4cf;" horiz-adv-x="228" 
d="M64 704h100v-704h-100v704z" />
    <glyph glyph-name="uni04D8" unicode="&#x4d8;" horiz-adv-x="732" 
d="M541 669q77 -47 118 -130t41 -187q0 -98 -41.5 -181.5t-117.5 -133t-173 -49.5q-94 0 -170.5 45.5t-121 128t-44.5 190.5v40h558q-11 104 -72 166t-154 62q-68 0 -121 -28t-88 -78l-84 55q116 147 289 147q104 0 181 -47zM518 140q59 56 71 160h-446q13 -100 74 -158
t151 -58q91 0 150 56z" />
    <glyph glyph-name="uni04D9" unicode="&#x4d9;" horiz-adv-x="532" 
d="M383.5 475.5q55.5 -32.5 88 -91.5t32.5 -136q0 -72 -30 -131.5t-86.5 -94t-131.5 -34.5q-67 0 -118 32.5t-78.5 85.5t-27.5 114v52h368q-4 73 -46 110.5t-102 37.5q-43 0 -80 -18.5t-59 -53.5l-74 44q31 53 88 84.5t133 31.5q68 0 123.5 -32.5zM349.5 105.5
q35.5 29.5 46.5 86.5h-262q8 -51 42 -83.5t88 -32.5q50 0 85.5 29.5z" />
    <glyph glyph-name="uni04E8" unicode="&#x4e8;" horiz-adv-x="792" 
d="M581.5 668q83.5 -48 131 -131.5t47.5 -184.5q0 -99 -47.5 -182.5t-131 -132.5t-185.5 -49q-100 0 -183.5 48.5t-132 132t-48.5 183.5q0 102 48.5 185.5t131.5 131t184 47.5q102 0 185.5 -48zM278.5 594q-53.5 -26 -89 -75t-45.5 -115h504q-15 100 -84.5 158t-167.5 58
q-64 0 -117.5 -26zM516.5 112q54.5 28 90 80t43.5 120h-508q8 -69 43.5 -121t90 -79.5t120.5 -27.5t120.5 28z" />
    <glyph glyph-name="uni04E9" unicode="&#x4e9;" horiz-adv-x="568" 
d="M417 474q58 -34 90.5 -93t32.5 -133t-32.5 -133t-90.5 -93t-133 -34q-73 0 -131.5 34t-91.5 93.5t-33 132.5t33 132.5t91.5 93.5t131.5 34q75 0 133 -34zM189 381.5q-40 -34.5 -52 -89.5h294q-12 55 -52 89.5t-95 34.5t-95 -34.5zM380.5 115.5q40.5 35.5 51.5 92.5h-296
q11 -57 51.5 -92.5t96.5 -35.5t96.5 35.5z" />
    <glyph glyph-name="A.sups" unicode="&#x1d2c;" horiz-adv-x="548" 
d="M459 496l-53 118h-267l-52 -118h-82l238 529h63l237 -529h-84zM169 681h207l-103 233z" />
    <glyph glyph-name="B.sups" unicode="&#x1d2e;" horiz-adv-x="509" 
d="M450.5 728q24.5 -36 24.5 -78q0 -71 -48.5 -112.5t-122.5 -41.5h-238v522h213q69 0 116.5 -36t47.5 -103q0 -60 -57 -97q40 -18 64.5 -54zM145 949v-153h130q39 0 63.5 21t24.5 55t-23.5 55.5t-68.5 21.5h-126zM367.5 591q24.5 25 24.5 60q0 34 -24.5 57t-68.5 23h-154
v-165h154q44 0 68.5 25z" />
    <glyph glyph-name="D.sups" unicode="&#x1d30;" horiz-adv-x="563" 
d="M390.5 984.5q63.5 -33.5 101 -93.5t37.5 -134q0 -75 -38 -134.5t-102.5 -93t-139.5 -33.5h-183v522h185q76 0 139.5 -33.5zM350.5 593q45.5 24 70.5 67t25 97t-25 97t-70.5 67t-104.5 24h-101v-376h101q59 0 104.5 24z" />
    <glyph glyph-name="E.sups" unicode="&#x1d31;" horiz-adv-x="458" 
d="M145 569h275v-73h-354v522h344v-73h-265v-146h241v-68h-241v-162z" />
    <glyph glyph-name="G.sups" unicode="&#x1d33;" horiz-adv-x="594" 
d="M541 496h-45l-24 42q-75 -51 -166 -51q-80 0 -142 36t-96 97.5t-34 135.5q0 77 36.5 139t100.5 97t143 35q73 0 129.5 -28t89.5 -79l-61 -38q-23 34 -66 53t-95 19q-58 0 -102 -25t-68 -69.5t-24 -100.5q0 -59 26 -104t72 -70t106 -25q38 0 76 10.5t66 34.5v107h-171v68
h249v-284z" />
    <glyph glyph-name="H.sups" unicode="&#x1d34;" horiz-adv-x="574" 
d="M430 1018h78v-522h-78v231h-285v-231h-79v522h79v-219h285v219z" />
    <glyph glyph-name="I.sups" unicode="&#x1d35;" horiz-adv-x="211" 
d="M66 1018h79v-522h-79v522z" />
    <glyph glyph-name="J.sups" unicode="&#x1d36;" horiz-adv-x="388" 
d="M70.5 511q-39.5 24 -60.5 69l67 26q15 -27 35.5 -39t51.5 -12q47 0 70 25t23 66v372h78v-368q0 -75 -45.5 -119t-121.5 -44q-58 0 -97.5 24z" />
    <glyph glyph-name="K.sups" unicode="&#x1d37;" horiz-adv-x="526" 
d="M521 496h-94l-175 241l-107 -120v-121h-79v522h79v-306l269 306h90l-203 -226z" />
    <glyph glyph-name="L.sups" unicode="&#x1d38;" horiz-adv-x="428" 
d="M145 569h264v-73h-343v522h79v-449z" />
    <glyph glyph-name="M.sups" unicode="&#x1d39;" horiz-adv-x="681" 
d="M615 1018v-522h-75v344l-177 -344h-49l-173 339v-339h-75v522h64l213 -416l206 416h66z" />
    <glyph glyph-name="N.sups" unicode="&#x1d3a;" horiz-adv-x="569" 
d="M423 1018h80v-522h-48l-309 371v-371h-80v522h48l309 -370v370z" />
    <glyph glyph-name="O.sups" unicode="&#x1d3c;" horiz-adv-x="625" 
d="M172 522.5q-64 35.5 -101 97t-37 137.5q0 75 37 137t101 97.5t141 35.5t140.5 -35.5t100.5 -97t37 -137.5t-37 -138t-100.5 -97t-140.5 -35t-141 35.5zM411.5 587q44.5 26 70.5 71t26 99q0 53 -25.5 98t-70.5 72t-99 27t-99 -26.5t-71 -72t-26 -98.5t26 -98t71 -71.5
t99 -26.5t98.5 26z" />
    <glyph glyph-name="P.sups" unicode="&#x1d3e;" horiz-adv-x="474" 
d="M353.5 999q39.5 -19 63 -55.5t23.5 -86.5t-23.5 -86t-63 -55t-86.5 -19h-122v-201h-79v522h201q47 0 86.5 -19zM330 791.5q27 26.5 27 65.5t-27.5 64.5t-73.5 25.5h-111v-182h111q47 0 74 26.5z" />
    <glyph glyph-name="R.sups" unicode="&#x1d3f;" horiz-adv-x="484" 
d="M381 496l-147 194h-89v-194h-79v522h202q50 0 89 -21.5t60.5 -59t21.5 -83.5q0 -56 -32 -97.5t-87 -55.5l159 -205h-98zM145 760h109q47 0 75.5 25t28.5 69q0 42 -28.5 67.5t-72.5 25.5h-112v-187z" />
    <glyph glyph-name="T.sups" unicode="&#x1d40;" horiz-adv-x="493" 
d="M474 1018v-73h-187v-449h-79v449h-189v73h455z" />
    <glyph glyph-name="U.sups" unicode="&#x1d41;" horiz-adv-x="566" 
d="M168 513.5q-53 26.5 -84 76.5t-31 116v312h79v-314q0 -69 43.5 -107t108.5 -38q63 0 106.5 37t43.5 108v314h79v-312q0 -66 -31 -115.5t-83.5 -76.5t-114.5 -27q-63 0 -116 26.5z" />
    <glyph glyph-name="W.sups" unicode="&#x1d42;" horiz-adv-x="808" 
d="M719 1018h84l-201 -522h-59l-135 383l-143 -383h-56l-204 522h86l146 -391l142 391h52l142 -386z" />
    <glyph glyph-name="a.sups" unicode="&#x1d43;" horiz-adv-x="384" 
d="M308 838q40 -38 40 -98v-244h-52l-25 39q-46 -51 -115 -51q-57 0 -92.5 30t-35.5 78q0 55 40.5 90t135.5 46l64 8q0 34 -21 53t-59 19q-62 0 -101 -44l-55 40q28 34 69.5 53t90.5 19q76 0 116 -38zM268 596v78l-52 -6q-56 -7 -82 -22.5t-26 -45.5q0 -48 60 -48
q59 0 100 44z" />
    <glyph glyph-name="b.sups" unicode="&#x1d47;" horiz-adv-x="437" 
d="M324.5 847.5q41.5 -25.5 65 -69.5t23.5 -98t-25 -98t-67 -69.5t-92 -25.5q-37 0 -65.5 11t-44.5 28l-18 -30h-49v522h80v-185q19 19 45 29.5t54 10.5q52 0 93.5 -25.5zM299.5 590.5q33.5 36.5 33.5 89.5q0 52 -31 89t-84 37q-50 0 -86 -41v-174q35 -37 85 -37
q49 0 82.5 36.5z" />
    <glyph glyph-name="d.sups" unicode="&#x1d48;" horiz-adv-x="429" 
d="M385 1018v-522h-49l-22 36q-19 -22 -48 -33.5t-60 -11.5q-50 0 -91.5 25.5t-66 69.5t-24.5 98t24.5 98t66.5 69.5t92 25.5q60 0 98 -29v174h80zM305 593v175q-34 38 -86 38q-49 0 -82 -36.5t-33 -89.5q0 -52 31 -89t84 -37q50 0 86 39z" />
    <glyph glyph-name="e.sups" unicode="&#x1d49;" horiz-adv-x="405" 
d="M136 579.5q30 -30.5 79 -30.5q58 0 98 48l53 -32q-20 -35 -60.5 -56.5t-92.5 -21.5q-56 0 -99 25t-66.5 69t-23.5 98q0 53 22.5 97t64 70.5t97.5 26.5q78 0 125.5 -50.5t47.5 -133.5v-33h-280q5 -46 35 -76.5zM136 783q-28 -28 -34 -69h204q-4 45 -31.5 71t-68.5 26
q-42 0 -70 -28z" />
    <glyph glyph-name="g.sups" unicode="&#x1d4d;" horiz-adv-x="429" 
d="M385 864v-369q0 -74 -49.5 -116.5t-133.5 -42.5q-96 0 -151 61l50 47q20 -20 45 -31t61 -11q98 0 98 90v43q-17 -19 -43.5 -29.5t-58.5 -10.5q-49 0 -90 24t-65 67t-24 99q0 54 23.5 97t64.5 67t93 24q65 0 108 -37l22 28h50zM305 600v172q-33 35 -87 35q-52 0 -83 -34
t-31 -89t30 -89t82 -34q53 0 89 39z" />
    <glyph glyph-name="k.sups" unicode="&#x1d4f;" horiz-adv-x="409" 
d="M308 496l-117 157l-59 -64v-93h-80v522h80v-335l162 181h91l-144 -156l163 -212h-96z" />
    <glyph glyph-name="m.sups" unicode="&#x1d50;" horiz-adv-x="679" 
d="M595.5 830.5q39.5 -42.5 39.5 -109.5v-225h-80v223q0 39 -23.5 62t-62.5 23q-28 0 -51.5 -13.5t-39.5 -34.5q2 -18 2 -28v-232h-79v221q0 40 -22 63.5t-61 23.5q-54 0 -86 -43v-265h-80v368h47l26 -45q23 27 49 40.5t60 13.5q44 0 75.5 -17t49.5 -47q26 33 55.5 48.5
t69.5 15.5q72 0 111.5 -42.5z" />
    <glyph glyph-name="o.sups" unicode="&#x1d52;" horiz-adv-x="448" 
d="M121.5 509.5q-45.5 25.5 -71.5 70.5t-26 100t26 100t71.5 70.5t102.5 25.5q58 0 103.5 -25.5t71 -70t25.5 -100.5t-25.5 -100.5t-71 -70t-103.5 -25.5q-57 0 -102.5 25.5zM307.5 590.5q32.5 34.5 32.5 89.5q0 54 -32.5 89t-83.5 35q-52 0 -84 -34.5t-32 -89.5t32.5 -89.5
t83.5 -34.5t83.5 34.5z" />
    <glyph glyph-name="p.sups" unicode="&#x1d56;" horiz-adv-x="437" 
d="M322.5 847.5q41.5 -25.5 66 -69.5t24.5 -98t-24.5 -98t-66.5 -69.5t-92 -25.5q-58 0 -98 29v-174h-80v522h49l22 -35q19 20 47.5 32t60.5 12q50 0 91.5 -25.5zM300 591q33 36 33 89t-31 89.5t-84 36.5q-50 0 -86 -39v-174q33 -38 86 -38q49 0 82 36z" />
    <glyph glyph-name="t.sups" unicode="&#x1d57;" horiz-adv-x="317" 
d="M307 521q-42 -34 -100 -34t-97.5 32t-39.5 94v190h-60v61h64v90l71 42h5v-132h133v-61h-133v-174q0 -33 17 -52t50 -19t60 20z" />
    <glyph glyph-name="u.sups" unicode="&#x1d58;" horiz-adv-x="424" 
d="M380 864v-368h-47l-26 45q-23 -26 -49 -40t-60 -14q-68 0 -107 40.5t-39 104.5v232h80v-221q0 -40 21.5 -63.5t61.5 -23.5q53 0 86 43v265h79z" />
    <glyph glyph-name="v.sups" unicode="&#x1d5b;" horiz-adv-x="393" 
d="M311 864h77l-167 -370h-49l-167 370h84l111 -248z" />
    <glyph glyph-name="i.subs" unicode="&#x1d62;" horiz-adv-x="176" 
d="M55 329h75v-69h-75v69zM52 184h80v-368h-80v368z" />
    <glyph glyph-name="r.subs" unicode="&#x1d63;" horiz-adv-x="316" 
d="M306 171l-34 -65q-22 14 -53 14q-59 0 -87 -45v-259h-80v368h49l26 -42q16 23 45 37t58 14q45 0 76 -22z" />
    <glyph glyph-name="u.subs" unicode="&#x1d64;" horiz-adv-x="424" 
d="M380 184v-368h-47l-26 45q-23 -26 -49 -40t-60 -14q-68 0 -107 40.5t-39 104.5v232h80v-221q0 -40 21.5 -63.5t61.5 -23.5q53 0 86 43v265h79z" />
    <glyph glyph-name="v.subs" unicode="&#x1d65;" horiz-adv-x="393" 
d="M311 184h77l-167 -370h-49l-167 370h84l111 -248z" />
    <glyph glyph-name="c.sups" unicode="&#x1d9c;" horiz-adv-x="385" 
d="M115.5 513.5q-42.5 24.5 -67 68.5t-24.5 100t24.5 99.5t66.5 67.5t94 24q49 0 89.5 -22.5t62.5 -63.5l-69 -31q-27 44 -81 44q-48 0 -78 -33t-30 -85q0 -53 30.5 -86.5t81.5 -33.5q52 0 79 43l65 -31q-23 -39 -62 -62t-88 -23q-51 0 -93.5 24.5z" />
    <glyph glyph-name="f.sups" unicode="&#x1da0;" horiz-adv-x="285" 
d="M139 864h127v-61h-127v-307h-80v307h-49v61h49v32q0 57 31.5 94t99.5 37q47 0 85 -23l-31 -56q-26 13 -50 13q-26 0 -40.5 -15t-14.5 -41v-41z" />
    <glyph glyph-name="z.sups" unicode="&#x1dbb;" horiz-adv-x="395" 
d="M163 560h188v-64h-299v43l190 261h-182v64h289v-44z" />
    <glyph glyph-name="Wgrave" unicode="&#x1e80;" horiz-adv-x="1052" 
d="M944 704h108l-264 -704h-68l-199 503l-189 -503h-68l-264 704h112l188 -523l188 523h72l194 -520zM382 912h108l108 -140v-4h-84z" />
    <glyph glyph-name="wgrave" unicode="&#x1e81;" horiz-adv-x="808" 
d="M704 496h104l-192 -496h-72l-137 332l-147 -332h-68l-192 496h104l127 -346l141 346h68l138 -346zM270 704h108l108 -140v-4h-84z" />
    <glyph glyph-name="Wacute" unicode="&#x1e82;" horiz-adv-x="1052" 
d="M944 704h108l-264 -704h-68l-199 503l-189 -503h-68l-264 704h112l188 -523l188 523h72l194 -520zM440 772l108 140h108l-132 -144h-84v4z" />
    <glyph glyph-name="wacute" unicode="&#x1e83;" horiz-adv-x="808" 
d="M704 496h104l-192 -496h-72l-137 332l-147 -332h-68l-192 496h104l127 -346l141 346h68l138 -346zM328 564l108 140h108l-132 -144h-84v4z" />
    <glyph glyph-name="Wdieresis" unicode="&#x1e84;" horiz-adv-x="1052" 
d="M944 704h108l-264 -704h-68l-199 503l-189 -503h-68l-264 704h112l188 -523l188 523h72l194 -520zM380 896h92v-96h-92v96zM568 896h92v-96h-92v96z" />
    <glyph glyph-name="wdieresis" unicode="&#x1e85;" horiz-adv-x="808" 
d="M704 496h104l-192 -496h-72l-137 332l-147 -332h-68l-192 496h104l127 -346l141 346h68l138 -346zM268 688h92v-96h-92v96zM456 688h92v-96h-92v96z" />
    <glyph glyph-name="Germandbls" unicode="&#x1e9e;" horiz-adv-x="732" 
d="M598.5 376.5q49.5 -30.5 75.5 -78t26 -98.5q0 -68 -33.5 -116t-87 -72t-111.5 -24q-114 0 -192 85l72 55q48 -48 120 -48q54 0 91 31.5t37 88.5q0 52 -37.5 84t-94.5 32q-49 0 -89 -30l-58 52l236 274h-185q-95 0 -145.5 -51.5t-50.5 -148.5v-412h-104v416
q0 134 78.5 211t217.5 77h324v-64l-208 -232q69 -1 118.5 -31.5z" />
    <glyph glyph-name="uni1EA0" unicode="&#x1ea0;" horiz-adv-x="684" 
d="M568 0l-64 156h-327l-65 -156h-108l304 704h68l304 -704h-112zM216 248h250l-124 302zM292 -66h104v-100h-104v100z" />
    <glyph glyph-name="uni1EA1" unicode="&#x1ea1;" horiz-adv-x="492" 
d="M384.5 457q47.5 -51 47.5 -129v-328h-68l-29 55q-26 -32 -66 -49.5t-81 -17.5q-70 0 -115 39t-45 109q0 65 55 110t165 62l84 13v3q0 46 -25.5 71t-78.5 25q-67 0 -121 -48l-69 47q37 46 90 67.5t108 21.5q101 0 148.5 -51zM272.5 91.5q34.5 15.5 59.5 40.5v110l-60 -10
q-75 -12 -109.5 -33t-34.5 -63q0 -25 19.5 -42.5t52.5 -17.5q38 0 72.5 15.5zM188 -66h104v-100h-104v100z" />
    <glyph glyph-name="uni1EA2" unicode="&#x1ea2;" horiz-adv-x="684" 
d="M568 0l-64 156h-327l-65 -156h-108l304 704h68l304 -704h-112zM216 248h250l-124 302zM422 816q-19 -20 -54 -23v-38h-48v76h24q18 0 28 9t10 27q0 15 -9.5 23.5t-26.5 8.5q-28 0 -48 -24l-32 33q13 20 35 31.5t50 11.5q42 0 66 -24t24 -60q0 -31 -19 -51z" />
    <glyph glyph-name="uni1EA3" unicode="&#x1ea3;" horiz-adv-x="492" 
d="M384.5 457q47.5 -51 47.5 -129v-328h-68l-29 55q-26 -32 -66 -49.5t-81 -17.5q-70 0 -115 39t-45 109q0 65 55 110t165 62l84 13v3q0 46 -25.5 71t-78.5 25q-67 0 -121 -48l-69 47q37 46 90 67.5t108 21.5q101 0 148.5 -51zM272.5 91.5q34.5 15.5 59.5 40.5v110l-60 -10
q-75 -12 -109.5 -33t-34.5 -63q0 -25 19.5 -42.5t52.5 -17.5q38 0 72.5 15.5zM318 608q-19 -20 -54 -23v-38h-48v76h24q18 0 28 9t10 27q0 15 -9.5 23.5t-26.5 8.5q-28 0 -48 -24l-32 33q13 20 35 31.5t50 11.5q42 0 66 -24t24 -60q0 -31 -19 -51z" />
    <glyph glyph-name="uni1EA4" unicode="&#x1ea4;" horiz-adv-x="684" 
d="M568 0l-64 156h-327l-65 -156h-108l304 704h68l304 -704h-112zM216 248h250l-124 302zM478 845l67 113h101l-90 -117h-78v4zM172 754l128 132h88l132 -132h-97l-82 71l-76 -71h-93z" />
    <glyph glyph-name="uni1EA5" unicode="&#x1ea5;" horiz-adv-x="492" 
d="M384.5 457q47.5 -51 47.5 -129v-328h-68l-29 55q-26 -32 -66 -49.5t-81 -17.5q-70 0 -115 39t-45 109q0 65 55 110t165 62l84 13v3q0 46 -25.5 71t-78.5 25q-67 0 -121 -48l-69 47q37 46 90 67.5t108 21.5q101 0 148.5 -51zM272.5 91.5q34.5 15.5 59.5 40.5v110l-60 -10
q-75 -12 -109.5 -33t-34.5 -63q0 -25 19.5 -42.5t52.5 -17.5q38 0 72.5 15.5zM353 674l88 130h105l-111 -134h-82v4zM68 552l128 152h88l132 -152h-96l-83 86l-77 -86h-92z" />
    <glyph glyph-name="uni1EA6" unicode="&#x1ea6;" horiz-adv-x="684" 
d="M568 0l-64 156h-327l-65 -156h-108l304 704h68l304 -704h-112zM216 248h250l-124 302zM147 958l67 -113v-4h-78l-90 117h101zM388 886l132 -132h-97l-82 71l-76 -71h-93l128 132h88z" />
    <glyph glyph-name="uni1EA7" unicode="&#x1ea7;" horiz-adv-x="492" 
d="M384.5 457q47.5 -51 47.5 -129v-328h-68l-29 55q-26 -32 -66 -49.5t-81 -17.5q-70 0 -115 39t-45 109q0 65 55 110t165 62l84 13v3q0 46 -25.5 71t-78.5 25q-67 0 -121 -48l-69 47q37 46 90 67.5t108 21.5q101 0 148.5 -51zM272.5 91.5q34.5 15.5 59.5 40.5v110l-60 -10
q-75 -12 -109.5 -33t-34.5 -63q0 -25 19.5 -42.5t52.5 -17.5q38 0 72.5 15.5zM43 804l88 -130v-4h-82l-111 134h105zM284 704l132 -152h-96l-83 86l-77 -86h-92l128 152h88z" />
    <glyph glyph-name="uni1EA8" unicode="&#x1ea8;" horiz-adv-x="684" 
d="M568 0l-64 156h-327l-65 -156h-108l304 704h68l304 -704h-112zM216 248h250l-124 302zM561 997.5q24 -22.5 24 -56.5q0 -29 -19 -47.5t-54 -21.5v-23h-48v61h24q18 0 28 8t10 23q0 12 -9.5 19.5t-26.5 7.5q-28 0 -48 -24l-32 33q13 20 35 31.5t50 11.5q42 0 66 -22.5z
M172 754l128 132h88l132 -132h-97l-82 71l-76 -71h-93z" />
    <glyph glyph-name="uni1EA9" unicode="&#x1ea9;" horiz-adv-x="492" 
d="M384.5 457q47.5 -51 47.5 -129v-328h-68l-29 55q-26 -32 -66 -49.5t-81 -17.5q-70 0 -115 39t-45 109q0 65 55 110t165 62l84 13v3q0 46 -25.5 71t-78.5 25q-67 0 -121 -48l-69 47q37 46 90 67.5t108 21.5q101 0 148.5 -51zM272.5 91.5q34.5 15.5 59.5 40.5v110l-60 -10
q-75 -12 -109.5 -33t-34.5 -63q0 -25 19.5 -42.5t52.5 -17.5q38 0 72.5 15.5zM457 821.5q24 -22.5 24 -56.5q0 -29 -19 -47.5t-54 -21.5v-28h-48v66h24q18 0 28 8t10 23q0 12 -9.5 19.5t-26.5 7.5q-28 0 -48 -24l-32 33q13 20 35 31.5t50 11.5q42 0 66 -22.5zM68 552
l128 152h88l132 -152h-96l-83 86l-77 -86h-92z" />
    <glyph glyph-name="uni1EAA" unicode="&#x1eaa;" horiz-adv-x="684" 
d="M568 0l-64 156h-327l-65 -156h-108l304 704h68l304 -704h-112zM216 248h250l-124 302zM266 919h-64v16q0 49 15 67t46 18q18 0 40 -6.5t56 -19.5q43 -17 55 -17t12 12v24h64v-20q0 -45 -16 -63.5t-49 -18.5q-31 0 -98 26q-8 3 -25 8.5t-24 5.5q-12 0 -12 -12v-20z
M388 878l132 -124h-97l-82 65l-76 -65h-93l128 124h88z" />
    <glyph glyph-name="uni1EAB" unicode="&#x1eab;" horiz-adv-x="492" 
d="M384.5 457q47.5 -51 47.5 -129v-328h-68l-29 55q-26 -32 -66 -49.5t-81 -17.5q-70 0 -115 39t-45 109q0 65 55 110t165 62l84 13v3q0 46 -25.5 71t-78.5 25q-67 0 -121 -48l-69 47q37 46 90 67.5t108 21.5q101 0 148.5 -51zM272.5 91.5q34.5 15.5 59.5 40.5v110l-60 -10
q-75 -12 -109.5 -33t-34.5 -63q0 -25 19.5 -42.5t52.5 -17.5q38 0 72.5 15.5zM162 734h-64v23q0 49 15 68t46 19q18 0 39 -7.5t57 -23.5q42 -20 55 -20q12 0 12 12v31h64v-27q0 -45 -16 -64t-49 -19q-18 0 -40.5 7.5t-57.5 22.5q-4 2 -22.5 9.5t-26.5 7.5q-12 0 -12 -12v-27
zM284 696l132 -144h-96l-83 80l-77 -80h-92l128 144h88z" />
    <glyph glyph-name="uni1EAC" unicode="&#x1eac;" horiz-adv-x="684" 
d="M568 0l-64 156h-327l-65 -156h-108l304 704h68l304 -704h-112zM216 248h250l-124 302zM292 -66h104v-100h-104v100zM520 760h-96l-83 86l-77 -86h-92l128 152h88z" />
    <glyph glyph-name="uni1EAD" unicode="&#x1ead;" horiz-adv-x="492" 
d="M384.5 457q47.5 -51 47.5 -129v-328h-68l-29 55q-26 -32 -66 -49.5t-81 -17.5q-70 0 -115 39t-45 109q0 65 55 110t165 62l84 13v3q0 46 -25.5 71t-78.5 25q-67 0 -121 -48l-69 47q37 46 90 67.5t108 21.5q101 0 148.5 -51zM272.5 91.5q34.5 15.5 59.5 40.5v110l-60 -10
q-75 -12 -109.5 -33t-34.5 -63q0 -25 19.5 -42.5t52.5 -17.5q38 0 72.5 15.5zM188 -66h104v-100h-104v100zM416 552h-96l-83 86l-77 -86h-92l128 152h88z" />
    <glyph glyph-name="uni1EAE" unicode="&#x1eae;" horiz-adv-x="684" 
d="M568 0l-64 156h-327l-65 -156h-108l304 704h68l304 -704h-112zM216 248h250l-124 302zM380 876h-78v4l67 112h101zM251.5 783q-36.5 29 -39.5 79h67q2 -21 18 -33t47 -12q29 0 44 12t17 33h67q-4 -51 -39.5 -79.5t-88.5 -28.5q-56 0 -92.5 29z" />
    <glyph glyph-name="uni1EAF" unicode="&#x1eaf;" horiz-adv-x="492" 
d="M384.5 457q47.5 -51 47.5 -129v-328h-68l-29 55q-26 -32 -66 -49.5t-81 -17.5q-70 0 -115 39t-45 109q0 65 55 110t165 62l84 13v3q0 46 -25.5 71t-78.5 25q-67 0 -121 -48l-69 47q37 46 90 67.5t108 21.5q101 0 148.5 -51zM272.5 91.5q34.5 15.5 59.5 40.5v110l-60 -10
q-75 -12 -109.5 -33t-34.5 -63q0 -25 19.5 -42.5t52.5 -17.5q38 0 72.5 15.5zM280 706h-82v4l88 130h105zM147 586.5q-36 34.5 -39 97.5h67q2 -30 18 -47.5t47 -17.5q29 0 44 17.5t17 47.5h67q-4 -63 -39 -97.5t-89 -34.5q-57 0 -93 34.5z" />
    <glyph glyph-name="uni1EB0" unicode="&#x1eb0;" horiz-adv-x="684" 
d="M568 0l-64 156h-327l-65 -156h-108l304 704h68l304 -704h-112zM216 248h250l-124 302zM382 876h-78l-90 116h101l67 -112v-4zM251.5 783q-36.5 29 -39.5 79h67q2 -21 18 -33t47 -12q29 0 44 12t17 33h67q-4 -51 -39.5 -79.5t-88.5 -28.5q-56 0 -92.5 29z" />
    <glyph glyph-name="uni1EB1" unicode="&#x1eb1;" horiz-adv-x="492" 
d="M384.5 457q47.5 -51 47.5 -129v-328h-68l-29 55q-26 -32 -66 -49.5t-81 -17.5q-70 0 -115 39t-45 109q0 65 55 110t165 62l84 13v3q0 46 -25.5 71t-78.5 25q-67 0 -121 -48l-69 47q37 46 90 67.5t108 21.5q101 0 148.5 -51zM272.5 91.5q34.5 15.5 59.5 40.5v110l-60 -10
q-75 -12 -109.5 -33t-34.5 -63q0 -25 19.5 -42.5t52.5 -17.5q38 0 72.5 15.5zM278 706h-82l-111 134h105l88 -130v-4zM147 586.5q-36 34.5 -39 97.5h67q2 -30 18 -47.5t47 -17.5q29 0 44 17.5t17 47.5h67q-4 -63 -39 -97.5t-89 -34.5q-57 0 -93 34.5z" />
    <glyph glyph-name="uni1EB2" unicode="&#x1eb2;" horiz-adv-x="684" 
d="M568 0l-64 156h-327l-65 -156h-108l304 704h68l304 -704h-112zM216 248h250l-124 302zM297 952l-32 33q28 39 87 39q40 0 64 -20.5t24 -51.5q0 -28 -19 -44t-54 -19v-25h-48v62h24q18 0 28 6t10 18q0 10 -9.5 16t-25.5 6q-29 0 -49 -20zM472 862q-4 -51 -39.5 -79.5
t-88.5 -28.5q-56 0 -92.5 29t-39.5 79h67q2 -21 18 -33t47 -12q29 0 44 12t17 33h67z" />
    <glyph glyph-name="uni1EB3" unicode="&#x1eb3;" horiz-adv-x="492" 
d="M384.5 457q47.5 -51 47.5 -129v-328h-68l-29 55q-26 -32 -66 -49.5t-81 -17.5q-70 0 -115 39t-45 109q0 65 55 110t165 62l84 13v3q0 46 -25.5 71t-78.5 25q-67 0 -121 -48l-69 47q37 46 90 67.5t108 21.5q101 0 148.5 -51zM272.5 91.5q34.5 15.5 59.5 40.5v110l-60 -10
q-75 -12 -109.5 -33t-34.5 -63q0 -25 19.5 -42.5t52.5 -17.5q38 0 72.5 15.5zM194 796l-32 33q13 20 35 31.5t50 11.5q42 0 66 -22.5t24 -56.5q0 -29 -19 -47.5t-54 -21.5v-28h-48v66h24q18 0 28 8t10 23q0 12 -9.5 19.5t-26.5 7.5q-28 0 -48 -24zM368 684q-4 -63 -39 -97.5
t-89 -34.5q-57 0 -93 34.5t-39 97.5h67q2 -30 18 -47.5t47 -17.5q29 0 44 17.5t17 47.5h67z" />
    <glyph glyph-name="uni1EB4" unicode="&#x1eb4;" horiz-adv-x="684" 
d="M568 0l-64 156h-327l-65 -156h-108l304 704h68l304 -704h-112zM216 248h250l-124 302zM378 903q-24 9 -55 24q-40 18 -49 18q-12 0 -12 -12v-31h-64v27q0 51 15 71t46 20q18 0 41 -9t55 -25q44 -21 55 -21q12 0 12 12v35h64v-31q0 -47 -16 -67t-49 -20q-19 0 -43 9z
M251.5 783q-36.5 29 -39.5 79h67q2 -21 18 -33t47 -12q29 0 44 12t17 33h67q-4 -51 -39.5 -79.5t-88.5 -28.5q-56 0 -92.5 29z" />
    <glyph glyph-name="uni1EB5" unicode="&#x1eb5;" horiz-adv-x="492" 
d="M384.5 457q47.5 -51 47.5 -129v-328h-68l-29 55q-26 -32 -66 -49.5t-81 -17.5q-70 0 -115 39t-45 109q0 65 55 110t165 62l84 13v3q0 46 -25.5 71t-78.5 25q-67 0 -121 -48l-69 47q37 46 90 67.5t108 21.5q101 0 148.5 -51zM272.5 91.5q34.5 15.5 59.5 40.5v110l-60 -10
q-75 -12 -109.5 -33t-34.5 -63q0 -25 19.5 -42.5t52.5 -17.5q38 0 72.5 15.5zM276 721q-24 9 -55 24q-5 2 -23 10.5t-26 8.5q-12 0 -12 -12v-31h-64v27q0 52 15 72t46 20q18 0 41 -9t55 -25q42 -22 55 -22q12 0 12 12v35h64v-31q0 -48 -16 -68t-49 -20q-19 0 -43 9z
M147 586.5q-36 34.5 -39 97.5h67q2 -30 18 -47.5t47 -17.5q29 0 44 17.5t17 47.5h67q-4 -63 -39 -97.5t-89 -34.5q-57 0 -93 34.5z" />
    <glyph glyph-name="uni1EB6" unicode="&#x1eb6;" horiz-adv-x="684" 
d="M568 0l-64 156h-327l-65 -156h-108l304 704h68l304 -704h-112zM216 248h250l-124 302zM292 -66h104v-100h-104v100zM251 814.5q-36 34.5 -39 97.5h67q2 -30 18 -47.5t47 -17.5q29 0 44 17.5t17 47.5h67q-4 -63 -39 -97.5t-89 -34.5q-57 0 -93 34.5z" />
    <glyph glyph-name="uni1EB7" unicode="&#x1eb7;" horiz-adv-x="492" 
d="M384.5 457q47.5 -51 47.5 -129v-328h-68l-29 55q-26 -32 -66 -49.5t-81 -17.5q-70 0 -115 39t-45 109q0 65 55 110t165 62l84 13v3q0 46 -25.5 71t-78.5 25q-67 0 -121 -48l-69 47q37 46 90 67.5t108 21.5q101 0 148.5 -51zM272.5 91.5q34.5 15.5 59.5 40.5v110l-60 -10
q-75 -12 -109.5 -33t-34.5 -63q0 -25 19.5 -42.5t52.5 -17.5q38 0 72.5 15.5zM188 -66h104v-100h-104v100zM147 606.5q-36 34.5 -39 97.5h67q2 -30 18 -47.5t47 -17.5q29 0 44 17.5t17 47.5h67q-4 -63 -39 -97.5t-89 -34.5q-57 0 -93 34.5z" />
    <glyph glyph-name="uni1EB8" unicode="&#x1eb8;" horiz-adv-x="588" 
d="M188 92h360v-92h-464v704h456v-92h-352v-208h300v-92h-300v-220zM268 -66h104v-100h-104v100z" />
    <glyph glyph-name="uni1EB9" unicode="&#x1eb9;" horiz-adv-x="532" 
d="M178 113.5q42 -37.5 102 -37.5q43 0 80 18.5t59 53.5l74 -44q-31 -53 -88 -84.5t-133 -31.5q-68 0 -123.5 32.5t-88 91.5t-32.5 136q0 72 30 131.5t86.5 94t131.5 34.5q67 0 118 -32.5t78.5 -85.5t27.5 -114v-52h-368q4 -73 46 -110.5zM182.5 390.5
q-35.5 -29.5 -46.5 -86.5h262q-8 51 -42 83.5t-88 32.5q-50 0 -85.5 -29.5zM232 -66h104v-100h-104v100z" />
    <glyph glyph-name="uni1EBA" unicode="&#x1eba;" horiz-adv-x="588" 
d="M188 92h360v-92h-464v704h456v-92h-352v-208h300v-92h-300v-220zM390 816q-19 -20 -54 -23v-38h-48v76h24q18 0 28 9t10 27q0 15 -9.5 23.5t-26.5 8.5q-28 0 -48 -24l-32 33q13 20 35 31.5t50 11.5q42 0 66 -24t24 -60q0 -31 -19 -51z" />
    <glyph glyph-name="uni1EBB" unicode="&#x1ebb;" horiz-adv-x="532" 
d="M178 113.5q42 -37.5 102 -37.5q43 0 80 18.5t59 53.5l74 -44q-31 -53 -88 -84.5t-133 -31.5q-68 0 -123.5 32.5t-88 91.5t-32.5 136q0 72 30 131.5t86.5 94t131.5 34.5q67 0 118 -32.5t78.5 -85.5t27.5 -114v-52h-368q4 -73 46 -110.5zM182.5 390.5
q-35.5 -29.5 -46.5 -86.5h262q-8 51 -42 83.5t-88 32.5q-50 0 -85.5 -29.5zM350 608q-19 -20 -54 -23v-38h-48v76h24q18 0 28 9t10 27q0 15 -9.5 23.5t-26.5 8.5q-28 0 -48 -24l-32 33q13 20 35 31.5t50 11.5q42 0 66 -24t24 -60q0 -31 -19 -51z" />
    <glyph glyph-name="uni1EBC" unicode="&#x1ebc;" horiz-adv-x="588" 
d="M188 92h360v-92h-464v704h456v-92h-352v-208h300v-92h-300v-220zM346 777.5q-24 13.5 -58 36.5q-37 26 -44 26q-12 0 -12 -12v-56h-64v52q0 55 15 75.5t49 20.5q17 0 41 -13.5t56 -36.5q41 -30 51 -30q12 0 12 12v60h64v-56q0 -50 -16 -71t-52 -21q-18 0 -42 13.5z" />
    <glyph glyph-name="uni1EBD" unicode="&#x1ebd;" horiz-adv-x="532" 
d="M178 113.5q42 -37.5 102 -37.5q43 0 80 18.5t59 53.5l74 -44q-31 -53 -88 -84.5t-133 -31.5q-68 0 -123.5 32.5t-88 91.5t-32.5 136q0 72 30 131.5t86.5 94t131.5 34.5q67 0 118 -32.5t78.5 -85.5t27.5 -114v-52h-368q4 -73 46 -110.5zM182.5 390.5
q-35.5 -29.5 -46.5 -86.5h262q-8 51 -42 83.5t-88 32.5q-50 0 -85.5 -29.5zM306 569.5q-24 13.5 -58 36.5q-37 26 -44 26q-12 0 -12 -12v-56h-64v52q0 55 15 75.5t49 20.5q17 0 41 -13.5t56 -36.5q41 -30 51 -30q12 0 12 12v60h64v-56q0 -50 -16 -71t-52 -21q-18 0 -42 13.5
z" />
    <glyph glyph-name="uni1EBE" unicode="&#x1ebe;" horiz-adv-x="588" 
d="M188 92h360v-92h-464v704h456v-92h-352v-208h300v-92h-300v-220zM446 845l67 113h101l-90 -117h-78v4zM140 754l128 132h88l132 -132h-97l-82 71l-76 -71h-93z" />
    <glyph glyph-name="uni1EBF" unicode="&#x1ebf;" horiz-adv-x="532" 
d="M178 113.5q42 -37.5 102 -37.5q43 0 80 18.5t59 53.5l74 -44q-31 -53 -88 -84.5t-133 -31.5q-68 0 -123.5 32.5t-88 91.5t-32.5 136q0 72 30 131.5t86.5 94t131.5 34.5q67 0 118 -32.5t78.5 -85.5t27.5 -114v-52h-368q4 -73 46 -110.5zM182.5 390.5
q-35.5 -29.5 -46.5 -86.5h262q-8 51 -42 83.5t-88 32.5q-50 0 -85.5 -29.5zM385 674l88 130h105l-111 -134h-82v4zM100 552l128 152h88l132 -152h-96l-83 86l-77 -86h-92z" />
    <glyph glyph-name="uni1EC0" unicode="&#x1ec0;" horiz-adv-x="588" 
d="M188 92h360v-92h-464v704h456v-92h-352v-208h300v-92h-300v-220zM115 958l67 -113v-4h-78l-90 117h101zM356 886l132 -132h-97l-82 71l-76 -71h-93l128 132h88z" />
    <glyph glyph-name="uni1EC1" unicode="&#x1ec1;" horiz-adv-x="532" 
d="M178 113.5q42 -37.5 102 -37.5q43 0 80 18.5t59 53.5l74 -44q-31 -53 -88 -84.5t-133 -31.5q-68 0 -123.5 32.5t-88 91.5t-32.5 136q0 72 30 131.5t86.5 94t131.5 34.5q67 0 118 -32.5t78.5 -85.5t27.5 -114v-52h-368q4 -73 46 -110.5zM182.5 390.5
q-35.5 -29.5 -46.5 -86.5h262q-8 51 -42 83.5t-88 32.5q-50 0 -85.5 -29.5zM75 804l88 -130v-4h-82l-111 134h105zM316 704l132 -152h-96l-83 86l-77 -86h-92l128 152h88z" />
    <glyph glyph-name="uni1EC2" unicode="&#x1ec2;" horiz-adv-x="588" 
d="M188 92h360v-92h-464v704h456v-92h-352v-208h300v-92h-300v-220zM529 997.5q24 -22.5 24 -56.5q0 -29 -19 -47.5t-54 -21.5v-23h-48v61h24q18 0 28 8t10 23q0 12 -9.5 19.5t-26.5 7.5q-28 0 -48 -24l-32 33q13 20 35 31.5t50 11.5q42 0 66 -22.5zM140 754l128 132h88
l132 -132h-97l-82 71l-76 -71h-93z" />
    <glyph glyph-name="uni1EC3" unicode="&#x1ec3;" horiz-adv-x="532" 
d="M178 113.5q42 -37.5 102 -37.5q43 0 80 18.5t59 53.5l74 -44q-31 -53 -88 -84.5t-133 -31.5q-68 0 -123.5 32.5t-88 91.5t-32.5 136q0 72 30 131.5t86.5 94t131.5 34.5q67 0 118 -32.5t78.5 -85.5t27.5 -114v-52h-368q4 -73 46 -110.5zM182.5 390.5
q-35.5 -29.5 -46.5 -86.5h262q-8 51 -42 83.5t-88 32.5q-50 0 -85.5 -29.5zM489 821.5q24 -22.5 24 -56.5q0 -29 -19 -47.5t-54 -21.5v-28h-48v66h24q18 0 28 8t10 23q0 12 -9.5 19.5t-26.5 7.5q-28 0 -48 -24l-32 33q13 20 35 31.5t50 11.5q42 0 66 -22.5zM100 552l128 152
h88l132 -152h-96l-83 86l-77 -86h-92z" />
    <glyph glyph-name="uni1EC4" unicode="&#x1ec4;" horiz-adv-x="588" 
d="M188 92h360v-92h-464v704h456v-92h-352v-208h300v-92h-300v-220zM234 919h-64v16q0 49 15 67t46 18q18 0 40 -6.5t56 -19.5q43 -17 55 -17t12 12v24h64v-20q0 -45 -16 -63.5t-49 -18.5q-31 0 -98 26q-8 3 -25 8.5t-24 5.5q-12 0 -12 -12v-20zM356 878l132 -124h-97
l-82 65l-76 -65h-93l128 124h88z" />
    <glyph glyph-name="uni1EC5" unicode="&#x1ec5;" horiz-adv-x="532" 
d="M178 113.5q42 -37.5 102 -37.5q43 0 80 18.5t59 53.5l74 -44q-31 -53 -88 -84.5t-133 -31.5q-68 0 -123.5 32.5t-88 91.5t-32.5 136q0 72 30 131.5t86.5 94t131.5 34.5q67 0 118 -32.5t78.5 -85.5t27.5 -114v-52h-368q4 -73 46 -110.5zM182.5 390.5
q-35.5 -29.5 -46.5 -86.5h262q-8 51 -42 83.5t-88 32.5q-50 0 -85.5 -29.5zM194 734h-64v23q0 49 15 68t46 19q18 0 39 -7.5t57 -23.5q42 -20 55 -20q12 0 12 12v31h64v-27q0 -45 -16 -64t-49 -19q-18 0 -40.5 7.5t-57.5 22.5q-4 2 -22.5 9.5t-26.5 7.5q-12 0 -12 -12v-27z
M316 696l132 -144h-96l-83 80l-77 -80h-92l128 144h88z" />
    <glyph glyph-name="uni1EC6" unicode="&#x1ec6;" horiz-adv-x="588" 
d="M188 92h360v-92h-464v704h456v-92h-352v-208h300v-92h-300v-220zM268 -66h104v-100h-104v100zM488 760h-96l-83 86l-77 -86h-92l128 152h88z" />
    <glyph glyph-name="uni1EC7" unicode="&#x1ec7;" horiz-adv-x="532" 
d="M178 113.5q42 -37.5 102 -37.5q43 0 80 18.5t59 53.5l74 -44q-31 -53 -88 -84.5t-133 -31.5q-68 0 -123.5 32.5t-88 91.5t-32.5 136q0 72 30 131.5t86.5 94t131.5 34.5q67 0 118 -32.5t78.5 -85.5t27.5 -114v-52h-368q4 -73 46 -110.5zM182.5 390.5
q-35.5 -29.5 -46.5 -86.5h262q-8 51 -42 83.5t-88 32.5q-50 0 -85.5 -29.5zM232 -66h104v-100h-104v100zM448 552h-96l-83 86l-77 -86h-92l128 152h88z" />
    <glyph glyph-name="uni1EC8" unicode="&#x1ec8;" horiz-adv-x="272" 
d="M84 704h104v-704h-104v704zM214 816q-19 -20 -54 -23v-38h-48v76h24q18 0 28 9t10 27q0 15 -9.5 23.5t-26.5 8.5q-28 0 -48 -24l-32 33q13 20 35 31.5t50 11.5q42 0 66 -24t24 -60q0 -31 -19 -51z" />
    <glyph glyph-name="uni1EC9" unicode="&#x1ec9;" horiz-adv-x="228" 
d="M64 496h100v-496h-100v496zM190 608q-19 -20 -54 -23v-38h-48v76h24q18 0 28 9t10 27q0 15 -9.5 23.5t-26.5 8.5q-28 0 -48 -24l-32 33q13 20 35 31.5t50 11.5q42 0 66 -24t24 -60q0 -31 -19 -51z" />
    <glyph glyph-name="uni1ECA" unicode="&#x1eca;" horiz-adv-x="272" 
d="M84 704h104v-704h-104v704zM84 -66h104v-100h-104v100z" />
    <glyph glyph-name="uni1ECB" unicode="&#x1ecb;" horiz-adv-x="228" 
d="M64 496h100v-496h-100v496zM60 704h104v-100h-104v100zM56 -66h104v-100h-104v100z" />
    <glyph glyph-name="uni1ECC" unicode="&#x1ecc;" horiz-adv-x="792" 
d="M212.5 36.5q-83.5 48.5 -132 132t-48.5 183.5q0 102 48.5 185.5t131.5 131t184 47.5q102 0 185.5 -48t131 -131.5t47.5 -184.5q0 -99 -47.5 -182.5t-131 -132.5t-185.5 -49q-100 0 -183.5 48.5zM526.5 117.5q58.5 33.5 92 94.5t33.5 140q0 82 -33.5 142.5t-92 93
t-130.5 32.5t-130.5 -33t-92 -94t-33.5 -141t33.5 -141t92 -94t130.5 -33t130.5 33.5zM344 -66h104v-100h-104v100z" />
    <glyph glyph-name="uni1ECD" unicode="&#x1ecd;" horiz-adv-x="568" 
d="M152.5 22q-58.5 34 -91.5 93.5t-33 132.5t33 132.5t91.5 93.5t131.5 34q75 0 133 -34t90.5 -93t32.5 -133t-32.5 -133t-90.5 -93t-133 -34q-73 0 -131.5 34zM362 102q35 22 54.5 60.5t19.5 85.5t-19.5 85.5t-54.5 60.5t-78 22t-78 -22t-54.5 -60.5t-19.5 -85.5
t19.5 -85.5t54.5 -60.5t78 -22t78 22zM228 -66h104v-100h-104v100z" />
    <glyph glyph-name="uni1ECE" unicode="&#x1ece;" horiz-adv-x="792" 
d="M212.5 36.5q-83.5 48.5 -132 132t-48.5 183.5q0 102 48.5 185.5t131.5 131t184 47.5q102 0 185.5 -48t131 -131.5t47.5 -184.5q0 -99 -47.5 -182.5t-131 -132.5t-185.5 -49q-100 0 -183.5 48.5zM526.5 117.5q58.5 33.5 92 94.5t33.5 140q0 82 -33.5 142.5t-92 93
t-130.5 32.5t-130.5 -33t-92 -94t-33.5 -141t33.5 -141t92 -94t130.5 -33t130.5 33.5zM474 816q-19 -20 -54 -23v-38h-48v76h24q18 0 28 9t10 27q0 15 -9.5 23.5t-26.5 8.5q-28 0 -48 -24l-32 33q13 20 35 31.5t50 11.5q42 0 66 -24t24 -60q0 -31 -19 -51z" />
    <glyph glyph-name="uni1ECF" unicode="&#x1ecf;" horiz-adv-x="568" 
d="M152.5 22q-58.5 34 -91.5 93.5t-33 132.5t33 132.5t91.5 93.5t131.5 34q75 0 133 -34t90.5 -93t32.5 -133t-32.5 -133t-90.5 -93t-133 -34q-73 0 -131.5 34zM362 102q35 22 54.5 60.5t19.5 85.5t-19.5 85.5t-54.5 60.5t-78 22t-78 -22t-54.5 -60.5t-19.5 -85.5
t19.5 -85.5t54.5 -60.5t78 -22t78 22zM362 608q-19 -20 -54 -23v-38h-48v76h24q18 0 28 9t10 27q0 15 -9.5 23.5t-26.5 8.5q-28 0 -48 -24l-32 33q13 20 35 31.5t50 11.5q42 0 66 -24t24 -60q0 -31 -19 -51z" />
    <glyph glyph-name="uni1ED0" unicode="&#x1ed0;" horiz-adv-x="792" 
d="M212.5 36.5q-83.5 48.5 -132 132t-48.5 183.5q0 102 48.5 185.5t131.5 131t184 47.5q102 0 185.5 -48t131 -131.5t47.5 -184.5q0 -99 -47.5 -182.5t-131 -132.5t-185.5 -49q-100 0 -183.5 48.5zM526.5 117.5q58.5 33.5 92 94.5t33.5 140q0 82 -33.5 142.5t-92 93
t-130.5 32.5t-130.5 -33t-92 -94t-33.5 -141t33.5 -141t92 -94t130.5 -33t130.5 33.5zM530 845l67 113h101l-90 -117h-78v4zM224 754l128 132h88l132 -132h-97l-82 71l-76 -71h-93z" />
    <glyph glyph-name="uni1ED1" unicode="&#x1ed1;" horiz-adv-x="568" 
d="M152.5 22q-58.5 34 -91.5 93.5t-33 132.5t33 132.5t91.5 93.5t131.5 34q75 0 133 -34t90.5 -93t32.5 -133t-32.5 -133t-90.5 -93t-133 -34q-73 0 -131.5 34zM362 102q35 22 54.5 60.5t19.5 85.5t-19.5 85.5t-54.5 60.5t-78 22t-78 -22t-54.5 -60.5t-19.5 -85.5
t19.5 -85.5t54.5 -60.5t78 -22t78 22zM397 674l88 130h105l-111 -134h-82v4zM112 552l128 152h88l132 -152h-96l-83 86l-77 -86h-92z" />
    <glyph glyph-name="uni1ED2" unicode="&#x1ed2;" horiz-adv-x="792" 
d="M212.5 36.5q-83.5 48.5 -132 132t-48.5 183.5q0 102 48.5 185.5t131.5 131t184 47.5q102 0 185.5 -48t131 -131.5t47.5 -184.5q0 -99 -47.5 -182.5t-131 -132.5t-185.5 -49q-100 0 -183.5 48.5zM526.5 117.5q58.5 33.5 92 94.5t33.5 140q0 82 -33.5 142.5t-92 93
t-130.5 32.5t-130.5 -33t-92 -94t-33.5 -141t33.5 -141t92 -94t130.5 -33t130.5 33.5zM199 958l67 -113v-4h-78l-90 117h101zM440 886l132 -132h-97l-82 71l-76 -71h-93l128 132h88z" />
    <glyph glyph-name="uni1ED3" unicode="&#x1ed3;" horiz-adv-x="568" 
d="M152.5 22q-58.5 34 -91.5 93.5t-33 132.5t33 132.5t91.5 93.5t131.5 34q75 0 133 -34t90.5 -93t32.5 -133t-32.5 -133t-90.5 -93t-133 -34q-73 0 -131.5 34zM362 102q35 22 54.5 60.5t19.5 85.5t-19.5 85.5t-54.5 60.5t-78 22t-78 -22t-54.5 -60.5t-19.5 -85.5
t19.5 -85.5t54.5 -60.5t78 -22t78 22zM87 804l88 -130v-4h-82l-111 134h105zM328 704l132 -152h-96l-83 86l-77 -86h-92l128 152h88z" />
    <glyph glyph-name="uni1ED4" unicode="&#x1ed4;" horiz-adv-x="792" 
d="M212.5 36.5q-83.5 48.5 -132 132t-48.5 183.5q0 102 48.5 185.5t131.5 131t184 47.5q102 0 185.5 -48t131 -131.5t47.5 -184.5q0 -99 -47.5 -182.5t-131 -132.5t-185.5 -49q-100 0 -183.5 48.5zM526.5 117.5q58.5 33.5 92 94.5t33.5 140q0 82 -33.5 142.5t-92 93
t-130.5 32.5t-130.5 -33t-92 -94t-33.5 -141t33.5 -141t92 -94t130.5 -33t130.5 33.5zM613 997.5q24 -22.5 24 -56.5q0 -29 -19 -47.5t-54 -21.5v-23h-48v61h24q18 0 28 8t10 23q0 12 -9.5 19.5t-26.5 7.5q-28 0 -48 -24l-32 33q13 20 35 31.5t50 11.5q42 0 66 -22.5z
M224 754l128 132h88l132 -132h-97l-82 71l-76 -71h-93z" />
    <glyph glyph-name="uni1ED5" unicode="&#x1ed5;" horiz-adv-x="568" 
d="M152.5 22q-58.5 34 -91.5 93.5t-33 132.5t33 132.5t91.5 93.5t131.5 34q75 0 133 -34t90.5 -93t32.5 -133t-32.5 -133t-90.5 -93t-133 -34q-73 0 -131.5 34zM362 102q35 22 54.5 60.5t19.5 85.5t-19.5 85.5t-54.5 60.5t-78 22t-78 -22t-54.5 -60.5t-19.5 -85.5
t19.5 -85.5t54.5 -60.5t78 -22t78 22zM501 821.5q24 -22.5 24 -56.5q0 -29 -19 -47.5t-54 -21.5v-28h-48v66h24q18 0 28 8t10 23q0 12 -9.5 19.5t-26.5 7.5q-28 0 -48 -24l-32 33q13 20 35 31.5t50 11.5q42 0 66 -22.5zM112 552l128 152h88l132 -152h-96l-83 86l-77 -86h-92
z" />
    <glyph glyph-name="uni1ED6" unicode="&#x1ed6;" horiz-adv-x="792" 
d="M212.5 36.5q-83.5 48.5 -132 132t-48.5 183.5q0 102 48.5 185.5t131.5 131t184 47.5q102 0 185.5 -48t131 -131.5t47.5 -184.5q0 -99 -47.5 -182.5t-131 -132.5t-185.5 -49q-100 0 -183.5 48.5zM526.5 117.5q58.5 33.5 92 94.5t33.5 140q0 82 -33.5 142.5t-92 93
t-130.5 32.5t-130.5 -33t-92 -94t-33.5 -141t33.5 -141t92 -94t130.5 -33t130.5 33.5zM318 919h-64v16q0 49 15 67t46 18q18 0 40 -6.5t56 -19.5q43 -17 55 -17t12 12v24h64v-20q0 -45 -16 -63.5t-49 -18.5q-31 0 -98 26q-8 3 -25 8.5t-24 5.5q-12 0 -12 -12v-20zM440 878
l132 -124h-97l-82 65l-76 -65h-93l128 124h88z" />
    <glyph glyph-name="uni1ED7" unicode="&#x1ed7;" horiz-adv-x="568" 
d="M152.5 22q-58.5 34 -91.5 93.5t-33 132.5t33 132.5t91.5 93.5t131.5 34q75 0 133 -34t90.5 -93t32.5 -133t-32.5 -133t-90.5 -93t-133 -34q-73 0 -131.5 34zM362 102q35 22 54.5 60.5t19.5 85.5t-19.5 85.5t-54.5 60.5t-78 22t-78 -22t-54.5 -60.5t-19.5 -85.5
t19.5 -85.5t54.5 -60.5t78 -22t78 22zM206 734h-64v23q0 49 15 68t46 19q18 0 39 -7.5t57 -23.5q42 -20 55 -20q12 0 12 12v31h64v-27q0 -45 -16 -64t-49 -19q-18 0 -40.5 7.5t-57.5 22.5q-4 2 -22.5 9.5t-26.5 7.5q-12 0 -12 -12v-27zM328 696l132 -144h-96l-83 80l-77 -80
h-92l128 144h88z" />
    <glyph glyph-name="uni1ED8" unicode="&#x1ed8;" horiz-adv-x="792" 
d="M212.5 36.5q-83.5 48.5 -132 132t-48.5 183.5q0 102 48.5 185.5t131.5 131t184 47.5q102 0 185.5 -48t131 -131.5t47.5 -184.5q0 -99 -47.5 -182.5t-131 -132.5t-185.5 -49q-100 0 -183.5 48.5zM526.5 117.5q58.5 33.5 92 94.5t33.5 140q0 82 -33.5 142.5t-92 93
t-130.5 32.5t-130.5 -33t-92 -94t-33.5 -141t33.5 -141t92 -94t130.5 -33t130.5 33.5zM344 -66h104v-100h-104v100zM572 760h-96l-83 86l-77 -86h-92l128 152h88z" />
    <glyph glyph-name="uni1ED9" unicode="&#x1ed9;" horiz-adv-x="568" 
d="M152.5 22q-58.5 34 -91.5 93.5t-33 132.5t33 132.5t91.5 93.5t131.5 34q75 0 133 -34t90.5 -93t32.5 -133t-32.5 -133t-90.5 -93t-133 -34q-73 0 -131.5 34zM362 102q35 22 54.5 60.5t19.5 85.5t-19.5 85.5t-54.5 60.5t-78 22t-78 -22t-54.5 -60.5t-19.5 -85.5
t19.5 -85.5t54.5 -60.5t78 -22t78 22zM228 -66h104v-100h-104v100zM460 552h-96l-83 86l-77 -86h-92l128 152h88z" />
    <glyph glyph-name="uni1EDA" unicode="&#x1eda;" horiz-adv-x="792" 
d="M730 501q30 -69 30 -149q0 -99 -47.5 -182.5t-131 -132.5t-185.5 -49q-100 0 -183.5 48.5t-132 132t-48.5 183.5q0 102 48.5 185.5t131.5 131t184 47.5q93 0 173 -41h19q28 0 43.5 12t15.5 35q0 24 -15 50l74 25q10 -17 16 -38t6 -39q0 -39 -21 -65t-61 -35
q54 -50 84 -119zM526.5 117.5q58.5 33.5 92 94.5t33.5 140q0 82 -33.5 142.5t-92 93t-130.5 32.5t-130.5 -33t-92 -94t-33.5 -141t33.5 -141t92 -94t130.5 -33t130.5 33.5zM356 772l108 140h108l-132 -144h-84v4z" />
    <glyph glyph-name="uni1EDB" unicode="&#x1edb;" horiz-adv-x="568" 
d="M537 451q-18 -25 -52 -36q27 -33 41 -76t14 -91q0 -74 -32.5 -133t-90.5 -93t-133 -34q-73 0 -131.5 34t-91.5 93.5t-33 132.5t33 132.5t91.5 93.5t131.5 34q81 0 143 -40q22 2 34.5 13.5t12.5 32.5q0 24 -15 50l74 25q10 -17 16 -38t6 -39q0 -36 -18 -61zM362 102
q35 22 54.5 60.5t19.5 85.5t-19.5 85.5t-54.5 60.5t-78 22t-78 -22t-54.5 -60.5t-19.5 -85.5t19.5 -85.5t54.5 -60.5t78 -22t78 22zM244 564l108 140h108l-132 -144h-84v4z" />
    <glyph glyph-name="uni1EDC" unicode="&#x1edc;" horiz-adv-x="792" 
d="M730 501q30 -69 30 -149q0 -99 -47.5 -182.5t-131 -132.5t-185.5 -49q-100 0 -183.5 48.5t-132 132t-48.5 183.5q0 102 48.5 185.5t131.5 131t184 47.5q93 0 173 -41h19q28 0 43.5 12t15.5 35q0 24 -15 50l74 25q10 -17 16 -38t6 -39q0 -39 -21 -65t-61 -35
q54 -50 84 -119zM526.5 117.5q58.5 33.5 92 94.5t33.5 140q0 82 -33.5 142.5t-92 93t-130.5 32.5t-130.5 -33t-92 -94t-33.5 -141t33.5 -141t92 -94t130.5 -33t130.5 33.5zM220 912h108l108 -140v-4h-84z" />
    <glyph glyph-name="uni1EDD" unicode="&#x1edd;" horiz-adv-x="568" 
d="M537 451q-18 -25 -52 -36q27 -33 41 -76t14 -91q0 -74 -32.5 -133t-90.5 -93t-133 -34q-73 0 -131.5 34t-91.5 93.5t-33 132.5t33 132.5t91.5 93.5t131.5 34q81 0 143 -40q22 2 34.5 13.5t12.5 32.5q0 24 -15 50l74 25q10 -17 16 -38t6 -39q0 -36 -18 -61zM362 102
q35 22 54.5 60.5t19.5 85.5t-19.5 85.5t-54.5 60.5t-78 22t-78 -22t-54.5 -60.5t-19.5 -85.5t19.5 -85.5t54.5 -60.5t78 -22t78 22zM108 704h108l108 -140v-4h-84z" />
    <glyph glyph-name="uni1EDE" unicode="&#x1ede;" horiz-adv-x="792" 
d="M730 501q30 -69 30 -149q0 -99 -47.5 -182.5t-131 -132.5t-185.5 -49q-100 0 -183.5 48.5t-132 132t-48.5 183.5q0 102 48.5 185.5t131.5 131t184 47.5q93 0 173 -41h19q28 0 43.5 12t15.5 35q0 24 -15 50l74 25q10 -17 16 -38t6 -39q0 -39 -21 -65t-61 -35
q54 -50 84 -119zM526.5 117.5q58.5 33.5 92 94.5t33.5 140q0 82 -33.5 142.5t-92 93t-130.5 32.5t-130.5 -33t-92 -94t-33.5 -141t33.5 -141t92 -94t130.5 -33t130.5 33.5zM474 816q-19 -20 -54 -23v-38h-48v76h24q18 0 28 9t10 27q0 15 -9.5 23.5t-26.5 8.5q-28 0 -48 -24
l-32 33q13 20 35 31.5t50 11.5q42 0 66 -24t24 -60q0 -31 -19 -51z" />
    <glyph glyph-name="uni1EDF" unicode="&#x1edf;" horiz-adv-x="568" 
d="M537 451q-18 -25 -52 -36q27 -33 41 -76t14 -91q0 -74 -32.5 -133t-90.5 -93t-133 -34q-73 0 -131.5 34t-91.5 93.5t-33 132.5t33 132.5t91.5 93.5t131.5 34q81 0 143 -40q22 2 34.5 13.5t12.5 32.5q0 24 -15 50l74 25q10 -17 16 -38t6 -39q0 -36 -18 -61zM362 102
q35 22 54.5 60.5t19.5 85.5t-19.5 85.5t-54.5 60.5t-78 22t-78 -22t-54.5 -60.5t-19.5 -85.5t19.5 -85.5t54.5 -60.5t78 -22t78 22zM362 608q-19 -20 -54 -23v-38h-48v76h24q18 0 28 9t10 27q0 15 -9.5 23.5t-26.5 8.5q-28 0 -48 -24l-32 33q13 20 35 31.5t50 11.5
q42 0 66 -24t24 -60q0 -31 -19 -51z" />
    <glyph glyph-name="uni1EE0" unicode="&#x1ee0;" horiz-adv-x="792" 
d="M730 501q30 -69 30 -149q0 -99 -47.5 -182.5t-131 -132.5t-185.5 -49q-100 0 -183.5 48.5t-132 132t-48.5 183.5q0 102 48.5 185.5t131.5 131t184 47.5q93 0 173 -41h19q28 0 43.5 12t15.5 35q0 24 -15 50l74 25q10 -17 16 -38t6 -39q0 -39 -21 -65t-61 -35
q54 -50 84 -119zM526.5 117.5q58.5 33.5 92 94.5t33.5 140q0 82 -33.5 142.5t-92 93t-130.5 32.5t-130.5 -33t-92 -94t-33.5 -141t33.5 -141t92 -94t130.5 -33t130.5 33.5zM430 777.5q-24 13.5 -58 36.5q-37 26 -44 26q-12 0 -12 -12v-56h-64v52q0 55 15 75.5t49 20.5
q17 0 41 -13.5t56 -36.5q41 -30 51 -30q12 0 12 12v60h64v-56q0 -50 -16 -71t-52 -21q-18 0 -42 13.5z" />
    <glyph glyph-name="uni1EE1" unicode="&#x1ee1;" horiz-adv-x="568" 
d="M537 451q-18 -25 -52 -36q27 -33 41 -76t14 -91q0 -74 -32.5 -133t-90.5 -93t-133 -34q-73 0 -131.5 34t-91.5 93.5t-33 132.5t33 132.5t91.5 93.5t131.5 34q81 0 143 -40q22 2 34.5 13.5t12.5 32.5q0 24 -15 50l74 25q10 -17 16 -38t6 -39q0 -36 -18 -61zM362 102
q35 22 54.5 60.5t19.5 85.5t-19.5 85.5t-54.5 60.5t-78 22t-78 -22t-54.5 -60.5t-19.5 -85.5t19.5 -85.5t54.5 -60.5t78 -22t78 22zM318 569.5q-24 13.5 -58 36.5q-37 26 -44 26q-12 0 -12 -12v-56h-64v52q0 55 15 75.5t49 20.5q17 0 41 -13.5t56 -36.5q41 -30 51 -30
q12 0 12 12v60h64v-56q0 -50 -16 -71t-52 -21q-18 0 -42 13.5z" />
    <glyph glyph-name="uni1EE2" unicode="&#x1ee2;" horiz-adv-x="792" 
d="M730 501q30 -69 30 -149q0 -99 -47.5 -182.5t-131 -132.5t-185.5 -49q-100 0 -183.5 48.5t-132 132t-48.5 183.5q0 102 48.5 185.5t131.5 131t184 47.5q93 0 173 -41h19q28 0 43.5 12t15.5 35q0 24 -15 50l74 25q10 -17 16 -38t6 -39q0 -39 -21 -65t-61 -35
q54 -50 84 -119zM526.5 117.5q58.5 33.5 92 94.5t33.5 140q0 82 -33.5 142.5t-92 93t-130.5 32.5t-130.5 -33t-92 -94t-33.5 -141t33.5 -141t92 -94t130.5 -33t130.5 33.5zM344 -66h104v-100h-104v100z" />
    <glyph glyph-name="uni1EE3" unicode="&#x1ee3;" horiz-adv-x="568" 
d="M537 451q-18 -25 -52 -36q27 -33 41 -76t14 -91q0 -74 -32.5 -133t-90.5 -93t-133 -34q-73 0 -131.5 34t-91.5 93.5t-33 132.5t33 132.5t91.5 93.5t131.5 34q81 0 143 -40q22 2 34.5 13.5t12.5 32.5q0 24 -15 50l74 25q10 -17 16 -38t6 -39q0 -36 -18 -61zM362 102
q35 22 54.5 60.5t19.5 85.5t-19.5 85.5t-54.5 60.5t-78 22t-78 -22t-54.5 -60.5t-19.5 -85.5t19.5 -85.5t54.5 -60.5t78 -22t78 22zM228 -66h104v-100h-104v100z" />
    <glyph glyph-name="uni1EE4" unicode="&#x1ee4;" horiz-adv-x="720" 
d="M207.5 25q-66.5 37 -103 102.5t-36.5 148.5v428h104v-428q0 -57 24.5 -100.5t67 -67.5t96.5 -24q87 0 137.5 52.5t50.5 139.5v428h104v-428q0 -84 -35 -149.5t-101 -102t-156 -36.5q-86 0 -152.5 37zM308 -66h104v-100h-104v100z" />
    <glyph glyph-name="uni1EE5" unicode="&#x1ee5;" horiz-adv-x="544" 
d="M480 496v-496h-72l-28 52q-21 -31 -54 -47.5t-74 -16.5q-94 0 -143 56.5t-49 143.5v308h100v-296q0 -62 32 -91t84 -29q30 0 57 14.5t47 37.5v364h100zM220 -66h104v-100h-104v100z" />
    <glyph glyph-name="uni1EE6" unicode="&#x1ee6;" horiz-adv-x="720" 
d="M207.5 25q-66.5 37 -103 102.5t-36.5 148.5v428h104v-428q0 -57 24.5 -100.5t67 -67.5t96.5 -24q87 0 137.5 52.5t50.5 139.5v428h104v-428q0 -84 -35 -149.5t-101 -102t-156 -36.5q-86 0 -152.5 37zM438 816q-19 -20 -54 -23v-38h-48v76h24q18 0 28 9t10 27
q0 15 -9.5 23.5t-26.5 8.5q-28 0 -48 -24l-32 33q13 20 35 31.5t50 11.5q42 0 66 -24t24 -60q0 -31 -19 -51z" />
    <glyph glyph-name="uni1EE7" unicode="&#x1ee7;" horiz-adv-x="544" 
d="M480 496v-496h-72l-28 52q-21 -31 -54 -47.5t-74 -16.5q-94 0 -143 56.5t-49 143.5v308h100v-296q0 -62 32 -91t84 -29q30 0 57 14.5t47 37.5v364h100zM350 608q-19 -20 -54 -23v-38h-48v76h24q18 0 28 9t10 27q0 15 -9.5 23.5t-26.5 8.5q-28 0 -48 -24l-32 33
q13 20 35 31.5t50 11.5q42 0 66 -24t24 -60q0 -31 -19 -51z" />
    <glyph glyph-name="uni1EE8" unicode="&#x1ee8;" horiz-adv-x="774" 
d="M756 797q10 -17 16 -38t6 -39q0 -49 -32 -76.5t-92 -27.5h-2v-340q0 -84 -35 -149.5t-101 -102t-156 -36.5q-86 0 -152.5 37t-103 102.5t-36.5 148.5v428h104v-428q0 -57 24.5 -100.5t67 -67.5t96.5 -24q87 0 137.5 52.5t50.5 139.5v428h104v-28q45 5 45 46q0 24 -15 50z
M320 772l108 140h108l-132 -144h-84v4z" />
    <glyph glyph-name="uni1EE9" unicode="&#x1ee9;" horiz-adv-x="605" 
d="M593 589q10 -17 16 -38t6 -39q0 -49 -32 -76.5t-92 -27.5h-11v-408h-72l-28 52q-21 -31 -54 -47.5t-74 -16.5q-94 0 -143 56.5t-49 143.5v308h100v-296q0 -62 32 -91t84 -29q30 0 57 14.5t47 37.5v364h100v-29q25 1 39.5 13t14.5 34q0 24 -15 50zM232 564l108 140h108
l-132 -144h-84v4z" />
    <glyph glyph-name="uni1EEA" unicode="&#x1eea;" horiz-adv-x="774" 
d="M756 797q10 -17 16 -38t6 -39q0 -49 -32 -76.5t-92 -27.5h-2v-340q0 -84 -35 -149.5t-101 -102t-156 -36.5q-86 0 -152.5 37t-103 102.5t-36.5 148.5v428h104v-428q0 -57 24.5 -100.5t67 -67.5t96.5 -24q87 0 137.5 52.5t50.5 139.5v428h104v-28q45 5 45 46q0 24 -15 50z
M184 912h108l108 -140v-4h-84z" />
    <glyph glyph-name="uni1EEB" unicode="&#x1eeb;" horiz-adv-x="605" 
d="M593 589q10 -17 16 -38t6 -39q0 -49 -32 -76.5t-92 -27.5h-11v-408h-72l-28 52q-21 -31 -54 -47.5t-74 -16.5q-94 0 -143 56.5t-49 143.5v308h100v-296q0 -62 32 -91t84 -29q30 0 57 14.5t47 37.5v364h100v-29q25 1 39.5 13t14.5 34q0 24 -15 50zM96 704h108l108 -140v-4
h-84z" />
    <glyph glyph-name="uni1EEC" unicode="&#x1eec;" horiz-adv-x="774" 
d="M756 797q10 -17 16 -38t6 -39q0 -49 -32 -76.5t-92 -27.5h-2v-340q0 -84 -35 -149.5t-101 -102t-156 -36.5q-86 0 -152.5 37t-103 102.5t-36.5 148.5v428h104v-428q0 -57 24.5 -100.5t67 -67.5t96.5 -24q87 0 137.5 52.5t50.5 139.5v428h104v-28q45 5 45 46q0 24 -15 50z
M438 816q-19 -20 -54 -23v-38h-48v76h24q18 0 28 9t10 27q0 15 -9.5 23.5t-26.5 8.5q-28 0 -48 -24l-32 33q13 20 35 31.5t50 11.5q42 0 66 -24t24 -60q0 -31 -19 -51z" />
    <glyph glyph-name="uni1EED" unicode="&#x1eed;" horiz-adv-x="605" 
d="M593 589q10 -17 16 -38t6 -39q0 -49 -32 -76.5t-92 -27.5h-11v-408h-72l-28 52q-21 -31 -54 -47.5t-74 -16.5q-94 0 -143 56.5t-49 143.5v308h100v-296q0 -62 32 -91t84 -29q30 0 57 14.5t47 37.5v364h100v-29q25 1 39.5 13t14.5 34q0 24 -15 50zM350 608
q-19 -20 -54 -23v-38h-48v76h24q18 0 28 9t10 27q0 15 -9.5 23.5t-26.5 8.5q-28 0 -48 -24l-32 33q13 20 35 31.5t50 11.5q42 0 66 -24t24 -60q0 -31 -19 -51z" />
    <glyph glyph-name="uni1EEE" unicode="&#x1eee;" horiz-adv-x="774" 
d="M756 797q10 -17 16 -38t6 -39q0 -49 -32 -76.5t-92 -27.5h-2v-340q0 -84 -35 -149.5t-101 -102t-156 -36.5q-86 0 -152.5 37t-103 102.5t-36.5 148.5v428h104v-428q0 -57 24.5 -100.5t67 -67.5t96.5 -24q87 0 137.5 52.5t50.5 139.5v428h104v-28q45 5 45 46q0 24 -15 50z
M394 777.5q-24 13.5 -58 36.5q-37 26 -44 26q-12 0 -12 -12v-56h-64v52q0 55 15 75.5t49 20.5q17 0 41 -13.5t56 -36.5q41 -30 51 -30q12 0 12 12v60h64v-56q0 -50 -16 -71t-52 -21q-18 0 -42 13.5z" />
    <glyph glyph-name="uni1EEF" unicode="&#x1eef;" horiz-adv-x="605" 
d="M593 589q10 -17 16 -38t6 -39q0 -49 -32 -76.5t-92 -27.5h-11v-408h-72l-28 52q-21 -31 -54 -47.5t-74 -16.5q-94 0 -143 56.5t-49 143.5v308h100v-296q0 -62 32 -91t84 -29q30 0 57 14.5t47 37.5v364h100v-29q25 1 39.5 13t14.5 34q0 24 -15 50zM306 569.5
q-24 13.5 -58 36.5q-37 26 -44 26q-12 0 -12 -12v-56h-64v52q0 55 15 75.5t49 20.5q17 0 41 -13.5t56 -36.5q41 -30 51 -30q12 0 12 12v60h64v-56q0 -50 -16 -71t-52 -21q-18 0 -42 13.5z" />
    <glyph glyph-name="uni1EF0" unicode="&#x1ef0;" horiz-adv-x="774" 
d="M756 797q10 -17 16 -38t6 -39q0 -49 -32 -76.5t-92 -27.5h-2v-340q0 -84 -35 -149.5t-101 -102t-156 -36.5q-86 0 -152.5 37t-103 102.5t-36.5 148.5v428h104v-428q0 -57 24.5 -100.5t67 -67.5t96.5 -24q87 0 137.5 52.5t50.5 139.5v428h104v-28q45 5 45 46q0 24 -15 50z
M308 -66h104v-100h-104v100z" />
    <glyph glyph-name="uni1EF1" unicode="&#x1ef1;" horiz-adv-x="605" 
d="M593 589q10 -17 16 -38t6 -39q0 -49 -32 -76.5t-92 -27.5h-11v-408h-72l-28 52q-21 -31 -54 -47.5t-74 -16.5q-94 0 -143 56.5t-49 143.5v308h100v-296q0 -62 32 -91t84 -29q30 0 57 14.5t47 37.5v364h100v-29q25 1 39.5 13t14.5 34q0 24 -15 50zM220 -66h104v-100h-104
v100z" />
    <glyph glyph-name="Ygrave" unicode="&#x1ef2;" horiz-adv-x="636" 
d="M524 704h116l-268 -436v-268h-104v268l-272 436h116l212 -333zM182 912h108l108 -140v-4h-84z" />
    <glyph glyph-name="ygrave" unicode="&#x1ef3;" horiz-adv-x="508" 
d="M404 496h104l-312 -704h-92l104 234l-208 470h104l152 -359zM114 704h108l108 -140v-4h-84z" />
    <glyph glyph-name="uni1EF4" unicode="&#x1ef4;" horiz-adv-x="636" 
d="M524 704h116l-268 -436v-268h-104v268l-272 436h116l212 -333zM268 -66h104v-100h-104v100z" />
    <glyph glyph-name="uni1EF5" unicode="&#x1ef5;" horiz-adv-x="508" 
d="M404 496h104l-312 -704h-92l104 234l-208 470h104l152 -359zM339 -66h104v-100h-104v100z" />
    <glyph glyph-name="uni1EF6" unicode="&#x1ef6;" horiz-adv-x="636" 
d="M524 704h116l-268 -436v-268h-104v268l-272 436h116l212 -333zM398 816q-19 -20 -54 -23v-38h-48v76h24q18 0 28 9t10 27q0 15 -9.5 23.5t-26.5 8.5q-28 0 -48 -24l-32 33q13 20 35 31.5t50 11.5q42 0 66 -24t24 -60q0 -31 -19 -51z" />
    <glyph glyph-name="uni1EF7" unicode="&#x1ef7;" horiz-adv-x="508" 
d="M404 496h104l-312 -704h-92l104 234l-208 470h104l152 -359zM330 608q-19 -20 -54 -23v-38h-48v76h24q18 0 28 9t10 27q0 15 -9.5 23.5t-26.5 8.5q-28 0 -48 -24l-32 33q13 20 35 31.5t50 11.5q42 0 66 -24t24 -60q0 -31 -19 -51z" />
    <glyph glyph-name="uni1EF8" unicode="&#x1ef8;" horiz-adv-x="636" 
d="M524 704h116l-268 -436v-268h-104v268l-272 436h116l212 -333zM354 777.5q-24 13.5 -58 36.5q-37 26 -44 26q-12 0 -12 -12v-56h-64v52q0 55 15 75.5t49 20.5q17 0 41 -13.5t56 -36.5q41 -30 51 -30q12 0 12 12v60h64v-56q0 -50 -16 -71t-52 -21q-18 0 -42 13.5z" />
    <glyph glyph-name="uni1EF9" unicode="&#x1ef9;" horiz-adv-x="508" 
d="M404 496h104l-312 -704h-92l104 234l-208 470h104l152 -359zM286 569.5q-24 13.5 -58 36.5q-37 26 -44 26q-12 0 -12 -12v-56h-64v52q0 55 15 75.5t49 20.5q17 0 41 -13.5t56 -36.5q41 -30 51 -30q12 0 12 12v60h64v-56q0 -50 -16 -71t-52 -21q-18 0 -42 13.5z" />
    <glyph glyph-name="uni2011" unicode="&#x2011;" horiz-adv-x="388" 
d="M40 336h308v-92h-308v92z" />
    <glyph glyph-name="endash" unicode="&#x2013;" horiz-adv-x="532" 
d="M40 336h452v-92h-452v92z" />
    <glyph glyph-name="emdash" unicode="&#x2014;" horiz-adv-x="1052" 
d="M40 336h972v-92h-972v92z" />
    <glyph glyph-name="uni2015" unicode="&#x2015;" horiz-adv-x="1000" 
d="M40 336h920v-92h-920v92z" />
    <glyph glyph-name="quoteleft" unicode="&#x2018;" horiz-adv-x="204" 
d="M132.5 620.5q-11.5 -38.5 -12.5 -76.5h40v-120h-120v116q0 45 14.5 88t37.5 76h72q-20 -45 -31.5 -83.5z" />
    <glyph glyph-name="quoteright" unicode="&#x2019;" horiz-adv-x="204" 
d="M164 704v-116q0 -45 -14.5 -88t-37.5 -76h-72q20 45 31.5 83.5t12.5 76.5h-40v120h120z" />
    <glyph glyph-name="quotesinglbase" unicode="&#x201a;" horiz-adv-x="204" 
d="M164 120v-116q0 -45 -14.5 -88t-37.5 -76h-72q20 45 31.5 83.5t12.5 76.5h-40v120h120z" />
    <glyph glyph-name="quotedblleft" unicode="&#x201c;" horiz-adv-x="376" 
d="M132.5 620.5q-11.5 -38.5 -12.5 -76.5h40v-120h-120v116q0 45 14.5 88t37.5 76h72q-20 -45 -31.5 -83.5zM304.5 620.5q-11.5 -38.5 -12.5 -76.5h40v-120h-120v116q0 45 14.5 88t37.5 76h72q-20 -45 -31.5 -83.5z" />
    <glyph glyph-name="quotedblright" unicode="&#x201d;" horiz-adv-x="376" 
d="M164 704v-116q0 -45 -14.5 -88t-37.5 -76h-72q20 45 31.5 83.5t12.5 76.5h-40v120h120zM336 704v-116q0 -45 -14.5 -88t-37.5 -76h-72q20 45 31.5 83.5t12.5 76.5h-40v120h120z" />
    <glyph glyph-name="quotedblbase" unicode="&#x201e;" horiz-adv-x="376" 
d="M164 120v-116q0 -45 -14.5 -88t-37.5 -76h-72q20 45 31.5 83.5t12.5 76.5h-40v120h120zM336 120v-116q0 -45 -14.5 -88t-37.5 -76h-72q20 45 31.5 83.5t12.5 76.5h-40v120h120z" />
    <glyph glyph-name="dagger" unicode="&#x2020;" horiz-adv-x="500" 
d="M400 384h80v-88h-80l-107 6l7 -430v-80h-100v80l11 430l-107 -6h-80v88h80l106 -6l-10 246v80h100v-80l-7 -246z" />
    <glyph glyph-name="daggerdbl" unicode="&#x2021;" horiz-adv-x="500" 
d="M400 352l-108 6v-220l108 6h80v-88h-80l-110 6l10 -190v-80h-100v80l10 190l-106 -6h-80v88h80l104 -6v220l-104 -6h-80v88h80l106 -6l-10 190v80h100v-80l-10 -190l110 6h80v-88h-80z" />
    <glyph glyph-name="bullet" unicode="&#x2022;" horiz-adv-x="308" 
d="M44 608l264 -248l-264 -248v108l140 140l-140 140v108z" />
    <glyph glyph-name="ellipsis" unicode="&#x2026;" horiz-adv-x="612" 
d="M48 116h116v-116h-116v116zM248 116h116v-116h-116v116zM448 116h116v-116h-116v116z" />
    </font>
</defs>
</svg>
