<?xml version="1.0" standalone="no"?>
<!DOCTYPE svg PUBLIC "-//W3C//DTD SVG 1.1//EN" "http://www.w3.org/Graphics/SVG/1.1/DTD/svg11.dtd" >
<svg xmlns="http://www.w3.org/2000/svg" xmlns:xlink="http://www.w3.org/1999/xlink" version="1.1">
<metadata>
Created by FontForge 20201107 at Thu May 25 22:27:49 2023
 By 
Copyright (c) 2017-2023 SKODA AUTO a.s. All rights reserved.
</metadata>
<defs>
<font id="SKODANext-Thin" horiz-adv-x="596" >
  <font-face 
    font-family="SKODA Next Thin"
    font-weight="250"
    font-stretch="normal"
    units-per-em="1000"
    panose-1="2 11 2 4 2 6 3 2 2 4"
    ascent="756"
    descent="-244"
    x-height="496"
    cap-height="704"
    bbox="-532 -344 4432 1027"
    underline-thickness="50"
    underline-position="-125"
    unicode-range="U+000D-FEFF"
  />
<missing-glyph horiz-adv-x="440" 
d="M0 704h440v-704h-440v704zM386 52v600h-332v-600h332z" />
    <glyph glyph-name="ff" unicode="ff" horiz-adv-x="584" 
d="M588 448h-180v-448h-60v448h-208v-448h-60v448h-76v48h76v72q0 68 33.5 108t98.5 40q49 0 93 -26l-27 -46q-31 20 -66 20q-30 0 -51 -20.5t-21 -59.5v-88h208v72q0 68 33.5 108t98.5 40q49 0 93 -26l-27 -46q-31 20 -66 20q-30 0 -51 -20.5t-21 -59.5v-88h180v-48z" />
    <glyph glyph-name="fi" unicode="fi" horiz-adv-x="480" 
d="M320 448h-180v-448h-60v448h-76v48h76v72q0 68 33.5 108t98.5 40q51 0 93 -26l-26 -47q-31 21 -67 21q-30 0 -51 -20.5t-21 -59.5v-88h180v-48zM352 496h60v-496h-60v496zM352 688h60v-64h-60v64z" />
    <glyph glyph-name="fl" unicode="fl" horiz-adv-x="480" 
d="M320 448h-180v-448h-60v448h-76v48h76v72q0 68 33.5 108t98.5 40q51 0 93 -26l-26 -47q-31 21 -67 21q-30 0 -51 -20.5t-21 -59.5v-88h180v-48zM352 704h60v-704h-60v704z" />
    <glyph glyph-name="ffi" unicode="ffi" horiz-adv-x="748" 
d="M408 496h180v-48h-180v-448h-60v448h-208v-448h-60v448h-76v48h76v72q0 68 33.5 108t98.5 40q49 0 93 -26l-27 -46q-31 20 -66 20q-30 0 -51 -20.5t-21 -59.5v-88h208v72q0 68 33.5 108t98.5 40q51 0 93 -26l-26 -47q-31 21 -67 21q-30 0 -51 -20.5t-21 -59.5v-88z
M620 688h60v-64h-60v64zM620 0v496h60v-496h-60z" />
    <glyph glyph-name="ffl" unicode="ffl" horiz-adv-x="748" 
d="M408 496h180v-48h-180v-448h-60v448h-208v-448h-60v448h-76v48h76v72q0 68 33.5 108t98.5 40q49 0 93 -26l-27 -46q-31 20 -66 20q-30 0 -51 -20.5t-21 -59.5v-88h208v72q0 68 33.5 108t98.5 40q51 0 93 -26l-26 -47q-31 21 -67 21q-30 0 -51 -20.5t-21 -59.5v-88z
M620 704h60v-704h-60v704z" />
    <glyph glyph-name=".notdef" horiz-adv-x="440" 
d="M0 704h440v-704h-440v704zM386 52v600h-332v-600h332z" />
    <glyph glyph-name=".null" horiz-adv-x="0" 
 />
    <glyph glyph-name="nonmarkingreturn" horiz-adv-x="333" 
 />
    <glyph glyph-name="NULL" horiz-adv-x="0" 
 />
    <glyph glyph-name="NULL" horiz-adv-x="0" 
 />
    <glyph glyph-name="CR" unicode="&#xd;" horiz-adv-x="220" 
 />
    <glyph glyph-name="space" unicode=" " horiz-adv-x="220" 
 />
    <glyph glyph-name="exclam" unicode="!" horiz-adv-x="208" 
d="M72 648v56h64v-56l-12 -440h-40zM64 80h80v-80h-80v80z" />
    <glyph glyph-name="quotedbl" unicode="&#x22;" horiz-adv-x="304" 
d="M64 648v56h52v-56l-6 -228h-40zM188 648v56h52v-56l-6 -228h-40z" />
    <glyph glyph-name="numbersign" unicode="#" 
d="M572 444h-128l-16 -184h144v-48h-149l-19 -212h-52l19 212h-172l-19 -212h-52l19 212h-123v48h128l16 184h-144v48h149l19 212h52l-19 -212h172l19 212h52l-19 -212h123v-48zM376 260l16 184h-172l-16 -184h172z" />
    <glyph glyph-name="dollar" unicode="$" 
d="M491.5 47q-56.5 -54 -167.5 -59v-108h-48v109q-128 9 -223 91l27 49q42 -36 92 -57.5t104 -26.5v286l-20 5q-79 19 -135.5 65t-56.5 127q0 47 24.5 88.5t72.5 68.5t115 30v109h48v-109q60 -4 110 -22.5t98 -52.5l-31 -46q-39 27 -84.5 44t-92.5 21v-280l32 -7
q94 -21 143 -68.5t49 -119.5q0 -83 -56.5 -137zM163.5 444q35.5 -32 112.5 -53v268q-72 -5 -110 -40t-38 -87q0 -56 35.5 -88zM444 85q40 36 40 95q0 37 -14.5 62.5t-49 43.5t-96.5 34v-275q80 4 120 40z" />
    <glyph glyph-name="percent" unicode="%" horiz-adv-x="764" 
d="M105 348q-36 24 -56.5 68.5t-20.5 103.5t20.5 103.5t56.5 68.5t83 24q72 0 116 -53.5t44 -142.5t-44 -142.5t-116 -53.5q-47 0 -83 24zM588 704h56l-464 -704h-56zM269.5 410q30.5 42 30.5 110t-30.5 110t-81.5 42q-50 0 -81 -42t-31 -110t31 -110t81 -42q51 0 81.5 42z
M493.5 12q-36.5 24 -57 68.5t-20.5 103.5t20.5 103.5t57 68.5t82.5 24q72 0 116 -53t44 -143t-44 -143t-116 -53q-46 0 -82.5 24zM657.5 73.5q30.5 41.5 30.5 110.5t-30.5 110.5t-81.5 41.5t-81.5 -41.5t-30.5 -110.5t30.5 -110.5t81.5 -41.5t81.5 41.5z" />
    <glyph glyph-name="ampersand" unicode="&#x26;" horiz-adv-x="624" 
d="M560 0l-88 89q-83 -101 -216 -101q-63 0 -109.5 25t-70.5 66.5t-24 88.5q0 65 35.5 114t108.5 87q-49 53 -70.5 96t-21.5 87q0 46 21.5 83.5t60.5 59t90 21.5q49 0 87.5 -20.5t59.5 -57t21 -82.5q0 -59 -33 -104.5t-118 -104.5l169 -172q37 75 45 181h56
q-8 -128 -60 -221l133 -135h-76zM194 631.5q-30 -32.5 -30 -79.5q0 -39 20 -75t75 -95q69 47 97 88t28 82q0 46 -28.5 79t-79.5 33q-52 0 -82 -32.5zM433 128l-199 202q-122 -56 -122 -158q0 -31 16.5 -61.5t49.5 -50.5t78 -20q111 0 177 88z" />
    <glyph glyph-name="quotesingle" unicode="'" horiz-adv-x="180" 
d="M64 648v56h52v-56l-6 -228h-40z" />
    <glyph glyph-name="parenleft" unicode="(" horiz-adv-x="296" 
d="M83.5 565q39.5 114 119.5 214l41 -25q-73 -101 -108.5 -208t-35.5 -238q0 -128 36.5 -235.5t109.5 -209.5l-42 -26q-80 101 -120 215.5t-40 255.5q0 143 39.5 257z" />
    <glyph glyph-name="parenright" unicode=")" horiz-adv-x="296" 
d="M212.5 51q-39.5 -114 -119.5 -214l-41 25q73 101 108.5 208t35.5 238q0 128 -36.5 235.5t-109.5 209.5l42 26q80 -101 120 -215.5t40 -255.5q0 -143 -39.5 -257z" />
    <glyph glyph-name="asterisk" unicode="*" horiz-adv-x="440" 
d="M404 556l-32 -12l-131 -32l87 -104l20 -28l-40 -28l-20 28l-68 118l-68 -118l-20 -28l-40 28l20 28l87 104l-131 32l-32 12l16 48l32 -12l122 -56l-10 132v36h48v-36l-10 -132l122 56l32 12z" />
    <glyph glyph-name="plus" unicode="+" 
d="M512 388v-52h-184v-192h-56v192h-188v52h188v192h56v-192h184z" />
    <glyph glyph-name="comma" unicode="," horiz-adv-x="216" 
d="M150 80v-94q0 -55 -45 -120h-41q42 67 42 120v14h-36v80h80z" />
    <glyph glyph-name="hyphen" unicode="-" horiz-adv-x="356" 
d="M40 316h276v-52h-276v52z" />
    <glyph glyph-name="period" unicode="." horiz-adv-x="208" 
d="M64 80h80v-80h-80v80z" />
    <glyph glyph-name="slash" unicode="/" horiz-adv-x="368" 
d="M328 704h56l-344 -808h-56z" />
    <glyph glyph-name="zero" unicode="0" 
d="M161.5 31q-58.5 43 -90 124.5t-31.5 196.5t31.5 196.5t90 124.5t138.5 43q78 0 135.5 -43t89 -125t31.5 -196t-31.5 -196t-89 -125t-135.5 -43q-80 0 -138.5 43zM401.5 81q43.5 37 67 106.5t23.5 164.5t-23.5 164.5t-67 106.5t-101.5 37q-60 0 -104 -37t-68 -106.5
t-24 -164.5t24 -164.5t68 -106.5t104 -37q58 0 101.5 37z" />
    <glyph glyph-name="one" unicode="1" 
d="M380 704h36v-704h-60v627l-264 -139l-28 40z" />
    <glyph glyph-name="two" unicode="2" 
d="M560 52v-52h-504v32l176 176l28 28q74 74 108.5 113t55 79t20.5 84q0 63 -42 105.5t-126 42.5q-48 0 -95.5 -18.5t-84.5 -53.5l-28 44q45 42 94 63t114 21q77 0 128.5 -28.5t75.5 -73.5t24 -94q0 -55 -21.5 -100.5t-57 -86t-110.5 -114.5l-43 -43l-124 -124h412z" />
    <glyph glyph-name="three" unicode="3" 
d="M503 304.5q37 -47.5 37 -112.5q0 -55 -30 -101.5t-88.5 -74.5t-141.5 -28q-134 0 -224 92l29 45q40 -45 87.5 -63t107.5 -18q92 0 144 41t52 111q0 71 -60 109.5t-144 38.5h-72v52h76q78 0 123 34.5t45 101.5q0 58 -43 93t-117 35q-62 0 -109.5 -19t-86.5 -57l-32 41
q42 43 101 67t127 24q98 0 161 -49.5t63 -134.5q0 -54 -30 -94t-81 -63q69 -23 106 -70.5z" />
    <glyph glyph-name="four" unicode="4" 
d="M576 208v-52h-120v-156h-60v156h-376v32l388 516h48v-496h120zM100 208h296v393z" />
    <glyph glyph-name="five" unicode="5" 
d="M422 410q58 -30 88 -81.5t30 -116.5q0 -60 -29 -111t-85.5 -82t-137.5 -31q-70 0 -123 22t-95 65l33 49q37 -39 82 -59.5t103 -20.5q84 0 136 46.5t52 121.5q0 76 -51.5 124t-140.5 48q-101 0 -164 -60l-26 38l42 342h368v-56h-319l-34 -247q59 39 133 39q80 0 138 -30z
" />
    <glyph glyph-name="six" unicode="6" 
d="M438.5 415q52.5 -33 79 -86t26.5 -113q0 -54 -25.5 -106.5t-78.5 -87t-132 -34.5q-118 0 -185 88t-67 260q0 124 34.5 209t97.5 128t148 43q111 0 197 -71l-34 -45q-67 60 -167 60q-54 0 -102.5 -32.5t-79 -104.5t-30.5 -183v-3q33 51 84 81t108 30q74 0 126.5 -33z
M399 64.5q39 24.5 60 64.5t21 87q0 81 -45.5 128.5t-126.5 47.5q-59 0 -112 -36.5t-73 -94.5q11 -104 58 -162.5t127 -58.5q52 0 91 24.5z" />
    <glyph glyph-name="seven" unicode="7" 
d="M60 704h496v-36l-352 -668h-64l341 648h-421v56z" />
    <glyph glyph-name="eight" unicode="8" 
d="M517 298q35 -45 35 -106q0 -59 -32 -105.5t-89.5 -72.5t-130.5 -26q-75 0 -133 26t-90.5 72.5t-32.5 105.5q0 61 35.5 106t99.5 68q-56 22 -87.5 64.5t-31.5 97.5t30.5 98t85.5 66.5t124 23.5q68 0 121.5 -23.5t84 -66.5t30.5 -98t-31.5 -97.5t-86.5 -64.5q64 -23 99 -68
zM167.5 429.5q47.5 -37.5 132.5 -37.5q78 0 127 38t49 98t-49 96t-127 36q-81 0 -130.5 -36t-49.5 -96q0 -61 47.5 -98.5zM436 81.5q52 41.5 52 110.5q0 66 -52 107t-136 41q-89 0 -140.5 -40.5t-51.5 -107.5q0 -69 52.5 -110.5t139.5 -41.5q84 0 136 41.5z" />
    <glyph glyph-name="nine" unicode="9" 
d="M473 628q67 -88 67 -260q0 -124 -34.5 -209t-97.5 -128t-148 -43q-111 0 -197 71l34 45q68 -60 167 -60q54 0 102.5 32.5t79 104.5t30.5 183v3q-33 -51 -84 -81t-108 -30q-74 0 -126.5 33t-79 86t-26.5 113q0 54 25.5 106.5t78.5 87t132 34.5q118 0 185 -88zM400 348.5
q53 36.5 73 94.5q-11 104 -58 162.5t-127 58.5q-52 0 -91 -24.5t-60 -64.5t-21 -87q0 -81 45.5 -128.5t126.5 -47.5q59 0 112 36.5z" />
    <glyph glyph-name="colon" unicode=":" horiz-adv-x="204" 
d="M64 446h76v-76h-76v76zM64 76h76v-76h-76v76z" />
    <glyph glyph-name="semicolon" unicode=";" horiz-adv-x="214" 
d="M140 446v-76h-76v76h76zM150 76v-90q0 -55 -45 -120h-41q42 67 42 120v14h-32v76h76z" />
    <glyph glyph-name="less" unicode="&#x3c;" 
d="M492 568v-60l-328 -147l328 -149v-60l-404 188v44z" />
    <glyph glyph-name="equal" unicode="=" 
d="M84 312h428v-56h-428v56zM84 476h428v-56h-428v56z" />
    <glyph glyph-name="greater" unicode="&#x3e;" 
d="M104 568l404 -188v-44l-404 -184v60l328 147l-328 149v60z" />
    <glyph glyph-name="question" unicode="?" horiz-adv-x="496" 
d="M402 662.5q54 -53.5 54 -134.5q0 -78 -52 -134t-148 -101v-85h-56v116q100 45 148 91.5t48 112.5q0 58 -38.5 95t-117.5 37q-52 0 -103 -18.5t-89 -53.5l-28 44q45 41 98.5 62.5t121.5 21.5q108 0 162 -53.5zM188 0v80h80v-80h-80z" />
    <glyph glyph-name="at" unicode="@" horiz-adv-x="920" 
d="M674.5 661.5q95.5 -54.5 150.5 -146t55 -195.5q0 -62 -19 -116t-56 -87t-89 -33q-96 0 -115 81q-24 -32 -61.5 -50.5t-83.5 -18.5q-58 0 -103.5 28t-71 75t-25.5 101t25.5 101t71 75t103.5 28q41 0 77 -17.5t63 -50.5l28 52h28v-272q0 -80 64 -80q54 0 85 52t31 132
q0 96 -49.5 177.5t-134 128.5t-184.5 46q-102 -1 -187.5 -49.5t-135 -133t-49.5 -189.5q0 -96 49 -180.5t135.5 -136t191.5 -51.5q60 0 117.5 18t104.5 52l26 -38q-56 -40 -116.5 -60t-135.5 -20q-117 0 -214 55t-153.5 150t-56.5 211t56.5 211t154 150t213.5 55
q115 0 210.5 -54.5zM547 184.5q39 32.5 49 79.5v72q-9 45 -49 78.5t-91 33.5q-39 0 -71 -20.5t-50.5 -54.5t-18.5 -73t18.5 -73t50.5 -54.5t71 -20.5q52 0 91 32.5z" />
    <glyph glyph-name="A" unicode="A" horiz-adv-x="696" 
d="M620 0l-86 196h-372l-86 -196h-64l316 716h40l316 -716h-64zM186 252h324l-162 369z" />
    <glyph glyph-name="B" unicode="B" horiz-adv-x="640" 
d="M559.5 310q36.5 -49 36.5 -110t-28.5 -106.5t-77 -69.5t-106.5 -24h-288v704h236q93 0 154.5 -47t61.5 -137q0 -47 -23 -82.5t-63 -59.5q61 -19 97.5 -68zM156 648v-256h184q65 0 104.5 36t39.5 92q0 58 -38.5 93t-113.5 35h-176zM464 76.5q34 20.5 51 53t17 70.5
q0 60 -40 98t-112 38h-224v-280h224q50 0 84 20.5z" />
    <glyph glyph-name="C" unicode="C" horiz-adv-x="660" 
d="M221.5 36.5q-82.5 48.5 -130 132t-47.5 183.5t47.5 183.5t130 132t182.5 48.5q129 0 219 -73l-27 -48q-38 32 -88 48.5t-104 16.5q-84 0 -151.5 -40t-106 -110.5t-38.5 -157.5t38.5 -157.5t106 -110.5t151.5 -40q54 0 104.5 18.5t87.5 50.5l27 -49q-92 -76 -219 -76
q-100 0 -182.5 48.5z" />
    <glyph glyph-name="D" unicode="D" horiz-adv-x="732" 
d="M507 660q84 -44 132.5 -124t48.5 -184t-49.5 -184t-134.5 -124t-188 -44h-220v704h224q103 0 187 -44zM476 93.5q70 37.5 109 104.5t39 154t-39 154t-109 104.5t-160 37.5h-160v-592h160q90 0 160 37.5z" />
    <glyph glyph-name="E" unicode="E" horiz-adv-x="600" 
d="M156 56h388v-56h-448v704h432v-56h-372v-252h336v-56h-336v-284z" />
    <glyph glyph-name="F" unicode="F" horiz-adv-x="568" 
d="M536 648h-380v-268h328v-56h-328v-324h-60v704h440v-56z" />
    <glyph glyph-name="G" unicode="G" horiz-adv-x="764" 
d="M684 0h-28l-28 49q-50 -31 -104 -46t-120 -15q-104 0 -186 48t-128 131t-46 185q0 104 47.5 187t131.5 130t189 47q155 0 272 -95l-31 -47q-44 39 -110.5 62.5t-138.5 23.5q-90 0 -157 -40.5t-103 -111t-36 -156.5q0 -88 39 -158t107.5 -110t153.5 -40q140 0 216 60v212
h-240v56h300v-372z" />
    <glyph glyph-name="H" unicode="H" horiz-adv-x="752" 
d="M596 704h60v-704h-60v336h-440v-336h-60v704h60v-312h440v312z" />
    <glyph glyph-name="I" unicode="I" horiz-adv-x="252" 
d="M96 704h60v-704h-60v704z" />
    <glyph glyph-name="J" unicode="J" horiz-adv-x="460" 
d="M83.5 2.5q-41.5 14.5 -71.5 41.5l29 46q25 -23 58.5 -36.5t72.5 -13.5q69 0 106.5 40t37.5 108v516h60v-512q0 -92 -54 -148t-150 -56q-47 0 -88.5 14.5z" />
    <glyph glyph-name="K" unicode="K" horiz-adv-x="660" 
d="M660 0h-72l-283 348l-149 -160v-188h-60v704h60v-445l408 445h72l-294 -316z" />
    <glyph glyph-name="L" unicode="L" horiz-adv-x="548" 
d="M156 56h376v-56h-436v704h60v-648z" />
    <glyph glyph-name="M" unicode="M" horiz-adv-x="904" 
d="M764 704h44v-704h-60v546l-280 -546h-36l-276 542v-542h-60v704h44l312 -616z" />
    <glyph glyph-name="N" unicode="N" horiz-adv-x="748" 
d="M592 704h60v-704h-36l-460 579v-579h-60v704h36l460 -579v579z" />
    <glyph glyph-name="O" unicode="O" horiz-adv-x="808" 
d="M221 35.5q-82 47.5 -129.5 131t-47.5 185.5q0 103 46.5 186t129 130.5t184.5 47.5t184.5 -47.5t129 -130.5t46.5 -186t-46.5 -186t-129 -130.5t-184.5 -47.5q-101 0 -183 47.5zM556.5 84q67.5 40 105.5 110.5t38 157.5t-38 157.5t-105.5 110.5t-152.5 40
q-83 0 -150.5 -40t-106.5 -110.5t-39 -157.5t38 -157.5t105.5 -110.5t152.5 -40t152.5 40z" />
    <glyph glyph-name="P" unicode="P" horiz-adv-x="600" 
d="M438.5 680q51.5 -24 82.5 -71t31 -113t-31 -113t-82.5 -71t-110.5 -24h-172v-288h-60v704h232q59 0 110.5 -24zM414.5 365q36.5 21 55 55.5t18.5 75.5t-18.5 75.5t-55 55.5t-86.5 21h-172v-304h172q50 0 86.5 21z" />
    <glyph glyph-name="Q" unicode="Q" horiz-adv-x="800" 
d="M700 0l-66 74q-47 -41 -106.5 -63.5t-127.5 -22.5q-100 0 -181.5 48.5t-128 132t-46.5 183.5t46.5 183.5t128 132t181.5 48.5t181.5 -48.5t128 -132t46.5 -183.5q0 -69 -22.5 -130.5t-63.5 -110.5l102 -111h-72zM145.5 195.5q37.5 -69.5 104 -108.5t150.5 -39
q57 0 106.5 18.5t87.5 52.5l-122 137h68l89 -100q30 39 46.5 89.5t16.5 106.5q0 87 -37.5 156.5t-104 108.5t-150.5 39t-150.5 -39t-104 -108.5t-37.5 -156.5t37.5 -156.5z" />
    <glyph glyph-name="R" unicode="R" horiz-adv-x="612" 
d="M528 0l-234 288h-138v-288h-60v704h212q66 0 117 -27t79 -74t28 -107q0 -79 -46.5 -132t-126.5 -67l241 -297h-72zM156 344h148q76 0 122 40.5t46 111.5q0 68 -45.5 110t-118.5 42h-152v-304z" />
    <glyph glyph-name="S" unicode="S" horiz-adv-x="592" 
d="M164.5 11.5q-64.5 23.5 -115.5 68.5l27 50q48 -41 105 -63.5t119 -22.5q89 0 134.5 36.5t45.5 99.5q0 38 -16.5 64t-54.5 45t-105 35l-52 12q-78 18 -135 64.5t-57 127.5q0 50 26.5 93t79 69t126.5 26q70 0 126.5 -19t109.5 -57l-31 -46q-43 31 -96 48.5t-105 17.5
q-85 0 -128.5 -35.5t-43.5 -92.5q0 -61 42 -94t134 -54l52 -12q94 -22 143 -69.5t49 -118.5q0 -56 -27 -100t-82 -70t-135 -26q-71 0 -135.5 23.5z" />
    <glyph glyph-name="T" unicode="T" horiz-adv-x="620" 
d="M604 704v-56h-264v-648h-60v648h-264v56h588z" />
    <glyph glyph-name="U" unicode="U" horiz-adv-x="760" 
d="M232 24.5q-68 36.5 -108 104t-40 155.5v420h60v-420q0 -76 32.5 -130t86 -82t117.5 -28t118 26.5t86 80.5t32 133v420h60v-420q0 -88 -40 -155.5t-108 -104t-148 -36.5t-148 36.5z" />
    <glyph glyph-name="V" unicode="V" horiz-adv-x="672" 
d="M596 704h64l-304 -704h-40l-304 704h64l260 -608z" />
    <glyph glyph-name="W" unicode="W" horiz-adv-x="1060" 
d="M984 704h64l-268 -704h-40l-210 592l-210 -592h-40l-268 704h64l226 -600l206 600h44l210 -600z" />
    <glyph glyph-name="X" unicode="X" 
d="M600 0h-72l-229 312l-231 -312h-68l266 358l-254 346h72l217 -297l215 297h68l-249 -343z" />
    <glyph glyph-name="Y" unicode="Y" horiz-adv-x="632" 
d="M560 704h68l-280 -432v-272h-60v272l-284 432h68l245 -378z" />
    <glyph glyph-name="Z" unicode="Z" horiz-adv-x="608" 
d="M113 52h459v-52h-536v36l435 616h-415v52h496v-36z" />
    <glyph glyph-name="bracketleft" unicode="[" horiz-adv-x="396" 
d="M300 716h-148v-820h148v-48h-204v916h204v-48z" />
    <glyph glyph-name="backslash" unicode="\" horiz-adv-x="368" 
d="M328 -104l-344 808h56l344 -808h-56z" />
    <glyph glyph-name="bracketright" unicode="]" horiz-adv-x="396" 
d="M300 764v-916h-204v48h148v820h-148v48h204z" />
    <glyph glyph-name="asciicircum" unicode="^" 
d="M528 336h-64l-170 294l-162 -294h-64l212 368h32z" />
    <glyph glyph-name="underscore" unicode="_" horiz-adv-x="472" 
d="M40 -12h392v-52h-392v52z" />
    <glyph glyph-name="grave" unicode="`" horiz-adv-x="600" 
d="M188 704h64l84 -140v-4h-48z" />
    <glyph glyph-name="a" unicode="a" horiz-adv-x="464" 
d="M356 460q44 -48 44 -128v-332h-32l-28 48q-25 -27 -68.5 -43.5t-87.5 -16.5q-73 0 -114.5 37t-41.5 99q0 70 60.5 108.5t171.5 59.5l80 15v21q0 57 -29.5 92.5t-94.5 35.5q-81 0 -144 -51l-26 38q30 29 77.5 47t92.5 18q96 0 140 -48zM275 55q38 15 65 41v164l-64 -12
q-83 -15 -135.5 -42.5t-52.5 -79.5q0 -40 25.5 -63t78.5 -23q45 0 83 15z" />
    <glyph glyph-name="b" unicode="b" horiz-adv-x="540" 
d="M396.5 473.5q52.5 -34.5 82 -94t29.5 -131.5t-30 -131.5t-84 -94t-122 -34.5q-97 0 -148 54l-24 -42h-32v704h60v-264q24 31 64 49.5t84 18.5q68 0 120.5 -34.5zM358 66q41 26 65.5 73.5t24.5 108.5q0 58 -22 105.5t-62.5 75t-95.5 27.5q-43 0 -76.5 -16.5t-63.5 -50.5
v-290q28 -28 61.5 -43.5t78.5 -15.5q49 0 90 26z" />
    <glyph glyph-name="c" unicode="c" horiz-adv-x="452" 
d="M150.5 24.5q-54.5 32.5 -86.5 90.5t-32 133q0 76 30 135t84 92t122 33q52 0 91 -14t77 -44l-27 -51q-27 26 -60.5 39.5t-80.5 13.5q-79 0 -127.5 -56t-48.5 -148q0 -58 24.5 -104t65.5 -71t90 -25q79 0 136 43l24 -45q-72 -54 -160 -54q-67 0 -121.5 32.5z" />
    <glyph glyph-name="d" unicode="d" horiz-adv-x="540" 
d="M472 704v-704h-32l-28 47q-26 -26 -66.5 -42.5t-81.5 -16.5q-65 0 -118 34.5t-83.5 94t-30.5 131.5t30 131.5t84 94t122 34.5q94 0 144 -50v246h60zM348.5 56q33.5 16 63.5 47v294q-28 28 -61.5 43.5t-78.5 15.5q-49 0 -90 -26t-65.5 -73.5t-24.5 -108.5q0 -58 22 -105.5
t62.5 -75t95.5 -27.5q43 0 76.5 16z" />
    <glyph glyph-name="e" unicode="e" horiz-adv-x="504" 
d="M92 236q0 -54 23 -99t64 -71t93 -26q93 0 156 72l36 -36q-31 -39 -80.5 -63.5t-111.5 -24.5q-76 0 -130 35t-82 94.5t-28 130.5q0 70 27.5 129.5t79.5 95t121 35.5q70 0 117.5 -31.5t71 -85t23.5 -119.5v-24h-380v-12zM149 410q-44 -46 -54 -118h320q-5 79 -47.5 121.5
t-107.5 42.5q-67 0 -111 -46z" />
    <glyph glyph-name="f" unicode="f" horiz-adv-x="316" 
d="M320 448h-180v-448h-60v448h-76v48h76v72q0 68 33.5 108t98.5 40q49 0 93 -26l-27 -46q-31 20 -66 20q-30 0 -51 -20.5t-21 -59.5v-88h180v-48z" />
    <glyph glyph-name="g" unicode="g" horiz-adv-x="540" 
d="M472 496v-504q0 -60 -26.5 -107.5t-77.5 -74t-120 -26.5q-50 0 -95.5 15t-75.5 41l26 49q25 -22 63.5 -35.5t77.5 -13.5q77 0 122.5 37t45.5 115v55q-26 -29 -65 -44t-83 -15q-64 0 -117.5 35.5t-84 95.5t-30.5 129t30.5 129t84 95.5t121.5 35.5q87 0 148 -53l24 41h32z
M349 56.5q33 16.5 63 50.5v290q-28 28 -61.5 43.5t-78.5 15.5q-49 0 -90 -27.5t-65.5 -75t-24.5 -105.5q0 -56 22 -103.5t63 -76t95 -28.5q44 0 77 16.5z" />
    <glyph glyph-name="h" unicode="h" horiz-adv-x="524" 
d="M411 454.5q49 -53.5 49 -138.5v-316h-60v312q0 71 -36 107.5t-100 36.5q-44 0 -74.5 -17t-61.5 -51v-388h-60v704h60v-264q32 36 66.5 52t77.5 16q90 0 139 -53.5z" />
    <glyph glyph-name="i" unicode="i" horiz-adv-x="196" 
d="M68 496h60v-496h-60v496zM68 688h60v-64h-60v64z" />
    <glyph glyph-name="j" unicode="j" horiz-adv-x="196" 
d="M68 688h60v-64h-60v64zM20 -164q21 0 34.5 14.5t13.5 41.5v604h60v-604q0 -48 -30.5 -78t-81.5 -30q-35 0 -66 20l27 45q16 -13 43 -13z" />
    <glyph glyph-name="k" unicode="k" horiz-adv-x="484" 
d="M492 0h-72l-194 245l-98 -101v-144h-60v704h60v-491l268 283h72l-205 -212h1z" />
    <glyph glyph-name="l" unicode="l" horiz-adv-x="196" 
d="M68 704h60v-704h-60v704z" />
    <glyph glyph-name="m" unicode="m" horiz-adv-x="864" 
d="M749.5 454q50.5 -54 50.5 -138v-316h-60v312q0 70 -37.5 107t-102.5 37q-45 0 -83 -22t-64 -57q7 -27 7 -61v-316h-60v312q0 71 -36 107.5t-100 36.5q-45 0 -77.5 -17.5t-58.5 -50.5v-388h-60v496h28l32 -56q32 36 66.5 52t77.5 16q61 0 102.5 -23.5t63.5 -66.5
q63 90 170 90q91 0 141.5 -54z" />
    <glyph glyph-name="n" unicode="n" horiz-adv-x="524" 
d="M411 454.5q49 -53.5 49 -138.5v-316h-60v312q0 71 -36 107.5t-100 36.5q-45 0 -77.5 -17.5t-58.5 -50.5v-388h-60v496h28l32 -56q32 36 66.5 52t77.5 16q90 0 139 -53.5z" />
    <glyph glyph-name="o" unicode="o" horiz-adv-x="552" 
d="M151 22.5q-56 34.5 -87.5 94t-31.5 131.5t31.5 131.5t87.5 94t125 34.5t125 -34.5t87.5 -94t31.5 -131.5t-31.5 -131.5t-87.5 -94t-125 -34.5t-125 34.5zM371 68q42 28 65.5 75.5t23.5 104.5t-23.5 104.5t-65.5 75.5t-95 28t-95 -27.5t-65.5 -75t-23.5 -105.5
q0 -57 23.5 -104.5t65.5 -75.5t95 -28t95 28z" />
    <glyph glyph-name="p" unicode="p" horiz-adv-x="540" 
d="M394 473.5q53 -34.5 83.5 -94t30.5 -131.5t-30 -131.5t-84 -94t-122 -34.5q-94 0 -144 50v-246h-60v704h32l28 -47q26 26 66.5 42.5t81.5 16.5q65 0 118 -34.5zM358 66q41 26 65.5 73.5t24.5 108.5q0 58 -22 105.5t-62.5 75t-95.5 27.5q-43 0 -76.5 -16t-63.5 -47v-294
q28 -28 61.5 -43.5t78.5 -15.5q49 0 90 26z" />
    <glyph glyph-name="q" unicode="q" horiz-adv-x="540" 
d="M472 496v-704h-60v264q-24 -31 -64 -49.5t-84 -18.5q-68 0 -120.5 34.5t-82 94t-29.5 131.5t30 131.5t84 94t122 34.5q97 0 148 -54l24 42h32zM349 56.5q33 16.5 63 50.5v290q-28 28 -61.5 43.5t-78.5 15.5q-49 0 -90 -26t-65.5 -73.5t-24.5 -108.5q0 -58 22 -105.5
t62.5 -75t95.5 -27.5q44 0 77 16.5z" />
    <glyph glyph-name="r" unicode="r" horiz-adv-x="344" 
d="M336 488l-24 -44q-18 12 -60 12q-85 0 -124 -61v-395h-60v496h32l26 -45q18 27 52.5 42t73.5 15q49 0 84 -20z" />
    <glyph glyph-name="s" unicode="s" horiz-adv-x="436" 
d="M119.5 6q-49.5 18 -84.5 53l29 45q66 -64 160 -64q48 0 82 21t34 63q0 35 -23 57.5t-81 38.5l-44 12q-70 19 -109 51.5t-39 88.5q0 60 48 98t124 38q51 0 98 -16.5t78 -43.5l-24 -45q-29 25 -68.5 39t-83.5 14q-56 0 -84 -22t-28 -58q0 -39 28 -58.5t92 -37.5l44 -12
q68 -19 102 -56t34 -84q0 -63 -49.5 -101.5t-130.5 -38.5q-55 0 -104.5 18z" />
    <glyph glyph-name="t" unicode="t" horiz-adv-x="368" 
d="M360 32q-51 -44 -120 -44q-64 0 -106 39.5t-42 108.5v312h-88v48h92v128l52 32h4v-160h204v-48h-204v-304q0 -44 23.5 -72t68.5 -28q49 0 83 30z" />
    <glyph glyph-name="u" unicode="u" horiz-adv-x="524" 
d="M456 496v-496h-28l-32 56q-33 -36 -67.5 -52t-76.5 -16q-90 0 -139 54t-49 138v316h60v-312q0 -71 36 -107.5t100 -36.5q45 0 77.5 17.5t58.5 50.5v388h60z" />
    <glyph glyph-name="v" unicode="v" horiz-adv-x="472" 
d="M412 496h60l-220 -500h-32l-220 500h60l176 -408z" />
    <glyph glyph-name="w" unicode="w" horiz-adv-x="812" 
d="M752 496h60l-200 -500h-36l-169 398l-171 -398h-36l-200 500h64l156 -402l168 406h36l172 -410z" />
    <glyph glyph-name="x" unicode="x" horiz-adv-x="424" 
d="M432 0h-68l-151 204l-153 -204h-68l188 247l-184 249h68l150 -203l146 203h68l-181 -246z" />
    <glyph glyph-name="y" unicode="y" horiz-adv-x="480" 
d="M420 496h60l-312 -704h-60l108 238l-216 466h64l181 -401z" />
    <glyph glyph-name="z" unicode="z" horiz-adv-x="400" 
d="M384 496v-28l-288 -420h288v-48h-368v28l284 420h-272v48h356z" />
    <glyph glyph-name="braceleft" unicode="{" horiz-adv-x="392" 
d="M178.5 336.5q-21.5 -30.5 -58.5 -30.5q38 0 59 -29.5t21 -90.5v-222q0 -36 16 -52t52 -16h72v-48h-72q-62 0 -91 30.5t-29 81.5v238q0 44 -17.5 64t-54.5 20h-24v48h24q37 0 54.5 19t17.5 65v238q0 112 120 112h72v-48h-72q-36 0 -52 -16t-16 -52v-222q0 -59 -21.5 -89.5
z" />
    <glyph glyph-name="bar" unicode="|" horiz-adv-x="248" 
d="M96 764h56v-912h-56v912z" />
    <glyph glyph-name="braceright" unicode="}" horiz-adv-x="392" 
d="M340 334v-48h-24q-37 0 -54.5 -18.5t-17.5 -65.5v-238q0 -112 -120 -112h-72v48h72q36 0 52 16t16 52v222q0 59 21.5 89.5t58.5 30.5q-38 0 -59 29.5t-21 90.5v222q0 36 -16 52t-52 16h-72v48h72q62 0 91 -30.5t29 -81.5v-238q0 -44 17.5 -64t54.5 -20h24z" />
    <glyph glyph-name="asciitilde" unicode="~" 
d="M408 313q-25 5 -55 12q-5 1 -12 3t-17 4l-68 16q-39 9 -64.5 14.5t-39.5 5.5q-15 0 -23.5 -8.5t-8.5 -23.5v-16h-52v24q0 38 23 59t57 21q15 0 40 -5t55 -12q5 -1 12 -3t17 -4l68 -16l22 -5q8 -2 37.5 -8.5t44.5 -6.5t23.5 8.5t8.5 23.5v16h52v-24q0 -38 -23 -59t-57 -21
q-15 0 -40 5z" />
    <glyph glyph-name="uni00A0" unicode="&#xa0;" horiz-adv-x="220" 
 />
    <glyph glyph-name="exclamdown" unicode="&#xa1;" horiz-adv-x="208" 
d="M64 416v80h80v-80h-80zM136 -208h-64v56l12 440h40l12 -440v-56z" />
    <glyph glyph-name="cent" unicode="&#xa2;" 
d="M496 150q-67 -52 -156 -54v-96h-48v100q-56 10 -100.5 44.5t-70 88t-25.5 119.5q0 67 25 122t69.5 90.5t101.5 44.5v95h48v-92q49 -1 86 -15.5t74 -43.5l-28 -50q-26 25 -57 38.5t-75 14.5v-404q73 2 132 43zM194.5 226q38.5 -52 97.5 -68v394q-62 -14 -99 -67.5
t-37 -132.5q0 -74 38.5 -126z" />
    <glyph glyph-name="sterling" unicode="&#xa3;" 
d="M520 52v-52h-468v36q58 46 87 98t29 114q0 14 -1 20h-95v52h87q-5 20 -19 58q-16 41 -24 74t-8 76q0 52 25.5 95t73 68t109.5 25t110 -17t90 -56l-28 -43q-34 31 -78.5 45.5t-93.5 14.5q-69 0 -108.5 -36.5t-39.5 -99.5q0 -30 7 -58t20 -66q18 -52 23 -80h230v-52h-224
v-4q0 -138 -87 -212h383z" />
    <glyph glyph-name="currency" unicode="&#xa4;" 
d="M460 232l76 -76l-40 -40l-77 77q-51 -37 -121 -37t-121 37l-77 -77l-40 40l76 76q-40 51 -40 120t40 121l-76 79l40 40l77 -80q54 36 121 36q68 0 119 -35l79 79l40 -40l-78 -78q42 -51 42 -122q0 -69 -40 -120zM171 279q19 -33 52.5 -52t74.5 -19t74.5 19t52.5 52t19 73
t-19 73t-52.5 52t-74.5 19t-74.5 -19t-52.5 -52t-19 -73t19 -73z" />
    <glyph glyph-name="yen" unicode="&#xa5;" 
d="M588 704l-227 -356h159v-52h-190v-72h190v-52h-190v-172h-60v172h-194v52h194v72h-194v52h163l-231 356h68l223 -349l221 349h68z" />
    <glyph glyph-name="brokenbar" unicode="&#xa6;" horiz-adv-x="248" 
d="M96 764h56v-340h-56v340zM96 204h56v-352h-56v352z" />
    <glyph glyph-name="section" unicode="&#xa7;" 
d="M477 26.5q23 -34.5 23 -74.5q0 -48 -25.5 -86t-72.5 -60t-110 -22q-124 0 -205 64l27 50q41 -30 82.5 -44t95.5 -14q73 0 110.5 28.5t37.5 75.5q0 42 -28.5 70.5t-103.5 49.5l-84 24q-84 24 -122 66t-38 102q0 51 33.5 92t85.5 64q-47 25 -71 60t-24 76q0 48 25.5 86
t72.5 60t110 22q124 0 205 -64l-27 -50q-41 30 -82.5 44t-95.5 14q-73 0 -110.5 -28.5t-37.5 -75.5q0 -42 28.5 -70.5t103.5 -49.5l84 -24q84 -24 122 -66t38 -102q0 -53 -32 -94.5t-84 -63.5q46 -25 69 -59.5zM332 116l15 -4q61 22 89 56t28 72q0 48 -30.5 75t-93.5 45
l-84 24l-15 4q-61 -22 -89 -56t-28 -72q0 -48 30.5 -75t93.5 -45z" />
    <glyph glyph-name="dieresis" unicode="&#xa8;" horiz-adv-x="600" 
d="M172 692h60v-68h-60v68zM336 692h60v-68h-60v68z" />
    <glyph glyph-name="copyright" unicode="&#xa9;" horiz-adv-x="824" 
d="M221 37q-84 49 -130.5 132t-46.5 183t46.5 183t130.5 132t191 49t191 -49.5t130.5 -133t46.5 -181.5q0 -100 -46.5 -183t-130.5 -132t-191 -49t-191 49zM573 72.5q73 40.5 116 113t43 166.5t-43 166.5t-116 113t-161 40.5t-161 -40.5t-116 -113t-43 -166.5t43 -166.5
t116 -113t161 -40.5t161 40.5zM315.5 182q-45.5 26 -70.5 71t-25 99q0 53 25.5 98t71 71.5t103.5 26.5q83 0 149 -57l-29 -40q-51 45 -120 45q-39 0 -72 -18.5t-52.5 -51.5t-19.5 -74t19 -74t52 -51.5t73 -18.5q69 0 120 45l29 -40q-66 -57 -149 -57q-59 0 -104.5 26z" />
    <glyph glyph-name="ordfeminine" unicode="&#xaa;" horiz-adv-x="368" 
d="M285 680.5q35 -35.5 35 -96.5v-248h-28l-20 36q-21 -21 -55 -34.5t-69 -13.5q-58 0 -89 28.5t-31 75.5q0 53 42.5 80t129.5 44l72 13v15q0 42 -23.5 67t-72.5 25q-36 0 -63.5 -9.5t-51.5 -28.5l-22 34q23 22 60 35t77 13q74 0 109 -35.5zM272 412v114l-52 -10
q-82 -15 -113 -34.5t-31 -53.5q0 -26 18.5 -43t57.5 -17q69 0 120 44z" />
    <glyph glyph-name="guillemotleft" unicode="&#xab;" horiz-adv-x="464" 
d="M233 455l-149 -165l149 -165l-25 -38l-188 205l188 201zM253 290l151 -154l-25 -38l-187 194l187 190l24 -36z" />
    <glyph glyph-name="logicalnot" unicode="&#xac;" 
d="M456 336h-372v52h428v-192h-56v140z" />
    <glyph glyph-name="uni00AD" unicode="&#xad;" horiz-adv-x="356" 
d="M40 316h276v-52h-276v52z" />
    <glyph glyph-name="registered" unicode="&#xae;" horiz-adv-x="472" 
d="M340.5 690q45.5 -26 70.5 -71t25 -99t-25 -99t-70.5 -71t-104.5 -26t-104.5 26t-70.5 71t-25 99t25 99t70.5 71t104.5 26t104.5 -26zM320.5 373.5q38.5 21.5 61 59.5t22.5 87t-22.5 86t-61 57.5t-84.5 20.5t-84.5 -20.5t-61 -57.5t-22.5 -86t22.5 -87t61 -59.5
t84.5 -21.5t84.5 21.5zM304.5 525q-11.5 -15 -30.5 -22l58 -83h-44l-47 72h-37v-72h-40v208h72q33 0 56.5 -16.5t23.5 -47.5q0 -24 -11.5 -39zM204 528h32q17 0 28.5 7.5t11.5 24.5t-11.5 24.5t-28.5 7.5h-32v-64z" />
    <glyph glyph-name="macron" unicode="&#xaf;" horiz-adv-x="600" 
d="M172 672h276v-48h-276v48z" />
    <glyph glyph-name="degree" unicode="&#xb0;" horiz-adv-x="440" 
d="M125 380.5q-42 24.5 -65.5 66t-23.5 89.5q0 46 23 87.5t65 67t96 25.5q53 0 95 -24.5t65.5 -66t23.5 -89.5q0 -46 -23 -87.5t-65 -67t-96 -25.5q-53 0 -95 24.5zM283.5 425q29.5 17 47 46.5t17.5 64.5q0 37 -18.5 66t-48 45.5t-61.5 16.5q-34 0 -63.5 -17t-47 -46.5
t-17.5 -64.5q0 -37 18.5 -66t48 -45.5t61.5 -16.5q34 0 63.5 17z" />
    <glyph glyph-name="plusminus" unicode="&#xb1;" 
d="M328 444h184v-52h-184v-192h-56v192h-188v52h188v192h56v-192zM84 88v52h428v-52h-428z" />
    <glyph glyph-name="twosuperior" unicode="&#xb2;" horiz-adv-x="376" 
d="M336 540v-44h-292v24l152 136q35 33 49.5 56.5t14.5 47.5q0 32 -21.5 52t-66.5 20q-58 0 -108 -34l-21 36q63 42 129 42q67 0 101.5 -33t34.5 -79q0 -36 -17.5 -66.5t-62.5 -69.5l-101 -88h209z" />
    <glyph glyph-name="threesuperior" unicode="&#xb3;" horiz-adv-x="376" 
d="M310 653q18 -24 18 -57q0 -48 -36.5 -80t-107.5 -32q-79 0 -141 47l21 36q52 -39 120 -39q48 0 72 19.5t24 48.5q0 34 -29.5 51t-74.5 17h-52v40h52q42 0 67 17t25 47q0 27 -21 45.5t-63 18.5q-65 0 -111 -39l-21 35q31 26 65.5 37t66.5 11q65 0 98.5 -31t33.5 -77
q0 -23 -14 -45t-44 -35q34 -11 52 -35z" />
    <glyph glyph-name="acute" unicode="&#xb4;" horiz-adv-x="600" 
d="M260 564l84 140h64l-100 -144h-48v4z" />
    <glyph glyph-name="mu" unicode="&#xb5;" 
d="M593 16q-40 -28 -81 -28q-36 0 -60.5 17.5t-32.5 53.5q-23 -33 -61 -52t-90 -19q-46 0 -79 15.5t-50 44.5v-256h-56v704h60v-296q0 -160 129 -160q59 0 89.5 19t54.5 52v385h60v-404q0 -25 13.5 -38.5t30.5 -13.5q27 0 49 17z" />
    <glyph glyph-name="paragraph" unicode="&#xb6;" horiz-adv-x="636" 
d="M372 0h-56v288h-44q-60 0 -111 24t-82 71.5t-31 112.5q0 67 31 114t82 70.5t111 23.5h100v-704zM484 704h56v-704h-56v704z" />
    <glyph glyph-name="periodcentered" unicode="&#xb7;" horiz-adv-x="208" 
d="M64 404h80v-80h-80v80z" />
    <glyph glyph-name="cedilla" unicode="&#xb8;" horiz-adv-x="600" 
d="M293.5 -96.5q18.5 -18.5 18.5 -47.5q0 -34 -22.5 -53t-57.5 -19q-20 0 -38 7t-26 17l16 32q19 -16 44 -16q40 0 40 36q0 16 -13.5 26t-38.5 10h-16l40 108h32l-28 -77q31 -5 49.5 -23.5z" />
    <glyph glyph-name="onesuperior" unicode="&#xb9;" horiz-adv-x="376" 
d="M220 864h28v-368h-44v313l-144 -81l-20 32z" />
    <glyph glyph-name="ordmasculine" unicode="&#xba;" horiz-adv-x="424" 
d="M116 349.5q-43 25.5 -67.5 70.5t-24.5 100t24.5 100t67.5 70.5t96 25.5t96 -25.5t67.5 -70.5t24.5 -100t-24.5 -100t-67.5 -70.5t-96 -25.5t-96 25.5zM283 388.5q32 20.5 50.5 55t18.5 76.5t-18.5 76.5t-50.5 55t-71 20.5t-71 -20.5t-50.5 -55t-18.5 -76.5t18.5 -76.5
t50.5 -55t71 -20.5t71 20.5z" />
    <glyph glyph-name="guillemotright" unicode="&#xbb;" horiz-adv-x="464" 
d="M256 493l188 -201l-188 -205l-25 38l149 165l-149 165zM85 482l187 -190l-187 -194l-25 38l151 154l-150 156z" />
    <glyph glyph-name="onequarter" unicode="&#xbc;" horiz-adv-x="816" 
d="M236 704h28v-368h-44v313l-144 -81l-20 32zM612 704h52l-460 -704h-52zM744 124v-40h-68v-80h-44v80h-208v24l220 264h32v-248h68zM487 124h145v173z" />
    <glyph glyph-name="onehalf" unicode="&#xbd;" horiz-adv-x="816" 
d="M236 704h28v-368h-44v313l-144 -81l-20 32zM612 704h52l-460 -704h-52zM776 48v-44h-292v24l152 136q35 33 49.5 56.5t14.5 47.5q0 32 -21.5 52t-66.5 20q-58 0 -108 -34l-21 36q63 42 129 42q67 0 101.5 -33t34.5 -79q0 -36 -17.5 -66.5t-62.5 -69.5l-101 -88h209z" />
    <glyph glyph-name="threequarters" unicode="&#xbe;" horiz-adv-x="816" 
d="M310 493q18 -24 18 -57q0 -48 -36.5 -80t-107.5 -32q-79 0 -141 47l21 36q52 -39 120 -39q48 0 72 19.5t24 48.5q0 34 -29.5 51t-74.5 17h-52v40h52q42 0 67 17t25 47q0 27 -21 45.5t-63 18.5q-65 0 -111 -39l-21 35q31 26 65.5 37t66.5 11q65 0 98.5 -31t33.5 -77
q0 -23 -14 -45t-44 -35q34 -11 52 -35zM612 704h52l-460 -704h-52zM744 124v-40h-68v-80h-44v80h-208v24l220 264h32v-248h68zM487 124h145v173z" />
    <glyph glyph-name="questiondown" unicode="&#xbf;" horiz-adv-x="496" 
d="M308 496v-80h-80v80h80zM476 -136q-45 -41 -98.5 -62.5t-121.5 -21.5q-108 0 -162 53.5t-54 134.5q0 78 52 134t148 101v85h56v-116q-100 -45 -148 -91.5t-48 -112.5q0 -58 38.5 -95t117.5 -37q52 0 103 18.5t89 53.5z" />
    <glyph glyph-name="Agrave" unicode="&#xc0;" horiz-adv-x="696" 
d="M620 0l-86 196h-372l-86 -196h-64l316 716h40l316 -716h-64zM186 252h324l-162 369zM254 912h64l84 -140v-4h-48z" />
    <glyph glyph-name="Aacute" unicode="&#xc1;" horiz-adv-x="696" 
d="M620 0l-86 196h-372l-86 -196h-64l316 716h40l316 -716h-64zM186 252h324l-162 369zM294 772l84 140h64l-100 -144h-48v4z" />
    <glyph glyph-name="Acircumflex" unicode="&#xc2;" horiz-adv-x="696" 
d="M620 0l-86 196h-372l-86 -196h-64l316 716h40l316 -716h-64zM186 252h324l-162 369zM496 768h-60l-92 108l-92 -108h-56l120 144h60z" />
    <glyph glyph-name="Atilde" unicode="&#xc3;" horiz-adv-x="696" 
d="M620 0l-86 196h-372l-86 -196h-64l316 716h40l316 -716h-64zM186 252h324l-162 369zM368 802q-21 14 -49 39q-12 11 -23 19t-16 8q-12 0 -12 -12v-64h-44v56q0 35 11.5 51.5t40.5 16.5q19 0 38.5 -13t46.5 -37q13 -12 24.5 -21t18.5 -9q12 0 12 12v64h44v-56
q0 -35 -11.5 -51.5t-40.5 -16.5q-19 0 -40 14z" />
    <glyph glyph-name="Adieresis" unicode="&#xc4;" horiz-adv-x="696" 
d="M620 0l-86 196h-372l-86 -196h-64l316 716h40l316 -716h-64zM186 252h324l-162 369zM236 900h60v-68h-60v68zM400 900h60v-68h-60v68z" />
    <glyph glyph-name="Aring" unicode="&#xc5;" horiz-adv-x="696" 
d="M620 0l-86 196h-372l-86 -196h-64l316 716h40l316 -716h-64zM186 252h324l-162 369zM289 786.5q-25 22.5 -25 57.5t25 57.5t59 22.5t59 -22.5t25 -57.5t-25 -57.5t-59 -22.5t-59 22.5zM377 814.5q11 10.5 11 29.5q0 18 -11 29t-29 11t-29 -11t-11 -29t11 -29t29 -11
t29 10.5z" />
    <glyph glyph-name="AE" unicode="&#xc6;" horiz-adv-x="988" 
d="M544 56h388v-56h-448v172h-295l-113 -172h-64l464 704h440v-56h-372v-252h336v-56h-336v-284zM226 228h258v392z" />
    <glyph glyph-name="Ccedilla" unicode="&#xc7;" horiz-adv-x="660" 
d="M407 -12l-19 -53q31 -5 49.5 -23.5t18.5 -47.5q0 -34 -22.5 -53t-57.5 -19q-20 0 -38 7t-26 17l16 32q19 -16 44 -16q40 0 40 36q0 16 -13.5 26t-38.5 10h-16l32 85q-94 7 -169.5 57t-119 130.5t-43.5 175.5q0 100 47.5 183.5t130 132t182.5 48.5q129 0 219 -73l-27 -48
q-38 32 -88 48.5t-104 16.5q-84 0 -151.5 -40t-106 -110.5t-38.5 -157.5t38.5 -157.5t106 -110.5t151.5 -40q54 0 104.5 18.5t87.5 50.5l27 -49q-90 -75 -216 -76z" />
    <glyph glyph-name="Egrave" unicode="&#xc8;" horiz-adv-x="600" 
d="M156 56h388v-56h-448v704h432v-56h-372v-252h336v-56h-336v-284zM227 912h64l84 -140v-4h-48z" />
    <glyph glyph-name="Eacute" unicode="&#xc9;" horiz-adv-x="600" 
d="M156 56h388v-56h-448v704h432v-56h-372v-252h336v-56h-336v-284zM267 772l84 140h64l-100 -144h-48v4z" />
    <glyph glyph-name="Ecircumflex" unicode="&#xca;" horiz-adv-x="600" 
d="M156 56h388v-56h-448v704h432v-56h-372v-252h336v-56h-336v-284zM469 768h-60l-92 108l-92 -108h-56l120 144h60z" />
    <glyph glyph-name="Edieresis" unicode="&#xcb;" horiz-adv-x="600" 
d="M156 56h388v-56h-448v704h432v-56h-372v-252h336v-56h-336v-284zM209 900h60v-68h-60v68zM373 900h60v-68h-60v68z" />
    <glyph glyph-name="Igrave" unicode="&#xcc;" horiz-adv-x="252" 
d="M96 704h60v-704h-60v704zM34 912h64l84 -140v-4h-48z" />
    <glyph glyph-name="Iacute" unicode="&#xcd;" horiz-adv-x="252" 
d="M96 704h60v-704h-60v704zM74 772l84 140h64l-100 -144h-48v4z" />
    <glyph glyph-name="Icircumflex" unicode="&#xce;" horiz-adv-x="252" 
d="M96 704h60v-704h-60v704zM276 768h-60l-92 108l-92 -108h-56l120 144h60z" />
    <glyph glyph-name="Idieresis" unicode="&#xcf;" horiz-adv-x="252" 
d="M96 704h60v-704h-60v704zM16 900h60v-68h-60v68zM180 900h60v-68h-60v68z" />
    <glyph glyph-name="Eth" unicode="&#xd0;" horiz-adv-x="732" 
d="M507 660q84 -44 132.5 -124t48.5 -184t-49.5 -184t-134.5 -124t-188 -44h-220v328h-68v48h68v328h224q103 0 187 -44zM476 93.5q70 37.5 109 104.5t39 154t-39 154t-109 104.5t-160 37.5h-160v-272h208v-48h-208v-272h160q90 0 160 37.5z" />
    <glyph glyph-name="Ntilde" unicode="&#xd1;" horiz-adv-x="748" 
d="M592 704h60v-704h-36l-460 579v-579h-60v704h36l460 -579v579zM400 802q-21 14 -49 39q-12 11 -23 19t-16 8q-12 0 -12 -12v-64h-44v56q0 35 11.5 51.5t40.5 16.5q19 0 38.5 -13t46.5 -37q13 -12 24.5 -21t18.5 -9q12 0 12 12v64h44v-56q0 -35 -11.5 -51.5t-40.5 -16.5
q-19 0 -40 14z" />
    <glyph glyph-name="Ograve" unicode="&#xd2;" horiz-adv-x="808" 
d="M221 35.5q-82 47.5 -129.5 131t-47.5 185.5q0 103 46.5 186t129 130.5t184.5 47.5t184.5 -47.5t129 -130.5t46.5 -186t-46.5 -186t-129 -130.5t-184.5 -47.5q-101 0 -183 47.5zM556.5 84q67.5 40 105.5 110.5t38 157.5t-38 157.5t-105.5 110.5t-152.5 40
q-83 0 -150.5 -40t-106.5 -110.5t-39 -157.5t38 -157.5t105.5 -110.5t152.5 -40t152.5 40zM310 912h64l84 -140v-4h-48z" />
    <glyph glyph-name="Oacute" unicode="&#xd3;" horiz-adv-x="808" 
d="M221 35.5q-82 47.5 -129.5 131t-47.5 185.5q0 103 46.5 186t129 130.5t184.5 47.5t184.5 -47.5t129 -130.5t46.5 -186t-46.5 -186t-129 -130.5t-184.5 -47.5q-101 0 -183 47.5zM556.5 84q67.5 40 105.5 110.5t38 157.5t-38 157.5t-105.5 110.5t-152.5 40
q-83 0 -150.5 -40t-106.5 -110.5t-39 -157.5t38 -157.5t105.5 -110.5t152.5 -40t152.5 40zM350 772l84 140h64l-100 -144h-48v4z" />
    <glyph glyph-name="Ocircumflex" unicode="&#xd4;" horiz-adv-x="808" 
d="M221 35.5q-82 47.5 -129.5 131t-47.5 185.5q0 103 46.5 186t129 130.5t184.5 47.5t184.5 -47.5t129 -130.5t46.5 -186t-46.5 -186t-129 -130.5t-184.5 -47.5q-101 0 -183 47.5zM556.5 84q67.5 40 105.5 110.5t38 157.5t-38 157.5t-105.5 110.5t-152.5 40
q-83 0 -150.5 -40t-106.5 -110.5t-39 -157.5t38 -157.5t105.5 -110.5t152.5 -40t152.5 40zM552 768h-60l-92 108l-92 -108h-56l120 144h60z" />
    <glyph glyph-name="Otilde" unicode="&#xd5;" horiz-adv-x="808" 
d="M221 35.5q-82 47.5 -129.5 131t-47.5 185.5q0 103 46.5 186t129 130.5t184.5 47.5t184.5 -47.5t129 -130.5t46.5 -186t-46.5 -186t-129 -130.5t-184.5 -47.5q-101 0 -183 47.5zM556.5 84q67.5 40 105.5 110.5t38 157.5t-38 157.5t-105.5 110.5t-152.5 40
q-83 0 -150.5 -40t-106.5 -110.5t-39 -157.5t38 -157.5t105.5 -110.5t152.5 -40t152.5 40zM424 802q-21 14 -49 39q-12 11 -23 19t-16 8q-12 0 -12 -12v-64h-44v56q0 35 11.5 51.5t40.5 16.5q19 0 38.5 -13t46.5 -37q13 -12 24.5 -21t18.5 -9q12 0 12 12v64h44v-56
q0 -35 -11.5 -51.5t-40.5 -16.5q-19 0 -40 14z" />
    <glyph glyph-name="Odieresis" unicode="&#xd6;" horiz-adv-x="808" 
d="M221 35.5q-82 47.5 -129.5 131t-47.5 185.5q0 103 46.5 186t129 130.5t184.5 47.5t184.5 -47.5t129 -130.5t46.5 -186t-46.5 -186t-129 -130.5t-184.5 -47.5q-101 0 -183 47.5zM556.5 84q67.5 40 105.5 110.5t38 157.5t-38 157.5t-105.5 110.5t-152.5 40
q-83 0 -150.5 -40t-106.5 -110.5t-39 -157.5t38 -157.5t105.5 -110.5t152.5 -40t152.5 40zM292 900h60v-68h-60v68zM456 900h60v-68h-60v68z" />
    <glyph glyph-name="multiply" unicode="&#xd7;" 
d="M512 544l-176 -181l176 -183l-36 -36l-177 181l-175 -181l-40 36l177 183l-177 181l40 40l175 -182l177 182z" />
    <glyph glyph-name="Oslash" unicode="&#xd8;" horiz-adv-x="808" 
d="M734.5 502.5q29.5 -69.5 29.5 -150.5q0 -103 -46.5 -186t-129 -130.5t-184.5 -47.5q-60 0 -114.5 17.5t-99.5 50.5l-46 -56h-64l72 88q-51 50 -79.5 118t-28.5 146q0 103 46.5 186t129 130.5t184.5 47.5q119 0 210 -63l42 51h64l-68 -83q53 -49 82.5 -118.5zM129.5 231.5
q21.5 -55.5 60.5 -97.5l386 473q-73 53 -172 53q-83 0 -150.5 -40t-106.5 -110.5t-39 -157.5q0 -65 21.5 -120.5zM556.5 84q67.5 40 105.5 110.5t38 157.5q0 66 -22.5 123t-63.5 100l-387 -474q76 -57 177 -57q85 0 152.5 40z" />
    <glyph glyph-name="Ugrave" unicode="&#xd9;" horiz-adv-x="760" 
d="M232 24.5q-68 36.5 -108 104t-40 155.5v420h60v-420q0 -76 32.5 -130t86 -82t117.5 -28t118 26.5t86 80.5t32 133v420h60v-420q0 -88 -40 -155.5t-108 -104t-148 -36.5t-148 36.5zM286 912h64l84 -140v-4h-48z" />
    <glyph glyph-name="Uacute" unicode="&#xda;" horiz-adv-x="760" 
d="M232 24.5q-68 36.5 -108 104t-40 155.5v420h60v-420q0 -76 32.5 -130t86 -82t117.5 -28t118 26.5t86 80.5t32 133v420h60v-420q0 -88 -40 -155.5t-108 -104t-148 -36.5t-148 36.5zM326 772l84 140h64l-100 -144h-48v4z" />
    <glyph glyph-name="Ucircumflex" unicode="&#xdb;" horiz-adv-x="760" 
d="M232 24.5q-68 36.5 -108 104t-40 155.5v420h60v-420q0 -76 32.5 -130t86 -82t117.5 -28t118 26.5t86 80.5t32 133v420h60v-420q0 -88 -40 -155.5t-108 -104t-148 -36.5t-148 36.5zM528 768h-60l-92 108l-92 -108h-56l120 144h60z" />
    <glyph glyph-name="Udieresis" unicode="&#xdc;" horiz-adv-x="760" 
d="M232 24.5q-68 36.5 -108 104t-40 155.5v420h60v-420q0 -76 32.5 -130t86 -82t117.5 -28t118 26.5t86 80.5t32 133v420h60v-420q0 -88 -40 -155.5t-108 -104t-148 -36.5t-148 36.5zM268 900h60v-68h-60v68zM432 900h60v-68h-60v68z" />
    <glyph glyph-name="Yacute" unicode="&#xdd;" horiz-adv-x="632" 
d="M560 704h68l-280 -432v-272h-60v272l-284 432h68l245 -378zM262 772l84 140h64l-100 -144h-48v4z" />
    <glyph glyph-name="Thorn" unicode="&#xde;" horiz-adv-x="608" 
d="M446.5 537q51.5 -23 82.5 -68.5t31 -108.5t-31 -108.5t-82.5 -68.5t-110.5 -23h-180v-160h-60v704h60v-144h180q59 0 110.5 -23zM453.5 256.5q42.5 40.5 42.5 103.5t-42.5 103.5t-117.5 40.5h-180v-288h180q75 0 117.5 40.5z" />
    <glyph glyph-name="germandbls" unicode="&#xdf;" horiz-adv-x="564" 
d="M495.5 312.5q36.5 -49.5 36.5 -112.5q0 -66 -27.5 -114t-74 -73t-102.5 -25q-39 0 -72.5 8.5t-63.5 29.5l30 51q49 -33 106 -33q65 0 104.5 40t39.5 112q0 70 -49 111t-147 41h-56v52h56q65 0 104.5 37.5t39.5 94.5t-39 92.5t-97 35.5q-69 0 -106.5 -39.5t-37.5 -112.5
v-508h-60v448h-76v48h76v12q0 98 55 153t149 55q64 0 108 -27t66 -68t22 -85q0 -48 -23 -89t-69 -64q71 -21 107.5 -70.5z" />
    <glyph glyph-name="agrave" unicode="&#xe0;" horiz-adv-x="464" 
d="M356 460q44 -48 44 -128v-332h-32l-28 48q-25 -27 -68.5 -43.5t-87.5 -16.5q-73 0 -114.5 37t-41.5 99q0 70 60.5 108.5t171.5 59.5l80 15v21q0 57 -29.5 92.5t-94.5 35.5q-81 0 -144 -51l-26 38q30 29 77.5 47t92.5 18q96 0 140 -48zM275 55q38 15 65 41v164l-64 -12
q-83 -15 -135.5 -42.5t-52.5 -79.5q0 -40 25.5 -63t78.5 -23q45 0 83 15zM114 704h64l84 -140v-4h-48z" />
    <glyph glyph-name="aacute" unicode="&#xe1;" horiz-adv-x="464" 
d="M356 460q44 -48 44 -128v-332h-32l-28 48q-25 -27 -68.5 -43.5t-87.5 -16.5q-73 0 -114.5 37t-41.5 99q0 70 60.5 108.5t171.5 59.5l80 15v21q0 57 -29.5 92.5t-94.5 35.5q-81 0 -144 -51l-26 38q30 29 77.5 47t92.5 18q96 0 140 -48zM275 55q38 15 65 41v164l-64 -12
q-83 -15 -135.5 -42.5t-52.5 -79.5q0 -40 25.5 -63t78.5 -23q45 0 83 15zM154 564l84 140h64l-100 -144h-48v4z" />
    <glyph glyph-name="acircumflex" unicode="&#xe2;" horiz-adv-x="464" 
d="M356 460q44 -48 44 -128v-332h-32l-28 48q-25 -27 -68.5 -43.5t-87.5 -16.5q-73 0 -114.5 37t-41.5 99q0 70 60.5 108.5t171.5 59.5l80 15v21q0 57 -29.5 92.5t-94.5 35.5q-81 0 -144 -51l-26 38q30 29 77.5 47t92.5 18q96 0 140 -48zM275 55q38 15 65 41v164l-64 -12
q-83 -15 -135.5 -42.5t-52.5 -79.5q0 -40 25.5 -63t78.5 -23q45 0 83 15zM356 560h-60l-92 108l-92 -108h-56l120 144h60z" />
    <glyph glyph-name="atilde" unicode="&#xe3;" horiz-adv-x="464" 
d="M356 460q44 -48 44 -128v-332h-32l-28 48q-25 -27 -68.5 -43.5t-87.5 -16.5q-73 0 -114.5 37t-41.5 99q0 70 60.5 108.5t171.5 59.5l80 15v21q0 57 -29.5 92.5t-94.5 35.5q-81 0 -144 -51l-26 38q30 29 77.5 47t92.5 18q96 0 140 -48zM275 55q38 15 65 41v164l-64 -12
q-83 -15 -135.5 -42.5t-52.5 -79.5q0 -40 25.5 -63t78.5 -23q45 0 83 15zM228 594q-21 14 -49 39q-12 11 -23 19t-16 8q-12 0 -12 -12v-64h-44v56q0 35 11.5 51.5t40.5 16.5q19 0 38.5 -13t46.5 -37q13 -12 24.5 -21t18.5 -9q12 0 12 12v64h44v-56q0 -35 -11.5 -51.5
t-40.5 -16.5q-19 0 -40 14z" />
    <glyph glyph-name="adieresis" unicode="&#xe4;" horiz-adv-x="464" 
d="M356 460q44 -48 44 -128v-332h-32l-28 48q-25 -27 -68.5 -43.5t-87.5 -16.5q-73 0 -114.5 37t-41.5 99q0 70 60.5 108.5t171.5 59.5l80 15v21q0 57 -29.5 92.5t-94.5 35.5q-81 0 -144 -51l-26 38q30 29 77.5 47t92.5 18q96 0 140 -48zM275 55q38 15 65 41v164l-64 -12
q-83 -15 -135.5 -42.5t-52.5 -79.5q0 -40 25.5 -63t78.5 -23q45 0 83 15zM96 692h60v-68h-60v68zM260 692h60v-68h-60v68z" />
    <glyph glyph-name="aring" unicode="&#xe5;" horiz-adv-x="464" 
d="M356 460q44 -48 44 -128v-332h-32l-28 48q-25 -27 -68.5 -43.5t-87.5 -16.5q-73 0 -114.5 37t-41.5 99q0 70 60.5 108.5t171.5 59.5l80 15v21q0 57 -29.5 92.5t-94.5 35.5q-81 0 -144 -51l-26 38q30 29 77.5 47t92.5 18q96 0 140 -48zM275 55q38 15 65 41v164l-64 -12
q-83 -15 -135.5 -42.5t-52.5 -79.5q0 -40 25.5 -63t78.5 -23q45 0 83 15zM149 578.5q-25 22.5 -25 57.5t25 57.5t59 22.5t59 -22.5t25 -57.5t-25 -57.5t-59 -22.5t-59 22.5zM237 606.5q11 10.5 11 29.5q0 18 -11 29t-29 11t-29 -11t-11 -29t11 -29t29 -11t29 10.5z" />
    <glyph glyph-name="ae" unicode="&#xe6;" horiz-adv-x="812" 
d="M400 236q0 -53 22.5 -98t63.5 -71.5t94 -26.5q96 0 155 69l37 -37q-30 -38 -79.5 -61t-112.5 -23q-66 0 -116 26t-80 73q-35 -45 -88 -72t-112 -27q-71 0 -113.5 36.5t-42.5 95.5q0 70 58.5 109.5t177.5 62.5l76 15v21q0 57 -29.5 92.5t-94.5 35.5q-81 0 -144 -51l-26 38
q30 29 77.5 47t92.5 18q134 0 171 -97q30 45 76.5 71t104.5 26q70 0 117.5 -31.5t71 -85t23.5 -119.5v-24h-380v-12zM457 410q-44 -46 -54 -118h320q-5 79 -47.5 121.5t-107.5 42.5q-67 0 -111 -46zM281.5 60.5q47.5 20.5 80.5 68.5q-22 53 -22 119v8l-64 -12
q-100 -20 -144 -46t-44 -74q0 -38 25.5 -61t74.5 -23q46 0 93.5 20.5z" />
    <glyph glyph-name="ccedilla" unicode="&#xe7;" horiz-adv-x="452" 
d="M285 -8l-21 -57q31 -5 49.5 -23.5t18.5 -47.5q0 -34 -22.5 -53t-57.5 -19q-20 0 -38 7t-26 17l16 32q19 -16 44 -16q40 0 40 36q0 16 -13.5 26t-38.5 10h-16l33 89q-62 4 -112.5 37.5t-79.5 90t-29 127.5q0 76 30 135t84 92t122 33q52 0 91 -14t77 -44l-27 -51
q-27 26 -60.5 39.5t-80.5 13.5q-79 0 -127.5 -56t-48.5 -148q0 -58 24.5 -104t65.5 -71t90 -25q79 0 136 43l24 -45q-65 -49 -147 -54z" />
    <glyph glyph-name="egrave" unicode="&#xe8;" horiz-adv-x="504" 
d="M92 236q0 -54 23 -99t64 -71t93 -26q93 0 156 72l36 -36q-31 -39 -80.5 -63.5t-111.5 -24.5q-76 0 -130 35t-82 94.5t-28 130.5q0 70 27.5 129.5t79.5 95t121 35.5q70 0 117.5 -31.5t71 -85t23.5 -119.5v-24h-380v-12zM149 410q-44 -46 -54 -118h320q-5 79 -47.5 121.5
t-107.5 42.5q-67 0 -111 -46zM162 704h64l84 -140v-4h-48z" />
    <glyph glyph-name="eacute" unicode="&#xe9;" horiz-adv-x="504" 
d="M92 236q0 -54 23 -99t64 -71t93 -26q93 0 156 72l36 -36q-31 -39 -80.5 -63.5t-111.5 -24.5q-76 0 -130 35t-82 94.5t-28 130.5q0 70 27.5 129.5t79.5 95t121 35.5q70 0 117.5 -31.5t71 -85t23.5 -119.5v-24h-380v-12zM149 410q-44 -46 -54 -118h320q-5 79 -47.5 121.5
t-107.5 42.5q-67 0 -111 -46zM202 564l84 140h64l-100 -144h-48v4z" />
    <glyph glyph-name="ecircumflex" unicode="&#xea;" horiz-adv-x="504" 
d="M92 236q0 -54 23 -99t64 -71t93 -26q93 0 156 72l36 -36q-31 -39 -80.5 -63.5t-111.5 -24.5q-76 0 -130 35t-82 94.5t-28 130.5q0 70 27.5 129.5t79.5 95t121 35.5q70 0 117.5 -31.5t71 -85t23.5 -119.5v-24h-380v-12zM149 410q-44 -46 -54 -118h320q-5 79 -47.5 121.5
t-107.5 42.5q-67 0 -111 -46zM404 560h-60l-92 108l-92 -108h-56l120 144h60z" />
    <glyph glyph-name="edieresis" unicode="&#xeb;" horiz-adv-x="504" 
d="M92 236q0 -54 23 -99t64 -71t93 -26q93 0 156 72l36 -36q-31 -39 -80.5 -63.5t-111.5 -24.5q-76 0 -130 35t-82 94.5t-28 130.5q0 70 27.5 129.5t79.5 95t121 35.5q70 0 117.5 -31.5t71 -85t23.5 -119.5v-24h-380v-12zM149 410q-44 -46 -54 -118h320q-5 79 -47.5 121.5
t-107.5 42.5q-67 0 -111 -46zM144 692h60v-68h-60v68zM308 692h60v-68h-60v68z" />
    <glyph glyph-name="igrave" unicode="&#xec;" horiz-adv-x="196" 
d="M68 496h60v-496h-60v496zM6 704h64l84 -140v-4h-48z" />
    <glyph glyph-name="iacute" unicode="&#xed;" horiz-adv-x="196" 
d="M68 496h60v-496h-60v496zM46 564l84 140h64l-100 -144h-48v4z" />
    <glyph glyph-name="icircumflex" unicode="&#xee;" horiz-adv-x="196" 
d="M68 496h60v-496h-60v496zM248 560h-60l-92 108l-92 -108h-56l120 144h60z" />
    <glyph glyph-name="idieresis" unicode="&#xef;" horiz-adv-x="196" 
d="M68 496h60v-496h-60v496zM-12 692h60v-68h-60v68zM152 692h60v-68h-60v68z" />
    <glyph glyph-name="eth" unicode="&#xf0;" horiz-adv-x="548" 
d="M474.5 470.5q41.5 -89.5 41.5 -198.5q0 -85 -31.5 -149.5t-87 -99.5t-125.5 -35t-124.5 30t-85 83.5t-30.5 122.5t30.5 122.5t83.5 83.5t118 30q53 0 100 -19t79 -55q-29 118 -118 196l-89 -98l-32 28l87 96q-56 39 -123 63l23 45q76 -24 136 -68l65 72l32 -28l-63 -70
q72 -62 113.5 -151.5zM367.5 70.5q41.5 30.5 65 83t23.5 118.5q0 17 -2 47q-28 38 -81 63.5t-109 25.5q-46 0 -85.5 -23.5t-63 -65.5t-23.5 -95q0 -82 49.5 -133t130.5 -51q54 0 95.5 30.5z" />
    <glyph glyph-name="ntilde" unicode="&#xf1;" horiz-adv-x="524" 
d="M280 594q-21 14 -49 39q-12 11 -23 19t-16 8q-12 0 -12 -12v-64h-44v56q0 35 11.5 51.5t40.5 16.5q19 0 38.5 -13t46.5 -37q13 -12 24.5 -21t18.5 -9q12 0 12 12v64h44v-56q0 -35 -11.5 -51.5t-40.5 -16.5q-19 0 -40 14zM411 454.5q49 -53.5 49 -138.5v-316h-60v312
q0 71 -36 107.5t-100 36.5q-45 0 -77.5 -17.5t-58.5 -50.5v-388h-60v496h28l32 -56q32 36 66.5 52t77.5 16q90 0 139 -53.5z" />
    <glyph glyph-name="ograve" unicode="&#xf2;" horiz-adv-x="552" 
d="M151 22.5q-56 34.5 -87.5 94t-31.5 131.5t31.5 131.5t87.5 94t125 34.5t125 -34.5t87.5 -94t31.5 -131.5t-31.5 -131.5t-87.5 -94t-125 -34.5t-125 34.5zM371 68q42 28 65.5 75.5t23.5 104.5t-23.5 104.5t-65.5 75.5t-95 28t-95 -27.5t-65.5 -75t-23.5 -105.5
q0 -57 23.5 -104.5t65.5 -75.5t95 -28t95 28zM182 704h64l84 -140v-4h-48z" />
    <glyph glyph-name="oacute" unicode="&#xf3;" horiz-adv-x="552" 
d="M151 22.5q-56 34.5 -87.5 94t-31.5 131.5t31.5 131.5t87.5 94t125 34.5t125 -34.5t87.5 -94t31.5 -131.5t-31.5 -131.5t-87.5 -94t-125 -34.5t-125 34.5zM371 68q42 28 65.5 75.5t23.5 104.5t-23.5 104.5t-65.5 75.5t-95 28t-95 -27.5t-65.5 -75t-23.5 -105.5
q0 -57 23.5 -104.5t65.5 -75.5t95 -28t95 28zM222 564l84 140h64l-100 -144h-48v4z" />
    <glyph glyph-name="ocircumflex" unicode="&#xf4;" horiz-adv-x="552" 
d="M151 22.5q-56 34.5 -87.5 94t-31.5 131.5t31.5 131.5t87.5 94t125 34.5t125 -34.5t87.5 -94t31.5 -131.5t-31.5 -131.5t-87.5 -94t-125 -34.5t-125 34.5zM371 68q42 28 65.5 75.5t23.5 104.5t-23.5 104.5t-65.5 75.5t-95 28t-95 -27.5t-65.5 -75t-23.5 -105.5
q0 -57 23.5 -104.5t65.5 -75.5t95 -28t95 28zM424 560h-60l-92 108l-92 -108h-56l120 144h60z" />
    <glyph glyph-name="otilde" unicode="&#xf5;" horiz-adv-x="552" 
d="M151 22.5q-56 34.5 -87.5 94t-31.5 131.5t31.5 131.5t87.5 94t125 34.5t125 -34.5t87.5 -94t31.5 -131.5t-31.5 -131.5t-87.5 -94t-125 -34.5t-125 34.5zM371 68q42 28 65.5 75.5t23.5 104.5t-23.5 104.5t-65.5 75.5t-95 28t-95 -27.5t-65.5 -75t-23.5 -105.5
q0 -57 23.5 -104.5t65.5 -75.5t95 -28t95 28zM296 594q-21 14 -49 39q-12 11 -23 19t-16 8q-12 0 -12 -12v-64h-44v56q0 35 11.5 51.5t40.5 16.5q19 0 38.5 -13t46.5 -37q13 -12 24.5 -21t18.5 -9q12 0 12 12v64h44v-56q0 -35 -11.5 -51.5t-40.5 -16.5q-19 0 -40 14z" />
    <glyph glyph-name="odieresis" unicode="&#xf6;" horiz-adv-x="552" 
d="M151 22.5q-56 34.5 -87.5 94t-31.5 131.5t31.5 131.5t87.5 94t125 34.5t125 -34.5t87.5 -94t31.5 -131.5t-31.5 -131.5t-87.5 -94t-125 -34.5t-125 34.5zM371 68q42 28 65.5 75.5t23.5 104.5t-23.5 104.5t-65.5 75.5t-95 28t-95 -27.5t-65.5 -75t-23.5 -105.5
q0 -57 23.5 -104.5t65.5 -75.5t95 -28t95 28zM164 692h60v-68h-60v68zM328 692h60v-68h-60v68z" />
    <glyph glyph-name="divide" unicode="&#xf7;" 
d="M260 560h80v-80h-80v80zM84 392h428v-56h-428v56zM260 248h80v-80h-80v80z" />
    <glyph glyph-name="oslash" unicode="&#xf8;" horiz-adv-x="552" 
d="M501.5 350.5q18.5 -47.5 18.5 -102.5q0 -72 -31.5 -131.5t-87.5 -94t-125 -34.5q-83 0 -146 49l-30 -37h-60l56 69q-30 35 -47 81t-17 98q0 72 31.5 131.5t87.5 94t125 34.5q77 0 139 -43l25 31h60l-50 -62q33 -36 51.5 -83.5zM133 115l247 307q-47 34 -104 34
q-53 0 -95 -27.5t-65.5 -75t-23.5 -105.5q0 -76 41 -133zM371 68q42 28 65.5 75.5t23.5 104.5q0 40 -12 76.5t-34 64.5l-249 -309q48 -40 111 -40q53 0 95 28z" />
    <glyph glyph-name="ugrave" unicode="&#xf9;" horiz-adv-x="524" 
d="M456 496v-496h-28l-32 56q-33 -36 -67.5 -52t-76.5 -16q-90 0 -139 54t-49 138v316h60v-312q0 -71 36 -107.5t100 -36.5q45 0 77.5 17.5t58.5 50.5v388h60zM170 704h64l84 -140v-4h-48z" />
    <glyph glyph-name="uacute" unicode="&#xfa;" horiz-adv-x="524" 
d="M456 496v-496h-28l-32 56q-33 -36 -67.5 -52t-76.5 -16q-90 0 -139 54t-49 138v316h60v-312q0 -71 36 -107.5t100 -36.5q45 0 77.5 17.5t58.5 50.5v388h60zM210 564l84 140h64l-100 -144h-48v4z" />
    <glyph glyph-name="ucircumflex" unicode="&#xfb;" horiz-adv-x="524" 
d="M456 496v-496h-28l-32 56q-33 -36 -67.5 -52t-76.5 -16q-90 0 -139 54t-49 138v316h60v-312q0 -71 36 -107.5t100 -36.5q45 0 77.5 17.5t58.5 50.5v388h60zM412 560h-60l-92 108l-92 -108h-56l120 144h60z" />
    <glyph glyph-name="udieresis" unicode="&#xfc;" horiz-adv-x="524" 
d="M456 496v-496h-28l-32 56q-33 -36 -67.5 -52t-76.5 -16q-90 0 -139 54t-49 138v316h60v-312q0 -71 36 -107.5t100 -36.5q45 0 77.5 17.5t58.5 50.5v388h60zM152 692h60v-68h-60v68zM316 692h60v-68h-60v68z" />
    <glyph glyph-name="yacute" unicode="&#xfd;" horiz-adv-x="480" 
d="M420 496h60l-312 -704h-60l108 238l-216 466h64l181 -401zM198 564l84 140h64l-100 -144h-48v4z" />
    <glyph glyph-name="thorn" unicode="&#xfe;" horiz-adv-x="540" 
d="M394 473.5q53 -34.5 83.5 -94t30.5 -131.5t-30 -131.5t-84 -94t-122 -34.5q-94 0 -144 50v-246h-60v912h60v-255q26 26 67 42.5t81 16.5q65 0 118 -34.5zM358 66q41 26 65.5 73.5t24.5 108.5q0 58 -22 105.5t-62.5 75t-95.5 27.5q-43 0 -76.5 -16t-63.5 -47v-294
q28 -28 61.5 -43.5t78.5 -15.5q49 0 90 26z" />
    <glyph glyph-name="ydieresis" unicode="&#xff;" horiz-adv-x="480" 
d="M420 496h60l-312 -704h-60l108 238l-216 466h64l181 -401zM140 692h60v-68h-60v68zM304 692h60v-68h-60v68z" />
    <glyph glyph-name="Amacron" unicode="&#x100;" horiz-adv-x="696" 
d="M620 0l-86 196h-372l-86 -196h-64l316 716h40l316 -716h-64zM186 252h324l-162 369zM208 876h276v-48h-276v48z" />
    <glyph glyph-name="amacron" unicode="&#x101;" horiz-adv-x="464" 
d="M356 460q44 -48 44 -128v-332h-32l-28 48q-25 -27 -68.5 -43.5t-87.5 -16.5q-73 0 -114.5 37t-41.5 99q0 70 60.5 108.5t171.5 59.5l80 15v21q0 57 -29.5 92.5t-94.5 35.5q-81 0 -144 -51l-26 38q30 29 77.5 47t92.5 18q96 0 140 -48zM275 55q38 15 65 41v164l-64 -12
q-83 -15 -135.5 -42.5t-52.5 -79.5q0 -40 25.5 -63t78.5 -23q45 0 83 15zM68 672h276v-48h-276v48z" />
    <glyph glyph-name="Abreve" unicode="&#x102;" horiz-adv-x="696" 
d="M620 0l-86 196h-372l-86 -196h-64l316 716h40l316 -716h-64zM186 252h324l-162 369zM255.5 816q-36.5 36 -39.5 96h48q2 -40 23.5 -61.5t60.5 -21.5q36 0 57.5 21.5t22.5 61.5h48q-4 -60 -39.5 -96t-88.5 -36q-56 0 -92.5 36z" />
    <glyph glyph-name="abreve" unicode="&#x103;" horiz-adv-x="464" 
d="M356 460q44 -48 44 -128v-332h-32l-28 48q-25 -27 -68.5 -43.5t-87.5 -16.5q-73 0 -114.5 37t-41.5 99q0 70 60.5 108.5t171.5 59.5l80 15v21q0 57 -29.5 92.5t-94.5 35.5q-81 0 -144 -51l-26 38q30 29 77.5 47t92.5 18q96 0 140 -48zM275 55q38 15 65 41v164l-64 -12
q-83 -15 -135.5 -42.5t-52.5 -79.5q0 -40 25.5 -63t78.5 -23q45 0 83 15zM115.5 608q-36.5 36 -39.5 96h48q2 -40 23.5 -61.5t60.5 -21.5q36 0 57.5 21.5t22.5 61.5h48q-4 -60 -39.5 -96t-88.5 -36q-56 0 -92.5 36z" />
    <glyph glyph-name="Aogonek" unicode="&#x104;" horiz-adv-x="696" 
d="M612 -152l24 -36q-29 -28 -68 -28q-36 0 -58 18.5t-22 54.5q0 41 31.5 85.5t88.5 77.5l4 -1l-78 177h-372l-86 -196h-64l316 716h40l316 -716h-49q-95 -71 -95 -133q0 -17 8.5 -26t23.5 -9q24 0 40 16zM186 252h324l-162 369z" />
    <glyph glyph-name="aogonek" unicode="&#x105;" horiz-adv-x="464" 
d="M356 460q44 -48 44 -128v-332h-11q-89 -69 -89 -129q0 -17 8.5 -26t23.5 -9q24 0 40 16l24 -36q-29 -28 -68 -28q-36 0 -58 18.5t-22 54.5q0 40 28.5 82t81.5 75l-18 30q-25 -27 -68.5 -43.5t-87.5 -16.5q-73 0 -114.5 37t-41.5 99q0 70 60.5 108.5t171.5 59.5l80 15v21
q0 57 -29.5 92.5t-94.5 35.5q-81 0 -144 -51l-26 38q30 29 77.5 47t92.5 18q96 0 140 -48zM275 55q38 15 65 41v164l-64 -12q-83 -15 -135.5 -42.5t-52.5 -79.5q0 -40 25.5 -63t78.5 -23q45 0 83 15z" />
    <glyph glyph-name="Cacute" unicode="&#x106;" horiz-adv-x="660" 
d="M221.5 36.5q-82.5 48.5 -130 132t-47.5 183.5t47.5 183.5t130 132t182.5 48.5q129 0 219 -73l-27 -48q-38 32 -88 48.5t-104 16.5q-84 0 -151.5 -40t-106 -110.5t-38.5 -157.5t38.5 -157.5t106 -110.5t151.5 -40q54 0 104.5 18.5t87.5 50.5l27 -49q-92 -76 -219 -76
q-100 0 -182.5 48.5zM330 772l84 140h64l-100 -144h-48v4z" />
    <glyph glyph-name="cacute" unicode="&#x107;" horiz-adv-x="452" 
d="M150.5 24.5q-54.5 32.5 -86.5 90.5t-32 133q0 76 30 135t84 92t122 33q52 0 91 -14t77 -44l-27 -51q-27 26 -60.5 39.5t-80.5 13.5q-79 0 -127.5 -56t-48.5 -148q0 -58 24.5 -104t65.5 -71t90 -25q79 0 136 43l24 -45q-72 -54 -160 -54q-67 0 -121.5 32.5zM210 564
l84 140h64l-100 -144h-48v4z" />
    <glyph glyph-name="Ccircumflex" unicode="&#x108;" horiz-adv-x="660" 
d="M221.5 36.5q-82.5 48.5 -130 132t-47.5 183.5t47.5 183.5t130 132t182.5 48.5q129 0 219 -73l-27 -48q-38 32 -88 48.5t-104 16.5q-84 0 -151.5 -40t-106 -110.5t-38.5 -157.5t38.5 -157.5t106 -110.5t151.5 -40q54 0 104.5 18.5t87.5 50.5l27 -49q-92 -76 -219 -76
q-100 0 -182.5 48.5zM532 768h-60l-92 108l-92 -108h-56l120 144h60z" />
    <glyph glyph-name="ccircumflex" unicode="&#x109;" horiz-adv-x="452" 
d="M150.5 24.5q-54.5 32.5 -86.5 90.5t-32 133q0 76 30 135t84 92t122 33q52 0 91 -14t77 -44l-27 -51q-27 26 -60.5 39.5t-80.5 13.5q-79 0 -127.5 -56t-48.5 -148q0 -58 24.5 -104t65.5 -71t90 -25q79 0 136 43l24 -45q-72 -54 -160 -54q-67 0 -121.5 32.5zM412 560h-60
l-92 108l-92 -108h-56l120 144h60z" />
    <glyph glyph-name="Cdotaccent" unicode="&#x10a;" horiz-adv-x="660" 
d="M221.5 36.5q-82.5 48.5 -130 132t-47.5 183.5t47.5 183.5t130 132t182.5 48.5q129 0 219 -73l-27 -48q-38 32 -88 48.5t-104 16.5q-84 0 -151.5 -40t-106 -110.5t-38.5 -157.5t38.5 -157.5t106 -110.5t151.5 -40q54 0 104.5 18.5t87.5 50.5l27 -49q-92 -76 -219 -76
q-100 0 -182.5 48.5zM352 896h60v-64h-60v64z" />
    <glyph glyph-name="cdotaccent" unicode="&#x10b;" horiz-adv-x="452" 
d="M150.5 24.5q-54.5 32.5 -86.5 90.5t-32 133q0 76 30 135t84 92t122 33q52 0 91 -14t77 -44l-27 -51q-27 26 -60.5 39.5t-80.5 13.5q-79 0 -127.5 -56t-48.5 -148q0 -58 24.5 -104t65.5 -71t90 -25q79 0 136 43l24 -45q-72 -54 -160 -54q-67 0 -121.5 32.5zM232 688h60
v-64h-60v64z" />
    <glyph glyph-name="Ccaron" unicode="&#x10c;" horiz-adv-x="660" 
d="M221.5 36.5q-82.5 48.5 -130 132t-47.5 183.5t47.5 183.5t130 132t182.5 48.5q129 0 219 -73l-27 -48q-38 32 -88 48.5t-104 16.5q-84 0 -151.5 -40t-106 -110.5t-38.5 -157.5t38.5 -157.5t106 -110.5t151.5 -40q54 0 104.5 18.5t87.5 50.5l27 -49q-92 -76 -219 -76
q-100 0 -182.5 48.5zM476 912h56l-120 -144h-60l-120 144h60l92 -108z" />
    <glyph glyph-name="ccaron" unicode="&#x10d;" horiz-adv-x="452" 
d="M150.5 24.5q-54.5 32.5 -86.5 90.5t-32 133q0 76 30 135t84 92t122 33q52 0 91 -14t77 -44l-27 -51q-27 26 -60.5 39.5t-80.5 13.5q-79 0 -127.5 -56t-48.5 -148q0 -58 24.5 -104t65.5 -71t90 -25q79 0 136 43l24 -45q-72 -54 -160 -54q-67 0 -121.5 32.5zM356 704h56
l-120 -144h-60l-120 144h60l92 -108z" />
    <glyph glyph-name="Dcaron" unicode="&#x10e;" horiz-adv-x="732" 
d="M507 660q84 -44 132.5 -124t48.5 -184t-49.5 -184t-134.5 -124t-188 -44h-220v704h224q103 0 187 -44zM476 93.5q70 37.5 109 104.5t39 154t-39 154t-109 104.5t-160 37.5h-160v-592h160q90 0 160 37.5zM420 912h56l-120 -144h-60l-120 144h60l92 -108z" />
    <glyph glyph-name="dcaron" unicode="&#x10f;" horiz-adv-x="528" 
d="M472 704v-704h-32l-28 47q-26 -26 -66.5 -42.5t-81.5 -16.5q-65 0 -118 34.5t-83.5 94t-30.5 131.5t30 131.5t84 94t122 34.5q94 0 144 -50v246h60zM348.5 56q33.5 16 63.5 47v294q-28 28 -61.5 43.5t-78.5 15.5q-49 0 -90 -26t-65.5 -73.5t-24.5 -108.5q0 -58 22 -105.5
t62.5 -75t95.5 -27.5q43 0 76.5 16zM502 704h53q-5 -67 -20 -140l-5 -28h-38q7 72 10 168z" />
    <glyph glyph-name="Dcroat" unicode="&#x110;" horiz-adv-x="732" 
d="M507 660q84 -44 132.5 -124t48.5 -184t-49.5 -184t-134.5 -124t-188 -44h-220v328h-68v48h68v328h224q103 0 187 -44zM476 93.5q70 37.5 109 104.5t39 154t-39 154t-109 104.5t-160 37.5h-160v-272h208v-48h-208v-272h160q90 0 160 37.5z" />
    <glyph glyph-name="dcroat" unicode="&#x111;" horiz-adv-x="540" 
d="M528 588h-56v-588h-32l-28 47q-26 -26 -66.5 -42.5t-81.5 -16.5q-65 0 -118 34.5t-83.5 94t-30.5 131.5t30 131.5t84 94t122 34.5q94 0 144 -50v130h-168v44h168v72h60v-72h56v-44zM348.5 56q33.5 16 63.5 47v294q-28 28 -61.5 43.5t-78.5 15.5q-49 0 -90 -26
t-65.5 -73.5t-24.5 -108.5q0 -58 22 -105.5t62.5 -75t95.5 -27.5q43 0 76.5 16z" />
    <glyph glyph-name="Emacron" unicode="&#x112;" horiz-adv-x="600" 
d="M156 56h388v-56h-448v704h432v-56h-372v-252h336v-56h-336v-284zM181 876h276v-48h-276v48z" />
    <glyph glyph-name="emacron" unicode="&#x113;" horiz-adv-x="504" 
d="M92 236q0 -54 23 -99t64 -71t93 -26q93 0 156 72l36 -36q-31 -39 -80.5 -63.5t-111.5 -24.5q-76 0 -130 35t-82 94.5t-28 130.5q0 70 27.5 129.5t79.5 95t121 35.5q70 0 117.5 -31.5t71 -85t23.5 -119.5v-24h-380v-12zM149 410q-44 -46 -54 -118h320q-5 79 -47.5 121.5
t-107.5 42.5q-67 0 -111 -46zM116 672h276v-48h-276v48z" />
    <glyph glyph-name="Ebreve" unicode="&#x114;" horiz-adv-x="600" 
d="M156 56h388v-56h-448v704h432v-56h-372v-252h336v-56h-336v-284zM228.5 816q-36.5 36 -39.5 96h48q2 -40 23.5 -61.5t60.5 -21.5q36 0 57.5 21.5t22.5 61.5h48q-4 -60 -39.5 -96t-88.5 -36q-56 0 -92.5 36z" />
    <glyph glyph-name="ebreve" unicode="&#x115;" horiz-adv-x="504" 
d="M92 236q0 -54 23 -99t64 -71t93 -26q93 0 156 72l36 -36q-31 -39 -80.5 -63.5t-111.5 -24.5q-76 0 -130 35t-82 94.5t-28 130.5q0 70 27.5 129.5t79.5 95t121 35.5q70 0 117.5 -31.5t71 -85t23.5 -119.5v-24h-380v-12zM149 410q-44 -46 -54 -118h320q-5 79 -47.5 121.5
t-107.5 42.5q-67 0 -111 -46zM163.5 608q-36.5 36 -39.5 96h48q2 -40 23.5 -61.5t60.5 -21.5q36 0 57.5 21.5t22.5 61.5h48q-4 -60 -39.5 -96t-88.5 -36q-56 0 -92.5 36z" />
    <glyph glyph-name="Edotaccent" unicode="&#x116;" horiz-adv-x="600" 
d="M156 56h388v-56h-448v704h432v-56h-372v-252h336v-56h-336v-284zM289 896h60v-64h-60v64z" />
    <glyph glyph-name="edotaccent" unicode="&#x117;" horiz-adv-x="504" 
d="M92 236q0 -54 23 -99t64 -71t93 -26q93 0 156 72l36 -36q-31 -39 -80.5 -63.5t-111.5 -24.5q-76 0 -130 35t-82 94.5t-28 130.5q0 70 27.5 129.5t79.5 95t121 35.5q70 0 117.5 -31.5t71 -85t23.5 -119.5v-24h-380v-12zM149 410q-44 -46 -54 -118h320q-5 79 -47.5 121.5
t-107.5 42.5q-67 0 -111 -46zM224 688h60v-64h-60v64z" />
    <glyph glyph-name="Eogonek" unicode="&#x118;" horiz-adv-x="600" 
d="M388 -133q0 -17 8.5 -26t23.5 -9q24 0 40 16l24 -36q-29 -28 -68 -28q-36 0 -58 18.5t-22 54.5q0 35 23 73t66 70h-329v704h432v-56h-372v-252h336v-56h-336v-284h388v-56h-61q-95 -71 -95 -133z" />
    <glyph glyph-name="eogonek" unicode="&#x119;" horiz-adv-x="504" 
d="M92 236q0 -53 22.5 -98t63.5 -71.5t94 -26.5q96 0 155 69l37 -37q-14 -17 -32 -32q-77 -64 -100.5 -103t-23.5 -73q0 -15 8.5 -23.5t23.5 -8.5q24 0 40 16l24 -36q-29 -28 -68 -28q-38 0 -59 18.5t-21 53.5q0 27 19 62.5t57 75.5q-28 -6 -60 -6q-77 0 -131 35t-81.5 94
t-27.5 131q0 70 28 129.5t80 95t120 35.5q70 0 117.5 -31.5t71 -85t23.5 -119.5v-24h-380v-12zM149 410q-44 -46 -54 -118h320q-5 79 -47.5 121.5t-107.5 42.5q-67 0 -111 -46z" />
    <glyph glyph-name="Ecaron" unicode="&#x11a;" horiz-adv-x="600" 
d="M156 56h388v-56h-448v704h432v-56h-372v-252h336v-56h-336v-284zM413 912h56l-120 -144h-60l-120 144h60l92 -108z" />
    <glyph glyph-name="ecaron" unicode="&#x11b;" horiz-adv-x="504" 
d="M92 236q0 -54 23 -99t64 -71t93 -26q93 0 156 72l36 -36q-31 -39 -80.5 -63.5t-111.5 -24.5q-76 0 -130 35t-82 94.5t-28 130.5q0 70 27.5 129.5t79.5 95t121 35.5q70 0 117.5 -31.5t71 -85t23.5 -119.5v-24h-380v-12zM149 410q-44 -46 -54 -118h320q-5 79 -47.5 121.5
t-107.5 42.5q-67 0 -111 -46zM348 704h56l-120 -144h-60l-120 144h60l92 -108z" />
    <glyph glyph-name="Gcircumflex" unicode="&#x11c;" horiz-adv-x="764" 
d="M684 0h-28l-28 49q-50 -31 -104 -46t-120 -15q-104 0 -186 48t-128 131t-46 185q0 104 47.5 187t131.5 130t189 47q155 0 272 -95l-31 -47q-44 39 -110.5 62.5t-138.5 23.5q-90 0 -157 -40.5t-103 -111t-36 -156.5q0 -88 39 -158t107.5 -110t153.5 -40q140 0 216 60v212
h-240v56h300v-372zM548 784h-60l-92 108l-92 -108h-56l120 144h60z" />
    <glyph glyph-name="gcircumflex" unicode="&#x11d;" horiz-adv-x="540" 
d="M472 496v-504q0 -60 -26.5 -107.5t-77.5 -74t-120 -26.5q-50 0 -95.5 15t-75.5 41l26 49q25 -22 63.5 -35.5t77.5 -13.5q77 0 122.5 37t45.5 115v55q-26 -29 -65 -44t-83 -15q-64 0 -117.5 35.5t-84 95.5t-30.5 129t30.5 129t84 95.5t121.5 35.5q87 0 148 -53l24 41h32z
M349 56.5q33 16.5 63 50.5v290q-28 28 -61.5 43.5t-78.5 15.5q-49 0 -90 -27.5t-65.5 -75t-24.5 -105.5q0 -56 22 -103.5t63 -76t95 -28.5q44 0 77 16.5zM416 560h-60l-92 108l-92 -108h-56l120 144h60z" />
    <glyph glyph-name="Gbreve" unicode="&#x11e;" horiz-adv-x="764" 
d="M684 0h-28l-28 49q-50 -31 -104 -46t-120 -15q-104 0 -186 48t-128 131t-46 185q0 104 47.5 187t131.5 130t189 47q155 0 272 -95l-31 -47q-44 39 -110.5 62.5t-138.5 23.5q-90 0 -157 -40.5t-103 -111t-36 -156.5q0 -88 39 -158t107.5 -110t153.5 -40q140 0 216 60v212
h-240v56h300v-372zM307.5 832q-36.5 36 -39.5 96h48q2 -40 23.5 -61.5t60.5 -21.5q36 0 57.5 21.5t22.5 61.5h48q-4 -60 -39.5 -96t-88.5 -36q-56 0 -92.5 36z" />
    <glyph glyph-name="gbreve" unicode="&#x11f;" horiz-adv-x="540" 
d="M472 496v-504q0 -60 -26.5 -107.5t-77.5 -74t-120 -26.5q-50 0 -95.5 15t-75.5 41l26 49q25 -22 63.5 -35.5t77.5 -13.5q77 0 122.5 37t45.5 115v55q-26 -29 -65 -44t-83 -15q-64 0 -117.5 35.5t-84 95.5t-30.5 129t30.5 129t84 95.5t121.5 35.5q87 0 148 -53l24 41h32z
M349 56.5q33 16.5 63 50.5v290q-28 28 -61.5 43.5t-78.5 15.5q-49 0 -90 -27.5t-65.5 -75t-24.5 -105.5q0 -56 22 -103.5t63 -76t95 -28.5q44 0 77 16.5zM175.5 608q-36.5 36 -39.5 96h48q2 -40 23.5 -61.5t60.5 -21.5q36 0 57.5 21.5t22.5 61.5h48q-4 -60 -39.5 -96
t-88.5 -36q-56 0 -92.5 36z" />
    <glyph glyph-name="Gdotaccent" unicode="&#x120;" horiz-adv-x="764" 
d="M684 0h-28l-28 49q-50 -31 -104 -46t-120 -15q-104 0 -186 48t-128 131t-46 185q0 104 47.5 187t131.5 130t189 47q155 0 272 -95l-31 -47q-44 39 -110.5 62.5t-138.5 23.5q-90 0 -157 -40.5t-103 -111t-36 -156.5q0 -88 39 -158t107.5 -110t153.5 -40q140 0 216 60v212
h-240v56h300v-372zM368 912h60v-64h-60v64z" />
    <glyph glyph-name="gdotaccent" unicode="&#x121;" horiz-adv-x="540" 
d="M472 496v-504q0 -60 -26.5 -107.5t-77.5 -74t-120 -26.5q-50 0 -95.5 15t-75.5 41l26 49q25 -22 63.5 -35.5t77.5 -13.5q77 0 122.5 37t45.5 115v55q-26 -29 -65 -44t-83 -15q-64 0 -117.5 35.5t-84 95.5t-30.5 129t30.5 129t84 95.5t121.5 35.5q87 0 148 -53l24 41h32z
M349 56.5q33 16.5 63 50.5v290q-28 28 -61.5 43.5t-78.5 15.5q-49 0 -90 -27.5t-65.5 -75t-24.5 -105.5q0 -56 22 -103.5t63 -76t95 -28.5q44 0 77 16.5zM236 688h60v-64h-60v64z" />
    <glyph glyph-name="Gcommaaccent" unicode="&#x122;" horiz-adv-x="764" 
d="M684 0h-28l-28 49q-50 -31 -104 -46t-120 -15q-104 0 -186 48t-128 131t-46 185q0 104 47.5 187t131.5 130t189 47q155 0 272 -95l-31 -47q-44 39 -110.5 62.5t-138.5 23.5q-90 0 -157 -40.5t-103 -111t-36 -156.5q0 -88 39 -158t107.5 -110t153.5 -40q140 0 216 60v212
h-240v56h300v-372zM458 -80v-68q0 -22 -9.5 -48.5t-26.5 -51.5h-36q32 53 32 96v8h-24v64h64z" />
    <glyph glyph-name="gcommaaccent" unicode="&#x123;" horiz-adv-x="540" 
d="M472 496v-504q0 -60 -26.5 -107.5t-77.5 -74t-120 -26.5q-50 0 -95.5 15t-75.5 41l26 49q25 -22 63.5 -35.5t77.5 -13.5q77 0 122.5 37t45.5 115v55q-26 -29 -65 -44t-83 -15q-64 0 -117.5 35.5t-84 95.5t-30.5 129t30.5 129t84 95.5t121.5 35.5q87 0 148 -53l24 41h32z
M349 56.5q33 16.5 63 50.5v290q-28 28 -61.5 43.5t-78.5 15.5q-49 0 -90 -27.5t-65.5 -75t-24.5 -105.5q0 -56 22 -103.5t63 -76t95 -28.5q44 0 77 16.5zM276 640h28v-64h-64v68q0 22 9 48t27 52h36q-34 -51 -36 -100v-4z" />
    <glyph glyph-name="Hcircumflex" unicode="&#x124;" horiz-adv-x="752" 
d="M596 704h60v-704h-60v336h-440v-336h-60v704h60v-312h440v312zM524 768h-60l-92 108l-92 -108h-56l120 144h60z" />
    <glyph glyph-name="hcircumflex" unicode="&#x125;" horiz-adv-x="524" 
d="M411 454.5q49 -53.5 49 -138.5v-316h-60v312q0 71 -36 107.5t-100 36.5q-44 0 -74.5 -17t-61.5 -51v-388h-60v704h60v-264q32 36 66.5 52t77.5 16q90 0 139 -53.5zM252 772h-60l-92 108l-92 -108h-56l120 144h60z" />
    <glyph glyph-name="Hbar" unicode="&#x126;" horiz-adv-x="752" 
d="M724 576v-48h-68v-528h-60v336h-440v-336h-60v528h-68v48h68v128h60v-128h440v128h60v-128h68zM596 392v136h-440v-136h440z" />
    <glyph glyph-name="hbar" unicode="&#x127;" horiz-adv-x="524" 
d="M411 454.5q49 -53.5 49 -138.5v-316h-60v312q0 71 -36 107.5t-100 36.5q-44 0 -74.5 -17t-61.5 -51v-388h-60v588h-48v44h48v72h60v-72h176v-44h-176v-148q32 36 66.5 52t77.5 16q90 0 139 -53.5z" />
    <glyph glyph-name="Itilde" unicode="&#x128;" horiz-adv-x="252" 
d="M96 704h60v-704h-60v704zM148 802q-21 14 -49 39q-12 11 -23 19t-16 8q-12 0 -12 -12v-64h-44v56q0 35 11.5 51.5t40.5 16.5q19 0 38.5 -13t46.5 -37q13 -12 24.5 -21t18.5 -9q12 0 12 12v64h44v-56q0 -35 -11.5 -51.5t-40.5 -16.5q-19 0 -40 14z" />
    <glyph glyph-name="itilde" unicode="&#x129;" horiz-adv-x="196" 
d="M68 496h60v-496h-60v496zM120 594q-21 14 -49 39q-12 11 -23 19t-16 8q-12 0 -12 -12v-64h-44v56q0 35 11.5 51.5t40.5 16.5q19 0 38.5 -13t46.5 -37q13 -12 24.5 -21t18.5 -9q12 0 12 12v64h44v-56q0 -35 -11.5 -51.5t-40.5 -16.5q-19 0 -40 14z" />
    <glyph glyph-name="Imacron" unicode="&#x12a;" horiz-adv-x="252" 
d="M96 704h60v-704h-60v704zM-12 876h276v-48h-276v48z" />
    <glyph glyph-name="imacron" unicode="&#x12b;" horiz-adv-x="196" 
d="M68 496h60v-496h-60v496zM-40 672h276v-48h-276v48z" />
    <glyph glyph-name="Ibreve" unicode="&#x12c;" horiz-adv-x="252" 
d="M96 704h60v-704h-60v704zM35.5 816q-36.5 36 -39.5 96h48q2 -40 23.5 -61.5t60.5 -21.5q36 0 57.5 21.5t22.5 61.5h48q-4 -60 -39.5 -96t-88.5 -36q-56 0 -92.5 36z" />
    <glyph glyph-name="ibreve" unicode="&#x12d;" horiz-adv-x="196" 
d="M68 496h60v-496h-60v496zM7.5 608q-36.5 36 -39.5 96h48q2 -40 23.5 -61.5t60.5 -21.5q36 0 57.5 21.5t22.5 61.5h48q-4 -60 -39.5 -96t-88.5 -36q-56 0 -92.5 36z" />
    <glyph glyph-name="Iogonek" unicode="&#x12e;" horiz-adv-x="252" 
d="M156 704v-704h-5q-95 -71 -95 -133q0 -17 8.5 -26t23.5 -9q24 0 40 16l24 -36q-29 -28 -68 -28q-36 0 -58 18.5t-22 54.5t24 75t68 70v702h60z" />
    <glyph glyph-name="iogonek" unicode="&#x12f;" horiz-adv-x="196" 
d="M128 688v-64h-60v64h60zM147 -188q-14 -14 -33 -21t-38 -7q-36 0 -57 18.5t-21 54.5q0 53 83 143h-13v496h60v-496q-46 -49 -61.5 -78t-15.5 -58q0 -15 8.5 -23.5t23.5 -8.5q24 0 40 16z" />
    <glyph glyph-name="Idotaccent" unicode="&#x130;" horiz-adv-x="252" 
d="M96 704h60v-704h-60v704zM96 896h60v-64h-60v64z" />
    <glyph glyph-name="dotlessi" unicode="&#x131;" horiz-adv-x="196" 
d="M68 496h60v-496h-60v496z" />
    <glyph glyph-name="IJ" unicode="&#x132;" horiz-adv-x="632" 
d="M96 704h60v-704h-60v704zM199 70l44 26q23 -29 52 -42.5t69 -13.5q59 0 91.5 35.5t32.5 96.5v532h60v-528q0 -55 -23.5 -98t-65.5 -66.5t-95 -23.5q-110 0 -165 82z" />
    <glyph glyph-name="ij" unicode="&#x133;" horiz-adv-x="392" 
d="M68 688h60v-64h-60v64zM264 688h60v-64h-60v64zM68 496h60v-496h-60v496zM216 -164q21 0 34.5 14.5t13.5 41.5v604h60v-604q0 -48 -30.5 -78t-81.5 -30q-35 0 -66 20l27 45q16 -13 43 -13z" />
    <glyph glyph-name="Jcircumflex" unicode="&#x134;" horiz-adv-x="460" 
d="M83.5 2.5q-41.5 14.5 -71.5 41.5l29 46q25 -23 58.5 -36.5t72.5 -13.5q69 0 106.5 40t37.5 108v516h60v-512q0 -92 -54 -148t-150 -56q-47 0 -88.5 14.5zM494 768h-60l-92 108l-92 -108h-56l120 144h60z" />
    <glyph glyph-name="jcircumflex" unicode="&#x135;" horiz-adv-x="196" 
d="M20 -164q21 0 34.5 14.5t13.5 41.5v604h60v-604q0 -48 -30.5 -78t-81.5 -30q-35 0 -66 20l27 45q16 -13 43 -13zM248 560h-60l-92 108l-92 -108h-56l120 144h60z" />
    <glyph glyph-name="Kcommaaccent" unicode="&#x136;" horiz-adv-x="660" 
d="M660 0h-72l-283 348l-149 -160v-188h-60v704h60v-445l408 445h72l-294 -316zM394 -80v-68q0 -22 -9.5 -48.5t-26.5 -51.5h-36q32 53 32 96v8h-24v64h64z" />
    <glyph glyph-name="kcommaaccent" unicode="&#x137;" horiz-adv-x="484" 
d="M492 0h-72l-194 245l-98 -101v-144h-60v704h60v-491l268 283h72l-205 -212h1zM305 -80v-68q0 -22 -9.5 -48.5t-26.5 -51.5h-36q32 53 32 96v8h-24v64h64z" />
    <glyph glyph-name="kgreenlandic" unicode="&#x138;" horiz-adv-x="484" 
d="M492 0h-72l-194 245l-98 -101v-144h-60v496h60v-283l268 283h72l-205 -212h1z" />
    <glyph glyph-name="Lacute" unicode="&#x139;" horiz-adv-x="548" 
d="M156 56h376v-56h-436v704h60v-648zM94 772l84 140h64l-100 -144h-48v4z" />
    <glyph glyph-name="lacute" unicode="&#x13a;" horiz-adv-x="196" 
d="M68 704h60v-704h-60v704zM76 772l84 140h64l-100 -144h-48v4z" />
    <glyph glyph-name="Lcommaaccent" unicode="&#x13b;" horiz-adv-x="548" 
d="M156 56h376v-56h-436v704h60v-648zM354 -80v-68q0 -22 -9.5 -48.5t-26.5 -51.5h-36q32 53 32 96v8h-24v64h64z" />
    <glyph glyph-name="lcommaaccent" unicode="&#x13c;" horiz-adv-x="196" 
d="M68 704h60v-704h-60v704zM130 -80v-68q0 -22 -9.5 -48.5t-26.5 -51.5h-36q32 53 32 96v8h-24v64h64z" />
    <glyph glyph-name="Lcaron" unicode="&#x13d;" horiz-adv-x="548" 
d="M156 56h376v-56h-436v704h60v-648zM272 704h53q-3 -55 -11.5 -114t-18.5 -104h-38q14 118 15 218z" />
    <glyph glyph-name="lcaron" unicode="&#x13e;" horiz-adv-x="196" 
d="M68 704h60v-704h-60v704zM170 704h53q-5 -67 -20 -140l-5 -28h-38q7 72 10 168z" />
    <glyph glyph-name="Ldot" unicode="&#x13f;" horiz-adv-x="548" 
d="M156 56h376v-56h-436v704h60v-648zM356 424h80v-80h-80v80z" />
    <glyph glyph-name="ldot" unicode="&#x140;" horiz-adv-x="292" 
d="M68 704h60v-704h-60v704zM204 400h80v-80h-80v80z" />
    <glyph glyph-name="Lslash" unicode="&#x141;" horiz-adv-x="548" 
d="M156 56h376v-56h-436v294l-80 -50v52l80 50v358h60v-320l184 116v-52l-184 -116v-276z" />
    <glyph glyph-name="lslash" unicode="&#x142;" horiz-adv-x="196" 
d="M216 520v-52l-88 -55v-413h-60v376l-84 -52v52l84 52v276h60v-239z" />
    <glyph glyph-name="Nacute" unicode="&#x143;" horiz-adv-x="748" 
d="M592 704h60v-704h-36l-460 579v-579h-60v704h36l460 -579v579zM326 772l84 140h64l-100 -144h-48v4z" />
    <glyph glyph-name="nacute" unicode="&#x144;" horiz-adv-x="524" 
d="M204 564l84 140h64l-100 -144h-48v4zM411 454.5q49 -53.5 49 -138.5v-316h-60v312q0 71 -36 107.5t-100 36.5q-45 0 -77.5 -17.5t-58.5 -50.5v-388h-60v496h28l32 -56q32 36 66.5 52t77.5 16q90 0 139 -53.5z" />
    <glyph glyph-name="Ncommaaccent" unicode="&#x145;" horiz-adv-x="748" 
d="M592 704h60v-704h-36l-460 579v-579h-60v704h36l460 -579v579zM414 -80v-68q0 -22 -9.5 -48.5t-26.5 -51.5h-36q32 53 32 96v8h-24v64h64z" />
    <glyph glyph-name="ncommaaccent" unicode="&#x146;" horiz-adv-x="524" 
d="M411 454.5q49 -53.5 49 -138.5v-316h-60v312q0 71 -36 107.5t-100 36.5q-45 0 -77.5 -17.5t-58.5 -50.5v-388h-60v496h28l32 -56q32 36 66.5 52t77.5 16q90 0 139 -53.5zM298 -80v-68q0 -22 -9.5 -48.5t-26.5 -51.5h-36q32 53 32 96v8h-24v64h64z" />
    <glyph glyph-name="Ncaron" unicode="&#x147;" horiz-adv-x="748" 
d="M592 704h60v-704h-36l-460 579v-579h-60v704h36l460 -579v579zM472 912h56l-120 -144h-60l-120 144h60l92 -108z" />
    <glyph glyph-name="ncaron" unicode="&#x148;" horiz-adv-x="524" 
d="M411 454.5q49 -53.5 49 -138.5v-316h-60v312q0 71 -36 107.5t-100 36.5q-45 0 -77.5 -17.5t-58.5 -50.5v-388h-60v496h28l32 -56q32 36 66.5 52t77.5 16q90 0 139 -53.5zM352 704h56l-120 -144h-60l-120 144h60l92 -108z" />
    <glyph glyph-name="napostrophe" unicode="&#x149;" horiz-adv-x="740" 
d="M144 704v-76q-2 -38 -32 -84h-40q32 52 32 84v12h-24v64h64zM627 454.5q49 -53.5 49 -138.5v-316h-60v312q0 71 -36 107.5t-100 36.5q-45 0 -77.5 -17.5t-58.5 -50.5v-388h-60v496h28l32 -56q32 36 66.5 52t77.5 16q90 0 139 -53.5z" />
    <glyph glyph-name="Eng" unicode="&#x14a;" horiz-adv-x="748" 
d="M652 704v-800q0 -51 -31 -85.5t-81 -34.5q-51 0 -87 29l28 47q23 -20 51 -20q32 0 46 15t14 49v126l-436 550v-580h-60v704h36l460 -580v580h60z" />
    <glyph glyph-name="eng" unicode="&#x14b;" horiz-adv-x="524" 
d="M411 454.5q49 -53.5 49 -138.5v-424q0 -48 -30.5 -78t-81.5 -30q-35 0 -66 20l27 45q16 -13 43 -13q21 0 34.5 14.5t13.5 41.5v420q0 71 -36 107.5t-100 36.5q-45 0 -77.5 -17.5t-58.5 -50.5v-388h-60v496h28l32 -56q32 36 66.5 52t77.5 16q90 0 139 -53.5z" />
    <glyph glyph-name="Omacron" unicode="&#x14c;" horiz-adv-x="808" 
d="M221 35.5q-82 47.5 -129.5 131t-47.5 185.5q0 103 46.5 186t129 130.5t184.5 47.5t184.5 -47.5t129 -130.5t46.5 -186t-46.5 -186t-129 -130.5t-184.5 -47.5q-101 0 -183 47.5zM556.5 84q67.5 40 105.5 110.5t38 157.5t-38 157.5t-105.5 110.5t-152.5 40
q-83 0 -150.5 -40t-106.5 -110.5t-39 -157.5t38 -157.5t105.5 -110.5t152.5 -40t152.5 40zM264 876h276v-48h-276v48z" />
    <glyph glyph-name="omacron" unicode="&#x14d;" horiz-adv-x="552" 
d="M151 22.5q-56 34.5 -87.5 94t-31.5 131.5t31.5 131.5t87.5 94t125 34.5t125 -34.5t87.5 -94t31.5 -131.5t-31.5 -131.5t-87.5 -94t-125 -34.5t-125 34.5zM371 68q42 28 65.5 75.5t23.5 104.5t-23.5 104.5t-65.5 75.5t-95 28t-95 -27.5t-65.5 -75t-23.5 -105.5
q0 -57 23.5 -104.5t65.5 -75.5t95 -28t95 28zM136 672h276v-48h-276v48z" />
    <glyph glyph-name="Obreve" unicode="&#x14e;" horiz-adv-x="808" 
d="M221 35.5q-82 47.5 -129.5 131t-47.5 185.5q0 103 46.5 186t129 130.5t184.5 47.5t184.5 -47.5t129 -130.5t46.5 -186t-46.5 -186t-129 -130.5t-184.5 -47.5q-101 0 -183 47.5zM556.5 84q67.5 40 105.5 110.5t38 157.5t-38 157.5t-105.5 110.5t-152.5 40
q-83 0 -150.5 -40t-106.5 -110.5t-39 -157.5t38 -157.5t105.5 -110.5t152.5 -40t152.5 40zM311.5 816q-36.5 36 -39.5 96h48q2 -40 23.5 -61.5t60.5 -21.5q36 0 57.5 21.5t22.5 61.5h48q-4 -60 -39.5 -96t-88.5 -36q-56 0 -92.5 36z" />
    <glyph glyph-name="obreve" unicode="&#x14f;" horiz-adv-x="552" 
d="M151 22.5q-56 34.5 -87.5 94t-31.5 131.5t31.5 131.5t87.5 94t125 34.5t125 -34.5t87.5 -94t31.5 -131.5t-31.5 -131.5t-87.5 -94t-125 -34.5t-125 34.5zM371 68q42 28 65.5 75.5t23.5 104.5t-23.5 104.5t-65.5 75.5t-95 28t-95 -27.5t-65.5 -75t-23.5 -105.5
q0 -57 23.5 -104.5t65.5 -75.5t95 -28t95 28zM183.5 608q-36.5 36 -39.5 96h48q2 -40 23.5 -61.5t60.5 -21.5q36 0 57.5 21.5t22.5 61.5h48q-4 -60 -39.5 -96t-88.5 -36q-56 0 -92.5 36z" />
    <glyph glyph-name="Ohungarumlaut" unicode="&#x150;" horiz-adv-x="808" 
d="M221 35.5q-82 47.5 -129.5 131t-47.5 185.5q0 103 46.5 186t129 130.5t184.5 47.5t184.5 -47.5t129 -130.5t46.5 -186t-46.5 -186t-129 -130.5t-184.5 -47.5q-101 0 -183 47.5zM556.5 84q67.5 40 105.5 110.5t38 157.5t-38 157.5t-105.5 110.5t-152.5 40
q-83 0 -150.5 -40t-106.5 -110.5t-39 -157.5t38 -157.5t105.5 -110.5t152.5 -40t152.5 40zM316 772l92 140h60l-108 -144h-44v4zM432 772l92 140h64l-116 -144h-40v4z" />
    <glyph glyph-name="ohungarumlaut" unicode="&#x151;" horiz-adv-x="552" 
d="M151 22.5q-56 34.5 -87.5 94t-31.5 131.5t31.5 131.5t87.5 94t125 34.5t125 -34.5t87.5 -94t31.5 -131.5t-31.5 -131.5t-87.5 -94t-125 -34.5t-125 34.5zM371 68q42 28 65.5 75.5t23.5 104.5t-23.5 104.5t-65.5 75.5t-95 28t-95 -27.5t-65.5 -75t-23.5 -105.5
q0 -57 23.5 -104.5t65.5 -75.5t95 -28t95 28zM188 564l92 140h60l-108 -144h-44v4zM304 564l92 140h64l-116 -144h-40v4z" />
    <glyph glyph-name="OE" unicode="&#x152;" horiz-adv-x="1028" 
d="M972 56v-56h-448q-54 -12 -112 -12q-103 0 -187 47.5t-132.5 131t-48.5 185.5t48.5 185.5t132.5 131t187 47.5q58 0 112 -12h432v-56h-372v-252h336v-56h-336v-284h388zM524 56v592q-48 12 -108 12q-87 0 -157.5 -40t-110.5 -110.5t-40 -157.5t40 -157.5t110.5 -110.5
t157.5 -40q60 0 108 12z" />
    <glyph glyph-name="oe" unicode="&#x153;" horiz-adv-x="932" 
d="M520 236q0 -53 22.5 -98t63.5 -71.5t94 -26.5q96 0 155 69l37 -37q-30 -38 -79.5 -61t-112.5 -23q-78 0 -131.5 36t-80.5 98q-30 -62 -85.5 -98t-126.5 -36q-69 0 -125 34.5t-87.5 94t-31.5 131.5t31.5 131.5t87.5 94t125 34.5q71 0 127 -36.5t86 -98.5q27 62 78 98.5
t121 36.5t117.5 -31.5t71 -85t23.5 -119.5v-24h-380v-12zM372 67.5q42 27.5 65 75.5t23 105t-23.5 104.5t-65.5 75.5t-95 28t-95 -28t-65.5 -75.5t-23.5 -104.5t23.5 -104.5t65.5 -75.5t95 -28q54 0 96 27.5zM577 410q-44 -46 -54 -118h320q-5 79 -47.5 121.5t-107.5 42.5
q-67 0 -111 -46z" />
    <glyph glyph-name="Racute" unicode="&#x154;" horiz-adv-x="612" 
d="M528 0l-234 288h-138v-288h-60v704h212q66 0 117 -27t79 -74t28 -107q0 -79 -46.5 -132t-126.5 -67l241 -297h-72zM156 344h148q76 0 122 40.5t46 111.5q0 68 -45.5 110t-118.5 42h-152v-304zM237 772l84 140h64l-100 -144h-48v4z" />
    <glyph glyph-name="racute" unicode="&#x155;" horiz-adv-x="344" 
d="M336 488l-24 -44q-18 12 -60 12q-85 0 -124 -61v-395h-60v496h32l26 -45q18 27 52.5 42t73.5 15q49 0 84 -20zM153 564l84 140h64l-100 -144h-48v4z" />
    <glyph glyph-name="Rcommaaccent" unicode="&#x156;" horiz-adv-x="612" 
d="M528 0l-234 288h-138v-288h-60v704h212q66 0 117 -27t79 -74t28 -107q0 -79 -46.5 -132t-126.5 -67l241 -297h-72zM156 344h148q76 0 122 40.5t46 111.5q0 68 -45.5 110t-118.5 42h-152v-304zM350 -80v-68q0 -22 -9.5 -48.5t-26.5 -51.5h-36q32 53 32 96v8h-24v64h64z
" />
    <glyph glyph-name="rcommaaccent" unicode="&#x157;" horiz-adv-x="344" 
d="M336 488l-24 -44q-18 12 -60 12q-85 0 -124 -61v-395h-60v496h32l26 -45q18 27 52.5 42t73.5 15q49 0 84 -20zM136 -80v-68q0 -22 -9.5 -48.5t-26.5 -51.5h-36q32 53 32 96v8h-24v64h64z" />
    <glyph glyph-name="Rcaron" unicode="&#x158;" horiz-adv-x="612" 
d="M528 0l-234 288h-138v-288h-60v704h212q66 0 117 -27t79 -74t28 -107q0 -79 -46.5 -132t-126.5 -67l241 -297h-72zM156 344h148q76 0 122 40.5t46 111.5q0 68 -45.5 110t-118.5 42h-152v-304zM383 912h56l-120 -144h-60l-120 144h60l92 -108z" />
    <glyph glyph-name="rcaron" unicode="&#x159;" horiz-adv-x="344" 
d="M336 488l-24 -44q-18 12 -60 12q-85 0 -124 -61v-395h-60v496h32l26 -45q18 27 52.5 42t73.5 15q49 0 84 -20zM299 704h56l-120 -144h-60l-120 144h60l92 -108z" />
    <glyph glyph-name="Sacute" unicode="&#x15a;" horiz-adv-x="592" 
d="M164.5 11.5q-64.5 23.5 -115.5 68.5l27 50q48 -41 105 -63.5t119 -22.5q89 0 134.5 36.5t45.5 99.5q0 38 -16.5 64t-54.5 45t-105 35l-52 12q-78 18 -135 64.5t-57 127.5q0 50 26.5 93t79 69t126.5 26q70 0 126.5 -19t109.5 -57l-31 -46q-43 31 -96 48.5t-105 17.5
q-85 0 -128.5 -35.5t-43.5 -92.5q0 -61 42 -94t134 -54l52 -12q94 -22 143 -69.5t49 -118.5q0 -56 -27 -100t-82 -70t-135 -26q-71 0 -135.5 23.5zM242 772l84 140h64l-100 -144h-48v4z" />
    <glyph glyph-name="sacute" unicode="&#x15b;" horiz-adv-x="436" 
d="M119.5 6q-49.5 18 -84.5 53l29 45q66 -64 160 -64q48 0 82 21t34 63q0 35 -23 57.5t-81 38.5l-44 12q-70 19 -109 51.5t-39 88.5q0 60 48 98t124 38q51 0 98 -16.5t78 -43.5l-24 -45q-29 25 -68.5 39t-83.5 14q-56 0 -84 -22t-28 -58q0 -39 28 -58.5t92 -37.5l44 -12
q68 -19 102 -56t34 -84q0 -63 -49.5 -101.5t-130.5 -38.5q-55 0 -104.5 18zM164 564l84 140h64l-100 -144h-48v4z" />
    <glyph glyph-name="Scircumflex" unicode="&#x15c;" horiz-adv-x="592" 
d="M164.5 11.5q-64.5 23.5 -115.5 68.5l27 50q48 -41 105 -63.5t119 -22.5q89 0 134.5 36.5t45.5 99.5q0 38 -16.5 64t-54.5 45t-105 35l-52 12q-78 18 -135 64.5t-57 127.5q0 50 26.5 93t79 69t126.5 26q70 0 126.5 -19t109.5 -57l-31 -46q-43 31 -96 48.5t-105 17.5
q-85 0 -128.5 -35.5t-43.5 -92.5q0 -61 42 -94t134 -54l52 -12q94 -22 143 -69.5t49 -118.5q0 -56 -27 -100t-82 -70t-135 -26q-71 0 -135.5 23.5zM444 768h-60l-92 108l-92 -108h-56l120 144h60z" />
    <glyph glyph-name="scircumflex" unicode="&#x15d;" horiz-adv-x="436" 
d="M119.5 6q-49.5 18 -84.5 53l29 45q66 -64 160 -64q48 0 82 21t34 63q0 35 -23 57.5t-81 38.5l-44 12q-70 19 -109 51.5t-39 88.5q0 60 48 98t124 38q51 0 98 -16.5t78 -43.5l-24 -45q-29 25 -68.5 39t-83.5 14q-56 0 -84 -22t-28 -58q0 -39 28 -58.5t92 -37.5l44 -12
q68 -19 102 -56t34 -84q0 -63 -49.5 -101.5t-130.5 -38.5q-55 0 -104.5 18zM366 560h-60l-92 108l-92 -108h-56l120 144h60z" />
    <glyph glyph-name="Scedilla" unicode="&#x15e;" horiz-adv-x="592" 
d="M483.5 45q-60.5 -55 -176.5 -57l-19 -53q31 -5 49.5 -23.5t18.5 -47.5q0 -34 -22.5 -53t-57.5 -19q-20 0 -38 7t-26 17l16 32q19 -16 44 -16q40 0 40 36q0 16 -13.5 26t-38.5 10h-16l31 85q-64 4 -121.5 27t-104.5 64l27 50q48 -41 105 -63.5t119 -22.5q89 0 134.5 36.5
t45.5 99.5q0 38 -16.5 64t-54.5 45t-105 35l-52 12q-78 18 -135 64.5t-57 127.5q0 50 26.5 93t79 69t126.5 26q70 0 126.5 -19t109.5 -57l-31 -46q-43 31 -96 48.5t-105 17.5q-85 0 -128.5 -35.5t-43.5 -92.5q0 -61 42 -94t134 -54l52 -12q94 -22 143 -69.5t49 -118.5
q0 -84 -60.5 -139z" />
    <glyph glyph-name="scedilla" unicode="&#x15f;" horiz-adv-x="436" 
d="M206 -61q31 -5 49.5 -23.5t18.5 -47.5q0 -34 -22.5 -53t-57.5 -19q-20 0 -38 7t-26 17l16 32q19 -16 44 -16q40 0 40 36q0 16 -13.5 26t-38.5 10h-16l30 82q-46 5 -87 22.5t-70 46.5l29 45q66 -64 160 -64q48 0 82 21t34 63q0 35 -23 57.5t-81 38.5l-44 12
q-70 19 -109 51.5t-39 88.5q0 60 48 98t124 38q51 0 98 -16.5t78 -43.5l-24 -45q-29 25 -68.5 39t-83.5 14q-56 0 -84 -22t-28 -58q0 -39 28 -58.5t92 -37.5l44 -12q68 -19 102 -56t34 -84q0 -63 -49.5 -101.5t-130.5 -38.5z" />
    <glyph glyph-name="Scaron" unicode="&#x160;" horiz-adv-x="592" 
d="M164.5 11.5q-64.5 23.5 -115.5 68.5l27 50q48 -41 105 -63.5t119 -22.5q89 0 134.5 36.5t45.5 99.5q0 38 -16.5 64t-54.5 45t-105 35l-52 12q-78 18 -135 64.5t-57 127.5q0 50 26.5 93t79 69t126.5 26q70 0 126.5 -19t109.5 -57l-31 -46q-43 31 -96 48.5t-105 17.5
q-85 0 -128.5 -35.5t-43.5 -92.5q0 -61 42 -94t134 -54l52 -12q94 -22 143 -69.5t49 -118.5q0 -56 -27 -100t-82 -70t-135 -26q-71 0 -135.5 23.5zM388 912h56l-120 -144h-60l-120 144h60l92 -108z" />
    <glyph glyph-name="scaron" unicode="&#x161;" horiz-adv-x="436" 
d="M119.5 6q-49.5 18 -84.5 53l29 45q66 -64 160 -64q48 0 82 21t34 63q0 35 -23 57.5t-81 38.5l-44 12q-70 19 -109 51.5t-39 88.5q0 60 48 98t124 38q51 0 98 -16.5t78 -43.5l-24 -45q-29 25 -68.5 39t-83.5 14q-56 0 -84 -22t-28 -58q0 -39 28 -58.5t92 -37.5l44 -12
q68 -19 102 -56t34 -84q0 -63 -49.5 -101.5t-130.5 -38.5q-55 0 -104.5 18zM310 704h56l-120 -144h-60l-120 144h60l92 -108z" />
    <glyph glyph-name="uni0162" unicode="&#x162;" horiz-adv-x="620" 
d="M604 704v-56h-264v-648h-60v648h-264v56h588zM342 -80v-68q0 -22 -9.5 -48.5t-26.5 -51.5h-36q32 53 32 96v8h-24v64h64z" />
    <glyph glyph-name="uni0163" unicode="&#x163;" horiz-adv-x="368" 
d="M360 32q-51 -44 -120 -44q-64 0 -106 39.5t-42 108.5v312h-88v48h92v128l52 32h4v-160h204v-48h-204v-304q0 -44 23.5 -72t68.5 -28q49 0 83 30zM246 -80v-68q0 -22 -9.5 -48.5t-26.5 -51.5h-36q32 53 32 96v8h-24v64h64z" />
    <glyph glyph-name="Tcaron" unicode="&#x164;" horiz-adv-x="620" 
d="M604 704v-56h-264v-648h-60v648h-264v56h588zM404 912h56l-120 -144h-60l-120 144h60l92 -108z" />
    <glyph glyph-name="tcaron" unicode="&#x165;" horiz-adv-x="368" 
d="M360 32q-51 -44 -120 -44q-64 0 -106 39.5t-42 108.5v312h-88v48h92v128l52 32h4v-160h204v-48h-204v-304q0 -44 23.5 -72t68.5 -28q49 0 83 30zM217 704h53q-5 -67 -20 -140l-5 -28h-38q7 72 10 168z" />
    <glyph glyph-name="Tbar" unicode="&#x166;" horiz-adv-x="620" 
d="M604 648h-264v-288h153v-44h-153v-316h-60v316h-145v44h145v288h-264v56h588v-56z" />
    <glyph glyph-name="tbar" unicode="&#x167;" horiz-adv-x="368" 
d="M360 32q-51 -44 -120 -44q-64 0 -106 39.5t-42 108.5v112h-78v44h78v156h-88v48h92v128l52 32h4v-160h204v-48h-204v-156h186v-44h-186v-104q0 -44 23.5 -72t68.5 -28q49 0 83 30z" />
    <glyph glyph-name="Utilde" unicode="&#x168;" horiz-adv-x="760" 
d="M232 24.5q-68 36.5 -108 104t-40 155.5v420h60v-420q0 -76 32.5 -130t86 -82t117.5 -28t118 26.5t86 80.5t32 133v420h60v-420q0 -88 -40 -155.5t-108 -104t-148 -36.5t-148 36.5zM400 802q-21 14 -49 39q-12 11 -23 19t-16 8q-12 0 -12 -12v-64h-44v56q0 35 11.5 51.5
t40.5 16.5q19 0 38.5 -13t46.5 -37q13 -12 24.5 -21t18.5 -9q12 0 12 12v64h44v-56q0 -35 -11.5 -51.5t-40.5 -16.5q-19 0 -40 14z" />
    <glyph glyph-name="utilde" unicode="&#x169;" horiz-adv-x="524" 
d="M456 496v-496h-28l-32 56q-33 -36 -67.5 -52t-76.5 -16q-90 0 -139 54t-49 138v316h60v-312q0 -71 36 -107.5t100 -36.5q45 0 77.5 17.5t58.5 50.5v388h60zM284 594q-21 14 -49 39q-12 11 -23 19t-16 8q-12 0 -12 -12v-64h-44v56q0 35 11.5 51.5t40.5 16.5q19 0 38.5 -13
t46.5 -37q13 -12 24.5 -21t18.5 -9q12 0 12 12v64h44v-56q0 -35 -11.5 -51.5t-40.5 -16.5q-19 0 -40 14z" />
    <glyph glyph-name="Umacron" unicode="&#x16a;" horiz-adv-x="760" 
d="M232 24.5q-68 36.5 -108 104t-40 155.5v420h60v-420q0 -76 32.5 -130t86 -82t117.5 -28t118 26.5t86 80.5t32 133v420h60v-420q0 -88 -40 -155.5t-108 -104t-148 -36.5t-148 36.5zM240 876h276v-48h-276v48z" />
    <glyph glyph-name="umacron" unicode="&#x16b;" horiz-adv-x="524" 
d="M456 496v-496h-28l-32 56q-33 -36 -67.5 -52t-76.5 -16q-90 0 -139 54t-49 138v316h60v-312q0 -71 36 -107.5t100 -36.5q45 0 77.5 17.5t58.5 50.5v388h60zM124 672h276v-48h-276v48z" />
    <glyph glyph-name="Ubreve" unicode="&#x16c;" horiz-adv-x="760" 
d="M232 24.5q-68 36.5 -108 104t-40 155.5v420h60v-420q0 -76 32.5 -130t86 -82t117.5 -28t118 26.5t86 80.5t32 133v420h60v-420q0 -88 -40 -155.5t-108 -104t-148 -36.5t-148 36.5zM287.5 816q-36.5 36 -39.5 96h48q2 -40 23.5 -61.5t60.5 -21.5q36 0 57.5 21.5t22.5 61.5
h48q-4 -60 -39.5 -96t-88.5 -36q-56 0 -92.5 36z" />
    <glyph glyph-name="ubreve" unicode="&#x16d;" horiz-adv-x="524" 
d="M456 496v-496h-28l-32 56q-33 -36 -67.5 -52t-76.5 -16q-90 0 -139 54t-49 138v316h60v-312q0 -71 36 -107.5t100 -36.5q45 0 77.5 17.5t58.5 50.5v388h60zM171.5 608q-36.5 36 -39.5 96h48q2 -40 23.5 -61.5t60.5 -21.5q36 0 57.5 21.5t22.5 61.5h48q-4 -60 -39.5 -96
t-88.5 -36q-56 0 -92.5 36z" />
    <glyph glyph-name="Uring" unicode="&#x16e;" horiz-adv-x="760" 
d="M232 24.5q-68 36.5 -108 104t-40 155.5v420h60v-420q0 -76 32.5 -130t86 -82t117.5 -28t118 26.5t86 80.5t32 133v420h60v-420q0 -88 -40 -155.5t-108 -104t-148 -36.5t-148 36.5zM321 786.5q-25 22.5 -25 57.5t25 57.5t59 22.5t59 -22.5t25 -57.5t-25 -57.5t-59 -22.5
t-59 22.5zM409 814.5q11 10.5 11 29.5q0 18 -11 29t-29 11t-29 -11t-11 -29t11 -29t29 -11t29 10.5z" />
    <glyph glyph-name="uring" unicode="&#x16f;" horiz-adv-x="524" 
d="M456 496v-496h-28l-32 56q-33 -36 -67.5 -52t-76.5 -16q-90 0 -139 54t-49 138v316h60v-312q0 -71 36 -107.5t100 -36.5q45 0 77.5 17.5t58.5 50.5v388h60zM205 578.5q-25 22.5 -25 57.5t25 57.5t59 22.5t59 -22.5t25 -57.5t-25 -57.5t-59 -22.5t-59 22.5zM293 606.5
q11 10.5 11 29.5q0 18 -11 29t-29 11t-29 -11t-11 -29t11 -29t29 -11t29 10.5z" />
    <glyph glyph-name="Uhungarumlaut" unicode="&#x170;" horiz-adv-x="760" 
d="M232 24.5q-68 36.5 -108 104t-40 155.5v420h60v-420q0 -76 32.5 -130t86 -82t117.5 -28t118 26.5t86 80.5t32 133v420h60v-420q0 -88 -40 -155.5t-108 -104t-148 -36.5t-148 36.5zM292 772l92 140h60l-108 -144h-44v4zM408 772l92 140h64l-116 -144h-40v4z" />
    <glyph glyph-name="uhungarumlaut" unicode="&#x171;" horiz-adv-x="524" 
d="M456 496v-496h-28l-32 56q-33 -36 -67.5 -52t-76.5 -16q-90 0 -139 54t-49 138v316h60v-312q0 -71 36 -107.5t100 -36.5q45 0 77.5 17.5t58.5 50.5v388h60zM176 564l92 140h60l-108 -144h-44v4zM292 564l92 140h64l-116 -144h-40v4z" />
    <glyph glyph-name="Uogonek" unicode="&#x172;" horiz-adv-x="760" 
d="M676 704v-420q0 -109 -60 -185t-156 -101q-92 -71 -92 -131q0 -17 8.5 -26t23.5 -9q24 0 40 16l24 -36q-29 -28 -68 -28q-36 0 -58 18.5t-22 54.5q0 31 19.5 66t54.5 65h-10q-80 0 -148 36.5t-108 104t-40 155.5v420h60v-420q0 -76 32.5 -130t86 -82t117.5 -28t118 26.5
t86 80.5t32 133v420h60z" />
    <glyph glyph-name="uogonek" unicode="&#x173;" horiz-adv-x="524" 
d="M456 496v-496h-5q-95 -71 -95 -133q0 -17 8.5 -26t23.5 -9q24 0 40 16l24 -36q-29 -28 -68 -28q-36 0 -58 18.5t-22 54.5q0 40 30 83.5t84 76.5l-22 39q-33 -36 -67.5 -52t-76.5 -16q-90 0 -139 54t-49 138v316h60v-312q0 -71 36 -107.5t100 -36.5q45 0 77.5 17.5
t58.5 50.5v388h60z" />
    <glyph glyph-name="Wcircumflex" unicode="&#x174;" horiz-adv-x="1060" 
d="M984 704h64l-268 -704h-40l-210 592l-210 -592h-40l-268 704h64l226 -600l206 600h44l210 -600zM680 768h-60l-92 108l-92 -108h-56l120 144h60z" />
    <glyph glyph-name="wcircumflex" unicode="&#x175;" horiz-adv-x="812" 
d="M752 496h60l-200 -500h-36l-169 398l-171 -398h-36l-200 500h64l156 -402l168 406h36l172 -410zM556 560h-60l-92 108l-92 -108h-56l120 144h60z" />
    <glyph glyph-name="Ycircumflex" unicode="&#x176;" horiz-adv-x="632" 
d="M560 704h68l-280 -432v-272h-60v272l-284 432h68l245 -378zM464 768h-60l-92 108l-92 -108h-56l120 144h60z" />
    <glyph glyph-name="ycircumflex" unicode="&#x177;" horiz-adv-x="480" 
d="M420 496h60l-312 -704h-60l108 238l-216 466h64l181 -401zM400 560h-60l-92 108l-92 -108h-56l120 144h60z" />
    <glyph glyph-name="Ydieresis" unicode="&#x178;" horiz-adv-x="632" 
d="M560 704h68l-280 -432v-272h-60v272l-284 432h68l245 -378zM204 900h60v-68h-60v68zM368 900h60v-68h-60v68z" />
    <glyph glyph-name="Zacute" unicode="&#x179;" horiz-adv-x="608" 
d="M113 52h459v-52h-536v36l435 616h-415v52h496v-36zM242 772l84 140h64l-100 -144h-48v4z" />
    <glyph glyph-name="zacute" unicode="&#x17a;" horiz-adv-x="400" 
d="M384 496v-28l-288 -420h288v-48h-368v28l284 420h-272v48h356zM154 564l84 140h64l-100 -144h-48v4z" />
    <glyph glyph-name="Zdotaccent" unicode="&#x17b;" horiz-adv-x="608" 
d="M113 52h459v-52h-536v36l435 616h-415v52h496v-36zM264 896h60v-64h-60v64z" />
    <glyph glyph-name="zdotaccent" unicode="&#x17c;" horiz-adv-x="400" 
d="M384 496v-28l-288 -420h288v-48h-368v28l284 420h-272v48h356zM176 688h60v-64h-60v64z" />
    <glyph glyph-name="Zcaron" unicode="&#x17d;" horiz-adv-x="608" 
d="M113 52h459v-52h-536v36l435 616h-415v52h496v-36zM388 912h56l-120 -144h-60l-120 144h60l92 -108z" />
    <glyph glyph-name="zcaron" unicode="&#x17e;" horiz-adv-x="400" 
d="M384 496v-28l-288 -420h288v-48h-368v28l284 420h-272v48h356zM300 704h56l-120 -144h-60l-120 144h60l92 -108z" />
    <glyph glyph-name="Schwa" unicode="&#x18f;" horiz-adv-x="775" 
d="M558.5 666q84.5 -50 128.5 -134t44 -183q0 -97 -41.5 -179t-123 -132t-194.5 -50q-109 0 -183 46t-109.5 121t-35.5 165v46h624q-3 84 -43 151t-110 105t-158 38q-71 0 -134.5 -24.5t-106.5 -65.5l-40 45q55 49 126.5 75t154.5 26q117 0 201.5 -50zM520 80
q65 36 102.5 96.5t44.5 133.5h-560q2 -87 37 -146.5t94.5 -89.5t133.5 -30q83 0 148 36z" />
    <glyph glyph-name="florin" unicode="&#x192;" 
d="M296.5 630q-28.5 -30 -28.5 -78q0 -31 7 -60.5t29 -83.5l10 -24h198v-52h-177q31 -73 40 -106t9 -74q0 -74 -48 -119t-124 -45q-50 0 -87.5 14t-76.5 45l28 50q27 -26 59 -39.5t77 -13.5q55 0 83.5 30t28.5 78q0 30 -8 58.5t-32 85.5l-15 36h-149v52h128q-24 59 -32 94
t-8 74q0 74 48 119t124 45q50 0 87.5 -14t76.5 -45l-28 -50q-27 26 -59 39.5t-77 13.5q-55 0 -83.5 -30z" />
    <glyph glyph-name="Ohorn" unicode="&#x1a0;" horiz-adv-x="808" 
d="M731 511.5q33 -73.5 33 -159.5q0 -103 -46.5 -186t-129 -130.5t-184.5 -47.5q-101 0 -183 47.5t-129.5 131t-47.5 185.5q0 103 46.5 186t129 130.5t184.5 47.5q97 0 177 -43h21q59 0 59 45q0 24 -12 45l50 17q16 -30 16 -62q0 -33 -20 -55t-57 -28q60 -50 93 -123.5z
M556.5 84q67.5 40 105.5 110.5t38 157.5t-38 157.5t-105.5 110.5t-152.5 40q-83 0 -150.5 -40t-106.5 -110.5t-39 -157.5t38 -157.5t105.5 -110.5t152.5 -40t152.5 40z" />
    <glyph glyph-name="ohorn" unicode="&#x1a1;" horiz-adv-x="552" 
d="M507 456.5q-18 -21.5 -52 -28.5q31 -35 48 -81t17 -99q0 -72 -31.5 -131.5t-87.5 -94t-125 -34.5t-125 34.5t-87.5 94t-31.5 131.5t31.5 131.5t87.5 94t125 34.5q77 0 138 -43q57 0 57 45q0 24 -12 45l50 17q16 -30 16 -62t-18 -53.5zM371 68q42 28 65.5 75.5t23.5 104.5
t-23.5 104.5t-65.5 75.5t-95 28t-95 -27.5t-65.5 -75t-23.5 -105.5q0 -57 23.5 -104.5t65.5 -75.5t95 -28t95 28z" />
    <glyph glyph-name="Uhorn" unicode="&#x1af;" horiz-adv-x="760" 
d="M742.5 659.5q-23.5 -22.5 -66.5 -26.5v-349q0 -88 -40 -155.5t-108 -104t-148 -36.5t-148 36.5t-108 104t-40 155.5v420h60v-420q0 -76 32.5 -130t86 -82t117.5 -28t118 26.5t86 80.5t32 133v420h60v-29q36 8 36 43q0 24 -12 45l50 17q16 -30 16 -62q0 -36 -23.5 -58.5z
" />
    <glyph glyph-name="uhorn" unicode="&#x1b0;" horiz-adv-x="542" 
d="M529.5 449q-26.5 -23 -73.5 -25v-424h-28l-32 56q-33 -36 -67.5 -52t-76.5 -16q-90 0 -139 54t-49 138v316h60v-312q0 -71 36 -107.5t100 -36.5q45 0 77.5 17.5t58.5 50.5v388h60v-30q46 3 46 44q0 24 -12 45l50 17q16 -30 16 -62q0 -38 -26.5 -61z" />
    <glyph glyph-name="Scommaaccent" unicode="&#x218;" horiz-adv-x="592" 
d="M164.5 11.5q-64.5 23.5 -115.5 68.5l27 50q48 -41 105 -63.5t119 -22.5q89 0 134.5 36.5t45.5 99.5q0 38 -16.5 64t-54.5 45t-105 35l-52 12q-78 18 -135 64.5t-57 127.5q0 50 26.5 93t79 69t126.5 26q70 0 126.5 -19t109.5 -57l-31 -46q-43 31 -96 48.5t-105 17.5
q-85 0 -128.5 -35.5t-43.5 -92.5q0 -61 42 -94t134 -54l52 -12q94 -22 143 -69.5t49 -118.5q0 -56 -27 -100t-82 -70t-135 -26q-71 0 -135.5 23.5zM330 -80v-68q0 -22 -9.5 -48.5t-26.5 -51.5h-36q32 53 32 96v8h-24v64h64z" />
    <glyph glyph-name="scommaaccent" unicode="&#x219;" horiz-adv-x="436" 
d="M119.5 6q-49.5 18 -84.5 53l29 45q66 -64 160 -64q48 0 82 21t34 63q0 35 -23 57.5t-81 38.5l-44 12q-70 19 -109 51.5t-39 88.5q0 60 48 98t124 38q51 0 98 -16.5t78 -43.5l-24 -45q-29 25 -68.5 39t-83.5 14q-56 0 -84 -22t-28 -58q0 -39 28 -58.5t92 -37.5l44 -12
q68 -19 102 -56t34 -84q0 -63 -49.5 -101.5t-130.5 -38.5q-55 0 -104.5 18zM248 -76v-68q0 -22 -9.5 -48.5t-26.5 -51.5h-36q32 53 32 96v8h-24v64h64z" />
    <glyph glyph-name="uni021A" unicode="&#x21a;" horiz-adv-x="620" 
d="M604 704v-56h-264v-648h-60v648h-264v56h588zM342 -80v-68q0 -22 -9.5 -48.5t-26.5 -51.5h-36q32 53 32 96v8h-24v64h64z" />
    <glyph glyph-name="uni021B" unicode="&#x21b;" horiz-adv-x="368" 
d="M360 32q-51 -44 -120 -44q-64 0 -106 39.5t-42 108.5v312h-88v48h92v128l52 32h4v-160h204v-48h-204v-304q0 -44 23.5 -72t68.5 -28q49 0 83 30zM246 -80v-68q0 -22 -9.5 -48.5t-26.5 -51.5h-36q32 53 32 96v8h-24v64h64z" />
    <glyph glyph-name="dotlessj" unicode="&#x237;" horiz-adv-x="196" 
d="M20 -164q21 0 34.5 14.5t13.5 41.5v604h60v-604q0 -48 -30.5 -78t-81.5 -30q-35 0 -66 20l27 45q16 -13 43 -13z" />
    <glyph glyph-name="schwa" unicode="&#x259;" horiz-adv-x="504" 
d="M362 473q54 -35 82 -94.5t28 -130.5q0 -70 -27.5 -129.5t-79.5 -95t-121 -35.5q-70 0 -117.5 31.5t-71 85t-23.5 119.5v24h380v12q0 54 -23 99t-64 71t-93 26q-93 0 -156 -72l-36 36q31 39 80.5 63.5t111.5 24.5q76 0 130 -35zM355 86q44 46 54 118h-320q5 -79 48 -121.5
t107 -42.5q67 0 111 46z" />
    <glyph glyph-name="h.sups" unicode="&#x2b0;" horiz-adv-x="408" 
d="M321.5 832.5q38.5 -40.5 38.5 -103.5v-233h-48v230q0 52 -28 78t-78 26q-32 0 -55.5 -11.5t-50.5 -35.5v-287h-48v522h48v-195q25 26 52 38t60 12q71 0 109.5 -40.5z" />
    <glyph glyph-name="j.sups" unicode="&#x2b2;" horiz-adv-x="198" 
d="M100 1009h50v-52h-50v52zM63 381q16 0 27 10.5t11 28.5v444h48v-443q0 -38 -24 -61.5t-65 -23.5q-29 0 -55 17l26 38q15 -10 32 -10z" />
    <glyph glyph-name="r.sups" unicode="&#x2b3;" horiz-adv-x="274" 
d="M232.5 868q18.5 -5 31.5 -14l-22 -34q-21 12 -52 12q-61 0 -90 -46v-290h-48v368h27l19 -33q15 20 41.5 31t55.5 11q19 0 37.5 -5z" />
    <glyph glyph-name="w.sups" unicode="&#x2b7;" horiz-adv-x="647" 
d="M593 864h49l-156 -370h-30l-132 291l-134 -291h-29l-156 370h51l121 -295l131 295h32l132 -297z" />
    <glyph glyph-name="y.sups" unicode="&#x2b8;" horiz-adv-x="388" 
d="M334 864h49l-246 -522h-48l84 175l-168 347h51l139 -299z" />
    <glyph glyph-name="circumflex" unicode="&#x2c6;" horiz-adv-x="600" 
d="M440 560h-60l-92 108l-92 -108h-56l120 144h60z" />
    <glyph glyph-name="caron" unicode="&#x2c7;" horiz-adv-x="600" 
d="M384 704h56l-120 -144h-60l-120 144h60l92 -108z" />
    <glyph glyph-name="uni02C9" unicode="&#x2c9;" horiz-adv-x="600" 
d="M172 672h276v-48h-276v48z" />
    <glyph glyph-name="breve" unicode="&#x2d8;" horiz-adv-x="600" 
d="M147.5 608q-36.5 36 -39.5 96h48q2 -40 23.5 -61.5t60.5 -21.5q36 0 57.5 21.5t22.5 61.5h48q-4 -60 -39.5 -96t-88.5 -36q-56 0 -92.5 36z" />
    <glyph glyph-name="dotaccent" unicode="&#x2d9;" horiz-adv-x="600" 
d="M68 688h60v-64h-60v64z" />
    <glyph glyph-name="ring" unicode="&#x2da;" horiz-adv-x="600" 
d="M241 578.5q-25 22.5 -25 57.5t25 57.5t59 22.5t59 -22.5t25 -57.5t-25 -57.5t-59 -22.5t-59 22.5zM329 606.5q11 10.5 11 29.5q0 18 -11 29t-29 11t-29 -11t-11 -29t11 -29t29 -11t29 10.5z" />
    <glyph glyph-name="ogonek" unicode="&#x2db;" horiz-adv-x="600" 
d="M238 -197.5q-22 18.5 -22 54.5q0 41 31.5 85.5t88.5 77.5l32 -12v-4q-100 -74 -100 -137q0 -17 8.5 -26t23.5 -9q24 0 40 16l24 -36q-29 -28 -68 -28q-36 0 -58 18.5z" />
    <glyph glyph-name="tilde" unicode="&#x2dc;" horiz-adv-x="600" 
d="M312 594q-21 14 -49 39q-12 11 -23 19t-16 8q-12 0 -12 -12v-64h-44v56q0 35 11.5 51.5t40.5 16.5q19 0 38.5 -13t46.5 -37q13 -12 24.5 -21t18.5 -9q12 0 12 12v64h44v-56q0 -35 -11.5 -51.5t-40.5 -16.5q-19 0 -40 14z" />
    <glyph glyph-name="hungarumlaut" unicode="&#x2dd;" horiz-adv-x="600" 
d="M268 564l92 140h60l-108 -144h-44v4zM384 564l92 140h64l-116 -144h-40v4z" />
    <glyph glyph-name="l.sups" unicode="&#x2e1;" horiz-adv-x="148" 
d="M52 1018h48v-522h-48v522z" />
    <glyph glyph-name="s.sups" unicode="&#x2e2;" horiz-adv-x="341" 
d="M92 500.5q-39 13.5 -68 39.5l24 36q27 -23 58 -34.5t69 -11.5t64 15.5t26 43.5q0 25 -19 41.5t-65 28.5l-36 9q-111 28 -111 103q0 46 37.5 74t97.5 28q38 0 75.5 -12t63.5 -33l-21 -35q-49 37 -119 37q-42 0 -63.5 -15.5t-21.5 -40.5q0 -27 22 -41.5t69 -26.5l37 -9
q54 -13 80 -41t26 -65q0 -46 -39.5 -75t-102.5 -29q-44 0 -83 13.5z" />
    <glyph glyph-name="x.sups" unicode="&#x2e3;" horiz-adv-x="358" 
d="M353 496h-54l-119 150l-120 -150h-55l148 184l-146 184h56l117 -149l115 149h55l-143 -183z" />
    <glyph glyph-name="gravecomb" unicode="&#x300;" horiz-adv-x="0" 
d="M-412 704h64l84 -140v-4h-48z" />
    <glyph glyph-name="acutecomb" unicode="&#x301;" horiz-adv-x="0" 
d="M-340 564l84 140h64l-100 -144h-48v4z" />
    <glyph glyph-name="circumflexcomb" unicode="&#x302;" horiz-adv-x="0" 
d="M-160 560h-60l-92 108l-92 -108h-56l120 144h60z" />
    <glyph glyph-name="tildecomb" unicode="&#x303;" horiz-adv-x="0" 
d="M-288 594q-21 14 -49 39q-12 11 -23 19t-16 8q-12 0 -12 -12v-64h-44v56q0 35 11.5 51.5t40.5 16.5q19 0 38.5 -13t46.5 -37q13 -12 24.5 -21t18.5 -9q12 0 12 12v64h44v-56q0 -35 -11.5 -51.5t-40.5 -16.5q-19 0 -40 14z" />
    <glyph glyph-name="macroncomb" unicode="&#x304;" horiz-adv-x="0" 
d="M-428 672h276v-48h-276v48z" />
    <glyph glyph-name="brevecomb" unicode="&#x306;" horiz-adv-x="0" 
d="M-452.5 608q-36.5 36 -39.5 96h48q2 -40 23.5 -61.5t60.5 -21.5q36 0 57.5 21.5t22.5 61.5h48q-4 -60 -39.5 -96t-88.5 -36q-56 0 -92.5 36z" />
    <glyph glyph-name="dotaccentcomb" unicode="&#x307;" horiz-adv-x="0" 
d="M-532 688h60v-64h-60v64z" />
    <glyph glyph-name="dieresiscomb" unicode="&#x308;" horiz-adv-x="0" 
d="M-428 692h60v-68h-60v68zM-264 692h60v-68h-60v68z" />
    <glyph glyph-name="hookabovecomb" unicode="&#x309;" horiz-adv-x="0" 
d="M-47.5 612.5q-17.5 -18.5 -48.5 -20.5v-36h-40v68h16q19 0 30.5 9t11.5 27q0 17 -9.5 26.5t-26.5 9.5q-27 0 -47 -15l-17 34q24 21 69 21q36 0 57.5 -20t21.5 -56q0 -29 -17.5 -47.5z" />
    <glyph glyph-name="ringcomb" unicode="&#x30a;" horiz-adv-x="0" 
d="M-359 578.5q-25 22.5 -25 57.5t25 57.5t59 22.5t59 -22.5t25 -57.5t-25 -57.5t-59 -22.5t-59 22.5zM-271 606.5q11 10.5 11 29.5q0 18 -11 29t-29 11t-29 -11t-11 -29t11 -29t29 -11t29 10.5z" />
    <glyph glyph-name="hungarumlautcomb" unicode="&#x30b;" horiz-adv-x="0" 
d="M-332 564l92 140h60l-108 -144h-44v4zM-216 564l92 140h64l-116 -144h-40v4z" />
    <glyph glyph-name="caroncomb" unicode="&#x30c;" horiz-adv-x="0" 
d="M-216 704h56l-120 -144h-60l-120 144h60l92 -108z" />
    <glyph glyph-name="commaturnedabovecomb" unicode="&#x312;" horiz-adv-x="0" 
d="M-316 652h28v-64h-64v68q0 22 9 48t27 52h36q-34 -51 -36 -100v-4z" />
    <glyph glyph-name="uni031B" unicode="&#x31b;" horiz-adv-x="0" 
d="M-36 603q16 -30 16 -62q0 -40 -28.5 -63t-79.5 -23h-30v41h25q59 0 59 45q0 24 -12 45z" />
    <glyph glyph-name="dotbelowcomb" unicode="&#x323;" horiz-adv-x="0" 
d="M-90 -82h60v-64h-60v64z" />
    <glyph glyph-name="commaaccent" unicode="&#x326;" horiz-adv-x="0" 
d="M-272 -80v-68q0 -22 -9.5 -48.5t-26.5 -51.5h-36q32 53 32 96v8h-24v64h64z" />
    <glyph glyph-name="cedillacomb" unicode="&#x327;" horiz-adv-x="0" 
d="M-306.5 -96.5q18.5 -18.5 18.5 -47.5q0 -34 -22.5 -53t-57.5 -19q-20 0 -38 7t-26 17l16 32q19 -16 44 -16q40 0 40 36q0 16 -13.5 26t-38.5 10h-16l40 108h32l-28 -77q31 -5 49.5 -23.5z" />
    <glyph glyph-name="ogonekcomb" unicode="&#x328;" horiz-adv-x="0" 
d="M-362 -197.5q-22 18.5 -22 54.5q0 41 31.5 85.5t88.5 77.5l32 -12v-4q-100 -74 -100 -137q0 -17 8.5 -26t23.5 -9q24 0 40 16l24 -36q-29 -28 -68 -28q-36 0 -58 18.5z" />
    <glyph glyph-name="uni0335" unicode="&#x335;" horiz-adv-x="0" 
d="M-456 324h288v-44h-288v44z" />
    <glyph glyph-name="numeralsigngreek" unicode="&#x374;" horiz-adv-x="188" 
d="M40 534l44 170h64l-60 -174h-48v4z" />
    <glyph glyph-name="numeralsignlowergreek" unicode="&#x375;" horiz-adv-x="188" 
d="M40 -170l44 170h64l-60 -174h-48v4z" />
    <glyph glyph-name="questiongreek" unicode="&#x37e;" horiz-adv-x="214" 
d="M140 446v-76h-76v76h76zM150 76v-90q0 -55 -45 -120h-41q42 67 42 120v14h-32v76h76z" />
    <glyph glyph-name="tonos" unicode="&#x384;" horiz-adv-x="600" 
d="M248 704h56q-7 -95 -48 -152h-40q30 63 32 152z" />
    <glyph glyph-name="dieresistonos" unicode="&#x385;" horiz-adv-x="600" 
d="M271 652.5q4 32.5 5 87.5h56q-4 -51 -12 -88t-28 -64h-40q15 32 19 64.5zM164 656h60v-68h-60v68zM352 656h60v-68h-60v68z" />
    <glyph glyph-name="Alphatonos" unicode="&#x386;" horiz-adv-x="696" 
d="M620 0l-86 196h-372l-86 -196h-64l316 716h40l316 -716h-64zM186 252h324l-162 369zM140 704h56q-7 -95 -48 -152h-40q30 63 32 152z" />
    <glyph glyph-name="anoteleia" unicode="&#x387;" horiz-adv-x="208" 
d="M64 404h80v-80h-80v80z" />
    <glyph glyph-name="Epsilontonos" unicode="&#x388;" horiz-adv-x="648" 
d="M204 56h388v-56h-448v704h432v-56h-372v-252h336v-56h-336v-284zM20 704h56q-7 -95 -48 -152h-40q30 63 32 152z" />
    <glyph glyph-name="Etatonos" unicode="&#x389;" horiz-adv-x="798" 
d="M642 704h60v-704h-60v336h-440v-336h-60v704h60v-312h440v312zM20 704h56q-7 -95 -48 -152h-40q30 63 32 152z" />
    <glyph glyph-name="Iotatonos" unicode="&#x38a;" horiz-adv-x="296" 
d="M140 704h60v-704h-60v704zM20 704h56q-7 -95 -48 -152h-40q30 63 32 152z" />
    <glyph glyph-name="Omicrontonos" unicode="&#x38c;" horiz-adv-x="824" 
d="M237 35.5q-82 47.5 -129.5 131t-47.5 185.5q0 103 46.5 186t129 130.5t184.5 47.5t184.5 -47.5t129 -130.5t46.5 -186t-46.5 -186t-129 -130.5t-184.5 -47.5q-101 0 -183 47.5zM572.5 84q67.5 40 105.5 110.5t38 157.5t-38 157.5t-105.5 110.5t-152.5 40
q-83 0 -150.5 -40t-106.5 -110.5t-39 -157.5t38 -157.5t105.5 -110.5t152.5 -40t152.5 40zM21 704h56q-7 -95 -48 -152h-40q30 63 32 152z" />
    <glyph glyph-name="Upsilontonos" unicode="&#x38e;" horiz-adv-x="756" 
d="M684 704h68l-280 -432v-272h-60v272l-284 432h68l245 -378zM20 704h56q-7 -95 -48 -152h-40q30 63 32 152z" />
    <glyph glyph-name="Omegatonos" unicode="&#x38f;" horiz-adv-x="808" 
d="M500 56h256v-56h-308v104q117 17 184.5 90t67.5 186q0 75 -36 139t-101.5 102.5t-150.5 38.5t-150.5 -38.5t-101.5 -102.5t-36 -139q0 -112 69 -185.5t183 -90.5v-104h-308v56h256v9q-71 12 -131.5 56t-96.5 111.5t-36 147.5q0 90 44.5 167t124.5 123t183 46t183 -46
t124.5 -123.5t44.5 -166.5q0 -80 -36 -147.5t-96.5 -111.5t-131.5 -56v-9zM16 704h56q-7 -95 -48 -152h-40q30 63 32 152z" />
    <glyph glyph-name="iotadieresistonos" unicode="&#x390;" horiz-adv-x="243" 
d="M160 -12q-44 0 -70 26t-26 78v404h60v-404q0 -25 13.5 -38.5t30.5 -13.5q27 0 49 17l24 -41q-40 -28 -81 -28zM82 652.5q4 32.5 5 87.5h56q-4 -51 -12 -88t-28 -64h-40q15 32 19 64.5zM-25 656h60v-68h-60v68zM163 656h60v-68h-60v68z" />
    <glyph glyph-name="Alpha" unicode="&#x391;" horiz-adv-x="696" 
d="M620 0l-86 196h-372l-86 -196h-64l316 716h40l316 -716h-64zM186 252h324l-162 369z" />
    <glyph glyph-name="Beta" unicode="&#x392;" horiz-adv-x="640" 
d="M559.5 310q36.5 -49 36.5 -110t-28.5 -106.5t-77 -69.5t-106.5 -24h-288v704h236q93 0 154.5 -47t61.5 -137q0 -47 -23 -82.5t-63 -59.5q61 -19 97.5 -68zM156 648v-256h184q65 0 104.5 36t39.5 92q0 58 -38.5 93t-113.5 35h-176zM464 76.5q34 20.5 51 53t17 70.5
q0 60 -40 98t-112 38h-224v-280h224q50 0 84 20.5z" />
    <glyph glyph-name="Gamma" unicode="&#x393;" horiz-adv-x="532" 
d="M516 704v-56h-376v-648h-60v704h436z" />
    <glyph glyph-name="uni0394" unicode="&#x394;" horiz-adv-x="664" 
d="M352 716l300 -716h-640l300 716h40zM99 56h466l-233 563z" />
    <glyph glyph-name="Epsilon" unicode="&#x395;" horiz-adv-x="600" 
d="M156 56h388v-56h-448v704h432v-56h-372v-252h336v-56h-336v-284z" />
    <glyph glyph-name="Zeta" unicode="&#x396;" horiz-adv-x="608" 
d="M113 52h459v-52h-536v36l435 616h-415v52h496v-36z" />
    <glyph glyph-name="Eta" unicode="&#x397;" horiz-adv-x="752" 
d="M596 704h60v-704h-60v336h-440v-336h-60v704h60v-312h440v312z" />
    <glyph glyph-name="Theta" unicode="&#x398;" horiz-adv-x="808" 
d="M221 35.5q-82 47.5 -129.5 131t-47.5 185.5q0 103 46.5 186t129 130.5t184.5 47.5t184.5 -47.5t129 -130.5t46.5 -186t-46.5 -186t-129 -130.5t-184.5 -47.5q-101 0 -183 47.5zM556.5 84q67.5 40 105.5 110.5t38 157.5t-38 157.5t-105.5 110.5t-152.5 40
q-83 0 -150.5 -40t-106.5 -110.5t-39 -157.5t38 -157.5t105.5 -110.5t152.5 -40t152.5 40zM236 384h332v-56h-332v56z" />
    <glyph glyph-name="Iota" unicode="&#x399;" horiz-adv-x="252" 
d="M96 704h60v-704h-60v704z" />
    <glyph glyph-name="Kappa" unicode="&#x39a;" horiz-adv-x="660" 
d="M644 0h-80l-408 360v-360h-60v704h60v-329l392 329h76l-400 -334z" />
    <glyph glyph-name="Lambda" unicode="&#x39b;" horiz-adv-x="664" 
d="M652 0h-64l-256 619l-256 -619h-64l300 716h40z" />
    <glyph glyph-name="Mu" unicode="&#x39c;" horiz-adv-x="904" 
d="M764 704h44v-704h-60v546l-280 -546h-36l-276 542v-542h-60v704h44l312 -616z" />
    <glyph glyph-name="Nu" unicode="&#x39d;" horiz-adv-x="748" 
d="M592 704h60v-704h-36l-460 579v-579h-60v704h36l460 -579v579z" />
    <glyph glyph-name="Xi" unicode="&#x39e;" horiz-adv-x="608" 
d="M72 704h464v-56h-464v56zM108 396h392v-56h-392v56zM56 56h496v-56h-496v56z" />
    <glyph glyph-name="Omicron" unicode="&#x39f;" horiz-adv-x="808" 
d="M221 35.5q-82 47.5 -129.5 131t-47.5 185.5q0 103 46.5 186t129 130.5t184.5 47.5t184.5 -47.5t129 -130.5t46.5 -186t-46.5 -186t-129 -130.5t-184.5 -47.5q-101 0 -183 47.5zM556.5 84q67.5 40 105.5 110.5t38 157.5t-38 157.5t-105.5 110.5t-152.5 40
q-83 0 -150.5 -40t-106.5 -110.5t-39 -157.5t38 -157.5t105.5 -110.5t152.5 -40t152.5 40z" />
    <glyph glyph-name="Pi" unicode="&#x3a0;" horiz-adv-x="736" 
d="M640 704v-704h-64v648h-416v-648h-64v704h544z" />
    <glyph glyph-name="Rho" unicode="&#x3a1;" horiz-adv-x="600" 
d="M438.5 680q51.5 -24 82.5 -71t31 -113t-31 -113t-82.5 -71t-110.5 -24h-172v-288h-60v704h232q59 0 110.5 -24zM414.5 365q36.5 21 55 55.5t18.5 75.5t-18.5 75.5t-55 55.5t-86.5 21h-172v-304h172q50 0 86.5 21z" />
    <glyph glyph-name="Sigma" unicode="&#x3a3;" horiz-adv-x="548" 
d="M123 56h393v-56h-476v36l260 331l-252 301v36h456v-56h-367l227 -272v-12z" />
    <glyph glyph-name="Tau" unicode="&#x3a4;" horiz-adv-x="620" 
d="M604 704v-56h-264v-648h-60v648h-264v56h588z" />
    <glyph glyph-name="Upsilon" unicode="&#x3a5;" horiz-adv-x="632" 
d="M560 704h68l-280 -432v-272h-60v272l-284 432h68l245 -378z" />
    <glyph glyph-name="Phi" unicode="&#x3a6;" horiz-adv-x="784" 
d="M708.5 221q-39.5 -58 -113.5 -93t-175 -39v-89h-56v89q-101 4 -175 39t-113.5 93t-39.5 131t39 131t113 93t176 39v89h56v-89q102 -4 176 -38.5t113 -93t39 -131.5t-39.5 -131zM131 247.5q31 -46.5 90.5 -74.5t142.5 -32v422q-125 -6 -194.5 -63.5t-69.5 -147.5
q0 -58 31 -104.5zM562.5 173.5q59.5 28.5 90.5 75t31 103.5q0 90 -69.5 147.5t-194.5 63.5v-422q83 4 142.5 32.5z" />
    <glyph glyph-name="Chi" unicode="&#x3a7;" 
d="M600 0h-72l-229 312l-231 -312h-68l266 358l-254 346h72l217 -297l215 297h68l-249 -343z" />
    <glyph glyph-name="Psi" unicode="&#x3a8;" horiz-adv-x="788" 
d="M713 704v-252q0 -127 -76 -200.5t-213 -81.5v-170h-60v170q-137 8 -213 81.5t-76 200.5v252h60v-252q0 -214 229 -227v479h60v-479q113 6 171 63.5t58 163.5v252h60z" />
    <glyph glyph-name="uni03A9" unicode="&#x3a9;" horiz-adv-x="792" 
d="M484 56h256v-56h-308v104q117 17 184.5 90t67.5 186q0 75 -36 139t-101.5 102.5t-150.5 38.5t-150.5 -38.5t-101.5 -102.5t-36 -139q0 -112 69 -185.5t183 -90.5v-104h-308v56h256v9q-71 12 -131.5 56t-96.5 111.5t-36 147.5q0 90 44.5 167t124.5 123t183 46t183 -46
t124.5 -123.5t44.5 -166.5q0 -80 -36 -147.5t-96.5 -111.5t-131.5 -56v-9z" />
    <glyph glyph-name="Iotadieresis" unicode="&#x3aa;" horiz-adv-x="252" 
d="M96 704h60v-704h-60v704zM14 900h60v-68h-60v68zM178 900h60v-68h-60v68z" />
    <glyph glyph-name="Upsilondieresis" unicode="&#x3ab;" horiz-adv-x="632" 
d="M560 704h68l-280 -432v-272h-60v272l-284 432h68l245 -378zM188 900h60v-68h-60v68zM352 900h60v-68h-60v68z" />
    <glyph glyph-name="alphatonos" unicode="&#x3ac;" horiz-adv-x="592" 
d="M589 16q-40 -28 -81 -28q-34 0 -58 16t-33 48q-60 -64 -153 -64q-64 0 -117.5 35.5t-84 95.5t-30.5 129t30.5 129t84 95.5t121.5 35.5q87 0 148 -53l24 41h32v-404q0 -25 13.5 -38.5t30.5 -13.5q27 0 49 17zM349 56.5q33 16.5 63 50.5v290q-28 28 -61.5 43.5t-78.5 15.5
q-49 0 -90 -27.5t-65.5 -75t-24.5 -105.5q0 -56 22 -103.5t63 -76t95 -28.5q44 0 77 16.5zM300 704h56q-7 -95 -48 -152h-40q30 63 32 152z" />
    <glyph glyph-name="epsilontonos" unicode="&#x3ad;" horiz-adv-x="444" 
d="M423 46q-35 -28 -82 -43t-97 -15q-64 0 -110 20.5t-70 54.5t-24 73q0 44 25 76t73 48q-37 17 -57.5 46t-20.5 66q0 61 48 98.5t128 37.5q107 0 181 -49l-22 -45q-33 21 -73.5 31.5t-81.5 10.5q-61 0 -90.5 -22.5t-29.5 -61.5q0 -44 37 -68t91 -24h76v-48h-76
q-72 0 -110 -24t-38 -68q0 -47 39.5 -73.5t104.5 -26.5q44 0 83 12.5t69 36.5zM248 704h56q-7 -95 -48 -152h-40q30 63 32 152z" />
    <glyph glyph-name="etatonos" unicode="&#x3ae;" horiz-adv-x="524" 
d="M411 454.5q49 -53.5 49 -138.5v-524h-60v520q0 71 -36 107.5t-100 36.5q-45 0 -77.5 -17.5t-58.5 -50.5v-388h-60v496h28l32 -56q32 36 66.5 52t77.5 16q90 0 139 -53.5zM262 704h56q-7 -95 -48 -152h-40q30 63 32 152z" />
    <glyph glyph-name="iotatonos" unicode="&#x3af;" horiz-adv-x="243" 
d="M160 -12q-44 0 -70 26t-26 78v404h60v-404q0 -25 13.5 -38.5t30.5 -13.5q27 0 49 17l24 -41q-40 -28 -81 -28zM99 704h56q-7 -95 -48 -152h-40q30 63 32 152z" />
    <glyph glyph-name="upsilondieresistonos" unicode="&#x3b0;" horiz-adv-x="524" 
d="M109 49q-45 61 -45 151v296h60v-296q0 -78 33 -119t95 -41q83 0 123.5 61t40.5 167q0 117 -52 203l49 34q32 -51 47.5 -110t15.5 -117q0 -129 -56 -209.5t-172 -80.5q-94 0 -139 61zM247 652.5q4 32.5 5 87.5h56q-4 -51 -12 -88t-28 -64h-40q15 32 19 64.5zM140 656h60
v-68h-60v68zM328 656h60v-68h-60v68z" />
    <glyph glyph-name="alpha" unicode="&#x3b1;" horiz-adv-x="592" 
d="M589 16q-40 -28 -81 -28q-34 0 -58 16t-33 48q-60 -64 -153 -64q-64 0 -117.5 35.5t-84 95.5t-30.5 129t30.5 129t84 95.5t121.5 35.5q87 0 148 -53l24 41h32v-404q0 -25 13.5 -38.5t30.5 -13.5q27 0 49 17zM349 56.5q33 16.5 63 50.5v290q-28 28 -61.5 43.5t-78.5 15.5
q-49 0 -90 -27.5t-65.5 -75t-24.5 -105.5q0 -56 22 -103.5t63 -76t95 -28.5q44 0 77 16.5z" />
    <glyph glyph-name="beta" unicode="&#x3b2;" horiz-adv-x="544" 
d="M475 304q37 -50 37 -116q0 -58 -30.5 -103.5t-82.5 -71t-115 -25.5q-99 0 -160 59v-255h-60v684q0 107 54.5 173.5t161.5 66.5q58 0 101.5 -24.5t67 -64t23.5 -83.5q0 -62 -27.5 -104.5t-74.5 -64.5q68 -21 105 -71zM363.5 56q38.5 16 63.5 49.5t25 82.5q0 71 -48 113.5
t-136 42.5h-64v52h60q69 0 108.5 40t39.5 108q0 49 -37 84.5t-103 35.5q-64 0 -106 -45t-42 -131v-364q55 -84 160 -84q41 0 79.5 16z" />
    <glyph glyph-name="gamma" unicode="&#x3b3;" horiz-adv-x="468" 
d="M464 496q-33 -150 -86 -282.5t-114 -217.5v-204h-60v204l-200 500h64l172 -444q55 100 97.5 214t66.5 230h60z" />
    <glyph glyph-name="delta" unicode="&#x3b4;" horiz-adv-x="540" 
d="M462.5 364q45.5 -62 45.5 -140q0 -61 -29 -115t-83.5 -87.5t-127.5 -33.5q-74 0 -127.5 32.5t-81 86.5t-27.5 117q0 59 26 107.5t71.5 78.5t101.5 39q-57 24 -90 61t-33 86q0 50 41 85t123 35q42 0 84.5 -10.5t78.5 -30.5l-26 -43q-62 32 -137 32q-52 0 -78 -18.5
t-26 -53.5q0 -31 29.5 -59.5t98.5 -56.5q121 -50 166.5 -112zM361 64.5q40 24.5 63.5 66.5t23.5 93t-23.5 93t-63.5 66.5t-89 24.5q-51 0 -92 -24t-64.5 -66.5t-23.5 -93.5q0 -52 23.5 -94t64.5 -66t92 -24q49 0 89 24.5z" />
    <glyph glyph-name="epsilon" unicode="&#x3b5;" horiz-adv-x="444" 
d="M423 46q-35 -28 -82 -43t-97 -15q-64 0 -110 20.5t-70 54.5t-24 73q0 44 25 76t73 48q-37 17 -57.5 46t-20.5 66q0 61 48 98.5t128 37.5q107 0 181 -49l-22 -45q-33 21 -73.5 31.5t-81.5 10.5q-61 0 -90.5 -22.5t-29.5 -61.5q0 -44 37 -68t91 -24h76v-48h-76
q-72 0 -110 -24t-38 -68q0 -47 39.5 -73.5t104.5 -26.5q44 0 83 12.5t69 36.5z" />
    <glyph glyph-name="zeta" unicode="&#x3b6;" horiz-adv-x="420" 
d="M175 461.5q-75 -97.5 -75 -189.5q0 -67 34.5 -112t105.5 -76l44 -20q64 -29 88 -58t24 -70q0 -26 -18 -53.5t-56 -64.5l-38 34q32 34 42 52t10 32q0 20 -16 39.5t-64 40.5l-44 20q-172 76 -172 232q0 99 67.5 193t200.5 191h-268v52h372v-36q-162 -109 -237 -206.5z" />
    <glyph glyph-name="eta" unicode="&#x3b7;" horiz-adv-x="524" 
d="M411 454.5q49 -53.5 49 -138.5v-524h-60v520q0 71 -36 107.5t-100 36.5q-45 0 -77.5 -17.5t-58.5 -50.5v-388h-60v496h28l32 -56q32 36 66.5 52t77.5 16q90 0 139 -53.5z" />
    <glyph glyph-name="theta" unicode="&#x3b8;" horiz-adv-x="564" 
d="M453 625q63 -91 63 -273q0 -183 -63 -273.5t-169 -90.5q-108 0 -172 91.5t-64 272.5q0 182 64 273t172 91q106 0 169 -91zM158 596q-46 -68 -50 -216h348q-4 148 -51.5 216t-124.5 68q-76 0 -122 -68zM405.5 109q46.5 69 50.5 223h-348q4 -152 52.5 -222t123.5 -70
t121.5 69z" />
    <glyph glyph-name="iota" unicode="&#x3b9;" horiz-adv-x="243" 
d="M160 -12q-44 0 -70 26t-26 78v404h60v-404q0 -25 13.5 -38.5t30.5 -13.5q27 0 49 17l24 -41q-40 -28 -81 -28z" />
    <glyph glyph-name="kappa" unicode="&#x3ba;" horiz-adv-x="452" 
d="M460 0h-80l-252 233v-233h-60v496h60v-232l240 232h72l-255 -244z" />
    <glyph glyph-name="lambda" unicode="&#x3bb;" horiz-adv-x="472" 
d="M412 0l-173 446l-179 -446h-60l211 517l-39 91q-13 31 -28.5 43.5t-39.5 12.5t-49 -17l-25 41q38 28 78 28t66 -21.5t46 -70.5l252 -624h-60z" />
    <glyph glyph-name="uni03BC" unicode="&#x3bc;" 
d="M593 16q-40 -28 -81 -28q-36 0 -60.5 17.5t-32.5 53.5q-23 -33 -61 -52t-90 -19q-46 0 -79 15.5t-50 44.5v-256h-56v704h60v-296q0 -160 129 -160q59 0 89.5 19t54.5 52v385h60v-404q0 -25 13.5 -38.5t30.5 -13.5q27 0 49 17z" />
    <glyph glyph-name="nu" unicode="&#x3bd;" horiz-adv-x="460" 
d="M460 496q-27 -122 -82.5 -253.5t-129.5 -242.5h-36l-212 496h60l178 -422q107 184 162 422h60z" />
    <glyph glyph-name="xi" unicode="&#x3be;" horiz-adv-x="436" 
d="M395 7q25 -27 25 -55q0 -37 -18.5 -68t-59.5 -67l-36 33q34 36 44 55.5t10 38.5q0 34 -64 64l-60 28q-95 44 -145.5 95.5t-50.5 116.5q0 58 36.5 101t102.5 60q-53 18 -82 54t-29 81q0 48 23.5 87.5t68 62t104.5 22.5q87 0 160 -39l-25 -44q-30 16 -62 23.5t-73 7.5
q-63 0 -99.5 -31t-36.5 -85q0 -51 43.5 -83.5t112.5 -32.5h84v-52h-84q-82 0 -133 -34.5t-51 -93.5q0 -50 37.5 -88t126.5 -80l60 -28q46 -22 71 -49z" />
    <glyph glyph-name="omicron" unicode="&#x3bf;" horiz-adv-x="552" 
d="M151 22.5q-56 34.5 -87.5 94t-31.5 131.5t31.5 131.5t87.5 94t125 34.5t125 -34.5t87.5 -94t31.5 -131.5t-31.5 -131.5t-87.5 -94t-125 -34.5t-125 34.5zM371 68q42 28 65.5 75.5t23.5 104.5t-23.5 104.5t-65.5 75.5t-95 28t-95 -27.5t-65.5 -75t-23.5 -105.5
q0 -57 23.5 -104.5t65.5 -75.5t95 -28t95 28z" />
    <glyph glyph-name="pi" unicode="&#x3c0;" horiz-adv-x="593" 
d="M577 16q-40 -28 -81 -28q-44 0 -70 26t-26 78v356h-216v-448h-60v448h-108v48h556v-48h-112v-356q0 -25 13.5 -38.5t30.5 -13.5q27 0 49 17z" />
    <glyph glyph-name="rho" unicode="&#x3c1;" horiz-adv-x="544" 
d="M402 474.5q52 -33.5 81 -92t29 -130.5q0 -73 -28 -133.5t-80.5 -95.5t-123.5 -35q-47 0 -87.5 17t-68.5 45v-258h-60v460q0 130 59 193t161 63q66 0 118 -33.5zM363 62q40 22 64.5 68.5t24.5 117.5q0 67 -23.5 114t-62.5 70.5t-86 23.5q-73 0 -114.5 -50.5t-41.5 -149.5
v-149q29 -34 69.5 -50.5t82.5 -16.5q47 0 87 22z" />
    <glyph glyph-name="sigma1" unicode="&#x3c2;" horiz-adv-x="468" 
d="M345 -97.5q11 21.5 11 41.5q0 21 -16 39t-60 37l-56 24q-82 35 -137 90t-55 146q0 65 27.5 117t77 81.5t111.5 29.5q57 0 97 -14t79 -45l-26 -46q-32 24 -67 36.5t-83 12.5q-46 0 -81.5 -21.5t-55 -59t-19.5 -83.5q0 -55 21 -92t55 -60t84 -44l56 -24q58 -25 83 -55
t25 -65q0 -34 -18.5 -65t-58.5 -67l-38 34q33 31 44 52.5z" />
    <glyph glyph-name="sigma" unicode="&#x3c3;" horiz-adv-x="564" 
d="M548 448h-145q55 -29 86 -83t31 -124q0 -72 -31 -130t-86.5 -90.5t-126.5 -32.5t-126.5 33t-86.5 91t-31 130q0 71 31 129t88.5 91.5t132.5 33.5h264v-48zM436.5 342q-23.5 47 -65.5 74.5t-95 27.5q-54 0 -96 -27t-65 -73t-23 -102q0 -57 23 -103t65 -72.5t96 -26.5
t96 26t65 72t23 103q0 54 -23.5 101z" />
    <glyph glyph-name="tau" unicode="&#x3c4;" horiz-adv-x="432" 
d="M240 448v-356q0 -25 13.5 -38.5t30.5 -13.5q26 0 49 17l24 -41q-40 -28 -81 -28q-44 0 -70 26t-26 78v356h-164v48h400v-48h-176z" />
    <glyph glyph-name="upsilon" unicode="&#x3c5;" horiz-adv-x="524" 
d="M109 49q-45 61 -45 151v296h60v-296q0 -78 33 -119t95 -41q83 0 123.5 61t40.5 167q0 117 -52 203l49 34q32 -51 47.5 -110t15.5 -117q0 -129 -56 -209.5t-172 -80.5q-94 0 -139 61z" />
    <glyph glyph-name="phi" unicode="&#x3c6;" horiz-adv-x="712" 
d="M587 71q-77 -73 -207 -82v-197h-60v197q-84 5 -144.5 42t-92 99t-31.5 142q0 58 20 115t57 107l48 -28q-65 -88 -65 -198q0 -64 24.5 -115.5t71.5 -81.5t112 -31v256q0 105 40.5 158.5t119.5 53.5q55 0 97 -30.5t64.5 -83.5t22.5 -118q0 -132 -77 -205zM547.5 107.5
q56.5 61.5 56.5 164.5q0 83 -33.5 133.5t-94.5 50.5q-48 0 -72 -36t-24 -124v-256q111 6 167.5 67.5z" />
    <glyph glyph-name="chi" unicode="&#x3c7;" horiz-adv-x="480" 
d="M492 -208h-64l-184 321l-192 -321h-64l226 374l-190 330h64l158 -275l158 275h64l-192 -328z" />
    <glyph glyph-name="psi" unicode="&#x3c8;" horiz-adv-x="700" 
d="M589 78.5q-59 -79.5 -209 -89.5v-197h-60v196q-126 4 -191 57t-65 175v276h60v-264q0 -98 45.5 -143t150.5 -49v576h60v-575q85 6 130.5 37.5t61.5 84t16 133.5q0 86 -24 200h57q27 -94 27 -196q0 -142 -59 -221.5z" />
    <glyph glyph-name="omega" unicode="&#x3c9;" horiz-adv-x="784" 
d="M732 252q0 -76 -23.5 -136t-68 -94t-104.5 -34q-51 0 -90 30t-60 87q-17 -55 -56 -86t-94 -31q-87 0 -135.5 68.5t-48.5 183.5q0 71 16.5 138.5t50.5 122.5l44 -32q-51 -88 -51 -225q0 -98 32.5 -151t91.5 -53q124 0 124 208v128h60v-128q0 -108 31.5 -158t84.5 -50
q62 0 99 55t37 153q0 134 -53 223l45 32q68 -105 68 -251z" />
    <glyph glyph-name="iotadieresis" unicode="&#x3ca;" horiz-adv-x="243" 
d="M160 -12q-44 0 -70 26t-26 78v404h60v-404q0 -25 13.5 -38.5t30.5 -13.5q27 0 49 17l24 -41q-40 -28 -81 -28zM-17 692h60v-68h-60v68zM147 692h60v-68h-60v68z" />
    <glyph glyph-name="upsilondieresis" unicode="&#x3cb;" horiz-adv-x="524" 
d="M109 49q-45 61 -45 151v296h60v-296q0 -78 33 -119t95 -41q83 0 123.5 61t40.5 167q0 117 -52 203l49 34q32 -51 47.5 -110t15.5 -117q0 -129 -56 -209.5t-172 -80.5q-94 0 -139 61zM148 692h60v-68h-60v68zM312 692h60v-68h-60v68z" />
    <glyph glyph-name="omicrontonos" unicode="&#x3cc;" horiz-adv-x="552" 
d="M151 22.5q-56 34.5 -87.5 94t-31.5 131.5t31.5 131.5t87.5 94t125 34.5t125 -34.5t87.5 -94t31.5 -131.5t-31.5 -131.5t-87.5 -94t-125 -34.5t-125 34.5zM371 68q42 28 65.5 75.5t23.5 104.5t-23.5 104.5t-65.5 75.5t-95 28t-95 -27.5t-65.5 -75t-23.5 -105.5
q0 -57 23.5 -104.5t65.5 -75.5t95 -28t95 28zM280 704h56q-7 -95 -48 -152h-40q30 63 32 152z" />
    <glyph glyph-name="upsilontonos" unicode="&#x3cd;" horiz-adv-x="524" 
d="M109 49q-45 61 -45 151v296h60v-296q0 -78 33 -119t95 -41q83 0 123.5 61t40.5 167q0 117 -52 203l49 34q32 -51 47.5 -110t15.5 -117q0 -129 -56 -209.5t-172 -80.5q-94 0 -139 61zM264 704h56q-7 -95 -48 -152h-40q30 63 32 152z" />
    <glyph glyph-name="omegatonos" unicode="&#x3ce;" horiz-adv-x="784" 
d="M732 252q0 -76 -23.5 -136t-68 -94t-104.5 -34q-51 0 -90 30t-60 87q-17 -55 -56 -86t-94 -31q-87 0 -135.5 68.5t-48.5 183.5q0 71 16.5 138.5t50.5 122.5l44 -32q-51 -88 -51 -225q0 -98 32.5 -151t91.5 -53q124 0 124 208v128h60v-128q0 -108 31.5 -158t84.5 -50
q62 0 99 55t37 153q0 134 -53 223l45 32q68 -105 68 -251zM392 704h56q-7 -95 -48 -152h-40q30 63 32 152z" />
    <glyph glyph-name="uni0400" unicode="&#x400;" horiz-adv-x="600" 
d="M156 56h388v-56h-448v704h432v-56h-372v-252h336v-56h-336v-284zM206 912h64l84 -140v-4h-48z" />
    <glyph glyph-name="uni0401" unicode="&#x401;" horiz-adv-x="600" 
d="M156 56h388v-56h-448v704h432v-56h-372v-252h336v-56h-336v-284zM188 900h60v-68h-60v68zM352 900h60v-68h-60v68z" />
    <glyph glyph-name="uni0402" unicode="&#x402;" horiz-adv-x="804" 
d="M659.5 400q55.5 -32 84 -81t28.5 -99q0 -72 -30 -124.5t-81.5 -80t-116.5 -27.5q-92 0 -154 48l31 49q23 -20 55 -30.5t68 -10.5q74 0 119 48t45 128q0 43 -22 78.5t-63 56.5t-95 21q-56 0 -105.5 -25t-82.5 -67v-284h-60v648h-264v56h588v-56h-264v-305q30 40 81 64.5
t107 24.5q76 0 131.5 -32z" />
    <glyph glyph-name="uni0403" unicode="&#x403;" horiz-adv-x="536" 
d="M520 704v-56h-364v-648h-60v704h424zM246 772l84 140h64l-100 -144h-48v4z" />
    <glyph glyph-name="uni0404" unicode="&#x404;" horiz-adv-x="684" 
d="M620 116l27 -48q-59 -45 -115 -62.5t-124 -17.5q-100 0 -183.5 48.5t-132 132t-48.5 183.5t48.5 183.5t132 132t183.5 48.5q68 0 124 -17.5t115 -62.5l-27 -48q-50 40 -102 56t-110 16q-78 0 -143 -34.5t-105.5 -95.5t-49.5 -138h390v-56h-392q4 -83 44 -149.5
t107 -104.5t149 -38q119 0 212 72z" />
    <glyph glyph-name="uni0405" unicode="&#x405;" horiz-adv-x="592" 
d="M164.5 11.5q-64.5 23.5 -115.5 68.5l27 50q48 -41 105 -63.5t119 -22.5q89 0 134.5 36.5t45.5 99.5q0 38 -16.5 64t-54.5 45t-105 35l-52 12q-78 18 -135 64.5t-57 127.5q0 50 26.5 93t79 69t126.5 26q70 0 126.5 -19t109.5 -57l-31 -46q-43 31 -96 48.5t-105 17.5
q-85 0 -128.5 -35.5t-43.5 -92.5q0 -61 42 -94t134 -54l52 -12q94 -22 143 -69.5t49 -118.5q0 -56 -27 -100t-82 -70t-135 -26q-71 0 -135.5 23.5z" />
    <glyph glyph-name="uni0406" unicode="&#x406;" horiz-adv-x="252" 
d="M96 704h60v-704h-60v704z" />
    <glyph glyph-name="uni0407" unicode="&#x407;" horiz-adv-x="252" 
d="M96 704h60v-704h-60v704zM12 900h60v-68h-60v68zM176 900h60v-68h-60v68z" />
    <glyph glyph-name="uni0408" unicode="&#x408;" horiz-adv-x="460" 
d="M83.5 2.5q-41.5 14.5 -71.5 41.5l29 46q25 -23 58.5 -36.5t72.5 -13.5q69 0 106.5 40t37.5 108v516h60v-512q0 -92 -54 -148t-150 -56q-47 0 -88.5 14.5z" />
    <glyph glyph-name="uni0409" unicode="&#x409;" horiz-adv-x="1112" 
d="M951 381.5q51 -22.5 82 -67.5t31 -110t-31 -111t-82 -69.5t-111 -23.5h-244v648h-336v-228q0 -162 -19 -256.5t-57.5 -135t-99.5 -40.5q-44 0 -83 22l23 46q27 -12 56 -12q40 0 65.5 27.5t40 108.5t14.5 236v288h456v-300h184q60 0 111 -22.5zM926.5 76.5
q36.5 20.5 55 54t18.5 73.5q0 61 -42.5 102.5t-117.5 41.5h-184v-292h184q50 0 86.5 20.5z" />
    <glyph glyph-name="uni040A" unicode="&#x40a;" horiz-adv-x="1096" 
d="M983.5 343.5q64.5 -48.5 64.5 -143.5q0 -65 -31 -110t-82 -67.5t-111 -22.5h-256v336h-412v-336h-60v704h60v-312h412v312h60v-312h196q95 0 159.5 -48.5zM941.5 97.5q42.5 41.5 42.5 102.5q0 60 -42 98t-118 38h-196v-280h196q75 0 117.5 41.5z" />
    <glyph glyph-name="uni040B" unicode="&#x40b;" horiz-adv-x="840" 
d="M712 365.5q56 -66.5 56 -173.5v-192h-60v184q0 100 -44 146t-132 46q-64 0 -111 -24.5t-81 -71.5v-280h-60v648h-264v56h588v-56h-264v-302q71 86 196 86q120 0 176 -66.5z" />
    <glyph glyph-name="uni040C" unicode="&#x40c;" horiz-adv-x="644" 
d="M268 368l376 -368h-80l-344 340h-64v-340h-60v704h60v-308h64l332 308h76zM294 772l84 140h64l-100 -144h-48v4z" />
    <glyph glyph-name="uni040D" unicode="&#x40d;" horiz-adv-x="772" 
d="M640 704h36v-704h-60v593l-484 -593h-36v704h60v-593zM286 912h64l84 -140v-4h-48z" />
    <glyph glyph-name="uni040E" unicode="&#x40e;" horiz-adv-x="600" 
d="M600 704l-284 -588q-30 -62 -73 -93t-91 -31q-49 0 -84 16l23 49q28 -13 57 -13q34 0 66.5 23.5t57.5 76.5l4 8l-276 552h64l241 -490l231 490h64zM207.5 816q-36.5 36 -39.5 96h48q2 -40 23.5 -61.5t60.5 -21.5q36 0 57.5 21.5t22.5 61.5h48q-4 -60 -39.5 -96t-88.5 -36
q-56 0 -92.5 36z" />
    <glyph glyph-name="uni040F" unicode="&#x40f;" horiz-adv-x="744" 
d="M588 704h60v-704h-237l-23 -180h-28l-22 180h-242v704h60v-648h432v648z" />
    <glyph glyph-name="uni0410" unicode="&#x410;" horiz-adv-x="696" 
d="M620 0l-86 196h-372l-86 -196h-64l316 716h40l316 -716h-64zM186 252h324l-162 369z" />
    <glyph glyph-name="uni0411" unicode="&#x411;" horiz-adv-x="640" 
d="M484.5 369.5q48.5 -22.5 78 -67t29.5 -106.5t-29.5 -106.5t-78 -67t-104.5 -22.5h-284v704h444v-56h-384v-256h224q56 0 104.5 -22.5zM489 96.5q39 40.5 39 99.5t-39 99.5t-109 40.5h-224v-280h224q70 0 109 40.5z" />
    <glyph glyph-name="uni0412" unicode="&#x412;" horiz-adv-x="640" 
d="M559.5 310q36.5 -49 36.5 -110t-28.5 -106.5t-77 -69.5t-106.5 -24h-288v704h236q93 0 154.5 -47t61.5 -137q0 -47 -23 -82.5t-63 -59.5q61 -19 97.5 -68zM156 648v-256h184q65 0 104.5 36t39.5 92q0 58 -38.5 93t-113.5 35h-176zM464 76.5q34 20.5 51 53t17 70.5
q0 60 -40 98t-112 38h-224v-280h224q50 0 84 20.5z" />
    <glyph glyph-name="uni0413" unicode="&#x413;" horiz-adv-x="536" 
d="M520 704v-56h-364v-648h-60v704h424z" />
    <glyph glyph-name="uni0414" unicode="&#x414;" horiz-adv-x="724" 
d="M704 56v-236h-32l-32 180h-556l-32 -180h-32v236h60q41 27 61 67t25.5 96t5.5 153v332h448v-648h84zM215.5 173q-16.5 -73 -60.5 -117h405v592h-328v-276q0 -126 -16.5 -199z" />
    <glyph glyph-name="uni0415" unicode="&#x415;" horiz-adv-x="600" 
d="M156 56h388v-56h-448v704h432v-56h-372v-252h336v-56h-336v-284z" />
    <glyph glyph-name="uni0416" unicode="&#x416;" horiz-adv-x="932" 
d="M592 367l340 -367h-76l-316 340h-44v-340h-60v340h-44l-316 -340h-76l341 368l-325 336h76l300 -308h44v308h60v-308h44l300 308h76l-324 -335v-2z" />
    <glyph glyph-name="uni0417" unicode="&#x417;" horiz-adv-x="600" 
d="M502 300.5q38 -45.5 38 -108.5q0 -55 -30 -101.5t-88.5 -74.5t-141.5 -28q-146 0 -236 87l30 46q83 -77 206 -77q92 0 144 41t52 111t-62.5 105t-149.5 35h-72v56h76q78 0 129 36.5t51 103.5q0 57 -48.5 92.5t-127.5 35.5q-51 0 -102.5 -20t-89.5 -56l-32 41
q42 43 101 67t127 24q110 0 173 -50.5t63 -133.5q0 -56 -31.5 -98t-84.5 -65q68 -23 106 -68.5z" />
    <glyph glyph-name="uni0418" unicode="&#x418;" horiz-adv-x="772" 
d="M640 704h36v-704h-60v593l-484 -593h-36v704h60v-593z" />
    <glyph glyph-name="uni0419" unicode="&#x419;" horiz-adv-x="772" 
d="M640 704h36v-704h-60v593l-484 -593h-36v704h60v-593zM287.5 816q-36.5 36 -39.5 96h48q2 -40 23.5 -61.5t60.5 -21.5q36 0 57.5 21.5t22.5 61.5h48q-4 -60 -39.5 -96t-88.5 -36q-56 0 -92.5 36z" />
    <glyph glyph-name="uni041A" unicode="&#x41a;" horiz-adv-x="644" 
d="M268 368l376 -368h-80l-344 340h-64v-340h-60v704h60v-308h64l332 308h76z" />
    <glyph glyph-name="uni041B" unicode="&#x41b;" horiz-adv-x="752" 
d="M656 0h-60v648h-336v-228q0 -162 -19 -256.5t-57.5 -135t-99.5 -40.5q-44 0 -83 22l23 46q27 -12 56 -12q40 0 65.5 27.5t40 108.5t14.5 236v288h456v-704z" />
    <glyph glyph-name="uni041C" unicode="&#x41c;" horiz-adv-x="904" 
d="M764 704h44v-704h-60v546l-280 -546h-36l-276 542v-542h-60v704h44l312 -616z" />
    <glyph glyph-name="uni041D" unicode="&#x41d;" horiz-adv-x="752" 
d="M596 704h60v-704h-60v336h-440v-336h-60v704h60v-312h440v312z" />
    <glyph glyph-name="uni041E" unicode="&#x41e;" horiz-adv-x="808" 
d="M221 35.5q-82 47.5 -129.5 131t-47.5 185.5q0 103 46.5 186t129 130.5t184.5 47.5t184.5 -47.5t129 -130.5t46.5 -186t-46.5 -186t-129 -130.5t-184.5 -47.5q-101 0 -183 47.5zM556.5 84q67.5 40 105.5 110.5t38 157.5t-38 157.5t-105.5 110.5t-152.5 40
q-83 0 -150.5 -40t-106.5 -110.5t-39 -157.5t38 -157.5t105.5 -110.5t152.5 -40t152.5 40z" />
    <glyph glyph-name="uni041F" unicode="&#x41f;" horiz-adv-x="752" 
d="M656 704v-704h-60v648h-440v-648h-60v704h560z" />
    <glyph glyph-name="uni0420" unicode="&#x420;" horiz-adv-x="600" 
d="M438.5 680q51.5 -24 82.5 -71t31 -113t-31 -113t-82.5 -71t-110.5 -24h-172v-288h-60v704h232q59 0 110.5 -24zM414.5 365q36.5 21 55 55.5t18.5 75.5t-18.5 75.5t-55 55.5t-86.5 21h-172v-304h172q50 0 86.5 21z" />
    <glyph glyph-name="uni0421" unicode="&#x421;" horiz-adv-x="660" 
d="M221.5 36.5q-82.5 48.5 -130 132t-47.5 183.5t47.5 183.5t130 132t182.5 48.5q129 0 219 -73l-27 -48q-38 32 -88 48.5t-104 16.5q-84 0 -151.5 -40t-106 -110.5t-38.5 -157.5t38.5 -157.5t106 -110.5t151.5 -40q54 0 104.5 18.5t87.5 50.5l27 -49q-92 -76 -219 -76
q-100 0 -182.5 48.5z" />
    <glyph glyph-name="uni0422" unicode="&#x422;" horiz-adv-x="620" 
d="M604 704v-56h-264v-648h-60v648h-264v56h588z" />
    <glyph glyph-name="uni0423" unicode="&#x423;" horiz-adv-x="600" 
d="M600 704l-284 -588q-30 -62 -73 -93t-91 -31q-49 0 -84 16l23 49q28 -13 57 -13q34 0 66.5 23.5t57.5 76.5l4 8l-276 552h64l241 -490l231 490h64z" />
    <glyph glyph-name="uni0424" unicode="&#x424;" horiz-adv-x="792" 
d="M708.5 204.5q-39.5 -63.5 -112 -97t-168.5 -35.5v-84h-60v84q-95 1 -168.5 34.5t-114.5 97.5t-41 152t40.5 153t113.5 100t170 35v72h60v-72q96 -1 168.5 -36t112 -99.5t39.5 -152.5t-39.5 -151.5zM175 188.5q67 -59.5 193 -60.5v460q-125 -1 -192.5 -62t-67.5 -170
q0 -108 67 -167.5zM618 189.5q66 59.5 66 166.5q0 108 -66 169t-190 63v-460q124 2 190 61.5z" />
    <glyph glyph-name="uni0425" unicode="&#x425;" 
d="M600 0h-72l-229 312l-231 -312h-68l266 358l-254 346h72l217 -297l215 297h68l-249 -343z" />
    <glyph glyph-name="uni0426" unicode="&#x426;" horiz-adv-x="752" 
d="M732 56v-236h-32l-32 180h-572v704h60v-648h432v648h60v-648h84z" />
    <glyph glyph-name="uni0427" unicode="&#x427;" horiz-adv-x="656" 
d="M560 704v-704h-60v358q-71 -86 -196 -86q-120 0 -176 66.5t-56 173.5v192h60v-184q0 -100 44 -146t132 -46q64 0 111 24.5t81 71.5v280h60z" />
    <glyph glyph-name="uni0428" unicode="&#x428;" horiz-adv-x="1044" 
d="M888 704h60v-704h-852v704h60v-648h336v648h60v-648h336v648z" />
    <glyph glyph-name="uni0429" unicode="&#x429;" horiz-adv-x="1052" 
d="M1032 56v-236h-32l-32 180h-872v704h60v-648h336v648h60v-648h336v648h60v-648h84z" />
    <glyph glyph-name="uni042A" unicode="&#x42a;" horiz-adv-x="736" 
d="M575 381.5q51 -22.5 82 -67.5t31 -110t-31 -111t-82 -69.5t-111 -23.5h-252v648h-196v56h256v-300h192q60 0 111 -22.5zM550.5 76.5q36.5 20.5 55 54t18.5 73.5q0 61 -42.5 102.5t-117.5 41.5h-192v-292h192q50 0 86.5 20.5z" />
    <glyph glyph-name="uni042B" unicode="&#x42b;" horiz-adv-x="832" 
d="M459 381.5q51 -22.5 82 -67.5t31 -110t-31 -111t-82 -69.5t-111 -23.5h-252v704h60v-300h192q60 0 111 -22.5zM676 704h60v-704h-60v704zM434.5 76.5q36.5 20.5 55 54t18.5 73.5q0 61 -42.5 102.5t-117.5 41.5h-192v-292h192q50 0 86.5 20.5z" />
    <glyph glyph-name="uni042C" unicode="&#x42c;" horiz-adv-x="620" 
d="M459 381.5q51 -22.5 82 -67.5t31 -110t-31 -111t-82 -69.5t-111 -23.5h-252v704h60v-300h192q60 0 111 -22.5zM434.5 76.5q36.5 20.5 55 54t18.5 73.5q0 61 -42.5 102.5t-117.5 41.5h-192v-292h192q50 0 86.5 20.5z" />
    <glyph glyph-name="uni042D" unicode="&#x42d;" horiz-adv-x="684" 
d="M459.5 667.5q83.5 -48.5 132 -132t48.5 -183.5t-48.5 -183.5t-132 -132t-183.5 -48.5q-67 0 -123.5 17.5t-115.5 62.5l27 48q93 -72 212 -72q82 0 149 38t107 104.5t44 149.5h-392v56h390q-9 77 -49.5 138t-105.5 95.5t-143 34.5q-58 0 -110 -16t-102 -56l-27 48
q59 45 115.5 62.5t123.5 17.5q100 0 183.5 -48.5z" />
    <glyph glyph-name="uni042E" unicode="&#x42e;" horiz-adv-x="1020" 
d="M813.5 669.5q76.5 -46.5 119.5 -129.5t43 -188q0 -106 -43 -188.5t-119.5 -129t-173.5 -46.5q-95 0 -170 44t-119 123.5t-47 180.5h-148v-336h-60v704h60v-312h150q8 95 52.5 168.5t117.5 114.5t164 41q97 0 173.5 -46.5zM781 83.5q62 39.5 96.5 109.5t34.5 159
t-34.5 159t-96.5 109.5t-141 39.5t-141 -39.5t-96.5 -109.5t-34.5 -159t34.5 -159t96.5 -109.5t141 -39.5t141 39.5z" />
    <glyph glyph-name="uni042F" unicode="&#x42f;" horiz-adv-x="612" 
d="M516 0h-60v288h-138l-234 -288h-72l241 297q-80 14 -126.5 67t-46.5 132q0 60 28 107t78.5 74t117.5 27h212v-704zM456 344v304h-152q-73 0 -118.5 -42t-45.5 -110q0 -71 46 -111.5t122 -40.5h148z" />
    <glyph glyph-name="uni0430" unicode="&#x430;" horiz-adv-x="464" 
d="M356 460q44 -48 44 -128v-332h-32l-28 48q-25 -27 -68.5 -43.5t-87.5 -16.5q-73 0 -114.5 37t-41.5 99q0 70 60.5 108.5t171.5 59.5l80 15v21q0 57 -29.5 92.5t-94.5 35.5q-81 0 -144 -51l-26 38q30 29 77.5 47t92.5 18q96 0 140 -48zM275 55q38 15 65 41v164l-64 -12
q-83 -15 -135.5 -42.5t-52.5 -79.5q0 -40 25.5 -63t78.5 -23q45 0 83 15z" />
    <glyph glyph-name="uni0431" unicode="&#x431;" horiz-adv-x="556" 
d="M419.5 440q51.5 -32 78 -87.5t26.5 -124.5q0 -59 -25 -114t-78.5 -90.5t-132.5 -35.5q-240 0 -240 339q0 125 30 199t87.5 110t150.5 52l164 28l16 -52l-164 -32q-81 -16 -128 -41.5t-72 -77.5t-28 -146q32 52 81 78.5t111 26.5q72 0 123.5 -32zM379 65.5
q39 25.5 60 68.5t21 94q0 88 -45 138t-123 50q-60 0 -107.5 -30.5t-72.5 -84.5q1 -128 43.5 -194.5t132.5 -66.5q52 0 91 25.5z" />
    <glyph glyph-name="uni0432" unicode="&#x432;" horiz-adv-x="480" 
d="M423 217.5q25 -34.5 25 -77.5q0 -64 -43 -102t-105 -38h-232v496h196q64 0 108 -33t44 -95q0 -65 -60 -101q42 -15 67 -49.5zM128 448v-168h136q42 0 67 23.5t25 60.5q0 38 -25 61t-75 23h-128zM362 76.5q26 28.5 26 67.5q0 38 -26 63t-74 25h-160v-184h160q48 0 74 28.5
z" />
    <glyph glyph-name="uni0433" unicode="&#x433;" horiz-adv-x="388" 
d="M372 496v-48h-244v-448h-60v496h304z" />
    <glyph glyph-name="uni0434" unicode="&#x434;" horiz-adv-x="568" 
d="M548 48v-188h-36l-20 140h-416l-20 -140h-36v188h44q46 32 61 82.5t15 153.5v212h344v-448h64zM424 48v400h-224v-160q0 -94 -16.5 -150.5t-53.5 -89.5h294z" />
    <glyph glyph-name="uni0435" unicode="&#x435;" horiz-adv-x="504" 
d="M92 236q0 -54 23 -99t64 -71t93 -26q93 0 156 72l36 -36q-31 -39 -80.5 -63.5t-111.5 -24.5q-76 0 -130 35t-82 94.5t-28 130.5q0 70 27.5 129.5t79.5 95t121 35.5q70 0 117.5 -31.5t71 -85t23.5 -119.5v-24h-380v-12zM149 410q-44 -46 -54 -118h320q-5 79 -47.5 121.5
t-107.5 42.5q-67 0 -111 -46z" />
    <glyph glyph-name="uni0436" unicode="&#x436;" horiz-adv-x="684" 
d="M624 0l-217 232h-35v-232h-60v232h-35l-217 -232h-68l233 256l-221 240h68l198 -216h42v216h60v-216h42l198 216h68l-221 -240l233 -256h-68z" />
    <glyph glyph-name="uni0437" unicode="&#x437;" horiz-adv-x="432" 
d="M373.5 211.5q26.5 -34.5 26.5 -79.5q0 -39 -22 -72t-66 -52.5t-108 -19.5q-100 0 -172 58l26 45q60 -51 146 -51q63 0 99.5 27t36.5 69q0 43 -39 69.5t-109 26.5h-56v48h56q54 0 89 24t35 68q0 39 -28.5 61.5t-83.5 22.5q-84 0 -151 -45l-23 44q80 53 178 53
q75 0 121.5 -36t46.5 -96q0 -37 -20.5 -66.5t-57.5 -46.5q49 -17 75.5 -51.5z" />
    <glyph glyph-name="uni0438" unicode="&#x438;" horiz-adv-x="556" 
d="M456 496h32v-496h-60v378l-328 -378h-32v496h60v-381z" />
    <glyph glyph-name="uni0439" unicode="&#x439;" horiz-adv-x="556" 
d="M456 496h32v-496h-60v378l-328 -378h-32v496h60v-381zM187.5 608q-36.5 36 -39.5 96h48q2 -40 23.5 -61.5t60.5 -21.5q36 0 57.5 21.5t22.5 61.5h48q-4 -60 -39.5 -96t-88.5 -36q-56 0 -92.5 36z" />
    <glyph glyph-name="uni043A" unicode="&#x43a;" horiz-adv-x="480" 
d="M251 256l237 -256h-76l-216 232h-68v-232h-60v496h60v-216h72l200 216h72z" />
    <glyph glyph-name="uni043B" unicode="&#x43b;" horiz-adv-x="544" 
d="M476 0h-60v448h-224v-132q0 -131 -14.5 -201t-44.5 -96.5t-81 -26.5q-35 0 -64 15l26 45q19 -8 38 -8q30 0 47 21.5t25 79.5t8 171v180h344v-496z" />
    <glyph glyph-name="uni043C" unicode="&#x43c;" horiz-adv-x="636" 
d="M524 496h44v-496h-60v348l-176 -348h-32l-172 344v-344h-60v496h44l204 -416z" />
    <glyph glyph-name="uni043D" unicode="&#x43d;" horiz-adv-x="536" 
d="M408 496h60v-496h-60v232h-280v-232h-60v496h60v-216h280v216z" />
    <glyph glyph-name="uni043E" unicode="&#x43e;" horiz-adv-x="552" 
d="M151 22.5q-56 34.5 -87.5 94t-31.5 131.5t31.5 131.5t87.5 94t125 34.5t125 -34.5t87.5 -94t31.5 -131.5t-31.5 -131.5t-87.5 -94t-125 -34.5t-125 34.5zM371 68q42 28 65.5 75.5t23.5 104.5t-23.5 104.5t-65.5 75.5t-95 28t-95 -27.5t-65.5 -75t-23.5 -105.5
q0 -57 23.5 -104.5t65.5 -75.5t95 -28t95 28z" />
    <glyph glyph-name="uni043F" unicode="&#x43f;" horiz-adv-x="536" 
d="M468 496v-496h-60v448h-280v-448h-60v496h400z" />
    <glyph glyph-name="uni0440" unicode="&#x440;" horiz-adv-x="540" 
d="M394 473.5q53 -34.5 83.5 -94t30.5 -131.5t-30 -131.5t-84 -94t-122 -34.5q-94 0 -144 50v-246h-60v704h32l28 -47q26 26 66.5 42.5t81.5 16.5q65 0 118 -34.5zM358 66q41 26 65.5 73.5t24.5 108.5q0 58 -22 105.5t-62.5 75t-95.5 27.5q-43 0 -76.5 -16t-63.5 -47v-294
q28 -28 61.5 -43.5t78.5 -15.5q49 0 90 26z" />
    <glyph glyph-name="uni0441" unicode="&#x441;" horiz-adv-x="452" 
d="M150.5 24.5q-54.5 32.5 -86.5 90.5t-32 133q0 76 30 135t84 92t122 33q52 0 91 -14t77 -44l-27 -51q-27 26 -60.5 39.5t-80.5 13.5q-79 0 -127.5 -56t-48.5 -148q0 -58 24.5 -104t65.5 -71t90 -25q79 0 136 43l24 -45q-72 -54 -160 -54q-67 0 -121.5 32.5z" />
    <glyph glyph-name="uni0442" unicode="&#x442;" horiz-adv-x="452" 
d="M434 496v-48h-179v-448h-60v448h-179v48h418z" />
    <glyph glyph-name="uni0443" unicode="&#x443;" horiz-adv-x="480" 
d="M420 496h60l-312 -704h-60l108 238l-216 466h64l181 -401z" />
    <glyph glyph-name="uni0444" unicode="&#x444;" horiz-adv-x="692" 
d="M627.5 119q-32.5 -57 -96.5 -91.5t-155 -38.5v-197h-60v197q-96 6 -160 44t-94 95t-30 120t30 120t94 95t160 44v197h60v-197q91 -4 155 -38.5t96.5 -91.5t32.5 -129t-32.5 -129zM544 106q56 58 56 142t-56.5 142.5t-167.5 64.5v-414q112 7 168 65zM147.5 106
q55.5 -58 168.5 -65v414q-113 -7 -168.5 -65t-55.5 -142t55.5 -142z" />
    <glyph glyph-name="uni0445" unicode="&#x445;" horiz-adv-x="424" 
d="M432 0h-68l-151 204l-153 -204h-68l188 247l-184 249h68l150 -203l146 203h68l-181 -246z" />
    <glyph glyph-name="uni0446" unicode="&#x446;" horiz-adv-x="544" 
d="M460 48h64v-188h-36l-20 140h-400v496h60v-448h272v448h60v-448z" />
    <glyph glyph-name="uni0447" unicode="&#x447;" horiz-adv-x="500" 
d="M432 496v-496h-60v244q-61 -68 -144 -68q-87 0 -131.5 53t-44.5 139v128h60v-124q0 -73 29.5 -108.5t94.5 -35.5q45 0 77.5 17.5t58.5 50.5v200h60z" />
    <glyph glyph-name="uni0448" unicode="&#x448;" horiz-adv-x="780" 
d="M652 496h60v-496h-644v496h60v-448h232v448h60v-448h232v448z" />
    <glyph glyph-name="uni0449" unicode="&#x449;" horiz-adv-x="796" 
d="M712 48h64v-188h-36l-20 140h-652v496h60v-448h232v448h60v-448h232v448h60v-448z" />
    <glyph glyph-name="uni044A" unicode="&#x44a;" horiz-adv-x="548" 
d="M473.5 256.5q46.5 -39.5 46.5 -108.5q0 -46 -22 -79.5t-58.5 -51t-79.5 -17.5h-212v448h-132v48h192v-200h152q67 0 113.5 -39.5zM433.5 77.5q26.5 29.5 26.5 70.5q0 42 -26.5 71t-73.5 29h-152v-200h152q47 0 73.5 29.5z" />
    <glyph glyph-name="uni044B" unicode="&#x44b;" horiz-adv-x="660" 
d="M393.5 256.5q46.5 -39.5 46.5 -108.5q0 -46 -22 -79.5t-58.5 -51t-79.5 -17.5h-212v496h60v-200h152q67 0 113.5 -39.5zM532 496h60v-496h-60v496zM353.5 77.5q26.5 29.5 26.5 70.5q0 42 -26.5 71t-73.5 29h-152v-200h152q47 0 73.5 29.5z" />
    <glyph glyph-name="uni044C" unicode="&#x44c;" horiz-adv-x="468" 
d="M393.5 256.5q46.5 -39.5 46.5 -108.5q0 -46 -22 -79.5t-58.5 -51t-79.5 -17.5h-212v496h60v-200h152q67 0 113.5 -39.5zM353.5 77.5q26.5 29.5 26.5 70.5q0 42 -26.5 71t-73.5 29h-152v-200h152q47 0 73.5 29.5z" />
    <glyph glyph-name="uni044D" unicode="&#x44d;" horiz-adv-x="452" 
d="M305 474.5q54 -33.5 84.5 -92.5t30.5 -134q0 -74 -32 -132.5t-87 -91t-121 -32.5q-92 0 -160 54l24 45q61 -43 136 -43q46 0 85.5 23t65 65t28.5 96h-247v48h246q-8 79 -55.5 125.5t-118.5 46.5q-48 0 -80.5 -13.5t-59.5 -39.5l-28 50q39 31 77.5 45t90.5 14
q67 0 121 -33.5z" />
    <glyph glyph-name="uni044E" unicode="&#x44e;" horiz-adv-x="740" 
d="M601.5 474q51.5 -34 79 -93t27.5 -133t-27.5 -133t-79 -93t-121.5 -34q-66 0 -117 32t-79.5 87.5t-31.5 124.5h-124v-232h-60v496h60v-216h125q6 65 35 117t78.5 81.5t113.5 29.5q70 0 121.5 -34zM605 98.5q43 58.5 43 149.5t-43 149.5t-125 58.5q-83 0 -125.5 -58
t-42.5 -150q0 -91 43 -149.5t125 -58.5t125 58.5z" />
    <glyph glyph-name="uni044F" unicode="&#x44f;" horiz-adv-x="496" 
d="M428 496v-496h-60v196h-135l-154 -196h-69l162 205q-53 12 -84.5 48.5t-31.5 90.5q0 67 45 109.5t119 42.5h208zM368 244v204h-148q-42 0 -73 -29t-31 -75q0 -45 31 -72.5t73 -27.5h148z" />
    <glyph glyph-name="uni0450" unicode="&#x450;" horiz-adv-x="504" 
d="M92 236q0 -54 23 -99t64 -71t93 -26q93 0 156 72l36 -36q-31 -39 -80.5 -63.5t-111.5 -24.5q-76 0 -130 35t-82 94.5t-28 130.5q0 70 27.5 129.5t79.5 95t121 35.5q70 0 117.5 -31.5t71 -85t23.5 -119.5v-24h-380v-12zM149 410q-44 -46 -54 -118h320q-5 79 -47.5 121.5
t-107.5 42.5q-67 0 -111 -46zM158 704h64l84 -140v-4h-48z" />
    <glyph glyph-name="uni0451" unicode="&#x451;" horiz-adv-x="504" 
d="M92 236q0 -54 23 -99t64 -71t93 -26q93 0 156 72l36 -36q-31 -39 -80.5 -63.5t-111.5 -24.5q-76 0 -130 35t-82 94.5t-28 130.5q0 70 27.5 129.5t79.5 95t121 35.5q70 0 117.5 -31.5t71 -85t23.5 -119.5v-24h-380v-12zM149 410q-44 -46 -54 -118h320q-5 79 -47.5 121.5
t-107.5 42.5q-67 0 -111 -46zM140 692h60v-68h-60v68zM304 692h60v-68h-60v68z" />
    <glyph glyph-name="uni0452" unicode="&#x452;" horiz-adv-x="524" 
d="M411 454.5q49 -53.5 49 -138.5v-424q0 -48 -30.5 -78t-81.5 -30q-35 0 -66 20l27 45q16 -13 43 -13q21 0 34.5 14.5t13.5 41.5v420q0 71 -36 107.5t-100 36.5q-44 0 -74.5 -17t-61.5 -51v-388h-60v588h-48v44h48v72h60v-72h176v-44h-176v-148q32 36 66.5 52t77.5 16
q90 0 139 -53.5z" />
    <glyph glyph-name="uni0453" unicode="&#x453;" horiz-adv-x="388" 
d="M372 496v-48h-244v-448h-60v496h304zM182 564l84 140h64l-100 -144h-48v4z" />
    <glyph glyph-name="uni0454" unicode="&#x454;" horiz-adv-x="452" 
d="M408 91l24 -45q-68 -54 -160 -54q-66 0 -121 32.5t-87 91t-32 132.5q0 75 30.5 134t84.5 92.5t121 33.5q52 0 90.5 -14t77.5 -45l-28 -50q-27 26 -59.5 39.5t-80.5 13.5q-71 0 -118.5 -46.5t-55.5 -125.5h246v-48h-247q3 -54 28.5 -96t65 -65t85.5 -23q75 0 136 43z" />
    <glyph glyph-name="uni0455" unicode="&#x455;" horiz-adv-x="436" 
d="M119.5 6q-49.5 18 -84.5 53l29 45q66 -64 160 -64q48 0 82 21t34 63q0 35 -23 57.5t-81 38.5l-44 12q-70 19 -109 51.5t-39 88.5q0 60 48 98t124 38q51 0 98 -16.5t78 -43.5l-24 -45q-29 25 -68.5 39t-83.5 14q-56 0 -84 -22t-28 -58q0 -39 28 -58.5t92 -37.5l44 -12
q68 -19 102 -56t34 -84q0 -63 -49.5 -101.5t-130.5 -38.5q-55 0 -104.5 18z" />
    <glyph glyph-name="uni0456" unicode="&#x456;" horiz-adv-x="196" 
d="M68 496h60v-496h-60v496zM68 688h60v-64h-60v64z" />
    <glyph glyph-name="uni0457" unicode="&#x457;" horiz-adv-x="196" 
d="M68 496h60v-496h-60v496zM-12 692h60v-68h-60v68zM152 692h60v-68h-60v68z" />
    <glyph glyph-name="uni0458" unicode="&#x458;" horiz-adv-x="196" 
d="M20 -164q21 0 34.5 14.5t13.5 41.5v604h60v-604q0 -48 -30.5 -78t-81.5 -30q-35 0 -66 20l27 45q16 -13 43 -13zM68 688h60v-64h-60v64z" />
    <glyph glyph-name="uni0459" unicode="&#x459;" horiz-adv-x="800" 
d="M724 244q48 -36 48 -104q0 -67 -48 -103.5t-116 -36.5h-208v448h-208v-132q0 -131 -14.5 -201t-44.5 -96.5t-81 -26.5q-35 0 -64 15l26 45q19 -8 38 -8q30 0 47 21.5t25 79.5t8 171v180h328v-216h148q68 0 116 -36zM684 74q28 26 28 66t-28 66t-76 26h-148v-184h148
q48 0 76 26z" />
    <glyph glyph-name="uni045A" unicode="&#x45a;" horiz-adv-x="788" 
d="M712 250.5q48 -37.5 48 -106.5q0 -46 -23 -78.5t-60.5 -49t-80.5 -16.5h-208v240h-260v-240h-60v496h60v-208h260v208h60v-208h148q68 0 116 -37.5zM672 76q28 28 28 68q0 41 -28 68.5t-76 27.5h-148v-192h148q48 0 76 28z" />
    <glyph glyph-name="uni045B" unicode="&#x45b;" horiz-adv-x="524" 
d="M411 454.5q49 -53.5 49 -138.5v-316h-60v312q0 71 -36 107.5t-100 36.5q-44 0 -74.5 -17t-61.5 -51v-388h-60v588h-48v44h48v72h60v-72h176v-44h-176v-148q32 36 66.5 52t77.5 16q90 0 139 -53.5z" />
    <glyph glyph-name="uni045C" unicode="&#x45c;" horiz-adv-x="480" 
d="M251 256l237 -256h-76l-216 232h-68v-232h-60v496h60v-216h72l200 216h72zM246 564l84 140h64l-100 -144h-48v4z" />
    <glyph glyph-name="uni045D" unicode="&#x45d;" horiz-adv-x="556" 
d="M456 496h32v-496h-60v378l-328 -378h-32v496h60v-381zM186 704h64l84 -140v-4h-48z" />
    <glyph glyph-name="uni045E" unicode="&#x45e;" horiz-adv-x="480" 
d="M420 496h60l-312 -704h-60l108 238l-216 466h64l181 -401zM147.5 608q-36.5 36 -39.5 96h48q2 -40 23.5 -61.5t60.5 -21.5q36 0 57.5 21.5t22.5 61.5h48q-4 -60 -39.5 -96t-88.5 -36q-56 0 -92.5 36z" />
    <glyph glyph-name="uni045F" unicode="&#x45f;" horiz-adv-x="528" 
d="M400 496h60v-496h-161l-15 -140h-36l-18 140h-162v496h60v-448h272v448z" />
    <glyph glyph-name="uni0490" unicode="&#x490;" horiz-adv-x="536" 
d="M488 856h32v-208h-364v-648h-60v704h364z" />
    <glyph glyph-name="uni0491" unicode="&#x491;" horiz-adv-x="388" 
d="M336 616h36v-168h-244v-448h-60v496h248z" />
    <glyph glyph-name="uni0492" unicode="&#x492;" horiz-adv-x="552" 
d="M536 648h-364v-264h220v-56h-220v-328h-60v328h-112v56h112v320h424v-56z" />
    <glyph glyph-name="uni0493" unicode="&#x493;" horiz-adv-x="392" 
d="M372 448h-244v-192h208v-48h-208v-208h-60v208h-48v48h48v240h304v-48z" />
    <glyph glyph-name="uni0496" unicode="&#x496;" horiz-adv-x="972" 
d="M884 56h88v-236h-32l-32 180h-52l-316 340h-44v-340h-60v340h-44l-316 -340h-76l341 368l-325 336h76l300 -308h44v308h60v-308h44l300 308h76l-324 -335v-2l292 -315v4z" />
    <glyph glyph-name="uni0497" unicode="&#x497;" horiz-adv-x="740" 
d="M648 48h72v-188h-36l-20 140h-40l-217 232h-35v-232h-60v232h-35l-217 -232h-68l233 256l-221 240h68l198 -216h42v216h60v-216h42l198 216h68l-221 -240z" />
    <glyph glyph-name="uni049A" unicode="&#x49a;" horiz-adv-x="656" 
d="M587 56h69v-236h-32l-32 180h-28l-344 340h-64v-340h-60v704h60v-308h64l332 308h76l-360 -336z" />
    <glyph glyph-name="uni049B" unicode="&#x49b;" horiz-adv-x="528" 
d="M444 48h64v-188h-36l-20 140h-40l-216 232h-68v-232h-60v496h60v-216h72l200 216h72l-221 -240z" />
    <glyph glyph-name="uni049C" unicode="&#x49c;" horiz-adv-x="660" 
d="M660 0h-76l-328 332v-160h-44v164h-56v-336h-60v704h60v-312h56v164h44v-160l304 308h76l-336 -336z" />
    <glyph glyph-name="uni049D" unicode="&#x49d;" horiz-adv-x="488" 
d="M424 0l-214 232h-2v-116h-44v116h-36v-232h-60v496h60v-216h36v112h44v-108l208 212h72l-233 -233l241 -263h-72z" />
    <glyph glyph-name="uni04A2" unicode="&#x4a2;" horiz-adv-x="760" 
d="M656 56h84v-236h-32l-32 180h-80v336h-440v-336h-60v704h60v-312h440v312h60v-648z" />
    <glyph glyph-name="uni04A3" unicode="&#x4a3;" horiz-adv-x="552" 
d="M468 48h64v-188h-36l-20 140h-68v232h-280v-232h-60v496h60v-216h280v216h60v-448z" />
    <glyph glyph-name="uni04AE" unicode="&#x4ae;" horiz-adv-x="632" 
d="M560 704h68l-280 -432v-272h-60v272l-284 432h68l245 -378z" />
    <glyph glyph-name="uni04AF" unicode="&#x4af;" horiz-adv-x="476" 
d="M416 496h60l-208 -484v-220h-60v220l-208 484h60l178 -424z" />
    <glyph glyph-name="uni04B0" unicode="&#x4b0;" horiz-adv-x="632" 
d="M348 272v-60h152v-48h-152v-164h-60v164h-148v48h148v60l-284 432h68l245 -378l243 378h68z" />
    <glyph glyph-name="uni04B1" unicode="&#x4b1;" horiz-adv-x="476" 
d="M268 12v-52h124v-44h-124v-124h-60v124h-120v44h120v52l-208 484h60l178 -424l178 424h60z" />
    <glyph glyph-name="uni04B2" unicode="&#x4b2;" horiz-adv-x="632" 
d="M559 56h73v-236h-32l-32 180h-40l-229 312l-231 -312h-68l266 358l-254 346h72l217 -297l215 297h68l-249 -343z" />
    <glyph glyph-name="uni04B3" unicode="&#x4b3;" horiz-adv-x="480" 
d="M396 48h64v-188h-36l-20 140h-40l-151 204l-153 -204h-68l188 247l-184 249h68l150 -203l146 203h68l-181 -246z" />
    <glyph glyph-name="uni04B8" unicode="&#x4b8;" horiz-adv-x="656" 
d="M560 704v-704h-60v358q-62 -75 -164 -84v-158h-44v156q-114 4 -167 70t-53 170v192h60v-184q0 -95 40 -141t120 -51v172h44v-171q102 10 164 95v280h60z" />
    <glyph glyph-name="uni04B9" unicode="&#x4b9;" horiz-adv-x="500" 
d="M432 496v-496h-60v244q-48 -54 -112 -65v-120h-44v117q-81 4 -122.5 57t-41.5 135v128h60v-124q0 -67 25 -102.5t79 -40.5v103h44v-103q66 9 112 67v200h60z" />
    <glyph glyph-name="uni04BA" unicode="&#x4ba;" horiz-adv-x="656" 
d="M527.5 365.5q56.5 -66.5 56.5 -173.5v-192h-60v184q0 99 -45 145.5t-131 46.5q-122 0 -192 -96v-280h-60v704h60v-358q31 38 80 62t116 24q119 0 175.5 -66.5z" />
    <glyph glyph-name="uni04BB" unicode="&#x4bb;" horiz-adv-x="524" 
d="M411 454.5q49 -53.5 49 -138.5v-316h-60v312q0 71 -36 107.5t-100 36.5q-44 0 -74.5 -17t-61.5 -51v-388h-60v704h60v-264q32 36 66.5 52t77.5 16q90 0 139 -53.5z" />
    <glyph glyph-name="uni04C0" unicode="&#x4c0;" horiz-adv-x="252" 
d="M96 704h60v-704h-60v704z" />
    <glyph glyph-name="uni04CF" unicode="&#x4cf;" horiz-adv-x="196" 
d="M68 704h60v-704h-60v704z" />
    <glyph glyph-name="uni04D8" unicode="&#x4d8;" horiz-adv-x="756" 
d="M547 669q79 -47 122 -130t43 -187t-43 -187t-122 -130t-183 -47q-100 0 -172.5 49t-110 132t-37.5 183v20h60l544 -4q-3 84 -39.5 150.5t-99.5 104t-145 37.5q-64 0 -124.5 -20t-112.5 -61l-34 45q62 48 127.5 70t143.5 22q104 0 183 -47zM506.5 78q60.5 34 96 95
t43.5 139l-541 4q6 -86 41.5 -147t93 -93t128.5 -32q78 0 138.5 34z" />
    <glyph glyph-name="uni04D9" unicode="&#x4d9;" horiz-adv-x="504" 
d="M362 473q54 -35 82 -94.5t28 -130.5q0 -70 -27.5 -129.5t-79.5 -95t-121 -35.5q-70 0 -117.5 31.5t-71 85t-23.5 119.5v24h380v12q0 54 -23 99t-64 71t-93 26q-93 0 -156 -72l-36 36q31 39 80.5 63.5t111.5 24.5q76 0 130 -35zM355 86q44 46 54 118h-320q5 -79 48 -121.5
t107 -42.5q67 0 111 46z" />
    <glyph glyph-name="uni04E8" unicode="&#x4e8;" horiz-adv-x="808" 
d="M588.5 668.5q82.5 -47.5 129 -130.5t46.5 -186t-46.5 -186t-129 -130.5t-184.5 -47.5q-101 0 -183 47.5t-129.5 131t-47.5 185.5q0 103 46.5 186t129 130.5t184.5 47.5t184.5 -47.5zM264 625.5q-64 -34.5 -104.5 -95.5t-49.5 -138h588q-8 77 -48 138t-104 95.5t-142 34.5
q-76 0 -140 -34.5zM552 82q66 38 105 104.5t43 149.5h-592q4 -83 43 -149.5t105 -104.5t148 -38t148 38z" />
    <glyph glyph-name="uni04E9" unicode="&#x4e9;" horiz-adv-x="552" 
d="M401 473.5q56 -34.5 87.5 -94t31.5 -131.5t-31.5 -131.5t-87.5 -94t-125 -34.5t-125 34.5t-87.5 94t-31.5 131.5t31.5 131.5t87.5 94t125 34.5t125 -34.5zM154 406.5q-50 -49.5 -60 -126.5h364q-10 77 -60 126.5t-122 49.5t-122 -49.5zM367 65.5q41 25.5 65.5 69
t27.5 97.5h-368q3 -54 27.5 -97.5t65.5 -69t91 -25.5t91 25.5z" />
    <glyph glyph-name="A.sups" unicode="&#x1d2c;" horiz-adv-x="536" 
d="M478 496l-65 141h-290l-66 -141h-52l247 529h31l248 -529h-53zM144 682h248l-124 267z" />
    <glyph glyph-name="B.sups" unicode="&#x1d2e;" horiz-adv-x="498" 
d="M435.5 725q28.5 -36 28.5 -80q0 -45 -22.5 -79t-61 -52t-83.5 -18h-224v522h184q73 0 121.5 -35.5t48.5 -101.5q0 -67 -67 -107q47 -13 75.5 -49zM122 973v-186h141q51 0 81.5 26.5t30.5 67.5t-30.5 66.5t-86.5 25.5h-136zM381.5 571q30.5 30 30.5 73t-31.5 70.5
t-86.5 27.5h-172v-201h173q56 0 86.5 30z" />
    <glyph glyph-name="D.sups" unicode="&#x1d30;" horiz-adv-x="573" 
d="M396.5 985.5q66.5 -32.5 104.5 -92t38 -136.5t-39 -136.5t-106 -92t-148 -32.5h-173v522h175q82 0 148.5 -32.5zM371 568q55 27 85.5 76t30.5 113t-30.5 113.5t-85.5 76.5t-125 27h-124v-433h124q70 0 125 27z" />
    <glyph glyph-name="E.sups" unicode="&#x1d31;" horiz-adv-x="467" 
d="M122 541h304v-45h-353v522h341v-44h-292v-184h261v-45h-261v-204z" />
    <glyph glyph-name="G.sups" unicode="&#x1d33;" 
d="M536 496h-24l-23 37q-36 -23 -77 -34.5t-94 -11.5q-83 0 -147.5 36t-100.5 97.5t-36 136.5q0 76 37 137.5t103 97t148 35.5q121 0 216 -74l-27 -39q-35 31 -86.5 49.5t-108.5 18.5q-70 0 -122 -30.5t-80 -81.5t-28 -112q0 -64 30 -115.5t83.5 -81t120.5 -29.5
q49 0 93.5 11.5t74.5 34.5v150h-186v45h234v-277z" />
    <glyph glyph-name="H.sups" unicode="&#x1d34;" horiz-adv-x="586" 
d="M464 1018h49v-522h-49v247h-342v-247h-49v522h49v-230h342v230z" />
    <glyph glyph-name="I.sups" unicode="&#x1d35;" horiz-adv-x="195" 
d="M73 1018h49v-522h-49v522z" />
    <glyph glyph-name="J.sups" unicode="&#x1d36;" horiz-adv-x="358" 
d="M10 530l25 38q20 -17 47.5 -27t57.5 -10q53 0 82 28.5t29 77.5v381h49v-379q0 -68 -43 -110t-119 -42t-128 43z" />
    <glyph glyph-name="K.sups" unicode="&#x1d37;" horiz-adv-x="522" 
d="M517 496h-60l-223 255l-112 -114v-141h-49v522h49v-324l318 324h59l-234 -237z" />
    <glyph glyph-name="L.sups" unicode="&#x1d38;" horiz-adv-x="423" 
d="M122 541h291v-45h-340v522h49v-477z" />
    <glyph glyph-name="M.sups" unicode="&#x1d39;" horiz-adv-x="707" 
d="M634 1018v-522h-49v396l-218 -396h-30l-215 393v-393h-49v522h36l244 -452l245 452h36z" />
    <glyph glyph-name="N.sups" unicode="&#x1d3a;" horiz-adv-x="583" 
d="M461 1018h49v-522h-29l-360 428v-428h-48v522h28l360 -429v429z" />
    <glyph glyph-name="O.sups" unicode="&#x1d3c;" horiz-adv-x="634" 
d="M173.5 522.5q-64.5 35.5 -102 97.5t-37.5 137q0 76 36.5 137.5t101.5 97t145 35.5t145 -35.5t101.5 -97t36.5 -137.5q0 -75 -36.5 -137t-101 -97.5t-145.5 -35.5q-79 0 -143.5 35.5zM435.5 562q52.5 29 82.5 80t30 115q0 65 -29.5 116.5t-82.5 80t-119 28.5
q-65 0 -117.5 -29t-83 -80.5t-30.5 -115.5t30 -115t82.5 -80t118.5 -29t118.5 29z" />
    <glyph glyph-name="P.sups" unicode="&#x1d3e;" horiz-adv-x="467" 
d="M342.5 999.5q40.5 -18.5 65.5 -54t25 -83.5t-24.5 -83.5t-65.5 -54.5t-88 -19h-133v-209h-49v522h182q47 0 87.5 -18.5zM347.5 782.5q33.5 32.5 33.5 79.5q0 46 -33.5 78.5t-91.5 32.5h-134v-223h134q58 0 91.5 32.5z" />
    <glyph glyph-name="R.sups" unicode="&#x1d3f;" horiz-adv-x="476" 
d="M407 496l-181 214h-104v-214h-49v522h163q53 0 93.5 -20t63 -54.5t22.5 -78.5q0 -58 -36 -97t-97 -50l189 -222h-64zM122 755h113q59 0 95 29.5t36 80.5q0 48 -35.5 78t-92.5 30h-116v-218z" />
    <glyph glyph-name="T.sups" unicode="&#x1d40;" horiz-adv-x="480" 
d="M470 1018v-44h-206v-478h-49v478h-205v44h460z" />
    <glyph glyph-name="U.sups" unicode="&#x1d41;" horiz-adv-x="579" 
d="M173.5 514.5q-53.5 27.5 -84.5 77t-31 113.5v313h49v-312q0 -54 25 -93t67 -59.5t91 -20.5q78 0 130 45t52 128v312h49v-313q0 -64 -30.5 -113.5t-83.5 -77t-117 -27.5q-63 0 -116.5 27.5z" />
    <glyph glyph-name="W.sups" unicode="&#x1d42;" horiz-adv-x="826" 
d="M769 1018h52l-211 -522h-31l-168 433l-164 -433h-32l-210 522h52l176 -439l162 439h36l165 -439z" />
    <glyph glyph-name="a.sups" unicode="&#x1d43;" horiz-adv-x="368" 
d="M285 840.5q35 -35.5 35 -96.5v-248h-28l-20 36q-21 -21 -55 -34.5t-69 -13.5q-58 0 -89 28.5t-31 75.5q0 53 42.5 80t129.5 44l72 13v15q0 42 -23.5 67t-72.5 25q-36 0 -63.5 -9.5t-51.5 -28.5l-22 34q23 22 60 35t77 13q74 0 109 -35.5zM272 572v114l-52 -10
q-82 -15 -113 -34.5t-31 -53.5q0 -26 18.5 -43t57.5 -17q69 0 120 44z" />
    <glyph glyph-name="b.sups" unicode="&#x1d47;" horiz-adv-x="424" 
d="M312 847.5q42 -25.5 65 -70t23 -97.5t-23.5 -97t-66 -70t-97.5 -26q-74 0 -115 41l-19 -32h-27v522h48v-194h1q19 22 50.5 35.5t65.5 13.5q53 0 95 -25.5zM281 548.5q32 18.5 51 52.5t19 79q0 65 -38.5 107.5t-102.5 42.5q-63 0 -110 -47v-210q45 -43 111 -43
q38 0 70 18.5z" />
    <glyph glyph-name="d.sups" unicode="&#x1d48;" horiz-adv-x="420" 
d="M372 1018v-522h-22l-25 38q-19 -21 -51.5 -34t-66.5 -13q-51 0 -93 26t-66 70t-24 97t23.5 97t66 70t97.5 26q72 0 112 -37v182h49zM273 541q26 11 50 34v213q-44 42 -110 42q-38 0 -70 -18.5t-51 -52.5t-19 -79q0 -65 38.5 -107.5t101.5 -42.5q34 0 60 11z" />
    <glyph glyph-name="e.sups" unicode="&#x1d49;" horiz-adv-x="396" 
d="M73 671q0 -62 40 -101.5t101 -39.5q75 0 121 55l30 -29q-24 -30 -64 -49.5t-89 -19.5q-58 0 -100.5 25.5t-65 69.5t-22.5 98q0 52 22 96t63 70.5t96 26.5q80 0 123.5 -50t43.5 -123v-23h-299v-6zM118.5 798.5q-34.5 -31.5 -42.5 -83.5h249q-4 54 -38 84.5t-83 30.5
q-51 0 -85.5 -31.5z" />
    <glyph glyph-name="g.sups" unicode="&#x1d4d;" horiz-adv-x="420" 
d="M372 864v-375q0 -43 -21.5 -78t-61 -55t-93.5 -20q-38 0 -74.5 11.5t-62.5 30.5l21 39q20 -16 51 -26t62 -10q60 0 95 27.5t35 81.5v40q-20 -22 -51 -33t-65 -11q-51 0 -93 26.5t-66 71t-24 95.5q0 52 23.5 96.5t66.5 71t97 26.5q68 0 116 -40l18 31h27zM274.5 541.5
q25.5 12.5 48.5 35.5v211q-45 42 -109 42q-38 0 -70.5 -19.5t-51.5 -54t-19 -77.5q0 -63 39 -106.5t102 -43.5q35 0 60.5 12.5z" />
    <glyph glyph-name="k.sups" unicode="&#x1d4f;" horiz-adv-x="393" 
d="M388 496h-58l-150 183l-78 -76h-2v-107h-48v522h48v-362l212 208h58l-160 -156z" />
    <glyph glyph-name="m.sups" unicode="&#x1d50;" horiz-adv-x="673" 
d="M585.5 833q39.5 -40 39.5 -103v-234h-48v229q0 53 -29 79t-80 26q-35 0 -65.5 -16t-48.5 -39q6 -21 6 -46v-233h-48v230q0 52 -28.5 78t-78.5 26q-32 0 -56 -11.5t-49 -34.5v-288h-48v368h25l23 -39h2q24 25 50.5 36.5t59.5 11.5q93 0 129 -65q51 65 134 65
q71 0 110.5 -40z" />
    <glyph glyph-name="o.sups" unicode="&#x1d52;" horiz-adv-x="424" 
d="M116 509.5q-43 25.5 -67.5 70.5t-24.5 100t24.5 100t67.5 70.5t96 25.5t96 -25.5t67.5 -70.5t24.5 -100t-24.5 -100t-67.5 -70.5t-96 -25.5t-96 25.5zM283 548.5q32 20.5 50.5 55t18.5 76.5t-18.5 76.5t-50.5 55t-71 20.5t-71 -20.5t-50.5 -55t-18.5 -76.5t18.5 -76.5
t50.5 -55t71 -20.5t71 20.5z" />
    <glyph glyph-name="p.sups" unicode="&#x1d56;" horiz-adv-x="424" 
d="M310 847q42 -26 66 -70t24 -97t-23.5 -97t-66.5 -70t-98 -26q-71 0 -112 38v-183h-48v522h27l21 -34v-1q20 20 52 32t65 12q51 0 93 -26zM280.5 548.5q32.5 18.5 51.5 52.5t19 79q0 65 -38.5 107.5t-102.5 42.5q-63 0 -110 -44v-214q44 -42 110 -42q38 0 70.5 18.5z" />
    <glyph glyph-name="t.sups" unicode="&#x1d57;" horiz-adv-x="299" 
d="M289 524q-41 -37 -93 -37q-51 0 -84.5 30t-33.5 78v229h-68v40h72v91l41 26h3v-117h160v-40h-160v-224q0 -30 19 -49.5t52 -19.5q36 0 63 25z" />
    <glyph glyph-name="u.sups" unicode="&#x1d58;" horiz-adv-x="408" 
d="M360 864v-368h-24l-24 39h-2q-47 -48 -110 -48q-71 0 -109.5 40.5t-38.5 103.5v233h48v-230q0 -52 28.5 -78t78.5 -26q33 0 56.5 11.5t48.5 34.5v288h48z" />
    <glyph glyph-name="v.sups" unicode="&#x1d5b;" horiz-adv-x="383" 
d="M328 864h50l-174 -370h-26l-173 370h48l138 -302z" />
    <glyph glyph-name="i.subs" unicode="&#x1d62;" horiz-adv-x="148" 
d="M52 329h48v-52h-48v52zM52 184h48v-368h-48v368z" />
    <glyph glyph-name="r.subs" unicode="&#x1d63;" horiz-adv-x="274" 
d="M232.5 188q18.5 -5 31.5 -14l-22 -34q-21 12 -52 12q-61 0 -90 -46v-290h-48v368h27l19 -33q15 20 41.5 31t55.5 11q19 0 37.5 -5z" />
    <glyph glyph-name="u.subs" unicode="&#x1d64;" horiz-adv-x="408" 
d="M360 184v-368h-24l-24 39h-2q-47 -48 -110 -48q-71 0 -109.5 40.5t-38.5 103.5v233h48v-230q0 -52 28.5 -78t78.5 -26q33 0 56.5 11.5t48.5 34.5v288h48z" />
    <glyph glyph-name="v.subs" unicode="&#x1d65;" horiz-adv-x="383" 
d="M328 184h50l-174 -370h-26l-173 370h48l138 -302z" />
    <glyph glyph-name="c.sups" unicode="&#x1d9c;" horiz-adv-x="372" 
d="M118 513q-43 24 -68.5 67t-25.5 100t24.5 101t67 68t95.5 24q41 0 73 -12t64 -37l-24 -39q-22 21 -49 32t-65 11q-61 0 -99 -40.5t-38 -107.5q0 -44 19.5 -77t51.5 -51t70 -18q63 0 109 36l21 -34q-28 -23 -62 -35t-68 -12q-53 0 -96 24z" />
    <glyph glyph-name="f.sups" unicode="&#x1da0;" horiz-adv-x="272" 
d="M262 824h-141v-328h-49v328h-62v40h62v51q0 52 27.5 82t77.5 30q41 0 75 -20l-23 -37q-24 16 -52 16q-23 0 -39.5 -16t-16.5 -44v-62h141v-40z" />
    <glyph glyph-name="z.sups" unicode="&#x1dbb;" horiz-adv-x="391" 
d="M343 864v-23l-226 -306h226v-39h-291v24l222 305h-213v39h282z" />
    <glyph glyph-name="Wgrave" unicode="&#x1e80;" horiz-adv-x="1060" 
d="M984 704h64l-268 -704h-40l-210 592l-210 -592h-40l-268 704h64l226 -600l206 600h44l210 -600zM438 912h64l84 -140v-4h-48z" />
    <glyph glyph-name="wgrave" unicode="&#x1e81;" horiz-adv-x="812" 
d="M752 496h60l-200 -500h-36l-169 398l-171 -398h-36l-200 500h64l156 -402l168 406h36l172 -410zM314 704h64l84 -140v-4h-48z" />
    <glyph glyph-name="Wacute" unicode="&#x1e82;" horiz-adv-x="1060" 
d="M984 704h64l-268 -704h-40l-210 592l-210 -592h-40l-268 704h64l226 -600l206 600h44l210 -600zM478 772l84 140h64l-100 -144h-48v4z" />
    <glyph glyph-name="wacute" unicode="&#x1e83;" horiz-adv-x="812" 
d="M752 496h60l-200 -500h-36l-169 398l-171 -398h-36l-200 500h64l156 -402l168 406h36l172 -410zM354 564l84 140h64l-100 -144h-48v4z" />
    <glyph glyph-name="Wdieresis" unicode="&#x1e84;" horiz-adv-x="1060" 
d="M984 704h64l-268 -704h-40l-210 592l-210 -592h-40l-268 704h64l226 -600l206 600h44l210 -600zM420 900h60v-68h-60v68zM584 900h60v-68h-60v68z" />
    <glyph glyph-name="wdieresis" unicode="&#x1e85;" horiz-adv-x="812" 
d="M752 496h60l-200 -500h-36l-169 398l-171 -398h-36l-200 500h64l156 -402l168 406h36l172 -410zM296 692h60v-68h-60v68zM460 692h60v-68h-60v68z" />
    <glyph glyph-name="Germandbls" unicode="&#x1e9e;" horiz-adv-x="752" 
d="M607 373q48 -27 74.5 -73.5t26.5 -103.5q0 -56 -26 -103.5t-77.5 -76t-124.5 -28.5q-52 0 -100.5 17.5t-81.5 50.5l29 45q64 -61 153 -61q76 0 122 44t46 112q0 42 -20 76.5t-58 55t-90 20.5q-69 0 -124 -44l-24 40l258 304h-214q-106 0 -169 -60.5t-63 -179.5v-408h-60
v408q0 94 36.5 160.5t102.5 101t153 34.5h304v-36l-239 -275q24 7 55 7q63 0 111 -27z" />
    <glyph glyph-name="uni1EA0" unicode="&#x1ea0;" horiz-adv-x="696" 
d="M620 0l-86 196h-372l-86 -196h-64l316 716h40l316 -716h-64zM186 252h324l-162 369zM318 -82h60v-64h-60v64z" />
    <glyph glyph-name="uni1EA1" unicode="&#x1ea1;" horiz-adv-x="464" 
d="M356 460q44 -48 44 -128v-332h-32l-28 48q-25 -27 -68.5 -43.5t-87.5 -16.5q-73 0 -114.5 37t-41.5 99q0 70 60.5 108.5t171.5 59.5l80 15v21q0 57 -29.5 92.5t-94.5 35.5q-81 0 -144 -51l-26 38q30 29 77.5 47t92.5 18q96 0 140 -48zM275 55q38 15 65 41v164l-64 -12
q-83 -15 -135.5 -42.5t-52.5 -79.5q0 -40 25.5 -63t78.5 -23q45 0 83 15zM178 -82h60v-64h-60v64z" />
    <glyph glyph-name="uni1EA2" unicode="&#x1ea2;" horiz-adv-x="696" 
d="M620 0l-86 196h-372l-86 -196h-64l316 716h40l316 -716h-64zM186 252h324l-162 369zM416.5 820.5q-17.5 -18.5 -48.5 -20.5v-36h-40v68h16q19 0 30.5 9t11.5 27q0 17 -9.5 26.5t-26.5 9.5q-27 0 -47 -15l-17 34q24 21 69 21q36 0 57.5 -20t21.5 -56q0 -29 -17.5 -47.5z
" />
    <glyph glyph-name="uni1EA3" unicode="&#x1ea3;" horiz-adv-x="464" 
d="M356 460q44 -48 44 -128v-332h-32l-28 48q-25 -27 -68.5 -43.5t-87.5 -16.5q-73 0 -114.5 37t-41.5 99q0 70 60.5 108.5t171.5 59.5l80 15v21q0 57 -29.5 92.5t-94.5 35.5q-81 0 -144 -51l-26 38q30 29 77.5 47t92.5 18q96 0 140 -48zM275 55q38 15 65 41v164l-64 -12
q-83 -15 -135.5 -42.5t-52.5 -79.5q0 -40 25.5 -63t78.5 -23q45 0 83 15zM276.5 612.5q-17.5 -18.5 -48.5 -20.5v-36h-40v68h16q19 0 30.5 9t11.5 27q0 17 -9.5 26.5t-26.5 9.5q-27 0 -47 -15l-17 34q24 21 69 21q36 0 57.5 -20t21.5 -56q0 -29 -17.5 -47.5z" />
    <glyph glyph-name="uni1EA4" unicode="&#x1ea4;" horiz-adv-x="696" 
d="M620 0l-86 196h-372l-86 -196h-64l316 716h40l316 -716h-64zM186 252h324l-162 369zM468 838l74 120h64l-90 -124h-48v4zM316 878h60l120 -124h-58l-93 89l-93 -89h-56z" />
    <glyph glyph-name="uni1EA5" unicode="&#x1ea5;" horiz-adv-x="464" 
d="M356 460q44 -48 44 -128v-332h-32l-28 48q-25 -27 -68.5 -43.5t-87.5 -16.5q-73 0 -114.5 37t-41.5 99q0 70 60.5 108.5t171.5 59.5l80 15v21q0 57 -29.5 92.5t-94.5 35.5q-81 0 -144 -51l-26 38q30 29 77.5 47t92.5 18q96 0 140 -48zM275 55q38 15 65 41v164l-64 -12
q-83 -15 -135.5 -42.5t-52.5 -79.5q0 -40 25.5 -63t78.5 -23q45 0 83 15zM319 664l84 140h64l-100 -144h-48v4zM176 704h60l120 -144h-58l-93 109l-93 -109h-56z" />
    <glyph glyph-name="uni1EA6" unicode="&#x1ea6;" horiz-adv-x="696" 
d="M620 0l-86 196h-372l-86 -196h-64l316 716h40l316 -716h-64zM186 252h324l-162 369zM150 958l74 -120v-4h-48l-90 124h64zM376 878l120 -124h-58l-93 89l-93 -89h-56l120 124h60z" />
    <glyph glyph-name="uni1EA7" unicode="&#x1ea7;" horiz-adv-x="464" 
d="M356 460q44 -48 44 -128v-332h-32l-28 48q-25 -27 -68.5 -43.5t-87.5 -16.5q-73 0 -114.5 37t-41.5 99q0 70 60.5 108.5t171.5 59.5l80 15v21q0 57 -29.5 92.5t-94.5 35.5q-81 0 -144 -51l-26 38q30 29 77.5 47t92.5 18q96 0 140 -48zM275 55q38 15 65 41v164l-64 -12
q-83 -15 -135.5 -42.5t-52.5 -79.5q0 -40 25.5 -63t78.5 -23q45 0 83 15zM9 804l84 -140v-4h-48l-100 144h64zM236 704l120 -144h-58l-93 109l-93 -109h-56l120 144h60z" />
    <glyph glyph-name="uni1EA8" unicode="&#x1ea8;" horiz-adv-x="696" 
d="M620 0l-86 196h-372l-86 -196h-64l316 716h40l316 -716h-64zM186 252h324l-162 369zM538.5 974q21.5 -18 21.5 -50q0 -28 -17.5 -46t-48.5 -20v-26h-40v58h16q19 0 30.5 8.5t11.5 25.5q0 13 -9.5 20.5t-26.5 7.5q-27 0 -47 -15l-17 34q24 21 69 21q36 0 57.5 -18z
M316 878h60l120 -124h-58l-93 89l-93 -89h-56z" />
    <glyph glyph-name="uni1EA9" unicode="&#x1ea9;" horiz-adv-x="464" 
d="M356 460q44 -48 44 -128v-332h-32l-28 48q-25 -27 -68.5 -43.5t-87.5 -16.5q-73 0 -114.5 37t-41.5 99q0 70 60.5 108.5t171.5 59.5l80 15v21q0 57 -29.5 92.5t-94.5 35.5q-81 0 -144 -51l-26 38q30 29 77.5 47t92.5 18q96 0 140 -48zM275 55q38 15 65 41v164l-64 -12
q-83 -15 -135.5 -42.5t-52.5 -79.5q0 -40 25.5 -63t78.5 -23q45 0 83 15zM398.5 824q21.5 -20 21.5 -56q0 -29 -17.5 -47.5t-48.5 -20.5v-36h-40v68h16q19 0 30.5 9t11.5 27q0 17 -9.5 26.5t-26.5 9.5q-27 0 -47 -15l-17 34q24 21 69 21q36 0 57.5 -20zM176 704h60l120 -144
h-58l-93 109l-93 -109h-56z" />
    <glyph glyph-name="uni1EAA" unicode="&#x1eaa;" horiz-adv-x="696" 
d="M620 0l-86 196h-372l-86 -196h-64l316 716h40l316 -716h-64zM186 252h324l-162 369zM272 904h-44v21q0 34 11.5 50.5t37.5 16.5q18 0 37.5 -7t43.5 -20q5 -2 22 -10t28 -8q12 0 12 12v29h44v-21q0 -34 -11.5 -50.5t-37.5 -16.5q-19 0 -39 7.5t-46 20.5q-36 17 -46 17
q-12 0 -12 -12v-29zM376 878l120 -124h-58l-93 89l-93 -89h-56l120 124h60z" />
    <glyph glyph-name="uni1EAB" unicode="&#x1eab;" horiz-adv-x="464" 
d="M356 460q44 -48 44 -128v-332h-32l-28 48q-25 -27 -68.5 -43.5t-87.5 -16.5q-73 0 -114.5 37t-41.5 99q0 70 60.5 108.5t171.5 59.5l80 15v21q0 57 -29.5 92.5t-94.5 35.5q-81 0 -144 -51l-26 38q30 29 77.5 47t92.5 18q96 0 140 -48zM275 55q38 15 65 41v164l-64 -12
q-83 -15 -135.5 -42.5t-52.5 -79.5q0 -40 25.5 -63t78.5 -23q45 0 83 15zM132 734h-44v42q0 35 11.5 51.5t40.5 16.5q17 0 36 -10.5t44 -29.5q14 -10 27.5 -18t20.5 -8q12 0 12 12v50h44v-42q0 -35 -11.5 -51.5t-40.5 -16.5q-17 0 -38 11.5t-47 30.5q-33 24 -43 24
q-12 0 -12 -12v-50zM236 704l120 -144h-58l-93 109l-93 -109h-56l120 144h60z" />
    <glyph glyph-name="uni1EAC" unicode="&#x1eac;" horiz-adv-x="696" 
d="M620 0l-86 196h-372l-86 -196h-64l316 716h40l316 -716h-64zM186 252h324l-162 369zM318 -82h60v-64h-60v64zM496 768h-60l-92 108l-92 -108h-56l120 144h60z" />
    <glyph glyph-name="uni1EAD" unicode="&#x1ead;" horiz-adv-x="464" 
d="M356 460q44 -48 44 -128v-332h-32l-28 48q-25 -27 -68.5 -43.5t-87.5 -16.5q-73 0 -114.5 37t-41.5 99q0 70 60.5 108.5t171.5 59.5l80 15v21q0 57 -29.5 92.5t-94.5 35.5q-81 0 -144 -51l-26 38q30 29 77.5 47t92.5 18q96 0 140 -48zM275 55q38 15 65 41v164l-64 -12
q-83 -15 -135.5 -42.5t-52.5 -79.5q0 -40 25.5 -63t78.5 -23q45 0 83 15zM178 -82h60v-64h-60v64zM356 560h-60l-92 108l-92 -108h-56l120 144h60z" />
    <glyph glyph-name="uni1EAE" unicode="&#x1eae;" horiz-adv-x="696" 
d="M620 0l-86 196h-372l-86 -196h-64l316 716h40l316 -716h-64zM186 252h324l-162 369zM370 878h-48v4l84 110h64zM255.5 784.5q-36.5 30.5 -39.5 81.5h48q2 -30 23.5 -46.5t60.5 -16.5q36 0 57.5 16.5t22.5 46.5h48q-4 -51 -39.5 -81.5t-88.5 -30.5q-56 0 -92.5 30.5z" />
    <glyph glyph-name="uni1EAF" unicode="&#x1eaf;" horiz-adv-x="464" 
d="M356 460q44 -48 44 -128v-332h-32l-28 48q-25 -27 -68.5 -43.5t-87.5 -16.5q-73 0 -114.5 37t-41.5 99q0 70 60.5 108.5t171.5 59.5l80 15v21q0 57 -29.5 92.5t-94.5 35.5q-81 0 -144 -51l-26 38q30 29 77.5 47t92.5 18q96 0 140 -48zM275 55q38 15 65 41v164l-64 -12
q-83 -15 -135.5 -42.5t-52.5 -79.5q0 -40 25.5 -63t78.5 -23q45 0 83 15zM230 706h-48v4l84 130h64zM115.5 596q-36.5 36 -39.5 96h48q2 -40 23.5 -61.5t60.5 -21.5q36 0 57.5 21.5t22.5 61.5h48q-4 -60 -39.5 -96t-88.5 -36q-56 0 -92.5 36z" />
    <glyph glyph-name="uni1EB0" unicode="&#x1eb0;" horiz-adv-x="696" 
d="M620 0l-86 196h-372l-86 -196h-64l316 716h40l316 -716h-64zM186 252h324l-162 369zM370 878h-48l-100 114h64l84 -110v-4zM255.5 784.5q-36.5 30.5 -39.5 81.5h48q2 -30 23.5 -46.5t60.5 -16.5q36 0 57.5 16.5t22.5 46.5h48q-4 -51 -39.5 -81.5t-88.5 -30.5
q-56 0 -92.5 30.5z" />
    <glyph glyph-name="uni1EB1" unicode="&#x1eb1;" horiz-adv-x="464" 
d="M356 460q44 -48 44 -128v-332h-32l-28 48q-25 -27 -68.5 -43.5t-87.5 -16.5q-73 0 -114.5 37t-41.5 99q0 70 60.5 108.5t171.5 59.5l80 15v21q0 57 -29.5 92.5t-94.5 35.5q-81 0 -144 -51l-26 38q30 29 77.5 47t92.5 18q96 0 140 -48zM275 55q38 15 65 41v164l-64 -12
q-83 -15 -135.5 -42.5t-52.5 -79.5q0 -40 25.5 -63t78.5 -23q45 0 83 15zM230 707h-48l-100 133h64l84 -129v-4zM115.5 596q-36.5 36 -39.5 96h48q2 -40 23.5 -61.5t60.5 -21.5q36 0 57.5 21.5t22.5 61.5h48q-4 -60 -39.5 -96t-88.5 -36q-56 0 -92.5 36z" />
    <glyph glyph-name="uni1EB2" unicode="&#x1eb2;" horiz-adv-x="696" 
d="M620 0l-86 196h-372l-86 -196h-64l316 716h40l316 -716h-64zM186 252h324l-162 369zM300 963l-17 34q24 21 69 21q36 0 57.5 -18t21.5 -50q0 -28 -17.5 -46t-48.5 -20v-26h-40v58h16q19 0 30.5 8.5t11.5 25.5q0 13 -9.5 20.5t-26.5 7.5q-27 0 -47 -15zM476 866
q-4 -51 -39.5 -81.5t-88.5 -30.5q-56 0 -92.5 30.5t-39.5 81.5h48q2 -30 23.5 -46.5t60.5 -16.5q36 0 57.5 16.5t22.5 46.5h48z" />
    <glyph glyph-name="uni1EB3" unicode="&#x1eb3;" horiz-adv-x="464" 
d="M356 460q44 -48 44 -128v-332h-32l-28 48q-25 -27 -68.5 -43.5t-87.5 -16.5q-73 0 -114.5 37t-41.5 99q0 70 60.5 108.5t171.5 59.5l80 15v21q0 57 -29.5 92.5t-94.5 35.5q-81 0 -144 -51l-26 38q30 29 77.5 47t92.5 18q96 0 140 -48zM275 55q38 15 65 41v164l-64 -12
q-83 -15 -135.5 -42.5t-52.5 -79.5q0 -40 25.5 -63t78.5 -23q45 0 83 15zM163 817l-17 34q24 21 69 21q36 0 57.5 -19.5t21.5 -52.5q0 -29 -17.5 -47.5t-48.5 -20.5v-30h-40v62h16q19 0 30.5 9t11.5 27q0 15 -9.5 23.5t-26.5 8.5q-27 0 -47 -15zM336 692q-4 -60 -39.5 -96
t-88.5 -36q-56 0 -92.5 36t-39.5 96h48q2 -40 23.5 -61.5t60.5 -21.5q36 0 57.5 21.5t22.5 61.5h48z" />
    <glyph glyph-name="uni1EB4" unicode="&#x1eb4;" horiz-adv-x="696" 
d="M620 0l-86 196h-372l-86 -196h-64l316 716h40l316 -716h-64zM186 252h324l-162 369zM376 907.5q-20 7.5 -46 20.5q-36 17 -46 17q-12 0 -12 -12v-29h-44v21q0 34 11.5 50.5t37.5 16.5q18 0 37.5 -7t43.5 -20q5 -2 22 -10t28 -8q12 0 12 12v29h44v-21q0 -34 -11.5 -50.5
t-37.5 -16.5q-19 0 -39 7.5zM255.5 784.5q-36.5 30.5 -39.5 81.5h48q2 -30 23.5 -46.5t60.5 -16.5q36 0 57.5 16.5t22.5 46.5h48q-4 -51 -39.5 -81.5t-88.5 -30.5q-56 0 -92.5 30.5z" />
    <glyph glyph-name="uni1EB5" unicode="&#x1eb5;" horiz-adv-x="464" 
d="M356 460q44 -48 44 -128v-332h-32l-28 48q-25 -27 -68.5 -43.5t-87.5 -16.5q-73 0 -114.5 37t-41.5 99q0 70 60.5 108.5t171.5 59.5l80 15v21q0 57 -29.5 92.5t-94.5 35.5q-81 0 -144 -51l-26 38q30 29 77.5 47t92.5 18q96 0 140 -48zM275 55q38 15 65 41v164l-64 -12
q-83 -15 -135.5 -42.5t-52.5 -79.5q0 -40 25.5 -63t78.5 -23q45 0 83 15zM234 737.5q-21 11.5 -47 30.5q-33 24 -43 24q-12 0 -12 -12v-50h-44v42q0 35 11.5 51.5t40.5 16.5q17 0 36 -10.5t44 -29.5q14 -10 27.5 -18t20.5 -8q12 0 12 12v50h44v-42q0 -35 -11.5 -51.5
t-40.5 -16.5q-17 0 -38 11.5zM115.5 596q-36.5 36 -39.5 96h48q2 -40 23.5 -61.5t60.5 -21.5q36 0 57.5 21.5t22.5 61.5h48q-4 -60 -39.5 -96t-88.5 -36q-56 0 -92.5 36z" />
    <glyph glyph-name="uni1EB6" unicode="&#x1eb6;" horiz-adv-x="696" 
d="M620 0l-86 196h-372l-86 -196h-64l316 716h40l316 -716h-64zM186 252h324l-162 369zM318 -82h60v-64h-60v64zM255.5 816q-36.5 36 -39.5 96h48q2 -40 23.5 -61.5t60.5 -21.5q36 0 57.5 21.5t22.5 61.5h48q-4 -60 -39.5 -96t-88.5 -36q-56 0 -92.5 36z" />
    <glyph glyph-name="uni1EB7" unicode="&#x1eb7;" horiz-adv-x="464" 
d="M356 460q44 -48 44 -128v-332h-32l-28 48q-25 -27 -68.5 -43.5t-87.5 -16.5q-73 0 -114.5 37t-41.5 99q0 70 60.5 108.5t171.5 59.5l80 15v21q0 57 -29.5 92.5t-94.5 35.5q-81 0 -144 -51l-26 38q30 29 77.5 47t92.5 18q96 0 140 -48zM275 55q38 15 65 41v164l-64 -12
q-83 -15 -135.5 -42.5t-52.5 -79.5q0 -40 25.5 -63t78.5 -23q45 0 83 15zM178 -82h60v-64h-60v64zM115.5 608q-36.5 36 -39.5 96h48q2 -40 23.5 -61.5t60.5 -21.5q36 0 57.5 21.5t22.5 61.5h48q-4 -60 -39.5 -96t-88.5 -36q-56 0 -92.5 36z" />
    <glyph glyph-name="uni1EB8" unicode="&#x1eb8;" horiz-adv-x="600" 
d="M156 56h388v-56h-448v704h432v-56h-372v-252h336v-56h-336v-284zM290 -82h60v-64h-60v64z" />
    <glyph glyph-name="uni1EB9" unicode="&#x1eb9;" horiz-adv-x="504" 
d="M92 236q0 -54 23 -99t64 -71t93 -26q93 0 156 72l36 -36q-31 -39 -80.5 -63.5t-111.5 -24.5q-76 0 -130 35t-82 94.5t-28 130.5q0 70 27.5 129.5t79.5 95t121 35.5q70 0 117.5 -31.5t71 -85t23.5 -119.5v-24h-380v-12zM149 410q-44 -46 -54 -118h320q-5 79 -47.5 121.5
t-107.5 42.5q-67 0 -111 -46zM246 -82h60v-64h-60v64z" />
    <glyph glyph-name="uni1EBA" unicode="&#x1eba;" horiz-adv-x="600" 
d="M156 56h388v-56h-448v704h432v-56h-372v-252h336v-56h-336v-284zM389.5 820.5q-17.5 -18.5 -48.5 -20.5v-36h-40v68h16q19 0 30.5 9t11.5 27q0 17 -9.5 26.5t-26.5 9.5q-27 0 -47 -15l-17 34q24 21 69 21q36 0 57.5 -20t21.5 -56q0 -29 -17.5 -47.5z" />
    <glyph glyph-name="uni1EBB" unicode="&#x1ebb;" horiz-adv-x="504" 
d="M92 236q0 -54 23 -99t64 -71t93 -26q93 0 156 72l36 -36q-31 -39 -80.5 -63.5t-111.5 -24.5q-76 0 -130 35t-82 94.5t-28 130.5q0 70 27.5 129.5t79.5 95t121 35.5q70 0 117.5 -31.5t71 -85t23.5 -119.5v-24h-380v-12zM149 410q-44 -46 -54 -118h320q-5 79 -47.5 121.5
t-107.5 42.5q-67 0 -111 -46zM324.5 612.5q-17.5 -18.5 -48.5 -20.5v-36h-40v68h16q19 0 30.5 9t11.5 27q0 17 -9.5 26.5t-26.5 9.5q-27 0 -47 -15l-17 34q24 21 69 21q36 0 57.5 -20t21.5 -56q0 -29 -17.5 -47.5z" />
    <glyph glyph-name="uni1EBC" unicode="&#x1ebc;" horiz-adv-x="600" 
d="M156 56h388v-56h-448v704h432v-56h-372v-252h336v-56h-336v-284zM341 802q-21 14 -49 39q-12 11 -23 19t-16 8q-12 0 -12 -12v-64h-44v56q0 35 11.5 51.5t40.5 16.5q19 0 38.5 -13t46.5 -37q13 -12 24.5 -21t18.5 -9q12 0 12 12v64h44v-56q0 -35 -11.5 -51.5t-40.5 -16.5
q-19 0 -40 14z" />
    <glyph glyph-name="uni1EBD" unicode="&#x1ebd;" horiz-adv-x="504" 
d="M92 236q0 -54 23 -99t64 -71t93 -26q93 0 156 72l36 -36q-31 -39 -80.5 -63.5t-111.5 -24.5q-76 0 -130 35t-82 94.5t-28 130.5q0 70 27.5 129.5t79.5 95t121 35.5q70 0 117.5 -31.5t71 -85t23.5 -119.5v-24h-380v-12zM149 410q-44 -46 -54 -118h320q-5 79 -47.5 121.5
t-107.5 42.5q-67 0 -111 -46zM276 594q-21 14 -49 39q-12 11 -23 19t-16 8q-12 0 -12 -12v-64h-44v56q0 35 11.5 51.5t40.5 16.5q19 0 38.5 -13t46.5 -37q13 -12 24.5 -21t18.5 -9q12 0 12 12v64h44v-56q0 -35 -11.5 -51.5t-40.5 -16.5q-19 0 -40 14z" />
    <glyph glyph-name="uni1EBE" unicode="&#x1ebe;" horiz-adv-x="600" 
d="M156 56h388v-56h-448v704h432v-56h-372v-252h336v-56h-336v-284zM441 838l74 120h64l-90 -124h-48v4zM289 878h60l120 -124h-58l-93 89l-93 -89h-56z" />
    <glyph glyph-name="uni1EBF" unicode="&#x1ebf;" horiz-adv-x="504" 
d="M92 236q0 -54 23 -99t64 -71t93 -26q93 0 156 72l36 -36q-31 -39 -80.5 -63.5t-111.5 -24.5q-76 0 -130 35t-82 94.5t-28 130.5q0 70 27.5 129.5t79.5 95t121 35.5q70 0 117.5 -31.5t71 -85t23.5 -119.5v-24h-380v-12zM149 410q-44 -46 -54 -118h320q-5 79 -47.5 121.5
t-107.5 42.5q-67 0 -111 -46zM367 664l84 140h64l-100 -144h-48v4zM224 704h60l120 -144h-58l-93 109l-93 -109h-56z" />
    <glyph glyph-name="uni1EC0" unicode="&#x1ec0;" horiz-adv-x="600" 
d="M156 56h388v-56h-448v704h432v-56h-372v-252h336v-56h-336v-284zM123 958l74 -120v-4h-48l-90 124h64zM349 878l120 -124h-58l-93 89l-93 -89h-56l120 124h60z" />
    <glyph glyph-name="uni1EC1" unicode="&#x1ec1;" horiz-adv-x="504" 
d="M92 236q0 -54 23 -99t64 -71t93 -26q93 0 156 72l36 -36q-31 -39 -80.5 -63.5t-111.5 -24.5q-76 0 -130 35t-82 94.5t-28 130.5q0 70 27.5 129.5t79.5 95t121 35.5q70 0 117.5 -31.5t71 -85t23.5 -119.5v-24h-380v-12zM149 410q-44 -46 -54 -118h320q-5 79 -47.5 121.5
t-107.5 42.5q-67 0 -111 -46zM57 804l84 -140v-4h-48l-100 144h64zM284 704l120 -144h-58l-93 109l-93 -109h-56l120 144h60z" />
    <glyph glyph-name="uni1EC2" unicode="&#x1ec2;" horiz-adv-x="600" 
d="M156 56h388v-56h-448v704h432v-56h-372v-252h336v-56h-336v-284zM511.5 974q21.5 -18 21.5 -50q0 -28 -17.5 -46t-48.5 -20v-26h-40v58h16q19 0 30.5 8.5t11.5 25.5q0 13 -9.5 20.5t-26.5 7.5q-27 0 -47 -15l-17 34q24 21 69 21q36 0 57.5 -18zM289 878h60l120 -124h-58
l-93 89l-93 -89h-56z" />
    <glyph glyph-name="uni1EC3" unicode="&#x1ec3;" horiz-adv-x="504" 
d="M92 236q0 -54 23 -99t64 -71t93 -26q93 0 156 72l36 -36q-31 -39 -80.5 -63.5t-111.5 -24.5q-76 0 -130 35t-82 94.5t-28 130.5q0 70 27.5 129.5t79.5 95t121 35.5q70 0 117.5 -31.5t71 -85t23.5 -119.5v-24h-380v-12zM149 410q-44 -46 -54 -118h320q-5 79 -47.5 121.5
t-107.5 42.5q-67 0 -111 -46zM446.5 824q21.5 -20 21.5 -56q0 -29 -17.5 -47.5t-48.5 -20.5v-36h-40v68h16q19 0 30.5 9t11.5 27q0 17 -9.5 26.5t-26.5 9.5q-27 0 -47 -15l-17 34q24 21 69 21q36 0 57.5 -20zM224 704h60l120 -144h-58l-93 109l-93 -109h-56z" />
    <glyph glyph-name="uni1EC4" unicode="&#x1ec4;" horiz-adv-x="600" 
d="M156 56h388v-56h-448v704h432v-56h-372v-252h336v-56h-336v-284zM245 904h-44v21q0 34 11.5 50.5t37.5 16.5q18 0 37.5 -7t43.5 -20q5 -2 22 -10t28 -8q12 0 12 12v29h44v-21q0 -34 -11.5 -50.5t-37.5 -16.5q-19 0 -39 7.5t-46 20.5q-36 17 -46 17q-12 0 -12 -12v-29z
M349 878l120 -124h-58l-93 89l-93 -89h-56l120 124h60z" />
    <glyph glyph-name="uni1EC5" unicode="&#x1ec5;" horiz-adv-x="504" 
d="M92 236q0 -54 23 -99t64 -71t93 -26q93 0 156 72l36 -36q-31 -39 -80.5 -63.5t-111.5 -24.5q-76 0 -130 35t-82 94.5t-28 130.5q0 70 27.5 129.5t79.5 95t121 35.5q70 0 117.5 -31.5t71 -85t23.5 -119.5v-24h-380v-12zM149 410q-44 -46 -54 -118h320q-5 79 -47.5 121.5
t-107.5 42.5q-67 0 -111 -46zM180 734h-44v42q0 35 11.5 51.5t40.5 16.5q17 0 36 -10.5t44 -29.5q14 -10 27.5 -18t20.5 -8q12 0 12 12v50h44v-42q0 -35 -11.5 -51.5t-40.5 -16.5q-17 0 -38 11.5t-47 30.5q-33 24 -43 24q-12 0 -12 -12v-50zM284 704l120 -144h-58l-93 109
l-93 -109h-56l120 144h60z" />
    <glyph glyph-name="uni1EC6" unicode="&#x1ec6;" horiz-adv-x="600" 
d="M156 56h388v-56h-448v704h432v-56h-372v-252h336v-56h-336v-284zM290 -82h60v-64h-60v64zM469 768h-60l-92 108l-92 -108h-56l120 144h60z" />
    <glyph glyph-name="uni1EC7" unicode="&#x1ec7;" horiz-adv-x="504" 
d="M92 236q0 -54 23 -99t64 -71t93 -26q93 0 156 72l36 -36q-31 -39 -80.5 -63.5t-111.5 -24.5q-76 0 -130 35t-82 94.5t-28 130.5q0 70 27.5 129.5t79.5 95t121 35.5q70 0 117.5 -31.5t71 -85t23.5 -119.5v-24h-380v-12zM149 410q-44 -46 -54 -118h320q-5 79 -47.5 121.5
t-107.5 42.5q-67 0 -111 -46zM246 -82h60v-64h-60v64zM404 560h-60l-92 108l-92 -108h-56l120 144h60z" />
    <glyph glyph-name="uni1EC8" unicode="&#x1ec8;" horiz-adv-x="252" 
d="M96 704h60v-704h-60v704zM196.5 820.5q-17.5 -18.5 -48.5 -20.5v-36h-40v68h16q19 0 30.5 9t11.5 27q0 17 -9.5 26.5t-26.5 9.5q-27 0 -47 -15l-17 34q24 21 69 21q36 0 57.5 -20t21.5 -56q0 -29 -17.5 -47.5z" />
    <glyph glyph-name="uni1EC9" unicode="&#x1ec9;" horiz-adv-x="196" 
d="M68 496h60v-496h-60v496zM168.5 612.5q-17.5 -18.5 -48.5 -20.5v-36h-40v68h16q19 0 30.5 9t11.5 27q0 17 -9.5 26.5t-26.5 9.5q-27 0 -47 -15l-17 34q24 21 69 21q36 0 57.5 -20t21.5 -56q0 -29 -17.5 -47.5z" />
    <glyph glyph-name="uni1ECA" unicode="&#x1eca;" horiz-adv-x="252" 
d="M96 704h60v-704h-60v704zM96 -82h60v-64h-60v64z" />
    <glyph glyph-name="uni1ECB" unicode="&#x1ecb;" horiz-adv-x="196" 
d="M68 496h60v-496h-60v496zM68 688h60v-64h-60v64zM70 -82h60v-64h-60v64z" />
    <glyph glyph-name="uni1ECC" unicode="&#x1ecc;" horiz-adv-x="808" 
d="M221 35.5q-82 47.5 -129.5 131t-47.5 185.5q0 103 46.5 186t129 130.5t184.5 47.5t184.5 -47.5t129 -130.5t46.5 -186t-46.5 -186t-129 -130.5t-184.5 -47.5q-101 0 -183 47.5zM556.5 84q67.5 40 105.5 110.5t38 157.5t-38 157.5t-105.5 110.5t-152.5 40
q-83 0 -150.5 -40t-106.5 -110.5t-39 -157.5t38 -157.5t105.5 -110.5t152.5 -40t152.5 40zM374 -82h60v-64h-60v64z" />
    <glyph glyph-name="uni1ECD" unicode="&#x1ecd;" horiz-adv-x="552" 
d="M151 22.5q-56 34.5 -87.5 94t-31.5 131.5t31.5 131.5t87.5 94t125 34.5t125 -34.5t87.5 -94t31.5 -131.5t-31.5 -131.5t-87.5 -94t-125 -34.5t-125 34.5zM371 68q42 28 65.5 75.5t23.5 104.5t-23.5 104.5t-65.5 75.5t-95 28t-95 -27.5t-65.5 -75t-23.5 -105.5
q0 -57 23.5 -104.5t65.5 -75.5t95 -28t95 28zM246 -82h60v-64h-60v64z" />
    <glyph glyph-name="uni1ECE" unicode="&#x1ece;" horiz-adv-x="808" 
d="M221 35.5q-82 47.5 -129.5 131t-47.5 185.5q0 103 46.5 186t129 130.5t184.5 47.5t184.5 -47.5t129 -130.5t46.5 -186t-46.5 -186t-129 -130.5t-184.5 -47.5q-101 0 -183 47.5zM556.5 84q67.5 40 105.5 110.5t38 157.5t-38 157.5t-105.5 110.5t-152.5 40
q-83 0 -150.5 -40t-106.5 -110.5t-39 -157.5t38 -157.5t105.5 -110.5t152.5 -40t152.5 40zM472.5 820.5q-17.5 -18.5 -48.5 -20.5v-36h-40v68h16q19 0 30.5 9t11.5 27q0 17 -9.5 26.5t-26.5 9.5q-27 0 -47 -15l-17 34q24 21 69 21q36 0 57.5 -20t21.5 -56q0 -29 -17.5 -47.5
z" />
    <glyph glyph-name="uni1ECF" unicode="&#x1ecf;" horiz-adv-x="552" 
d="M151 22.5q-56 34.5 -87.5 94t-31.5 131.5t31.5 131.5t87.5 94t125 34.5t125 -34.5t87.5 -94t31.5 -131.5t-31.5 -131.5t-87.5 -94t-125 -34.5t-125 34.5zM371 68q42 28 65.5 75.5t23.5 104.5t-23.5 104.5t-65.5 75.5t-95 28t-95 -27.5t-65.5 -75t-23.5 -105.5
q0 -57 23.5 -104.5t65.5 -75.5t95 -28t95 28zM344.5 612.5q-17.5 -18.5 -48.5 -20.5v-36h-40v68h16q19 0 30.5 9t11.5 27q0 17 -9.5 26.5t-26.5 9.5q-27 0 -47 -15l-17 34q24 21 69 21q36 0 57.5 -20t21.5 -56q0 -29 -17.5 -47.5z" />
    <glyph glyph-name="uni1ED0" unicode="&#x1ed0;" horiz-adv-x="808" 
d="M221 35.5q-82 47.5 -129.5 131t-47.5 185.5q0 103 46.5 186t129 130.5t184.5 47.5t184.5 -47.5t129 -130.5t46.5 -186t-46.5 -186t-129 -130.5t-184.5 -47.5q-101 0 -183 47.5zM556.5 84q67.5 40 105.5 110.5t38 157.5t-38 157.5t-105.5 110.5t-152.5 40
q-83 0 -150.5 -40t-106.5 -110.5t-39 -157.5t38 -157.5t105.5 -110.5t152.5 -40t152.5 40zM524 838l74 120h64l-90 -124h-48v4zM372 878h60l120 -124h-58l-93 89l-93 -89h-56z" />
    <glyph glyph-name="uni1ED1" unicode="&#x1ed1;" horiz-adv-x="552" 
d="M151 22.5q-56 34.5 -87.5 94t-31.5 131.5t31.5 131.5t87.5 94t125 34.5t125 -34.5t87.5 -94t31.5 -131.5t-31.5 -131.5t-87.5 -94t-125 -34.5t-125 34.5zM371 68q42 28 65.5 75.5t23.5 104.5t-23.5 104.5t-65.5 75.5t-95 28t-95 -27.5t-65.5 -75t-23.5 -105.5
q0 -57 23.5 -104.5t65.5 -75.5t95 -28t95 28zM387 664l84 140h64l-100 -144h-48v4zM244 704h60l120 -144h-58l-93 109l-93 -109h-56z" />
    <glyph glyph-name="uni1ED2" unicode="&#x1ed2;" horiz-adv-x="808" 
d="M221 35.5q-82 47.5 -129.5 131t-47.5 185.5q0 103 46.5 186t129 130.5t184.5 47.5t184.5 -47.5t129 -130.5t46.5 -186t-46.5 -186t-129 -130.5t-184.5 -47.5q-101 0 -183 47.5zM556.5 84q67.5 40 105.5 110.5t38 157.5t-38 157.5t-105.5 110.5t-152.5 40
q-83 0 -150.5 -40t-106.5 -110.5t-39 -157.5t38 -157.5t105.5 -110.5t152.5 -40t152.5 40zM206 958l74 -120v-4h-48l-90 124h64zM432 878l120 -124h-58l-93 89l-93 -89h-56l120 124h60z" />
    <glyph glyph-name="uni1ED3" unicode="&#x1ed3;" horiz-adv-x="552" 
d="M151 22.5q-56 34.5 -87.5 94t-31.5 131.5t31.5 131.5t87.5 94t125 34.5t125 -34.5t87.5 -94t31.5 -131.5t-31.5 -131.5t-87.5 -94t-125 -34.5t-125 34.5zM371 68q42 28 65.5 75.5t23.5 104.5t-23.5 104.5t-65.5 75.5t-95 28t-95 -27.5t-65.5 -75t-23.5 -105.5
q0 -57 23.5 -104.5t65.5 -75.5t95 -28t95 28zM77 804l84 -140v-4h-48l-100 144h64zM304 704l120 -144h-58l-93 109l-93 -109h-56l120 144h60z" />
    <glyph glyph-name="uni1ED4" unicode="&#x1ed4;" horiz-adv-x="808" 
d="M221 35.5q-82 47.5 -129.5 131t-47.5 185.5q0 103 46.5 186t129 130.5t184.5 47.5t184.5 -47.5t129 -130.5t46.5 -186t-46.5 -186t-129 -130.5t-184.5 -47.5q-101 0 -183 47.5zM556.5 84q67.5 40 105.5 110.5t38 157.5t-38 157.5t-105.5 110.5t-152.5 40
q-83 0 -150.5 -40t-106.5 -110.5t-39 -157.5t38 -157.5t105.5 -110.5t152.5 -40t152.5 40zM594.5 974q21.5 -18 21.5 -50q0 -28 -17.5 -46t-48.5 -20v-26h-40v58h16q19 0 30.5 8.5t11.5 25.5q0 13 -9.5 20.5t-26.5 7.5q-27 0 -47 -15l-17 34q24 21 69 21q36 0 57.5 -18z
M372 878h60l120 -124h-58l-93 89l-93 -89h-56z" />
    <glyph glyph-name="uni1ED5" unicode="&#x1ed5;" horiz-adv-x="552" 
d="M151 22.5q-56 34.5 -87.5 94t-31.5 131.5t31.5 131.5t87.5 94t125 34.5t125 -34.5t87.5 -94t31.5 -131.5t-31.5 -131.5t-87.5 -94t-125 -34.5t-125 34.5zM371 68q42 28 65.5 75.5t23.5 104.5t-23.5 104.5t-65.5 75.5t-95 28t-95 -27.5t-65.5 -75t-23.5 -105.5
q0 -57 23.5 -104.5t65.5 -75.5t95 -28t95 28zM466.5 824q21.5 -20 21.5 -56q0 -29 -17.5 -47.5t-48.5 -20.5v-36h-40v68h16q19 0 30.5 9t11.5 27q0 17 -9.5 26.5t-26.5 9.5q-27 0 -47 -15l-17 34q24 21 69 21q36 0 57.5 -20zM244 704h60l120 -144h-58l-93 109l-93 -109h-56z
" />
    <glyph glyph-name="uni1ED6" unicode="&#x1ed6;" horiz-adv-x="808" 
d="M221 35.5q-82 47.5 -129.5 131t-47.5 185.5q0 103 46.5 186t129 130.5t184.5 47.5t184.5 -47.5t129 -130.5t46.5 -186t-46.5 -186t-129 -130.5t-184.5 -47.5q-101 0 -183 47.5zM556.5 84q67.5 40 105.5 110.5t38 157.5t-38 157.5t-105.5 110.5t-152.5 40
q-83 0 -150.5 -40t-106.5 -110.5t-39 -157.5t38 -157.5t105.5 -110.5t152.5 -40t152.5 40zM328 904h-44v21q0 34 11.5 50.5t37.5 16.5q18 0 37.5 -7t43.5 -20q5 -2 22 -10t28 -8q12 0 12 12v29h44v-21q0 -34 -11.5 -50.5t-37.5 -16.5q-19 0 -39 7.5t-46 20.5q-36 17 -46 17
q-12 0 -12 -12v-29zM432 878l120 -124h-58l-93 89l-93 -89h-56l120 124h60z" />
    <glyph glyph-name="uni1ED7" unicode="&#x1ed7;" horiz-adv-x="552" 
d="M151 22.5q-56 34.5 -87.5 94t-31.5 131.5t31.5 131.5t87.5 94t125 34.5t125 -34.5t87.5 -94t31.5 -131.5t-31.5 -131.5t-87.5 -94t-125 -34.5t-125 34.5zM371 68q42 28 65.5 75.5t23.5 104.5t-23.5 104.5t-65.5 75.5t-95 28t-95 -27.5t-65.5 -75t-23.5 -105.5
q0 -57 23.5 -104.5t65.5 -75.5t95 -28t95 28zM200 734h-44v42q0 35 11.5 51.5t40.5 16.5q17 0 36 -10.5t44 -29.5q14 -10 27.5 -18t20.5 -8q12 0 12 12v50h44v-42q0 -35 -11.5 -51.5t-40.5 -16.5q-17 0 -38 11.5t-47 30.5q-33 24 -43 24q-12 0 -12 -12v-50zM304 704
l120 -144h-58l-93 109l-93 -109h-56l120 144h60z" />
    <glyph glyph-name="uni1ED8" unicode="&#x1ed8;" horiz-adv-x="808" 
d="M221 35.5q-82 47.5 -129.5 131t-47.5 185.5q0 103 46.5 186t129 130.5t184.5 47.5t184.5 -47.5t129 -130.5t46.5 -186t-46.5 -186t-129 -130.5t-184.5 -47.5q-101 0 -183 47.5zM556.5 84q67.5 40 105.5 110.5t38 157.5t-38 157.5t-105.5 110.5t-152.5 40
q-83 0 -150.5 -40t-106.5 -110.5t-39 -157.5t38 -157.5t105.5 -110.5t152.5 -40t152.5 40zM374 -82h60v-64h-60v64zM552 768h-60l-92 108l-92 -108h-56l120 144h60z" />
    <glyph glyph-name="uni1ED9" unicode="&#x1ed9;" horiz-adv-x="552" 
d="M151 22.5q-56 34.5 -87.5 94t-31.5 131.5t31.5 131.5t87.5 94t125 34.5t125 -34.5t87.5 -94t31.5 -131.5t-31.5 -131.5t-87.5 -94t-125 -34.5t-125 34.5zM371 68q42 28 65.5 75.5t23.5 104.5t-23.5 104.5t-65.5 75.5t-95 28t-95 -27.5t-65.5 -75t-23.5 -105.5
q0 -57 23.5 -104.5t65.5 -75.5t95 -28t95 28zM246 -82h60v-64h-60v64zM424 560h-60l-92 108l-92 -108h-56l120 144h60z" />
    <glyph glyph-name="uni1EDA" unicode="&#x1eda;" horiz-adv-x="808" 
d="M731 511.5q33 -73.5 33 -159.5q0 -103 -46.5 -186t-129 -130.5t-184.5 -47.5q-101 0 -183 47.5t-129.5 131t-47.5 185.5q0 103 46.5 186t129 130.5t184.5 47.5q97 0 177 -43h21q59 0 59 45q0 24 -12 45l50 17q16 -30 16 -62q0 -33 -20 -55t-57 -28q60 -50 93 -123.5z
M556.5 84q67.5 40 105.5 110.5t38 157.5t-38 157.5t-105.5 110.5t-152.5 40q-83 0 -150.5 -40t-106.5 -110.5t-39 -157.5t38 -157.5t105.5 -110.5t152.5 -40t152.5 40zM378 772l84 140h64l-100 -144h-48v4z" />
    <glyph glyph-name="uni1EDB" unicode="&#x1edb;" horiz-adv-x="552" 
d="M507 456.5q-18 -21.5 -52 -28.5q31 -35 48 -81t17 -99q0 -72 -31.5 -131.5t-87.5 -94t-125 -34.5t-125 34.5t-87.5 94t-31.5 131.5t31.5 131.5t87.5 94t125 34.5q77 0 138 -43q57 0 57 45q0 24 -12 45l50 17q16 -30 16 -62t-18 -53.5zM371 68q42 28 65.5 75.5t23.5 104.5
t-23.5 104.5t-65.5 75.5t-95 28t-95 -27.5t-65.5 -75t-23.5 -105.5q0 -57 23.5 -104.5t65.5 -75.5t95 -28t95 28zM250 564l84 140h64l-100 -144h-48v4z" />
    <glyph glyph-name="uni1EDC" unicode="&#x1edc;" horiz-adv-x="808" 
d="M731 511.5q33 -73.5 33 -159.5q0 -103 -46.5 -186t-129 -130.5t-184.5 -47.5q-101 0 -183 47.5t-129.5 131t-47.5 185.5q0 103 46.5 186t129 130.5t184.5 47.5q97 0 177 -43h21q59 0 59 45q0 24 -12 45l50 17q16 -30 16 -62q0 -33 -20 -55t-57 -28q60 -50 93 -123.5z
M556.5 84q67.5 40 105.5 110.5t38 157.5t-38 157.5t-105.5 110.5t-152.5 40q-83 0 -150.5 -40t-106.5 -110.5t-39 -157.5t38 -157.5t105.5 -110.5t152.5 -40t152.5 40zM280 912h64l84 -140v-4h-48z" />
    <glyph glyph-name="uni1EDD" unicode="&#x1edd;" horiz-adv-x="552" 
d="M507 456.5q-18 -21.5 -52 -28.5q31 -35 48 -81t17 -99q0 -72 -31.5 -131.5t-87.5 -94t-125 -34.5t-125 34.5t-87.5 94t-31.5 131.5t31.5 131.5t87.5 94t125 34.5q77 0 138 -43q57 0 57 45q0 24 -12 45l50 17q16 -30 16 -62t-18 -53.5zM371 68q42 28 65.5 75.5t23.5 104.5
t-23.5 104.5t-65.5 75.5t-95 28t-95 -27.5t-65.5 -75t-23.5 -105.5q0 -57 23.5 -104.5t65.5 -75.5t95 -28t95 28zM152 704h64l84 -140v-4h-48z" />
    <glyph glyph-name="uni1EDE" unicode="&#x1ede;" horiz-adv-x="808" 
d="M731 511.5q33 -73.5 33 -159.5q0 -103 -46.5 -186t-129 -130.5t-184.5 -47.5q-101 0 -183 47.5t-129.5 131t-47.5 185.5q0 103 46.5 186t129 130.5t184.5 47.5q97 0 177 -43h21q59 0 59 45q0 24 -12 45l50 17q16 -30 16 -62q0 -33 -20 -55t-57 -28q60 -50 93 -123.5z
M556.5 84q67.5 40 105.5 110.5t38 157.5t-38 157.5t-105.5 110.5t-152.5 40q-83 0 -150.5 -40t-106.5 -110.5t-39 -157.5t38 -157.5t105.5 -110.5t152.5 -40t152.5 40zM472.5 820.5q-17.5 -18.5 -48.5 -20.5v-36h-40v68h16q19 0 30.5 9t11.5 27q0 17 -9.5 26.5t-26.5 9.5
q-27 0 -47 -15l-17 34q24 21 69 21q36 0 57.5 -20t21.5 -56q0 -29 -17.5 -47.5z" />
    <glyph glyph-name="uni1EDF" unicode="&#x1edf;" horiz-adv-x="552" 
d="M507 456.5q-18 -21.5 -52 -28.5q31 -35 48 -81t17 -99q0 -72 -31.5 -131.5t-87.5 -94t-125 -34.5t-125 34.5t-87.5 94t-31.5 131.5t31.5 131.5t87.5 94t125 34.5q77 0 138 -43q57 0 57 45q0 24 -12 45l50 17q16 -30 16 -62t-18 -53.5zM371 68q42 28 65.5 75.5t23.5 104.5
t-23.5 104.5t-65.5 75.5t-95 28t-95 -27.5t-65.5 -75t-23.5 -105.5q0 -57 23.5 -104.5t65.5 -75.5t95 -28t95 28zM344.5 612.5q-17.5 -18.5 -48.5 -20.5v-36h-40v68h16q19 0 30.5 9t11.5 27q0 17 -9.5 26.5t-26.5 9.5q-27 0 -47 -15l-17 34q24 21 69 21q36 0 57.5 -20
t21.5 -56q0 -29 -17.5 -47.5z" />
    <glyph glyph-name="uni1EE0" unicode="&#x1ee0;" horiz-adv-x="808" 
d="M731 511.5q33 -73.5 33 -159.5q0 -103 -46.5 -186t-129 -130.5t-184.5 -47.5q-101 0 -183 47.5t-129.5 131t-47.5 185.5q0 103 46.5 186t129 130.5t184.5 47.5q97 0 177 -43h21q59 0 59 45q0 24 -12 45l50 17q16 -30 16 -62q0 -33 -20 -55t-57 -28q60 -50 93 -123.5z
M556.5 84q67.5 40 105.5 110.5t38 157.5t-38 157.5t-105.5 110.5t-152.5 40q-83 0 -150.5 -40t-106.5 -110.5t-39 -157.5t38 -157.5t105.5 -110.5t152.5 -40t152.5 40zM424 802q-21 14 -49 39q-12 11 -23 19t-16 8q-12 0 -12 -12v-64h-44v56q0 35 11.5 51.5t40.5 16.5
q19 0 38.5 -13t46.5 -37q13 -12 24.5 -21t18.5 -9q12 0 12 12v64h44v-56q0 -35 -11.5 -51.5t-40.5 -16.5q-19 0 -40 14z" />
    <glyph glyph-name="uni1EE1" unicode="&#x1ee1;" horiz-adv-x="552" 
d="M507 456.5q-18 -21.5 -52 -28.5q31 -35 48 -81t17 -99q0 -72 -31.5 -131.5t-87.5 -94t-125 -34.5t-125 34.5t-87.5 94t-31.5 131.5t31.5 131.5t87.5 94t125 34.5q77 0 138 -43q57 0 57 45q0 24 -12 45l50 17q16 -30 16 -62t-18 -53.5zM371 68q42 28 65.5 75.5t23.5 104.5
t-23.5 104.5t-65.5 75.5t-95 28t-95 -27.5t-65.5 -75t-23.5 -105.5q0 -57 23.5 -104.5t65.5 -75.5t95 -28t95 28zM296 594q-21 14 -49 39q-12 11 -23 19t-16 8q-12 0 -12 -12v-64h-44v56q0 35 11.5 51.5t40.5 16.5q19 0 38.5 -13t46.5 -37q13 -12 24.5 -21t18.5 -9
q12 0 12 12v64h44v-56q0 -35 -11.5 -51.5t-40.5 -16.5q-19 0 -40 14z" />
    <glyph glyph-name="uni1EE2" unicode="&#x1ee2;" horiz-adv-x="808" 
d="M731 511.5q33 -73.5 33 -159.5q0 -103 -46.5 -186t-129 -130.5t-184.5 -47.5q-101 0 -183 47.5t-129.5 131t-47.5 185.5q0 103 46.5 186t129 130.5t184.5 47.5q97 0 177 -43h21q59 0 59 45q0 24 -12 45l50 17q16 -30 16 -62q0 -33 -20 -55t-57 -28q60 -50 93 -123.5z
M556.5 84q67.5 40 105.5 110.5t38 157.5t-38 157.5t-105.5 110.5t-152.5 40q-83 0 -150.5 -40t-106.5 -110.5t-39 -157.5t38 -157.5t105.5 -110.5t152.5 -40t152.5 40zM374 -82h60v-64h-60v64z" />
    <glyph glyph-name="uni1EE3" unicode="&#x1ee3;" horiz-adv-x="552" 
d="M507 456.5q-18 -21.5 -52 -28.5q31 -35 48 -81t17 -99q0 -72 -31.5 -131.5t-87.5 -94t-125 -34.5t-125 34.5t-87.5 94t-31.5 131.5t31.5 131.5t87.5 94t125 34.5q77 0 138 -43q57 0 57 45q0 24 -12 45l50 17q16 -30 16 -62t-18 -53.5zM371 68q42 28 65.5 75.5t23.5 104.5
t-23.5 104.5t-65.5 75.5t-95 28t-95 -27.5t-65.5 -75t-23.5 -105.5q0 -57 23.5 -104.5t65.5 -75.5t95 -28t95 28zM246 -82h60v-64h-60v64z" />
    <glyph glyph-name="uni1EE4" unicode="&#x1ee4;" horiz-adv-x="760" 
d="M232 24.5q-68 36.5 -108 104t-40 155.5v420h60v-420q0 -76 32.5 -130t86 -82t117.5 -28t118 26.5t86 80.5t32 133v420h60v-420q0 -88 -40 -155.5t-108 -104t-148 -36.5t-148 36.5zM350 -82h60v-64h-60v64z" />
    <glyph glyph-name="uni1EE5" unicode="&#x1ee5;" horiz-adv-x="524" 
d="M456 496v-496h-28l-32 56q-33 -36 -67.5 -52t-76.5 -16q-90 0 -139 54t-49 138v316h60v-312q0 -71 36 -107.5t100 -36.5q45 0 77.5 17.5t58.5 50.5v388h60zM234 -82h60v-64h-60v64z" />
    <glyph glyph-name="uni1EE6" unicode="&#x1ee6;" horiz-adv-x="760" 
d="M232 24.5q-68 36.5 -108 104t-40 155.5v420h60v-420q0 -76 32.5 -130t86 -82t117.5 -28t118 26.5t86 80.5t32 133v420h60v-420q0 -88 -40 -155.5t-108 -104t-148 -36.5t-148 36.5zM448.5 820.5q-17.5 -18.5 -48.5 -20.5v-36h-40v68h16q19 0 30.5 9t11.5 27
q0 17 -9.5 26.5t-26.5 9.5q-27 0 -47 -15l-17 34q24 21 69 21q36 0 57.5 -20t21.5 -56q0 -29 -17.5 -47.5z" />
    <glyph glyph-name="uni1EE7" unicode="&#x1ee7;" horiz-adv-x="524" 
d="M456 496v-496h-28l-32 56q-33 -36 -67.5 -52t-76.5 -16q-90 0 -139 54t-49 138v316h60v-312q0 -71 36 -107.5t100 -36.5q45 0 77.5 17.5t58.5 50.5v388h60zM332.5 612.5q-17.5 -18.5 -48.5 -20.5v-36h-40v68h16q19 0 30.5 9t11.5 27q0 17 -9.5 26.5t-26.5 9.5
q-27 0 -47 -15l-17 34q24 21 69 21q36 0 57.5 -20t21.5 -56q0 -29 -17.5 -47.5z" />
    <glyph glyph-name="uni1EE8" unicode="&#x1ee8;" horiz-adv-x="760" 
d="M742.5 659.5q-23.5 -22.5 -66.5 -26.5v-349q0 -88 -40 -155.5t-108 -104t-148 -36.5t-148 36.5t-108 104t-40 155.5v420h60v-420q0 -76 32.5 -130t86 -82t117.5 -28t118 26.5t86 80.5t32 133v420h60v-29q36 8 36 43q0 24 -12 45l50 17q16 -30 16 -62q0 -36 -23.5 -58.5z
M354 772l84 140h64l-100 -144h-48v4z" />
    <glyph glyph-name="uni1EE9" unicode="&#x1ee9;" horiz-adv-x="542" 
d="M529.5 449q-26.5 -23 -73.5 -25v-424h-28l-32 56q-33 -36 -67.5 -52t-76.5 -16q-90 0 -139 54t-49 138v316h60v-312q0 -71 36 -107.5t100 -36.5q45 0 77.5 17.5t58.5 50.5v388h60v-30q46 3 46 44q0 24 -12 45l50 17q16 -30 16 -62q0 -38 -26.5 -61zM238 564l84 140h64
l-100 -144h-48v4z" />
    <glyph glyph-name="uni1EEA" unicode="&#x1eea;" horiz-adv-x="760" 
d="M742.5 659.5q-23.5 -22.5 -66.5 -26.5v-349q0 -88 -40 -155.5t-108 -104t-148 -36.5t-148 36.5t-108 104t-40 155.5v420h60v-420q0 -76 32.5 -130t86 -82t117.5 -28t118 26.5t86 80.5t32 133v420h60v-29q36 8 36 43q0 24 -12 45l50 17q16 -30 16 -62q0 -36 -23.5 -58.5z
M256 912h64l84 -140v-4h-48z" />
    <glyph glyph-name="uni1EEB" unicode="&#x1eeb;" horiz-adv-x="542" 
d="M529.5 449q-26.5 -23 -73.5 -25v-424h-28l-32 56q-33 -36 -67.5 -52t-76.5 -16q-90 0 -139 54t-49 138v316h60v-312q0 -71 36 -107.5t100 -36.5q45 0 77.5 17.5t58.5 50.5v388h60v-30q46 3 46 44q0 24 -12 45l50 17q16 -30 16 -62q0 -38 -26.5 -61zM140 704h64l84 -140
v-4h-48z" />
    <glyph glyph-name="uni1EEC" unicode="&#x1eec;" horiz-adv-x="760" 
d="M742.5 659.5q-23.5 -22.5 -66.5 -26.5v-349q0 -88 -40 -155.5t-108 -104t-148 -36.5t-148 36.5t-108 104t-40 155.5v420h60v-420q0 -76 32.5 -130t86 -82t117.5 -28t118 26.5t86 80.5t32 133v420h60v-29q36 8 36 43q0 24 -12 45l50 17q16 -30 16 -62q0 -36 -23.5 -58.5z
M448.5 820.5q-17.5 -18.5 -48.5 -20.5v-36h-40v68h16q19 0 30.5 9t11.5 27q0 17 -9.5 26.5t-26.5 9.5q-27 0 -47 -15l-17 34q24 21 69 21q36 0 57.5 -20t21.5 -56q0 -29 -17.5 -47.5z" />
    <glyph glyph-name="uni1EED" unicode="&#x1eed;" horiz-adv-x="542" 
d="M529.5 449q-26.5 -23 -73.5 -25v-424h-28l-32 56q-33 -36 -67.5 -52t-76.5 -16q-90 0 -139 54t-49 138v316h60v-312q0 -71 36 -107.5t100 -36.5q45 0 77.5 17.5t58.5 50.5v388h60v-30q46 3 46 44q0 24 -12 45l50 17q16 -30 16 -62q0 -38 -26.5 -61zM332.5 612.5
q-17.5 -18.5 -48.5 -20.5v-36h-40v68h16q19 0 30.5 9t11.5 27q0 17 -9.5 26.5t-26.5 9.5q-27 0 -47 -15l-17 34q24 21 69 21q36 0 57.5 -20t21.5 -56q0 -29 -17.5 -47.5z" />
    <glyph glyph-name="uni1EEE" unicode="&#x1eee;" horiz-adv-x="760" 
d="M742.5 659.5q-23.5 -22.5 -66.5 -26.5v-349q0 -88 -40 -155.5t-108 -104t-148 -36.5t-148 36.5t-108 104t-40 155.5v420h60v-420q0 -76 32.5 -130t86 -82t117.5 -28t118 26.5t86 80.5t32 133v420h60v-29q36 8 36 43q0 24 -12 45l50 17q16 -30 16 -62q0 -36 -23.5 -58.5z
M400 802q-21 14 -49 39q-12 11 -23 19t-16 8q-12 0 -12 -12v-64h-44v56q0 35 11.5 51.5t40.5 16.5q19 0 38.5 -13t46.5 -37q13 -12 24.5 -21t18.5 -9q12 0 12 12v64h44v-56q0 -35 -11.5 -51.5t-40.5 -16.5q-19 0 -40 14z" />
    <glyph glyph-name="uni1EEF" unicode="&#x1eef;" horiz-adv-x="542" 
d="M529.5 449q-26.5 -23 -73.5 -25v-424h-28l-32 56q-33 -36 -67.5 -52t-76.5 -16q-90 0 -139 54t-49 138v316h60v-312q0 -71 36 -107.5t100 -36.5q45 0 77.5 17.5t58.5 50.5v388h60v-30q46 3 46 44q0 24 -12 45l50 17q16 -30 16 -62q0 -38 -26.5 -61zM284 594
q-21 14 -49 39q-12 11 -23 19t-16 8q-12 0 -12 -12v-64h-44v56q0 35 11.5 51.5t40.5 16.5q19 0 38.5 -13t46.5 -37q13 -12 24.5 -21t18.5 -9q12 0 12 12v64h44v-56q0 -35 -11.5 -51.5t-40.5 -16.5q-19 0 -40 14z" />
    <glyph glyph-name="uni1EF0" unicode="&#x1ef0;" horiz-adv-x="760" 
d="M742.5 659.5q-23.5 -22.5 -66.5 -26.5v-349q0 -88 -40 -155.5t-108 -104t-148 -36.5t-148 36.5t-108 104t-40 155.5v420h60v-420q0 -76 32.5 -130t86 -82t117.5 -28t118 26.5t86 80.5t32 133v420h60v-29q36 8 36 43q0 24 -12 45l50 17q16 -30 16 -62q0 -36 -23.5 -58.5z
M350 -82h60v-64h-60v64z" />
    <glyph glyph-name="uni1EF1" unicode="&#x1ef1;" horiz-adv-x="542" 
d="M529.5 449q-26.5 -23 -73.5 -25v-424h-28l-32 56q-33 -36 -67.5 -52t-76.5 -16q-90 0 -139 54t-49 138v316h60v-312q0 -71 36 -107.5t100 -36.5q45 0 77.5 17.5t58.5 50.5v388h60v-30q46 3 46 44q0 24 -12 45l50 17q16 -30 16 -62q0 -38 -26.5 -61zM234 -82h60v-64h-60
v64z" />
    <glyph glyph-name="Ygrave" unicode="&#x1ef2;" horiz-adv-x="632" 
d="M560 704h68l-280 -432v-272h-60v272l-284 432h68l245 -378zM222 912h64l84 -140v-4h-48z" />
    <glyph glyph-name="ygrave" unicode="&#x1ef3;" horiz-adv-x="480" 
d="M420 496h60l-312 -704h-60l108 238l-216 466h64l181 -401zM158 704h64l84 -140v-4h-48z" />
    <glyph glyph-name="uni1EF4" unicode="&#x1ef4;" horiz-adv-x="632" 
d="M560 704h68l-280 -432v-272h-60v272l-284 432h68l245 -378zM288 -82h60v-64h-60v64z" />
    <glyph glyph-name="uni1EF5" unicode="&#x1ef5;" horiz-adv-x="480" 
d="M420 496h60l-312 -704h-60l108 238l-216 466h64l181 -401zM331 -82h60v-64h-60v64z" />
    <glyph glyph-name="uni1EF6" unicode="&#x1ef6;" horiz-adv-x="632" 
d="M560 704h68l-280 -432v-272h-60v272l-284 432h68l245 -378zM384.5 820.5q-17.5 -18.5 -48.5 -20.5v-36h-40v68h16q19 0 30.5 9t11.5 27q0 17 -9.5 26.5t-26.5 9.5q-27 0 -47 -15l-17 34q24 21 69 21q36 0 57.5 -20t21.5 -56q0 -29 -17.5 -47.5z" />
    <glyph glyph-name="uni1EF7" unicode="&#x1ef7;" horiz-adv-x="480" 
d="M420 496h60l-312 -704h-60l108 238l-216 466h64l181 -401zM320.5 612.5q-17.5 -18.5 -48.5 -20.5v-36h-40v68h16q19 0 30.5 9t11.5 27q0 17 -9.5 26.5t-26.5 9.5q-27 0 -47 -15l-17 34q24 21 69 21q36 0 57.5 -20t21.5 -56q0 -29 -17.5 -47.5z" />
    <glyph glyph-name="uni1EF8" unicode="&#x1ef8;" horiz-adv-x="632" 
d="M560 704h68l-280 -432v-272h-60v272l-284 432h68l245 -378zM336 802q-21 14 -49 39q-12 11 -23 19t-16 8q-12 0 -12 -12v-64h-44v56q0 35 11.5 51.5t40.5 16.5q19 0 38.5 -13t46.5 -37q13 -12 24.5 -21t18.5 -9q12 0 12 12v64h44v-56q0 -35 -11.5 -51.5t-40.5 -16.5
q-19 0 -40 14z" />
    <glyph glyph-name="uni1EF9" unicode="&#x1ef9;" horiz-adv-x="480" 
d="M420 496h60l-312 -704h-60l108 238l-216 466h64l181 -401zM272 594q-21 14 -49 39q-12 11 -23 19t-16 8q-12 0 -12 -12v-64h-44v56q0 35 11.5 51.5t40.5 16.5q19 0 38.5 -13t46.5 -37q13 -12 24.5 -21t18.5 -9q12 0 12 12v64h44v-56q0 -35 -11.5 -51.5t-40.5 -16.5
q-19 0 -40 14z" />
    <glyph glyph-name="uni2011" unicode="&#x2011;" horiz-adv-x="356" 
d="M40 316h276v-52h-276v52z" />
    <glyph glyph-name="endash" unicode="&#x2013;" horiz-adv-x="532" 
d="M40 316h452v-52h-452v52z" />
    <glyph glyph-name="emdash" unicode="&#x2014;" horiz-adv-x="1052" 
d="M40 316h972v-52h-972v52z" />
    <glyph glyph-name="uni2015" unicode="&#x2015;" horiz-adv-x="1000" 
d="M40 316h920v-52h-920v52z" />
    <glyph glyph-name="quoteleft" unicode="&#x2018;" horiz-adv-x="216" 
d="M112 608h24v-64h-64v76q2 38 32 84h40q-32 -52 -32 -84v-12z" />
    <glyph glyph-name="quoteright" unicode="&#x2019;" horiz-adv-x="216" 
d="M144 704v-76q-2 -38 -32 -84h-40q32 52 32 84v12h-24v64h64z" />
    <glyph glyph-name="quotesinglbase" unicode="&#x201a;" horiz-adv-x="216" 
d="M144 64v-76q-2 -38 -32 -84h-40q32 52 32 84v12h-24v64h64z" />
    <glyph glyph-name="quotedblleft" unicode="&#x201c;" horiz-adv-x="324" 
d="M112 608h24v-64h-64v76q2 38 32 84h40q-32 -52 -32 -84v-12zM220 608h24v-64h-64v76q2 38 32 84h40q-32 -52 -32 -84v-12z" />
    <glyph glyph-name="quotedblright" unicode="&#x201d;" horiz-adv-x="324" 
d="M144 704v-76q-2 -38 -32 -84h-40q32 52 32 84v12h-24v64h64zM252 704v-76q-2 -38 -32 -84h-40q32 52 32 84v12h-24v64h64z" />
    <glyph glyph-name="quotedblbase" unicode="&#x201e;" horiz-adv-x="324" 
d="M144 64v-76q-2 -38 -32 -84h-40q32 52 32 84v12h-24v64h64zM252 64v-76q-2 -38 -32 -84h-40q32 52 32 84v12h-24v64h64z" />
    <glyph glyph-name="dagger" unicode="&#x2020;" horiz-adv-x="508" 
d="M424 372h56v-56h-56l-148 7l8 -475v-56h-60v56l8 475l-148 -7h-56v56h56l147 -7l-7 283v56h60v-56l-7 -283z" />
    <glyph glyph-name="daggerdbl" unicode="&#x2021;" horiz-adv-x="508" 
d="M424 368l-148 7v-254l148 7h56v-56h-56l-147 7l7 -231v-56h-60v56l7 231l-147 -7h-56v56h56l148 -7v254l-148 -7h-56v56h56l147 -7l-7 231v56h60v-56l-7 -231l147 7h56v-56h-56z" />
    <glyph glyph-name="bullet" unicode="&#x2022;" horiz-adv-x="292" 
d="M44 576l224 -216l-224 -216v64l156 152l-156 152v64z" />
    </font>
</defs>
</svg>
