<?xml version="1.0" standalone="no"?>
<!DOCTYPE svg PUBLIC "-//W3C//DTD SVG 1.1//EN" "http://www.w3.org/Graphics/SVG/1.1/DTD/svg11.dtd" >
<svg xmlns="http://www.w3.org/2000/svg" xmlns:xlink="http://www.w3.org/1999/xlink" version="1.1">
<metadata>
Created by FontForge 20201107 at Thu May 25 22:27:11 2023
 By 
Copyright (c) 2017-2023 SKODA AUTO a.s. All rights reserved.
</metadata>
<defs>
<font id="SKODANext-Light" horiz-adv-x="597" >
  <font-face 
    font-family="SKODA Next Light"
    font-weight="300"
    font-stretch="normal"
    units-per-em="1000"
    panose-1="2 11 3 4 2 6 3 2 2 4"
    ascent="756"
    descent="-244"
    x-height="496"
    cap-height="704"
    bbox="-534 -344 4432 1027"
    underline-thickness="50"
    underline-position="-125"
    unicode-range="U+000D-FEFF"
  />
<missing-glyph horiz-adv-x="449" 
d="M0 704h449v-704h-449v704zM384 63v578h-319v-578h319z" />
    <glyph glyph-name="ff" unicode="ff" horiz-adv-x="607" 
d="M607 438h-177v-438h-71v438h-205v-438h-71v438h-79v58h79v65q0 72 36 113.5t105 41.5q52 0 95 -27l-30 -52q-30 18 -64 18q-30 0 -50.5 -21t-20.5 -59v-79h205v65q0 72 36 113.5t105 41.5q51 0 95 -27l-31 -52q-28 18 -63 18q-30 0 -50.5 -21t-20.5 -59v-79h177v-58z" />
    <glyph glyph-name="fi" unicode="fi" horiz-adv-x="500" 
d="M331 438h-177v-438h-71v438h-79v58h79v65q0 72 36 113.5t105 41.5q52 0 95 -27l-30 -53q-28 19 -64 19q-30 0 -50.5 -21t-20.5 -59v-79h177v-58zM362 496h71v-496h-71v496zM361 692h72v-73h-72v73z" />
    <glyph glyph-name="fl" unicode="fl" horiz-adv-x="500" 
d="M331 438h-177v-438h-71v438h-79v58h79v65q0 72 36 113.5t105 41.5q52 0 95 -27l-30 -53q-28 19 -64 19q-30 0 -50.5 -21t-20.5 -59v-79h177v-58zM362 704h71v-704h-71v704z" />
    <glyph glyph-name="ffi" unicode="ffi" horiz-adv-x="775" 
d="M430 496h177v-58h-177v-438h-71v438h-205v-438h-71v438h-79v58h79v65q0 72 36 113.5t105 41.5q52 0 95 -27l-30 -52q-30 18 -64 18q-30 0 -50.5 -21t-20.5 -59v-79h205v65q0 72 36 113.5t105 41.5q52 0 95 -27l-30 -53q-29 19 -64 19q-30 0 -50.5 -21t-20.5 -59v-79z
M636 692h72v-73h-72v73zM637 0v496h71v-496h-71z" />
    <glyph glyph-name="ffl" unicode="ffl" horiz-adv-x="775" 
d="M430 496h177v-58h-177v-438h-71v438h-205v-438h-71v438h-79v58h79v65q0 72 36 113.5t105 41.5q52 0 95 -27l-30 -52q-30 18 -64 18q-30 0 -50.5 -21t-20.5 -59v-79h205v65q0 72 36 113.5t105 41.5q52 0 95 -27l-30 -53q-29 19 -64 19q-30 0 -50.5 -21t-20.5 -59v-79z
M637 704h71v-704h-71v704z" />
    <glyph glyph-name=".notdef" horiz-adv-x="449" 
d="M0 704h449v-704h-449v704zM384 63v578h-319v-578h319z" />
    <glyph glyph-name=".null" horiz-adv-x="0" 
 />
    <glyph glyph-name="nonmarkingreturn" horiz-adv-x="333" 
 />
    <glyph glyph-name="NULL" horiz-adv-x="0" 
 />
    <glyph glyph-name="NULL" horiz-adv-x="0" 
 />
    <glyph glyph-name="CR" unicode="&#xd;" horiz-adv-x="225" 
 />
    <glyph glyph-name="space" unicode=" " horiz-adv-x="225" 
 />
    <glyph glyph-name="exclam" unicode="!" horiz-adv-x="209" 
d="M67 641v63h76v-63l-14 -433h-49zM60 90h89v-90h-89v90z" />
    <glyph glyph-name="quotedbl" unicode="&#x22;" horiz-adv-x="320" 
d="M60 641v63h64v-63l-7 -232h-51zM197 641v63h64v-63l-7 -232h-51z" />
    <glyph glyph-name="numbersign" unicode="#" 
d="M573 437h-126l-14 -170h140v-56h-145l-19 -211h-59l19 211h-164l-19 -211h-60l19 211h-120v56h125l14 170h-139v56h144l19 211h60l-19 -211h164l19 211h59l-19 -211h121v-56zM374 267l14 170h-164l-14 -170h164z" />
    <glyph glyph-name="dollar" unicode="$" 
d="M496 49.5q-59 -54.5 -167 -60.5v-109h-54v109q-67 5 -125 31t-102 70l41 50q37 -35 85 -57.5t101 -27.5v273l-21 5q-81 20 -136.5 66t-55.5 127q0 48 25 90t73.5 68.5t114.5 30.5v109h54v-109q120 -9 209 -84l-45 -49q-33 28 -75.5 45.5t-88.5 22.5v-265l38 -9
q188 -42 188 -190q0 -82 -59 -136.5zM169.5 448q33.5 -30 105.5 -50v252q-68 -5 -103.5 -37.5t-35.5 -81.5q0 -53 33.5 -83zM442.5 92.5q38.5 34.5 38.5 89.5q0 52 -33 81t-119 52v-261q75 4 113.5 38.5z" />
    <glyph glyph-name="percent" unicode="%" horiz-adv-x="759" 
d="M66 377.5q-44 53.5 -43 142.5q0 90 44 143t116 53q73 0 116.5 -53t43.5 -143q0 -89 -44 -142.5t-116 -53.5q-73 0 -117 53.5zM580 704h63l-462 -704h-62zM258.5 415q27.5 39 27.5 105q0 67 -27 105.5t-76 38.5q-48 0 -76 -38.5t-28 -105.5q0 -66 28 -105t76 -39t75.5 39z
M460.5 41q-44.5 53 -44.5 143t44.5 143t115.5 53q73 0 116.5 -52.5t43.5 -143.5q0 -90 -43.5 -143t-116.5 -53q-71 0 -115.5 53zM651.5 79q27.5 39 27.5 105q0 67 -27 105.5t-76 38.5q-48 0 -75.5 -38.5t-27.5 -105.5t27.5 -105.5t75.5 -38.5t75.5 39z" />
    <glyph glyph-name="ampersand" unicode="&#x26;" horiz-adv-x="647" 
d="M559 0l-83 84q-83 -96 -213 -96q-63 0 -110.5 24.5t-73.5 66.5t-26 91q0 127 142 201q-48 52 -68.5 93t-20.5 87q0 44 21.5 82t61.5 60.5t94 22.5q50 0 90 -20.5t62.5 -57.5t22.5 -83q0 -57 -32.5 -102t-115.5 -105l157 -160q35 71 43 168h66q-10 -126 -61 -216l137 -140
h-93zM205.5 623.5q-28.5 -30.5 -28.5 -73.5q0 -36 19.5 -70t72.5 -91q65 45 91.5 83.5t26.5 77.5q0 43 -27.5 73.5t-75.5 30.5q-50 0 -78.5 -30.5zM431 130l-192 196q-114 -55 -114 -151q0 -31 16.5 -60t48.5 -47t76 -18q99 0 165 80z" />
    <glyph glyph-name="quotesingle" unicode="'" horiz-adv-x="183" 
d="M60 641v63h64v-63l-7 -232h-51z" />
    <glyph glyph-name="parenleft" unicode="(" horiz-adv-x="300" 
d="M204 780l49 -30q-136 -196 -136 -442q0 -238 137 -442l-50 -30q-153 200 -153 472q0 274 153 472z" />
    <glyph glyph-name="parenright" unicode=")" horiz-adv-x="300" 
d="M97 -164l-50 30q136 194 136 442q0 237 -136 442l49 30q154 -201 154 -472q0 -274 -153 -472z" />
    <glyph glyph-name="asterisk" unicode="*" horiz-adv-x="435" 
d="M405 551l-38 -14l-124 -29l84 -98l23 -32l-45 -33l-24 34l-64 111l-64 -111l-23 -34l-46 33l24 32l84 98l-125 29l-38 14l19 53l37 -13l116 -53l-12 125v41h55v-41l-10 -125l115 53l38 13z" />
    <glyph glyph-name="plus" unicode="+" 
d="M520 392v-60h-188v-192h-64v192h-191v60h191v191h64v-191h188z" />
    <glyph glyph-name="comma" unicode="," horiz-adv-x="213" 
d="M154 91v-100q-1 -64 -47 -132h-50q43 73 43 132v9h-37v91h91z" />
    <glyph glyph-name="hyphen" unicode="-" horiz-adv-x="365" 
d="M40 321h285v-62h-285v62z" />
    <glyph glyph-name="period" unicode="." horiz-adv-x="209" 
d="M60 90h89v-90h-89v90z" />
    <glyph glyph-name="slash" unicode="/" horiz-adv-x="369" 
d="M321 704h67l-344 -808h-67z" />
    <glyph glyph-name="zero" unicode="0" 
d="M108 83q-69 95 -69 269t69 269t192 95q121 0 189.5 -95t68.5 -269t-68.5 -269t-189.5 -95q-123 0 -192 95zM433.5 133q48.5 78 48.5 219t-48.5 219t-133.5 78q-87 0 -136 -77.5t-49 -219.5t49 -219.5t136 -77.5q85 0 133.5 78z" />
    <glyph glyph-name="one" unicode="1" 
d="M372 704h46v-704h-72v616l-244 -123l-33 50z" />
    <glyph glyph-name="two" unicode="2" 
d="M560 63v-63h-502v39l179 179q79 78 116.5 120t59.5 83t22 86q0 60 -40 101t-119 41q-46 0 -90 -19.5t-79 -55.5l-43 46q87 96 213 96q78 0 130 -29t76.5 -75.5t24.5 -98.5q0 -55 -22.5 -101.5t-61 -89.5t-118.5 -122l-21 -21l-116 -116h391z" />
    <glyph glyph-name="three" unicode="3" 
d="M507 303q36 -47 36 -110q0 -57 -30.5 -103.5t-89 -74t-139.5 -27.5q-142 0 -232 100l43 46q37 -42 83.5 -61t105.5 -19q87 0 135 39t48 104q0 68 -56.5 103t-142.5 35h-68v63h76q76 0 118.5 33.5t42.5 96.5q0 55 -40.5 88.5t-111.5 33.5q-115 0 -185 -75l-46 43
q41 47 101 72.5t129 25.5q68 0 120 -23.5t80.5 -65.5t28.5 -97q0 -53 -28.5 -93.5t-80.5 -64.5q67 -22 103 -69z" />
    <glyph glyph-name="four" unicode="4" 
d="M577 218v-62h-116v-156h-70v156h-372v41l387 507h55v-486h116zM113 218h278v364z" />
    <glyph glyph-name="five" unicode="5" 
d="M421 417q57 -30 88.5 -82.5t31.5 -118.5q0 -62 -30 -114t-87.5 -83t-135.5 -31q-73 0 -127 23.5t-95 73.5l44 52q34 -41 76.5 -62t99.5 -21q78 0 128.5 44.5t50.5 116.5q0 74 -50 120t-134 46q-95 0 -157 -66l-38 46l45 343h371v-66h-314l-33 -232q57 41 134 41
q75 0 132 -30z" />
    <glyph glyph-name="six" unicode="6" 
d="M441 421q53 -32 80.5 -85.5t27.5 -115.5q0 -56 -26.5 -109.5t-80.5 -88t-133 -34.5q-117 0 -186 87.5t-69 262.5q0 121 35 206t98.5 128.5t147.5 43.5q120 0 198 -89l-45 -45q-62 67 -155 67q-52 0 -98 -30.5t-76 -97t-30 -169.5q32 47 81 74t104 27q74 0 127 -32z
M395.5 75q36.5 23 56.5 61.5t20 82.5q0 76 -44.5 122t-119.5 46q-55 0 -104.5 -31.5t-72.5 -82.5q9 -107 55.5 -164t123.5 -57q49 0 85.5 23z" />
    <glyph glyph-name="seven" unicode="7" 
d="M60 704h495v-45l-338 -659h-77l327 638h-407v66z" />
    <glyph glyph-name="eight" unicode="8" 
d="M521 296.5q33 -44.5 33 -105.5q0 -59 -32 -105t-90 -72t-132 -26q-76 0 -134.5 26t-90.5 72t-32 105q0 60 33 104.5t92 68.5q-52 23 -80.5 64.5t-28.5 96.5q0 56 30.5 99.5t85.5 67.5t125 24q68 0 122.5 -24t85 -67t30.5 -99q0 -55 -28.5 -96.5t-80.5 -65.5
q59 -23 92 -67.5zM176 428.5q44 -35.5 124 -35.5q75 0 120 36t45 94q0 57 -45 92t-120 35q-77 0 -122.5 -35t-45.5 -92q0 -59 44 -94.5zM429 90q49 39 49 104q0 63 -48.5 101t-129.5 38q-84 0 -132.5 -37.5t-48.5 -101.5q0 -65 49 -104t132 -39q80 0 129 39z" />
    <glyph glyph-name="nine" unicode="9" 
d="M474 628.5q69 -87.5 69 -262.5q0 -121 -35 -206t-98.5 -128.5t-147.5 -43.5q-120 0 -198 89l45 45q62 -67 155 -67q52 0 98 30.5t76 97t30 169.5q-32 -47 -81 -74t-104 -27q-74 0 -127 32t-80.5 85.5t-27.5 115.5q0 56 26.5 109.5t80.5 88t133 34.5q117 0 186 -87.5z
M394 348.5q50 31.5 72 82.5q-9 107 -55.5 164t-123.5 57q-49 0 -85.5 -23t-56.5 -61.5t-20 -82.5q0 -76 44.5 -122t119.5 -46q55 0 105 31.5z" />
    <glyph glyph-name="colon" unicode=":" horiz-adv-x="206" 
d="M60 446h87v-87h-87v87zM60 87h87v-87h-87v87z" />
    <glyph glyph-name="semicolon" unicode=";" horiz-adv-x="216" 
d="M147 446v-87h-87v87h87zM156 87v-96q0 -63 -46 -132h-50q42 71 42 132v9h-33v87h87z" />
    <glyph glyph-name="less" unicode="&#x3c;" 
d="M496 576v-71l-320 -144l320 -146v-71l-412 193v50z" />
    <glyph glyph-name="equal" unicode="=" 
d="M81 312h435v-63h-435v63zM81 481h435v-63h-435v63z" />
    <glyph glyph-name="greater" unicode="&#x3e;" 
d="M101 576l412 -193v-50l-412 -189v71l320 144l-320 146v71z" />
    <glyph glyph-name="question" unicode="?" horiz-adv-x="497" 
d="M366.5 690q49.5 -26 73.5 -69t24 -94q0 -79 -51.5 -135t-147.5 -98l-1 -86h-69l1 120q101 45 148 88.5t47 109.5q0 54 -38 88.5t-111 34.5q-50 0 -97.5 -19t-83.5 -54l-42 44q90 96 225 96q73 0 122.5 -26zM185 0v90h90v-90h-90z" />
    <glyph glyph-name="at" unicode="@" horiz-adv-x="920" 
d="M653 489v-276q0 -36 16 -54.5t47 -18.5q51 0 80 50t29 131q0 95 -48 174.5t-131 125t-182 44.5q-102 0 -186 -47.5t-132.5 -131t-48.5 -186.5q0 -96 48.5 -180t133 -134t188.5 -50q60 0 116.5 18t103.5 52l36 -37q-57 -44 -120.5 -65t-138.5 -21q-116 0 -213.5 55
t-154 150.5t-56.5 211.5t56.5 211t154 150t213.5 55q115 0 210.5 -54.5t150.5 -146t55 -195.5q0 -62 -19.5 -116t-57 -87t-90.5 -33q-49 0 -78.5 20.5t-40.5 55.5q-23 -30 -58.5 -47.5t-80.5 -17.5q-58 0 -104 28t-72 75.5t-26 101.5t26 101t72 75t104 28q40 0 75 -16
t59 -47l31 48h33zM538.5 185.5q35.5 26.5 48.5 66.5v95q-13 41 -48.5 67.5t-81.5 26.5q-39 0 -69.5 -19.5t-47.5 -52t-17 -69.5q0 -38 17 -70t47.5 -51.5t69.5 -19.5q46 0 81.5 26.5z" />
    <glyph glyph-name="A" unicode="A" horiz-adv-x="693" 
d="M606 0l-80 185h-360l-80 -185h-76l313 713h47l313 -713h-77zM195 251h303l-152 351z" />
    <glyph glyph-name="B" unicode="B" horiz-adv-x="636" 
d="M560.5 309q34.5 -48 34.5 -107q0 -61 -28.5 -107t-77.5 -70.5t-108 -24.5h-288v704h241q59 0 108 -21t78.5 -63t29.5 -102q0 -46 -22.5 -82t-61.5 -60q60 -19 94.5 -67zM165 638v-244h174q62 0 98.5 34.5t36.5 88.5q0 53 -36.5 87t-104.5 34h-168zM481.5 105
q37.5 39 37.5 95q0 55 -38.5 91.5t-103.5 36.5h-212v-262h213q66 0 103.5 39z" />
    <glyph glyph-name="C" unicode="C" horiz-adv-x="667" 
d="M213 36.5q-81 48.5 -126.5 132t-45.5 183.5t45.5 183.5t126.5 132t182 48.5q144 0 240 -99l-43 -49q-37 39 -88 60t-109 21q-80 0 -143.5 -38.5t-99 -106t-35.5 -152.5t35.5 -152.5t99 -106t143.5 -38.5q58 0 109.5 22t87.5 61l43 -49q-45 -49 -106 -75t-134 -26
q-101 0 -182 48.5z" />
    <glyph glyph-name="D" unicode="D" horiz-adv-x="729" 
d="M507 660q84 -44 132.5 -124t48.5 -184q0 -103 -49 -183t-134 -124.5t-189 -44.5h-223v704h226q104 0 188 -44zM469.5 102q67.5 36 105 101t37.5 149q0 85 -37.5 150t-105 100.5t-153.5 35.5h-151v-572h151q86 0 153.5 36z" />
    <glyph glyph-name="E" unicode="E" 
d="M165 66h380v-66h-452v704h438v-66h-366v-240h326v-66h-326v-266z" />
    <glyph glyph-name="F" unicode="F" horiz-adv-x="563" 
d="M536 638h-371v-253h318v-65h-318v-320h-72v704h443v-66z" />
    <glyph glyph-name="G" unicode="G" horiz-adv-x="759" 
d="M684 0h-40l-28 50q-46 -31 -98.5 -46.5t-116.5 -15.5q-105 0 -187 48t-127.5 131t-45.5 185q0 103 47 186t130 130.5t187 47.5q165 0 279 -109l-46 -49q-43 42 -106 66.5t-133 24.5q-85 0 -149.5 -39.5t-98.5 -107t-34 -149.5q0 -85 37 -153.5t102.5 -107t147.5 -38.5
q63 0 118 16t91 48v191h-232v66h303v-375z" />
    <glyph glyph-name="H" unicode="H" horiz-adv-x="749" 
d="M584 704h72v-704h-72v329h-419v-329h-72v704h72v-308h419v308z" />
    <glyph glyph-name="I" unicode="I" horiz-adv-x="257" 
d="M93 704h72v-704h-72v704z" />
    <glyph glyph-name="J" unicode="J" horiz-adv-x="471" 
d="M87 4.5q-44 16.5 -76 48.5l44 50q23 -24 56 -37.5t72 -13.5q64 0 100 38t36 102v512h72v-509q0 -93 -56 -150t-154 -57q-50 0 -94 16.5z" />
    <glyph glyph-name="K" unicode="K" horiz-adv-x="659" 
d="M663 0h-87l-273 336l-138 -149v-187h-72v704h72v-429l390 429h88l-295 -319z" />
    <glyph glyph-name="L" unicode="L" horiz-adv-x="541" 
d="M165 66h362v-66h-434v704h72v-638z" />
    <glyph glyph-name="M" unicode="M" horiz-adv-x="901" 
d="M808 704v-704h-71v521l-266 -521h-44l-263 515v-515h-71v704h54l304 -601l303 601h54z" />
    <glyph glyph-name="N" unicode="N" horiz-adv-x="744" 
d="M580 704h71v-704h-43l-444 555v-555h-71v704h41l446 -560v560z" />
    <glyph glyph-name="O" unicode="O" horiz-adv-x="804" 
d="M218.5 36q-82.5 48 -130 131t-47.5 185q0 103 47 186t129.5 130.5t184.5 47.5t184.5 -47.5t129.5 -131t47 -185.5t-47 -185t-129.5 -131t-184.5 -48q-101 0 -183.5 48zM548 93.5q65 38.5 102 106t37 152.5q0 86 -37 153.5t-102 105.5t-146 38q-80 0 -145 -38t-102.5 -106
t-37.5 -153t37 -153t101.5 -106t146.5 -38q81 0 146 38.5z" />
    <glyph glyph-name="P" unicode="P" horiz-adv-x="598" 
d="M443 678.5q52 -25.5 83 -74t31 -112.5q0 -65 -31 -113.5t-82.5 -74t-113.5 -25.5h-165v-279h-72v704h237q61 0 113 -25.5zM410.5 365q34.5 20 52.5 53.5t18 73.5q0 39 -18 72.5t-52.5 53.5t-80.5 20h-165v-293h165q46 0 80.5 20z" />
    <glyph glyph-name="Q" unicode="Q" horiz-adv-x="796" 
d="M698 0l-66 74q-47 -41 -107 -63.5t-127 -22.5q-100 0 -181.5 48.5t-128.5 132t-47 183.5q0 101 46.5 184t128.5 131.5t182 48.5q101 0 182.5 -48t128 -131.5t46.5 -184.5q0 -66 -21 -125.5t-59 -107.5l109 -119h-86zM153 200q36 -67 100 -104.5t145 -37.5q54 0 102 17.5
t84 50.5l-127 141h82l86 -95q54 76 54 180q0 85 -36 152t-100 104.5t-145 37.5t-145 -37.5t-100 -104.5t-36 -152t36 -152z" />
    <glyph glyph-name="R" unicode="R" horiz-adv-x="619" 
d="M521 0l-225 285h-131v-285h-72v704h215q68 0 120 -27t80.5 -74.5t28.5 -107.5q0 -77 -44.5 -129t-120.5 -69l236 -297h-87zM165 351h140q72 0 115.5 38.5t43.5 105.5q0 64 -43.5 103.5t-112.5 39.5h-143v-287z" />
    <glyph glyph-name="S" unicode="S" horiz-adv-x="590" 
d="M158 14.5q-66 26.5 -115 75.5l44 52q42 -41 97 -64t117 -23q85 0 127.5 34t42.5 93q0 54 -36.5 84t-127.5 51l-56 14q-81 18 -137.5 65t-56.5 129q0 52 27.5 95.5t81 69.5t126.5 26q139 0 240 -85l-47 -51q-38 32 -88.5 50.5t-101.5 18.5q-79 0 -120.5 -33t-41.5 -87
q0 -57 41 -87.5t129 -50.5l57 -14q92 -21 139.5 -69t47.5 -122q0 -57 -28.5 -102t-84 -70.5t-134.5 -25.5q-76 0 -142 26.5z" />
    <glyph glyph-name="T" unicode="T" horiz-adv-x="615" 
d="M600 704v-66h-257v-638h-72v638h-256v66h585z" />
    <glyph glyph-name="U" unicode="U" horiz-adv-x="749" 
d="M225.5 24.5q-67.5 36.5 -106.5 103.5t-39 154v422h72v-422q0 -71 30 -122t81 -78t112 -27q62 0 112.5 26t80 77t29.5 124v422h72v-422q0 -87 -38.5 -154t-105.5 -103.5t-150 -36.5q-82 0 -149.5 36.5z" />
    <glyph glyph-name="V" unicode="V" horiz-adv-x="664" 
d="M581 704h76l-301 -704h-48l-300 704h77l248 -589z" />
    <glyph glyph-name="W" unicode="W" horiz-adv-x="1058" 
d="M973 704h76l-267 -704h-47l-208 566l-204 -566h-47l-267 704h77l215 -580l202 580h51l206 -579z" />
    <glyph glyph-name="X" unicode="X" horiz-adv-x="601" 
d="M608 0h-85l-222 303l-222 -303h-82l265 357l-254 347h85l211 -288l208 288h82l-250 -343z" />
    <glyph glyph-name="Y" unicode="Y" horiz-adv-x="633" 
d="M550 704h81l-276 -433v-271h-72v271l-281 433h81l236 -365z" />
    <glyph glyph-name="Z" unicode="Z" horiz-adv-x="603" 
d="M129 63h440v-63h-535v40l423 601h-409v63h506v-44z" />
    <glyph glyph-name="bracketleft" unicode="[" horiz-adv-x="395" 
d="M302 707h-143v-802h143v-57h-209v916h209v-57z" />
    <glyph glyph-name="backslash" unicode="\" horiz-adv-x="369" 
d="M325 -104l-344 808h67l344 -808h-67z" />
    <glyph glyph-name="bracketright" unicode="]" horiz-adv-x="395" 
d="M302 764v-916h-209v57h143v802h-143v57h209z" />
    <glyph glyph-name="asciicircum" unicode="^" 
d="M531 336h-74l-162 283l-155 -283h-74l211 368h40z" />
    <glyph glyph-name="underscore" unicode="_" horiz-adv-x="471" 
d="M35 -12h401v-64h-401v64z" />
    <glyph glyph-name="grave" unicode="`" horiz-adv-x="600" 
d="M183 704h76l91 -140v-4h-58z" />
    <glyph glyph-name="a" unicode="a" horiz-adv-x="472" 
d="M364 459q45 -49 45 -128v-331h-42l-28 50q-26 -28 -68 -45t-86 -17q-71 0 -114 37.5t-43 101.5q0 69 59.5 109.5t169.5 59.5l81 14v17q0 54 -28.5 86.5t-90.5 32.5q-78 0 -138 -51l-37 41q31 34 80 53t97 19q98 0 143 -49zM274 65q37 15 64 41v149l-63 -11
q-81 -15 -128.5 -40.5t-47.5 -75.5q0 -35 24 -56.5t71 -21.5q43 0 80 15z" />
    <glyph glyph-name="b" unicode="b" horiz-adv-x="548" 
d="M404.5 473.5q53.5 -34.5 83 -94t29.5 -131.5t-30 -131.5t-84.5 -94t-125.5 -34.5q-91 0 -143 54l-24 -42h-43v704h71v-262q24 30 62.5 48t82.5 18q68 0 121.5 -34.5zM359.5 75.5q39.5 24.5 62.5 69t23 103.5q0 56 -21.5 101t-60.5 70.5t-91 25.5q-42 0 -74 -15.5
t-60 -46.5v-275q54 -57 135 -57q47 0 86.5 24.5z" />
    <glyph glyph-name="c" unicode="c" horiz-adv-x="469" 
d="M150.5 23q-55.5 32 -87.5 90.5t-32 134.5q0 77 31 136t85.5 91.5t122.5 32.5q58 0 101.5 -19t80.5 -56l-41 -51q-53 60 -141 60q-75 0 -121 -53t-46 -141q0 -58 23 -101t62.5 -66.5t85.5 -23.5q39 0 74.5 13t62.5 39l37 -47q-35 -35 -80 -53t-94 -18q-68 0 -123.5 32z
" />
    <glyph glyph-name="d" unicode="d" horiz-adv-x="548" 
d="M481 704v-704h-43l-27 48q-25 -27 -64.5 -43.5t-81.5 -16.5q-66 0 -119.5 34.5t-84 94t-30.5 131.5t30 131.5t85 94t125 34.5q86 0 139 -48v244h71zM349.5 66q32.5 15 60.5 45v279q-53 55 -135 55q-47 0 -86 -24.5t-62.5 -69t-23.5 -103.5q0 -56 21.5 -101t60.5 -70.5
t90 -25.5q42 0 74.5 15z" />
    <glyph glyph-name="e" unicode="e" horiz-adv-x="512" 
d="M103 236q0 -54 22 -96.5t61 -66t88 -23.5q95 0 151 73l46 -39q-30 -43 -81.5 -69.5t-117.5 -26.5q-74 0 -128.5 34.5t-83.5 93.5t-29 132q0 71 28 130.5t81 94.5t124 35q69 0 118 -31.5t73.5 -85t24.5 -118.5v-32h-377v-5zM158.5 405q-41.5 -41 -52.5 -110h305
q-6 71 -46.5 111t-102.5 40t-103.5 -41z" />
    <glyph glyph-name="f" unicode="f" horiz-adv-x="331" 
d="M331 438h-177v-438h-71v438h-79v58h79v65q0 72 36 113.5t105 41.5q52 0 95 -27l-30 -52q-30 18 -64 18q-30 0 -50.5 -21t-20.5 -59v-79h177v-58z" />
    <glyph glyph-name="g" unicode="g" horiz-adv-x="548" 
d="M481 496v-504q0 -59 -27 -106.5t-78 -74.5t-120 -27q-54 0 -102 17.5t-79 47.5l38 50q24 -23 61 -36.5t78 -13.5q73 0 115.5 36t42.5 107v55q-25 -29 -63 -44t-82 -15q-66 0 -119.5 35.5t-84 95t-30.5 129.5t30.5 129.5t85 95t124.5 35.5q87 0 146 -53l22 41h42z
M349.5 66.5q32.5 15.5 60.5 46.5v276q-54 56 -135 56q-46 0 -85.5 -25t-63 -70t-23.5 -102q0 -54 21.5 -99t60.5 -71.5t90 -26.5q42 0 74.5 15.5z" />
    <glyph glyph-name="h" unicode="h" horiz-adv-x="529" 
d="M418 453.5q49 -54.5 49 -139.5v-314h-71v308q0 67 -34.5 102t-95.5 35q-41 0 -70.5 -16t-57.5 -48v-381h-71v704h71v-263q29 34 63 50.5t76 16.5q92 0 141 -54.5z" />
    <glyph glyph-name="i" unicode="i" horiz-adv-x="205" 
d="M67 496h71v-496h-71v496zM66 692h72v-73h-72v73z" />
    <glyph glyph-name="j" unicode="j" horiz-adv-x="205" 
d="M66 692h72v-73h-72v73zM19 -154q21 0 34.5 14.5t13.5 41.5v594h71v-593q0 -54 -32 -86.5t-86 -32.5q-40 0 -73 21l31 54q20 -13 41 -13z" />
    <glyph glyph-name="k" unicode="k" horiz-adv-x="497" 
d="M503 0h-84l-184 240l-97 -101v-139h-71v704h71v-483l258 275h85l-201 -209z" />
    <glyph glyph-name="l" unicode="l" horiz-adv-x="205" 
d="M67 704h71v-704h-71v704z" />
    <glyph glyph-name="m" unicode="m" horiz-adv-x="863" 
d="M749.5 454q50.5 -54 50.5 -140v-314h-71v308q0 69 -35.5 103t-96.5 34q-42 0 -78.5 -20t-58.5 -51q7 -27 7 -60v-314h-71v308q0 68 -35 102.5t-96 34.5q-75 0 -127 -64v-381h-71v496h40l31 -55q29 34 63 50.5t76 16.5q59 0 100 -22.5t64 -62.5q63 85 167 85
q91 0 141.5 -54z" />
    <glyph glyph-name="n" unicode="n" horiz-adv-x="529" 
d="M418 453.5q49 -54.5 49 -139.5v-314h-71v308q0 68 -35 102.5t-96 34.5q-75 0 -127 -64v-381h-71v496h40l31 -55q29 34 63 50.5t76 16.5q92 0 141 -54.5z" />
    <glyph glyph-name="o" unicode="o" horiz-adv-x="556" 
d="M151.5 22q-56.5 34 -88.5 93.5t-32 132.5t32 132.5t88.5 93.5t126.5 34q71 0 127 -34t88 -93.5t32 -132.5t-32 -132.5t-88 -93.5t-127 -34q-70 0 -126.5 34zM368 77q40 26 62.5 71t22.5 100t-22.5 100t-62.5 71t-90 26t-90 -26t-62.5 -71t-22.5 -100t22.5 -100t62.5 -71
t90 -26t90 26z" />
    <glyph glyph-name="p" unicode="p" horiz-adv-x="548" 
d="M402.5 473.5q53.5 -34.5 84 -94t30.5 -131.5t-30 -131.5t-85 -94t-125 -34.5q-86 0 -139 48v-244h-71v704h43l27 -48q25 27 64.5 43.5t81.5 16.5q66 0 119.5 -34.5zM359 75.5q39 24.5 62.5 69t23.5 103.5q0 56 -21.5 101t-60.5 70.5t-90 25.5q-42 0 -74.5 -15t-60.5 -45
v-279q53 -55 135 -55q47 0 86 24.5z" />
    <glyph glyph-name="q" unicode="q" horiz-adv-x="548" 
d="M481 496v-704h-71v262q-24 -30 -62.5 -48t-82.5 -18q-68 0 -121.5 34.5t-83 94t-29.5 131.5t30 131.5t84.5 94t125.5 34.5q91 0 143 -54l24 42h43zM350 66.5q32 15.5 60 46.5v275q-54 57 -135 57q-47 0 -86.5 -24.5t-62.5 -69t-23 -103.5q0 -56 21.5 -101t60.5 -70.5
t91 -25.5q42 0 74 15.5z" />
    <glyph glyph-name="r" unicode="r" horiz-adv-x="352" 
d="M305.5 501.5q22.5 -6.5 37.5 -17.5l-28 -51q-20 13 -60 13q-80 0 -117 -59v-387h-71v496h43l25 -45q18 27 50 42t71 15q27 0 49.5 -6.5z" />
    <glyph glyph-name="s" unicode="s" horiz-adv-x="441" 
d="M116 7.5q-50 19.5 -85 59.5l42 45q31 -31 68 -47t85 -16t79 20t31 57q0 33 -23 54.5t-81 36.5l-47 12q-142 36 -142 140q0 63 49 101t127 38q53 0 101 -18t79 -49l-38 -45q-57 51 -144 51q-50 0 -76 -20t-26 -53q0 -35 25.5 -54t85.5 -35l46 -12q71 -18 105 -55.5
t34 -87.5q0 -64 -51.5 -103t-134.5 -39q-59 0 -109 19.5z" />
    <glyph glyph-name="t" unicode="t" horiz-adv-x="372" 
d="M363 33q-52 -45 -120 -45q-67 0 -110 40.5t-43 107.5v302h-84v58h89v121l62 39h4v-160h197v-58h-197v-294q0 -40 23 -65.5t63 -25.5q45 0 80 29z" />
    <glyph glyph-name="u" unicode="u" horiz-adv-x="529" 
d="M463 496v-496h-40l-31 55q-30 -34 -64 -50.5t-76 -16.5q-91 0 -140 54.5t-49 139.5v314h71v-308q0 -68 35 -102.5t95 -34.5q76 0 128 64v381h71z" />
    <glyph glyph-name="v" unicode="v" horiz-adv-x="481" 
d="M409 496h72l-220 -499h-41l-220 499h72l169 -393z" />
    <glyph glyph-name="w" unicode="w" horiz-adv-x="811" 
d="M739 496h72l-198 -499h-46l-160 380l-164 -380h-45l-198 499h75l148 -387l161 390h44l163 -392z" />
    <glyph glyph-name="x" unicode="x" horiz-adv-x="437" 
d="M445 0h-81l-145 196l-146 -196h-81l188 248l-185 248h81l144 -193l140 193h81l-182 -246z" />
    <glyph glyph-name="y" unicode="y" horiz-adv-x="488" 
d="M416 496h72l-312 -704h-69l107 237l-214 467h75l173 -390z" />
    <glyph glyph-name="z" unicode="z" horiz-adv-x="412" 
d="M111 58h283v-58h-376v36l277 402h-267v58h365v-36z" />
    <glyph glyph-name="braceleft" unicode="{" horiz-adv-x="363" 
d="M112 306q44 0 65.5 -30.5t21.5 -96.5v-208q0 -35 15.5 -50.5t50.5 -15.5h71v-57h-71q-128 0 -128 118v224q0 45 -17.5 66t-53.5 21h-25v58h25q36 0 53.5 20t17.5 67v224q0 57 29.5 87.5t98.5 30.5h71v-57h-71q-35 0 -50.5 -15.5t-15.5 -50.5v-208q0 -127 -87 -127z" />
    <glyph glyph-name="bar" unicode="|" horiz-adv-x="251" 
d="M93 764h66v-912h-66v912z" />
    <glyph glyph-name="braceright" unicode="}" horiz-adv-x="363" 
d="M321 339v-58h-25q-36 0 -53.5 -20t-17.5 -67v-224q0 -57 -29.5 -87.5t-97.5 -30.5h-71v57h70q35 0 51 15.5t16 50.5v208q0 127 86 127q-43 0 -64.5 30.5t-21.5 96.5v208q0 35 -16 50.5t-51 15.5h-70v57h71q127 0 127 -118v-224q0 -45 17.5 -66t53.5 -21h25z" />
    <glyph glyph-name="asciitilde" unicode="~" 
d="M393 309.5q-31 6.5 -68 15.5l-67 18q-79 20 -98 20q-14 0 -22.5 -8t-8.5 -23v-16h-62v24q0 40 23.5 63t62.5 23q18 0 44 -5.5t45.5 -10.5t29.5 -7l67 -17q37 -9 61.5 -14.5t36.5 -5.5q31 0 31 31v16h62v-24q0 -40 -23.5 -63t-62.5 -23q-20 0 -51 6.5z" />
    <glyph glyph-name="uni00A0" unicode="&#xa0;" horiz-adv-x="225" 
 />
    <glyph glyph-name="exclamdown" unicode="&#xa1;" horiz-adv-x="209" 
d="M60 406v90h89v-90h-89zM143 -208h-76v63l13 433h49l14 -433v-63z" />
    <glyph glyph-name="cent" unicode="&#xa2;" 
d="M411.5 176.5q31.5 14.5 55.5 38.5l36 -41q-29 -36 -69.5 -56.5t-88.5 -22.5v-95h-55v99q-57 10 -102 44t-71 88t-26 121q0 68 25.5 123t70.5 90t103 44v95h55v-92q103 -6 162 -82l-40 -46q-43 57 -122 63v-387q35 2 66.5 16.5zM198 230.5q36 -49.5 92 -64.5v377
q-58 -14 -93 -64.5t-35 -126.5q0 -72 36 -121.5z" />
    <glyph glyph-name="sterling" unicode="&#xa3;" 
d="M523 63v-63h-469v41q57 47 86 98.5t29 113.5v11h-97v57h88q-5 19 -19 55q-16 41 -24 74.5t-8 76.5q0 52 25.5 95.5t73 68.5t111.5 25q124 0 203 -83l-43 -46q-32 31 -73 46.5t-86 15.5q-66 0 -102.5 -33.5t-36.5 -93.5q0 -30 7 -57.5t20 -63.5q19 -53 24 -80h219v-57
h-213q0 -61 -20.5 -113t-61.5 -88h367z" />
    <glyph glyph-name="currency" unicode="&#xa4;" 
d="M465 231l74 -75l-43 -43l-76 76q-52 -35 -121 -35t-122 35l-76 -76l-43 43l75 75q-40 51 -40 120t40 122l-75 78l43 43l77 -79q52 35 121 35q68 0 119 -34l78 78l43 -43l-76 -76q41 -54 41 -124q0 -69 -39 -120zM177 281.5q18 -31.5 50 -50t72 -18.5q60 0 99.5 40
t39.5 98t-39.5 98t-99.5 40q-61 0 -100.5 -39.5t-39.5 -98.5q0 -38 18 -69.5z" />
    <glyph glyph-name="yen" unicode="&#xa5;" 
d="M591 704l-221 -356h150v-57h-183v-66h183v-57h-183v-168h-72v168h-186v57h186v66h-186v57h154l-227 356h81l215 -344l208 344h81z" />
    <glyph glyph-name="brokenbar" unicode="&#xa6;" horiz-adv-x="251" 
d="M93 764h66v-344h-66v344zM93 205h66v-353h-66v353z" />
    <glyph glyph-name="section" unicode="&#xa7;" 
d="M504 -45q0 -48 -25.5 -87t-73.5 -61.5t-112 -22.5q-131 0 -213 78l42 50q37 -32 77.5 -46.5t92.5 -14.5q68 0 103.5 26t35.5 69q0 42 -28 68.5t-106 48.5l-81 23q-159 44 -159 167q0 52 32.5 92.5t84.5 62.5q-89 50 -89 137q0 48 25.5 87t73.5 61.5t112 22.5
q132 0 213 -77l-42 -51q-38 32 -78.5 46.5t-91.5 14.5q-68 0 -103.5 -26t-35.5 -69q0 -42 27.5 -68.5t105.5 -48.5l82 -23q159 -44 159 -167q0 -53 -32 -94t-83 -63q87 -50 87 -135zM332 125l21 -6q53 20 79.5 52t26.5 67q0 45 -30 71t-90 43l-82 23l-21 6q-53 -20 -79 -52
t-26 -67q0 -45 29.5 -71t89.5 -43z" />
    <glyph glyph-name="dieresis" unicode="&#xa8;" horiz-adv-x="600" 
d="M135 691h69v-76h-69v76zM305 691h69v-76h-69v76z" />
    <glyph glyph-name="copyright" unicode="&#xa9;" horiz-adv-x="817" 
d="M218 37q-84 49 -130.5 132t-46.5 183t46.5 183t130.5 132t191 49t191 -49.5t130.5 -133t46.5 -181.5q0 -100 -46.5 -183t-130.5 -132t-191 -49t-191 49zM567 76q72 40 114 112t42 164t-42 164t-114 112t-158 40t-158.5 -40t-114.5 -112t-42 -164t42 -164t114.5 -112
t158.5 -40t158 40zM311 182q-45 26 -70 71t-25 99t25.5 99t70.5 71t103 26q44 0 84.5 -17t72.5 -50l-41 -41q-46 49 -115 49q-58 0 -97 -38.5t-39 -98.5t38.5 -98.5t97.5 -38.5q72 0 117 50l39 -40q-31 -34 -71.5 -51.5t-85.5 -17.5q-59 0 -104 26z" />
    <glyph glyph-name="ordfeminine" unicode="&#xaa;" horiz-adv-x="372" 
d="M291.5 680q36.5 -36 36.5 -97v-247h-35l-21 37q-22 -23 -54 -36t-68 -13q-58 0 -90 29t-32 76q0 54 42.5 83t130.5 44l70 12v11q0 39 -23 62.5t-69 23.5q-35 0 -61.5 -9.5t-49.5 -29.5l-31 35q24 26 62 40.5t81 14.5q75 0 111.5 -36zM271 419v104l-52 -9
q-75 -13 -104.5 -31.5t-29.5 -51.5q0 -25 17 -40.5t54 -15.5q67 0 115 44z" />
    <glyph glyph-name="guillemotleft" unicode="&#xab;" horiz-adv-x="467" 
d="M241 455l-145 -167l144 -165l-37 -40l-186 206l186 205zM413 444l-142 -156l142 -153l-38 -39l-180 193l181 193z" />
    <glyph glyph-name="logicalnot" unicode="&#xac;" 
d="M451 331h-372v61h436v-204h-64v143z" />
    <glyph glyph-name="uni00AD" unicode="&#xad;" horiz-adv-x="365" 
d="M40 321h285v-62h-285v62z" />
    <glyph glyph-name="registered" unicode="&#xae;" horiz-adv-x="467" 
d="M336.5 690q45.5 -26 71 -71t25.5 -99t-25 -99t-70.5 -71t-104.5 -26q-58 0 -103.5 26t-70.5 71t-25 99t25.5 99t70.5 71t103 26t103.5 -26zM316 375q38 21 60.5 59t22.5 86t-22 85t-60 57.5t-84 20.5t-84 -20.5t-60 -57.5t-22 -85t22.5 -86t60.5 -59t83 -21t83 21z
M303 524.5q-11 -15.5 -30 -22.5l58 -82h-47l-47 71h-36v-71h-41v207h75q33 0 56 -17t23 -47q0 -23 -11 -38.5zM201 527h32q16 0 27 8t11 24t-10.5 23.5t-27.5 7.5h-32v-63z" />
    <glyph glyph-name="macron" unicode="&#xaf;" horiz-adv-x="600" 
d="M163 674h286v-56h-286v56z" />
    <glyph glyph-name="degree" unicode="&#xb0;" horiz-adv-x="443" 
d="M124.5 377.5q-42.5 24.5 -66.5 66t-24 90.5t23.5 90.5t66.5 66.5t97 25t97 -24.5t67 -66t24 -91.5q0 -49 -23.5 -90.5t-66.5 -66t-98 -24.5q-54 0 -96.5 24.5zM308 447.5q36 35.5 36 86.5q0 34 -17 62t-45.5 44t-60.5 16q-50 0 -85.5 -35t-35.5 -87q0 -35 16.5 -62.5
t44.5 -43.5t60 -16q51 0 87 35.5z" />
    <glyph glyph-name="plusminus" unicode="&#xb1;" 
d="M332 448h188v-60h-188v-192h-64v192h-191v60h191v191h64v-191zM79 80v60h440v-60h-440z" />
    <glyph glyph-name="twosuperior" unicode="&#xb2;" horiz-adv-x="366" 
d="M332 548v-52h-292v28l145 132q35 32 49 55t14 47q0 30 -19.5 48.5t-60.5 18.5q-54 0 -99 -37l-30 36q58 52 131 52q66 0 100.5 -33.5t34.5 -79.5q0 -37 -18.5 -67.5t-61.5 -68.5l-91 -79h198z" />
    <glyph glyph-name="threesuperior" unicode="&#xb3;" horiz-adv-x="366" 
d="M307.5 653q17.5 -24 17.5 -56q0 -49 -38 -81t-107 -32q-85 0 -140 55l29 36q25 -23 51.5 -31.5t58.5 -8.5q44 0 66.5 18t22.5 45q0 31 -27 47t-69 16h-51v45h50q39 0 62 16t23 44q0 25 -19.5 42t-59.5 17q-61 0 -102 -39l-29 34q28 29 62.5 42.5t71.5 13.5q64 0 98.5 -31
t34.5 -76q0 -24 -14 -45.5t-42 -35.5q33 -11 50.5 -35z" />
    <glyph glyph-name="acute" unicode="&#xb4;" horiz-adv-x="600" 
d="M232 564l90 140h76l-109 -144h-57v4z" />
    <glyph glyph-name="mu" unicode="&#xb5;" horiz-adv-x="598" 
d="M595 18q-38 -30 -83 -30q-37 0 -63 17.5t-35 52.5q-22 -33 -59.5 -51.5t-86.5 -18.5q-41 0 -72 13.5t-49 37.5v-247h-67v704h71v-296q0 -77 32.5 -113t90.5 -36q53 0 82 17.5t53 47.5v380h71v-395q0 -25 12.5 -38t30.5 -13q23 0 45 15z" />
    <glyph glyph-name="paragraph" unicode="&#xb6;" horiz-adv-x="634" 
d="M374 0h-67v288h-39q-63 0 -115 25t-82.5 72.5t-30.5 110.5q0 64 30.5 111.5t82 72t112.5 24.5h109v-704zM474 704h67v-704h-67v704z" />
    <glyph glyph-name="periodcentered" unicode="&#xb7;" horiz-adv-x="209" 
d="M60 409h89v-90h-89v90z" />
    <glyph glyph-name="cedilla" unicode="&#xb8;" horiz-adv-x="600" 
d="M294.5 -92.5q18.5 -19.5 18.5 -48.5q0 -34 -24 -54.5t-59 -20.5q-22 0 -41 8.5t-28 22.5l22 30q20 -18 44 -18q18 0 28.5 9.5t10.5 25.5t-14 26t-37 10h-18l38 105h33l-24 -70q32 -6 50.5 -25.5z" />
    <glyph glyph-name="onesuperior" unicode="&#xb9;" horiz-adv-x="366" 
d="M215 864h33v-368h-53v303l-134 -70l-23 40z" />
    <glyph glyph-name="ordmasculine" unicode="&#xba;" horiz-adv-x="431" 
d="M117.5 349.5q-43.5 25.5 -68.5 70.5t-25 100t25 100t68.5 70.5t97.5 25.5q55 0 98.5 -25.5t68.5 -70.5t25 -100t-25 -100t-68.5 -70.5t-98.5 -25.5q-54 0 -97.5 25.5zM310.5 417.5q38.5 41.5 38.5 102.5t-38.5 102.5t-95.5 41.5t-95 -41.5t-38 -102.5t38 -102.5t95 -41.5
t95.5 41.5z" />
    <glyph glyph-name="guillemotright" unicode="&#xbb;" horiz-adv-x="467" 
d="M265 494l186 -205l-186 -206l-38 40l145 165l-146 167zM92 482l180 -193l-180 -193l-38 39l142 153l-141 156z" />
    <glyph glyph-name="onequarter" unicode="&#xbc;" horiz-adv-x="799" 
d="M227 704h33v-368h-53v303l-134 -70l-23 40zM599 704h59l-459 -704h-59zM735 131v-46h-64v-81h-53v81h-205v28l219 259h39v-241h64zM486 131h132v157z" />
    <glyph glyph-name="onehalf" unicode="&#xbd;" horiz-adv-x="799" 
d="M227 704h33v-368h-53v303l-134 -70l-23 40zM599 704h59l-459 -704h-59zM764 56v-52h-292v28l145 132q35 32 49 55t14 47q0 30 -19.5 48.5t-60.5 18.5q-54 0 -99 -37l-30 36q58 52 131 52q66 0 100.5 -33.5t34.5 -79.5q0 -37 -18.5 -67.5t-61.5 -68.5l-91 -79h198z" />
    <glyph glyph-name="threequarters" unicode="&#xbe;" horiz-adv-x="799" 
d="M307.5 493q17.5 -24 17.5 -56q0 -49 -38 -81t-107 -32q-85 0 -140 55l29 36q25 -23 51.5 -31.5t58.5 -8.5q44 0 66.5 18t22.5 45q0 31 -27 47t-69 16h-51v45h50q39 0 62 16t23 44q0 25 -19.5 42t-59.5 17q-61 0 -102 -39l-29 34q28 29 62.5 42.5t71.5 13.5q64 0 98.5 -31
t34.5 -76q0 -24 -14 -45.5t-42 -35.5q33 -11 50.5 -35zM599 704h59l-459 -704h-59zM735 131v-46h-64v-81h-53v81h-205v28l219 259h39v-241h64zM486 131h132v157z" />
    <glyph glyph-name="questiondown" unicode="&#xbf;" horiz-adv-x="497" 
d="M312 496v-90h-89v90h89zM478 -124q-90 -96 -225 -96q-73 0 -122.5 26t-73.5 69t-24 94q0 79 51.5 135t147.5 98l1 86h69l-1 -120q-101 -45 -147.5 -88.5t-46.5 -109.5q0 -54 37.5 -88.5t110.5 -34.5q50 0 97.5 19t83.5 54z" />
    <glyph glyph-name="Agrave" unicode="&#xc0;" horiz-adv-x="693" 
d="M606 0l-80 185h-360l-80 -185h-76l313 713h47l313 -713h-77zM195 251h303l-152 351zM241 912h76l91 -140v-4h-58z" />
    <glyph glyph-name="Aacute" unicode="&#xc1;" horiz-adv-x="693" 
d="M606 0l-80 185h-360l-80 -185h-76l313 713h47l313 -713h-77zM195 251h303l-152 351zM286 772l90 140h76l-109 -144h-57v4z" />
    <glyph glyph-name="Acircumflex" unicode="&#xc2;" horiz-adv-x="693" 
d="M606 0l-80 185h-360l-80 -185h-76l313 713h47l313 -713h-77zM195 251h303l-152 351zM502 766h-69l-90 102l-88 -102h-66l123 146h67z" />
    <glyph glyph-name="Atilde" unicode="&#xc3;" horiz-adv-x="693" 
d="M606 0l-80 185h-360l-80 -185h-76l313 713h47l313 -713h-77zM195 251h303l-152 351zM372.5 794q-20.5 13 -52.5 38q-32 28 -41 28q-12 0 -12 -12v-61h-49v54q0 40 12.5 58t42.5 18q18 0 38 -12.5t50 -37.5q14 -12 26.5 -21t18.5 -9q12 0 12 12v63h50v-56q0 -39 -13 -57
t-44 -18q-18 0 -38.5 13z" />
    <glyph glyph-name="Adieresis" unicode="&#xc4;" horiz-adv-x="693" 
d="M606 0l-80 185h-360l-80 -185h-76l313 713h47l313 -713h-77zM195 251h303l-152 351zM227 899h69v-76h-69v76zM397 899h69v-76h-69v76z" />
    <glyph glyph-name="Aring" unicode="&#xc5;" horiz-adv-x="693" 
d="M606 0l-80 185h-360l-80 -185h-76l313 713h47l313 -713h-77zM195 251h303l-152 351zM284.5 783.5q-26.5 23.5 -26.5 60.5t26.5 60.5t62.5 23.5t62.5 -23.5t26.5 -60.5t-26.5 -60.5t-62.5 -23.5t-62.5 23.5zM377 814q11 11 11 30q0 18 -11 29.5t-30 11.5t-30 -11.5
t-11 -29.5t11 -29.5t30 -11.5t30 11z" />
    <glyph glyph-name="AE" unicode="&#xc6;" horiz-adv-x="991" 
d="M559 66h381v-66h-453v168h-289l-109 -168h-78l460 704h455v-66h-367v-240h326v-66h-326v-266zM240 233h247v380z" />
    <glyph glyph-name="Ccedilla" unicode="&#xc7;" horiz-adv-x="667" 
d="M504.5 77q51.5 22 87.5 61l43 -49q-44 -48 -103 -74t-129 -27l-17 -49q32 -6 50.5 -25.5t18.5 -48.5q0 -34 -24 -54.5t-59 -20.5q-22 0 -41 8.5t-28 22.5l22 30q20 -18 44 -18q18 0 28.5 9.5t10.5 25.5t-14 26t-37 10h-18l31 85q-95 6 -170 56t-117 130.5t-42 176.5
q0 100 45.5 183.5t126.5 132t182 48.5q144 0 240 -99l-43 -49q-37 39 -88 60t-109 21q-80 0 -143.5 -38.5t-99 -106t-35.5 -152.5t35.5 -152.5t99 -106t143.5 -38.5q58 0 109.5 22z" />
    <glyph glyph-name="Egrave" unicode="&#xc8;" 
d="M165 66h380v-66h-452v704h438v-66h-366v-240h326v-66h-326v-266zM212 912h76l91 -140v-4h-58z" />
    <glyph glyph-name="Eacute" unicode="&#xc9;" 
d="M165 66h380v-66h-452v704h438v-66h-366v-240h326v-66h-326v-266zM258 772l90 140h76l-109 -144h-57v4z" />
    <glyph glyph-name="Ecircumflex" unicode="&#xca;" 
d="M165 66h380v-66h-452v704h438v-66h-366v-240h326v-66h-326v-266zM474 766h-69l-90 102l-88 -102h-66l123 146h67z" />
    <glyph glyph-name="Edieresis" unicode="&#xcb;" 
d="M165 66h380v-66h-452v704h438v-66h-366v-240h326v-66h-326v-266zM199 899h69v-76h-69v76zM369 899h69v-76h-69v76z" />
    <glyph glyph-name="Igrave" unicode="&#xcc;" horiz-adv-x="257" 
d="M93 704h72v-704h-72v704zM24 912h76l91 -140v-4h-58z" />
    <glyph glyph-name="Iacute" unicode="&#xcd;" horiz-adv-x="257" 
d="M93 704h72v-704h-72v704zM69 772l90 140h76l-109 -144h-57v4z" />
    <glyph glyph-name="Icircumflex" unicode="&#xce;" horiz-adv-x="257" 
d="M93 704h72v-704h-72v704zM285 766h-69l-90 102l-88 -102h-66l123 146h67z" />
    <glyph glyph-name="Idieresis" unicode="&#xcf;" horiz-adv-x="257" 
d="M93 704h72v-704h-72v704zM11 899h69v-76h-69v76zM181 899h69v-76h-69v76z" />
    <glyph glyph-name="Eth" unicode="&#xd0;" horiz-adv-x="729" 
d="M507 660q84 -44 132.5 -124t48.5 -184q0 -103 -49 -183t-134 -124.5t-189 -44.5h-223v326h-67v52h67v326h226q104 0 188 -44zM469.5 102q67.5 36 105 101t37.5 149q0 85 -37.5 150t-105 100.5t-153.5 35.5h-151v-260h197v-52h-197v-260h151q86 0 153.5 36z" />
    <glyph glyph-name="Ntilde" unicode="&#xd1;" horiz-adv-x="744" 
d="M580 704h71v-704h-43l-444 555v-555h-71v704h41l446 -560v560zM402.5 794q-20.5 13 -52.5 38q-32 28 -41 28q-12 0 -12 -12v-61h-49v54q0 40 12.5 58t42.5 18q18 0 38 -12.5t50 -37.5q14 -12 26.5 -21t18.5 -9q12 0 12 12v63h50v-56q0 -39 -13 -57t-44 -18
q-18 0 -38.5 13z" />
    <glyph glyph-name="Ograve" unicode="&#xd2;" horiz-adv-x="804" 
d="M218.5 36q-82.5 48 -130 131t-47.5 185q0 103 47 186t129.5 130.5t184.5 47.5t184.5 -47.5t129.5 -131t47 -185.5t-47 -185t-129.5 -131t-184.5 -48q-101 0 -183.5 48zM548 93.5q65 38.5 102 106t37 152.5q0 86 -37 153.5t-102 105.5t-146 38q-80 0 -145 -38t-102.5 -106
t-37.5 -153t37 -153t101.5 -106t146.5 -38q81 0 146 38.5zM296 912h76l91 -140v-4h-58z" />
    <glyph glyph-name="Oacute" unicode="&#xd3;" horiz-adv-x="804" 
d="M218.5 36q-82.5 48 -130 131t-47.5 185q0 103 47 186t129.5 130.5t184.5 47.5t184.5 -47.5t129.5 -131t47 -185.5t-47 -185t-129.5 -131t-184.5 -48q-101 0 -183.5 48zM548 93.5q65 38.5 102 106t37 152.5q0 86 -37 153.5t-102 105.5t-146 38q-80 0 -145 -38t-102.5 -106
t-37.5 -153t37 -153t101.5 -106t146.5 -38q81 0 146 38.5zM341 772l90 140h76l-109 -144h-57v4z" />
    <glyph glyph-name="Ocircumflex" unicode="&#xd4;" horiz-adv-x="804" 
d="M218.5 36q-82.5 48 -130 131t-47.5 185q0 103 47 186t129.5 130.5t184.5 47.5t184.5 -47.5t129.5 -131t47 -185.5t-47 -185t-129.5 -131t-184.5 -48q-101 0 -183.5 48zM548 93.5q65 38.5 102 106t37 152.5q0 86 -37 153.5t-102 105.5t-146 38q-80 0 -145 -38t-102.5 -106
t-37.5 -153t37 -153t101.5 -106t146.5 -38q81 0 146 38.5zM557 766h-69l-90 102l-88 -102h-66l123 146h67z" />
    <glyph glyph-name="Otilde" unicode="&#xd5;" horiz-adv-x="804" 
d="M218.5 36q-82.5 48 -130 131t-47.5 185q0 103 47 186t129.5 130.5t184.5 47.5t184.5 -47.5t129.5 -131t47 -185.5t-47 -185t-129.5 -131t-184.5 -48q-101 0 -183.5 48zM548 93.5q65 38.5 102 106t37 152.5q0 86 -37 153.5t-102 105.5t-146 38q-80 0 -145 -38t-102.5 -106
t-37.5 -153t37 -153t101.5 -106t146.5 -38q81 0 146 38.5zM427.5 794q-20.5 13 -52.5 38q-32 28 -41 28q-12 0 -12 -12v-61h-49v54q0 40 12.5 58t42.5 18q18 0 38 -12.5t50 -37.5q14 -12 26.5 -21t18.5 -9q12 0 12 12v63h50v-56q0 -39 -13 -57t-44 -18q-18 0 -38.5 13z" />
    <glyph glyph-name="Odieresis" unicode="&#xd6;" horiz-adv-x="804" 
d="M218.5 36q-82.5 48 -130 131t-47.5 185q0 103 47 186t129.5 130.5t184.5 47.5t184.5 -47.5t129.5 -131t47 -185.5t-47 -185t-129.5 -131t-184.5 -48q-101 0 -183.5 48zM548 93.5q65 38.5 102 106t37 152.5q0 86 -37 153.5t-102 105.5t-146 38q-80 0 -145 -38t-102.5 -106
t-37.5 -153t37 -153t101.5 -106t146.5 -38q81 0 146 38.5zM282 899h69v-76h-69v76zM452 899h69v-76h-69v76z" />
    <glyph glyph-name="multiply" unicode="&#xd7;" 
d="M511 536l-169 -173l169 -175l-43 -43l-170 173l-169 -173l-45 43l170 175l-170 173l45 46l169 -174l170 174z" />
    <glyph glyph-name="Oslash" unicode="&#xd8;" horiz-adv-x="804" 
d="M734 501q29 -69 29 -149q0 -102 -47 -185t-129.5 -131t-184.5 -48q-116 0 -210 65l-43 -53h-69l71 87q-52 49 -81 117.5t-29 147.5q0 103 47 186t129.5 130.5t184.5 47.5q116 0 208 -62l41 50h69l-68 -84q53 -50 82 -119zM137.5 235.5q20.5 -53.5 57.5 -93.5l371 458
q-71 49 -164 49q-80 0 -145 -38t-102.5 -106t-37.5 -153q0 -63 20.5 -116.5zM548 93.5q65 38.5 102 106t37 152.5q0 63 -21 118t-59 95l-372 -459q73 -51 167 -51q81 0 146 38.5z" />
    <glyph glyph-name="Ugrave" unicode="&#xd9;" horiz-adv-x="749" 
d="M225.5 24.5q-67.5 36.5 -106.5 103.5t-39 154v422h72v-422q0 -71 30 -122t81 -78t112 -27q62 0 112.5 26t80 77t29.5 124v422h72v-422q0 -87 -38.5 -154t-105.5 -103.5t-150 -36.5q-82 0 -149.5 36.5zM268 912h76l91 -140v-4h-58z" />
    <glyph glyph-name="Uacute" unicode="&#xda;" horiz-adv-x="749" 
d="M225.5 24.5q-67.5 36.5 -106.5 103.5t-39 154v422h72v-422q0 -71 30 -122t81 -78t112 -27q62 0 112.5 26t80 77t29.5 124v422h72v-422q0 -87 -38.5 -154t-105.5 -103.5t-150 -36.5q-82 0 -149.5 36.5zM314 772l90 140h76l-109 -144h-57v4z" />
    <glyph glyph-name="Ucircumflex" unicode="&#xdb;" horiz-adv-x="749" 
d="M225.5 24.5q-67.5 36.5 -106.5 103.5t-39 154v422h72v-422q0 -71 30 -122t81 -78t112 -27q62 0 112.5 26t80 77t29.5 124v422h72v-422q0 -87 -38.5 -154t-105.5 -103.5t-150 -36.5q-82 0 -149.5 36.5zM530 766h-69l-90 102l-88 -102h-66l123 146h67z" />
    <glyph glyph-name="Udieresis" unicode="&#xdc;" horiz-adv-x="749" 
d="M225.5 24.5q-67.5 36.5 -106.5 103.5t-39 154v422h72v-422q0 -71 30 -122t81 -78t112 -27q62 0 112.5 26t80 77t29.5 124v422h72v-422q0 -87 -38.5 -154t-105.5 -103.5t-150 -36.5q-82 0 -149.5 36.5zM255 899h69v-76h-69v76zM425 899h69v-76h-69v76z" />
    <glyph glyph-name="Yacute" unicode="&#xdd;" horiz-adv-x="633" 
d="M550 704h81l-276 -433v-271h-72v271l-281 433h81l236 -365zM256 772l90 140h76l-109 -144h-57v4z" />
    <glyph glyph-name="Thorn" unicode="&#xde;" horiz-adv-x="604" 
d="M449 539.5q52 -24.5 83 -71t31 -108.5t-30.5 -108.5t-82.5 -71t-114 -24.5h-171v-156h-72v704h72v-140h171q61 0 113 -24.5zM446.5 260.5q40.5 39.5 40.5 99.5t-40.5 99.5t-110.5 39.5h-171v-278h171q70 0 110.5 39.5z" />
    <glyph glyph-name="germandbls" unicode="&#xdf;" horiz-adv-x="571" 
d="M504 312q36 -49 36 -112q0 -67 -28 -115t-75 -72.5t-105 -24.5q-78 0 -130 37l34 57q44 -29 96 -29q59 0 97.5 37t38.5 105q0 67 -46 106t-138 39h-54v60h54q60 0 97 36.5t37 91.5q0 54 -36.5 88t-93.5 34q-63 0 -98.5 -36.5t-35.5 -104.5v-509h-71v438h-79v58h79v10
q0 96 55 153t150 57q66 0 111 -27.5t67.5 -69.5t22.5 -86q0 -47 -22 -87t-65 -63q66 -22 102 -71z" />
    <glyph glyph-name="agrave" unicode="&#xe0;" horiz-adv-x="472" 
d="M364 459q45 -49 45 -128v-331h-42l-28 50q-26 -28 -68 -45t-86 -17q-71 0 -114 37.5t-43 101.5q0 69 59.5 109.5t169.5 59.5l81 14v17q0 54 -28.5 86.5t-90.5 32.5q-78 0 -138 -51l-37 41q31 34 80 53t97 19q98 0 143 -49zM274 65q37 15 64 41v149l-63 -11
q-81 -15 -128.5 -40.5t-47.5 -75.5q0 -35 24 -56.5t71 -21.5q43 0 80 15zM111 704h76l91 -140v-4h-58z" />
    <glyph glyph-name="aacute" unicode="&#xe1;" horiz-adv-x="472" 
d="M364 459q45 -49 45 -128v-331h-42l-28 50q-26 -28 -68 -45t-86 -17q-71 0 -114 37.5t-43 101.5q0 69 59.5 109.5t169.5 59.5l81 14v17q0 54 -28.5 86.5t-90.5 32.5q-78 0 -138 -51l-37 41q31 34 80 53t97 19q98 0 143 -49zM274 65q37 15 64 41v149l-63 -11
q-81 -15 -128.5 -40.5t-47.5 -75.5q0 -35 24 -56.5t71 -21.5q43 0 80 15zM156 564l90 140h76l-109 -144h-57v4z" />
    <glyph glyph-name="acircumflex" unicode="&#xe2;" horiz-adv-x="472" 
d="M364 459q45 -49 45 -128v-331h-42l-28 50q-26 -28 -68 -45t-86 -17q-71 0 -114 37.5t-43 101.5q0 69 59.5 109.5t169.5 59.5l81 14v17q0 54 -28.5 86.5t-90.5 32.5q-78 0 -138 -51l-37 41q31 34 80 53t97 19q98 0 143 -49zM274 65q37 15 64 41v149l-63 -11
q-81 -15 -128.5 -40.5t-47.5 -75.5q0 -35 24 -56.5t71 -21.5q43 0 80 15zM372 558h-69l-90 102l-88 -102h-66l123 146h67z" />
    <glyph glyph-name="atilde" unicode="&#xe3;" horiz-adv-x="472" 
d="M364 459q45 -49 45 -128v-331h-42l-28 50q-26 -28 -68 -45t-86 -17q-71 0 -114 37.5t-43 101.5q0 69 59.5 109.5t169.5 59.5l81 14v17q0 54 -28.5 86.5t-90.5 32.5q-78 0 -138 -51l-37 41q31 34 80 53t97 19q98 0 143 -49zM274 65q37 15 64 41v149l-63 -11
q-81 -15 -128.5 -40.5t-47.5 -75.5q0 -35 24 -56.5t71 -21.5q43 0 80 15zM242.5 586q-20.5 13 -52.5 38q-32 28 -41 28q-12 0 -12 -12v-61h-49v54q0 40 12.5 58t42.5 18q18 0 38 -12.5t50 -37.5q14 -12 26.5 -21t18.5 -9q12 0 12 12v63h50v-56q0 -39 -13 -57t-44 -18
q-18 0 -38.5 13z" />
    <glyph glyph-name="adieresis" unicode="&#xe4;" horiz-adv-x="472" 
d="M364 459q45 -49 45 -128v-331h-42l-28 50q-26 -28 -68 -45t-86 -17q-71 0 -114 37.5t-43 101.5q0 69 59.5 109.5t169.5 59.5l81 14v17q0 54 -28.5 86.5t-90.5 32.5q-78 0 -138 -51l-37 41q31 34 80 53t97 19q98 0 143 -49zM274 65q37 15 64 41v149l-63 -11
q-81 -15 -128.5 -40.5t-47.5 -75.5q0 -35 24 -56.5t71 -21.5q43 0 80 15zM97 691h69v-76h-69v76zM267 691h69v-76h-69v76z" />
    <glyph glyph-name="aring" unicode="&#xe5;" horiz-adv-x="472" 
d="M364 459q45 -49 45 -128v-331h-42l-28 50q-26 -28 -68 -45t-86 -17q-71 0 -114 37.5t-43 101.5q0 69 59.5 109.5t169.5 59.5l81 14v17q0 54 -28.5 86.5t-90.5 32.5q-78 0 -138 -51l-37 41q31 34 80 53t97 19q98 0 143 -49zM274 65q37 15 64 41v149l-63 -11
q-81 -15 -128.5 -40.5t-47.5 -75.5q0 -35 24 -56.5t71 -21.5q43 0 80 15zM154.5 575.5q-26.5 23.5 -26.5 60.5t26.5 60.5t62.5 23.5t62.5 -23.5t26.5 -60.5t-26.5 -60.5t-62.5 -23.5t-62.5 23.5zM247 606q11 11 11 30q0 18 -11 29.5t-30 11.5t-30 -11.5t-11 -29.5t11 -29.5
t30 -11.5t30 11z" />
    <glyph glyph-name="ae" unicode="&#xe6;" horiz-adv-x="819" 
d="M410 236q0 -53 21.5 -95.5t60.5 -66.5t89 -24q45 0 84 17.5t67 51.5l46 -38q-30 -42 -81.5 -67.5t-115.5 -25.5t-113.5 25t-81.5 70q-34 -44 -87.5 -69.5t-110.5 -25.5q-72 0 -116 37.5t-44 96.5q0 72 58.5 112.5t176.5 61.5l75 14v17q0 54 -28.5 86.5t-89.5 32.5
q-78 0 -139 -50l-37 40q32 33 80.5 52.5t98.5 19.5q65 0 106.5 -23.5t61.5 -65.5q31 42 76 65.5t101 23.5q71 0 120.5 -32t74 -86t24.5 -119v-32h-377v-3zM464.5 404.5q-41.5 -41.5 -51.5 -111.5h305q-5 72 -46 112.5t-104 40.5q-62 0 -103.5 -41.5zM283.5 69
q44.5 19 75.5 63q-21 53 -21 116v4l-61 -11q-94 -18 -136 -43t-42 -71q0 -35 24.5 -56t71.5 -21q44 0 88.5 19z" />
    <glyph glyph-name="ccedilla" unicode="&#xe7;" horiz-adv-x="469" 
d="M375 12.5q-41 -18.5 -86 -21.5l-18 -52q32 -6 50.5 -25.5t18.5 -48.5q0 -34 -24 -54.5t-59 -20.5q-22 0 -41 8.5t-28 22.5l22 30q20 -18 44 -18q18 0 28.5 9.5t10.5 25.5t-14 26t-37 10h-18l32 88q-64 4 -115 37t-80.5 89.5t-29.5 129.5q0 77 31 136t85.5 91.5
t122.5 32.5q58 0 101.5 -19t80.5 -56l-41 -51q-53 60 -141 60q-75 0 -121 -53t-46 -141q0 -58 23 -101t62.5 -66.5t85.5 -23.5q39 0 74.5 13t62.5 39l37 -47q-32 -31 -73 -49.5z" />
    <glyph glyph-name="egrave" unicode="&#xe8;" horiz-adv-x="512" 
d="M103 236q0 -54 22 -96.5t61 -66t88 -23.5q95 0 151 73l46 -39q-30 -43 -81.5 -69.5t-117.5 -26.5q-74 0 -128.5 34.5t-83.5 93.5t-29 132q0 71 28 130.5t81 94.5t124 35q69 0 118 -31.5t73.5 -85t24.5 -118.5v-32h-377v-5zM158.5 405q-41.5 -41 -52.5 -110h305
q-6 71 -46.5 111t-102.5 40t-103.5 -41zM154 704h76l91 -140v-4h-58z" />
    <glyph glyph-name="eacute" unicode="&#xe9;" horiz-adv-x="512" 
d="M103 236q0 -54 22 -96.5t61 -66t88 -23.5q95 0 151 73l46 -39q-30 -43 -81.5 -69.5t-117.5 -26.5q-74 0 -128.5 34.5t-83.5 93.5t-29 132q0 71 28 130.5t81 94.5t124 35q69 0 118 -31.5t73.5 -85t24.5 -118.5v-32h-377v-5zM158.5 405q-41.5 -41 -52.5 -110h305
q-6 71 -46.5 111t-102.5 40t-103.5 -41zM200 564l90 140h76l-109 -144h-57v4z" />
    <glyph glyph-name="ecircumflex" unicode="&#xea;" horiz-adv-x="512" 
d="M103 236q0 -54 22 -96.5t61 -66t88 -23.5q95 0 151 73l46 -39q-30 -43 -81.5 -69.5t-117.5 -26.5q-74 0 -128.5 34.5t-83.5 93.5t-29 132q0 71 28 130.5t81 94.5t124 35q69 0 118 -31.5t73.5 -85t24.5 -118.5v-32h-377v-5zM158.5 405q-41.5 -41 -52.5 -110h305
q-6 71 -46.5 111t-102.5 40t-103.5 -41zM416 558h-69l-90 102l-88 -102h-66l123 146h67z" />
    <glyph glyph-name="edieresis" unicode="&#xeb;" horiz-adv-x="512" 
d="M103 236q0 -54 22 -96.5t61 -66t88 -23.5q95 0 151 73l46 -39q-30 -43 -81.5 -69.5t-117.5 -26.5q-74 0 -128.5 34.5t-83.5 93.5t-29 132q0 71 28 130.5t81 94.5t124 35q69 0 118 -31.5t73.5 -85t24.5 -118.5v-32h-377v-5zM158.5 405q-41.5 -41 -52.5 -110h305
q-6 71 -46.5 111t-102.5 40t-103.5 -41zM141 691h69v-76h-69v76zM311 691h69v-76h-69v76z" />
    <glyph glyph-name="igrave" unicode="&#xec;" horiz-adv-x="205" 
d="M67 496h71v-496h-71v496zM-3 704h76l91 -140v-4h-58z" />
    <glyph glyph-name="iacute" unicode="&#xed;" horiz-adv-x="205" 
d="M67 496h71v-496h-71v496zM43 564l90 140h76l-109 -144h-57v4z" />
    <glyph glyph-name="icircumflex" unicode="&#xee;" horiz-adv-x="205" 
d="M67 496h71v-496h-71v496zM258 558h-69l-90 102l-88 -102h-66l123 146h67z" />
    <glyph glyph-name="idieresis" unicode="&#xef;" horiz-adv-x="205" 
d="M67 496h71v-496h-71v496zM-16 691h69v-76h-69v76zM154 691h69v-76h-69v76z" />
    <glyph glyph-name="eth" unicode="&#xf0;" horiz-adv-x="549" 
d="M478.5 470.5q39.5 -88.5 39.5 -194.5q0 -90 -32 -155.5t-87.5 -99t-125.5 -33.5t-125 29.5t-86 83t-31 123.5q0 69 31 122.5t84.5 83t118.5 29.5q51 0 94.5 -18t73.5 -52q-28 115 -114 190l-107 -95l-32 36l101 90q-52 37 -117 61l41 48q64 -23 125 -66l75 67l32 -36
l-69 -62q71 -63 110.5 -151.5zM362.5 78.5q39.5 27.5 61.5 78.5t22 118q0 22 -1 33q-26 39 -76 63.5t-104 24.5q-44 0 -81 -21.5t-59 -60.5t-22 -90q0 -77 47 -125t123 -48q50 0 89.5 27.5z" />
    <glyph glyph-name="ntilde" unicode="&#xf1;" horiz-adv-x="529" 
d="M183 579h-50v54q0 41 12.5 58.5t43.5 17.5q18 0 37 -12t52 -38q14 -12 26.5 -21t18.5 -9q12 0 12 12v63h50v-56q0 -39 -13 -57t-44 -18q-19 0 -41 14t-51 38q-32 27 -41 27q-12 0 -12 -12v-61zM418 453.5q49 -54.5 49 -139.5v-314h-71v308q0 68 -35 102.5t-96 34.5
q-75 0 -127 -64v-381h-71v496h40l31 -55q29 34 63 50.5t76 16.5q92 0 141 -54.5z" />
    <glyph glyph-name="ograve" unicode="&#xf2;" horiz-adv-x="556" 
d="M151.5 22q-56.5 34 -88.5 93.5t-32 132.5t32 132.5t88.5 93.5t126.5 34q71 0 127 -34t88 -93.5t32 -132.5t-32 -132.5t-88 -93.5t-127 -34q-70 0 -126.5 34zM368 77q40 26 62.5 71t22.5 100t-22.5 100t-62.5 71t-90 26t-90 -26t-62.5 -71t-22.5 -100t22.5 -100t62.5 -71
t90 -26t90 26zM172 704h76l91 -140v-4h-58z" />
    <glyph glyph-name="oacute" unicode="&#xf3;" horiz-adv-x="556" 
d="M151.5 22q-56.5 34 -88.5 93.5t-32 132.5t32 132.5t88.5 93.5t126.5 34q71 0 127 -34t88 -93.5t32 -132.5t-32 -132.5t-88 -93.5t-127 -34q-70 0 -126.5 34zM368 77q40 26 62.5 71t22.5 100t-22.5 100t-62.5 71t-90 26t-90 -26t-62.5 -71t-22.5 -100t22.5 -100t62.5 -71
t90 -26t90 26zM217 564l90 140h76l-109 -144h-57v4z" />
    <glyph glyph-name="ocircumflex" unicode="&#xf4;" horiz-adv-x="556" 
d="M151.5 22q-56.5 34 -88.5 93.5t-32 132.5t32 132.5t88.5 93.5t126.5 34q71 0 127 -34t88 -93.5t32 -132.5t-32 -132.5t-88 -93.5t-127 -34q-70 0 -126.5 34zM368 77q40 26 62.5 71t22.5 100t-22.5 100t-62.5 71t-90 26t-90 -26t-62.5 -71t-22.5 -100t22.5 -100t62.5 -71
t90 -26t90 26zM433 558h-69l-90 102l-88 -102h-66l123 146h67z" />
    <glyph glyph-name="otilde" unicode="&#xf5;" horiz-adv-x="556" 
d="M151.5 22q-56.5 34 -88.5 93.5t-32 132.5t32 132.5t88.5 93.5t126.5 34q71 0 127 -34t88 -93.5t32 -132.5t-32 -132.5t-88 -93.5t-127 -34q-70 0 -126.5 34zM368 77q40 26 62.5 71t22.5 100t-22.5 100t-62.5 71t-90 26t-90 -26t-62.5 -71t-22.5 -100t22.5 -100t62.5 -71
t90 -26t90 26zM303.5 586q-20.5 13 -52.5 38q-32 28 -41 28q-12 0 -12 -12v-61h-49v54q0 40 12.5 58t42.5 18q18 0 38 -12.5t50 -37.5q14 -12 26.5 -21t18.5 -9q12 0 12 12v63h50v-56q0 -39 -13 -57t-44 -18q-18 0 -38.5 13z" />
    <glyph glyph-name="odieresis" unicode="&#xf6;" horiz-adv-x="556" 
d="M151.5 22q-56.5 34 -88.5 93.5t-32 132.5t32 132.5t88.5 93.5t126.5 34q71 0 127 -34t88 -93.5t32 -132.5t-32 -132.5t-88 -93.5t-127 -34q-70 0 -126.5 34zM368 77q40 26 62.5 71t22.5 100t-22.5 100t-62.5 71t-90 26t-90 -26t-62.5 -71t-22.5 -100t22.5 -100t62.5 -71
t90 -26t90 26zM159 691h69v-76h-69v76zM329 691h69v-76h-69v76z" />
    <glyph glyph-name="divide" unicode="&#xf7;" 
d="M256 568h89v-88h-89v88zM81 395h435v-63h-435v63zM256 246h89v-89h-89v89z" />
    <glyph glyph-name="oslash" unicode="&#xf8;" horiz-adv-x="556" 
d="M507.5 348.5q17.5 -47.5 17.5 -100.5q0 -73 -32 -132.5t-88 -93.5t-127 -34q-83 0 -146 47l-29 -35h-66l57 70q-30 35 -46.5 80.5t-16.5 97.5q0 73 32 132.5t88.5 93.5t126.5 34q79 0 141 -43l25 31h67l-53 -65q32 -35 49.5 -82.5zM139 125l237 288q-43 32 -98 32
q-50 0 -90 -26t-62.5 -71t-22.5 -100q0 -71 36 -123zM368 77q40 26 62.5 71t22.5 100q0 73 -40 129l-239 -290q45 -36 104 -36q50 0 90 26z" />
    <glyph glyph-name="ugrave" unicode="&#xf9;" horiz-adv-x="529" 
d="M463 496v-496h-40l-31 55q-30 -34 -64 -50.5t-76 -16.5q-91 0 -140 54.5t-49 139.5v314h71v-308q0 -68 35 -102.5t95 -34.5q76 0 128 64v381h71zM160 704h76l91 -140v-4h-58z" />
    <glyph glyph-name="uacute" unicode="&#xfa;" horiz-adv-x="529" 
d="M463 496v-496h-40l-31 55q-30 -34 -64 -50.5t-76 -16.5q-91 0 -140 54.5t-49 139.5v314h71v-308q0 -68 35 -102.5t95 -34.5q76 0 128 64v381h71zM205 564l90 140h76l-109 -144h-57v4z" />
    <glyph glyph-name="ucircumflex" unicode="&#xfb;" horiz-adv-x="529" 
d="M463 496v-496h-40l-31 55q-30 -34 -64 -50.5t-76 -16.5q-91 0 -140 54.5t-49 139.5v314h71v-308q0 -68 35 -102.5t95 -34.5q76 0 128 64v381h71zM421 558h-69l-90 102l-88 -102h-66l123 146h67z" />
    <glyph glyph-name="udieresis" unicode="&#xfc;" horiz-adv-x="529" 
d="M463 496v-496h-40l-31 55q-30 -34 -64 -50.5t-76 -16.5q-91 0 -140 54.5t-49 139.5v314h71v-308q0 -68 35 -102.5t95 -34.5q76 0 128 64v381h71zM147 691h69v-76h-69v76zM317 691h69v-76h-69v76z" />
    <glyph glyph-name="yacute" unicode="&#xfd;" horiz-adv-x="488" 
d="M416 496h72l-312 -704h-69l107 237l-214 467h75l173 -390zM191 564l90 140h76l-109 -144h-57v4z" />
    <glyph glyph-name="thorn" unicode="&#xfe;" horiz-adv-x="548" 
d="M402.5 473.5q53.5 -34.5 84 -94t30.5 -131.5t-30 -131.5t-85 -94t-126 -34.5q-84 0 -138 47v-243h-71v912h71v-255q25 27 64 43t81 16q66 0 119.5 -34.5zM358.5 75.5q39.5 24.5 63 69t23.5 103.5q0 56 -21.5 101t-60.5 70.5t-91 25.5q-41 0 -73.5 -15t-60.5 -45v-279
q53 -55 134 -55q47 0 86.5 24.5z" />
    <glyph glyph-name="ydieresis" unicode="&#xff;" horiz-adv-x="488" 
d="M416 496h72l-312 -704h-69l107 237l-214 467h75l173 -390zM132 691h69v-76h-69v76zM302 691h69v-76h-69v76z" />
    <glyph glyph-name="Amacron" unicode="&#x100;" horiz-adv-x="693" 
d="M606 0l-80 185h-360l-80 -185h-76l313 713h47l313 -713h-77zM195 251h303l-152 351zM202 879h286v-56h-286v56z" />
    <glyph glyph-name="amacron" unicode="&#x101;" horiz-adv-x="472" 
d="M364 459q45 -49 45 -128v-331h-42l-28 50q-26 -28 -68 -45t-86 -17q-71 0 -114 37.5t-43 101.5q0 69 59.5 109.5t169.5 59.5l81 14v17q0 54 -28.5 86.5t-90.5 32.5q-78 0 -138 -51l-37 41q31 34 80 53t97 19q98 0 143 -49zM274 65q37 15 64 41v149l-63 -11
q-81 -15 -128.5 -40.5t-47.5 -75.5q0 -35 24 -56.5t71 -21.5q43 0 80 15zM72 674h286v-56h-286v56z" />
    <glyph glyph-name="Abreve" unicode="&#x102;" horiz-adv-x="693" 
d="M606 0l-80 185h-360l-80 -185h-76l313 713h47l313 -713h-77zM195 251h303l-152 351zM254.5 815.5q-36.5 35.5 -39.5 96.5h53q2 -37 22 -57.5t57 -20.5q34 0 53.5 20.5t21.5 57.5h53q-4 -61 -39.5 -96.5t-88.5 -35.5q-56 0 -92.5 35.5z" />
    <glyph glyph-name="abreve" unicode="&#x103;" horiz-adv-x="472" 
d="M364 459q45 -49 45 -128v-331h-42l-28 50q-26 -28 -68 -45t-86 -17q-71 0 -114 37.5t-43 101.5q0 69 59.5 109.5t169.5 59.5l81 14v17q0 54 -28.5 86.5t-90.5 32.5q-78 0 -138 -51l-37 41q31 34 80 53t97 19q98 0 143 -49zM274 65q37 15 64 41v149l-63 -11
q-81 -15 -128.5 -40.5t-47.5 -75.5q0 -35 24 -56.5t71 -21.5q43 0 80 15zM124.5 607.5q-36.5 35.5 -39.5 96.5h53q2 -37 22 -57.5t57 -20.5q34 0 53.5 20.5t21.5 57.5h53q-4 -61 -39.5 -96.5t-88.5 -35.5q-56 0 -92.5 35.5z" />
    <glyph glyph-name="Aogonek" unicode="&#x104;" horiz-adv-x="693" 
d="M613 -144l21 -46q-34 -26 -70 -26q-38 0 -62 19.5t-24 57.5q0 43 33 86.5t86 73.5l-71 164h-360l-80 -185h-76l313 713h47l313 -713h-54q-91 -67 -91 -125q0 -17 9 -26t25 -9q24 0 41 16zM195 251h303l-152 351z" />
    <glyph glyph-name="aogonek" unicode="&#x105;" horiz-adv-x="472" 
d="M310 -122q0 -17 9 -26t25 -9q24 0 41 16l21 -46q-34 -26 -70 -26q-38 0 -62 19.5t-24 57.5q0 40 29.5 81.5t77.5 71.5l-18 33q-26 -28 -68 -45t-86 -17q-71 0 -114 37.5t-43 101.5q0 69 59.5 109.5t169.5 59.5l81 14v17q0 54 -28.5 86.5t-90.5 32.5q-78 0 -138 -51
l-37 41q31 34 80 53t97 19q98 0 143 -49t45 -128v-331h-12q-87 -65 -87 -122zM274 65q37 15 64 41v149l-63 -11q-81 -15 -128.5 -40.5t-47.5 -75.5q0 -35 24 -56.5t71 -21.5q43 0 80 15z" />
    <glyph glyph-name="Cacute" unicode="&#x106;" horiz-adv-x="667" 
d="M213 36.5q-81 48.5 -126.5 132t-45.5 183.5t45.5 183.5t126.5 132t182 48.5q144 0 240 -99l-43 -49q-37 39 -88 60t-109 21q-80 0 -143.5 -38.5t-99 -106t-35.5 -152.5t35.5 -152.5t99 -106t143.5 -38.5q58 0 109.5 22t87.5 61l43 -49q-45 -49 -106 -75t-134 -26
q-101 0 -182 48.5zM323 772l90 140h76l-109 -144h-57v4z" />
    <glyph glyph-name="cacute" unicode="&#x107;" horiz-adv-x="469" 
d="M150.5 23q-55.5 32 -87.5 90.5t-32 134.5q0 77 31 136t85.5 91.5t122.5 32.5q58 0 101.5 -19t80.5 -56l-41 -51q-53 60 -141 60q-75 0 -121 -53t-46 -141q0 -58 23 -101t62.5 -66.5t85.5 -23.5q39 0 74.5 13t62.5 39l37 -47q-35 -35 -80 -53t-94 -18q-68 0 -123.5 32z
M207 564l90 140h76l-109 -144h-57v4z" />
    <glyph glyph-name="Ccircumflex" unicode="&#x108;" horiz-adv-x="667" 
d="M213 36.5q-81 48.5 -126.5 132t-45.5 183.5t45.5 183.5t126.5 132t182 48.5q144 0 240 -99l-43 -49q-37 39 -88 60t-109 21q-80 0 -143.5 -38.5t-99 -106t-35.5 -152.5t35.5 -152.5t99 -106t143.5 -38.5q58 0 109.5 22t87.5 61l43 -49q-45 -49 -106 -75t-134 -26
q-101 0 -182 48.5zM539 766h-69l-90 102l-88 -102h-66l123 146h67z" />
    <glyph glyph-name="ccircumflex" unicode="&#x109;" horiz-adv-x="469" 
d="M150.5 23q-55.5 32 -87.5 90.5t-32 134.5q0 77 31 136t85.5 91.5t122.5 32.5q58 0 101.5 -19t80.5 -56l-41 -51q-53 60 -141 60q-75 0 -121 -53t-46 -141q0 -58 23 -101t62.5 -66.5t85.5 -23.5q39 0 74.5 13t62.5 39l37 -47q-35 -35 -80 -53t-94 -18q-68 0 -123.5 32z
M422 558h-69l-90 102l-88 -102h-66l123 146h67z" />
    <glyph glyph-name="Cdotaccent" unicode="&#x10a;" horiz-adv-x="667" 
d="M213 36.5q-81 48.5 -126.5 132t-45.5 183.5t45.5 183.5t126.5 132t182 48.5q144 0 240 -99l-43 -49q-37 39 -88 60t-109 21q-80 0 -143.5 -38.5t-99 -106t-35.5 -152.5t35.5 -152.5t99 -106t143.5 -38.5q58 0 109.5 22t87.5 61l43 -49q-45 -49 -106 -75t-134 -26
q-101 0 -182 48.5zM347 900h72v-73h-72v73z" />
    <glyph glyph-name="cdotaccent" unicode="&#x10b;" horiz-adv-x="469" 
d="M150.5 23q-55.5 32 -87.5 90.5t-32 134.5q0 77 31 136t85.5 91.5t122.5 32.5q58 0 101.5 -19t80.5 -56l-41 -51q-53 60 -141 60q-75 0 -121 -53t-46 -141q0 -58 23 -101t62.5 -66.5t85.5 -23.5q39 0 74.5 13t62.5 39l37 -47q-35 -35 -80 -53t-94 -18q-68 0 -123.5 32z
M230 692h72v-73h-72v73z" />
    <glyph glyph-name="Ccaron" unicode="&#x10c;" horiz-adv-x="667" 
d="M213 36.5q-81 48.5 -126.5 132t-45.5 183.5t45.5 183.5t126.5 132t182 48.5q144 0 240 -99l-43 -49q-37 39 -88 60t-109 21q-80 0 -143.5 -38.5t-99 -106t-35.5 -152.5t35.5 -152.5t99 -106t143.5 -38.5q58 0 109.5 22t87.5 61l43 -49q-45 -49 -106 -75t-134 -26
q-101 0 -182 48.5zM473 912h66l-123 -146h-67l-124 146h70l90 -102z" />
    <glyph glyph-name="ccaron" unicode="&#x10d;" horiz-adv-x="469" 
d="M150.5 23q-55.5 32 -87.5 90.5t-32 134.5q0 77 31 136t85.5 91.5t122.5 32.5q58 0 101.5 -19t80.5 -56l-41 -51q-53 60 -141 60q-75 0 -121 -53t-46 -141q0 -58 23 -101t62.5 -66.5t85.5 -23.5q39 0 74.5 13t62.5 39l37 -47q-35 -35 -80 -53t-94 -18q-68 0 -123.5 32z
M356 704h66l-123 -146h-67l-124 146h70l90 -102z" />
    <glyph glyph-name="Dcaron" unicode="&#x10e;" horiz-adv-x="729" 
d="M507 660q84 -44 132.5 -124t48.5 -184q0 -103 -49 -183t-134 -124.5t-189 -44.5h-223v704h226q104 0 188 -44zM469.5 102q67.5 36 105 101t37.5 149q0 85 -37.5 150t-105 100.5t-153.5 35.5h-151v-572h151q86 0 153.5 36zM414 912h66l-123 -146h-67l-124 146h70l90 -102z
" />
    <glyph glyph-name="dcaron" unicode="&#x10f;" horiz-adv-x="545" 
d="M481 704v-704h-43l-27 48q-25 -27 -64.5 -43.5t-81.5 -16.5q-66 0 -119.5 34.5t-84 94t-30.5 131.5t30 131.5t85 94t125 34.5q86 0 139 -48v244h71zM349.5 66q32.5 15 60.5 45v279q-53 55 -135 55q-47 0 -86 -24.5t-62.5 -69t-23.5 -103.5q0 -56 21.5 -101t60.5 -70.5
t90 -25.5q42 0 74.5 15zM516 704h60q-7 -73 -23 -147q-1 -6 -2 -11l-2 -10h-44q6 64 11 168z" />
    <glyph glyph-name="Dcroat" unicode="&#x110;" horiz-adv-x="729" 
d="M507 660q84 -44 132.5 -124t48.5 -184q0 -103 -49 -183t-134 -124.5t-189 -44.5h-223v326h-67v52h67v326h226q104 0 188 -44zM469.5 102q67.5 36 105 101t37.5 149q0 85 -37.5 150t-105 100.5t-153.5 35.5h-151v-260h197v-52h-197v-260h151q86 0 153.5 36z" />
    <glyph glyph-name="dcroat" unicode="&#x111;" horiz-adv-x="548" 
d="M539 584h-58v-584h-43l-27 48q-25 -27 -64.5 -43.5t-81.5 -16.5q-66 0 -119.5 34.5t-84 94t-30.5 131.5t30 131.5t85 94t125 34.5q86 0 139 -48v124h-158v48h158v72h71v-72h58v-48zM349.5 66q32.5 15 60.5 45v279q-53 55 -135 55q-47 0 -86 -24.5t-62.5 -69t-23.5 -103.5
q0 -56 21.5 -101t60.5 -70.5t90 -25.5q42 0 74.5 15z" />
    <glyph glyph-name="Emacron" unicode="&#x112;" 
d="M165 66h380v-66h-452v704h438v-66h-366v-240h326v-66h-326v-266zM174 879h286v-56h-286v56z" />
    <glyph glyph-name="emacron" unicode="&#x113;" horiz-adv-x="512" 
d="M103 236q0 -54 22 -96.5t61 -66t88 -23.5q95 0 151 73l46 -39q-30 -43 -81.5 -69.5t-117.5 -26.5q-74 0 -128.5 34.5t-83.5 93.5t-29 132q0 71 28 130.5t81 94.5t124 35q69 0 118 -31.5t73.5 -85t24.5 -118.5v-32h-377v-5zM158.5 405q-41.5 -41 -52.5 -110h305
q-6 71 -46.5 111t-102.5 40t-103.5 -41zM116 674h286v-56h-286v56z" />
    <glyph glyph-name="Ebreve" unicode="&#x114;" 
d="M165 66h380v-66h-452v704h438v-66h-366v-240h326v-66h-326v-266zM226.5 815.5q-36.5 35.5 -39.5 96.5h53q2 -37 22 -57.5t57 -20.5q34 0 53.5 20.5t21.5 57.5h53q-4 -61 -39.5 -96.5t-88.5 -35.5q-56 0 -92.5 35.5z" />
    <glyph glyph-name="ebreve" unicode="&#x115;" horiz-adv-x="512" 
d="M103 236q0 -54 22 -96.5t61 -66t88 -23.5q95 0 151 73l46 -39q-30 -43 -81.5 -69.5t-117.5 -26.5q-74 0 -128.5 34.5t-83.5 93.5t-29 132q0 71 28 130.5t81 94.5t124 35q69 0 118 -31.5t73.5 -85t24.5 -118.5v-32h-377v-5zM158.5 405q-41.5 -41 -52.5 -110h305
q-6 71 -46.5 111t-102.5 40t-103.5 -41zM167.5 607.5q-36.5 35.5 -39.5 96.5h53q2 -37 22 -57.5t57 -20.5q34 0 53.5 20.5t21.5 57.5h53q-4 -61 -39.5 -96.5t-88.5 -35.5q-56 0 -92.5 35.5z" />
    <glyph glyph-name="Edotaccent" unicode="&#x116;" 
d="M165 66h380v-66h-452v704h438v-66h-366v-240h326v-66h-326v-266zM281 900h72v-73h-72v73z" />
    <glyph glyph-name="edotaccent" unicode="&#x117;" horiz-adv-x="512" 
d="M103 236q0 -54 22 -96.5t61 -66t88 -23.5q95 0 151 73l46 -39q-30 -43 -81.5 -69.5t-117.5 -26.5q-74 0 -128.5 34.5t-83.5 93.5t-29 132q0 71 28 130.5t81 94.5t124 35q69 0 118 -31.5t73.5 -85t24.5 -118.5v-32h-377v-5zM158.5 405q-41.5 -41 -52.5 -110h305
q-6 71 -46.5 111t-102.5 40t-103.5 -41zM223 692h72v-73h-72v73z" />
    <glyph glyph-name="Eogonek" unicode="&#x118;" 
d="M403 -125q0 -17 9 -26t25 -9q24 0 41 16l21 -46q-34 -26 -70 -26q-38 0 -62 19.5t-24 57.5q0 36 23.5 73t62.5 66h-336v704h438v-66h-366v-240h326v-66h-326v-266h380v-66h-51q-91 -67 -91 -125z" />
    <glyph glyph-name="eogonek" unicode="&#x119;" horiz-adv-x="512" 
d="M103 236q0 -53 21.5 -95.5t60.5 -66.5t89 -24q45 0 84 17.5t67 52.5l46 -39q-15 -21 -37 -40q-69 -59 -92.5 -97t-23.5 -70q0 -16 9 -25t25 -9q23 0 41 15l20 -45q-32 -26 -70 -26q-40 0 -63.5 19t-23.5 57q0 57 74 134q-27 -6 -58 -6q-74 0 -129 34t-83.5 93.5
t-28.5 132.5q0 71 28.5 130.5t81.5 94.5t123 35q69 0 118 -31.5t73.5 -85t24.5 -118.5v-32h-377v-5zM158.5 405q-41.5 -41 -52.5 -110h305q-6 71 -46.5 111t-102.5 40t-103.5 -41z" />
    <glyph glyph-name="Ecaron" unicode="&#x11a;" 
d="M165 66h380v-66h-452v704h438v-66h-366v-240h326v-66h-326v-266zM408 912h66l-123 -146h-67l-124 146h70l90 -102z" />
    <glyph glyph-name="ecaron" unicode="&#x11b;" horiz-adv-x="512" 
d="M103 236q0 -54 22 -96.5t61 -66t88 -23.5q95 0 151 73l46 -39q-30 -43 -81.5 -69.5t-117.5 -26.5q-74 0 -128.5 34.5t-83.5 93.5t-29 132q0 71 28 130.5t81 94.5t124 35q69 0 118 -31.5t73.5 -85t24.5 -118.5v-32h-377v-5zM158.5 405q-41.5 -41 -52.5 -110h305
q-6 71 -46.5 111t-102.5 40t-103.5 -41zM349 704h66l-123 -146h-67l-124 146h70l90 -102z" />
    <glyph glyph-name="Gcircumflex" unicode="&#x11c;" horiz-adv-x="759" 
d="M684 0h-40l-28 50q-46 -31 -98.5 -46.5t-116.5 -15.5q-105 0 -187 48t-127.5 131t-45.5 185q0 103 47 186t130 130.5t187 47.5q165 0 279 -109l-46 -49q-43 42 -106 66.5t-133 24.5q-85 0 -149.5 -39.5t-98.5 -107t-34 -149.5q0 -85 37 -153.5t102.5 -107t147.5 -38.5
q63 0 118 16t91 48v191h-232v66h303v-375zM550 778h-69l-90 102l-88 -102h-66l123 146h67z" />
    <glyph glyph-name="gcircumflex" unicode="&#x11d;" horiz-adv-x="548" 
d="M481 496v-504q0 -59 -27 -106.5t-78 -74.5t-120 -27q-54 0 -102 17.5t-79 47.5l38 50q24 -23 61 -36.5t78 -13.5q73 0 115.5 36t42.5 107v55q-25 -29 -63 -44t-82 -15q-66 0 -119.5 35.5t-84 95t-30.5 129.5t30.5 129.5t85 95t124.5 35.5q87 0 146 -53l22 41h42z
M349.5 66.5q32.5 15.5 60.5 46.5v276q-54 56 -135 56q-46 0 -85.5 -25t-63 -70t-23.5 -102q0 -54 21.5 -99t60.5 -71.5t90 -26.5q42 0 74.5 15.5zM426 558h-69l-90 102l-88 -102h-66l123 146h67z" />
    <glyph glyph-name="Gbreve" unicode="&#x11e;" horiz-adv-x="759" 
d="M684 0h-40l-28 50q-46 -31 -98.5 -46.5t-116.5 -15.5q-105 0 -187 48t-127.5 131t-45.5 185q0 103 47 186t130 130.5t187 47.5q165 0 279 -109l-46 -49q-43 42 -106 66.5t-133 24.5q-85 0 -149.5 -39.5t-98.5 -107t-34 -149.5q0 -85 37 -153.5t102.5 -107t147.5 -38.5
q63 0 118 16t91 48v191h-232v66h303v-375zM302.5 827.5q-36.5 35.5 -39.5 96.5h53q2 -37 22 -57.5t57 -20.5q34 0 53.5 20.5t21.5 57.5h53q-4 -61 -39.5 -96.5t-88.5 -35.5q-56 0 -92.5 35.5z" />
    <glyph glyph-name="gbreve" unicode="&#x11f;" horiz-adv-x="548" 
d="M481 496v-504q0 -59 -27 -106.5t-78 -74.5t-120 -27q-54 0 -102 17.5t-79 47.5l38 50q24 -23 61 -36.5t78 -13.5q73 0 115.5 36t42.5 107v55q-25 -29 -63 -44t-82 -15q-66 0 -119.5 35.5t-84 95t-30.5 129.5t30.5 129.5t85 95t124.5 35.5q87 0 146 -53l22 41h42z
M349.5 66.5q32.5 15.5 60.5 46.5v276q-54 56 -135 56q-46 0 -85.5 -25t-63 -70t-23.5 -102q0 -54 21.5 -99t60.5 -71.5t90 -26.5q42 0 74.5 15.5zM178.5 607.5q-36.5 35.5 -39.5 96.5h53q2 -37 22 -57.5t57 -20.5q34 0 53.5 20.5t21.5 57.5h53q-4 -61 -39.5 -96.5
t-88.5 -35.5q-56 0 -92.5 35.5z" />
    <glyph glyph-name="Gdotaccent" unicode="&#x120;" horiz-adv-x="759" 
d="M684 0h-40l-28 50q-46 -31 -98.5 -46.5t-116.5 -15.5q-105 0 -187 48t-127.5 131t-45.5 185q0 103 47 186t130 130.5t187 47.5q165 0 279 -109l-46 -49q-43 42 -106 66.5t-133 24.5q-85 0 -149.5 -39.5t-98.5 -107t-34 -149.5q0 -85 37 -153.5t102.5 -107t147.5 -38.5
q63 0 118 16t91 48v191h-232v66h303v-375zM357 912h72v-73h-72v73z" />
    <glyph glyph-name="gdotaccent" unicode="&#x121;" horiz-adv-x="548" 
d="M481 496v-504q0 -59 -27 -106.5t-78 -74.5t-120 -27q-54 0 -102 17.5t-79 47.5l38 50q24 -23 61 -36.5t78 -13.5q73 0 115.5 36t42.5 107v55q-25 -29 -63 -44t-82 -15q-66 0 -119.5 35.5t-84 95t-30.5 129.5t30.5 129.5t85 95t124.5 35.5q87 0 146 -53l22 41h42z
M349.5 66.5q32.5 15.5 60.5 46.5v276q-54 56 -135 56q-46 0 -85.5 -25t-63 -70t-23.5 -102q0 -54 21.5 -99t60.5 -71.5t90 -26.5q42 0 74.5 15.5zM234 692h72v-73h-72v73z" />
    <glyph glyph-name="Gcommaaccent" unicode="&#x122;" horiz-adv-x="759" 
d="M684 0h-40l-28 50q-46 -31 -98.5 -46.5t-116.5 -15.5q-105 0 -187 48t-127.5 131t-45.5 185q0 103 47 186t130 130.5t187 47.5q165 0 279 -109l-46 -49q-43 42 -106 66.5t-133 24.5q-85 0 -149.5 -39.5t-98.5 -107t-34 -149.5q0 -85 37 -153.5t102.5 -107t147.5 -38.5
q63 0 118 16t91 48v191h-232v66h303v-375zM448 -77v-70q0 -22 -9.5 -49.5t-25.5 -51.5h-40q15 27 23.5 53t8.5 45v6h-26v67h69z" />
    <glyph glyph-name="gcommaaccent" unicode="&#x123;" horiz-adv-x="548" 
d="M481 496v-504q0 -59 -27 -106.5t-78 -74.5t-120 -27q-54 0 -102 17.5t-79 47.5l38 50q24 -23 61 -36.5t78 -13.5q73 0 115.5 36t42.5 107v55q-25 -29 -63 -44t-82 -15q-66 0 -119.5 35.5t-84 95t-30.5 129.5t30.5 129.5t85 95t124.5 35.5q87 0 146 -53l22 41h42z
M349.5 66.5q32.5 15.5 60.5 46.5v276q-54 56 -135 56q-46 0 -85.5 -25t-63 -70t-23.5 -102q0 -54 21.5 -99t60.5 -71.5t90 -26.5q42 0 74.5 15.5zM281 648h29v-69h-71v70q0 51 36 105h41q-33 -55 -35 -103v-3z" />
    <glyph glyph-name="Hcircumflex" unicode="&#x124;" horiz-adv-x="749" 
d="M584 704h72v-704h-72v329h-419v-329h-72v704h72v-308h419v308zM528 766h-69l-90 102l-88 -102h-66l123 146h67z" />
    <glyph glyph-name="hcircumflex" unicode="&#x125;" horiz-adv-x="529" 
d="M418 453.5q49 -54.5 49 -139.5v-314h-71v308q0 67 -34.5 102t-95.5 35q-41 0 -70.5 -16t-57.5 -48v-381h-71v704h71v-263q29 34 63 50.5t76 16.5q92 0 141 -54.5zM264 769h-69l-90 102l-88 -102h-66l123 146h67z" />
    <glyph glyph-name="Hbar" unicode="&#x126;" horiz-adv-x="749" 
d="M723 581v-52h-67v-529h-72v329h-419v-329h-72v529h-67v52h67v123h72v-123h419v123h72v-123h67zM584 396v133h-419v-133h419z" />
    <glyph glyph-name="hbar" unicode="&#x127;" horiz-adv-x="529" 
d="M418 453.5q49 -54.5 49 -139.5v-314h-71v308q0 67 -34.5 102t-95.5 35q-41 0 -70.5 -16t-57.5 -48v-381h-71v584h-52v48h52v72h71v-72h164v-48h-164v-143q29 34 63 50.5t76 16.5q92 0 141 -54.5z" />
    <glyph glyph-name="Itilde" unicode="&#x128;" horiz-adv-x="257" 
d="M93 704h72v-704h-72v704zM155.5 794q-20.5 13 -52.5 38q-32 28 -41 28q-12 0 -12 -12v-61h-49v54q0 40 12.5 58t42.5 18q18 0 38 -12.5t50 -37.5q14 -12 26.5 -21t18.5 -9q12 0 12 12v63h50v-56q0 -39 -13 -57t-44 -18q-18 0 -38.5 13z" />
    <glyph glyph-name="itilde" unicode="&#x129;" horiz-adv-x="205" 
d="M67 496h71v-496h-71v496zM128.5 586q-20.5 13 -52.5 38q-32 28 -41 28q-12 0 -12 -12v-61h-49v54q0 40 12.5 58t42.5 18q18 0 38 -12.5t50 -37.5q14 -12 26.5 -21t18.5 -9q12 0 12 12v63h50v-56q0 -39 -13 -57t-44 -18q-18 0 -38.5 13z" />
    <glyph glyph-name="Imacron" unicode="&#x12a;" horiz-adv-x="257" 
d="M93 704h72v-704h-72v704zM-14 879h286v-56h-286v56z" />
    <glyph glyph-name="imacron" unicode="&#x12b;" horiz-adv-x="205" 
d="M67 496h71v-496h-71v496zM-41 674h286v-56h-286v56z" />
    <glyph glyph-name="Ibreve" unicode="&#x12c;" horiz-adv-x="257" 
d="M93 704h72v-704h-72v704zM37.5 815.5q-36.5 35.5 -39.5 96.5h53q2 -37 22 -57.5t57 -20.5q34 0 53.5 20.5t21.5 57.5h53q-4 -61 -39.5 -96.5t-88.5 -35.5q-56 0 -92.5 35.5z" />
    <glyph glyph-name="ibreve" unicode="&#x12d;" horiz-adv-x="205" 
d="M67 496h71v-496h-71v496zM10.5 607.5q-36.5 35.5 -39.5 96.5h53q2 -37 22 -57.5t57 -20.5q34 0 53.5 20.5t21.5 57.5h53q-4 -61 -39.5 -96.5t-88.5 -35.5q-56 0 -92.5 35.5z" />
    <glyph glyph-name="Iogonek" unicode="&#x12e;" horiz-adv-x="257" 
d="M69 -125q0 -17 9 -26t25 -9q24 0 41 16l21 -46q-34 -26 -70 -26q-38 0 -62 19.5t-24 57.5q0 36 23.5 73t62.5 66h-2v704h72v-704h-5q-91 -67 -91 -125z" />
    <glyph glyph-name="iogonek" unicode="&#x12f;" horiz-adv-x="205" 
d="M138 692v-73h-72v73h72zM160 -190q-32 -26 -73 -26q-38 0 -60.5 19.5t-22.5 57.5q0 32 22 66.5t58 72.5h-17v496h71v-496q-40 -42 -56.5 -71t-16.5 -56q0 -16 8.5 -24.5t24.5 -8.5q25 0 42 16z" />
    <glyph glyph-name="Idotaccent" unicode="&#x130;" horiz-adv-x="257" 
d="M93 704h72v-704h-72v704zM93 900h72v-73h-72v73z" />
    <glyph glyph-name="dotlessi" unicode="&#x131;" horiz-adv-x="205" 
d="M67 496h71v-496h-71v496z" />
    <glyph glyph-name="IJ" unicode="&#x132;" horiz-adv-x="648" 
d="M93 704h72v-704h-72v704zM218 55l46 44q41 -47 112 -47q57 0 89 33.5t32 91.5v527h72v-523q0 -57 -24.5 -100.5t-68.5 -68t-100 -24.5q-100 0 -158 67z" />
    <glyph glyph-name="ij" unicode="&#x133;" horiz-adv-x="409" 
d="M66 692h72v-73h-72v73zM271 692h72v-73h-72v73zM67 496h71v-496h-71v496zM224 -154q21 0 34.5 14.5t13.5 41.5v594h71v-593q0 -54 -32 -86.5t-86 -32.5q-40 0 -73 21l31 54q18 -13 41 -13z" />
    <glyph glyph-name="Jcircumflex" unicode="&#x134;" horiz-adv-x="471" 
d="M87 4.5q-44 16.5 -76 48.5l44 50q23 -24 56 -37.5t72 -13.5q64 0 100 38t36 102v512h72v-509q0 -93 -56 -150t-154 -57q-50 0 -94 16.5zM512 766h-69l-90 102l-88 -102h-66l123 146h67z" />
    <glyph glyph-name="jcircumflex" unicode="&#x135;" horiz-adv-x="205" 
d="M19 -154q21 0 34.5 14.5t13.5 41.5v594h71v-593q0 -54 -32 -86.5t-86 -32.5q-40 0 -73 21l31 54q20 -13 41 -13zM258 558h-69l-90 102l-88 -102h-66l123 146h67z" />
    <glyph glyph-name="Kcommaaccent" unicode="&#x136;" horiz-adv-x="659" 
d="M663 0h-87l-273 336l-138 -149v-187h-72v704h72v-429l390 429h88l-295 -319zM396 -77v-70q0 -22 -9.5 -49.5t-25.5 -51.5h-40q15 27 23.5 53t8.5 45v6h-26v67h69z" />
    <glyph glyph-name="kcommaaccent" unicode="&#x137;" horiz-adv-x="497" 
d="M503 0h-84l-184 240l-97 -101v-139h-71v704h71v-483l258 275h85l-201 -209zM310 -77v-70q0 -22 -9.5 -49.5t-25.5 -51.5h-40q15 27 23.5 53t8.5 45v6h-26v67h69z" />
    <glyph glyph-name="kgreenlandic" unicode="&#x138;" horiz-adv-x="497" 
d="M503 0h-84l-184 240l-97 -101v-139h-71v496h71v-275l258 275h85l-201 -209z" />
    <glyph glyph-name="Lacute" unicode="&#x139;" horiz-adv-x="541" 
d="M165 66h362v-66h-434v704h72v-638zM92 772l90 140h76l-109 -144h-57v4z" />
    <glyph glyph-name="lacute" unicode="&#x13a;" horiz-adv-x="205" 
d="M67 704h71v-704h-71v704zM74 773l90 140h76l-109 -144h-57v4z" />
    <glyph glyph-name="Lcommaaccent" unicode="&#x13b;" horiz-adv-x="541" 
d="M165 66h362v-66h-434v704h72v-638zM348 -77v-70q0 -22 -9.5 -49.5t-25.5 -51.5h-40q15 27 23.5 53t8.5 45v6h-26v67h69z" />
    <glyph glyph-name="lcommaaccent" unicode="&#x13c;" horiz-adv-x="205" 
d="M67 704h71v-704h-71v704zM137 -77v-70q0 -22 -9.5 -49.5t-25.5 -51.5h-40q15 27 23.5 53t8.5 45v6h-26v67h69z" />
    <glyph glyph-name="Lcaron" unicode="&#x13d;" horiz-adv-x="541" 
d="M165 66h362v-66h-434v704h72v-638zM278 704h62q-6 -101 -30 -217h-46q11 106 14 217z" />
    <glyph glyph-name="lcaron" unicode="&#x13e;" horiz-adv-x="208" 
d="M67 704h71v-704h-71v704zM184 704h60q-7 -73 -23 -147q-1 -6 -2 -11l-2 -10h-44q6 64 11 168z" />
    <glyph glyph-name="Ldot" unicode="&#x13f;" horiz-adv-x="541" 
d="M165 66h362v-66h-434v704h72v-638zM351 429h89v-90h-89v90z" />
    <glyph glyph-name="ldot" unicode="&#x140;" horiz-adv-x="311" 
d="M67 704h71v-704h-71v704zM213 406h89v-90h-89v90z" />
    <glyph glyph-name="Lslash" unicode="&#x141;" horiz-adv-x="541" 
d="M165 66h362v-66h-434v293l-79 -49v57l79 49v354h72v-310l180 111v-57l-180 -111v-271z" />
    <glyph glyph-name="lslash" unicode="&#x142;" horiz-adv-x="205" 
d="M225 521v-55l-87 -52v-414h-71v371l-84 -51v55l84 51v278h71v-235z" />
    <glyph glyph-name="Nacute" unicode="&#x143;" horiz-adv-x="744" 
d="M580 704h71v-704h-43l-444 555v-555h-71v704h41l446 -560v560zM316 772l90 140h76l-109 -144h-57v4z" />
    <glyph glyph-name="nacute" unicode="&#x144;" horiz-adv-x="529" 
d="M372 708l-110 -144h-58v4l91 140h77zM418 453.5q49 -54.5 49 -139.5v-314h-71v308q0 68 -35 102.5t-96 34.5q-75 0 -127 -64v-381h-71v496h40l31 -55q29 34 63 50.5t76 16.5q92 0 141 -54.5z" />
    <glyph glyph-name="Ncommaaccent" unicode="&#x145;" horiz-adv-x="744" 
d="M580 704h71v-704h-43l-444 555v-555h-71v704h41l446 -560v560zM414 -77v-70q0 -22 -9.5 -49.5t-25.5 -51.5h-40q15 27 23.5 53t8.5 45v6h-26v67h69z" />
    <glyph glyph-name="ncommaaccent" unicode="&#x146;" horiz-adv-x="529" 
d="M418 453.5q49 -54.5 49 -139.5v-314h-71v308q0 68 -35 102.5t-96 34.5q-75 0 -127 -64v-381h-71v496h40l31 -55q29 34 63 50.5t76 16.5q92 0 141 -54.5zM303 -77v-70q0 -22 -9.5 -49.5t-25.5 -51.5h-40q15 27 23.5 53t8.5 45v6h-26v67h69z" />
    <glyph glyph-name="Ncaron" unicode="&#x147;" horiz-adv-x="744" 
d="M580 704h71v-704h-43l-444 555v-555h-71v704h41l446 -560v560zM466 912h66l-123 -146h-67l-124 146h70l90 -102z" />
    <glyph glyph-name="ncaron" unicode="&#x148;" horiz-adv-x="529" 
d="M228 558l-124 146h70l91 -102l88 102h66l-123 -146h-68zM418 453.5q49 -54.5 49 -139.5v-314h-71v308q0 68 -35 102.5t-96 34.5q-75 0 -127 -64v-381h-71v496h40l31 -55q29 34 63 50.5t76 16.5q92 0 141 -54.5z" />
    <glyph glyph-name="napostrophe" unicode="&#x149;" horiz-adv-x="742" 
d="M149 704v-87q0 -51 -37 -105h-49q36 62 36 105v8h-29v79h79zM631 453.5q49 -54.5 49 -139.5v-314h-71v308q0 68 -35 102.5t-96 34.5q-75 0 -127 -64v-381h-71v496h40l31 -55q29 34 63 50.5t76 16.5q92 0 141 -54.5z" />
    <glyph glyph-name="Eng" unicode="&#x14a;" horiz-adv-x="744" 
d="M651 704v-792q0 -56 -33 -92t-87 -36q-50 0 -87 27l32 55q22 -17 47 -17q30 0 43.5 15t13.5 47v124l-416 520v-555h-71v704h41l446 -560v560h71z" />
    <glyph glyph-name="eng" unicode="&#x14b;" horiz-adv-x="529" 
d="M418 453.5q49 -54.5 49 -139.5v-411q0 -54 -32.5 -86.5t-87.5 -32.5q-39 0 -72 21l32 54q18 -13 41 -13q21 0 34.5 14.5t13.5 41.5v406q0 68 -35 102.5t-96 34.5q-75 0 -127 -64v-381h-71v496h40l31 -55q29 34 63 50.5t76 16.5q92 0 141 -54.5z" />
    <glyph glyph-name="Omacron" unicode="&#x14c;" horiz-adv-x="804" 
d="M218.5 36q-82.5 48 -130 131t-47.5 185q0 103 47 186t129.5 130.5t184.5 47.5t184.5 -47.5t129.5 -131t47 -185.5t-47 -185t-129.5 -131t-184.5 -48q-101 0 -183.5 48zM548 93.5q65 38.5 102 106t37 152.5q0 86 -37 153.5t-102 105.5t-146 38q-80 0 -145 -38t-102.5 -106
t-37.5 -153t37 -153t101.5 -106t146.5 -38q81 0 146 38.5zM257 879h286v-56h-286v56z" />
    <glyph glyph-name="omacron" unicode="&#x14d;" horiz-adv-x="556" 
d="M151.5 22q-56.5 34 -88.5 93.5t-32 132.5t32 132.5t88.5 93.5t126.5 34q71 0 127 -34t88 -93.5t32 -132.5t-32 -132.5t-88 -93.5t-127 -34q-70 0 -126.5 34zM368 77q40 26 62.5 71t22.5 100t-22.5 100t-62.5 71t-90 26t-90 -26t-62.5 -71t-22.5 -100t22.5 -100t62.5 -71
t90 -26t90 26zM134 674h286v-56h-286v56z" />
    <glyph glyph-name="Obreve" unicode="&#x14e;" horiz-adv-x="804" 
d="M218.5 36q-82.5 48 -130 131t-47.5 185q0 103 47 186t129.5 130.5t184.5 47.5t184.5 -47.5t129.5 -131t47 -185.5t-47 -185t-129.5 -131t-184.5 -48q-101 0 -183.5 48zM548 93.5q65 38.5 102 106t37 152.5q0 86 -37 153.5t-102 105.5t-146 38q-80 0 -145 -38t-102.5 -106
t-37.5 -153t37 -153t101.5 -106t146.5 -38q81 0 146 38.5zM309.5 815.5q-36.5 35.5 -39.5 96.5h53q2 -37 22 -57.5t57 -20.5q34 0 53.5 20.5t21.5 57.5h53q-4 -61 -39.5 -96.5t-88.5 -35.5q-56 0 -92.5 35.5z" />
    <glyph glyph-name="obreve" unicode="&#x14f;" horiz-adv-x="556" 
d="M151.5 22q-56.5 34 -88.5 93.5t-32 132.5t32 132.5t88.5 93.5t126.5 34q71 0 127 -34t88 -93.5t32 -132.5t-32 -132.5t-88 -93.5t-127 -34q-70 0 -126.5 34zM368 77q40 26 62.5 71t22.5 100t-22.5 100t-62.5 71t-90 26t-90 -26t-62.5 -71t-22.5 -100t22.5 -100t62.5 -71
t90 -26t90 26zM185.5 607.5q-36.5 35.5 -39.5 96.5h53q2 -37 22 -57.5t57 -20.5q34 0 53.5 20.5t21.5 57.5h53q-4 -61 -39.5 -96.5t-88.5 -35.5q-56 0 -92.5 35.5z" />
    <glyph glyph-name="Ohungarumlaut" unicode="&#x150;" horiz-adv-x="804" 
d="M218.5 36q-82.5 48 -130 131t-47.5 185q0 103 47 186t129.5 130.5t184.5 47.5t184.5 -47.5t129.5 -131t47 -185.5t-47 -185t-129.5 -131t-184.5 -48q-101 0 -183.5 48zM548 93.5q65 38.5 102 106t37 152.5q0 86 -37 153.5t-102 105.5t-146 38q-80 0 -145 -38t-102.5 -106
t-37.5 -153t37 -153t101.5 -106t146.5 -38q81 0 146 38.5zM305 769l93 142h70l-111 -146h-52v4zM431 769l93 142h73l-117 -146h-49v4z" />
    <glyph glyph-name="ohungarumlaut" unicode="&#x151;" horiz-adv-x="556" 
d="M151.5 22q-56.5 34 -88.5 93.5t-32 132.5t32 132.5t88.5 93.5t126.5 34q71 0 127 -34t88 -93.5t32 -132.5t-32 -132.5t-88 -93.5t-127 -34q-70 0 -126.5 34zM368 77q40 26 62.5 71t22.5 100t-22.5 100t-62.5 71t-90 26t-90 -26t-62.5 -71t-22.5 -100t22.5 -100t62.5 -71
t90 -26t90 26zM177 562l93 142h70l-111 -146h-52v4zM303 562l93 142h73l-117 -146h-49v4z" />
    <glyph glyph-name="OE" unicode="&#x152;" horiz-adv-x="1021" 
d="M970 66v-66h-453q-51 -12 -112 -12q-102 0 -185 48t-131 131t-48 185t48 185t131 131t185 48q61 0 112 -12h439v-66h-367v-240h327v-66h-327v-266h381zM517 68v568q-46 13 -106 13q-83 0 -150 -38t-105.5 -106t-38.5 -153t38.5 -153t105.5 -106t150 -38q60 0 106 13z" />
    <glyph glyph-name="oe" unicode="&#x153;" horiz-adv-x="935" 
d="M527 236q0 -53 21.5 -95.5t60.5 -66.5t89 -24q45 0 83.5 17t66.5 53l47 -39q-30 -42 -81.5 -67.5t-115.5 -25.5q-74 0 -127 33t-82 90q-31 -57 -86.5 -90t-124.5 -33q-70 0 -126.5 34t-88.5 93.5t-32 132.5t32 132.5t88.5 93.5t126.5 34t125.5 -33.5t86.5 -90.5
q28 57 78.5 90.5t117.5 33.5q71 0 120 -32t73 -85.5t24 -119.5v-31h-376v-4zM581.5 405q-41.5 -41 -51.5 -111h304q-5 71 -45.5 111.5t-102.5 40.5q-63 0 -104.5 -41zM369 77q40 26 62 71t22 100t-22.5 100t-62.5 71t-90 26t-90 -26t-62.5 -71t-22.5 -100t22.5 -100
t62.5 -71t90 -26q51 0 91 26z" />
    <glyph glyph-name="Racute" unicode="&#x154;" horiz-adv-x="619" 
d="M521 0l-225 285h-131v-285h-72v704h215q68 0 120 -27t80.5 -74.5t28.5 -107.5q0 -77 -44.5 -129t-120.5 -69l236 -297h-87zM165 351h140q72 0 115.5 38.5t43.5 105.5q0 64 -43.5 103.5t-112.5 39.5h-143v-287zM232 772l90 140h76l-109 -144h-57v4z" />
    <glyph glyph-name="racute" unicode="&#x155;" horiz-adv-x="352" 
d="M305.5 501.5q22.5 -6.5 37.5 -17.5l-28 -51q-20 13 -60 13q-80 0 -117 -59v-387h-71v496h43l25 -45q18 27 50 42t71 15q27 0 49.5 -6.5zM145 564l90 140h76l-109 -144h-57v4z" />
    <glyph glyph-name="Rcommaaccent" unicode="&#x156;" horiz-adv-x="619" 
d="M521 0l-225 285h-131v-285h-72v704h215q68 0 120 -27t80.5 -74.5t28.5 -107.5q0 -77 -44.5 -129t-120.5 -69l236 -297h-87zM165 351h140q72 0 115.5 38.5t43.5 105.5q0 64 -43.5 103.5t-112.5 39.5h-143v-287zM356 -77v-70q0 -22 -9.5 -49.5t-25.5 -51.5h-40
q15 27 23.5 53t8.5 45v6h-26v67h69z" />
    <glyph glyph-name="rcommaaccent" unicode="&#x157;" horiz-adv-x="352" 
d="M305.5 501.5q22.5 -6.5 37.5 -17.5l-28 -51q-20 13 -60 13q-80 0 -117 -59v-387h-71v496h43l25 -45q18 27 50 42t71 15q27 0 49.5 -6.5zM141 -77v-70q0 -22 -9.5 -49.5t-25.5 -51.5h-40q15 27 23.5 53t8.5 45v6h-26v67h69z" />
    <glyph glyph-name="Rcaron" unicode="&#x158;" horiz-adv-x="619" 
d="M521 0l-225 285h-131v-285h-72v704h215q68 0 120 -27t80.5 -74.5t28.5 -107.5q0 -77 -44.5 -129t-120.5 -69l236 -297h-87zM165 351h140q72 0 115.5 38.5t43.5 105.5q0 64 -43.5 103.5t-112.5 39.5h-143v-287zM382 912h66l-123 -146h-67l-124 146h70l90 -102z" />
    <glyph glyph-name="rcaron" unicode="&#x159;" horiz-adv-x="352" 
d="M305.5 501.5q22.5 -6.5 37.5 -17.5l-28 -51q-20 13 -60 13q-80 0 -117 -59v-387h-71v496h43l25 -45q18 27 50 42t71 15q27 0 49.5 -6.5zM295 704h66l-123 -146h-67l-124 146h70l90 -102z" />
    <glyph glyph-name="Sacute" unicode="&#x15a;" horiz-adv-x="590" 
d="M158 14.5q-66 26.5 -115 75.5l44 52q42 -41 97 -64t117 -23q85 0 127.5 34t42.5 93q0 54 -36.5 84t-127.5 51l-56 14q-81 18 -137.5 65t-56.5 129q0 52 27.5 95.5t81 69.5t126.5 26q139 0 240 -85l-47 -51q-38 32 -88.5 50.5t-101.5 18.5q-79 0 -120.5 -33t-41.5 -87
q0 -57 41 -87.5t129 -50.5l57 -14q92 -21 139.5 -69t47.5 -122q0 -57 -28.5 -102t-84 -70.5t-134.5 -25.5q-76 0 -142 26.5zM234 772l90 140h76l-109 -144h-57v4z" />
    <glyph glyph-name="sacute" unicode="&#x15b;" horiz-adv-x="441" 
d="M116 7.5q-50 19.5 -85 59.5l42 45q31 -31 68 -47t85 -16t79 20t31 57q0 33 -23 54.5t-81 36.5l-47 12q-142 36 -142 140q0 63 49 101t127 38q53 0 101 -18t79 -49l-38 -45q-57 51 -144 51q-50 0 -76 -20t-26 -53q0 -35 25.5 -54t85.5 -35l46 -12q71 -18 105 -55.5
t34 -87.5q0 -64 -51.5 -103t-134.5 -39q-59 0 -109 19.5zM160 564l90 140h76l-109 -144h-57v4z" />
    <glyph glyph-name="Scircumflex" unicode="&#x15c;" horiz-adv-x="590" 
d="M158 14.5q-66 26.5 -115 75.5l44 52q42 -41 97 -64t117 -23q85 0 127.5 34t42.5 93q0 54 -36.5 84t-127.5 51l-56 14q-81 18 -137.5 65t-56.5 129q0 52 27.5 95.5t81 69.5t126.5 26q139 0 240 -85l-47 -51q-38 32 -88.5 50.5t-101.5 18.5q-79 0 -120.5 -33t-41.5 -87
q0 -57 41 -87.5t129 -50.5l57 -14q92 -21 139.5 -69t47.5 -122q0 -57 -28.5 -102t-84 -70.5t-134.5 -25.5q-76 0 -142 26.5zM450 766h-69l-90 102l-88 -102h-66l123 146h67z" />
    <glyph glyph-name="scircumflex" unicode="&#x15d;" horiz-adv-x="441" 
d="M116 7.5q-50 19.5 -85 59.5l42 45q31 -31 68 -47t85 -16t79 20t31 57q0 33 -23 54.5t-81 36.5l-47 12q-142 36 -142 140q0 63 49 101t127 38q53 0 101 -18t79 -49l-38 -45q-57 51 -144 51q-50 0 -76 -20t-26 -53q0 -35 25.5 -54t85.5 -35l46 -12q71 -18 105 -55.5
t34 -87.5q0 -64 -51.5 -103t-134.5 -39q-59 0 -109 19.5zM376 558h-69l-90 102l-88 -102h-66l123 146h67z" />
    <glyph glyph-name="Scedilla" unicode="&#x15e;" horiz-adv-x="590" 
d="M519.5 86q-27.5 -44 -81 -70.5t-129.5 -27.5l-17 -49q32 -6 50.5 -25.5t18.5 -48.5q0 -34 -24 -54.5t-59 -20.5q-22 0 -41 8.5t-28 22.5l22 30q20 -18 44 -18q18 0 28.5 9.5t10.5 25.5t-14 26t-37 10h-18l31 85q-68 4 -128 30t-105 71l44 52q42 -41 97 -64t117 -23
q85 0 127.5 34t42.5 93q0 54 -36.5 84t-127.5 51l-56 14q-81 18 -137.5 65t-56.5 129q0 52 27.5 95.5t81 69.5t126.5 26q139 0 240 -85l-47 -51q-38 32 -88.5 50.5t-101.5 18.5q-79 0 -120.5 -33t-41.5 -87q0 -57 41 -87.5t129 -50.5l57 -14q92 -21 139.5 -69t47.5 -122
q0 -56 -27.5 -100z" />
    <glyph glyph-name="scedilla" unicode="&#x15f;" horiz-adv-x="441" 
d="M361 28.5q-50 -38.5 -131 -40.5l-16 -46q32 -6 50.5 -25.5t18.5 -48.5q0 -34 -24 -54.5t-59 -20.5q-22 0 -41 8.5t-28 22.5l22 30q20 -18 44 -18q18 0 28.5 9.5t10.5 25.5t-14 26t-37 10h-18l30 82q-106 10 -166 78l42 45q31 -31 68 -47t85 -16t79 20t31 57
q0 33 -23 54.5t-81 36.5l-47 12q-142 36 -142 140q0 63 49 101t127 38q53 0 101 -18t79 -49l-38 -45q-57 51 -144 51q-50 0 -76 -20t-26 -53q0 -35 25.5 -54t85.5 -35l46 -12q71 -18 105 -55.5t34 -87.5q0 -63 -50 -101.5z" />
    <glyph glyph-name="Scaron" unicode="&#x160;" horiz-adv-x="590" 
d="M158 14.5q-66 26.5 -115 75.5l44 52q42 -41 97 -64t117 -23q85 0 127.5 34t42.5 93q0 54 -36.5 84t-127.5 51l-56 14q-81 18 -137.5 65t-56.5 129q0 52 27.5 95.5t81 69.5t126.5 26q139 0 240 -85l-47 -51q-38 32 -88.5 50.5t-101.5 18.5q-79 0 -120.5 -33t-41.5 -87
q0 -57 41 -87.5t129 -50.5l57 -14q92 -21 139.5 -69t47.5 -122q0 -57 -28.5 -102t-84 -70.5t-134.5 -25.5q-76 0 -142 26.5zM384 912h66l-123 -146h-67l-124 146h70l90 -102z" />
    <glyph glyph-name="scaron" unicode="&#x161;" horiz-adv-x="441" 
d="M116 7.5q-50 19.5 -85 59.5l42 45q31 -31 68 -47t85 -16t79 20t31 57q0 33 -23 54.5t-81 36.5l-47 12q-142 36 -142 140q0 63 49 101t127 38q53 0 101 -18t79 -49l-38 -45q-57 51 -144 51q-50 0 -76 -20t-26 -53q0 -35 25.5 -54t85.5 -35l46 -12q71 -18 105 -55.5
t34 -87.5q0 -64 -51.5 -103t-134.5 -39q-59 0 -109 19.5zM310 704h66l-123 -146h-67l-124 146h70l90 -102z" />
    <glyph glyph-name="uni0162" unicode="&#x162;" horiz-adv-x="615" 
d="M600 704v-66h-257v-638h-72v638h-256v66h585zM342 -77v-70q0 -22 -9.5 -49.5t-25.5 -51.5h-40q15 27 23.5 53t8.5 45v6h-26v67h69z" />
    <glyph glyph-name="uni0163" unicode="&#x163;" horiz-adv-x="372" 
d="M363 33q-52 -45 -120 -45q-67 0 -110 40.5t-43 107.5v302h-84v58h89v121l62 39h4v-160h197v-58h-197v-294q0 -40 23 -65.5t63 -25.5q45 0 80 29zM248 -77v-70q0 -22 -9.5 -49.5t-25.5 -51.5h-40q15 27 23.5 53t8.5 45v6h-26v67h69z" />
    <glyph glyph-name="Tcaron" unicode="&#x164;" horiz-adv-x="615" 
d="M600 704v-66h-257v-638h-72v638h-256v66h585zM398 912h66l-123 -146h-67l-124 146h70l90 -102z" />
    <glyph glyph-name="tcaron" unicode="&#x165;" horiz-adv-x="372" 
d="M363 33q-52 -45 -120 -45q-67 0 -110 40.5t-43 107.5v302h-84v58h89v121l62 39h4v-160h197v-58h-197v-294q0 -40 23 -65.5t63 -25.5q45 0 80 29zM226 704h60q-7 -73 -23 -147q-1 -6 -2 -11l-2 -10h-44q6 64 11 168z" />
    <glyph glyph-name="Tbar" unicode="&#x166;" horiz-adv-x="615" 
d="M600 638h-257v-274h156v-49h-156v-315h-72v315h-145v49h145v274h-256v66h585v-66z" />
    <glyph glyph-name="tbar" unicode="&#x167;" horiz-adv-x="372" 
d="M363 33q-52 -45 -120 -45q-67 0 -110 40.5t-43 107.5v108h-74v49h74v145h-84v58h89v121l62 39h4v-160h197v-58h-197v-145h178v-49h-178v-100q0 -40 23 -65.5t63 -25.5q45 0 80 29z" />
    <glyph glyph-name="Utilde" unicode="&#x168;" horiz-adv-x="749" 
d="M225.5 24.5q-67.5 36.5 -106.5 103.5t-39 154v422h72v-422q0 -71 30 -122t81 -78t112 -27q62 0 112.5 26t80 77t29.5 124v422h72v-422q0 -87 -38.5 -154t-105.5 -103.5t-150 -36.5q-82 0 -149.5 36.5zM399.5 794q-20.5 13 -52.5 38q-32 28 -41 28q-12 0 -12 -12v-61h-49
v54q0 40 12.5 58t42.5 18q18 0 38 -12.5t50 -37.5q14 -12 26.5 -21t18.5 -9q12 0 12 12v63h50v-56q0 -39 -13 -57t-44 -18q-18 0 -38.5 13z" />
    <glyph glyph-name="utilde" unicode="&#x169;" horiz-adv-x="529" 
d="M463 496v-496h-40l-31 55q-30 -34 -64 -50.5t-76 -16.5q-91 0 -140 54.5t-49 139.5v314h71v-308q0 -68 35 -102.5t95 -34.5q76 0 128 64v381h71zM291.5 586q-20.5 13 -52.5 38q-32 28 -41 28q-12 0 -12 -12v-61h-49v54q0 40 12.5 58t42.5 18q18 0 38 -12.5t50 -37.5
q14 -12 26.5 -21t18.5 -9q12 0 12 12v63h50v-56q0 -39 -13 -57t-44 -18q-18 0 -38.5 13z" />
    <glyph glyph-name="Umacron" unicode="&#x16a;" horiz-adv-x="749" 
d="M225.5 24.5q-67.5 36.5 -106.5 103.5t-39 154v422h72v-422q0 -71 30 -122t81 -78t112 -27q62 0 112.5 26t80 77t29.5 124v422h72v-422q0 -87 -38.5 -154t-105.5 -103.5t-150 -36.5q-82 0 -149.5 36.5zM230 879h286v-56h-286v56z" />
    <glyph glyph-name="umacron" unicode="&#x16b;" horiz-adv-x="529" 
d="M463 496v-496h-40l-31 55q-30 -34 -64 -50.5t-76 -16.5q-91 0 -140 54.5t-49 139.5v314h71v-308q0 -68 35 -102.5t95 -34.5q76 0 128 64v381h71zM122 674h286v-56h-286v56z" />
    <glyph glyph-name="Ubreve" unicode="&#x16c;" horiz-adv-x="749" 
d="M225.5 24.5q-67.5 36.5 -106.5 103.5t-39 154v422h72v-422q0 -71 30 -122t81 -78t112 -27q62 0 112.5 26t80 77t29.5 124v422h72v-422q0 -87 -38.5 -154t-105.5 -103.5t-150 -36.5q-82 0 -149.5 36.5zM282.5 815.5q-36.5 35.5 -39.5 96.5h53q2 -37 22 -57.5t57 -20.5
q34 0 53.5 20.5t21.5 57.5h53q-4 -61 -39.5 -96.5t-88.5 -35.5q-56 0 -92.5 35.5z" />
    <glyph glyph-name="ubreve" unicode="&#x16d;" horiz-adv-x="529" 
d="M463 496v-496h-40l-31 55q-30 -34 -64 -50.5t-76 -16.5q-91 0 -140 54.5t-49 139.5v314h71v-308q0 -68 35 -102.5t95 -34.5q76 0 128 64v381h71zM173.5 607.5q-36.5 35.5 -39.5 96.5h53q2 -37 22 -57.5t57 -20.5q34 0 53.5 20.5t21.5 57.5h53q-4 -61 -39.5 -96.5
t-88.5 -35.5q-56 0 -92.5 35.5z" />
    <glyph glyph-name="Uring" unicode="&#x16e;" horiz-adv-x="749" 
d="M225.5 24.5q-67.5 36.5 -106.5 103.5t-39 154v422h72v-422q0 -71 30 -122t81 -78t112 -27q62 0 112.5 26t80 77t29.5 124v422h72v-422q0 -87 -38.5 -154t-105.5 -103.5t-150 -36.5q-82 0 -149.5 36.5zM312.5 783.5q-26.5 23.5 -26.5 60.5t26.5 60.5t62.5 23.5t62.5 -23.5
t26.5 -60.5t-26.5 -60.5t-62.5 -23.5t-62.5 23.5zM405 814q11 11 11 30q0 18 -11 29.5t-30 11.5t-30 -11.5t-11 -29.5t11 -29.5t30 -11.5t30 11z" />
    <glyph glyph-name="uring" unicode="&#x16f;" horiz-adv-x="529" 
d="M463 496v-496h-40l-31 55q-30 -34 -64 -50.5t-76 -16.5q-91 0 -140 54.5t-49 139.5v314h71v-308q0 -68 35 -102.5t95 -34.5q76 0 128 64v381h71zM203.5 575.5q-26.5 23.5 -26.5 60.5t26.5 60.5t62.5 23.5t62.5 -23.5t26.5 -60.5t-26.5 -60.5t-62.5 -23.5t-62.5 23.5z
M296 606q11 11 11 30q0 18 -11 29.5t-30 11.5t-30 -11.5t-11 -29.5t11 -29.5t30 -11.5t30 11z" />
    <glyph glyph-name="Uhungarumlaut" unicode="&#x170;" horiz-adv-x="749" 
d="M225.5 24.5q-67.5 36.5 -106.5 103.5t-39 154v422h72v-422q0 -71 30 -122t81 -78t112 -27q62 0 112.5 26t80 77t29.5 124v422h72v-422q0 -87 -38.5 -154t-105.5 -103.5t-150 -36.5q-82 0 -149.5 36.5zM278 769l93 142h70l-111 -146h-52v4zM404 769l93 142h73l-117 -146
h-49v4z" />
    <glyph glyph-name="uhungarumlaut" unicode="&#x171;" horiz-adv-x="529" 
d="M463 496v-496h-40l-31 55q-30 -34 -64 -50.5t-76 -16.5q-91 0 -140 54.5t-49 139.5v314h71v-308q0 -68 35 -102.5t95 -34.5q76 0 128 64v381h71zM165 562l93 142h70l-111 -146h-52v4zM291 562l93 142h73l-117 -146h-49v4z" />
    <glyph glyph-name="Uogonek" unicode="&#x172;" horiz-adv-x="749" 
d="M669 704v-422q0 -109 -58.5 -184.5t-154.5 -99.5q-88 -65 -88 -123q0 -17 9 -26t25 -9q24 0 41 16l21 -46q-34 -26 -70 -26q-38 0 -62 19.5t-24 57.5q0 32 19 65.5t52 61.5h-4q-82 0 -149.5 36.5t-106.5 103.5t-39 154v422h72v-422q0 -71 30 -122t81 -78t112 -27
q62 0 112.5 26t80 77t29.5 124v422h72z" />
    <glyph glyph-name="uogonek" unicode="&#x173;" horiz-adv-x="529" 
d="M388.5 -65.5q-21.5 -31.5 -21.5 -58.5q0 -17 9 -26t25 -9q24 0 41 16l21 -46q-34 -26 -70 -26q-38 0 -62 19.5t-24 57.5q0 40 29.5 81.5t77.5 71.5l-22 40q-30 -34 -64 -50.5t-76 -16.5q-91 0 -140 54.5t-49 139.5v314h71v-308q0 -68 35 -102.5t95 -34.5q76 0 128 64v381
h71v-496h-7q-46 -34 -67.5 -65.5z" />
    <glyph glyph-name="Wcircumflex" unicode="&#x174;" horiz-adv-x="1058" 
d="M973 704h76l-267 -704h-47l-208 566l-204 -566h-47l-267 704h77l215 -580l202 580h51l206 -579zM684 766h-69l-90 102l-88 -102h-66l123 146h67z" />
    <glyph glyph-name="wcircumflex" unicode="&#x175;" horiz-adv-x="811" 
d="M739 496h72l-198 -499h-46l-160 380l-164 -380h-45l-198 499h75l148 -387l161 390h44l163 -392zM563 558h-69l-90 102l-88 -102h-66l123 146h67z" />
    <glyph glyph-name="Ycircumflex" unicode="&#x176;" horiz-adv-x="633" 
d="M550 704h81l-276 -433v-271h-72v271l-281 433h81l236 -365zM472 766h-69l-90 102l-88 -102h-66l123 146h67z" />
    <glyph glyph-name="ycircumflex" unicode="&#x177;" horiz-adv-x="488" 
d="M416 496h72l-312 -704h-69l107 237l-214 467h75l173 -390zM407 558h-69l-90 102l-88 -102h-66l123 146h67z" />
    <glyph glyph-name="Ydieresis" unicode="&#x178;" horiz-adv-x="633" 
d="M550 704h81l-276 -433v-271h-72v271l-281 433h81l236 -365zM198 899h69v-76h-69v76zM368 899h69v-76h-69v76z" />
    <glyph glyph-name="Zacute" unicode="&#x179;" horiz-adv-x="603" 
d="M129 63h440v-63h-535v40l423 601h-409v63h506v-44zM235 772l90 140h76l-109 -144h-57v4z" />
    <glyph glyph-name="zacute" unicode="&#x17a;" horiz-adv-x="412" 
d="M111 58h283v-58h-376v36l277 402h-267v58h365v-36zM149 564l90 140h76l-109 -144h-57v4z" />
    <glyph glyph-name="Zdotaccent" unicode="&#x17b;" horiz-adv-x="603" 
d="M129 63h440v-63h-535v40l423 601h-409v63h506v-44zM259 900h72v-73h-72v73z" />
    <glyph glyph-name="zdotaccent" unicode="&#x17c;" horiz-adv-x="412" 
d="M111 58h283v-58h-376v36l277 402h-267v58h365v-36zM173 692h72v-73h-72v73z" />
    <glyph glyph-name="Zcaron" unicode="&#x17d;" horiz-adv-x="603" 
d="M129 63h440v-63h-535v40l423 601h-409v63h506v-44zM385 912h66l-123 -146h-67l-124 146h70l90 -102z" />
    <glyph glyph-name="zcaron" unicode="&#x17e;" horiz-adv-x="412" 
d="M111 58h283v-58h-376v36l277 402h-267v58h365v-36zM299 704h66l-123 -146h-67l-124 146h70l90 -102z" />
    <glyph glyph-name="Schwa" unicode="&#x18f;" horiz-adv-x="772" 
d="M559 666.5q84 -49.5 128 -132.5t44 -183q0 -98 -42 -180.5t-124 -132.5t-195 -50q-109 0 -183 45.5t-110 120.5t-36 165v50h615q-2 80 -40.5 144t-105.5 100t-151 36q-71 0 -133 -25.5t-105 -70.5l-51 51q55 53 128 82.5t161 29.5q116 0 200 -49.5zM510 87.5
q62 32.5 99 89t45 126.5h-539q3 -80 36.5 -135.5t90.5 -84t128 -28.5q78 0 140 32.5z" />
    <glyph glyph-name="florin" unicode="&#x192;" 
d="M319 387h191v-57h-168q27 -67 36.5 -102.5t9.5 -74.5q0 -76 -48.5 -120.5t-126.5 -44.5q-50 0 -89.5 17t-77.5 52l42 49q25 -26 55 -40t71 -14q50 0 77.5 28t27.5 73q0 28 -8 57t-31 85l-13 35h-148v57h125q-21 57 -30 92.5t-9 71.5q0 76 49 120.5t127 44.5
q51 0 90.5 -17t76.5 -52l-42 -49q-25 26 -55 40t-71 14q-50 0 -77.5 -28t-27.5 -73q0 -29 7.5 -59t28.5 -83z" />
    <glyph glyph-name="Ohorn" unicode="&#x1a0;" horiz-adv-x="804" 
d="M730.5 508.5q32.5 -72.5 32.5 -156.5q0 -102 -47 -185t-129.5 -131t-184.5 -48q-101 0 -183.5 48t-130 131t-47.5 185q0 103 47 186t129.5 130.5t184.5 47.5q96 0 175 -42h21q59 0 59 46q0 25 -13 46l57 19q18 -33 18 -66q0 -35 -20.5 -58t-58.5 -30q58 -50 90.5 -122.5z
M548 93.5q65 38.5 102 106t37 152.5q0 86 -37 153.5t-102 105.5t-146 38q-80 0 -145 -38t-102.5 -106t-37.5 -153t37 -153t101.5 -106t146.5 -38q81 0 146 38.5z" />
    <glyph glyph-name="ohorn" unicode="&#x1a1;" horiz-adv-x="556" 
d="M515.5 455.5q-18.5 -22.5 -52.5 -30.5q30 -35 46 -80.5t16 -96.5q0 -73 -32 -132.5t-88 -93.5t-127 -34q-70 0 -126.5 34t-88.5 93.5t-32 132.5t32 132.5t88.5 93.5t126.5 34q78 0 139 -42q55 2 55 46q0 25 -13 46l57 19q18 -33 18 -66t-18.5 -55.5zM368 77
q40 26 62.5 71t22.5 100t-22.5 100t-62.5 71t-90 26t-90 -26t-62.5 -71t-22.5 -100t22.5 -100t62.5 -71t90 -26t90 26z" />
    <glyph glyph-name="Uhorn" unicode="&#x1af;" horiz-adv-x="764" 
d="M743 655q-26 -24 -74 -27v-346q0 -87 -38.5 -154t-105.5 -103.5t-150 -36.5q-82 0 -149.5 36.5t-106.5 103.5t-39 154v422h72v-422q0 -71 30 -122t81 -78t112 -27q62 0 112.5 26t80 77t29.5 124v422h72v-28q39 7 39 43q0 23 -13 47l57 18q17 -34 17 -65q0 -40 -26 -64z
" />
    <glyph glyph-name="uhorn" unicode="&#x1b0;" horiz-adv-x="559" 
d="M543 445q-29 -24 -80 -25v-420h-40l-31 55q-30 -34 -64 -50.5t-76 -16.5q-91 0 -140 54.5t-49 139.5v314h71v-308q0 -68 35 -102.5t95 -34.5q76 0 128 64v381h71v-30q24 2 36 12.5t12 32.5q0 23 -13 47l57 18q17 -34 17 -65q0 -42 -29 -66z" />
    <glyph glyph-name="Scommaaccent" unicode="&#x218;" horiz-adv-x="590" 
d="M158 14.5q-66 26.5 -115 75.5l44 52q42 -41 97 -64t117 -23q85 0 127.5 34t42.5 93q0 54 -36.5 84t-127.5 51l-56 14q-81 18 -137.5 65t-56.5 129q0 52 27.5 95.5t81 69.5t126.5 26q139 0 240 -85l-47 -51q-38 32 -88.5 50.5t-101.5 18.5q-79 0 -120.5 -33t-41.5 -87
q0 -57 41 -87.5t129 -50.5l57 -14q92 -21 139.5 -69t47.5 -122q0 -57 -28.5 -102t-84 -70.5t-134.5 -25.5q-76 0 -142 26.5zM332 -77v-70q0 -22 -9.5 -49.5t-25.5 -51.5h-40q15 27 23.5 53t8.5 45v6h-26v67h69z" />
    <glyph glyph-name="scommaaccent" unicode="&#x219;" horiz-adv-x="441" 
d="M116 7.5q-50 19.5 -85 59.5l42 45q31 -31 68 -47t85 -16t79 20t31 57q0 33 -23 54.5t-81 36.5l-47 12q-142 36 -142 140q0 63 49 101t127 38q53 0 101 -18t79 -49l-38 -45q-57 51 -144 51q-50 0 -76 -20t-26 -53q0 -35 25.5 -54t85.5 -35l46 -12q71 -18 105 -55.5
t34 -87.5q0 -64 -51.5 -103t-134.5 -39q-59 0 -109 19.5zM254 -74v-70q0 -22 -9.5 -49.5t-25.5 -51.5h-40q15 27 23.5 53t8.5 45v6h-26v67h69z" />
    <glyph glyph-name="uni021A" unicode="&#x21a;" horiz-adv-x="615" 
d="M600 704v-66h-257v-638h-72v638h-256v66h585zM342 -77v-70q0 -22 -9.5 -49.5t-25.5 -51.5h-40q15 27 23.5 53t8.5 45v6h-26v67h69z" />
    <glyph glyph-name="uni021B" unicode="&#x21b;" horiz-adv-x="372" 
d="M363 33q-52 -45 -120 -45q-67 0 -110 40.5t-43 107.5v302h-84v58h89v121l62 39h4v-160h197v-58h-197v-294q0 -40 23 -65.5t63 -25.5q45 0 80 29zM248 -77v-70q0 -22 -9.5 -49.5t-25.5 -51.5h-40q15 27 23.5 53t8.5 45v6h-26v67h69z" />
    <glyph glyph-name="dotlessj" unicode="&#x237;" horiz-adv-x="205" 
d="M19 -154q21 0 34.5 14.5t13.5 41.5v594h71v-593q0 -54 -32 -86.5t-86 -32.5q-40 0 -73 21l31 54q20 -13 41 -13z" />
    <glyph glyph-name="schwa" unicode="&#x259;" horiz-adv-x="512" 
d="M368.5 473.5q54.5 -34.5 83.5 -93.5t29 -132q0 -71 -28 -130.5t-81 -94.5t-124 -35q-69 0 -118 31.5t-73.5 85t-24.5 118.5v32h377v5q0 54 -22 96.5t-61 66t-88 23.5q-95 0 -151 -73l-46 39q30 43 81.5 69.5t117.5 26.5q74 0 128.5 -34.5zM353.5 91q41.5 41 52.5 110
h-305q6 -71 46.5 -111t102.5 -40t103.5 41z" />
    <glyph glyph-name="h.sups" unicode="&#x2b0;" horiz-adv-x="412" 
d="M326.5 832.5q38.5 -40.5 38.5 -103.5v-233h-56v228q0 48 -26.5 73.5t-73.5 25.5q-31 0 -53 -11t-47 -34v-282h-57v522h57v-194q24 25 50 37t59 12q70 0 108.5 -40.5z" />
    <glyph glyph-name="j.sups" unicode="&#x2b2;" horiz-adv-x="206" 
d="M102 1009h57v-57h-57v57zM63 386q17 0 28 10.5t11 28.5v439h57v-439q0 -41 -26 -65t-69 -24q-32 0 -59 18l27 42q15 -10 31 -10z" />
    <glyph glyph-name="r.sups" unicode="&#x2b3;" horiz-adv-x="285" 
d="M276 853l-26 -42q-18 12 -52 12q-61 0 -89 -45v-282h-57v368h33l22 -36q14 22 41 33.5t57 11.5q41 0 71 -20z" />
    <glyph glyph-name="w.sups" unicode="&#x2b7;" horiz-adv-x="645" 
d="M583 864h57l-156 -370h-36l-125 278l-126 -278h-36l-156 370h61l115 -280l123 280h37l126 -284z" />
    <glyph glyph-name="y.sups" unicode="&#x2b8;" horiz-adv-x="392" 
d="M330 864h57l-242 -522h-57l84 177l-167 345h61l133 -286z" />
    <glyph glyph-name="circumflex" unicode="&#x2c6;" horiz-adv-x="600" 
d="M433 558h-69l-90 102l-88 -102h-66l123 146h67z" />
    <glyph glyph-name="caron" unicode="&#x2c7;" horiz-adv-x="600" 
d="M381 704h66l-123 -146h-67l-124 146h70l90 -102z" />
    <glyph glyph-name="uni02C9" unicode="&#x2c9;" horiz-adv-x="600" 
d="M163 674h286v-56h-286v56z" />
    <glyph glyph-name="breve" unicode="&#x2d8;" horiz-adv-x="600" 
d="M147.5 607.5q-36.5 35.5 -39.5 96.5h53q2 -37 22 -57.5t57 -20.5q34 0 53.5 20.5t21.5 57.5h53q-4 -61 -39.5 -96.5t-88.5 -35.5q-56 0 -92.5 35.5z" />
    <glyph glyph-name="dotaccent" unicode="&#x2d9;" horiz-adv-x="600" 
d="M66 692h72v-73h-72v73z" />
    <glyph glyph-name="ring" unicode="&#x2da;" horiz-adv-x="600" 
d="M237.5 575.5q-26.5 23.5 -26.5 60.5t26.5 60.5t62.5 23.5t62.5 -23.5t26.5 -60.5t-26.5 -60.5t-62.5 -23.5t-62.5 23.5zM330 606q11 11 11 30q0 18 -11 29.5t-30 11.5t-30 -11.5t-11 -29.5t11 -29.5t30 -11.5t30 11z" />
    <glyph glyph-name="ogonek" unicode="&#x2db;" horiz-adv-x="600" 
d="M230 -196.5q-24 19.5 -24 57.5q0 43 33.5 87t86.5 74l35 -13v-6q-95 -68 -95 -128q0 -17 9 -26t25 -9q24 0 41 16l21 -46q-34 -26 -70 -26q-38 0 -62 19.5z" />
    <glyph glyph-name="tilde" unicode="&#x2dc;" horiz-adv-x="600" 
d="M318.5 586q-20.5 13 -52.5 38q-32 28 -41 28q-12 0 -12 -12v-61h-49v54q0 40 12.5 58t42.5 18q18 0 38 -12.5t50 -37.5q14 -12 26.5 -21t18.5 -9q12 0 12 12v63h50v-56q0 -39 -13 -57t-44 -18q-18 0 -38.5 13z" />
    <glyph glyph-name="hungarumlaut" unicode="&#x2dd;" horiz-adv-x="600" 
d="M221 562l93 142h70l-111 -146h-52v4zM347 562l93 142h73l-117 -146h-49v4z" />
    <glyph glyph-name="l.sups" unicode="&#x2e1;" horiz-adv-x="156" 
d="M52 1018h57v-522h-57v522z" />
    <glyph glyph-name="s.sups" unicode="&#x2e2;" horiz-adv-x="345" 
d="M24 546l33 34q49 -46 119 -46q37 0 61.5 14.5t24.5 42.5q0 25 -18.5 39.5t-60.5 24.5l-34 8q-116 28 -116 105q0 47 39 76t102 29q40 0 76 -13t62 -35l-29 -35q-43 36 -111 36q-41 0 -61.5 -14.5t-20.5 -39.5q0 -27 20 -40t66 -24l35 -8q56 -13 83 -41t27 -66
q0 -47 -40.5 -76.5t-106.5 -29.5q-94 0 -150 59z" />
    <glyph glyph-name="x.sups" unicode="&#x2e3;" horiz-adv-x="364" 
d="M359 496h-65l-112 144l-113 -144h-64l146 184l-143 184h65l110 -142l108 142h64l-141 -182z" />
    <glyph glyph-name="gravecomb" unicode="&#x300;" horiz-adv-x="0" 
d="M-417 704h76l91 -140v-4h-58z" />
    <glyph glyph-name="acutecomb" unicode="&#x301;" horiz-adv-x="0" 
d="M-368 564l90 140h76l-109 -144h-57v4z" />
    <glyph glyph-name="circumflexcomb" unicode="&#x302;" horiz-adv-x="0" 
d="M-167 558h-69l-90 102l-88 -102h-66l123 146h67z" />
    <glyph glyph-name="tildecomb" unicode="&#x303;" horiz-adv-x="0" 
d="M-281.5 586q-20.5 13 -52.5 38q-32 28 -41 28q-12 0 -12 -12v-61h-49v54q0 40 12.5 58t42.5 18q18 0 38 -12.5t50 -37.5q14 -12 26.5 -21t18.5 -9q12 0 12 12v63h50v-56q0 -39 -13 -57t-44 -18q-18 0 -38.5 13z" />
    <glyph glyph-name="macroncomb" unicode="&#x304;" horiz-adv-x="0" 
d="M-437 670h286v-56h-286v56z" />
    <glyph glyph-name="brevecomb" unicode="&#x306;" horiz-adv-x="0" 
d="M-452.5 607.5q-36.5 35.5 -39.5 96.5h53q2 -37 22 -57.5t57 -20.5q34 0 53.5 20.5t21.5 57.5h53q-4 -61 -39.5 -96.5t-88.5 -35.5q-56 0 -92.5 35.5z" />
    <glyph glyph-name="dotaccentcomb" unicode="&#x307;" horiz-adv-x="0" 
d="M-534 692h72v-73h-72v73z" />
    <glyph glyph-name="dieresiscomb" unicode="&#x308;" horiz-adv-x="0" 
d="M-465 691h69v-76h-69v76zM-295 691h69v-76h-69v76z" />
    <glyph glyph-name="hookabovecomb" unicode="&#x309;" horiz-adv-x="0" 
d="M-48 612q-18 -19 -50 -22v-36h-42v70h18q19 0 30 9t11 27q0 17 -9.5 26t-26.5 9q-25 0 -47 -18l-21 34q27 27 73 27q37 0 59.5 -21.5t22.5 -56.5q0 -29 -18 -48z" />
    <glyph glyph-name="ringcomb" unicode="&#x30a;" horiz-adv-x="0" 
d="M-362.5 575.5q-26.5 23.5 -26.5 60.5t26.5 60.5t62.5 23.5t62.5 -23.5t26.5 -60.5t-26.5 -60.5t-62.5 -23.5t-62.5 23.5zM-270 606q11 11 11 30q0 18 -11 29.5t-30 11.5t-30 -11.5t-11 -29.5t11 -29.5t30 -11.5t30 11z" />
    <glyph glyph-name="hungarumlautcomb" unicode="&#x30b;" horiz-adv-x="0" 
d="M-379 562l93 142h70l-111 -146h-52v4zM-253 562l93 142h73l-117 -146h-49v4z" />
    <glyph glyph-name="caroncomb" unicode="&#x30c;" horiz-adv-x="0" 
d="M-219 704h66l-123 -146h-67l-124 146h70l90 -102z" />
    <glyph glyph-name="commaturnedabovecomb" unicode="&#x312;" horiz-adv-x="0" 
d="M-313 657h29v-69h-71v70q0 51 36 105h41q-33 -55 -35 -103v-3z" />
    <glyph glyph-name="uni031B" unicode="&#x31b;" horiz-adv-x="0" 
d="M-36 607q18 -33 18 -66q0 -42 -29.5 -66.5t-83.5 -24.5h-37v46h29q59 0 59 46q0 25 -13 46z" />
    <glyph glyph-name="dotbelowcomb" unicode="&#x323;" horiz-adv-x="0" 
d="M-102 -78h72v-73h-72v73z" />
    <glyph glyph-name="commaaccent" unicode="&#x326;" horiz-adv-x="0" 
d="M-269 -77v-70q0 -22 -9.5 -49.5t-25.5 -51.5h-40q15 27 23.5 53t8.5 45v6h-26v67h69z" />
    <glyph glyph-name="cedillacomb" unicode="&#x327;" horiz-adv-x="0" 
d="M-305.5 -92.5q18.5 -19.5 18.5 -48.5q0 -34 -24 -54.5t-59 -20.5q-22 0 -41 8.5t-28 22.5l22 30q20 -18 44 -18q18 0 28.5 9.5t10.5 25.5t-14 26t-37 10h-18l38 105h33l-24 -70q32 -6 50.5 -25.5z" />
    <glyph glyph-name="ogonekcomb" unicode="&#x328;" horiz-adv-x="0" 
d="M-370 -196.5q-24 19.5 -24 57.5q0 43 33.5 87t86.5 74l35 -13v-6q-95 -68 -95 -128q0 -17 9 -26t25 -9q24 0 41 16l21 -46q-34 -26 -70 -26q-38 0 -62 19.5z" />
    <glyph glyph-name="uni0335" unicode="&#x335;" horiz-adv-x="0" 
d="M-492 324h297v-49h-297v49z" />
    <glyph glyph-name="numeralsigngreek" unicode="&#x374;" horiz-adv-x="201" 
d="M40 534l45 170h76l-63 -174h-58v4z" />
    <glyph glyph-name="numeralsignlowergreek" unicode="&#x375;" horiz-adv-x="201" 
d="M40 -170l45 170h76l-63 -174h-58v4z" />
    <glyph glyph-name="questiongreek" unicode="&#x37e;" horiz-adv-x="216" 
d="M147 446v-87h-87v87h87zM156 87v-96q0 -63 -46 -132h-50q42 71 42 132v9h-33v87h87z" />
    <glyph glyph-name="tonos" unicode="&#x384;" horiz-adv-x="600" 
d="M246 704h63q-8 -97 -50 -152h-47q31 63 34 152z" />
    <glyph glyph-name="dieresistonos" unicode="&#x385;" horiz-adv-x="600" 
d="M238.5 656.5q5.5 35.5 6.5 84.5h65q-7 -104 -44 -152h-49q16 32 21.5 67.5zM121 665h68v-76h-68v76zM332 665h68v-76h-68v76z" />
    <glyph glyph-name="Alphatonos" unicode="&#x386;" horiz-adv-x="693" 
d="M606 0l-80 185h-360l-80 -185h-76l313 713h47l313 -713h-77zM195 251h303l-152 351zM130 704h63q-8 -97 -50 -152h-47q31 63 34 152z" />
    <glyph glyph-name="anoteleia" unicode="&#x387;" horiz-adv-x="209" 
d="M60 409h89v-90h-89v90z" />
    <glyph glyph-name="Epsilontonos" unicode="&#x388;" horiz-adv-x="657" 
d="M225 66h380v-66h-452v704h438v-66h-366v-240h326v-66h-326v-266zM26 704h63q-8 -97 -50 -152h-47q31 63 34 152z" />
    <glyph glyph-name="Etatonos" unicode="&#x389;" horiz-adv-x="806" 
d="M641 704h72v-704h-72v329h-419v-329h-72v704h72v-308h419v308zM26 704h63q-8 -97 -50 -152h-47q31 63 34 152z" />
    <glyph glyph-name="Iotatonos" unicode="&#x38a;" horiz-adv-x="313" 
d="M148 704h72v-704h-72v704zM26 704h63q-8 -97 -50 -152h-47q31 63 34 152z" />
    <glyph glyph-name="Omicrontonos" unicode="&#x38c;" horiz-adv-x="829" 
d="M244.5 36q-82.5 48 -130 131t-47.5 185q0 103 47 186t129.5 130.5t184.5 47.5t184.5 -47.5t129.5 -131t47 -185.5t-47 -185t-129.5 -131t-184.5 -48q-101 0 -183.5 48zM574 93.5q65 38.5 102 106t37 152.5q0 86 -37 153.5t-102 105.5t-146 38q-80 0 -145 -38t-102.5 -106
t-37.5 -153t37 -153t101.5 -106t146.5 -38q81 0 146 38.5zM26 704h63q-8 -97 -50 -152h-47q31 63 34 152z" />
    <glyph glyph-name="Upsilontonos" unicode="&#x38e;" horiz-adv-x="763" 
d="M679 704h81l-276 -433v-271h-72v271l-281 433h81l236 -365zM26 704h63q-8 -97 -50 -152h-47q31 63 34 152z" />
    <glyph glyph-name="Omegatonos" unicode="&#x38f;" horiz-adv-x="825" 
d="M527 66h246v-66h-307v120q110 18 174.5 87t64.5 176q0 72 -35.5 133t-99.5 97t-146 36q-81 0 -145 -36t-99.5 -97t-35.5 -133q0 -106 66 -175t173 -88v-120h-307v66h246v9q-70 15 -128 58.5t-92 108.5t-34 142q0 90 45.5 166t127 121t183.5 45t183.5 -45t127.5 -121.5
t46 -165.5q0 -77 -34 -142t-92 -108.5t-128 -58.5v-9zM23 704h63q-8 -97 -50 -152h-47q31 63 34 152z" />
    <glyph glyph-name="iotadieresistonos" unicode="&#x390;" horiz-adv-x="251" 
d="M167 -12q-48 0 -76 29t-28 85v394h71v-395q0 -24 13 -37.5t30 -13.5q25 0 46 16l28 -49q-40 -29 -84 -29zM81.5 656.5q5.5 35.5 6.5 84.5h65q-7 -104 -44 -152h-49q16 32 21.5 67.5zM-36 665h68v-76h-68v76zM175 665h68v-76h-68v76z" />
    <glyph glyph-name="Alpha" unicode="&#x391;" horiz-adv-x="693" 
d="M606 0l-80 185h-360l-80 -185h-76l313 713h47l313 -713h-77zM195 251h303l-152 351z" />
    <glyph glyph-name="Beta" unicode="&#x392;" horiz-adv-x="636" 
d="M560.5 309q34.5 -48 34.5 -107q0 -61 -28.5 -107t-77.5 -70.5t-108 -24.5h-288v704h241q59 0 108 -21t78.5 -63t29.5 -102q0 -46 -22.5 -82t-61.5 -60q60 -19 94.5 -67zM165 638v-244h174q62 0 98.5 34.5t36.5 88.5q0 53 -36.5 87t-104.5 34h-168zM481.5 105
q37.5 39 37.5 95q0 55 -38.5 91.5t-103.5 36.5h-212v-262h213q66 0 103.5 39z" />
    <glyph glyph-name="Gamma" unicode="&#x393;" horiz-adv-x="530" 
d="M515 704v-66h-362v-638h-72v704h434z" />
    <glyph glyph-name="uni0394" unicode="&#x394;" horiz-adv-x="672" 
d="M360 713l302 -713h-652l302 713h48zM113 66h445l-222 535z" />
    <glyph glyph-name="Epsilon" unicode="&#x395;" 
d="M165 66h380v-66h-452v704h438v-66h-366v-240h326v-66h-326v-266z" />
    <glyph glyph-name="Zeta" unicode="&#x396;" horiz-adv-x="603" 
d="M129 63h440v-63h-535v40l423 601h-409v63h506v-44z" />
    <glyph glyph-name="Eta" unicode="&#x397;" horiz-adv-x="749" 
d="M584 704h72v-704h-72v329h-419v-329h-72v704h72v-308h419v308z" />
    <glyph glyph-name="Theta" unicode="&#x398;" horiz-adv-x="804" 
d="M218.5 36q-82.5 48 -130 131t-47.5 185q0 103 47 186t129.5 130.5t184.5 47.5t184.5 -47.5t129.5 -131t47 -185.5t-47 -185t-129.5 -131t-184.5 -48q-101 0 -183.5 48zM548 93.5q65 38.5 102 106t37 152.5q0 86 -37 153.5t-102 105.5t-146 38q-80 0 -145 -38t-102.5 -106
t-37.5 -153t37 -153t101.5 -106t146.5 -38q81 0 146 38.5zM233 388h332v-64h-332v64z" />
    <glyph glyph-name="Iota" unicode="&#x399;" horiz-adv-x="257" 
d="M93 704h72v-704h-72v704z" />
    <glyph glyph-name="Kappa" unicode="&#x39a;" horiz-adv-x="659" 
d="M647 0h-97l-385 351v-351h-72v704h72v-329l371 329h91l-383 -338z" />
    <glyph glyph-name="Lambda" unicode="&#x39b;" horiz-adv-x="669" 
d="M659 0h-77l-248 601l-248 -601h-76l301 713h47z" />
    <glyph glyph-name="Mu" unicode="&#x39c;" horiz-adv-x="901" 
d="M808 704v-704h-71v521l-266 -521h-44l-263 515v-515h-71v704h54l304 -601l303 601h54z" />
    <glyph glyph-name="Nu" unicode="&#x39d;" horiz-adv-x="744" 
d="M580 704h71v-704h-43l-444 555v-555h-71v704h41l446 -560v560z" />
    <glyph glyph-name="Xi" unicode="&#x39e;" horiz-adv-x="599" 
d="M65 704h469v-66h-469v66zM104 398h392v-66h-392v66zM52 66h496v-66h-496v66z" />
    <glyph glyph-name="Omicron" unicode="&#x39f;" horiz-adv-x="804" 
d="M218.5 36q-82.5 48 -130 131t-47.5 185q0 103 47 186t129.5 130.5t184.5 47.5t184.5 -47.5t129.5 -131t47 -185.5t-47 -185t-129.5 -131t-184.5 -48q-101 0 -183.5 48zM548 93.5q65 38.5 102 106t37 152.5q0 86 -37 153.5t-102 105.5t-146 38q-80 0 -145 -38t-102.5 -106
t-37.5 -153t37 -153t101.5 -106t146.5 -38q81 0 146 38.5z" />
    <glyph glyph-name="Pi" unicode="&#x3a0;" horiz-adv-x="735" 
d="M642 704v-704h-75v637h-399v-637h-75v704h549z" />
    <glyph glyph-name="Rho" unicode="&#x3a1;" horiz-adv-x="598" 
d="M443 678.5q52 -25.5 83 -74t31 -112.5q0 -65 -31 -113.5t-82.5 -74t-113.5 -25.5h-165v-279h-72v704h237q61 0 113 -25.5zM410.5 365q34.5 20 52.5 53.5t18 73.5q0 39 -18 72.5t-52.5 53.5t-80.5 20h-165v-293h165q46 0 80.5 20z" />
    <glyph glyph-name="Sigma" unicode="&#x3a3;" horiz-adv-x="550" 
d="M140 66h378v-66h-478v41l252 322l-244 297v44h459v-66h-354l218 -267v-11z" />
    <glyph glyph-name="Tau" unicode="&#x3a4;" horiz-adv-x="615" 
d="M600 704v-66h-257v-638h-72v638h-256v66h585z" />
    <glyph glyph-name="Upsilon" unicode="&#x3a5;" horiz-adv-x="633" 
d="M550 704h81l-276 -433v-271h-72v271l-281 433h81l236 -365z" />
    <glyph glyph-name="Phi" unicode="&#x3a6;" horiz-adv-x="789" 
d="M718 221.5q-39 -58.5 -113.5 -94.5t-175.5 -41v-86h-67v86q-101 5 -175.5 40.5t-114 94.5t-39.5 131q0 73 39 131.5t113 94t177 40.5v86h67v-86q103 -5 177 -40.5t112.5 -94t38.5 -131.5q0 -72 -39 -130.5zM174.5 210.5q66.5 -55.5 187.5 -62.5v408q-121 -7 -187.5 -62
t-66.5 -142q0 -86 66.5 -141.5zM615.5 211q66.5 56 66.5 141q0 87 -66.5 142t-186.5 62v-408q120 7 186.5 63z" />
    <glyph glyph-name="Chi" unicode="&#x3a7;" horiz-adv-x="601" 
d="M608 0h-85l-222 303l-222 -303h-82l265 357l-254 347h85l211 -288l208 288h82l-250 -343z" />
    <glyph glyph-name="Psi" unicode="&#x3a8;" horiz-adv-x="791" 
d="M720 704v-252q0 -126 -76 -202t-213 -85v-165h-70v165q-138 9 -214 85t-76 202v252h72v-252q0 -205 218 -220v472h70v-472q108 7 162.5 63t54.5 157v252h72z" />
    <glyph glyph-name="uni03A9" unicode="&#x3a9;" horiz-adv-x="803" 
d="M504 66h246v-66h-307v120q110 18 174.5 87t64.5 176q0 72 -35.5 133t-99.5 97t-146 36q-81 0 -145 -36t-99.5 -97t-35.5 -133q0 -106 66 -175t173 -88v-120h-307v66h246v9q-70 15 -128 58.5t-92 108.5t-34 142q0 90 45.5 166t127 121t183.5 45t183.5 -45t127.5 -121.5
t46 -165.5q0 -77 -34 -142t-92 -108.5t-128 -58.5v-9z" />
    <glyph glyph-name="Iotadieresis" unicode="&#x3aa;" horiz-adv-x="257" 
d="M93 704h72v-704h-72v704zM10 899h69v-76h-69v76zM180 899h69v-76h-69v76z" />
    <glyph glyph-name="Upsilondieresis" unicode="&#x3ab;" horiz-adv-x="633" 
d="M550 704h81l-276 -433v-271h-72v271l-281 433h81l236 -365zM186 899h69v-76h-69v76zM356 899h69v-76h-69v76z" />
    <glyph glyph-name="alphatonos" unicode="&#x3ac;" 
d="M595 18q-38 -30 -84 -30q-36 0 -60.5 16t-34.5 48q-29 -32 -68.5 -48t-83.5 -16q-66 0 -119 35.5t-83.5 95t-30.5 129.5t30 129.5t84.5 95t124.5 35.5q84 0 144 -52l23 40h43v-395q0 -25 12.5 -38t30.5 -13q24 0 44 15zM348.5 66.5q32.5 15.5 60.5 46.5v277
q-53 55 -135 55q-46 0 -85.5 -25t-62.5 -70t-23 -102q0 -54 21.5 -99t60 -71.5t89.5 -26.5q42 0 74.5 15.5zM294 704h63q-8 -97 -50 -152h-47q31 63 34 152z" />
    <glyph glyph-name="epsilontonos" unicode="&#x3ad;" horiz-adv-x="448" 
d="M430 55q-35 -32 -83 -49.5t-104 -17.5q-65 0 -111.5 21t-70 55t-23.5 73q0 42 24.5 74t69.5 48q-35 16 -55.5 45t-20.5 66q0 63 51.5 100.5t131.5 37.5q111 0 186 -58l-40 -45q-30 21 -67.5 31.5t-76.5 10.5q-55 0 -84 -21t-29 -59q0 -41 34 -62.5t89 -21.5h77v-56h-78
q-67 0 -103.5 -22t-36.5 -64q0 -44 36.5 -68t99.5 -24q87 0 144 50zM253 704h63q-8 -97 -50 -152h-47q31 63 34 152z" />
    <glyph glyph-name="etatonos" unicode="&#x3ae;" horiz-adv-x="529" 
d="M418 453.5q49 -54.5 49 -139.5v-522h-71v516q0 68 -35 102.5t-96 34.5q-75 0 -127 -64v-381h-71v496h40l31 -55q29 34 63 50.5t76 16.5q92 0 141 -54.5zM269 704h63q-8 -97 -50 -152h-47q31 63 34 152z" />
    <glyph glyph-name="iotatonos" unicode="&#x3af;" horiz-adv-x="251" 
d="M167 -12q-48 0 -76 29t-28 85v394h71v-395q0 -24 13 -37.5t30 -13.5q25 0 46 16l28 -49q-40 -29 -84 -29zM102 704h63q-8 -97 -50 -152h-47q31 63 34 152z" />
    <glyph glyph-name="upsilondieresistonos" unicode="&#x3b0;" horiz-adv-x="526" 
d="M109.5 47.5q-46.5 59.5 -46.5 149.5v299h71v-296q0 -74 31.5 -111.5t89.5 -37.5q79 0 117.5 58.5t38.5 156.5q0 117 -52 202l59 38q63 -102 63 -231q0 -127 -56.5 -207t-172.5 -80q-96 0 -142.5 59.5zM240.5 656.5q5.5 35.5 6.5 84.5h65q-7 -104 -44 -152h-49
q16 32 21.5 67.5zM123 665h68v-76h-68v76zM334 665h68v-76h-68v76z" />
    <glyph glyph-name="alpha" unicode="&#x3b1;" 
d="M595 18q-38 -30 -84 -30q-36 0 -60.5 16t-34.5 48q-29 -32 -68.5 -48t-83.5 -16q-66 0 -119 35.5t-83.5 95t-30.5 129.5t30 129.5t84.5 95t124.5 35.5q84 0 144 -52l23 40h43v-395q0 -25 12.5 -38t30.5 -13q24 0 44 15zM348.5 66.5q32.5 15.5 60.5 46.5v277
q-53 55 -135 55q-46 0 -85.5 -25t-62.5 -70t-23 -102q0 -54 21.5 -99t60 -71.5t89.5 -26.5q42 0 74.5 15.5z" />
    <glyph glyph-name="beta" unicode="&#x3b2;" horiz-adv-x="548" 
d="M481 305q36 -50 36 -114q0 -58 -30 -104.5t-82.5 -72.5t-116.5 -26q-95 0 -154 53v-249h-71v687q0 106 56 171.5t161 65.5q58 0 103 -25t69.5 -65.5t24.5 -86.5q0 -56 -25.5 -98t-73.5 -65q67 -21 103 -71zM362.5 66.5q36.5 15.5 59.5 47t23 77.5q0 67 -46 106.5
t-127 39.5h-64v60h58q63 0 101 37t38 103q0 48 -36 82t-97 34t-99.5 -43t-38.5 -123v-366q55 -70 152 -70q40 0 76.5 15.5z" />
    <glyph glyph-name="gamma" unicode="&#x3b3;" horiz-adv-x="478" 
d="M390 223q-53 -133 -117 -229v-202h-71v208l-198 496h75l167 -429q52 97 92.5 207.5t64.5 221.5h70q-30 -140 -83 -273z" />
    <glyph glyph-name="delta" unicode="&#x3b4;" horiz-adv-x="544" 
d="M466.5 369q46.5 -61 46.5 -141q0 -63 -30 -118t-85.5 -88.5t-127.5 -33.5q-74 0 -128.5 32.5t-82.5 87t-28 118.5q0 88 54.5 149t140.5 76q-120 49 -120 142q0 54 43 88.5t127 34.5q92 0 166 -43l-32 -51q-59 32 -135 32q-96 0 -96 -65q0 -30 31 -57t98 -55
q112 -47 158.5 -108zM357.5 74q38.5 23 61 63.5t22.5 89.5q0 50 -22.5 90t-61 63t-84.5 23q-48 0 -87 -23t-61 -63t-22 -90t22 -90t61 -63t87 -23q46 0 84.5 23z" />
    <glyph glyph-name="epsilon" unicode="&#x3b5;" horiz-adv-x="448" 
d="M430 55q-35 -32 -83 -49.5t-104 -17.5q-65 0 -111.5 21t-70 55t-23.5 73q0 42 24.5 74t69.5 48q-35 16 -55.5 45t-20.5 66q0 63 51.5 100.5t131.5 37.5q111 0 186 -58l-40 -45q-30 21 -67.5 31.5t-76.5 10.5q-55 0 -84 -21t-29 -59q0 -41 34 -62.5t89 -21.5h77v-56h-78
q-67 0 -103.5 -22t-36.5 -64q0 -44 36.5 -68t99.5 -24q87 0 144 50z" />
    <glyph glyph-name="zeta" unicode="&#x3b6;" horiz-adv-x="421" 
d="M183 459.5q-74 -95.5 -74 -189.5q0 -66 34 -109t100 -73l43 -20q63 -29 88.5 -58t25.5 -71q0 -28 -18 -57t-56 -66l-45 36q28 31 39 49t11 32q0 20 -17 39t-62 40l-45 21q-170 77 -170 232q0 100 65.5 192.5t192.5 185.5h-255v61h372v-44q-155 -105 -229 -200.5z" />
    <glyph glyph-name="eta" unicode="&#x3b7;" horiz-adv-x="529" 
d="M418 453.5q49 -54.5 49 -139.5v-522h-71v516q0 68 -35 102.5t-96 34.5q-75 0 -127 -64v-381h-71v496h40l31 -55q29 34 63 50.5t76 16.5q92 0 141 -54.5z" />
    <glyph glyph-name="theta" unicode="&#x3b8;" horiz-adv-x="564" 
d="M455 625q64 -91 64 -273t-64 -273t-172 -91q-109 0 -173.5 91.5t-64.5 272.5q0 183 64.5 273.5t173.5 90.5q108 0 172 -91zM164.5 589q-43.5 -64 -48.5 -204h331q-5 140 -50 204t-117 64t-115.5 -64zM399.5 117q44.5 66 48.5 211h-332q4 -144 49.5 -210.5t117.5 -66.5
t116.5 66z" />
    <glyph glyph-name="iota" unicode="&#x3b9;" horiz-adv-x="251" 
d="M167 -12q-48 0 -76 29t-28 85v394h71v-395q0 -24 13 -37.5t30 -13.5q25 0 46 16l28 -49q-40 -29 -84 -29z" />
    <glyph glyph-name="kappa" unicode="&#x3ba;" horiz-adv-x="465" 
d="M471 0h-92l-241 229v-229h-71v496h71v-229l228 229h85l-247 -244z" />
    <glyph glyph-name="lambda" unicode="&#x3bb;" horiz-adv-x="481" 
d="M409 0l-166 430l-171 -430h-72l209 515l-37 88q-12 29 -27 40t-38 11q-24 0 -46 -16l-28 48q36 30 82 30q43 0 70.5 -24.5t48.5 -78.5l247 -613h-72z" />
    <glyph glyph-name="uni03BC" unicode="&#x3bc;" horiz-adv-x="598" 
d="M595 18q-38 -30 -83 -30q-37 0 -63 17.5t-35 52.5q-22 -33 -59.5 -51.5t-86.5 -18.5q-41 0 -72 13.5t-49 37.5v-247h-67v704h71v-296q0 -77 32.5 -113t90.5 -36q53 0 82 17.5t53 47.5v380h71v-395q0 -25 12.5 -38t30.5 -13q23 0 45 15z" />
    <glyph glyph-name="nu" unicode="&#x3bd;" horiz-adv-x="469" 
d="M469 496q-27 -120 -82.5 -250.5t-130.5 -245.5h-44l-212 496h72l171 -407q104 184 156 407h70z" />
    <glyph glyph-name="xi" unicode="&#x3be;" horiz-adv-x="440" 
d="M397.5 13.5q25.5 -29.5 25.5 -59.5q0 -37 -18 -69t-59 -70l-45 36q31 33 41 52t10 40q0 17 -14.5 32.5t-50.5 32.5l-59 27q-190 87 -190 209q0 58 33.5 101t96.5 61q-50 19 -77.5 55t-27.5 82q0 49 23.5 88.5t69 62t108.5 22.5q90 0 163 -41l-30 -52q-55 32 -131 32
q-62 0 -96.5 -28.5t-34.5 -80.5q0 -50 41.5 -81t104.5 -31h91v-61h-93q-78 0 -123.5 -33.5t-45.5 -88.5q0 -50 35.5 -85t117.5 -73l59 -27q50 -23 75.5 -52.5z" />
    <glyph glyph-name="omicron" unicode="&#x3bf;" horiz-adv-x="556" 
d="M151.5 22q-56.5 34 -88.5 93.5t-32 132.5t32 132.5t88.5 93.5t126.5 34q71 0 127 -34t88 -93.5t32 -132.5t-32 -132.5t-88 -93.5t-127 -34q-70 0 -126.5 34zM368 77q40 26 62.5 71t22.5 100t-22.5 100t-62.5 71t-90 26t-90 -26t-62.5 -71t-22.5 -100t22.5 -100t62.5 -71
t90 -26t90 26z" />
    <glyph glyph-name="pi" unicode="&#x3c0;" horiz-adv-x="604" 
d="M589 17q-40 -29 -83 -29q-50 0 -78.5 28t-28.5 85v337h-208v-438h-71v438h-105v58h567v-58h-112v-335q0 -26 13 -39.5t32 -13.5q23 0 45 16z" />
    <glyph glyph-name="rho" unicode="&#x3c1;" horiz-adv-x="552" 
d="M409 473.5q53 -34.5 82.5 -93t29.5 -129.5q0 -73 -28.5 -133t-82.5 -95t-126 -35q-45 0 -83.5 16t-66.5 43v-255h-71v459q0 130 61.5 193.5t163.5 63.5q68 0 121 -34.5zM364 72.5q38 21.5 61.5 65.5t23.5 110q0 62 -22.5 106.5t-60 67.5t-83.5 23q-70 0 -109.5 -48.5
t-39.5 -140.5v-140q27 -33 66 -49t81 -16q45 0 83 21.5z" />
    <glyph glyph-name="sigma1" unicode="&#x3c2;" horiz-adv-x="476" 
d="M345.5 -100q11.5 21 11.5 39q0 22 -16.5 39t-59.5 35l-54 23q-85 37 -140.5 93t-55.5 147q0 67 29 120t79.5 82.5t113.5 29.5q62 0 106 -21t77 -61l-40 -45q-52 61 -143 61q-66 0 -108 -44.5t-42 -111.5q0 -74 40 -116t117 -75l56 -24q60 -25 85.5 -55t25.5 -69
q0 -34 -18 -64.5t-58 -67.5l-45 36q28 28 39.5 49z" />
    <glyph glyph-name="sigma" unicode="&#x3c3;" horiz-adv-x="573" 
d="M558 438h-140q51 -28 79 -79t28 -117q0 -73 -31.5 -131t-87.5 -90.5t-128 -32.5q-71 0 -127.5 33t-88 91t-31.5 131q0 71 31.5 128.5t89 91t132.5 33.5h274v-58zM369.5 75.5q39.5 24.5 61.5 68t22 98.5q0 52 -22.5 96t-62.5 69.5t-90 25.5q-51 0 -91 -25t-62 -68.5
t-22 -96.5q0 -55 22 -98.5t61.5 -68.5t91.5 -25t91.5 24.5z" />
    <glyph glyph-name="tau" unicode="&#x3c4;" horiz-adv-x="429" 
d="M243 438v-337q0 -25 12.5 -38t30.5 -13q26 0 46 16l28 -47q-39 -31 -85 -31q-47 0 -75 28.5t-28 84.5v337h-157v58h399v-58h-171z" />
    <glyph glyph-name="upsilon" unicode="&#x3c5;" horiz-adv-x="526" 
d="M109.5 47.5q-46.5 59.5 -46.5 149.5v299h71v-296q0 -74 31.5 -111.5t89.5 -37.5q79 0 117.5 58.5t38.5 156.5q0 117 -52 202l59 38q63 -102 63 -231q0 -127 -56.5 -207t-172.5 -80q-96 0 -142.5 59.5z" />
    <glyph glyph-name="phi" unicode="&#x3c6;" horiz-adv-x="713" 
d="M591 72q-77 -74 -207 -83v-197h-69v197q-127 10 -197 85.5t-70 198.5t78 225l55 -32q-62 -86 -62 -195q0 -97 51 -157.5t145 -63.5v241q0 217 164 217q58 0 100.5 -30t65.5 -82.5t23 -119.5q0 -130 -77 -204zM542.5 115q53.5 58 53.5 158q0 80 -31 126t-88 46
q-48 0 -70.5 -35t-22.5 -119v-240q105 6 158.5 64z" />
    <glyph glyph-name="chi" unicode="&#x3c7;" horiz-adv-x="487" 
d="M500 -208h-77l-177 309l-183 -309h-76l223 371l-191 333h77l153 -267l152 267h76l-192 -329z" />
    <glyph glyph-name="psi" unicode="&#x3c8;" horiz-adv-x="708" 
d="M600 79q-59 -79 -210 -89v-198h-70v196q-130 5 -193.5 60.5t-63.5 170.5v277h71v-264q0 -92 44 -134t142 -47v565h70v-563q81 7 124 37.5t58.5 80t15.5 125.5q0 85 -23 200h67q27 -94 27 -197q0 -141 -59 -220z" />
    <glyph glyph-name="omega" unicode="&#x3c9;" horiz-adv-x="773" 
d="M725 251q0 -118 -51.5 -190.5t-144.5 -72.5q-51 0 -88.5 28.5t-57.5 83.5q-19 -54 -57.5 -83t-91.5 -29q-90 0 -138 69.5t-48 185.5q0 151 70 261l53 -37q-52 -88 -52 -221q0 -92 30.5 -143.5t86.5 -51.5q53 0 84 48t31 150v131h69v-132q0 -101 29.5 -149t78.5 -48
q60 0 93.5 51t33.5 146q0 131 -54 221l53 35q71 -106 71 -253z" />
    <glyph glyph-name="iotadieresis" unicode="&#x3ca;" horiz-adv-x="251" 
d="M167 -12q-48 0 -76 29t-28 85v394h71v-395q0 -24 13 -37.5t30 -13.5q25 0 46 16l28 -49q-40 -29 -84 -29zM-22 691h69v-76h-69v76zM148 691h69v-76h-69v76z" />
    <glyph glyph-name="upsilondieresis" unicode="&#x3cb;" horiz-adv-x="526" 
d="M109.5 47.5q-46.5 59.5 -46.5 149.5v299h71v-296q0 -74 31.5 -111.5t89.5 -37.5q79 0 117.5 58.5t38.5 156.5q0 117 -52 202l59 38q63 -102 63 -231q0 -127 -56.5 -207t-172.5 -80q-96 0 -142.5 59.5zM137 691h69v-76h-69v76zM307 691h69v-76h-69v76z" />
    <glyph glyph-name="omicrontonos" unicode="&#x3cc;" horiz-adv-x="556" 
d="M151.5 22q-56.5 34 -88.5 93.5t-32 132.5t32 132.5t88.5 93.5t126.5 34q71 0 127 -34t88 -93.5t32 -132.5t-32 -132.5t-88 -93.5t-127 -34q-70 0 -126.5 34zM368 77q40 26 62.5 71t22.5 100t-22.5 100t-62.5 71t-90 26t-90 -26t-62.5 -71t-22.5 -100t22.5 -100t62.5 -71
t90 -26t90 26zM282 704h63q-8 -97 -50 -152h-47q31 63 34 152z" />
    <glyph glyph-name="upsilontonos" unicode="&#x3cd;" horiz-adv-x="526" 
d="M109.5 47.5q-46.5 59.5 -46.5 149.5v299h71v-296q0 -74 31.5 -111.5t89.5 -37.5q79 0 117.5 58.5t38.5 156.5q0 117 -52 202l59 38q63 -102 63 -231q0 -127 -56.5 -207t-172.5 -80q-96 0 -142.5 59.5zM261 704h63q-8 -97 -50 -152h-47q31 63 34 152z" />
    <glyph glyph-name="omegatonos" unicode="&#x3ce;" horiz-adv-x="773" 
d="M725 251q0 -118 -51.5 -190.5t-144.5 -72.5q-51 0 -88.5 28.5t-57.5 83.5q-19 -54 -57.5 -83t-91.5 -29q-90 0 -138 69.5t-48 185.5q0 151 70 261l53 -37q-52 -88 -52 -221q0 -92 30.5 -143.5t86.5 -51.5q53 0 84 48t31 150v131h69v-132q0 -101 29.5 -149t78.5 -48
q60 0 93.5 51t33.5 146q0 131 -54 221l53 35q71 -106 71 -253zM388 704h63q-8 -97 -50 -152h-47q31 63 34 152z" />
    <glyph glyph-name="uni0400" unicode="&#x400;" 
d="M165 66h380v-66h-452v704h438v-66h-366v-240h326v-66h-326v-266zM193 912h76l91 -140v-4h-58z" />
    <glyph glyph-name="uni0401" unicode="&#x401;" 
d="M165 66h380v-66h-452v704h438v-66h-366v-240h326v-66h-326v-266zM179 899h69v-76h-69v76zM349 899h69v-76h-69v76z" />
    <glyph glyph-name="uni0402" unicode="&#x402;" horiz-adv-x="796" 
d="M653 402.5q54 -31.5 82.5 -81t28.5 -101.5q0 -72 -29.5 -124.5t-81 -80t-116.5 -27.5q-88 0 -148 45l36 58q45 -36 110 -36q70 0 112 44.5t42 120.5q0 41 -20.5 74.5t-58 53.5t-87.5 20q-55 0 -101 -23t-79 -64v-281h-72v638h-256v66h585v-66h-257v-286q31 37 79.5 59.5
t102.5 22.5q74 0 128 -31.5z" />
    <glyph glyph-name="uni0403" unicode="&#x403;" horiz-adv-x="533" 
d="M518 704v-66h-353v-638h-72v704h425zM237 772l90 140h76l-109 -144h-57v4z" />
    <glyph glyph-name="uni0404" unicode="&#x404;" horiz-adv-x="686" 
d="M655 89q-57 -54 -119 -77.5t-136 -23.5q-101 0 -183 48.5t-129 132t-47 183.5t47 183.5t129 132t183 48.5q74 0 136 -24t118 -77l-43 -48q-89 82 -211 82q-73 0 -134 -32.5t-99 -90t-47 -131.5h375v-66h-377q5 -79 42.5 -141.5t100 -97.5t139.5 -35q123 0 212 82z" />
    <glyph glyph-name="uni0405" unicode="&#x405;" horiz-adv-x="590" 
d="M158 14.5q-66 26.5 -115 75.5l44 52q42 -41 97 -64t117 -23q85 0 127.5 34t42.5 93q0 54 -36.5 84t-127.5 51l-56 14q-81 18 -137.5 65t-56.5 129q0 52 27.5 95.5t81 69.5t126.5 26q139 0 240 -85l-47 -51q-38 32 -88.5 50.5t-101.5 18.5q-79 0 -120.5 -33t-41.5 -87
q0 -57 41 -87.5t129 -50.5l57 -14q92 -21 139.5 -69t47.5 -122q0 -57 -28.5 -102t-84 -70.5t-134.5 -25.5q-76 0 -142 26.5z" />
    <glyph glyph-name="uni0406" unicode="&#x406;" horiz-adv-x="257" 
d="M93 704h72v-704h-72v704z" />
    <glyph glyph-name="uni0407" unicode="&#x407;" horiz-adv-x="257" 
d="M93 704h72v-704h-72v704zM8 899h69v-76h-69v76zM178 899h69v-76h-69v76z" />
    <glyph glyph-name="uni0408" unicode="&#x408;" horiz-adv-x="471" 
d="M87 4.5q-44 16.5 -76 48.5l44 50q23 -24 56 -37.5t72 -13.5q64 0 100 38t36 102v512h72v-509q0 -93 -56 -150t-154 -57q-50 0 -94 16.5z" />
    <glyph glyph-name="uni0409" unicode="&#x409;" horiz-adv-x="1098" 
d="M944 389q52 -24 82.5 -70.5t30.5 -110.5q0 -63 -30.5 -110.5t-82.5 -72.5t-114 -25h-248v638h-312v-221q0 -161 -19.5 -255t-58.5 -134t-101 -40q-47 0 -91 24l29 55q28 -13 56 -13q38 0 62 26t37.5 102.5t13.5 222.5v299h456v-291h176q62 0 114 -24zM911 85.5
q34 19.5 52 52t18 70.5q0 60 -40.5 100t-110.5 40h-176v-282h176q47 0 81 19.5z" />
    <glyph glyph-name="uni040A" unicode="&#x40a;" horiz-adv-x="1092" 
d="M940 372.5q51 -22.5 81 -66t30 -105.5t-30 -107.5t-80 -69.5t-110 -24h-267v329h-399v-329h-72v704h72v-309h399v309h72v-309h192q61 0 112 -22.5zM935.5 105q39.5 39 39.5 96q0 55 -39.5 91.5t-108.5 36.5h-191v-263h191q69 0 108.5 39z" />
    <glyph glyph-name="uni040B" unicode="&#x40b;" horiz-adv-x="832" 
d="M705.5 369q57.5 -65 57.5 -168v-201h-72v193q0 175 -166 175q-61 0 -105 -23.5t-77 -68.5v-276h-72v638h-256v66h585v-66h-257v-287q31 38 79 60.5t112 22.5q114 0 171.5 -65z" />
    <glyph glyph-name="uni040C" unicode="&#x40c;" horiz-adv-x="647" 
d="M289 365l363 -365h-95l-328 331h-64v-331h-72v704h72v-306h66l314 306h91zM291 772l90 140h76l-109 -144h-57v4z" />
    <glyph glyph-name="uni040D" unicode="&#x40d;" horiz-adv-x="761" 
d="M627 704h41v-704h-72v565l-461 -565h-42v704h72v-567zM274 912h76l91 -140v-4h-58z" />
    <glyph glyph-name="uni040E" unicode="&#x40e;" horiz-adv-x="605" 
d="M608 704l-279 -584q-31 -66 -74.5 -97.5t-93.5 -31.5q-52 0 -92 22l29 55q28 -15 59 -15q72 0 117 96l4 8l-279 547h78l235 -474l220 474h76zM210.5 815.5q-36.5 35.5 -39.5 96.5h53q2 -37 22 -57.5t57 -20.5q34 0 53.5 20.5t21.5 57.5h53q-4 -61 -39.5 -96.5
t-88.5 -35.5q-56 0 -92.5 35.5z" />
    <glyph glyph-name="uni040F" unicode="&#x40f;" horiz-adv-x="741" 
d="M576 704h72v-704h-235l-23 -178h-37l-23 178h-237v704h72v-638h411v638z" />
    <glyph glyph-name="uni0410" unicode="&#x410;" horiz-adv-x="693" 
d="M606 0l-80 185h-360l-80 -185h-76l313 713h47l313 -713h-77zM195 251h303l-152 351z" />
    <glyph glyph-name="uni0411" unicode="&#x411;" horiz-adv-x="632" 
d="M485.5 371q48.5 -24 77.5 -68.5t29 -104.5t-29 -105t-77.5 -69t-105.5 -24h-287v704h446v-66h-374v-243h215q57 0 105.5 -24zM478.5 104.5q37.5 38.5 37.5 93.5q0 54 -37.5 92.5t-101.5 38.5h-211v-263h211q64 0 101.5 38.5z" />
    <glyph glyph-name="uni0412" unicode="&#x412;" horiz-adv-x="636" 
d="M560.5 309q34.5 -48 34.5 -107q0 -61 -28.5 -107t-77.5 -70.5t-108 -24.5h-288v704h241q59 0 108 -21t78.5 -63t29.5 -102q0 -46 -22.5 -82t-61.5 -60q60 -19 94.5 -67zM165 638v-244h174q62 0 98.5 34.5t36.5 88.5q0 53 -36.5 87t-104.5 34h-168zM481.5 105
q37.5 39 37.5 95q0 55 -38.5 91.5t-103.5 36.5h-212v-262h213q66 0 103.5 39z" />
    <glyph glyph-name="uni0413" unicode="&#x413;" horiz-adv-x="533" 
d="M518 704v-66h-353v-638h-72v704h425z" />
    <glyph glyph-name="uni0414" unicode="&#x414;" horiz-adv-x="724" 
d="M704 66v-244h-43l-31 178h-536l-31 -178h-43v244h61q51 34 69.5 103t19.5 195v340h452v-638h82zM222.5 182q-17.5 -72 -58.5 -116h386v572h-309v-270q-1 -114 -18.5 -186z" />
    <glyph glyph-name="uni0415" unicode="&#x415;" 
d="M165 66h380v-66h-452v704h438v-66h-366v-240h326v-66h-326v-266z" />
    <glyph glyph-name="uni0416" unicode="&#x416;" horiz-adv-x="925" 
d="M603 365l327 -365h-90l-298 332h-44v-332h-72v332h-44l-296 -332h-90l325 364l-308 340h88l280 -306h45v306h72v-306h45l282 306h88z" />
    <glyph glyph-name="uni0417" unicode="&#x417;" horiz-adv-x="595" 
d="M506 299.5q36 -45.5 36 -106.5q0 -57 -30.5 -103.5t-89 -74t-140.5 -27.5q-157 0 -246 101l45 46q78 -81 201 -81q87 0 135.5 39t48.5 104q0 67 -58 99.5t-143 32.5h-74v66h77q76 0 123.5 35t47.5 98q0 55 -45 88.5t-121 33.5q-51 0 -100 -19.5t-84 -56.5l-46 43
q90 99 233 99q76 0 129.5 -24t81.5 -66t28 -96t-29.5 -96t-82.5 -66q67 -23 103 -68.5z" />
    <glyph glyph-name="uni0418" unicode="&#x418;" horiz-adv-x="761" 
d="M627 704h41v-704h-72v565l-461 -565h-42v704h72v-567z" />
    <glyph glyph-name="uni0419" unicode="&#x419;" horiz-adv-x="761" 
d="M627 704h41v-704h-72v565l-461 -565h-42v704h72v-567zM287.5 815.5q-36.5 35.5 -39.5 96.5h53q2 -37 22 -57.5t57 -20.5q34 0 53.5 20.5t21.5 57.5h53q-4 -61 -39.5 -96.5t-88.5 -35.5q-56 0 -92.5 35.5z" />
    <glyph glyph-name="uni041A" unicode="&#x41a;" horiz-adv-x="647" 
d="M289 365l363 -365h-95l-328 331h-64v-331h-72v704h72v-306h66l314 306h91z" />
    <glyph glyph-name="uni041B" unicode="&#x41b;" horiz-adv-x="751" 
d="M658 0h-72v638h-316v-221q0 -161 -19.5 -255t-58.5 -134t-101 -40q-47 0 -91 24l29 55q28 -13 56 -13q38 0 62 26t37.5 102.5t13.5 222.5v299h460v-704z" />
    <glyph glyph-name="uni041C" unicode="&#x41c;" horiz-adv-x="901" 
d="M808 704v-704h-71v521l-266 -521h-44l-263 515v-515h-71v704h54l304 -601l303 601h54z" />
    <glyph glyph-name="uni041D" unicode="&#x41d;" horiz-adv-x="749" 
d="M584 704h72v-704h-72v329h-419v-329h-72v704h72v-308h419v308z" />
    <glyph glyph-name="uni041E" unicode="&#x41e;" horiz-adv-x="804" 
d="M218.5 36q-82.5 48 -130 131t-47.5 185q0 103 47 186t129.5 130.5t184.5 47.5t184.5 -47.5t129.5 -131t47 -185.5t-47 -185t-129.5 -131t-184.5 -48q-101 0 -183.5 48zM548 93.5q65 38.5 102 106t37 152.5q0 86 -37 153.5t-102 105.5t-146 38q-80 0 -145 -38t-102.5 -106
t-37.5 -153t37 -153t101.5 -106t146.5 -38q81 0 146 38.5z" />
    <glyph glyph-name="uni041F" unicode="&#x41f;" horiz-adv-x="749" 
d="M656 704v-704h-72v637h-419v-637h-72v704h563z" />
    <glyph glyph-name="uni0420" unicode="&#x420;" horiz-adv-x="598" 
d="M443 678.5q52 -25.5 83 -74t31 -112.5q0 -65 -31 -113.5t-82.5 -74t-113.5 -25.5h-165v-279h-72v704h237q61 0 113 -25.5zM410.5 365q34.5 20 52.5 53.5t18 73.5q0 39 -18 72.5t-52.5 53.5t-80.5 20h-165v-293h165q46 0 80.5 20z" />
    <glyph glyph-name="uni0421" unicode="&#x421;" horiz-adv-x="667" 
d="M213 36.5q-81 48.5 -126.5 132t-45.5 183.5t45.5 183.5t126.5 132t182 48.5q144 0 240 -99l-43 -49q-37 39 -88 60t-109 21q-80 0 -143.5 -38.5t-99 -106t-35.5 -152.5t35.5 -152.5t99 -106t143.5 -38.5q58 0 109.5 22t87.5 61l43 -49q-45 -49 -106 -75t-134 -26
q-101 0 -182 48.5z" />
    <glyph glyph-name="uni0422" unicode="&#x422;" horiz-adv-x="615" 
d="M600 704v-66h-257v-638h-72v638h-256v66h585z" />
    <glyph glyph-name="uni0423" unicode="&#x423;" horiz-adv-x="605" 
d="M608 704l-279 -584q-31 -66 -74.5 -97.5t-93.5 -31.5q-52 0 -92 22l29 55q28 -15 59 -15q72 0 117 96l4 8l-279 547h78l235 -474l220 474h76z" />
    <glyph glyph-name="uni0424" unicode="&#x424;" horiz-adv-x="796" 
d="M716.5 206q-39.5 -64 -112 -99t-168.5 -36v-83h-72v83q-96 1 -169 35.5t-113.5 99t-40.5 151.5t40 152t113 100.5t170 36.5v70h72v-70q96 -1 168.5 -36.5t112 -100t39.5 -152.5q0 -87 -39.5 -151zM181 195q64 -57 183 -58v443q-119 -1 -183 -59.5t-64 -163.5t64 -162z
M617.5 195.5q62.5 57.5 62.5 161.5t-63 163t-181 60v-443q119 1 181.5 58.5z" />
    <glyph glyph-name="uni0425" unicode="&#x425;" horiz-adv-x="601" 
d="M608 0h-85l-222 303l-222 -303h-82l265 357l-254 347h85l211 -288l208 288h82l-250 -343z" />
    <glyph glyph-name="uni0426" unicode="&#x426;" horiz-adv-x="750" 
d="M730 66v-244h-42l-32 178h-563v704h72v-638h411v638h72v-638h82z" />
    <glyph glyph-name="uni0427" unicode="&#x427;" horiz-adv-x="653" 
d="M560 704v-704h-72v350q-68 -82 -189 -82q-115 0 -172 65t-57 168v203h72v-195q0 -176 165 -176q61 0 104.5 23t76.5 68v280h72z" />
    <glyph glyph-name="uni0428" unicode="&#x428;" horiz-adv-x="1043" 
d="M878 704h72v-704h-857v704h72v-638h320v638h72v-638h321v638z" />
    <glyph glyph-name="uni0429" unicode="&#x429;" horiz-adv-x="1053" 
d="M1033 66v-244h-43l-32 178h-865v704h72v-638h320v638h72v-638h321v638h72v-638h83z" />
    <glyph glyph-name="uni042A" unicode="&#x42a;" horiz-adv-x="734" 
d="M580 389q52 -24 82.5 -70.5t30.5 -110.5q0 -63 -30.5 -110.5t-82.5 -72.5t-114 -25h-257v638h-194v66h266v-291h185q62 0 114 -24zM547 85.5q34 19.5 52 52t18 70.5q0 60 -40.5 100t-110.5 40h-185v-282h185q47 0 81 19.5z" />
    <glyph glyph-name="uni042B" unicode="&#x42b;" horiz-adv-x="843" 
d="M464 389q52 -24 82.5 -70.5t30.5 -110.5q0 -63 -30.5 -110.5t-82.5 -72.5t-114 -25h-257v704h72v-291h185q62 0 114 -24zM678 704h72v-704h-72v704zM431 85.5q34 19.5 52 52t18 70.5q0 60 -40.5 100t-110.5 40h-185v-282h185q47 0 81 19.5z" />
    <glyph glyph-name="uni042C" unicode="&#x42c;" horiz-adv-x="618" 
d="M464 389q52 -24 82.5 -70.5t30.5 -110.5q0 -63 -30.5 -110.5t-82.5 -72.5t-114 -25h-257v704h72v-291h185q62 0 114 -24zM431 85.5q34 19.5 52 52t18 70.5q0 60 -40.5 100t-110.5 40h-185v-282h185q47 0 81 19.5z" />
    <glyph glyph-name="uni042D" unicode="&#x42d;" horiz-adv-x="687" 
d="M470.5 667.5q82.5 -48.5 129.5 -132t47 -183.5t-47 -183.5t-129.5 -132t-183.5 -48.5q-74 0 -136 23.5t-119 77.5l43 48q89 -82 212 -82q77 0 139.5 35t100.5 97.5t43 141.5h-377v66h375q-9 74 -47.5 131.5t-99 90t-134.5 32.5q-121 0 -211 -81l-43 47q56 53 118 77
t136 24q101 0 183.5 -48.5z" />
    <glyph glyph-name="uni042E" unicode="&#x42e;" horiz-adv-x="1022" 
d="M818 669q77 -47 120 -130t43 -187q0 -105 -43 -188t-120 -129.5t-174 -46.5q-93 0 -168 43.5t-119.5 121t-48.5 176.5h-143v-329h-72v704h72v-308h144q9 93 54 166t118 113.5t163 40.5q97 0 174 -47zM779 92.5q59 37.5 92.5 105t33.5 154.5t-33.5 154.5t-92.5 105
t-135 37.5t-135 -37.5t-92.5 -105t-33.5 -154.5t33.5 -154.5t92.5 -105t135 -37.5t135 37.5z" />
    <glyph glyph-name="uni042F" unicode="&#x42f;" horiz-adv-x="619" 
d="M526 0h-72v285h-133l-224 -285h-86l234 297q-76 16 -121 68.5t-45 129.5q0 60 28.5 107.5t80.5 74.5t120 27h218v-704zM454 351v287h-146q-69 0 -112.5 -39.5t-43.5 -103.5q0 -67 43.5 -105.5t115.5 -38.5h143z" />
    <glyph glyph-name="uni0430" unicode="&#x430;" horiz-adv-x="472" 
d="M364 459q45 -49 45 -128v-331h-42l-28 50q-26 -28 -68 -45t-86 -17q-71 0 -114 37.5t-43 101.5q0 69 59.5 109.5t169.5 59.5l81 14v17q0 54 -28.5 86.5t-90.5 32.5q-78 0 -138 -51l-37 41q31 34 80 53t97 19q98 0 143 -49zM274 65q37 15 64 41v149l-63 -11
q-81 -15 -128.5 -40.5t-47.5 -75.5q0 -35 24 -56.5t71 -21.5q43 0 80 15z" />
    <glyph glyph-name="uni0431" unicode="&#x431;" horiz-adv-x="559" 
d="M422.5 443.5q51.5 -31.5 78.5 -86.5t27 -126q0 -63 -27 -118.5t-81.5 -90t-130.5 -34.5q-120 0 -182.5 82.5t-62.5 250.5q0 126 29.5 201.5t90 114.5t159.5 54l167 26l15 -62l-169 -30q-80 -14 -126.5 -39t-70.5 -74.5t-27 -137.5q31 49 78.5 75t107.5 26
q73 0 124.5 -31.5zM374.5 74.5q37.5 23.5 58 64.5t20.5 92q0 84 -43 131t-118 47q-55 0 -100.5 -27t-72.5 -75v-4q0 -124 42 -188t127 -64q49 0 86.5 23.5z" />
    <glyph glyph-name="uni0432" unicode="&#x432;" horiz-adv-x="490" 
d="M433.5 217q24.5 -34 24.5 -75q0 -65 -43.5 -103.5t-106.5 -38.5h-241v496h208q64 0 108 -34t44 -96q0 -32 -15 -58t-44 -43q41 -14 65.5 -48zM138 439v-157h133q38 0 61.5 22.5t23.5 56.5q0 35 -23.5 56.5t-67.5 21.5h-127zM363 82q24 25 24 62q0 36 -24 58.5t-68 22.5
h-157v-168h158q43 0 67 25z" />
    <glyph glyph-name="uni0433" unicode="&#x433;" horiz-adv-x="391" 
d="M377 496v-58h-239v-438h-71v496h310z" />
    <glyph glyph-name="uni0434" unicode="&#x434;" horiz-adv-x="576" 
d="M557 58v-198h-43l-22 140h-408l-23 -140h-42v198h47q41 32 55 80.5t14 147.5v210h357v-438h65zM189.5 144.5q-15.5 -53.5 -50.5 -86.5h282v380h-216v-148q0 -92 -15.5 -145.5z" />
    <glyph glyph-name="uni0435" unicode="&#x435;" horiz-adv-x="512" 
d="M103 236q0 -54 22 -96.5t61 -66t88 -23.5q95 0 151 73l46 -39q-30 -43 -81.5 -69.5t-117.5 -26.5q-74 0 -128.5 34.5t-83.5 93.5t-29 132q0 71 28 130.5t81 94.5t124 35q69 0 118 -31.5t73.5 -85t24.5 -118.5v-32h-377v-5zM158.5 405q-41.5 -41 -52.5 -110h305
q-6 71 -46.5 111t-102.5 40t-103.5 -41z" />
    <glyph glyph-name="uni0436" unicode="&#x436;" horiz-adv-x="694" 
d="M620 0l-203 227h-35v-227h-70v227h-35l-203 -227h-80l225 256l-215 240h79l189 -212h40v212h70v-212h40l189 212h79l-214 -240l224 -256h-80z" />
    <glyph glyph-name="uni0437" unicode="&#x437;" horiz-adv-x="439" 
d="M380.5 211.5q26.5 -33.5 26.5 -78.5q0 -39 -22 -72t-67.5 -53t-111.5 -20q-107 0 -180 68l38 45q29 -26 63.5 -39t79.5 -13q58 0 93 24.5t35 63.5q0 42 -37 66t-104 24h-56v56h55q54 0 86.5 22t32.5 64q0 37 -28 57.5t-80 20.5q-81 0 -140 -44l-39 44q77 61 183 61
q78 0 127 -36.5t49 -98.5q0 -37 -20 -65.5t-56 -45.5q46 -17 72.5 -50.5z" />
    <glyph glyph-name="uni0438" unicode="&#x438;" horiz-adv-x="558" 
d="M451 496h40v-496h-70v362l-316 -362h-38v496h70v-366z" />
    <glyph glyph-name="uni0439" unicode="&#x439;" horiz-adv-x="558" 
d="M451 496h40v-496h-70v362l-316 -362h-38v496h70v-366zM190.5 607.5q-36.5 35.5 -39.5 96.5h53q2 -37 22 -57.5t57 -20.5q34 0 53.5 20.5t21.5 57.5h53q-4 -61 -39.5 -96.5t-88.5 -35.5q-56 0 -92.5 35.5z" />
    <glyph glyph-name="uni043A" unicode="&#x43a;" horiz-adv-x="492" 
d="M269 256l229 -256h-88l-204 227h-68v-227h-71v496h71v-212h71l193 212h83z" />
    <glyph glyph-name="uni043B" unicode="&#x43b;" horiz-adv-x="552" 
d="M485 0h-71v438h-211v-127q0 -129 -15 -198t-46.5 -95.5t-84.5 -26.5q-39 0 -69 17l29 51q16 -8 38 -8q29 0 45.5 19.5t24.5 74t8 160.5v191h352v-496z" />
    <glyph glyph-name="uni043C" unicode="&#x43c;" horiz-adv-x="641" 
d="M521 496h54v-496h-70v331l-168 -331h-37l-163 324v-324h-70v496h54l198 -407z" />
    <glyph glyph-name="uni043D" unicode="&#x43d;" horiz-adv-x="541" 
d="M404 496h71v-496h-71v228h-266v-228h-71v496h71v-211h266v211z" />
    <glyph glyph-name="uni043E" unicode="&#x43e;" horiz-adv-x="556" 
d="M151.5 22q-56.5 34 -88.5 93.5t-32 132.5t32 132.5t88.5 93.5t126.5 34q71 0 127 -34t88 -93.5t32 -132.5t-32 -132.5t-88 -93.5t-127 -34q-70 0 -126.5 34zM368 77q40 26 62.5 71t22.5 100t-22.5 100t-62.5 71t-90 26t-90 -26t-62.5 -71t-22.5 -100t22.5 -100t62.5 -71
t90 -26t90 26z" />
    <glyph glyph-name="uni043F" unicode="&#x43f;" horiz-adv-x="541" 
d="M475 496v-496h-71v438h-266v-438h-71v496h408z" />
    <glyph glyph-name="uni0440" unicode="&#x440;" horiz-adv-x="548" 
d="M402.5 473.5q53.5 -34.5 84 -94t30.5 -131.5t-30 -131.5t-85 -94t-125 -34.5q-86 0 -139 48v-244h-71v704h43l27 -48q25 27 64.5 43.5t81.5 16.5q66 0 119.5 -34.5zM359 75.5q39 24.5 62.5 69t23.5 103.5q0 56 -21.5 101t-60.5 70.5t-90 25.5q-42 0 -74.5 -15t-60.5 -45
v-279q53 -55 135 -55q47 0 86 24.5z" />
    <glyph glyph-name="uni0441" unicode="&#x441;" horiz-adv-x="469" 
d="M150.5 23q-55.5 32 -87.5 90.5t-32 134.5q0 77 31 136t85.5 91.5t122.5 32.5q58 0 101.5 -19t80.5 -56l-41 -51q-53 60 -141 60q-75 0 -121 -53t-46 -141q0 -58 23 -101t62.5 -66.5t85.5 -23.5q39 0 74.5 13t62.5 39l37 -47q-35 -35 -80 -53t-94 -18q-68 0 -123.5 32z
" />
    <glyph glyph-name="uni0442" unicode="&#x442;" horiz-adv-x="456" 
d="M440 496v-58h-175v-438h-71v438h-175v58h421z" />
    <glyph glyph-name="uni0443" unicode="&#x443;" horiz-adv-x="488" 
d="M416 496h72l-312 -704h-69l107 237l-214 467h75l173 -390z" />
    <glyph glyph-name="uni0444" unicode="&#x444;" horiz-adv-x="697" 
d="M593 67q-74 -70 -209 -78v-197h-70v197q-94 6 -157.5 43t-94.5 93.5t-31 122.5t31 122.5t94.5 93.5t157.5 43v197h70v-197q135 -8 209 -78t74 -181t-74 -181zM155.5 111.5q52.5 -54.5 158.5 -60.5v394q-106 -6 -158.5 -60.5t-52.5 -136.5t52.5 -136.5zM542 112
q53 54 53 136t-53 136t-158 61v-394q105 7 158 61z" />
    <glyph glyph-name="uni0445" unicode="&#x445;" horiz-adv-x="437" 
d="M445 0h-81l-145 196l-146 -196h-81l188 248l-185 248h81l144 -193l140 193h81l-182 -246z" />
    <glyph glyph-name="uni0446" unicode="&#x446;" horiz-adv-x="552" 
d="M468 58h65v-198h-43l-22 140h-401v496h71v-438h259v438h71v-438z" />
    <glyph glyph-name="uni0447" unicode="&#x447;" horiz-adv-x="504" 
d="M437 496v-496h-70v233q-56 -62 -137 -62q-86 0 -132 52t-46 141v132h71v-127q0 -68 28 -102t92 -34q40 0 69.5 15.5t54.5 44.5v203h70z" />
    <glyph glyph-name="uni0448" unicode="&#x448;" horiz-adv-x="780" 
d="M642 496h71v-496h-646v496h71v-438h217v438h70v-438h217v438z" />
    <glyph glyph-name="uni0449" unicode="&#x449;" horiz-adv-x="797" 
d="M713 58h65v-198h-42l-24 140h-645v496h71v-438h217v438h70v-438h217v438h71v-438z" />
    <glyph glyph-name="uni044A" unicode="&#x44a;" horiz-adv-x="550" 
d="M478.5 259q45.5 -40 45.5 -109q0 -68 -46 -109t-117 -41h-217v438h-130v58h201v-197h146q72 0 117.5 -40zM428.5 85q24.5 27 24.5 65q0 39 -24.5 66t-67.5 27h-146v-185h146q43 0 67.5 27z" />
    <glyph glyph-name="uni044B" unicode="&#x44b;" horiz-adv-x="669" 
d="M399.5 259q45.5 -40 45.5 -109q0 -68 -46 -109t-117 -41h-215v496h71v-197h144q72 0 117.5 -40zM531 496h71v-496h-71v496zM350 85q25 27 25 65q0 39 -25 66t-68 27h-144v-185h144q43 0 68 27z" />
    <glyph glyph-name="uni044C" unicode="&#x44c;" horiz-adv-x="473" 
d="M402 259q46 -40 46 -109t-46 -109.5t-118 -40.5h-217v496h71v-197h146q72 0 118 -40zM352 85q25 27 25 65q0 39 -25 66t-68 27h-146v-185h146q43 0 68 27z" />
    <glyph glyph-name="uni044D" unicode="&#x44d;" horiz-adv-x="472" 
d="M323 475q55 -33 86.5 -92t31.5 -135t-32.5 -134.5t-89 -90.5t-123.5 -32q-51 0 -95 20.5t-75 58.5l37 42q26 -26 61 -40.5t72 -14.5q44 0 81.5 20.5t62 59t28.5 90.5h-240v56h239q-9 74 -54 116.5t-113 42.5q-90 0 -137 -62l-42 47q65 81 179 81q68 0 123 -33z" />
    <glyph glyph-name="uni044E" unicode="&#x44e;" horiz-adv-x="749" 
d="M609.5 474q52.5 -34 80.5 -93t28 -133t-28 -133t-80.5 -93t-124.5 -34q-66 0 -116.5 30.5t-80 84.5t-34.5 122h-116v-225h-71v496h71v-213h117q7 65 36.5 116t79.5 80t114 29q72 0 124.5 -34zM604 106.5q42 55.5 42 141.5t-42 141.5t-119 55.5q-78 0 -119 -55t-41 -142
q0 -86 41.5 -141.5t118.5 -55.5t119 55.5z" />
    <glyph glyph-name="uni044F" unicode="&#x44f;" horiz-adv-x="500" 
d="M433 496v-496h-70v191h-126l-145 -191h-81l157 203q-52 13 -83 49.5t-31 89.5q0 44 20.5 79t59 55t88.5 20h211zM363 248v190h-142q-39 0 -67.5 -27t-28.5 -69q0 -41 28.5 -67.5t67.5 -26.5h142z" />
    <glyph glyph-name="uni0450" unicode="&#x450;" horiz-adv-x="512" 
d="M103 236q0 -54 22 -96.5t61 -66t88 -23.5q95 0 151 73l46 -39q-30 -43 -81.5 -69.5t-117.5 -26.5q-74 0 -128.5 34.5t-83.5 93.5t-29 132q0 71 28 130.5t81 94.5t124 35q69 0 118 -31.5t73.5 -85t24.5 -118.5v-32h-377v-5zM158.5 405q-41.5 -41 -52.5 -110h305
q-6 71 -46.5 111t-102.5 40t-103.5 -41zM149 704h76l91 -140v-4h-58z" />
    <glyph glyph-name="uni0451" unicode="&#x451;" horiz-adv-x="512" 
d="M103 236q0 -54 22 -96.5t61 -66t88 -23.5q95 0 151 73l46 -39q-30 -43 -81.5 -69.5t-117.5 -26.5q-74 0 -128.5 34.5t-83.5 93.5t-29 132q0 71 28 130.5t81 94.5t124 35q69 0 118 -31.5t73.5 -85t24.5 -118.5v-32h-377v-5zM158.5 405q-41.5 -41 -52.5 -110h305
q-6 71 -46.5 111t-102.5 40t-103.5 -41zM136 691h69v-76h-69v76zM306 691h69v-76h-69v76z" />
    <glyph glyph-name="uni0452" unicode="&#x452;" horiz-adv-x="529" 
d="M418 453.5q49 -54.5 49 -139.5v-411q0 -54 -32 -86.5t-86 -32.5q-40 0 -73 21l31 54q18 -13 41 -13q21 0 34.5 14.5t13.5 41.5v406q0 67 -34.5 102t-95.5 35q-41 0 -70.5 -16t-57.5 -48v-381h-71v584h-52v48h52v72h71v-72h164v-48h-164v-143q29 34 63 50.5t76 16.5
q92 0 141 -54.5z" />
    <glyph glyph-name="uni0453" unicode="&#x453;" horiz-adv-x="391" 
d="M377 496v-58h-239v-438h-71v496h310zM177 564l90 140h76l-109 -144h-57v4z" />
    <glyph glyph-name="uni0454" unicode="&#x454;" horiz-adv-x="472" 
d="M348 71.5q35 14.5 61 40.5l37 -42q-31 -38 -75 -58.5t-95 -20.5q-67 0 -123.5 32t-89 90.5t-32.5 134.5t31.5 135t86.5 92t123 33q115 0 179 -81l-42 -47q-47 62 -137 62q-68 0 -113 -42.5t-54 -116.5h239v-56h-240q4 -52 28.5 -90.5t62 -59t81.5 -20.5q37 0 72 14.5z
" />
    <glyph glyph-name="uni0455" unicode="&#x455;" horiz-adv-x="441" 
d="M116 7.5q-50 19.5 -85 59.5l42 45q31 -31 68 -47t85 -16t79 20t31 57q0 33 -23 54.5t-81 36.5l-47 12q-142 36 -142 140q0 63 49 101t127 38q53 0 101 -18t79 -49l-38 -45q-57 51 -144 51q-50 0 -76 -20t-26 -53q0 -35 25.5 -54t85.5 -35l46 -12q71 -18 105 -55.5
t34 -87.5q0 -64 -51.5 -103t-134.5 -39q-59 0 -109 19.5z" />
    <glyph glyph-name="uni0456" unicode="&#x456;" horiz-adv-x="205" 
d="M67 496h71v-496h-71v496zM66 692h72v-73h-72v73z" />
    <glyph glyph-name="uni0457" unicode="&#x457;" horiz-adv-x="205" 
d="M67 496h71v-496h-71v496zM-16 691h69v-76h-69v76zM154 691h69v-76h-69v76z" />
    <glyph glyph-name="uni0458" unicode="&#x458;" horiz-adv-x="205" 
d="M19 -154q21 0 34.5 14.5t13.5 41.5v594h71v-593q0 -54 -32 -86.5t-86 -32.5q-40 0 -73 21l31 54q20 -13 41 -13zM66 692h72v-73h-72v73z" />
    <glyph glyph-name="uni0459" unicode="&#x459;" horiz-adv-x="809" 
d="M736 250q47 -38 47 -106q0 -67 -47 -105.5t-119 -38.5h-215v438h-199v-127q0 -129 -15 -198t-46.5 -95.5t-84.5 -26.5q-39 0 -69 17l29 51q16 -8 38 -8q29 0 45.5 19.5t24.5 74t8 160.5v191h340v-208h144q72 0 119 -38zM686.5 82.5q25.5 24.5 25.5 61.5q0 38 -25.5 62.5
t-69.5 24.5h-144v-173h144q44 0 69.5 24.5z" />
    <glyph glyph-name="uni045A" unicode="&#x45a;" horiz-adv-x="788" 
d="M715 252.5q47 -38.5 47 -106.5q0 -67 -47 -106.5t-119 -39.5h-212v235h-246v-235h-71v496h71v-205h246v205h71v-205h141q72 0 119 -38.5zM665.5 83.5q25.5 25.5 25.5 62.5q0 38 -25.5 63.5t-69.5 25.5h-141v-177h141q44 0 69.5 25.5z" />
    <glyph glyph-name="uni045B" unicode="&#x45b;" horiz-adv-x="529" 
d="M418 453.5q49 -54.5 49 -139.5v-314h-71v308q0 67 -34.5 102t-95.5 35q-41 0 -70.5 -16t-57.5 -48v-381h-71v584h-52v48h52v72h71v-72h164v-48h-164v-143q29 34 63 50.5t76 16.5q92 0 141 -54.5z" />
    <glyph glyph-name="uni045C" unicode="&#x45c;" horiz-adv-x="492" 
d="M269 256l229 -256h-88l-204 227h-68v-227h-71v496h71v-212h71l193 212h83zM237 564l90 140h76l-109 -144h-57v4z" />
    <glyph glyph-name="uni045D" unicode="&#x45d;" horiz-adv-x="558" 
d="M451 496h40v-496h-70v362l-316 -362h-38v496h70v-366zM177 704h76l91 -140v-4h-58z" />
    <glyph glyph-name="uni045E" unicode="&#x45e;" horiz-adv-x="488" 
d="M416 496h72l-312 -704h-69l107 237l-214 467h75l173 -390zM151.5 607.5q-36.5 35.5 -39.5 96.5h53q2 -37 22 -57.5t57 -20.5q34 0 53.5 20.5t21.5 57.5h53q-4 -61 -39.5 -96.5t-88.5 -35.5q-56 0 -92.5 35.5z" />
    <glyph glyph-name="uni045F" unicode="&#x45f;" horiz-adv-x="535" 
d="M397 496h71v-496h-164l-16 -140h-40l-19 140h-162v496h71v-438h259v438z" />
    <glyph glyph-name="uni0490" unicode="&#x490;" horiz-adv-x="532" 
d="M477 857h41v-219h-353v-638h-72v704h356z" />
    <glyph glyph-name="uni0491" unicode="&#x491;" horiz-adv-x="391" 
d="M336 617h41v-179h-239v-438h-71v496h248z" />
    <glyph glyph-name="uni0492" unicode="&#x492;" horiz-adv-x="549" 
d="M534 638h-353v-249h222v-65h-222v-324h-72v324h-109v65h109v315h425v-66z" />
    <glyph glyph-name="uni0493" unicode="&#x493;" horiz-adv-x="394" 
d="M377 438h-239v-177h198v-57h-198v-204h-71v204h-49v57h49v235h310v-58z" />
    <glyph glyph-name="uni0496" unicode="&#x496;" horiz-adv-x="969" 
d="M871 66h103v-244h-42l-32 178h-60l-298 332h-44v-332h-72v332h-44l-296 -332h-90l325 364l-308 340h88l280 -306h45v306h72v-306h45l282 306h88l-310 -339z" />
    <glyph glyph-name="uni0497" unicode="&#x497;" horiz-adv-x="744" 
d="M649 58h76v-198h-42l-22 140h-42v1l-202 226h-35v-227h-70v227h-35l-203 -227h-80l225 256l-215 240h79l189 -212h40v212h70v-212h40l189 212h79l-214 -240z" />
    <glyph glyph-name="uni049A" unicode="&#x49a;" horiz-adv-x="660" 
d="M586 66h80v-244h-43l-31 178h-35l-328 331h-64v-331h-72v704h72v-306h66l314 306h91l-347 -339z" />
    <glyph glyph-name="uni049B" unicode="&#x49b;" horiz-adv-x="537" 
d="M446 58h72v-198h-43l-22 140h-43l-204 227h-68v-227h-71v496h71v-212h71l193 212h83l-216 -240z" />
    <glyph glyph-name="uni049C" unicode="&#x49c;" horiz-adv-x="659" 
d="M663 0h-89l-302 331v-162h-49v164h-58v-333h-72v704h72v-305h58v159h49v-158l283 304h88l-313 -334z" />
    <glyph glyph-name="uni049D" unicode="&#x49d;" horiz-adv-x="499" 
d="M422 0l-195 225h-3v-116h-48v116h-38v-225h-71v496h71v-212h38v111h48v-108l192 209h82l-217 -236l224 -260h-83z" />
    <glyph glyph-name="uni04A2" unicode="&#x4a2;" horiz-adv-x="758" 
d="M656 66h82v-244h-42l-32 178h-80v329h-419v-329h-72v704h72v-308h419v308h72v-638z" />
    <glyph glyph-name="uni04A3" unicode="&#x4a3;" horiz-adv-x="559" 
d="M475 58h65v-198h-43l-22 140h-71v228h-266v-228h-71v496h71v-211h266v211h71v-438z" />
    <glyph glyph-name="uni04AE" unicode="&#x4ae;" horiz-adv-x="633" 
d="M550 704h81l-276 -433v-271h-72v271l-281 433h81l236 -365z" />
    <glyph glyph-name="uni04AF" unicode="&#x4af;" horiz-adv-x="487" 
d="M415 496h72l-208 -487v-217h-71v217l-208 487h72l172 -415z" />
    <glyph glyph-name="uni04B0" unicode="&#x4b0;" horiz-adv-x="633" 
d="M355 271v-54h147v-53h-147v-164h-72v164h-149v53h149v54l-281 433h81l236 -365l231 365h81z" />
    <glyph glyph-name="uni04B1" unicode="&#x4b1;" horiz-adv-x="487" 
d="M279 9v-48h123v-48h-123v-121h-71v121h-118v48h118v48l-208 487h72l172 -415l171 415h72z" />
    <glyph glyph-name="uni04B2" unicode="&#x4b2;" horiz-adv-x="633" 
d="M560 66h79v-244h-42l-32 178h-42l-222 303l-222 -303h-82l265 357l-254 347h85l211 -288l208 288h82l-250 -343z" />
    <glyph glyph-name="uni04B3" unicode="&#x4b3;" horiz-adv-x="485" 
d="M402 58h67v-198h-43l-22 140h-40l-145 196l-146 -196h-81l188 248l-185 248h81l144 -193l140 193h81l-182 -246z" />
    <glyph glyph-name="uni04B8" unicode="&#x4b8;" horiz-adv-x="653" 
d="M560 704v-704h-72v350q-57 -69 -152 -80v-156h-49v154q-108 4 -162.5 68.5t-54.5 164.5v203h72v-195q0 -166 145 -175v170h49v-170q49 6 86 28.5t66 61.5v280h72z" />
    <glyph glyph-name="uni04B9" unicode="&#x4b9;" horiz-adv-x="504" 
d="M437 496v-496h-70v233q-43 -47 -100 -58v-121h-49v117q-80 4 -123 55.5t-43 137.5v132h71v-127q0 -61 22.5 -94.5t72.5 -40.5v103h49v-102q57 7 100 58v203h70z" />
    <glyph glyph-name="uni04BA" unicode="&#x4ba;" horiz-adv-x="654" 
d="M525.5 371q57.5 -65 57.5 -168v-203h-72v195q0 89 -42.5 132.5t-122.5 43.5q-60 0 -104 -23t-77 -67v-281h-72v704h72v-349q69 81 189 81q114 0 171.5 -65z" />
    <glyph glyph-name="uni04BB" unicode="&#x4bb;" horiz-adv-x="529" 
d="M418 453.5q49 -54.5 49 -139.5v-314h-71v308q0 67 -34.5 102t-95.5 35q-41 0 -70.5 -16t-57.5 -48v-381h-71v704h71v-263q29 34 63 50.5t76 16.5q92 0 141 -54.5z" />
    <glyph glyph-name="uni04C0" unicode="&#x4c0;" horiz-adv-x="257" 
d="M93 704h72v-704h-72v704z" />
    <glyph glyph-name="uni04CF" unicode="&#x4cf;" horiz-adv-x="205" 
d="M67 704h71v-704h-71v704z" />
    <glyph glyph-name="uni04D8" unicode="&#x4d8;" horiz-adv-x="749" 
d="M545.5 669q78.5 -47 121 -130t42.5 -187q0 -102 -42.5 -185t-121 -131t-180.5 -48q-98 0 -171.5 48t-113 131t-39.5 185v25h73l518 -2q-4 80 -38.5 142t-94 97t-135.5 35q-133 0 -230 -88l-48 49q61 53 128.5 79.5t148.5 26.5q104 0 182.5 -47zM548.5 124.5
q70.5 69.5 82.5 184.5l-515 3q6 -80 40 -138t89 -88.5t123 -30.5q110 0 180.5 69.5z" />
    <glyph glyph-name="uni04D9" unicode="&#x4d9;" horiz-adv-x="512" 
d="M368.5 473.5q54.5 -34.5 83.5 -93.5t29 -132q0 -71 -28 -130.5t-81 -94.5t-124 -35q-69 0 -118 31.5t-73.5 85t-24.5 118.5v32h377v5q0 54 -22 96.5t-61 66t-88 23.5q-95 0 -151 -73l-46 39q30 43 81.5 69.5t117.5 26.5q74 0 128.5 -34.5zM353.5 91q41.5 41 52.5 110
h-305q6 -71 46.5 -111t102.5 -40t103.5 41z" />
    <glyph glyph-name="uni04E8" unicode="&#x4e8;" horiz-adv-x="804" 
d="M586.5 668.5q82.5 -47.5 129.5 -131t47 -185.5t-47 -185t-129.5 -131t-184.5 -48q-101 0 -183.5 48t-130 131t-47.5 185q0 103 47 186t129.5 130.5t184.5 47.5t184.5 -47.5zM268 617q-61 -32 -100 -90t-48 -132h564q-9 75 -47.5 132.5t-99.5 89.5t-135 32q-73 0 -134 -32
zM542 90q63 35 101 97.5t43 141.5h-568q5 -80 42.5 -142t100.5 -97t141 -35q77 0 140 35z" />
    <glyph glyph-name="uni04E9" unicode="&#x4e9;" horiz-adv-x="556" 
d="M405 474q56 -34 88 -93.5t32 -132.5t-32 -132.5t-88 -93.5t-127 -34q-70 0 -126.5 34t-88.5 93.5t-32 132.5t32 132.5t88.5 93.5t126.5 34q71 0 127 -34zM163.5 399.5q-47.5 -45.5 -58.5 -116.5h345q-10 71 -57 116.5t-115 45.5q-67 0 -114.5 -45.5zM397 100.5
q48 49.5 55 124.5h-348q7 -75 55.5 -124.5t118.5 -49.5q71 0 119 49.5z" />
    <glyph glyph-name="A.sups" unicode="&#x1d2c;" horiz-adv-x="539" 
d="M473 496l-62 135h-284l-62 -135h-60l245 529h39l245 -529h-61zM151 682h236l-118 257z" />
    <glyph glyph-name="B.sups" unicode="&#x1d2e;" horiz-adv-x="501" 
d="M440 725.5q27 -35.5 27 -79.5q0 -68 -48.5 -109t-119.5 -41h-228v522h192q71 0 119.5 -36t48.5 -102t-63 -103q45 -16 72 -51.5zM128 966v-177h138q48 0 77 25.5t29 64.5q0 38 -28.5 62.5t-81.5 24.5h-134zM378 576.5q29 28.5 29 69.5q0 40 -30 66.5t-82 26.5h-167v-191
h168q53 0 82 28.5z" />
    <glyph glyph-name="D.sups" unicode="&#x1d30;" horiz-adv-x="570" 
d="M394.5 985q65.5 -33 103.5 -92.5t38 -135.5t-38.5 -135.5t-105 -92.5t-145.5 -33h-176v522h178q80 0 145.5 -33zM365.5 575q52.5 26 81.5 73.5t29 108.5t-29 108.5t-81.5 74t-119.5 26.5h-118v-417h118q67 0 119.5 26z" />
    <glyph glyph-name="E.sups" unicode="&#x1d31;" horiz-adv-x="465" 
d="M128 549h296v-53h-353v522h342v-52h-285v-174h256v-51h-256v-192z" />
    <glyph glyph-name="G.sups" unicode="&#x1d33;" horiz-adv-x="595" 
d="M537 496h-29l-23 38q-37 -23 -78 -35t-92 -12q-82 0 -146 36t-99.5 97.5t-35.5 136.5q0 76 37 137.5t102 97t147 35.5q67 0 121.5 -22.5t94.5 -62.5l-36 -38q-31 32 -80.5 51t-104.5 19q-67 0 -117 -29t-77 -78t-27 -109q0 -63 29 -112.5t80.5 -77.5t116.5 -28
q46 0 88.5 11t72.5 34v139h-182v51h238v-279z" />
    <glyph glyph-name="H.sups" unicode="&#x1d34;" horiz-adv-x="583" 
d="M455 1018h57v-522h-57v243h-327v-243h-57v522h57v-227h327v227z" />
    <glyph glyph-name="I.sups" unicode="&#x1d35;" horiz-adv-x="199" 
d="M71 1018h57v-522h-57v522z" />
    <glyph glyph-name="J.sups" unicode="&#x1d36;" horiz-adv-x="366" 
d="M69.5 501q-34.5 14 -58.5 41l36 36q37 -40 100 -40q51 0 78.5 27.5t27.5 73.5v379h57v-376q0 -70 -44 -112.5t-120 -42.5q-42 0 -76.5 14z" />
    <glyph glyph-name="K.sups" unicode="&#x1d37;" horiz-adv-x="523" 
d="M518 496h-69l-210 251l-111 -115v-136h-57v522h57v-319l305 319h67l-225 -233z" />
    <glyph glyph-name="L.sups" unicode="&#x1d38;" horiz-adv-x="424" 
d="M128 549h284v-53h-341v522h57v-469z" />
    <glyph glyph-name="M.sups" unicode="&#x1d39;" horiz-adv-x="700" 
d="M629 1018v-522h-56v383l-207 -383h-35l-204 378v-378h-56v522h44l235 -442l235 442h44z" />
    <glyph glyph-name="N.sups" unicode="&#x1d3a;" horiz-adv-x="579" 
d="M451 1018h57v-522h-34l-346 412v-412h-57v522h34l346 -413v413z" />
    <glyph glyph-name="O.sups" unicode="&#x1d3c;" horiz-adv-x="632" 
d="M173 522.5q-65 35.5 -102 97.5t-37 137q0 76 37 137.5t101.5 97t143.5 35.5t143.5 -35.5t101.5 -97t37 -137.5q0 -75 -37 -137t-101.5 -97.5t-143.5 -35.5q-78 0 -143 35.5zM429.5 569q50.5 28 79 77.5t28.5 110.5q0 62 -28.5 111.5t-79 77.5t-113.5 28q-62 0 -112.5 -28
t-80 -78t-29.5 -111t29 -110.5t79.5 -77.5t113.5 -28t113.5 28z" />
    <glyph glyph-name="P.sups" unicode="&#x1d3e;" horiz-adv-x="469" 
d="M345.5 999q40.5 -19 65 -54.5t24.5 -83.5t-24.5 -84t-65 -55t-87.5 -19h-130v-207h-57v522h187q47 0 87.5 -19zM342.5 785q31.5 31 31.5 76q0 44 -32 74.5t-86 30.5h-128v-212h128q55 0 86.5 31z" />
    <glyph glyph-name="R.sups" unicode="&#x1d3f;" horiz-adv-x="478" 
d="M400 496l-173 209h-99v-209h-57v522h174q52 0 92.5 -20.5t62.5 -56t22 -79.5q0 -58 -35 -97.5t-95 -51.5l181 -217h-73zM128 756h112q56 0 90 28.5t34 77.5q0 47 -34 75.5t-87 28.5h-115v-210z" />
    <glyph glyph-name="T.sups" unicode="&#x1d40;" horiz-adv-x="484" 
d="M471 1018v-52h-201v-470h-57v470h-201v52h459z" />
    <glyph glyph-name="U.sups" unicode="&#x1d41;" horiz-adv-x="575" 
d="M172 514q-53 27 -84 77t-31 114v313h57v-313q0 -52 24 -89t63.5 -56.5t86.5 -19.5q74 0 124 43t50 122v313h57v-313q0 -64 -31 -114t-83.5 -77t-116.5 -27q-63 0 -116 27z" />
    <glyph glyph-name="W.sups" unicode="&#x1d42;" horiz-adv-x="821" 
d="M755 1018h61l-208 -522h-39l-159 420l-158 -420h-39l-208 522h61l168 -427l157 427h40l159 -424z" />
    <glyph glyph-name="a.sups" unicode="&#x1d43;" horiz-adv-x="372" 
d="M291.5 840q36.5 -36 36.5 -97v-247h-35l-21 37q-22 -23 -54 -36t-68 -13q-58 0 -90 29t-32 76q0 54 42.5 83t130.5 44l70 12v11q0 39 -23 62.5t-69 23.5q-35 0 -61.5 -9.5t-49.5 -29.5l-31 35q24 26 62 40.5t81 14.5q75 0 111.5 -36zM271 579v104l-52 -9
q-75 -13 -104.5 -31.5t-29.5 -51.5q0 -25 17 -40.5t54 -15.5q67 0 115 44z" />
    <glyph glyph-name="b.sups" unicode="&#x1d47;" horiz-adv-x="428" 
d="M315.5 847.5q41.5 -25.5 65 -69.5t23.5 -98q0 -53 -24 -97t-67 -70t-96 -26q-38 0 -67 11t-46 29l-19 -31h-33v522h57v-193q19 22 49 35t63 13q53 0 94.5 -25.5zM307.5 577q38.5 40 38.5 103q0 62 -36.5 102.5t-97.5 40.5t-103 -44v-201q41 -41 104 -41q56 0 94.5 40z
" />
    <glyph glyph-name="d.sups" unicode="&#x1d48;" horiz-adv-x="422" 
d="M376 1018v-522h-30l-24 38q-19 -22 -50.5 -34.5t-64.5 -12.5q-51 0 -93 25.5t-66 70t-24 97.5t24 97.5t66.5 70t95.5 25.5q69 0 108 -34v179h58zM318 580v202q-41 41 -103 41q-37 0 -67.5 -18t-48.5 -50.5t-18 -74.5q0 -62 37 -102.5t97 -40.5t103 43z" />
    <glyph glyph-name="e.sups" unicode="&#x1d49;" horiz-adv-x="398" 
d="M117.5 573.5q37.5 -38.5 96.5 -38.5q70 0 115 54l36 -30q-23 -32 -63 -52t-90 -20q-57 0 -100 25.5t-65.5 69.5t-22.5 98q0 52 22 96t63.5 70.5t96.5 26.5q79 0 123.5 -50t44.5 -126v-26h-294q0 -59 37.5 -97.5zM123 795q-33 -30 -41 -80h238q-4 51 -36 80.5t-79 29.5
q-49 0 -82 -30z" />
    <glyph glyph-name="g.sups" unicode="&#x1d4d;" horiz-adv-x="422" 
d="M376 864v-373q0 -69 -48.5 -112t-129.5 -43q-41 0 -78 12.5t-63 34.5l29 41q20 -17 49.5 -27t61.5 -10q56 0 88.5 25.5t32.5 78.5v40q-19 -21 -49 -32t-63 -11q-51 0 -92.5 26t-65.5 70t-24 97q0 52 23.5 96t65.5 70t96 26q69 0 114 -39l19 30h34zM272.5 549.5
q24.5 11.5 45.5 33.5v200q-43 41 -103 41q-57 0 -95.5 -40.5t-38.5 -103.5q0 -61 37 -101.5t97 -40.5q33 0 57.5 11.5z" />
    <glyph glyph-name="k.sups" unicode="&#x1d4f;" horiz-adv-x="397" 
d="M324 496l-141 176l-74 -74v-102h-57v522h57v-356l198 202h67l-155 -156l173 -212h-68z" />
    <glyph glyph-name="m.sups" unicode="&#x1d50;" horiz-adv-x="675" 
d="M588 832.5q40 -40.5 40 -104.5v-232h-57v227q0 49 -28 74.5t-75 25.5q-33 0 -61 -15t-46 -38q4 -17 4 -41v-233h-56v228q0 48 -26.5 73.5t-73.5 25.5q-31 0 -54 -11.5t-46 -33.5v-282h-57v368h31l25 -42q24 26 50 38.5t60 12.5q46 0 78.5 -17t49.5 -48q49 65 131 65
q71 0 111 -40.5z" />
    <glyph glyph-name="o.sups" unicode="&#x1d52;" horiz-adv-x="431" 
d="M117.5 509.5q-43.5 25.5 -68.5 70.5t-25 100t25 100t68.5 70.5t97.5 25.5q55 0 98.5 -25.5t68.5 -70.5t25 -100t-25 -100t-68.5 -70.5t-98.5 -25.5q-54 0 -97.5 25.5zM310.5 577.5q38.5 41.5 38.5 102.5t-38.5 102.5t-95.5 41.5t-95 -41.5t-38 -102.5t38 -102.5t95 -41.5
t95.5 41.5z" />
    <glyph glyph-name="p.sups" unicode="&#x1d56;" horiz-adv-x="428" 
d="M314 847.5q42 -25.5 66 -70t24 -97.5t-24 -97t-66.5 -70t-96.5 -26q-68 0 -108 35v-180h-57v522h33l22 -34q20 20 50.5 31.5t63.5 11.5q51 0 93 -25.5zM279.5 555q30.5 18 48.5 50.5t18 74.5q0 62 -36.5 102.5t-97.5 40.5q-59 0 -103 -42v-203q43 -41 103 -41
q37 0 67.5 18z" />
    <glyph glyph-name="t.sups" unicode="&#x1d57;" horiz-adv-x="304" 
d="M294 523q-42 -36 -95 -36t-88 30.5t-35 82.5v218h-66v46h70v91l49 30h4v-121h152v-46h-152v-210q0 -31 18 -50.5t51 -19.5q37 0 62 24z" />
    <glyph glyph-name="u.sups" unicode="&#x1d58;" horiz-adv-x="412" 
d="M365 864v-368h-30l-25 42q-24 -26 -51 -38.5t-60 -12.5q-70 0 -108.5 40.5t-38.5 103.5v233h57v-228q0 -49 26.5 -74t73.5 -25q32 0 55 11.5t45 34.5v281h56z" />
    <glyph glyph-name="v.sups" unicode="&#x1d5b;" horiz-adv-x="386" 
d="M323 864h58l-172 -370h-33l-171 370h58l130 -287z" />
    <glyph glyph-name="i.subs" unicode="&#x1d62;" horiz-adv-x="156" 
d="M53 329h55v-57h-55v57zM52 184h57v-368h-57v368z" />
    <glyph glyph-name="r.subs" unicode="&#x1d63;" horiz-adv-x="285" 
d="M276 173l-26 -42q-18 12 -52 12q-61 0 -89 -45v-282h-57v368h33l22 -36q14 22 41 33.5t57 11.5q41 0 71 -20z" />
    <glyph glyph-name="u.subs" unicode="&#x1d64;" horiz-adv-x="412" 
d="M365 184v-368h-30l-25 42q-24 -26 -51 -38.5t-60 -12.5q-70 0 -108.5 40.5t-38.5 103.5v233h57v-228q0 -49 26.5 -74t73.5 -25q32 0 55 11.5t45 34.5v281h56z" />
    <glyph glyph-name="v.subs" unicode="&#x1d65;" horiz-adv-x="386" 
d="M323 184h58l-172 -370h-33l-171 370h58l130 -287z" />
    <glyph glyph-name="c.sups" unicode="&#x1d9c;" horiz-adv-x="376" 
d="M117.5 513q-43.5 24 -68.5 67.5t-25 100.5q0 56 24 100t66.5 68t95.5 24q85 0 140 -60l-34 -37q-20 22 -45 33t-61 11q-57 0 -93 -38t-36 -101t38.5 -101t94.5 -38q62 0 102 39l31 -35q-27 -27 -61.5 -42t-72.5 -15q-52 0 -95.5 24z" />
    <glyph glyph-name="f.sups" unicode="&#x1da0;" horiz-adv-x="276" 
d="M263 818h-137v-322h-58v322h-58v46h58v46q0 54 29 85.5t84 31.5q41 0 77 -21l-25 -42q-24 15 -51 15q-24 0 -40 -15.5t-16 -43.5v-56h137v-46z" />
    <glyph glyph-name="z.sups" unicode="&#x1dbb;" horiz-adv-x="392" 
d="M345 864v-29l-216 -293h216v-46h-293v29l213 293h-204v46h284z" />
    <glyph glyph-name="Wgrave" unicode="&#x1e80;" horiz-adv-x="1058" 
d="M973 704h76l-267 -704h-47l-208 566l-204 -566h-47l-267 704h77l215 -580l202 580h51l206 -579zM423 912h76l91 -140v-4h-58z" />
    <glyph glyph-name="wgrave" unicode="&#x1e81;" horiz-adv-x="811" 
d="M739 496h72l-198 -499h-46l-160 380l-164 -380h-45l-198 499h75l148 -387l161 390h44l163 -392zM302 704h76l91 -140v-4h-58z" />
    <glyph glyph-name="Wacute" unicode="&#x1e82;" horiz-adv-x="1058" 
d="M973 704h76l-267 -704h-47l-208 566l-204 -566h-47l-267 704h77l215 -580l202 580h51l206 -579zM468 772l90 140h76l-109 -144h-57v4z" />
    <glyph glyph-name="wacute" unicode="&#x1e83;" horiz-adv-x="811" 
d="M739 496h72l-198 -499h-46l-160 380l-164 -380h-45l-198 499h75l148 -387l161 390h44l163 -392zM347 564l90 140h76l-109 -144h-57v4z" />
    <glyph glyph-name="Wdieresis" unicode="&#x1e84;" horiz-adv-x="1058" 
d="M973 704h76l-267 -704h-47l-208 566l-204 -566h-47l-267 704h77l215 -580l202 580h51l206 -579zM409 899h69v-76h-69v76zM579 899h69v-76h-69v76z" />
    <glyph glyph-name="wdieresis" unicode="&#x1e85;" horiz-adv-x="811" 
d="M739 496h72l-198 -499h-46l-160 380l-164 -380h-45l-198 499h75l148 -387l161 390h44l163 -392zM288 691h69v-76h-69v76zM458 691h69v-76h-69v76z" />
    <glyph glyph-name="Germandbls" unicode="&#x1e9e;" horiz-adv-x="747" 
d="M604 374q49 -28 75.5 -75t26.5 -102q0 -59 -28 -106.5t-80 -75t-121 -27.5q-54 0 -101 19.5t-83 55.5l40 47q59 -59 144 -59q70 0 113.5 40.5t43.5 105.5q0 61 -43 101.5t-115 40.5q-64 0 -114 -40l-33 44l251 295h-206q-103 0 -162.5 -58t-59.5 -171v-409h-72v410
q0 92 36.5 158.5t102.5 101t154 34.5h309v-44l-229 -261q18 3 38 3q64 0 113 -28z" />
    <glyph glyph-name="uni1EA0" unicode="&#x1ea0;" horiz-adv-x="693" 
d="M606 0l-80 185h-360l-80 -185h-76l313 713h47l313 -713h-77zM195 251h303l-152 351zM311 -78h72v-73h-72v73z" />
    <glyph glyph-name="uni1EA1" unicode="&#x1ea1;" horiz-adv-x="472" 
d="M364 459q45 -49 45 -128v-331h-42l-28 50q-26 -28 -68 -45t-86 -17q-71 0 -114 37.5t-43 101.5q0 69 59.5 109.5t169.5 59.5l81 14v17q0 54 -28.5 86.5t-90.5 32.5q-78 0 -138 -51l-37 41q31 34 80 53t97 19q98 0 143 -49zM274 65q37 15 64 41v149l-63 -11
q-81 -15 -128.5 -40.5t-47.5 -75.5q0 -35 24 -56.5t71 -21.5q43 0 80 15zM181 -78h72v-73h-72v73z" />
    <glyph glyph-name="uni1EA2" unicode="&#x1ea2;" horiz-adv-x="693" 
d="M606 0l-80 185h-360l-80 -185h-76l313 713h47l313 -713h-77zM195 251h303l-152 351zM418 820q-18 -19 -50 -22v-36h-42v70h18q19 0 30 9t11 27q0 17 -9.5 26t-26.5 9q-25 0 -47 -18l-21 34q27 27 73 27q37 0 59.5 -21.5t22.5 -56.5q0 -29 -18 -48z" />
    <glyph glyph-name="uni1EA3" unicode="&#x1ea3;" horiz-adv-x="472" 
d="M364 459q45 -49 45 -128v-331h-42l-28 50q-26 -28 -68 -45t-86 -17q-71 0 -114 37.5t-43 101.5q0 69 59.5 109.5t169.5 59.5l81 14v17q0 54 -28.5 86.5t-90.5 32.5q-78 0 -138 -51l-37 41q31 34 80 53t97 19q98 0 143 -49zM274 65q37 15 64 41v149l-63 -11
q-81 -15 -128.5 -40.5t-47.5 -75.5q0 -35 24 -56.5t71 -21.5q43 0 80 15zM287 612q-18 -19 -50 -22v-36h-42v70h18q19 0 30 9t11 27q0 17 -9.5 26t-26.5 9q-25 0 -47 -18l-21 34q27 27 73 27q37 0 59.5 -21.5t22.5 -56.5q0 -29 -18 -48z" />
    <glyph glyph-name="uni1EA4" unicode="&#x1ea4;" horiz-adv-x="693" 
d="M606 0l-80 185h-360l-80 -185h-76l313 713h47l313 -713h-77zM195 251h303l-152 351zM470 840l72 118h74l-90 -122h-56v4zM311 880h68l123 -126h-69l-90 84l-88 -84h-66z" />
    <glyph glyph-name="uni1EA5" unicode="&#x1ea5;" horiz-adv-x="472" 
d="M364 459q45 -49 45 -128v-331h-42l-28 50q-26 -28 -68 -45t-86 -17q-71 0 -114 37.5t-43 101.5q0 69 59.5 109.5t169.5 59.5l81 14v17q0 54 -28.5 86.5t-90.5 32.5q-78 0 -138 -51l-37 41q31 34 80 53t97 19q98 0 143 -49zM274 65q37 15 64 41v149l-63 -11
q-81 -15 -128.5 -40.5t-47.5 -75.5q0 -35 24 -56.5t71 -21.5q43 0 80 15zM328 667l85 137h75l-103 -141h-57v4zM181 704h68l123 -146h-68l-91 102l-88 -102h-66z" />
    <glyph glyph-name="uni1EA6" unicode="&#x1ea6;" horiz-adv-x="693" 
d="M606 0l-80 185h-360l-80 -185h-76l313 713h47l313 -713h-77zM195 251h303l-152 351zM149 958l72 -118v-4h-56l-90 122h74zM379 880l123 -126h-68l-90 84l-89 -84h-66l123 126h67z" />
    <glyph glyph-name="uni1EA7" unicode="&#x1ea7;" horiz-adv-x="472" 
d="M364 459q45 -49 45 -128v-331h-42l-28 50q-26 -28 -68 -45t-86 -17q-71 0 -114 37.5t-43 101.5q0 69 59.5 109.5t169.5 59.5l81 14v17q0 54 -28.5 86.5t-90.5 32.5q-78 0 -138 -51l-37 41q31 34 80 53t97 19q98 0 143 -49zM274 65q37 15 64 41v149l-63 -11
q-81 -15 -128.5 -40.5t-47.5 -75.5q0 -35 24 -56.5t71 -21.5q43 0 80 15zM18 804l85 -137v-4h-57l-103 141h75zM249 704l123 -146h-68l-91 102l-88 -102h-66l122 146h68z" />
    <glyph glyph-name="uni1EA8" unicode="&#x1ea8;" horiz-adv-x="693" 
d="M606 0l-80 185h-360l-80 -185h-76l313 713h47l313 -713h-77zM195 251h303l-152 351zM543.5 980.5q22.5 -19.5 22.5 -51.5q0 -28 -18 -46.5t-50 -20.5v-25h-42v58h18q19 0 30 8.5t11 25.5q0 13 -9.5 20t-26.5 7q-27 0 -47 -17l-21 34q27 27 73 27q37 0 59.5 -19.5z
M311 880h68l123 -126h-69l-90 84l-88 -84h-66z" />
    <glyph glyph-name="uni1EA9" unicode="&#x1ea9;" horiz-adv-x="472" 
d="M364 459q45 -49 45 -128v-331h-42l-28 50q-26 -28 -68 -45t-86 -17q-71 0 -114 37.5t-43 101.5q0 69 59.5 109.5t169.5 59.5l81 14v17q0 54 -28.5 86.5t-90.5 32.5q-78 0 -138 -51l-37 41q31 34 80 53t97 19q98 0 143 -49zM274 65q37 15 64 41v149l-63 -11
q-81 -15 -128.5 -40.5t-47.5 -75.5q0 -35 24 -56.5t71 -21.5q43 0 80 15zM414 823q22 -21 22 -56q0 -28 -18 -46.5t-50 -21.5v-34h-42v68h18q19 0 30 8.5t11 25.5q0 16 -9.5 25t-26.5 9q-25 0 -47 -18l-21 34q25 27 73 27q38 0 60 -21zM181 704h68l123 -146h-68l-91 102
l-88 -102h-66z" />
    <glyph glyph-name="uni1EAA" unicode="&#x1eaa;" horiz-adv-x="693" 
d="M606 0l-80 185h-360l-80 -185h-76l313 713h47l313 -713h-77zM195 251h303l-152 351zM270 908h-50v20q0 38 13 55t40 17q18 0 38.5 -7t46.5 -20q15 -7 29 -12.5t22 -5.5q12 0 12 12v28h50v-21q0 -37 -13 -54t-41 -17q-18 0 -39 7t-49 20q-14 7 -27 12t-20 5q-12 0 -12 -12
v-27zM379 878l123 -124h-69l-90 82l-88 -82h-66l122 124h68z" />
    <glyph glyph-name="uni1EAB" unicode="&#x1eab;" horiz-adv-x="472" 
d="M364 459q45 -49 45 -128v-331h-42l-28 50q-26 -28 -68 -45t-86 -17q-71 0 -114 37.5t-43 101.5q0 69 59.5 109.5t169.5 59.5l81 14v17q0 54 -28.5 86.5t-90.5 32.5q-78 0 -138 -51l-37 41q31 34 80 53t97 19q98 0 143 -49zM274 65q37 15 64 41v149l-63 -11
q-81 -15 -128.5 -40.5t-47.5 -75.5q0 -35 24 -56.5t71 -21.5q43 0 80 15zM140 734h-50v37q0 39 12.5 56t42.5 17q17 0 36 -9.5t48 -27.5q3 -2 15.5 -10t21 -11.5t13.5 -3.5q12 0 12 12v45h50v-38q0 -37 -13 -54.5t-43 -17.5q-17 0 -38.5 10.5t-49.5 28.5q-35 22 -45 22
q-12 0 -12 -12v-44zM249 702l123 -144h-68l-91 100l-88 -100h-66l122 144h68z" />
    <glyph glyph-name="uni1EAC" unicode="&#x1eac;" horiz-adv-x="693" 
d="M606 0l-80 185h-360l-80 -185h-76l313 713h47l313 -713h-77zM195 251h303l-152 351zM311 -78h72v-73h-72v73zM502 766h-69l-90 102l-88 -102h-66l123 146h67z" />
    <glyph glyph-name="uni1EAD" unicode="&#x1ead;" horiz-adv-x="472" 
d="M364 459q45 -49 45 -128v-331h-42l-28 50q-26 -28 -68 -45t-86 -17q-71 0 -114 37.5t-43 101.5q0 69 59.5 109.5t169.5 59.5l81 14v17q0 54 -28.5 86.5t-90.5 32.5q-78 0 -138 -51l-37 41q31 34 80 53t97 19q98 0 143 -49zM274 65q37 15 64 41v149l-63 -11
q-81 -15 -128.5 -40.5t-47.5 -75.5q0 -35 24 -56.5t71 -21.5q43 0 80 15zM181 -78h72v-73h-72v73zM372 558h-69l-90 102l-88 -102h-66l123 146h67z" />
    <glyph glyph-name="uni1EAE" unicode="&#x1eae;" horiz-adv-x="693" 
d="M606 0l-80 185h-360l-80 -185h-76l313 713h47l313 -713h-77zM195 251h303l-152 351zM373 877h-56v4l79 111h74zM254.5 784q-36.5 30 -39.5 81h53q2 -28 22 -43t57 -15q34 0 53.5 15t21.5 43h53q-4 -51 -39.5 -81t-88.5 -30q-56 0 -92.5 30z" />
    <glyph glyph-name="uni1EAF" unicode="&#x1eaf;" horiz-adv-x="472" 
d="M364 459q45 -49 45 -128v-331h-42l-28 50q-26 -28 -68 -45t-86 -17q-71 0 -114 37.5t-43 101.5q0 69 59.5 109.5t169.5 59.5l81 14v17q0 54 -28.5 86.5t-90.5 32.5q-78 0 -138 -51l-37 41q31 34 80 53t97 19q98 0 143 -49zM274 65q37 15 64 41v149l-63 -11
q-81 -15 -128.5 -40.5t-47.5 -75.5q0 -35 24 -56.5t71 -21.5q43 0 80 15zM244 706h-57v4l85 130h75zM124.5 593.5q-36.5 35.5 -39.5 96.5h53q2 -37 22 -57.5t57 -20.5q34 0 53.5 20.5t21.5 57.5h53q-4 -61 -39.5 -96.5t-88.5 -35.5q-56 0 -92.5 35.5z" />
    <glyph glyph-name="uni1EB0" unicode="&#x1eb0;" horiz-adv-x="693" 
d="M606 0l-80 185h-360l-80 -185h-76l313 713h47l313 -713h-77zM195 251h303l-152 351zM373 877h-56l-97 115h74l79 -111v-4zM254.5 784q-36.5 30 -39.5 81h53q2 -28 22 -43t57 -15q34 0 53.5 15t21.5 43h53q-4 -51 -39.5 -81t-88.5 -30q-56 0 -92.5 30z" />
    <glyph glyph-name="uni1EB1" unicode="&#x1eb1;" horiz-adv-x="472" 
d="M364 459q45 -49 45 -128v-331h-42l-28 50q-26 -28 -68 -45t-86 -17q-71 0 -114 37.5t-43 101.5q0 69 59.5 109.5t169.5 59.5l81 14v17q0 54 -28.5 86.5t-90.5 32.5q-78 0 -138 -51l-37 41q31 34 80 53t97 19q98 0 143 -49zM274 65q37 15 64 41v149l-63 -11
q-81 -15 -128.5 -40.5t-47.5 -75.5q0 -35 24 -56.5t71 -21.5q43 0 80 15zM243 707h-58l-103 133h76l85 -129v-4zM123.5 593.5q-36.5 35.5 -39.5 96.5h53q2 -37 22 -57.5t57 -20.5q34 0 53.5 20.5t21.5 57.5h53q-4 -61 -39.5 -96.5t-88.5 -35.5q-56 0 -92.5 35.5z" />
    <glyph glyph-name="uni1EB2" unicode="&#x1eb2;" horiz-adv-x="693" 
d="M606 0l-80 185h-360l-80 -185h-76l313 713h47l313 -713h-77zM195 251h303l-152 351zM299 960l-21 34q26 26 74 26q37 0 59.5 -19t22.5 -50q0 -28 -18 -45.5t-50 -20.5v-25h-43v59h19q19 0 30 8t11 23q0 13 -9.5 19.5t-26.5 6.5q-29 0 -48 -16zM475 865q-4 -51 -39.5 -81
t-88.5 -30q-56 0 -92.5 30t-39.5 81h53q2 -28 22 -43t57 -15q34 0 53.5 15t21.5 43h53z" />
    <glyph glyph-name="uni1EB3" unicode="&#x1eb3;" horiz-adv-x="472" 
d="M364 459q45 -49 45 -128v-331h-42l-28 50q-26 -28 -68 -45t-86 -17q-71 0 -114 37.5t-43 101.5q0 69 59.5 109.5t169.5 59.5l81 14v17q0 54 -28.5 86.5t-90.5 32.5q-78 0 -138 -51l-37 41q31 34 80 53t97 19q98 0 143 -49zM274 65q37 15 64 41v149l-63 -11
q-81 -15 -128.5 -40.5t-47.5 -75.5q0 -35 24 -56.5t71 -21.5q43 0 80 15zM172 811l-21 34q24 27 73 27q37 0 59.5 -20t22.5 -54q0 -28 -18 -46.5t-50 -21.5v-30h-42v63h18q19 0 30 9t11 26q0 14 -9.5 22.5t-26.5 8.5q-27 0 -47 -18zM345 690q-4 -61 -39.5 -96.5t-88.5 -35.5
q-56 0 -92.5 35.5t-39.5 96.5h53q2 -37 22 -57.5t57 -20.5q34 0 53.5 20.5t21.5 57.5h53z" />
    <glyph glyph-name="uni1EB4" unicode="&#x1eb4;" horiz-adv-x="693" 
d="M606 0l-80 185h-360l-80 -185h-76l313 713h47l313 -713h-77zM195 251h303l-152 351zM378 905.5q-21 7.5 -51 21.5q-34 18 -46 18t-12 -12v-30h-49v23q0 39 12.5 56.5t39.5 17.5q18 0 38.5 -7.5t46.5 -21.5q15 -7 29 -13t22 -6q12 0 12 12v31h50v-24q0 -37 -13 -55
t-40 -18q-18 0 -39 7.5zM254.5 784q-36.5 30 -39.5 81h53q2 -28 22 -43t57 -15q34 0 53.5 15t21.5 43h53q-4 -51 -39.5 -81t-88.5 -30q-56 0 -92.5 30z" />
    <glyph glyph-name="uni1EB5" unicode="&#x1eb5;" horiz-adv-x="472" 
d="M364 459q45 -49 45 -128v-331h-42l-28 50q-26 -28 -68 -45t-86 -17q-71 0 -114 37.5t-43 101.5q0 69 59.5 109.5t169.5 59.5l81 14v17q0 54 -28.5 86.5t-90.5 32.5q-78 0 -138 -51l-37 41q31 34 80 53t97 19q98 0 143 -49zM274 65q37 15 64 41v149l-63 -11
q-81 -15 -128.5 -40.5t-47.5 -75.5q0 -35 24 -56.5t71 -21.5q43 0 80 15zM245.5 732.5q-21.5 10.5 -49.5 28.5q-34 23 -45 23q-12 0 -12 -12v-44h-49v37q0 40 12.5 57.5t41.5 17.5q17 0 36 -9.5t49 -28.5q14 -10 28 -17.5t21 -7.5q12 0 12 12v46h50v-39q0 -38 -13 -56
t-43 -18q-17 0 -38.5 10.5zM123.5 593.5q-36.5 35.5 -39.5 96.5h53q2 -37 22 -57.5t57 -20.5q34 0 53.5 20.5t21.5 57.5h53q-4 -61 -39.5 -96.5t-88.5 -35.5q-56 0 -92.5 35.5z" />
    <glyph glyph-name="uni1EB6" unicode="&#x1eb6;" horiz-adv-x="693" 
d="M606 0l-80 185h-360l-80 -185h-76l313 713h47l313 -713h-77zM195 251h303l-152 351zM311 -78h72v-73h-72v73zM254.5 815.5q-36.5 35.5 -39.5 96.5h53q2 -37 22 -57.5t57 -20.5q34 0 53.5 20.5t21.5 57.5h53q-4 -61 -39.5 -96.5t-88.5 -35.5q-56 0 -92.5 35.5z" />
    <glyph glyph-name="uni1EB7" unicode="&#x1eb7;" horiz-adv-x="472" 
d="M364 459q45 -49 45 -128v-331h-42l-28 50q-26 -28 -68 -45t-86 -17q-71 0 -114 37.5t-43 101.5q0 69 59.5 109.5t169.5 59.5l81 14v17q0 54 -28.5 86.5t-90.5 32.5q-78 0 -138 -51l-37 41q31 34 80 53t97 19q98 0 143 -49zM274 65q37 15 64 41v149l-63 -11
q-81 -15 -128.5 -40.5t-47.5 -75.5q0 -35 24 -56.5t71 -21.5q43 0 80 15zM181 -78h72v-73h-72v73zM124.5 607.5q-36.5 35.5 -39.5 96.5h53q2 -37 22 -57.5t57 -20.5q34 0 53.5 20.5t21.5 57.5h53q-4 -61 -39.5 -96.5t-88.5 -35.5q-56 0 -92.5 35.5z" />
    <glyph glyph-name="uni1EB8" unicode="&#x1eb8;" 
d="M165 66h380v-66h-452v704h438v-66h-366v-240h326v-66h-326v-266zM284 -78h72v-73h-72v73z" />
    <glyph glyph-name="uni1EB9" unicode="&#x1eb9;" horiz-adv-x="512" 
d="M103 236q0 -54 22 -96.5t61 -66t88 -23.5q95 0 151 73l46 -39q-30 -43 -81.5 -69.5t-117.5 -26.5q-74 0 -128.5 34.5t-83.5 93.5t-29 132q0 71 28 130.5t81 94.5t124 35q69 0 118 -31.5t73.5 -85t24.5 -118.5v-32h-377v-5zM158.5 405q-41.5 -41 -52.5 -110h305
q-6 71 -46.5 111t-102.5 40t-103.5 -41zM242 -78h72v-73h-72v73z" />
    <glyph glyph-name="uni1EBA" unicode="&#x1eba;" 
d="M165 66h380v-66h-452v704h438v-66h-366v-240h326v-66h-326v-266zM389 820q-18 -19 -50 -22v-36h-42v70h18q19 0 30 9t11 27q0 17 -9.5 26t-26.5 9q-25 0 -47 -18l-21 34q27 27 73 27q37 0 59.5 -21.5t22.5 -56.5q0 -29 -18 -48z" />
    <glyph glyph-name="uni1EBB" unicode="&#x1ebb;" horiz-adv-x="512" 
d="M103 236q0 -54 22 -96.5t61 -66t88 -23.5q95 0 151 73l46 -39q-30 -43 -81.5 -69.5t-117.5 -26.5q-74 0 -128.5 34.5t-83.5 93.5t-29 132q0 71 28 130.5t81 94.5t124 35q69 0 118 -31.5t73.5 -85t24.5 -118.5v-32h-377v-5zM158.5 405q-41.5 -41 -52.5 -110h305
q-6 71 -46.5 111t-102.5 40t-103.5 -41zM331 612q-18 -19 -50 -22v-36h-42v70h18q19 0 30 9t11 27q0 17 -9.5 26t-26.5 9q-25 0 -47 -18l-21 34q27 27 73 27q37 0 59.5 -21.5t22.5 -56.5q0 -29 -18 -48z" />
    <glyph glyph-name="uni1EBC" unicode="&#x1ebc;" 
d="M165 66h380v-66h-452v704h438v-66h-366v-240h326v-66h-326v-266zM343.5 794q-20.5 13 -52.5 38q-32 28 -41 28q-12 0 -12 -12v-61h-49v54q0 40 12.5 58t42.5 18q18 0 38 -12.5t50 -37.5q14 -12 26.5 -21t18.5 -9q12 0 12 12v63h50v-56q0 -39 -13 -57t-44 -18
q-18 0 -38.5 13z" />
    <glyph glyph-name="uni1EBD" unicode="&#x1ebd;" horiz-adv-x="512" 
d="M103 236q0 -54 22 -96.5t61 -66t88 -23.5q95 0 151 73l46 -39q-30 -43 -81.5 -69.5t-117.5 -26.5q-74 0 -128.5 34.5t-83.5 93.5t-29 132q0 71 28 130.5t81 94.5t124 35q69 0 118 -31.5t73.5 -85t24.5 -118.5v-32h-377v-5zM158.5 405q-41.5 -41 -52.5 -110h305
q-6 71 -46.5 111t-102.5 40t-103.5 -41zM285.5 586q-20.5 13 -52.5 38q-32 28 -41 28q-12 0 -12 -12v-61h-49v54q0 40 12.5 58t42.5 18q18 0 38 -12.5t50 -37.5q14 -12 26.5 -21t18.5 -9q12 0 12 12v63h50v-56q0 -39 -13 -57t-44 -18q-18 0 -38.5 13z" />
    <glyph glyph-name="uni1EBE" unicode="&#x1ebe;" 
d="M165 66h380v-66h-452v704h438v-66h-366v-240h326v-66h-326v-266zM442 840l72 118h74l-90 -122h-56v4zM283 880h68l123 -126h-69l-90 84l-88 -84h-66z" />
    <glyph glyph-name="uni1EBF" unicode="&#x1ebf;" horiz-adv-x="512" 
d="M103 236q0 -54 22 -96.5t61 -66t88 -23.5q95 0 151 73l46 -39q-30 -43 -81.5 -69.5t-117.5 -26.5q-74 0 -128.5 34.5t-83.5 93.5t-29 132q0 71 28 130.5t81 94.5t124 35q69 0 118 -31.5t73.5 -85t24.5 -118.5v-32h-377v-5zM158.5 405q-41.5 -41 -52.5 -110h305
q-6 71 -46.5 111t-102.5 40t-103.5 -41zM372 667l85 137h75l-103 -141h-57v4zM225 704h68l123 -146h-68l-91 102l-88 -102h-66z" />
    <glyph glyph-name="uni1EC0" unicode="&#x1ec0;" 
d="M165 66h380v-66h-452v704h438v-66h-366v-240h326v-66h-326v-266zM121 958l72 -118v-4h-56l-90 122h74zM351 880l123 -126h-68l-90 84l-89 -84h-66l123 126h67z" />
    <glyph glyph-name="uni1EC1" unicode="&#x1ec1;" horiz-adv-x="512" 
d="M103 236q0 -54 22 -96.5t61 -66t88 -23.5q95 0 151 73l46 -39q-30 -43 -81.5 -69.5t-117.5 -26.5q-74 0 -128.5 34.5t-83.5 93.5t-29 132q0 71 28 130.5t81 94.5t124 35q69 0 118 -31.5t73.5 -85t24.5 -118.5v-32h-377v-5zM158.5 405q-41.5 -41 -52.5 -110h305
q-6 71 -46.5 111t-102.5 40t-103.5 -41zM62 804l85 -137v-4h-57l-103 141h75zM293 704l123 -146h-68l-91 102l-88 -102h-66l122 146h68z" />
    <glyph glyph-name="uni1EC2" unicode="&#x1ec2;" 
d="M165 66h380v-66h-452v704h438v-66h-366v-240h326v-66h-326v-266zM515.5 980.5q22.5 -19.5 22.5 -51.5q0 -28 -18 -46.5t-50 -20.5v-25h-42v58h18q19 0 30 8.5t11 25.5q0 13 -9.5 20t-26.5 7q-27 0 -47 -17l-21 34q27 27 73 27q37 0 59.5 -19.5zM283 880h68l123 -126h-69
l-90 84l-88 -84h-66z" />
    <glyph glyph-name="uni1EC3" unicode="&#x1ec3;" horiz-adv-x="512" 
d="M103 236q0 -54 22 -96.5t61 -66t88 -23.5q95 0 151 73l46 -39q-30 -43 -81.5 -69.5t-117.5 -26.5q-74 0 -128.5 34.5t-83.5 93.5t-29 132q0 71 28 130.5t81 94.5t124 35q69 0 118 -31.5t73.5 -85t24.5 -118.5v-32h-377v-5zM158.5 405q-41.5 -41 -52.5 -110h305
q-6 71 -46.5 111t-102.5 40t-103.5 -41zM458 823q22 -21 22 -56q0 -28 -18 -46.5t-50 -21.5v-34h-42v68h18q19 0 30 8.5t11 25.5q0 16 -9.5 25t-26.5 9q-25 0 -47 -18l-21 34q25 27 73 27q38 0 60 -21zM225 704h68l123 -146h-68l-91 102l-88 -102h-66z" />
    <glyph glyph-name="uni1EC4" unicode="&#x1ec4;" 
d="M165 66h380v-66h-452v704h438v-66h-366v-240h326v-66h-326v-266zM242 908h-50v20q0 38 13 55t40 17q18 0 38.5 -7t46.5 -20q15 -7 29 -12.5t22 -5.5q12 0 12 12v28h50v-21q0 -37 -13 -54t-41 -17q-18 0 -39 7t-49 20q-14 7 -27 12t-20 5q-12 0 -12 -12v-27zM351 878
l123 -124h-69l-90 82l-88 -82h-66l122 124h68z" />
    <glyph glyph-name="uni1EC5" unicode="&#x1ec5;" horiz-adv-x="512" 
d="M103 236q0 -54 22 -96.5t61 -66t88 -23.5q95 0 151 73l46 -39q-30 -43 -81.5 -69.5t-117.5 -26.5q-74 0 -128.5 34.5t-83.5 93.5t-29 132q0 71 28 130.5t81 94.5t124 35q69 0 118 -31.5t73.5 -85t24.5 -118.5v-32h-377v-5zM158.5 405q-41.5 -41 -52.5 -110h305
q-6 71 -46.5 111t-102.5 40t-103.5 -41zM184 734h-50v37q0 39 12.5 56t42.5 17q17 0 36 -9.5t48 -27.5q3 -2 15.5 -10t21 -11.5t13.5 -3.5q12 0 12 12v45h50v-38q0 -37 -13 -54.5t-43 -17.5q-17 0 -38.5 10.5t-49.5 28.5q-35 22 -45 22q-12 0 -12 -12v-44zM293 702l123 -144
h-68l-91 100l-88 -100h-66l122 144h68z" />
    <glyph glyph-name="uni1EC6" unicode="&#x1ec6;" 
d="M165 66h380v-66h-452v704h438v-66h-366v-240h326v-66h-326v-266zM284 -78h72v-73h-72v73zM474 766h-69l-90 102l-88 -102h-66l123 146h67z" />
    <glyph glyph-name="uni1EC7" unicode="&#x1ec7;" horiz-adv-x="512" 
d="M103 236q0 -54 22 -96.5t61 -66t88 -23.5q95 0 151 73l46 -39q-30 -43 -81.5 -69.5t-117.5 -26.5q-74 0 -128.5 34.5t-83.5 93.5t-29 132q0 71 28 130.5t81 94.5t124 35q69 0 118 -31.5t73.5 -85t24.5 -118.5v-32h-377v-5zM158.5 405q-41.5 -41 -52.5 -110h305
q-6 71 -46.5 111t-102.5 40t-103.5 -41zM242 -78h72v-73h-72v73zM416 558h-69l-90 102l-88 -102h-66l123 146h67z" />
    <glyph glyph-name="uni1EC8" unicode="&#x1ec8;" horiz-adv-x="257" 
d="M93 704h72v-704h-72v704zM201 820q-18 -19 -50 -22v-36h-42v70h18q19 0 30 9t11 27q0 17 -9.5 26t-26.5 9q-25 0 -47 -18l-21 34q27 27 73 27q37 0 59.5 -21.5t22.5 -56.5q0 -29 -18 -48z" />
    <glyph glyph-name="uni1EC9" unicode="&#x1ec9;" horiz-adv-x="205" 
d="M67 496h71v-496h-71v496zM174 612q-18 -19 -50 -22v-36h-42v70h18q19 0 30 9t11 27q0 17 -9.5 26t-26.5 9q-25 0 -47 -18l-21 34q27 27 73 27q37 0 59.5 -21.5t22.5 -56.5q0 -29 -18 -48z" />
    <glyph glyph-name="uni1ECA" unicode="&#x1eca;" horiz-adv-x="257" 
d="M93 704h72v-704h-72v704zM93 -78h72v-73h-72v73z" />
    <glyph glyph-name="uni1ECB" unicode="&#x1ecb;" horiz-adv-x="205" 
d="M67 496h71v-496h-71v496zM66 692h72v-73h-72v73zM66 -78h72v-73h-72v73z" />
    <glyph glyph-name="uni1ECC" unicode="&#x1ecc;" horiz-adv-x="804" 
d="M218.5 36q-82.5 48 -130 131t-47.5 185q0 103 47 186t129.5 130.5t184.5 47.5t184.5 -47.5t129.5 -131t47 -185.5t-47 -185t-129.5 -131t-184.5 -48q-101 0 -183.5 48zM548 93.5q65 38.5 102 106t37 152.5q0 86 -37 153.5t-102 105.5t-146 38q-80 0 -145 -38t-102.5 -106
t-37.5 -153t37 -153t101.5 -106t146.5 -38q81 0 146 38.5zM366 -78h72v-73h-72v73z" />
    <glyph glyph-name="uni1ECD" unicode="&#x1ecd;" horiz-adv-x="556" 
d="M151.5 22q-56.5 34 -88.5 93.5t-32 132.5t32 132.5t88.5 93.5t126.5 34q71 0 127 -34t88 -93.5t32 -132.5t-32 -132.5t-88 -93.5t-127 -34q-70 0 -126.5 34zM368 77q40 26 62.5 71t22.5 100t-22.5 100t-62.5 71t-90 26t-90 -26t-62.5 -71t-22.5 -100t22.5 -100t62.5 -71
t90 -26t90 26zM241 -78h72v-73h-72v73z" />
    <glyph glyph-name="uni1ECE" unicode="&#x1ece;" horiz-adv-x="804" 
d="M218.5 36q-82.5 48 -130 131t-47.5 185q0 103 47 186t129.5 130.5t184.5 47.5t184.5 -47.5t129.5 -131t47 -185.5t-47 -185t-129.5 -131t-184.5 -48q-101 0 -183.5 48zM548 93.5q65 38.5 102 106t37 152.5q0 86 -37 153.5t-102 105.5t-146 38q-80 0 -145 -38t-102.5 -106
t-37.5 -153t37 -153t101.5 -106t146.5 -38q81 0 146 38.5zM472 820q-18 -19 -50 -22v-36h-42v70h18q19 0 30 9t11 27q0 17 -9.5 26t-26.5 9q-25 0 -47 -18l-21 34q27 27 73 27q37 0 59.5 -21.5t22.5 -56.5q0 -29 -18 -48z" />
    <glyph glyph-name="uni1ECF" unicode="&#x1ecf;" horiz-adv-x="556" 
d="M151.5 22q-56.5 34 -88.5 93.5t-32 132.5t32 132.5t88.5 93.5t126.5 34q71 0 127 -34t88 -93.5t32 -132.5t-32 -132.5t-88 -93.5t-127 -34q-70 0 -126.5 34zM368 77q40 26 62.5 71t22.5 100t-22.5 100t-62.5 71t-90 26t-90 -26t-62.5 -71t-22.5 -100t22.5 -100t62.5 -71
t90 -26t90 26zM349 612q-18 -19 -50 -22v-36h-42v70h18q19 0 30 9t11 27q0 17 -9.5 26t-26.5 9q-25 0 -47 -18l-21 34q27 27 73 27q37 0 59.5 -21.5t22.5 -56.5q0 -29 -18 -48z" />
    <glyph glyph-name="uni1ED0" unicode="&#x1ed0;" horiz-adv-x="804" 
d="M218.5 36q-82.5 48 -130 131t-47.5 185q0 103 47 186t129.5 130.5t184.5 47.5t184.5 -47.5t129.5 -131t47 -185.5t-47 -185t-129.5 -131t-184.5 -48q-101 0 -183.5 48zM548 93.5q65 38.5 102 106t37 152.5q0 86 -37 153.5t-102 105.5t-146 38q-80 0 -145 -38t-102.5 -106
t-37.5 -153t37 -153t101.5 -106t146.5 -38q81 0 146 38.5zM525 840l72 118h74l-90 -122h-56v4zM366 880h68l123 -126h-69l-90 84l-88 -84h-66z" />
    <glyph glyph-name="uni1ED1" unicode="&#x1ed1;" horiz-adv-x="556" 
d="M151.5 22q-56.5 34 -88.5 93.5t-32 132.5t32 132.5t88.5 93.5t126.5 34q71 0 127 -34t88 -93.5t32 -132.5t-32 -132.5t-88 -93.5t-127 -34q-70 0 -126.5 34zM368 77q40 26 62.5 71t22.5 100t-22.5 100t-62.5 71t-90 26t-90 -26t-62.5 -71t-22.5 -100t22.5 -100t62.5 -71
t90 -26t90 26zM390 667l85 137h75l-103 -141h-57v4zM243 704h68l123 -146h-68l-91 102l-88 -102h-66z" />
    <glyph glyph-name="uni1ED2" unicode="&#x1ed2;" horiz-adv-x="804" 
d="M218.5 36q-82.5 48 -130 131t-47.5 185q0 103 47 186t129.5 130.5t184.5 47.5t184.5 -47.5t129.5 -131t47 -185.5t-47 -185t-129.5 -131t-184.5 -48q-101 0 -183.5 48zM548 93.5q65 38.5 102 106t37 152.5q0 86 -37 153.5t-102 105.5t-146 38q-80 0 -145 -38t-102.5 -106
t-37.5 -153t37 -153t101.5 -106t146.5 -38q81 0 146 38.5zM204 958l72 -118v-4h-56l-90 122h74zM434 880l123 -126h-68l-90 84l-89 -84h-66l123 126h67z" />
    <glyph glyph-name="uni1ED3" unicode="&#x1ed3;" horiz-adv-x="556" 
d="M151.5 22q-56.5 34 -88.5 93.5t-32 132.5t32 132.5t88.5 93.5t126.5 34q71 0 127 -34t88 -93.5t32 -132.5t-32 -132.5t-88 -93.5t-127 -34q-70 0 -126.5 34zM368 77q40 26 62.5 71t22.5 100t-22.5 100t-62.5 71t-90 26t-90 -26t-62.5 -71t-22.5 -100t22.5 -100t62.5 -71
t90 -26t90 26zM80 804l85 -137v-4h-57l-103 141h75zM311 704l123 -146h-68l-91 102l-88 -102h-66l122 146h68z" />
    <glyph glyph-name="uni1ED4" unicode="&#x1ed4;" horiz-adv-x="804" 
d="M218.5 36q-82.5 48 -130 131t-47.5 185q0 103 47 186t129.5 130.5t184.5 47.5t184.5 -47.5t129.5 -131t47 -185.5t-47 -185t-129.5 -131t-184.5 -48q-101 0 -183.5 48zM548 93.5q65 38.5 102 106t37 152.5q0 86 -37 153.5t-102 105.5t-146 38q-80 0 -145 -38t-102.5 -106
t-37.5 -153t37 -153t101.5 -106t146.5 -38q81 0 146 38.5zM598.5 980.5q22.5 -19.5 22.5 -51.5q0 -28 -18 -46.5t-50 -20.5v-25h-42v58h18q19 0 30 8.5t11 25.5q0 13 -9.5 20t-26.5 7q-27 0 -47 -17l-21 34q27 27 73 27q37 0 59.5 -19.5zM366 880h68l123 -126h-69l-90 84
l-88 -84h-66z" />
    <glyph glyph-name="uni1ED5" unicode="&#x1ed5;" horiz-adv-x="556" 
d="M151.5 22q-56.5 34 -88.5 93.5t-32 132.5t32 132.5t88.5 93.5t126.5 34q71 0 127 -34t88 -93.5t32 -132.5t-32 -132.5t-88 -93.5t-127 -34q-70 0 -126.5 34zM368 77q40 26 62.5 71t22.5 100t-22.5 100t-62.5 71t-90 26t-90 -26t-62.5 -71t-22.5 -100t22.5 -100t62.5 -71
t90 -26t90 26zM476 823q22 -21 22 -56q0 -28 -18 -46.5t-50 -21.5v-34h-42v68h18q19 0 30 8.5t11 25.5q0 16 -9.5 25t-26.5 9q-25 0 -47 -18l-21 34q25 27 73 27q38 0 60 -21zM243 704h68l123 -146h-68l-91 102l-88 -102h-66z" />
    <glyph glyph-name="uni1ED6" unicode="&#x1ed6;" horiz-adv-x="804" 
d="M218.5 36q-82.5 48 -130 131t-47.5 185q0 103 47 186t129.5 130.5t184.5 47.5t184.5 -47.5t129.5 -131t47 -185.5t-47 -185t-129.5 -131t-184.5 -48q-101 0 -183.5 48zM548 93.5q65 38.5 102 106t37 152.5q0 86 -37 153.5t-102 105.5t-146 38q-80 0 -145 -38t-102.5 -106
t-37.5 -153t37 -153t101.5 -106t146.5 -38q81 0 146 38.5zM325 908h-50v20q0 38 13 55t40 17q18 0 38.5 -7t46.5 -20q15 -7 29 -12.5t22 -5.5q12 0 12 12v28h50v-21q0 -37 -13 -54t-41 -17q-18 0 -39 7t-49 20q-14 7 -27 12t-20 5q-12 0 -12 -12v-27zM434 878l123 -124h-69
l-90 82l-88 -82h-66l122 124h68z" />
    <glyph glyph-name="uni1ED7" unicode="&#x1ed7;" horiz-adv-x="556" 
d="M151.5 22q-56.5 34 -88.5 93.5t-32 132.5t32 132.5t88.5 93.5t126.5 34q71 0 127 -34t88 -93.5t32 -132.5t-32 -132.5t-88 -93.5t-127 -34q-70 0 -126.5 34zM368 77q40 26 62.5 71t22.5 100t-22.5 100t-62.5 71t-90 26t-90 -26t-62.5 -71t-22.5 -100t22.5 -100t62.5 -71
t90 -26t90 26zM202 734h-50v37q0 39 12.5 56t42.5 17q17 0 36 -9.5t48 -27.5q3 -2 15.5 -10t21 -11.5t13.5 -3.5q12 0 12 12v45h50v-38q0 -37 -13 -54.5t-43 -17.5q-17 0 -38.5 10.5t-49.5 28.5q-35 22 -45 22q-12 0 -12 -12v-44zM311 702l123 -144h-68l-91 100l-88 -100
h-66l122 144h68z" />
    <glyph glyph-name="uni1ED8" unicode="&#x1ed8;" horiz-adv-x="804" 
d="M218.5 36q-82.5 48 -130 131t-47.5 185q0 103 47 186t129.5 130.5t184.5 47.5t184.5 -47.5t129.5 -131t47 -185.5t-47 -185t-129.5 -131t-184.5 -48q-101 0 -183.5 48zM548 93.5q65 38.5 102 106t37 152.5q0 86 -37 153.5t-102 105.5t-146 38q-80 0 -145 -38t-102.5 -106
t-37.5 -153t37 -153t101.5 -106t146.5 -38q81 0 146 38.5zM366 -78h72v-73h-72v73zM557 766h-69l-90 102l-88 -102h-66l123 146h67z" />
    <glyph glyph-name="uni1ED9" unicode="&#x1ed9;" horiz-adv-x="556" 
d="M151.5 22q-56.5 34 -88.5 93.5t-32 132.5t32 132.5t88.5 93.5t126.5 34q71 0 127 -34t88 -93.5t32 -132.5t-32 -132.5t-88 -93.5t-127 -34q-70 0 -126.5 34zM368 77q40 26 62.5 71t22.5 100t-22.5 100t-62.5 71t-90 26t-90 -26t-62.5 -71t-22.5 -100t22.5 -100t62.5 -71
t90 -26t90 26zM241 -78h72v-73h-72v73zM433 558h-69l-90 102l-88 -102h-66l123 146h67z" />
    <glyph glyph-name="uni1EDA" unicode="&#x1eda;" horiz-adv-x="804" 
d="M730.5 508.5q32.5 -72.5 32.5 -156.5q0 -102 -47 -185t-129.5 -131t-184.5 -48q-101 0 -183.5 48t-130 131t-47.5 185q0 103 47 186t129.5 130.5t184.5 47.5q96 0 175 -42h21q59 0 59 46q0 25 -13 46l57 19q18 -33 18 -66q0 -35 -20.5 -58t-58.5 -30q58 -50 90.5 -122.5z
M548 93.5q65 38.5 102 106t37 152.5q0 86 -37 153.5t-102 105.5t-146 38q-80 0 -145 -38t-102.5 -106t-37.5 -153t37 -153t101.5 -106t146.5 -38q81 0 146 38.5zM372 772l90 140h76l-109 -144h-57v4z" />
    <glyph glyph-name="uni1EDB" unicode="&#x1edb;" horiz-adv-x="556" 
d="M515.5 455.5q-18.5 -22.5 -52.5 -30.5q30 -35 46 -80.5t16 -96.5q0 -73 -32 -132.5t-88 -93.5t-127 -34q-70 0 -126.5 34t-88.5 93.5t-32 132.5t32 132.5t88.5 93.5t126.5 34q78 0 139 -42q55 2 55 46q0 25 -13 46l57 19q18 -33 18 -66t-18.5 -55.5zM368 77
q40 26 62.5 71t22.5 100t-22.5 100t-62.5 71t-90 26t-90 -26t-62.5 -71t-22.5 -100t22.5 -100t62.5 -71t90 -26t90 26zM249 564l90 140h76l-109 -144h-57v4z" />
    <glyph glyph-name="uni1EDC" unicode="&#x1edc;" horiz-adv-x="804" 
d="M730.5 508.5q32.5 -72.5 32.5 -156.5q0 -102 -47 -185t-129.5 -131t-184.5 -48q-101 0 -183.5 48t-130 131t-47.5 185q0 103 47 186t129.5 130.5t184.5 47.5q96 0 175 -42h21q59 0 59 46q0 25 -13 46l57 19q18 -33 18 -66q0 -35 -20.5 -58t-58.5 -30q58 -50 90.5 -122.5z
M548 93.5q65 38.5 102 106t37 152.5q0 86 -37 153.5t-102 105.5t-146 38q-80 0 -145 -38t-102.5 -106t-37.5 -153t37 -153t101.5 -106t146.5 -38q81 0 146 38.5zM264 912h76l91 -140v-4h-58z" />
    <glyph glyph-name="uni1EDD" unicode="&#x1edd;" horiz-adv-x="556" 
d="M515.5 455.5q-18.5 -22.5 -52.5 -30.5q30 -35 46 -80.5t16 -96.5q0 -73 -32 -132.5t-88 -93.5t-127 -34q-70 0 -126.5 34t-88.5 93.5t-32 132.5t32 132.5t88.5 93.5t126.5 34q78 0 139 -42q55 2 55 46q0 25 -13 46l57 19q18 -33 18 -66t-18.5 -55.5zM368 77
q40 26 62.5 71t22.5 100t-22.5 100t-62.5 71t-90 26t-90 -26t-62.5 -71t-22.5 -100t22.5 -100t62.5 -71t90 -26t90 26zM140 704h76l91 -140v-4h-58z" />
    <glyph glyph-name="uni1EDE" unicode="&#x1ede;" horiz-adv-x="804" 
d="M730.5 508.5q32.5 -72.5 32.5 -156.5q0 -102 -47 -185t-129.5 -131t-184.5 -48q-101 0 -183.5 48t-130 131t-47.5 185q0 103 47 186t129.5 130.5t184.5 47.5q96 0 175 -42h21q59 0 59 46q0 25 -13 46l57 19q18 -33 18 -66q0 -35 -20.5 -58t-58.5 -30q58 -50 90.5 -122.5z
M548 93.5q65 38.5 102 106t37 152.5q0 86 -37 153.5t-102 105.5t-146 38q-80 0 -145 -38t-102.5 -106t-37.5 -153t37 -153t101.5 -106t146.5 -38q81 0 146 38.5zM472 820q-18 -19 -50 -22v-36h-42v70h18q19 0 30 9t11 27q0 17 -9.5 26t-26.5 9q-25 0 -47 -18l-21 34
q27 27 73 27q37 0 59.5 -21.5t22.5 -56.5q0 -29 -18 -48z" />
    <glyph glyph-name="uni1EDF" unicode="&#x1edf;" horiz-adv-x="556" 
d="M515.5 455.5q-18.5 -22.5 -52.5 -30.5q30 -35 46 -80.5t16 -96.5q0 -73 -32 -132.5t-88 -93.5t-127 -34q-70 0 -126.5 34t-88.5 93.5t-32 132.5t32 132.5t88.5 93.5t126.5 34q78 0 139 -42q55 2 55 46q0 25 -13 46l57 19q18 -33 18 -66t-18.5 -55.5zM368 77
q40 26 62.5 71t22.5 100t-22.5 100t-62.5 71t-90 26t-90 -26t-62.5 -71t-22.5 -100t22.5 -100t62.5 -71t90 -26t90 26zM349 612q-18 -19 -50 -22v-36h-42v70h18q19 0 30 9t11 27q0 17 -9.5 26t-26.5 9q-25 0 -47 -18l-21 34q27 27 73 27q37 0 59.5 -21.5t22.5 -56.5
q0 -29 -18 -48z" />
    <glyph glyph-name="uni1EE0" unicode="&#x1ee0;" horiz-adv-x="804" 
d="M730.5 508.5q32.5 -72.5 32.5 -156.5q0 -102 -47 -185t-129.5 -131t-184.5 -48q-101 0 -183.5 48t-130 131t-47.5 185q0 103 47 186t129.5 130.5t184.5 47.5q96 0 175 -42h21q59 0 59 46q0 25 -13 46l57 19q18 -33 18 -66q0 -35 -20.5 -58t-58.5 -30q58 -50 90.5 -122.5z
M548 93.5q65 38.5 102 106t37 152.5q0 86 -37 153.5t-102 105.5t-146 38q-80 0 -145 -38t-102.5 -106t-37.5 -153t37 -153t101.5 -106t146.5 -38q81 0 146 38.5zM427.5 794q-20.5 13 -52.5 38q-32 28 -41 28q-12 0 -12 -12v-61h-49v54q0 40 12.5 58t42.5 18q18 0 38 -12.5
t50 -37.5q14 -12 26.5 -21t18.5 -9q12 0 12 12v63h50v-56q0 -39 -13 -57t-44 -18q-18 0 -38.5 13z" />
    <glyph glyph-name="uni1EE1" unicode="&#x1ee1;" horiz-adv-x="556" 
d="M515.5 455.5q-18.5 -22.5 -52.5 -30.5q30 -35 46 -80.5t16 -96.5q0 -73 -32 -132.5t-88 -93.5t-127 -34q-70 0 -126.5 34t-88.5 93.5t-32 132.5t32 132.5t88.5 93.5t126.5 34q78 0 139 -42q55 2 55 46q0 25 -13 46l57 19q18 -33 18 -66t-18.5 -55.5zM368 77
q40 26 62.5 71t22.5 100t-22.5 100t-62.5 71t-90 26t-90 -26t-62.5 -71t-22.5 -100t22.5 -100t62.5 -71t90 -26t90 26zM303.5 586q-20.5 13 -52.5 38q-32 28 -41 28q-12 0 -12 -12v-61h-49v54q0 40 12.5 58t42.5 18q18 0 38 -12.5t50 -37.5q14 -12 26.5 -21t18.5 -9
q12 0 12 12v63h50v-56q0 -39 -13 -57t-44 -18q-18 0 -38.5 13z" />
    <glyph glyph-name="uni1EE2" unicode="&#x1ee2;" horiz-adv-x="804" 
d="M730.5 508.5q32.5 -72.5 32.5 -156.5q0 -102 -47 -185t-129.5 -131t-184.5 -48q-101 0 -183.5 48t-130 131t-47.5 185q0 103 47 186t129.5 130.5t184.5 47.5q96 0 175 -42h21q59 0 59 46q0 25 -13 46l57 19q18 -33 18 -66q0 -35 -20.5 -58t-58.5 -30q58 -50 90.5 -122.5z
M548 93.5q65 38.5 102 106t37 152.5q0 86 -37 153.5t-102 105.5t-146 38q-80 0 -145 -38t-102.5 -106t-37.5 -153t37 -153t101.5 -106t146.5 -38q81 0 146 38.5zM366 -78h72v-73h-72v73z" />
    <glyph glyph-name="uni1EE3" unicode="&#x1ee3;" horiz-adv-x="556" 
d="M515.5 455.5q-18.5 -22.5 -52.5 -30.5q30 -35 46 -80.5t16 -96.5q0 -73 -32 -132.5t-88 -93.5t-127 -34q-70 0 -126.5 34t-88.5 93.5t-32 132.5t32 132.5t88.5 93.5t126.5 34q78 0 139 -42q55 2 55 46q0 25 -13 46l57 19q18 -33 18 -66t-18.5 -55.5zM368 77
q40 26 62.5 71t22.5 100t-22.5 100t-62.5 71t-90 26t-90 -26t-62.5 -71t-22.5 -100t22.5 -100t62.5 -71t90 -26t90 26zM241 -78h72v-73h-72v73z" />
    <glyph glyph-name="uni1EE4" unicode="&#x1ee4;" horiz-adv-x="749" 
d="M225.5 24.5q-67.5 36.5 -106.5 103.5t-39 154v422h72v-422q0 -71 30 -122t81 -78t112 -27q62 0 112.5 26t80 77t29.5 124v422h72v-422q0 -87 -38.5 -154t-105.5 -103.5t-150 -36.5q-82 0 -149.5 36.5zM339 -78h72v-73h-72v73z" />
    <glyph glyph-name="uni1EE5" unicode="&#x1ee5;" horiz-adv-x="529" 
d="M463 496v-496h-40l-31 55q-30 -34 -64 -50.5t-76 -16.5q-91 0 -140 54.5t-49 139.5v314h71v-308q0 -68 35 -102.5t95 -34.5q76 0 128 64v381h71zM230 -78h72v-73h-72v73z" />
    <glyph glyph-name="uni1EE6" unicode="&#x1ee6;" horiz-adv-x="749" 
d="M225.5 24.5q-67.5 36.5 -106.5 103.5t-39 154v422h72v-422q0 -71 30 -122t81 -78t112 -27q62 0 112.5 26t80 77t29.5 124v422h72v-422q0 -87 -38.5 -154t-105.5 -103.5t-150 -36.5q-82 0 -149.5 36.5zM445 820q-18 -19 -50 -22v-36h-42v70h18q19 0 30 9t11 27
q0 17 -9.5 26t-26.5 9q-25 0 -47 -18l-21 34q27 27 73 27q37 0 59.5 -21.5t22.5 -56.5q0 -29 -18 -48z" />
    <glyph glyph-name="uni1EE7" unicode="&#x1ee7;" horiz-adv-x="529" 
d="M463 496v-496h-40l-31 55q-30 -34 -64 -50.5t-76 -16.5q-91 0 -140 54.5t-49 139.5v314h71v-308q0 -68 35 -102.5t95 -34.5q76 0 128 64v381h71zM337 612q-18 -19 -50 -22v-36h-42v70h18q19 0 30 9t11 27q0 17 -9.5 26t-26.5 9q-25 0 -47 -18l-21 34q27 27 73 27
q37 0 59.5 -21.5t22.5 -56.5q0 -29 -18 -48z" />
    <glyph glyph-name="uni1EE8" unicode="&#x1ee8;" horiz-adv-x="764" 
d="M743 655q-26 -24 -74 -27v-346q0 -87 -38.5 -154t-105.5 -103.5t-150 -36.5q-82 0 -149.5 36.5t-106.5 103.5t-39 154v422h72v-422q0 -71 30 -122t81 -78t112 -27q62 0 112.5 26t80 77t29.5 124v422h72v-28q39 7 39 43q0 23 -13 47l57 18q17 -34 17 -65q0 -40 -26 -64z
M345 772l90 140h76l-109 -144h-57v4z" />
    <glyph glyph-name="uni1EE9" unicode="&#x1ee9;" horiz-adv-x="559" 
d="M543 445q-29 -24 -80 -25v-420h-40l-31 55q-30 -34 -64 -50.5t-76 -16.5q-91 0 -140 54.5t-49 139.5v314h71v-308q0 -68 35 -102.5t95 -34.5q76 0 128 64v381h71v-30q24 2 36 12.5t12 32.5q0 23 -13 47l57 18q17 -34 17 -65q0 -42 -29 -66zM237 564l90 140h76l-109 -144
h-57v4z" />
    <glyph glyph-name="uni1EEA" unicode="&#x1eea;" horiz-adv-x="764" 
d="M743 655q-26 -24 -74 -27v-346q0 -87 -38.5 -154t-105.5 -103.5t-150 -36.5q-82 0 -149.5 36.5t-106.5 103.5t-39 154v422h72v-422q0 -71 30 -122t81 -78t112 -27q62 0 112.5 26t80 77t29.5 124v422h72v-28q39 7 39 43q0 23 -13 47l57 18q17 -34 17 -65q0 -40 -26 -64z
M236 912h76l91 -140v-4h-58z" />
    <glyph glyph-name="uni1EEB" unicode="&#x1eeb;" horiz-adv-x="559" 
d="M543 445q-29 -24 -80 -25v-420h-40l-31 55q-30 -34 -64 -50.5t-76 -16.5q-91 0 -140 54.5t-49 139.5v314h71v-308q0 -68 35 -102.5t95 -34.5q76 0 128 64v381h71v-30q24 2 36 12.5t12 32.5q0 23 -13 47l57 18q17 -34 17 -65q0 -42 -29 -66zM128 704h76l91 -140v-4h-58z
" />
    <glyph glyph-name="uni1EEC" unicode="&#x1eec;" horiz-adv-x="764" 
d="M743 655q-26 -24 -74 -27v-346q0 -87 -38.5 -154t-105.5 -103.5t-150 -36.5q-82 0 -149.5 36.5t-106.5 103.5t-39 154v422h72v-422q0 -71 30 -122t81 -78t112 -27q62 0 112.5 26t80 77t29.5 124v422h72v-28q39 7 39 43q0 23 -13 47l57 18q17 -34 17 -65q0 -40 -26 -64z
M445 820q-18 -19 -50 -22v-36h-42v70h18q19 0 30 9t11 27q0 17 -9.5 26t-26.5 9q-25 0 -47 -18l-21 34q27 27 73 27q37 0 59.5 -21.5t22.5 -56.5q0 -29 -18 -48z" />
    <glyph glyph-name="uni1EED" unicode="&#x1eed;" horiz-adv-x="559" 
d="M543 445q-29 -24 -80 -25v-420h-40l-31 55q-30 -34 -64 -50.5t-76 -16.5q-91 0 -140 54.5t-49 139.5v314h71v-308q0 -68 35 -102.5t95 -34.5q76 0 128 64v381h71v-30q24 2 36 12.5t12 32.5q0 23 -13 47l57 18q17 -34 17 -65q0 -42 -29 -66zM337 612q-18 -19 -50 -22v-36
h-42v70h18q19 0 30 9t11 27q0 17 -9.5 26t-26.5 9q-25 0 -47 -18l-21 34q27 27 73 27q37 0 59.5 -21.5t22.5 -56.5q0 -29 -18 -48z" />
    <glyph glyph-name="uni1EEE" unicode="&#x1eee;" horiz-adv-x="764" 
d="M743 655q-26 -24 -74 -27v-346q0 -87 -38.5 -154t-105.5 -103.5t-150 -36.5q-82 0 -149.5 36.5t-106.5 103.5t-39 154v422h72v-422q0 -71 30 -122t81 -78t112 -27q62 0 112.5 26t80 77t29.5 124v422h72v-28q39 7 39 43q0 23 -13 47l57 18q17 -34 17 -65q0 -40 -26 -64z
M399.5 794q-20.5 13 -52.5 38q-32 28 -41 28q-12 0 -12 -12v-61h-49v54q0 40 12.5 58t42.5 18q18 0 38 -12.5t50 -37.5q14 -12 26.5 -21t18.5 -9q12 0 12 12v63h50v-56q0 -39 -13 -57t-44 -18q-18 0 -38.5 13z" />
    <glyph glyph-name="uni1EEF" unicode="&#x1eef;" horiz-adv-x="559" 
d="M543 445q-29 -24 -80 -25v-420h-40l-31 55q-30 -34 -64 -50.5t-76 -16.5q-91 0 -140 54.5t-49 139.5v314h71v-308q0 -68 35 -102.5t95 -34.5q76 0 128 64v381h71v-30q24 2 36 12.5t12 32.5q0 23 -13 47l57 18q17 -34 17 -65q0 -42 -29 -66zM291.5 586q-20.5 13 -52.5 38
q-32 28 -41 28q-12 0 -12 -12v-61h-49v54q0 40 12.5 58t42.5 18q18 0 38 -12.5t50 -37.5q14 -12 26.5 -21t18.5 -9q12 0 12 12v63h50v-56q0 -39 -13 -57t-44 -18q-18 0 -38.5 13z" />
    <glyph glyph-name="uni1EF0" unicode="&#x1ef0;" horiz-adv-x="764" 
d="M743 655q-26 -24 -74 -27v-346q0 -87 -38.5 -154t-105.5 -103.5t-150 -36.5q-82 0 -149.5 36.5t-106.5 103.5t-39 154v422h72v-422q0 -71 30 -122t81 -78t112 -27q62 0 112.5 26t80 77t29.5 124v422h72v-28q39 7 39 43q0 23 -13 47l57 18q17 -34 17 -65q0 -40 -26 -64z
M339 -78h72v-73h-72v73z" />
    <glyph glyph-name="uni1EF1" unicode="&#x1ef1;" horiz-adv-x="559" 
d="M543 445q-29 -24 -80 -25v-420h-40l-31 55q-30 -34 -64 -50.5t-76 -16.5q-91 0 -140 54.5t-49 139.5v314h71v-308q0 -68 35 -102.5t95 -34.5q76 0 128 64v381h71v-30q24 2 36 12.5t12 32.5q0 23 -13 47l57 18q17 -34 17 -65q0 -42 -29 -66zM230 -78h72v-73h-72v73z" />
    <glyph glyph-name="Ygrave" unicode="&#x1ef2;" horiz-adv-x="633" 
d="M550 704h81l-276 -433v-271h-72v271l-281 433h81l236 -365zM211 912h76l91 -140v-4h-58z" />
    <glyph glyph-name="ygrave" unicode="&#x1ef3;" horiz-adv-x="488" 
d="M416 496h72l-312 -704h-69l107 237l-214 467h75l173 -390zM146 704h76l91 -140v-4h-58z" />
    <glyph glyph-name="uni1EF4" unicode="&#x1ef4;" horiz-adv-x="633" 
d="M550 704h81l-276 -433v-271h-72v271l-281 433h81l236 -365zM283 -78h72v-73h-72v73z" />
    <glyph glyph-name="uni1EF5" unicode="&#x1ef5;" horiz-adv-x="488" 
d="M416 496h72l-312 -704h-69l107 237l-214 467h75l173 -390zM333 -78h72v-73h-72v73z" />
    <glyph glyph-name="uni1EF6" unicode="&#x1ef6;" horiz-adv-x="633" 
d="M550 704h81l-276 -433v-271h-72v271l-281 433h81l236 -365zM388 820q-18 -19 -50 -22v-36h-42v70h18q19 0 30 9t11 27q0 17 -9.5 26t-26.5 9q-25 0 -47 -18l-21 34q27 27 73 27q37 0 59.5 -21.5t22.5 -56.5q0 -29 -18 -48z" />
    <glyph glyph-name="uni1EF7" unicode="&#x1ef7;" horiz-adv-x="488" 
d="M416 496h72l-312 -704h-69l107 237l-214 467h75l173 -390zM323 612q-18 -19 -50 -22v-36h-42v70h18q19 0 30 9t11 27q0 17 -9.5 26t-26.5 9q-25 0 -47 -18l-21 34q27 27 73 27q37 0 59.5 -21.5t22.5 -56.5q0 -29 -18 -48z" />
    <glyph glyph-name="uni1EF8" unicode="&#x1ef8;" horiz-adv-x="633" 
d="M550 704h81l-276 -433v-271h-72v271l-281 433h81l236 -365zM342.5 794q-20.5 13 -52.5 38q-32 28 -41 28q-12 0 -12 -12v-61h-49v54q0 40 12.5 58t42.5 18q18 0 38 -12.5t50 -37.5q14 -12 26.5 -21t18.5 -9q12 0 12 12v63h50v-56q0 -39 -13 -57t-44 -18q-18 0 -38.5 13z
" />
    <glyph glyph-name="uni1EF9" unicode="&#x1ef9;" horiz-adv-x="488" 
d="M416 496h72l-312 -704h-69l107 237l-214 467h75l173 -390zM277.5 586q-20.5 13 -52.5 38q-32 28 -41 28q-12 0 -12 -12v-61h-49v54q0 40 12.5 58t42.5 18q18 0 38 -12.5t50 -37.5q14 -12 26.5 -21t18.5 -9q12 0 12 12v63h50v-56q0 -39 -13 -57t-44 -18q-18 0 -38.5 13z
" />
    <glyph glyph-name="uni2011" unicode="&#x2011;" horiz-adv-x="365" 
d="M40 321h285v-62h-285v62z" />
    <glyph glyph-name="endash" unicode="&#x2013;" horiz-adv-x="532" 
d="M40 321h452v-62h-452v62z" />
    <glyph glyph-name="emdash" unicode="&#x2014;" horiz-adv-x="1052" 
d="M40 321h972v-62h-972v62z" />
    <glyph glyph-name="uni2015" unicode="&#x2015;" horiz-adv-x="1000" 
d="M40 321h920v-62h-920v62z" />
    <glyph glyph-name="quoteleft" unicode="&#x2018;" horiz-adv-x="213" 
d="M114 591h29v-80h-80v87q1 51 38 106h48q-35 -65 -35 -106v-7z" />
    <glyph glyph-name="quoteright" unicode="&#x2019;" horiz-adv-x="213" 
d="M149 704v-87q0 -51 -37 -105h-49q36 62 36 105v8h-29v79h79z" />
    <glyph glyph-name="quotesinglbase" unicode="&#x201a;" horiz-adv-x="213" 
d="M149 79v-87q0 -51 -37 -105h-49q36 62 36 105v8h-29v79h79z" />
    <glyph glyph-name="quotedblleft" unicode="&#x201c;" horiz-adv-x="338" 
d="M114 591h29v-80h-80v87q1 51 38 106h48q-35 -65 -35 -106v-7zM239 591h29v-80h-80v87q1 51 38 106h48q-35 -65 -35 -106v-7z" />
    <glyph glyph-name="quotedblright" unicode="&#x201d;" horiz-adv-x="338" 
d="M149 704v-87q0 -51 -37 -105h-49q36 62 36 105v8h-29v79h79zM274 704v-87q0 -51 -37 -105h-49q36 62 36 105v8h-29v79h79z" />
    <glyph glyph-name="quotedblbase" unicode="&#x201e;" horiz-adv-x="338" 
d="M149 79v-87q0 -51 -37 -105h-49q36 62 36 105v8h-29v79h79zM274 79v-87q0 -51 -37 -105h-49q36 62 36 105v8h-29v79h79z" />
    <glyph glyph-name="dagger" unicode="&#x2020;" horiz-adv-x="506" 
d="M417 375h63v-64h-63l-137 7l8 -463v-63h-71v63l10 463l-138 -7h-62v64h62l137 -7l-9 273v63h71v-63l-7 -273z" />
    <glyph glyph-name="daggerdbl" unicode="&#x2021;" horiz-adv-x="506" 
d="M417 364l-137 7v-246l137 7h63v-64h-63l-137 7l8 -220v-63h-71v63l9 220l-137 -7h-62v64h62l136 -7v246l-136 -7h-62v64h62l137 -7l-9 220v63h71v-63l-8 -220l137 7h63v-64h-63z" />
    <glyph glyph-name="bullet" unicode="&#x2022;" horiz-adv-x="296" 
d="M44 585l235 -225l-235 -225v76l152 149l-152 149v76z" />
    <glyph glyph-name="ellipsis" unicode="&#x2026;" horiz-adv-x="603" 
d="M60 90h89v-90h-89v90zM257 90h90v-90h-90v90zM454 90h90v-90h-90v90z" />
    <glyph glyph-name="perthousand" unicode="&#x2030;" horiz-adv-x="1123" 
d="M66 377.5q-44 53.5 -43 142.5q0 90 44 143t116 53q73 0 116.5 -53t43.5 -143q0 -89 -44 -142.5t-116 -53.5q-73 0 -117 53.5zM580 704h63l-462 -704h-62zM258.5 415q27.5 39 27.5 105q0 67 -27 105.5t-76 38.5q-48 0 -76 -38.5t-28 -105.5q0 -66 28 -105t76 -39t75.5 39z
M460.5 41q-44.5 53 -44.5 143t44.5 143t115.5 53q73 0 116.5 -52.5t43.5 -143.5q0 -90 -43.5 -143t-116.5 -53q-71 0 -115.5 53zM651.5 79q27.5 39 27.5 105q0 67 -27 105.5t-76 38.5q-48 0 -75.5 -38.5t-27.5 -105.5t27.5 -105.5t75.5 -38.5t75.5 39zM825 45
q-44 53 -44 143t44 143t116 53q73 0 116.5 -52.5t43.5 -143.5q0 -90 -43.5 -143t-116.5 -53q-72 0 -116 53zM1016.5 82.5q27.5 38.5 27.5 105.5t-27.5 105.5t-75.5 38.5q-49 0 -76.5 -38t-27.5 -106q0 -67 27.5 -105.5t76.5 -38.5q48 0 75.5 38.5z" />
    <glyph glyph-name="guilsinglleft" unicode="&#x2039;" horiz-adv-x="292" 
d="M237 444l-142 -156l142 -153l-38 -39l-182 193l183 193z" />
    <glyph glyph-name="guilsinglright" unicode="&#x203a;" horiz-adv-x="292" 
d="M92 482l183 -193l-183 -193l-38 39l142 153l-141 156z" />
    <glyph glyph-name="fraction" unicode="&#x2044;" horiz-adv-x="66" 
d="M233 704h59l-459 -704h-59z" />
    <glyph glyph-name="zero.superior" unicode="&#x2070;" horiz-adv-x="366" 
d="M68 537q-44 53 -44 143t44 143t116 53q73 0 116.5 -52.5t43.5 -143.5q0 -90 -43.5 -143t-116.5 -53q-72 0 -116 53zM259.5 574.5q27.5 38.5 27.5 105.5t-27.5 105.5t-75.5 38.5q-49 0 -76.5 -38t-27.5 -106q0 -67 27.5 -105.5t76.5 -38.5q48 0 75.5 38.5z" />
    <glyph glyph-name="i.sups" unicode="&#x2071;" horiz-adv-x="156" 
d="M53 1009h55v-57h-55v57zM52 864h57v-368h-57v368z" />
    <glyph glyph-name="four.superior" unicode="&#x2074;" horiz-adv-x="366" 
d="M343 623v-46h-64v-81h-53v81h-205v28l219 259h39v-241h64zM94 623h132v157z" />
    <glyph glyph-name="five.superior" unicode="&#x2075;" horiz-adv-x="366" 
d="M281 702.5q39 -33.5 39 -91.5q0 -56 -41 -91.5t-108 -35.5q-80 0 -130 56l33 37q22 -23 45 -32.5t52 -9.5q41 0 66.5 19.5t25.5 55.5t-25 56t-67 20q-54 0 -92 -35l-29 36l25 177h221v-51h-180l-14 -97q32 20 79 20q61 0 100 -33.5z" />
    </font>
</defs>
</svg>
