<?xml version="1.0" standalone="no"?>
<!DOCTYPE svg PUBLIC "-//W3C//DTD SVG 1.1//EN" "http://www.w3.org/Graphics/SVG/1.1/DTD/svg11.dtd" >
<svg xmlns="http://www.w3.org/2000/svg" xmlns:xlink="http://www.w3.org/1999/xlink" version="1.1">
<metadata>
Created by FontForge 20201107 at Thu May 25 22:25:21 2023
 By 
Copyright (c) 2017-2023 SKODA AUTO a.s. All rights reserved.
</metadata>
<defs>
<font id="SKODANext-Black" horiz-adv-x="600" >
  <font-face 
    font-family="SKODA Next Black"
    font-weight="900"
    font-stretch="normal"
    units-per-em="1000"
    panose-1="2 11 10 4 2 6 2 2 2 4"
    ascent="756"
    descent="-244"
    x-height="496"
    cap-height="704"
    bbox="-596 -344 4432 1070"
    underline-thickness="50"
    underline-position="-125"
    unicode-range="U+000D-FEFF"
  />
<missing-glyph horiz-adv-x="528" 
d="M0 704h528v-704h-528v704zM385 140v424h-242v-424h242z" />
    <glyph glyph-name="ff" unicode="ff" horiz-adv-x="712" 
d="M712 364h-152v-364h-172v364h-152v-364h-172v364h-64v132h64v4q0 96 50.5 156t169.5 60q44 0 76 -7v-141q-29 8 -56 8q-31 0 -49.5 -18.5t-18.5 -53.5v-8h152v4q0 96 50.5 156t169.5 60q44 0 76 -7v-141q-29 8 -56 8q-31 0 -49.5 -18.5t-18.5 -53.5v-8h152v-132z" />
    <glyph glyph-name="fi" unicode="fi" 
d="M254.5 557.5q-18.5 -18.5 -18.5 -53.5v-8h116v-132h-116v-364h-172v364h-64v132h64v4q0 95 49 155.5t163 60.5q40 0 76 -6v-140q-22 6 -48 6q-31 0 -49.5 -18.5zM388 496h172v-496h-172v496zM392 704h164v-140h-164v140z" />
    <glyph glyph-name="fl" unicode="fl" 
d="M254.5 557.5q-18.5 -18.5 -18.5 -53.5v-8h116v-132h-116v-364h-172v364h-64v132h64v4q0 95 49 155.5t163 60.5q40 0 76 -6v-140q-22 6 -48 6q-31 0 -49.5 -18.5zM388 704h172v-704h-172v704z" />
    <glyph glyph-name="ffi" unicode="ffi" horiz-adv-x="924" 
d="M437 655.5q49 60.5 163 60.5q40 0 76 -6v-140q-22 6 -48 6q-31 0 -49.5 -18.5t-18.5 -53.5v-8h116v-132h-116v-364h-172v364h-152v-364h-172v364h-64v132h64v4q0 96 50.5 156t169.5 60q44 0 76 -7v-141q-29 8 -56 8q-31 0 -49.5 -18.5t-18.5 -53.5v-8h152v4
q0 95 49 155.5zM880 704v-140h-164v140h164zM712 496h172v-496h-172v496z" />
    <glyph glyph-name="ffl" unicode="ffl" horiz-adv-x="924" 
d="M437 655.5q49 60.5 163 60.5q40 0 76 -6v-140q-22 6 -48 6q-31 0 -49.5 -18.5t-18.5 -53.5v-8h116v-132h-116v-364h-172v364h-152v-364h-172v364h-64v132h64v4q0 96 50.5 156t169.5 60q44 0 76 -7v-141q-29 8 -56 8q-31 0 -49.5 -18.5t-18.5 -53.5v-8h152v4
q0 95 49 155.5zM712 704h172v-704h-172v704z" />
    <glyph glyph-name=".notdef" horiz-adv-x="528" 
d="M0 704h528v-704h-528v704zM385 140v424h-242v-424h242z" />
    <glyph glyph-name=".null" horiz-adv-x="0" 
 />
    <glyph glyph-name="nonmarkingreturn" horiz-adv-x="333" 
 />
    <glyph glyph-name="NULL" horiz-adv-x="0" 
 />
    <glyph glyph-name="NULL" horiz-adv-x="0" 
 />
    <glyph glyph-name="CR" unicode="&#xd;" horiz-adv-x="260" 
 />
    <glyph glyph-name="space" unicode=" " horiz-adv-x="260" 
 />
    <glyph glyph-name="exclam" unicode="!" horiz-adv-x="232" 
d="M32 584v120h168v-120l-24 -356h-120zM36 160h160v-160h-160v160z" />
    <glyph glyph-name="quotedbl" unicode="&#x22;" horiz-adv-x="456" 
d="M40 620v84h164v-84l-12 -240h-140zM252 620v84h164v-84l-12 -240h-140z" />
    <glyph glyph-name="numbersign" unicode="#" 
d="M576 404h-104l-8 -104h112v-108h-121l-15 -192h-112l15 192h-108l-15 -192h-112l15 192h-95v108h104l8 104h-112v108h121l15 192h112l-15 -192h108l15 192h112l-15 -192h95v-108zM352 300l8 104h-108l-8 -104h108z" />
    <glyph glyph-name="dollar" unicode="$" horiz-adv-x="592" 
d="M340 -11v-109h-72v109q-137 9 -195.5 71.5t-56.5 167.5h182q0 -38 17 -57t53 -24v130l-16 3q-108 20 -168 70t-60 146q0 205 244 219v109h72v-109q136 -8 190.5 -69.5t52.5 -165.5h-167q-3 67 -76 77v-125l44 -8q111 -20 169.5 -67t58.5 -145q0 -212 -272 -223z
M222 472.5q14 -13.5 46 -23.5v109q-34 -4 -47 -16t-13 -38q0 -18 14 -31.5zM405.5 162q18.5 14 18.5 42q0 24 -19.5 37.5t-64.5 22.5v-119q47 3 65.5 17z" />
    <glyph glyph-name="percent" unicode="%" horiz-adv-x="836" 
d="M68 375q-48 51 -48 145q0 93 49 144.5t131 51.5q85 0 132.5 -51t47.5 -145q0 -93 -48 -144.5t-132 -51.5t-132 51zM588 704h108l-452 -704h-108zM244.5 450.5q15.5 26.5 15.5 69.5q0 47 -14 71.5t-46 24.5q-30 0 -45 -25t-15 -71q0 -43 15.5 -69.5t44.5 -26.5t44.5 26.5z
M504 35q-48 51 -48 145q0 93 49 144.5t131 51.5q85 0 132.5 -51t47.5 -145t-48 -145t-132 -51t-132 51zM680.5 110.5q15.5 26.5 15.5 69.5q0 47 -14 71.5t-46 24.5q-30 0 -45 -25t-15 -71q0 -43 15.5 -69.5t44.5 -26.5t44.5 26.5z" />
    <glyph glyph-name="ampersand" unicode="&#x26;" horiz-adv-x="668" 
d="M488 0l-39 39q-81 -51 -189 -51q-75 0 -131 25t-86.5 70t-30.5 105q0 50 28.5 97.5t84.5 83.5q-37 42 -53 77.5t-16 77.5q0 55 28.5 99t78.5 68.5t113 24.5t111 -22.5t74.5 -63t26.5 -94.5q0 -52 -29 -99t-99 -94l86 -89q15 45 18 102h146q0 -50 -14.5 -106t-44.5 -105
l141 -145h-204zM234.5 571.5q-14.5 -16.5 -14.5 -43.5q0 -21 10.5 -40t40.5 -52q36 30 48.5 49t12.5 43q0 27 -14.5 43.5t-41.5 16.5t-41.5 -16.5zM352 138l-136 137q-24 -16 -34 -35.5t-10 -39.5q0 -34 27 -57t73 -23t80 18z" />
    <glyph glyph-name="quotesingle" unicode="'" horiz-adv-x="244" 
d="M40 620v84h164v-84l-12 -240h-140z" />
    <glyph glyph-name="parenleft" unicode="(" horiz-adv-x="320" 
d="M79.5 540q27.5 119 77.5 204h168q-49 -95 -77 -215t-28 -241t28 -241t77 -215h-168q-50 85 -77.5 204t-27.5 252t27.5 252z" />
    <glyph glyph-name="parenright" unicode=")" horiz-adv-x="320" 
d="M240.5 36q-27.5 -119 -77.5 -204h-168q49 95 77 215t28 241t-28 241t-77 215h168q50 -85 77.5 -204t27.5 -252t-27.5 -252z" />
    <glyph glyph-name="asterisk" unicode="*" horiz-adv-x="424" 
d="M273 487l75 -67l28 -40l-96 -64l-24 36l-43 94l-41 -94l-24 -36l-96 64l28 40l72 67l-100 5l-44 16l36 108l44 -12l85 -47l-21 99v48h116v-48l-19 -99l87 47l44 12l36 -108l-44 -16z" />
    <glyph glyph-name="plus" unicode="+" horiz-adv-x="592" 
d="M536 420v-136h-164v-164h-148v164h-168v136h168v164h148v-164h164z" />
    <glyph glyph-name="comma" unicode="," horiz-adv-x="236" 
d="M204 172v-160q0 -50 -16 -93t-44 -71h-96q22 35 35 72t13 72v8h-64v172h172z" />
    <glyph glyph-name="hyphen" unicode="-" horiz-adv-x="384" 
d="M40 360h304v-140h-304v140z" />
    <glyph glyph-name="period" unicode="." horiz-adv-x="236" 
d="M32 172h172v-172h-172v172z" />
    <glyph glyph-name="slash" unicode="/" horiz-adv-x="448" 
d="M316 704h172l-356 -808h-172z" />
    <glyph glyph-name="zero" unicode="0" horiz-adv-x="592" 
d="M85.5 80q-73.5 92 -73.5 272t73.5 272t210.5 92t210.5 -92t73.5 -272t-73.5 -272t-210.5 -92t-210.5 92zM374 195.5q26 47.5 26 156.5t-26 156.5t-78 47.5t-78 -47.5t-26 -156.5t26 -156.5t78 -47.5t78 47.5z" />
    <glyph glyph-name="one" unicode="1" horiz-adv-x="592" 
d="M320 704h112v-704h-172v508l-188 -76v156z" />
    <glyph glyph-name="two" unicode="2" horiz-adv-x="592" 
d="M544 156v-156h-508v88l204 212q60 63 88 103.5t28 72.5q0 38 -19 61t-61 23q-40 0 -62 -26.5t-24 -77.5h-174q7 132 78 196t190 64q85 0 143 -32t85.5 -84t27.5 -112q0 -48 -23 -92.5t-62 -87.5t-111 -112l-41 -40h241z" />
    <glyph glyph-name="three" unicode="3" horiz-adv-x="592" 
d="M542.5 301q25.5 -43 25.5 -93q0 -64 -34 -114t-95 -78t-139 -28q-74 0 -135 26.5t-97.5 77t-37.5 120.5h170q4 -38 32 -55t64 -17q42 0 67 19t25 53q0 32 -26.5 52t-69.5 20h-60v132h56q41 0 64.5 19.5t23.5 52.5q0 34 -22.5 55t-65.5 21q-42 0 -65.5 -21t-25.5 -63h-165
q-1 65 28 118.5t89.5 85.5t150.5 32q75 0 131.5 -29t86.5 -76t30 -99q0 -97 -81 -144q50 -24 75.5 -67z" />
    <glyph glyph-name="four" unicode="4" horiz-adv-x="592" 
d="M588 316v-148h-72v-168h-168v168h-344v104l284 432h228v-388h72zM208 316h140v226z" />
    <glyph glyph-name="five" unicode="5" horiz-adv-x="592" 
d="M449.5 435.5q57.5 -36.5 84 -91.5t26.5 -112q0 -64 -33 -120.5t-93.5 -90t-137.5 -33.5q-75 0 -135 28t-95 80.5t-38 123.5h171q20 -76 89 -76q43 0 67.5 26.5t24.5 61.5t-24.5 61.5t-67.5 26.5q-25 0 -46.5 -12t-35.5 -32h-170l56 428h420v-156h-284l-12 -97
q47 21 88 21q88 0 145.5 -36.5z" />
    <glyph glyph-name="six" unicode="6" horiz-adv-x="592" 
d="M459 437.5q55 -30.5 84 -84t29 -121.5q0 -66 -32.5 -121.5t-92.5 -89t-139 -33.5q-131 0 -207.5 91.5t-76.5 268.5q0 173 70.5 270.5t213.5 97.5q95 0 162.5 -49t92.5 -163h-165q-14 33 -36.5 46.5t-53.5 13.5q-51 0 -78 -35t-33 -116q49 55 131 55q76 0 131 -30.5z
M372 167.5q28 27.5 28 68.5t-28 66.5t-68 25.5q-30 0 -59.5 -14.5t-46.5 -42.5q6 -63 34.5 -97t71.5 -34q40 0 68 27.5z" />
    <glyph glyph-name="seven" unicode="7" horiz-adv-x="592" 
d="M20 704h544v-112l-296 -592h-184l278 548h-342v156z" />
    <glyph glyph-name="eight" unicode="8" horiz-adv-x="592" 
d="M572 200q0 -61 -34.5 -109t-98 -75.5t-147.5 -27.5t-147.5 27.5t-98 75.5t-34.5 109q0 109 95 159q-38 26 -58.5 63t-20.5 82q0 60 31.5 108t91.5 76t141 28q80 0 139.5 -28t92 -76t32.5 -108q0 -45 -20.5 -82t-58.5 -63q95 -50 95 -159zM232 543.5q-20 -20.5 -20 -51.5
q0 -30 20 -51t60 -21q41 0 60.5 21t19.5 51q0 31 -19.5 51.5t-60.5 20.5q-40 0 -60 -20.5zM357.5 156q22.5 20 22.5 52t-22.5 52t-65.5 20t-65.5 -20t-22.5 -52t22.5 -52t65.5 -20t65.5 20z" />
    <glyph glyph-name="nine" unicode="9" horiz-adv-x="592" 
d="M491.5 624.5q76.5 -91.5 76.5 -268.5q0 -173 -70.5 -270.5t-213.5 -97.5q-95 0 -162.5 49t-92.5 163h165q14 -33 36.5 -46.5t53.5 -13.5q51 0 78 35t33 116q-49 -55 -131 -55q-76 0 -131 30.5t-84 84t-29 121.5q0 66 32.5 121.5t92.5 89t139 33.5q131 0 207.5 -91.5z
M348 390.5q29 14.5 46 42.5q-6 63 -34.5 97t-71.5 34q-40 0 -68 -27.5t-28 -68.5t28 -66.5t68 -25.5q31 0 60 14.5z" />
    <glyph glyph-name="colon" unicode=":" horiz-adv-x="228" 
d="M32 446h164v-164h-164v164zM32 164h164v-164h-164v164z" />
    <glyph glyph-name="semicolon" unicode=";" horiz-adv-x="228" 
d="M32 446h164v-164h-164v164zM32 164h164v-152q0 -50 -16 -93t-44 -71h-96q22 35 35 72t13 72v8h-56v164z" />
    <glyph glyph-name="less" unicode="&#x3c;" horiz-adv-x="592" 
d="M528 608v-152l-254 -103l254 -113v-152l-464 216v100z" />
    <glyph glyph-name="equal" unicode="=" horiz-adv-x="592" 
d="M56 316h480v-136h-480v136zM56 524h480v-136h-480v136z" />
    <glyph glyph-name="greater" unicode="&#x3e;" horiz-adv-x="592" 
d="M64 616l464 -216v-100l-464 -204v152l254 103l-254 113v152z" />
    <glyph glyph-name="question" unicode="?" horiz-adv-x="524" 
d="M395 687.5q55 -28.5 82 -76t27 -103.5q0 -85 -50 -142t-142 -84v-54h-132v148q76 18 112 47t36 73q0 31 -18.5 53.5t-57.5 22.5q-41 0 -64.5 -27t-23.5 -77h-160q5 125 73 186.5t183 61.5q80 0 135 -28.5zM168 0v160h160v-160h-160z" />
    <glyph glyph-name="at" unicode="@" horiz-adv-x="920" 
d="M668 496v-260q0 -25 8 -36.5t28 -11.5q31 0 51.5 31.5t20.5 100.5q0 81 -41.5 147t-113 103.5t-157.5 37.5q-89 0 -162 -40t-115.5 -110.5t-42.5 -157.5q0 -89 39.5 -164t111.5 -119.5t165 -44.5q61 0 110.5 16.5t91.5 51.5h154q-64 -84 -155 -126t-201 -42
q-117 0 -214 57t-153.5 154t-56.5 213t57.5 212t156 152t214.5 56q115 0 211.5 -55t152.5 -146t56 -195q0 -63 -24.5 -116.5t-77 -86.5t-130.5 -33q-39 0 -65.5 13.5t-40.5 37.5q-20 -21 -48 -32t-58 -11q-56 0 -103.5 27.5t-76 74.5t-28.5 102t27.5 103t74.5 76.5t102 28.5
q31 0 57.5 -10t44.5 -26l34 28h96zM496 226.5q19 10.5 32 29.5v84q-11 18 -30 27t-42 9q-34 0 -57 -23t-23 -57q0 -35 23 -57.5t57 -22.5q21 0 40 10.5z" />
    <glyph glyph-name="A" unicode="A" horiz-adv-x="736" 
d="M564 0l-44 104h-312l-44 -104h-176l312 704h140l308 -704h-184zM268 244h192l-96 227z" />
    <glyph glyph-name="B" unicode="B" horiz-adv-x="664" 
d="M617 316q27 -43 27 -96q0 -68 -31.5 -117.5t-87.5 -76t-129 -26.5h-344v704h340q57 0 107.5 -23.5t81.5 -68t31 -104.5q0 -72 -70 -123q48 -26 75 -69zM224 556v-136h144q32 0 52 18.5t20 49.5q0 28 -20 48t-52 20h-144zM442.5 166.5q21.5 18.5 21.5 49.5q0 27 -22 47.5
t-54 20.5h-164v-136h164q33 0 54.5 18.5z" />
    <glyph glyph-name="C" unicode="C" horiz-adv-x="744" 
d="M183 35.5q-79 47.5 -123 130.5t-44 186q0 102 45 185.5t125 131t182 47.5q100 0 175 -38.5t119.5 -103t56.5 -142.5h-180q-17 53 -60.5 88.5t-106.5 35.5q-84 0 -130 -57.5t-46 -146.5t46 -146.5t130 -57.5q70 0 111 33.5t60 94.5h178q-11 -77 -55 -142.5t-121 -105.5
t-181 -40q-102 0 -181 47.5z" />
    <glyph glyph-name="D" unicode="D" horiz-adv-x="716" 
d="M512 657q86 -47 137 -128t51 -177q0 -97 -51 -177.5t-137 -127.5t-188 -47h-272v704h272q102 0 188 -47zM421.5 181q46.5 25 72.5 69.5t26 101.5t-26 101.5t-72.5 69.5t-105.5 25h-92v-392h92q59 0 105.5 25z" />
    <glyph glyph-name="E" unicode="E" horiz-adv-x="584" 
d="M224 156h332v-156h-504v704h496v-156h-324v-124h288v-144h-288v-124z" />
    <glyph glyph-name="F" unicode="F" horiz-adv-x="588" 
d="M572 548h-348v-144h320v-148h-320v-256h-172v704h520v-156z" />
    <glyph glyph-name="G" unicode="G" horiz-adv-x="776" 
d="M732 0h-116l-39 66q-35 -36 -86.5 -57t-118.5 -21q-96 0 -177.5 46t-130 129t-48.5 189q0 100 47.5 183t132.5 132t192 49q128 0 218.5 -61.5t125.5 -170.5h-185q-27 36 -68 54t-91 18q-54 0 -98 -24.5t-69 -69.5t-25 -106q0 -65 27 -113t71.5 -73.5t97.5 -25.5
q55 0 99.5 17.5t72.5 51.5v43h-200v144h368v-400z" />
    <glyph glyph-name="H" unicode="H" horiz-adv-x="728" 
d="M504 704h172v-704h-172v276h-280v-276h-172v704h172v-272h280v272z" />
    <glyph glyph-name="I" unicode="I" horiz-adv-x="276" 
d="M52 704h172v-704h-172v704z" />
    <glyph glyph-name="J" unicode="J" horiz-adv-x="572" 
d="M93 45.5q-67 57.5 -76 170.5h165q8 -42 29 -59t61 -17q46 0 67 22.5t21 61.5v480h172v-476q0 -76 -33.5 -130t-91.5 -82t-131 -28q-116 0 -183 57.5z" />
    <glyph glyph-name="K" unicode="K" horiz-adv-x="704" 
d="M712 0h-208l-170 271l-110 -131v-140h-172v704h172v-343l276 343h196l-252 -301z" />
    <glyph glyph-name="L" unicode="L" horiz-adv-x="532" 
d="M224 156h300v-156h-472v704h172v-548z" />
    <glyph glyph-name="M" unicode="M" horiz-adv-x="860" 
d="M808 704v-704h-160v331l-164 -331h-112l-160 323v-323h-160v704h144l241 -478l223 478h148z" />
    <glyph glyph-name="N" unicode="N" horiz-adv-x="716" 
d="M492 704h172v-704h-104l-336 376v-376h-172v704h100l340 -380v380z" />
    <glyph glyph-name="O" unicode="O" horiz-adv-x="800" 
d="M209 36q-88 48 -140.5 131.5t-52.5 184.5q0 100 52.5 183.5t140.5 132t191 48.5t191 -48t140.5 -131.5t52.5 -184.5t-52.5 -184.5t-140.5 -131.5t-191 -48t-191 48zM501 175.5q47 27.5 75 74t28 102.5t-28 102.5t-75 74t-101 27.5t-101 -27.5t-75 -74.5t-28 -102
q0 -56 28 -102.5t75 -74t101 -27.5t101 27.5z" />
    <glyph glyph-name="P" unicode="P" horiz-adv-x="632" 
d="M490.5 673q55.5 -31 86.5 -84.5t31 -120.5q0 -64 -30 -117t-85.5 -84t-128.5 -31h-140v-236h-172v704h312q71 0 126.5 -31zM402.5 404q25.5 24 25.5 64q0 39 -26 61.5t-66 22.5h-112v-172h112q41 0 66.5 24z" />
    <glyph glyph-name="Q" unicode="Q" horiz-adv-x="792" 
d="M592 0l-25 33q-85 -45 -171 -45q-103 0 -190 48.5t-138.5 132t-51.5 183.5q0 102 51.5 185.5t138.5 131t190 47.5t190 -47.5t138.5 -131t51.5 -185.5q0 -63 -24.5 -120.5t-67.5 -106.5l100 -125h-192zM223.5 250q27.5 -47 73.5 -74.5t99 -27.5q35 0 66 11l-114 145h192
l34 -46q22 44 22 94q0 57 -26.5 103.5t-72.5 73.5t-101 27q-54 0 -99.5 -27t-73 -73.5t-27.5 -103.5q0 -55 27.5 -102z" />
    <glyph glyph-name="R" unicode="R" horiz-adv-x="664" 
d="M464 0l-148 232h-92v-232h-172v704h328q71 0 126.5 -31t86.5 -84.5t31 -120.5q0 -69 -35 -122.5t-97 -81.5l176 -264h-204zM224 380h128q41 0 66.5 24t25.5 64q0 39 -26 61.5t-66 22.5h-128v-172z" />
    <glyph glyph-name="S" unicode="S" horiz-adv-x="648" 
d="M91.5 51q-68.5 63 -69.5 177h179q0 -47 27.5 -65.5t91.5 -18.5q68 0 94 14t26 46q0 26 -26 40.5t-82 23.5l-68 12q-114 20 -175 70t-61 146q0 103 72.5 161.5t219.5 58.5q157 0 222 -64t65 -172h-174q0 41 -26 60.5t-83 19.5q-46 0 -70 -5.5t-33 -17t-9 -33.5
q0 -26 25.5 -40.5t94.5 -27.5l64 -12q112 -21 172 -68t60 -144q0 -224 -308 -224q-160 0 -228.5 63z" />
    <glyph glyph-name="T" unicode="T" horiz-adv-x="632" 
d="M624 704v-156h-220v-548h-172v548h-224v156h616z" />
    <glyph glyph-name="U" unicode="U" horiz-adv-x="708" 
d="M191.5 23.5q-71.5 35.5 -111.5 100.5t-40 152v428h172v-432q0 -60 39.5 -94t104.5 -34q62 0 101 34t39 94v432h172v-428q0 -87 -40 -152t-110.5 -100.5t-161.5 -35.5q-93 0 -164.5 35.5z" />
    <glyph glyph-name="V" unicode="V" horiz-adv-x="696" 
d="M536 704h184l-304 -704h-124l-308 704h192l185 -439z" />
    <glyph glyph-name="W" unicode="W" horiz-adv-x="1076" 
d="M904 704h184l-268 -704h-128l-150 399l-158 -399h-124l-272 704h188l147 -416l161 416h108l161 -408z" />
    <glyph glyph-name="X" unicode="X" horiz-adv-x="712" 
d="M716 0h-200l-161 226l-159 -226h-200l259 368l-239 336h196l141 -197l139 197h204l-242 -338z" />
    <glyph glyph-name="Y" unicode="Y" horiz-adv-x="668" 
d="M492 704h196l-268 -440v-264h-172v264l-268 440h196l162 -263z" />
    <glyph glyph-name="Z" unicode="Z" horiz-adv-x="664" 
d="M285 156h355v-156h-616v88l358 460h-358v156h604v-112z" />
    <glyph glyph-name="bracketleft" unicode="[" horiz-adv-x="424" 
d="M372 620h-164v-628h164v-144h-320v916h320v-144z" />
    <glyph glyph-name="backslash" unicode="\" horiz-adv-x="452" 
d="M320 -104l-356 808h172l356 -808h-172z" />
    <glyph glyph-name="bracketright" unicode="]" horiz-adv-x="424" 
d="M372 764v-916h-320v144h164v628h-164v144h320z" />
    <glyph glyph-name="asciicircum" unicode="^" horiz-adv-x="592" 
d="M572 336h-180l-98 174l-94 -174h-180l212 368h128z" />
    <glyph glyph-name="underscore" unicode="_" horiz-adv-x="492" 
d="M20 -12h452v-140h-452v140z" />
    <glyph glyph-name="grave" unicode="`" 
d="M114 704h172l64 -136v-8h-120z" />
    <glyph glyph-name="a" unicode="a" horiz-adv-x="540" 
d="M446.5 457q57.5 -51 57.5 -133v-324h-120l-26 44q-30 -28 -68.5 -42t-81.5 -14q-90 0 -139 39.5t-49 104.5q0 72 58 111.5t166 56.5l88 14v2q0 56 -68 56q-30 0 -45 -11.5t-19 -36.5h-161q1 51 29 93t79.5 66.5t120.5 24.5q121 0 178.5 -51zM204.5 122q16.5 -10 39.5 -10
q49 0 88 36v64l-52 -8q-51 -8 -71.5 -20.5t-20.5 -31.5q0 -20 16.5 -30z" />
    <glyph glyph-name="b" unicode="b" horiz-adv-x="596" 
d="M454.5 474q58.5 -34 92 -93.5t33.5 -132.5t-35 -132.5t-94.5 -93.5t-130.5 -34q-39 0 -76.5 14.5t-61.5 35.5l-22 -38h-120v704h172v-233q43 37 112 37q72 0 130.5 -34zM372.5 168.5q31.5 32.5 31.5 79.5t-31 79.5t-81 32.5q-23 0 -44 -9.5t-36 -25.5v-154q14 -17 35 -26
t45 -9q49 0 80.5 32.5z" />
    <glyph glyph-name="c" unicode="c" horiz-adv-x="552" 
d="M143 22q-60 34 -93.5 93t-33.5 133t33.5 133t93.5 93t137 34q108 0 175.5 -55t86.5 -161h-169q-27 60 -89 60q-45 0 -70.5 -28t-25.5 -76q0 -49 25.5 -76.5t70.5 -27.5q59 0 89 60h171q-21 -103 -89 -159.5t-175 -56.5q-77 0 -137 34z" />
    <glyph glyph-name="d" unicode="d" horiz-adv-x="596" 
d="M556 704v-704h-120l-30 50q-45 -62 -134 -62q-71 0 -129.5 34t-92.5 93.5t-34 132.5t35 132.5t94.5 93.5t130.5 34q55 0 108 -29v225h172zM348 145.5q21 9.5 36 25.5v154q-14 17 -35 26t-45 9q-49 0 -80.5 -32.5t-31.5 -79.5t31 -79.5t81 -32.5q23 0 44 9.5z" />
    <glyph glyph-name="e" unicode="e" horiz-adv-x="564" 
d="M217.5 142q26.5 -22 66.5 -22q54 0 84 36h168q-21 -75 -89 -121.5t-163 -46.5q-73 0 -134 31.5t-97.5 90.5t-36.5 138q0 72 33.5 131.5t94 94t136.5 34.5q73 0 133 -30.5t95.5 -88.5t35.5 -137v-48h-361q8 -40 34.5 -62zM218.5 355.5q-25.5 -20.5 -34.5 -51.5h191
q-9 31 -33.5 51.5t-61.5 20.5q-36 0 -61.5 -20.5z" />
    <glyph glyph-name="f" unicode="f" horiz-adv-x="388" 
d="M388 364h-152v-364h-172v364h-64v132h64v4q0 96 50.5 156t169.5 60q44 0 76 -7v-141q-29 8 -56 8q-31 0 -49.5 -18.5t-18.5 -53.5v-8h152v-132z" />
    <glyph glyph-name="g" unicode="g" horiz-adv-x="596" 
d="M556 496v-492q0 -105 -69 -162.5t-187 -57.5q-222 0 -258 184h166q9 -25 30 -36.5t62 -11.5q45 0 64.5 19t19.5 57v60q-17 -21 -46 -34.5t-66 -13.5q-72 0 -130.5 33t-92 90.5t-33.5 128.5q0 69 35 125.5t94.5 89.5t130.5 33q75 0 131 -48l29 36h120zM346.5 160.5
q22.5 8.5 37.5 24.5v147q-15 15 -37.5 23.5t-46.5 8.5q-48 0 -78 -29.5t-30 -74.5q0 -46 30 -77t78 -31q24 0 46.5 8.5z" />
    <glyph glyph-name="h" unicode="h" horiz-adv-x="572" 
d="M440.5 481.5q46.5 -26.5 71 -73t24.5 -104.5v-304h-172v276q0 36 -20 58t-56 22q-25 0 -45 -12t-31 -28v-316h-172v704h172v-245q49 49 120 49q62 0 108.5 -26.5z" />
    <glyph glyph-name="i" unicode="i" horiz-adv-x="252" 
d="M40 496h172v-496h-172v496zM44 704h164v-140h-164v140z" />
    <glyph glyph-name="j" unicode="j" horiz-adv-x="252" 
d="M44 704h164v-140h-164v140zM-8 -84q22 0 35 12t13 36v532h172v-528q0 -91 -49 -137.5t-135 -46.5q-32 0 -60 3v131q16 -2 24 -2z" />
    <glyph glyph-name="k" unicode="k" horiz-adv-x="564" 
d="M372 0l-104 166l-56 -65v-101h-172v704h172v-392l148 184h196l-177 -203l197 -293h-204z" />
    <glyph glyph-name="l" unicode="l" horiz-adv-x="252" 
d="M40 704h172v-704h-172v704z" />
    <glyph glyph-name="m" unicode="m" horiz-adv-x="896" 
d="M807 447q53 -61 53 -159v-288h-172v280q0 35 -21 55.5t-55 20.5q-23 0 -43.5 -10.5t-32.5 -25.5v-16v-304h-172v276q0 36 -20 58t-56 22q-25 0 -45 -12t-31 -28v-316h-172v496h120l34 -58q52 70 138 70q53 0 94.5 -19.5t68.5 -54.5q32 37 66.5 55.5t90.5 18.5
q102 0 155 -61z" />
    <glyph glyph-name="n" unicode="n" horiz-adv-x="572" 
d="M440.5 481.5q46.5 -26.5 71 -73t24.5 -104.5v-304h-172v276q0 36 -20 58t-56 22q-25 0 -45 -12t-31 -28v-316h-172v496h120l34 -58q52 70 138 70q62 0 108.5 -26.5z" />
    <glyph glyph-name="o" unicode="o" 
d="M153 22q-65 34 -101 93t-36 133t36 133t101 93t147 34t147 -34t101 -93t36 -133t-36 -133t-101 -93t-147 -34t-147 34zM378 164.5q30 32.5 30 83.5t-30 83.5t-78 32.5t-78 -32.5t-30 -83.5t30 -83.5t78 -32.5t78 32.5z" />
    <glyph glyph-name="p" unicode="p" horiz-adv-x="596" 
d="M453.5 474q58.5 -34 92.5 -93.5t34 -132.5t-35 -132.5t-94.5 -93.5t-130.5 -34q-55 0 -108 29v-225h-172v704h120l30 -50q45 62 134 62q71 0 129.5 -34zM372.5 168.5q31.5 32.5 31.5 79.5t-31 79.5t-81 32.5q-23 0 -44 -9.5t-36 -25.5v-154q14 -17 35 -26t45 -9
q49 0 80.5 32.5z" />
    <glyph glyph-name="q" unicode="q" horiz-adv-x="596" 
d="M556 496v-704h-172v233q-43 -37 -112 -37q-72 0 -130.5 34t-92 93.5t-33.5 132.5t35 132.5t94.5 93.5t130.5 34q39 0 76.5 -14.5t61.5 -35.5l22 38h120zM348 145.5q21 9.5 36 25.5v154q-14 17 -35 26t-45 9q-49 0 -80.5 -32.5t-31.5 -79.5t31 -79.5t81 -32.5q23 0 44 9.5
z" />
    <glyph glyph-name="r" unicode="r" horiz-adv-x="392" 
d="M380 504v-162q-33 6 -64 6q-37 0 -65 -15.5t-39 -44.5v-288h-172v496h120l37 -63q18 35 53.5 55t77.5 20q31 0 52 -4z" />
    <glyph glyph-name="s" unicode="s" horiz-adv-x="500" 
d="M76 31q-59 43 -55 125h154q0 -29 17.5 -38.5t55.5 -9.5q42 0 57 8.5t15 27.5q0 16 -13 24t-55 12l-40 4q-97 10 -144.5 49t-47.5 111q0 80 60 122t168 42q114 0 170 -44t55 -124h-160q-2 24 -17.5 36t-47.5 12q-30 0 -43 -8t-13 -24q0 -18 12 -27t56 -13l40 -4
q99 -10 143.5 -49t44.5 -107q0 -80 -60.5 -124t-179.5 -44q-113 0 -172 43z" />
    <glyph glyph-name="t" unicode="t" horiz-adv-x="388" 
d="M232 364v-156q0 -36 19 -54t45 -18q43 0 76 13v-139q-55 -22 -124 -22q-52 0 -94.5 21.5t-68 64t-25.5 102.5v188h-64v132h72v100l156 92h8v-192h140v-132h-140z" />
    <glyph glyph-name="u" unicode="u" horiz-adv-x="572" 
d="M532 496v-496h-120l-34 58q-52 -70 -138 -70q-63 0 -109 26.5t-70.5 73t-24.5 104.5v304h172v-276q0 -36 20 -58t56 -22q25 0 45.5 12t30.5 28v316h172z" />
    <glyph glyph-name="v" unicode="v" horiz-adv-x="548" 
d="M388 496h168l-224 -496h-116l-224 496h184l106 -242z" />
    <glyph glyph-name="w" unicode="w" horiz-adv-x="848" 
d="M684 496h172l-212 -496h-124l-97 227l-95 -227h-124l-212 496h188l88 -237l96 237h112l109 -244z" />
    <glyph glyph-name="x" unicode="x" horiz-adv-x="528" 
d="M548 0h-204l-90 123l-86 -123h-188l186 246l-182 250h196l85 -114l79 114h192l-181 -235z" />
    <glyph glyph-name="y" unicode="y" horiz-adv-x="564" 
d="M400 496h172l-304 -704h-168l109 243l-217 461h188l115 -255z" />
    <glyph glyph-name="z" unicode="z" horiz-adv-x="484" 
d="M259 140h205v-140h-444v100l207 256h-203v140h432v-104z" />
    <glyph glyph-name="braceleft" unicode="{" horiz-adv-x="456" 
d="M231 346q-29 -38 -91 -38q63 0 91.5 -37t28.5 -115v-112q0 -32 15 -46t49 -14h84v-136h-112q-84 0 -132 42.5t-48 117.5v144q0 43 -18 65.5t-54 22.5h-32v140h32q72 0 72 88v136q0 75 48 117.5t132 42.5h112v-136h-84q-34 0 -49 -14t-15 -46v-108q0 -76 -29 -114z" />
    <glyph glyph-name="bar" unicode="|" horiz-adv-x="256" 
d="M52 764h152v-912h-152v912z" />
    <glyph glyph-name="braceright" unicode="}" horiz-adv-x="456" 
d="M444 376v-140h-32q-72 0 -72 -88v-136q0 -75 -48 -117.5t-132 -42.5h-112v136h84q34 0 49 14t15 46v108q0 76 29 114t91 38q-63 0 -91.5 37t-28.5 115v112q0 32 -15 46t-49 14h-84v136h112q84 0 132 -42.5t48 -117.5v-144q0 -42 18 -65t54 -23h32z" />
    <glyph glyph-name="asciitilde" unicode="~" horiz-adv-x="592" 
d="M356.5 269q-26.5 5 -68.5 19l-24 8q-36 12 -56 12q-28 0 -28 -28v-8h-140v40q0 66 36.5 105t99.5 39q33 0 59.5 -5t68.5 -19l24 -8q36 -12 56 -12q28 0 28 28v8h140v-40q0 -66 -36.5 -105t-99.5 -39q-33 0 -59.5 5z" />
    <glyph glyph-name="uni00A0" unicode="&#xa0;" horiz-adv-x="260" 
 />
    <glyph glyph-name="exclamdown" unicode="&#xa1;" horiz-adv-x="232" 
d="M36 336v160h160v-160h-160zM200 -208h-168v120l24 356h120l24 -356v-120z" />
    <glyph glyph-name="cent" unicode="&#xa2;" horiz-adv-x="592" 
d="M484.5 160q-57.5 -56 -148.5 -66v-94h-72v94q-69 7 -121.5 42t-81.5 91.5t-29 124.5t29 124.5t81.5 91.5t121.5 42v94h72v-94q91 -10 148 -64t74 -150h-168q-17 42 -54 55v-197q32 13 53 54h171q-18 -92 -75.5 -148zM219.5 289.5q15.5 -25.5 44.5 -35.5v196
q-29 -10 -44.5 -35.5t-15.5 -62.5t15.5 -62.5z" />
    <glyph glyph-name="sterling" unicode="&#xa3;" horiz-adv-x="592" 
d="M274 156h278v-156h-504v88q44 27 68 66.5t24 85.5q0 10 -4 36h-88v72h68q-16 54 -24 89.5t-8 70.5q0 60 28.5 107.5t82 74t125.5 26.5q230 0 236 -240h-176q-3 80 -56 80q-26 0 -39 -17.5t-13 -46.5q0 -21 4.5 -42t12.5 -51l12 -51h175v-72h-168q-2 -79 -34 -120z" />
    <glyph glyph-name="currency" unicode="&#xa4;" horiz-adv-x="592" 
d="M476 88l-76 76q-46 -20 -104 -20t-103 21l-77 -77l-84 84l72 72q-28 48 -28 108t27 105l-67 67l88 88l70 -73q45 21 102 21t103 -20l69 72l88 -88l-66 -66q26 -46 26 -106q0 -61 -26 -107l70 -73zM361.5 288.5q26.5 24.5 26.5 63.5t-26.5 63.5t-65.5 24.5t-65.5 -24.5
t-26.5 -63.5t26.5 -63.5t65.5 -24.5t65.5 24.5z" />
    <glyph glyph-name="yen" unicode="&#xa5;" horiz-adv-x="592" 
d="M612 704l-193 -380h121v-72h-156v-48h156v-72h-156v-132h-172v132h-156v72h156v48h-156v72h121l-197 380h196l126 -268l118 268h192z" />
    <glyph glyph-name="brokenbar" unicode="&#xa6;" horiz-adv-x="256" 
d="M52 764h152v-356h-152v356zM52 208h152v-356h-152v356z" />
    <glyph glyph-name="section" unicode="&#xa7;" horiz-adv-x="592" 
d="M536.5 168.5q-27.5 -39.5 -79.5 -55.5q63 -52 63 -137q0 -91 -64.5 -141.5t-171.5 -50.5q-114 0 -177 55t-55 161h158q-7 -84 74 -84q25 0 40.5 11.5t15.5 32.5q0 18 -5.5 28.5t-24 21.5t-58.5 26l-72 28q-79 30 -115.5 72t-36.5 104q0 48 27.5 86t76.5 57
q-64 53 -64 141q0 91 65 141.5t175 50.5q113 0 176 -54.5t60 -157.5h-161q1 42 -20.5 61t-54.5 19q-27 0 -43.5 -11.5t-16.5 -32.5q0 -16 5.5 -26t22.5 -21t52 -25l80 -32q79 -32 117.5 -72.5t38.5 -103.5q0 -52 -27.5 -91.5zM210.5 235.5q14.5 -16.5 61.5 -35.5l83 -33
q41 18 41 57q0 24 -17.5 39.5t-70.5 36.5l-76 30q-36 -19 -36 -54q0 -24 14.5 -40.5z" />
    <glyph glyph-name="dieresis" unicode="&#xa8;" 
d="M120 704h140v-132h-140v132zM332 704h140v-132h-140v132z" />
    <glyph glyph-name="copyright" unicode="&#xa9;" horiz-adv-x="800" 
d="M206.5 37q-85.5 49 -134 132.5t-48.5 182.5t48.5 182.5t134 132.5t193.5 49t193.5 -49t134 -132.5t48.5 -182.5q0 -100 -47.5 -183t-133.5 -132t-195 -49q-108 0 -193.5 49zM548 97.5q68 37.5 108 104t40 150.5t-40 150.5t-108 104t-148 37.5t-148 -37.5t-108 -104
t-40 -150.5t40 -150.5t108 -104t148 -37.5t148 37.5zM298.5 181.5q-46.5 25.5 -72.5 70t-26 100.5t26 100.5t72.5 70t105.5 25.5q82 0 135.5 -44.5t65.5 -123.5h-125q-15 56 -76 56q-37 0 -58.5 -24.5t-21.5 -59.5t21.5 -59.5t58.5 -24.5q63 0 76 56h125q-13 -78 -66 -123
t-135 -45q-59 0 -105.5 25.5z" />
    <glyph glyph-name="ordfeminine" unicode="&#xaa;" horiz-adv-x="412" 
d="M336 677.5q44 -38.5 44 -97.5v-244h-84l-19 35q-21 -23 -51.5 -35t-65.5 -12q-65 0 -102.5 30.5t-37.5 81.5q0 55 46.5 86.5t125.5 41.5l72 9v3q0 23 -16 35.5t-44 12.5t-43.5 -7t-21.5 -25h-110q7 54 54 89t121 35q88 0 132 -38.5zM184 412q21 0 43 8.5t37 23.5v58
l-44 -6q-80 -11 -80 -48q0 -36 44 -36z" />
    <glyph glyph-name="guillemotleft" unicode="&#xab;" horiz-adv-x="538" 
d="M307 480l-116 -195l119 -197h-165l-121 196l121 196h162zM414 285l112 -197h-164l-114 196l114 196h162z" />
    <glyph glyph-name="logicalnot" unicode="&#xac;" horiz-adv-x="592" 
d="M388 284h-332v136h480v-268h-148v132z" />
    <glyph glyph-name="uni00AD" unicode="&#xad;" horiz-adv-x="384" 
d="M40 360h304v-140h-304v140z" />
    <glyph glyph-name="registered" unicode="&#xae;" horiz-adv-x="456" 
d="M329 690.5q46 -25.5 72.5 -70.5t26.5 -100q0 -56 -25 -100.5t-70.5 -70t-104.5 -25.5q-55 0 -101 25.5t-72.5 70.5t-26.5 100q0 56 25 100.5t70.5 70t104.5 25.5q55 0 101 -25.5zM337.5 408.5q42.5 40.5 42.5 111.5q0 45 -20.5 79.5t-55 53.5t-76.5 19
q-67 0 -109.5 -40.5t-42.5 -111.5q0 -45 20.5 -79.5t55 -53.5t76.5 -19q67 0 109.5 40.5zM281 499l43 -79h-68l-32 64h-18v-64h-62v208h96q32 0 52 -20.5t20 -51.5q0 -37 -31 -57zM206 536h22q9 0 14.5 5.5t5.5 14.5t-5.5 14.5t-14.5 5.5h-22v-40z" />
    <glyph glyph-name="macron" unicode="&#xaf;" 
d="M180 688h360v-104h-360v104z" />
    <glyph glyph-name="degree" unicode="&#xb0;" horiz-adv-x="440" 
d="M118.5 364q-45.5 24 -72 66.5t-26.5 97.5t25.5 98t71 66.5t103.5 23.5q56 0 101.5 -24t72 -66.5t26.5 -97.5t-25.5 -98t-71 -66.5t-103.5 -23.5q-56 0 -101.5 24zM283 465.5q25 25.5 25 62.5t-25 62.5t-63 25.5t-63 -25.5t-25 -62.5t25 -62.5t63 -25.5t63 25.5z" />
    <glyph glyph-name="plusminus" unicode="&#xb1;" horiz-adv-x="592" 
d="M372 512h164v-136h-164v-148h-148v148h-168v136h168v148h148v-148zM56 44v136h480v-136h-480z" />
    <glyph glyph-name="twosuperior" unicode="&#xb2;" horiz-adv-x="400" 
d="M352 588v-92h-304v52l120 112q34 32 45 47.5t11 32.5t-9.5 26.5t-26.5 9.5q-42 0 -39 -52h-109q3 76 42 114t110 38q69 0 108.5 -33.5t39.5 -90.5q0 -41 -24.5 -73.5t-91.5 -82.5l-11 -8h139z" />
    <glyph glyph-name="threesuperior" unicode="&#xb3;" horiz-adv-x="400" 
d="M356 600q0 -50 -42.5 -83t-117.5 -33q-76 0 -121 36t-43 100h108q3 -24 16.5 -34t39.5 -10q20 0 32 9t12 23q0 36 -48 36h-36v72h32q44 0 44 36q0 12 -11 22t-33 10q-48 0 -48 -44h-107q-1 59 39.5 97.5t119.5 38.5q73 0 114.5 -33t41.5 -83q0 -26 -11.5 -44.5
t-33.5 -28.5q53 -23 53 -87z" />
    <glyph glyph-name="acute" unicode="&#xb4;" 
d="M198 568l64 136h172l-116 -144h-120v8z" />
    <glyph glyph-name="mu" unicode="&#xb5;" horiz-adv-x="604" 
d="M592 140v-140q-30 -12 -80 -12q-95 0 -133 71q-36 -71 -119 -71q-35 0 -64 18v-214h-164v704h172v-276q0 -37 20 -58.5t56 -21.5q25 0 45 11.5t31 28.5v316h172v-320q0 -19 10 -29.5t26 -10.5t28 4z" />
    <glyph glyph-name="paragraph" unicode="&#xb6;" horiz-adv-x="640" 
d="M404 704v-704h-136v236q-72 0 -127.5 31t-86 84t-30.5 117q0 67 31 121t86.5 84.5t126.5 30.5h136zM452 704h136v-704h-136v704z" />
    <glyph glyph-name="periodcentered" unicode="&#xb7;" horiz-adv-x="236" 
d="M32 440h172v-172h-172v172z" />
    <glyph glyph-name="cedilla" unicode="&#xb8;" 
d="M309.5 -73q22.5 -20 22.5 -51q0 -40 -29.5 -66t-78.5 -26q-44 0 -71.5 22t-32.5 62h76q2 -8 10 -12t18 -4q14 0 21 7t7 17q0 13 -10.5 18.5t-33.5 5.5h-36l32 100h48l-7 -45q42 -8 64.5 -28z" />
    <glyph glyph-name="onesuperior" unicode="&#xb9;" horiz-adv-x="400" 
d="M212 864h72v-368h-116v245l-108 -37v100z" />
    <glyph glyph-name="ordmasculine" unicode="&#xba;" horiz-adv-x="464" 
d="M120 349.5q-49 25.5 -76.5 70t-27.5 100.5q0 57 27.5 101.5t76.5 69.5t112 25t112 -25t76.5 -69.5t27.5 -101.5q0 -56 -27.5 -100.5t-76.5 -70t-112 -25.5t-112 25.5zM300 450q28 26 28 70t-28 70t-68 26t-68 -26t-28 -70t28 -70t68 -26t68 26z" />
    <glyph glyph-name="guillemotright" unicode="&#xbb;" horiz-adv-x="538" 
d="M176 476l114 -196l-114 -196h-164l112 197l-110 195h162zM393 476l121 -196l-121 -196h-165l119 197l-116 195h162z" />
    <glyph glyph-name="onequarter" unicode="&#xbc;" horiz-adv-x="836" 
d="M220 704h72v-368h-116v245l-108 -37v100zM588 704h108l-452 -704h-108zM776 166v-86h-40v-76h-108v76h-188v64l148 228h148v-206h40zM560 166h68v110z" />
    <glyph glyph-name="onehalf" unicode="&#xbd;" horiz-adv-x="836" 
d="M220 704h72v-368h-116v245l-108 -37v100zM588 704h108l-452 -704h-108zM784 96v-92h-304v52l120 112q34 32 45 47.5t11 32.5t-9.5 26.5t-26.5 9.5q-42 0 -39 -52h-109q3 76 42 114t110 38q69 0 108.5 -33.5t39.5 -90.5q0 -41 -24.5 -73.5t-91.5 -82.5l-11 -8h139z" />
    <glyph glyph-name="threequarters" unicode="&#xbe;" horiz-adv-x="836" 
d="M356 440q0 -50 -42.5 -83t-117.5 -33q-76 0 -121 36t-43 100h108q3 -24 16.5 -34t39.5 -10q20 0 32 9t12 23q0 36 -48 36h-36v72h32q44 0 44 36q0 12 -11 22t-33 10q-48 0 -48 -44h-107q-1 59 39.5 97.5t119.5 38.5q73 0 114.5 -33t41.5 -83q0 -26 -11.5 -44.5
t-33.5 -28.5q53 -23 53 -87zM588 704h108l-452 -704h-108zM776 166v-86h-40v-76h-108v76h-188v64l148 228h148v-206h40zM560 166h68v110z" />
    <glyph glyph-name="questiondown" unicode="&#xbf;" horiz-adv-x="524" 
d="M356 496v-160h-160v160h160zM520 28q-5 -125 -73 -186.5t-183 -61.5q-80 0 -135 28.5t-82 76t-27 103.5q0 85 50 142t142 84v54h132v-148q-76 -18 -112 -47t-36 -73q0 -31 18.5 -53.5t57.5 -22.5q41 0 64.5 27t23.5 77h160z" />
    <glyph glyph-name="Agrave" unicode="&#xc0;" horiz-adv-x="736" 
d="M564 0l-44 104h-312l-44 -104h-176l312 704h140l308 -704h-184zM268 244h192l-96 227zM194 912h172l64 -136v-8h-120z" />
    <glyph glyph-name="Aacute" unicode="&#xc1;" horiz-adv-x="736" 
d="M564 0l-44 104h-312l-44 -104h-176l312 704h140l308 -704h-184zM268 244h192l-96 227zM306 776l64 136h172l-116 -144h-120v8z" />
    <glyph glyph-name="Acircumflex" unicode="&#xc2;" horiz-adv-x="736" 
d="M564 0l-44 104h-312l-44 -104h-176l312 704h140l308 -704h-184zM268 244h192l-96 227zM568 764h-138l-66 59l-66 -59h-134l130 148h148z" />
    <glyph glyph-name="Atilde" unicode="&#xc3;" horiz-adv-x="736" 
d="M564 0l-44 104h-312l-44 -104h-176l312 704h140l308 -704h-184zM268 244h192l-96 227zM415 763q-29 11 -67 29q-34 16 -40 16q-4 0 -6 -2.5t-2 -5.5v-44h-96v100q0 26 15.5 43t44.5 17q24 0 49.5 -9.5t63.5 -27.5q36 -19 47 -19q4 0 6 2.5t2 5.5v44h96v-100
q0 -26 -15.5 -43t-44.5 -17q-24 0 -53 11z" />
    <glyph glyph-name="Adieresis" unicode="&#xc4;" horiz-adv-x="736" 
d="M564 0l-44 104h-312l-44 -104h-176l312 704h140l308 -704h-184zM268 244h192l-96 227zM192 912h140v-132h-140v132zM404 912h140v-132h-140v132z" />
    <glyph glyph-name="Aring" unicode="&#xc5;" horiz-adv-x="736" 
d="M564 0l-44 104h-312l-44 -104h-176l312 704h140l308 -704h-184zM268 244h192l-96 227zM288.5 774.5q-32.5 30.5 -32.5 73.5q0 45 32 74.5t80 29.5t80 -29.5t32 -74.5q0 -44 -32 -74t-80 -30q-47 0 -79.5 30.5zM393.5 822.5q10.5 10.5 10.5 25.5t-10.5 25.5t-25.5 10.5
t-25.5 -10.5t-10.5 -25.5t10.5 -25.5t25.5 -10.5t25.5 10.5z" />
    <glyph glyph-name="AE" unicode="&#xc6;" horiz-adv-x="1012" 
d="M652 156h332v-156h-504v104h-245l-67 -104h-180l472 704h516v-156h-324v-124h288v-144h-288v-124zM326 244h154v238z" />
    <glyph glyph-name="Ccedilla" unicode="&#xc7;" horiz-adv-x="744" 
d="M671 140.5q-40 -62.5 -110 -103.5t-164 -48l-4 -26q42 -8 64.5 -28t22.5 -51q0 -40 -29.5 -66t-78.5 -26q-44 0 -71.5 22t-32.5 62h76q2 -8 10 -12t18 -4q14 0 21 7t7 17q0 13 -10.5 18.5t-33.5 5.5h-36l26 80q-97 4 -172 53t-116.5 130.5t-41.5 180.5q0 102 45 185.5
t125 131t182 47.5q100 0 175 -38.5t119.5 -103t56.5 -142.5h-180q-17 53 -60.5 88.5t-106.5 35.5q-84 0 -130 -57.5t-46 -146.5t46 -146.5t130 -57.5q70 0 111 33.5t60 94.5h178q-10 -73 -50 -135.5z" />
    <glyph glyph-name="Egrave" unicode="&#xc8;" horiz-adv-x="584" 
d="M224 156h332v-156h-504v704h496v-156h-324v-124h288v-144h-288v-124zM126 912h172l64 -136v-8h-120z" />
    <glyph glyph-name="Eacute" unicode="&#xc9;" horiz-adv-x="584" 
d="M224 156h332v-156h-504v704h496v-156h-324v-124h288v-144h-288v-124zM238 776l64 136h172l-116 -144h-120v8z" />
    <glyph glyph-name="Ecircumflex" unicode="&#xca;" horiz-adv-x="584" 
d="M224 156h332v-156h-504v704h496v-156h-324v-124h288v-144h-288v-124zM500 764h-138l-66 59l-66 -59h-134l130 148h148z" />
    <glyph glyph-name="Edieresis" unicode="&#xcb;" horiz-adv-x="584" 
d="M224 156h332v-156h-504v704h496v-156h-324v-124h288v-144h-288v-124zM124 912h140v-132h-140v132zM336 912h140v-132h-140v132z" />
    <glyph glyph-name="Igrave" unicode="&#xcc;" horiz-adv-x="276" 
d="M52 704h172v-704h-172v704zM-34 912h172l64 -136v-8h-120z" />
    <glyph glyph-name="Iacute" unicode="&#xcd;" horiz-adv-x="276" 
d="M52 704h172v-704h-172v704zM78 776l64 136h172l-116 -144h-120v8z" />
    <glyph glyph-name="Icircumflex" unicode="&#xce;" horiz-adv-x="276" 
d="M52 704h172v-704h-172v704zM340 764h-138l-66 59l-66 -59h-134l130 148h148z" />
    <glyph glyph-name="Idieresis" unicode="&#xcf;" horiz-adv-x="276" 
d="M52 704h172v-704h-172v704zM-36 912h140v-132h-140v132zM176 912h140v-132h-140v132z" />
    <glyph glyph-name="Eth" unicode="&#xd0;" horiz-adv-x="716" 
d="M512 657q86 -47 137 -128t51 -177q0 -97 -51 -177.5t-137 -127.5t-188 -47h-272v306h-52v82h52v316h272q102 0 188 -47zM421.5 181q46.5 25 72.5 69.5t26 101.5t-26 101.5t-72.5 69.5t-105.5 25h-92v-160h157v-82h-157v-150h92q59 0 105.5 25z" />
    <glyph glyph-name="Ntilde" unicode="&#xd1;" horiz-adv-x="716" 
d="M492 704h172v-704h-104l-336 376v-376h-172v704h100l340 -380v380zM395 763q-29 11 -67 29q-34 16 -40 16q-4 0 -6 -2.5t-2 -5.5v-44h-96v100q0 26 15.5 43t44.5 17q24 0 49.5 -9.5t63.5 -27.5q36 -19 47 -19q4 0 6 2.5t2 5.5v44h96v-100q0 -26 -15.5 -43t-44.5 -17
q-24 0 -53 11z" />
    <glyph glyph-name="Ograve" unicode="&#xd2;" horiz-adv-x="800" 
d="M209 36q-88 48 -140.5 131.5t-52.5 184.5q0 100 52.5 183.5t140.5 132t191 48.5t191 -48t140.5 -131.5t52.5 -184.5t-52.5 -184.5t-140.5 -131.5t-191 -48t-191 48zM501 175.5q47 27.5 75 74t28 102.5t-28 102.5t-75 74t-101 27.5t-101 -27.5t-75 -74.5t-28 -102
q0 -56 28 -102.5t75 -74t101 -27.5t101 27.5zM226 912h172l64 -136v-8h-120z" />
    <glyph glyph-name="Oacute" unicode="&#xd3;" horiz-adv-x="800" 
d="M209 36q-88 48 -140.5 131.5t-52.5 184.5q0 100 52.5 183.5t140.5 132t191 48.5t191 -48t140.5 -131.5t52.5 -184.5t-52.5 -184.5t-140.5 -131.5t-191 -48t-191 48zM501 175.5q47 27.5 75 74t28 102.5t-28 102.5t-75 74t-101 27.5t-101 -27.5t-75 -74.5t-28 -102
q0 -56 28 -102.5t75 -74t101 -27.5t101 27.5zM338 776l64 136h172l-116 -144h-120v8z" />
    <glyph glyph-name="Ocircumflex" unicode="&#xd4;" horiz-adv-x="800" 
d="M209 36q-88 48 -140.5 131.5t-52.5 184.5q0 100 52.5 183.5t140.5 132t191 48.5t191 -48t140.5 -131.5t52.5 -184.5t-52.5 -184.5t-140.5 -131.5t-191 -48t-191 48zM501 175.5q47 27.5 75 74t28 102.5t-28 102.5t-75 74t-101 27.5t-101 -27.5t-75 -74.5t-28 -102
q0 -56 28 -102.5t75 -74t101 -27.5t101 27.5zM600 764h-138l-66 59l-66 -59h-134l130 148h148z" />
    <glyph glyph-name="Otilde" unicode="&#xd5;" horiz-adv-x="800" 
d="M209 36q-88 48 -140.5 131.5t-52.5 184.5q0 100 52.5 183.5t140.5 132t191 48.5t191 -48t140.5 -131.5t52.5 -184.5t-52.5 -184.5t-140.5 -131.5t-191 -48t-191 48zM501 175.5q47 27.5 75 74t28 102.5t-28 102.5t-75 74t-101 27.5t-101 -27.5t-75 -74.5t-28 -102
q0 -56 28 -102.5t75 -74t101 -27.5t101 27.5zM447 763q-29 11 -67 29q-34 16 -40 16q-4 0 -6 -2.5t-2 -5.5v-44h-96v100q0 26 15.5 43t44.5 17q24 0 49.5 -9.5t63.5 -27.5q36 -19 47 -19q4 0 6 2.5t2 5.5v44h96v-100q0 -26 -15.5 -43t-44.5 -17q-24 0 -53 11z" />
    <glyph glyph-name="Odieresis" unicode="&#xd6;" horiz-adv-x="800" 
d="M209 36q-88 48 -140.5 131.5t-52.5 184.5q0 100 52.5 183.5t140.5 132t191 48.5t191 -48t140.5 -131.5t52.5 -184.5t-52.5 -184.5t-140.5 -131.5t-191 -48t-191 48zM501 175.5q47 27.5 75 74t28 102.5t-28 102.5t-75 74t-101 27.5t-101 -27.5t-75 -74.5t-28 -102
q0 -56 28 -102.5t75 -74t101 -27.5t101 27.5zM224 912h140v-132h-140v132zM436 912h140v-132h-140v132z" />
    <glyph glyph-name="multiply" unicode="&#xd7;" horiz-adv-x="592" 
d="M543 209l-100 -100l-145 145l-134 -134l-100 100l134 134l-145 145l100 100l145 -145l134 134l100 -100l-134 -134z" />
    <glyph glyph-name="Oslash" unicode="&#xd8;" horiz-adv-x="800" 
d="M749.5 503.5q34.5 -70.5 34.5 -151.5q0 -101 -52.5 -184.5t-140.5 -131.5t-191 -48q-108 0 -200 53l-32 -41h-96l66 85q-58 51 -90 119.5t-32 147.5q0 100 52.5 183.5t140.5 132t191 48.5q101 0 189 -47l27 35h100l-62 -79q61 -51 95.5 -121.5zM243 222l244 314
q-42 20 -87 20q-54 0 -101 -27.5t-75 -74.5t-28 -102q0 -73 47 -130zM501 175.5q47 27.5 75 74t28 102.5q0 39 -14.5 74.5t-39.5 63.5l-247 -317q45 -25 97 -25q54 0 101 27.5z" />
    <glyph glyph-name="Ugrave" unicode="&#xd9;" horiz-adv-x="708" 
d="M191.5 23.5q-71.5 35.5 -111.5 100.5t-40 152v428h172v-432q0 -60 39.5 -94t104.5 -34q62 0 101 34t39 94v432h172v-428q0 -87 -40 -152t-110.5 -100.5t-161.5 -35.5q-93 0 -164.5 35.5zM182 912h172l64 -136v-8h-120z" />
    <glyph glyph-name="Uacute" unicode="&#xda;" horiz-adv-x="708" 
d="M191.5 23.5q-71.5 35.5 -111.5 100.5t-40 152v428h172v-432q0 -60 39.5 -94t104.5 -34q62 0 101 34t39 94v432h172v-428q0 -87 -40 -152t-110.5 -100.5t-161.5 -35.5q-93 0 -164.5 35.5zM294 776l64 136h172l-116 -144h-120v8z" />
    <glyph glyph-name="Ucircumflex" unicode="&#xdb;" horiz-adv-x="708" 
d="M191.5 23.5q-71.5 35.5 -111.5 100.5t-40 152v428h172v-432q0 -60 39.5 -94t104.5 -34q62 0 101 34t39 94v432h172v-428q0 -87 -40 -152t-110.5 -100.5t-161.5 -35.5q-93 0 -164.5 35.5zM556 764h-138l-66 59l-66 -59h-134l130 148h148z" />
    <glyph glyph-name="Udieresis" unicode="&#xdc;" horiz-adv-x="708" 
d="M191.5 23.5q-71.5 35.5 -111.5 100.5t-40 152v428h172v-432q0 -60 39.5 -94t104.5 -34q62 0 101 34t39 94v432h172v-428q0 -87 -40 -152t-110.5 -100.5t-161.5 -35.5q-93 0 -164.5 35.5zM180 912h140v-132h-140v132zM392 912h140v-132h-140v132z" />
    <glyph glyph-name="Yacute" unicode="&#xdd;" horiz-adv-x="668" 
d="M492 704h196l-268 -440v-264h-172v264l-268 440h196l162 -263zM272 776l64 136h172l-116 -144h-120v8z" />
    <glyph glyph-name="Thorn" unicode="&#xde;" horiz-adv-x="616" 
d="M475 559q55 -29 86 -81t31 -118q0 -64 -30 -115t-85.5 -80t-128.5 -29h-124v-136h-172v704h172v-116h124q72 0 127 -29zM387 300.5q25 20.5 25 59.5q0 38 -25.5 57t-66.5 19h-96v-156h96q42 0 67 20.5z" />
    <glyph glyph-name="germandbls" unicode="&#xdf;" horiz-adv-x="616" 
d="M573 324q27 -47 27 -104q0 -67 -30 -119t-83 -80.5t-119 -28.5q-41 0 -80 10v152q32 -10 56 -10q34 0 57 20t23 60q0 39 -29 59.5t-75 20.5h-32v120h32q33 0 54.5 19t21.5 49q0 29 -20 48.5t-60 19.5t-60 -20t-20 -52v-488h-172v356h-64v140h64v4q0 58 28 107t85 79
t139 30q77 0 132.5 -25.5t83.5 -69.5t28 -101q0 -36 -17 -67.5t-46 -54.5q49 -27 76 -74z" />
    <glyph glyph-name="agrave" unicode="&#xe0;" horiz-adv-x="540" 
d="M446.5 457q57.5 -51 57.5 -133v-324h-120l-26 44q-30 -28 -68.5 -42t-81.5 -14q-90 0 -139 39.5t-49 104.5q0 72 58 111.5t166 56.5l88 14v2q0 56 -68 56q-30 0 -45 -11.5t-19 -36.5h-161q1 51 29 93t79.5 66.5t120.5 24.5q121 0 178.5 -51zM204.5 122q16.5 -10 39.5 -10
q49 0 88 36v64l-52 -8q-51 -8 -71.5 -20.5t-20.5 -31.5q0 -20 16.5 -30zM102 704h172l64 -136v-8h-120z" />
    <glyph glyph-name="aacute" unicode="&#xe1;" horiz-adv-x="540" 
d="M446.5 457q57.5 -51 57.5 -133v-324h-120l-26 44q-30 -28 -68.5 -42t-81.5 -14q-90 0 -139 39.5t-49 104.5q0 72 58 111.5t166 56.5l88 14v2q0 56 -68 56q-30 0 -45 -11.5t-19 -36.5h-161q1 51 29 93t79.5 66.5t120.5 24.5q121 0 178.5 -51zM204.5 122q16.5 -10 39.5 -10
q49 0 88 36v64l-52 -8q-51 -8 -71.5 -20.5t-20.5 -31.5q0 -20 16.5 -30zM214 568l64 136h172l-116 -144h-120v8z" />
    <glyph glyph-name="acircumflex" unicode="&#xe2;" horiz-adv-x="540" 
d="M446.5 457q57.5 -51 57.5 -133v-324h-120l-26 44q-30 -28 -68.5 -42t-81.5 -14q-90 0 -139 39.5t-49 104.5q0 72 58 111.5t166 56.5l88 14v2q0 56 -68 56q-30 0 -45 -11.5t-19 -36.5h-161q1 51 29 93t79.5 66.5t120.5 24.5q121 0 178.5 -51zM204.5 122q16.5 -10 39.5 -10
q49 0 88 36v64l-52 -8q-51 -8 -71.5 -20.5t-20.5 -31.5q0 -20 16.5 -30zM476 556h-138l-66 59l-66 -59h-134l130 148h148z" />
    <glyph glyph-name="atilde" unicode="&#xe3;" horiz-adv-x="540" 
d="M446.5 457q57.5 -51 57.5 -133v-324h-120l-26 44q-30 -28 -68.5 -42t-81.5 -14q-90 0 -139 39.5t-49 104.5q0 72 58 111.5t166 56.5l88 14v2q0 56 -68 56q-30 0 -45 -11.5t-19 -36.5h-161q1 51 29 93t79.5 66.5t120.5 24.5q121 0 178.5 -51zM204.5 122q16.5 -10 39.5 -10
q49 0 88 36v64l-52 -8q-51 -8 -71.5 -20.5t-20.5 -31.5q0 -20 16.5 -30zM323 555q-29 11 -67 29q-34 16 -40 16q-4 0 -6 -2.5t-2 -5.5v-44h-96v100q0 26 15.5 43t44.5 17q24 0 49.5 -9.5t63.5 -27.5q36 -19 47 -19q4 0 6 2.5t2 5.5v44h96v-100q0 -26 -15.5 -43t-44.5 -17
q-24 0 -53 11z" />
    <glyph glyph-name="adieresis" unicode="&#xe4;" horiz-adv-x="540" 
d="M446.5 457q57.5 -51 57.5 -133v-324h-120l-26 44q-30 -28 -68.5 -42t-81.5 -14q-90 0 -139 39.5t-49 104.5q0 72 58 111.5t166 56.5l88 14v2q0 56 -68 56q-30 0 -45 -11.5t-19 -36.5h-161q1 51 29 93t79.5 66.5t120.5 24.5q121 0 178.5 -51zM204.5 122q16.5 -10 39.5 -10
q49 0 88 36v64l-52 -8q-51 -8 -71.5 -20.5t-20.5 -31.5q0 -20 16.5 -30zM100 704h140v-132h-140v132zM312 704h140v-132h-140v132z" />
    <glyph glyph-name="aring" unicode="&#xe5;" horiz-adv-x="540" 
d="M446.5 457q57.5 -51 57.5 -133v-324h-120l-26 44q-30 -28 -68.5 -42t-81.5 -14q-90 0 -139 39.5t-49 104.5q0 72 58 111.5t166 56.5l88 14v2q0 56 -68 56q-30 0 -45 -11.5t-19 -36.5h-161q1 51 29 93t79.5 66.5t120.5 24.5q121 0 178.5 -51zM204.5 122q16.5 -10 39.5 -10
q49 0 88 36v64l-52 -8q-51 -8 -71.5 -20.5t-20.5 -31.5q0 -20 16.5 -30zM196.5 566.5q-32.5 30.5 -32.5 73.5q0 45 32 74.5t80 29.5t80 -29.5t32 -74.5q0 -44 -32 -74t-80 -30q-47 0 -79.5 30.5zM301.5 614.5q10.5 10.5 10.5 25.5t-10.5 25.5t-25.5 10.5t-25.5 -10.5
t-10.5 -25.5t10.5 -25.5t25.5 -10.5t25.5 10.5z" />
    <glyph glyph-name="ae" unicode="&#xe6;" horiz-adv-x="880" 
d="M533.5 142q26.5 -22 66.5 -22q54 0 84 36h168q-21 -75 -89 -121.5t-163 -46.5q-57 0 -108 19.5t-88 56.5q-32 -35 -79 -55.5t-105 -20.5q-93 0 -146.5 40t-53.5 104q0 72 58 111.5t166 56.5l88 14v2q0 56 -68 56q-30 0 -45 -12t-18 -40h-162q-1 51 23.5 93.5t76 68.5
t129.5 26q107 0 165 -50q69 50 159 50q71 0 132.5 -30.5t98.5 -88.5t37 -137v-48h-361q8 -40 34.5 -62zM534.5 355.5q-25.5 -20.5 -34.5 -51.5h193q-8 34 -33 53t-64 19q-36 0 -61.5 -20.5zM204 122q16 -10 44 -10q59 0 100 40q-9 24 -14 60l-54 -8q-51 -8 -71.5 -20.5
t-20.5 -31.5q0 -20 16 -30z" />
    <glyph glyph-name="ccedilla" unicode="&#xe7;" horiz-adv-x="552" 
d="M463.5 52q-61.5 -56 -158.5 -63l-4 -26q42 -8 64.5 -28t22.5 -51q0 -40 -29.5 -66t-78.5 -26q-44 0 -71.5 22t-32.5 62h76q2 -8 10 -12t18 -4q14 0 21 7t7 17q0 13 -10.5 18.5t-33.5 5.5h-36l26 81q-70 6 -124.5 41t-84 92t-29.5 126q0 74 33.5 133t93.5 93t137 34
q108 0 175.5 -55t86.5 -161h-169q-27 60 -89 60q-45 0 -70.5 -28t-25.5 -76q0 -49 25.5 -76.5t70.5 -27.5q59 0 89 60h171q-19 -96 -80.5 -152z" />
    <glyph glyph-name="egrave" unicode="&#xe8;" horiz-adv-x="564" 
d="M217.5 142q26.5 -22 66.5 -22q54 0 84 36h168q-21 -75 -89 -121.5t-163 -46.5q-73 0 -134 31.5t-97.5 90.5t-36.5 138q0 72 33.5 131.5t94 94t136.5 34.5q73 0 133 -30.5t95.5 -88.5t35.5 -137v-48h-361q8 -40 34.5 -62zM218.5 355.5q-25.5 -20.5 -34.5 -51.5h191
q-9 31 -33.5 51.5t-61.5 20.5q-36 0 -61.5 -20.5zM110 704h172l64 -136v-8h-120z" />
    <glyph glyph-name="eacute" unicode="&#xe9;" horiz-adv-x="564" 
d="M217.5 142q26.5 -22 66.5 -22q54 0 84 36h168q-21 -75 -89 -121.5t-163 -46.5q-73 0 -134 31.5t-97.5 90.5t-36.5 138q0 72 33.5 131.5t94 94t136.5 34.5q73 0 133 -30.5t95.5 -88.5t35.5 -137v-48h-361q8 -40 34.5 -62zM218.5 355.5q-25.5 -20.5 -34.5 -51.5h191
q-9 31 -33.5 51.5t-61.5 20.5q-36 0 -61.5 -20.5zM222 568l64 136h172l-116 -144h-120v8z" />
    <glyph glyph-name="ecircumflex" unicode="&#xea;" horiz-adv-x="564" 
d="M217.5 142q26.5 -22 66.5 -22q54 0 84 36h168q-21 -75 -89 -121.5t-163 -46.5q-73 0 -134 31.5t-97.5 90.5t-36.5 138q0 72 33.5 131.5t94 94t136.5 34.5q73 0 133 -30.5t95.5 -88.5t35.5 -137v-48h-361q8 -40 34.5 -62zM218.5 355.5q-25.5 -20.5 -34.5 -51.5h191
q-9 31 -33.5 51.5t-61.5 20.5q-36 0 -61.5 -20.5zM484 556h-138l-66 59l-66 -59h-134l130 148h148z" />
    <glyph glyph-name="edieresis" unicode="&#xeb;" horiz-adv-x="564" 
d="M217.5 142q26.5 -22 66.5 -22q54 0 84 36h168q-21 -75 -89 -121.5t-163 -46.5q-73 0 -134 31.5t-97.5 90.5t-36.5 138q0 72 33.5 131.5t94 94t136.5 34.5q73 0 133 -30.5t95.5 -88.5t35.5 -137v-48h-361q8 -40 34.5 -62zM218.5 355.5q-25.5 -20.5 -34.5 -51.5h191
q-9 31 -33.5 51.5t-61.5 20.5q-36 0 -61.5 -20.5zM108 704h140v-132h-140v132zM320 704h140v-132h-140v132z" />
    <glyph glyph-name="igrave" unicode="&#xec;" horiz-adv-x="252" 
d="M40 496h172v-496h-172v496zM-46 704h172l64 -136v-8h-120z" />
    <glyph glyph-name="iacute" unicode="&#xed;" horiz-adv-x="252" 
d="M40 496h172v-496h-172v496zM66 568l64 136h172l-116 -144h-120v8z" />
    <glyph glyph-name="icircumflex" unicode="&#xee;" horiz-adv-x="252" 
d="M40 496h172v-496h-172v496zM328 556h-138l-66 59l-66 -59h-134l130 148h148z" />
    <glyph glyph-name="idieresis" unicode="&#xef;" horiz-adv-x="252" 
d="M40 496h172v-496h-172v496zM-48 704h140v-132h-140v132zM164 704h140v-132h-140v132z" />
    <glyph glyph-name="eth" unicode="&#xf0;" horiz-adv-x="592" 
d="M576 268q0 -135 -77.5 -207.5t-206.5 -72.5q-79 0 -142 31t-98.5 86.5t-35.5 126.5q0 69 31.5 125t88 87.5t128.5 31.5q41 0 73 -17q-27 42 -61 81h-164v80h89q-42 41 -93 84h224q46 -45 80 -84h148v-80h-86q102 -146 102 -272zM372 168.5q28 32.5 28 87.5q0 20 -1 30
q-40 42 -103 42q-45 0 -74.5 -26t-29.5 -70q0 -41 29 -68.5t75 -27.5q48 0 76 32.5z" />
    <glyph glyph-name="ntilde" unicode="&#xf1;" horiz-adv-x="572" 
d="M335 555q-29 11 -67 29q-34 16 -40 16q-4 0 -6 -2.5t-2 -5.5v-44h-96v100q0 26 15.5 43t44.5 17q24 0 49.5 -9.5t63.5 -27.5q36 -19 47 -19q4 0 6 2.5t2 5.5v44h96v-100q0 -26 -15.5 -43t-44.5 -17q-24 0 -53 11zM440.5 481.5q46.5 -26.5 71 -73t24.5 -104.5v-304h-172
v276q0 36 -20 58t-56 22q-25 0 -45 -12t-31 -28v-316h-172v496h120l34 -58q52 70 138 70q62 0 108.5 -26.5z" />
    <glyph glyph-name="ograve" unicode="&#xf2;" 
d="M153 22q-65 34 -101 93t-36 133t36 133t101 93t147 34t147 -34t101 -93t36 -133t-36 -133t-101 -93t-147 -34t-147 34zM378 164.5q30 32.5 30 83.5t-30 83.5t-78 32.5t-78 -32.5t-30 -83.5t30 -83.5t78 -32.5t78 32.5zM126 704h172l64 -136v-8h-120z" />
    <glyph glyph-name="oacute" unicode="&#xf3;" 
d="M153 22q-65 34 -101 93t-36 133t36 133t101 93t147 34t147 -34t101 -93t36 -133t-36 -133t-101 -93t-147 -34t-147 34zM378 164.5q30 32.5 30 83.5t-30 83.5t-78 32.5t-78 -32.5t-30 -83.5t30 -83.5t78 -32.5t78 32.5zM238 568l64 136h172l-116 -144h-120v8z" />
    <glyph glyph-name="ocircumflex" unicode="&#xf4;" 
d="M153 22q-65 34 -101 93t-36 133t36 133t101 93t147 34t147 -34t101 -93t36 -133t-36 -133t-101 -93t-147 -34t-147 34zM378 164.5q30 32.5 30 83.5t-30 83.5t-78 32.5t-78 -32.5t-30 -83.5t30 -83.5t78 -32.5t78 32.5zM500 556h-138l-66 59l-66 -59h-134l130 148h148z
" />
    <glyph glyph-name="otilde" unicode="&#xf5;" 
d="M153 22q-65 34 -101 93t-36 133t36 133t101 93t147 34t147 -34t101 -93t36 -133t-36 -133t-101 -93t-147 -34t-147 34zM378 164.5q30 32.5 30 83.5t-30 83.5t-78 32.5t-78 -32.5t-30 -83.5t30 -83.5t78 -32.5t78 32.5zM347 555q-29 11 -67 29q-34 16 -40 16q-4 0 -6 -2.5
t-2 -5.5v-44h-96v100q0 26 15.5 43t44.5 17q24 0 49.5 -9.5t63.5 -27.5q36 -19 47 -19q4 0 6 2.5t2 5.5v44h96v-100q0 -26 -15.5 -43t-44.5 -17q-24 0 -53 11z" />
    <glyph glyph-name="odieresis" unicode="&#xf6;" 
d="M153 22q-65 34 -101 93t-36 133t36 133t101 93t147 34t147 -34t101 -93t36 -133t-36 -133t-101 -93t-147 -34t-147 34zM378 164.5q30 32.5 30 83.5t-30 83.5t-78 32.5t-78 -32.5t-30 -83.5t30 -83.5t78 -32.5t78 32.5zM124 704h140v-132h-140v132zM336 704h140v-132h-140
v132z" />
    <glyph glyph-name="divide" unicode="&#xf7;" horiz-adv-x="592" 
d="M223 612h144v-144h-144v144zM56 420h480v-136h-480v136zM223 236h144v-144h-144v144z" />
    <glyph glyph-name="oslash" unicode="&#xf8;" 
d="M564.5 348q19.5 -47 19.5 -100q0 -74 -36 -133t-101 -93t-147 -34q-84 0 -151 36l-21 -24h-96l59 67q-36 35 -55.5 81t-19.5 100q0 74 36 133t101 93t147 34q83 0 148 -34l20 22h100l-59 -66q36 -35 55.5 -82zM203 194l141 161q-20 9 -44 9q-48 0 -78 -32.5t-30 -83.5
q0 -29 11 -54zM378 164.5q30 32.5 30 83.5q0 30 -11 55l-143 -161q19 -10 46 -10q48 0 78 32.5z" />
    <glyph glyph-name="ugrave" unicode="&#xf9;" horiz-adv-x="572" 
d="M532 496v-496h-120l-34 58q-52 -70 -138 -70q-63 0 -109 26.5t-70.5 73t-24.5 104.5v304h172v-276q0 -36 20 -58t56 -22q25 0 45.5 12t30.5 28v316h172zM114 704h172l64 -136v-8h-120z" />
    <glyph glyph-name="uacute" unicode="&#xfa;" horiz-adv-x="572" 
d="M532 496v-496h-120l-34 58q-52 -70 -138 -70q-63 0 -109 26.5t-70.5 73t-24.5 104.5v304h172v-276q0 -36 20 -58t56 -22q25 0 45.5 12t30.5 28v316h172zM226 568l64 136h172l-116 -144h-120v8z" />
    <glyph glyph-name="ucircumflex" unicode="&#xfb;" horiz-adv-x="572" 
d="M532 496v-496h-120l-34 58q-52 -70 -138 -70q-63 0 -109 26.5t-70.5 73t-24.5 104.5v304h172v-276q0 -36 20 -58t56 -22q25 0 45.5 12t30.5 28v316h172zM488 556h-138l-66 59l-66 -59h-134l130 148h148z" />
    <glyph glyph-name="udieresis" unicode="&#xfc;" horiz-adv-x="572" 
d="M532 496v-496h-120l-34 58q-52 -70 -138 -70q-63 0 -109 26.5t-70.5 73t-24.5 104.5v304h172v-276q0 -36 20 -58t56 -22q25 0 45.5 12t30.5 28v316h172zM112 704h140v-132h-140v132zM324 704h140v-132h-140v132z" />
    <glyph glyph-name="yacute" unicode="&#xfd;" horiz-adv-x="564" 
d="M400 496h172l-304 -704h-168l109 243l-217 461h188l115 -255zM210 568l64 136h172l-116 -144h-120v8z" />
    <glyph glyph-name="thorn" unicode="&#xfe;" horiz-adv-x="596" 
d="M453.5 474q58.5 -34 92.5 -93.5t34 -132.5t-35 -132.5t-94.5 -93.5t-130.5 -34q-55 0 -108 29v-225h-172v912h172v-233q43 37 112 37q71 0 129.5 -34zM372.5 168.5q31.5 32.5 31.5 79.5t-31 79.5t-81 32.5q-23 0 -44 -9.5t-36 -25.5v-154q14 -17 35 -26t45 -9
q49 0 80.5 32.5z" />
    <glyph glyph-name="ydieresis" unicode="&#xff;" horiz-adv-x="564" 
d="M400 496h172l-304 -704h-168l109 243l-217 461h188l115 -255zM96 704h140v-132h-140v132zM308 704h140v-132h-140v132z" />
    <glyph glyph-name="Amacron" unicode="&#x100;" horiz-adv-x="736" 
d="M564 0l-44 104h-312l-44 -104h-176l312 704h140l308 -704h-184zM268 244h192l-96 227zM188 880h360v-104h-360v104z" />
    <glyph glyph-name="amacron" unicode="&#x101;" horiz-adv-x="540" 
d="M446.5 457q57.5 -51 57.5 -133v-324h-120l-26 44q-30 -28 -68.5 -42t-81.5 -14q-90 0 -139 39.5t-49 104.5q0 72 58 111.5t166 56.5l88 14v2q0 56 -68 56q-30 0 -45 -11.5t-19 -36.5h-161q1 51 29 93t79.5 66.5t120.5 24.5q121 0 178.5 -51zM204.5 122q16.5 -10 39.5 -10
q49 0 88 36v64l-52 -8q-51 -8 -71.5 -20.5t-20.5 -31.5q0 -20 16.5 -30zM96 688h360v-104h-360v104z" />
    <glyph glyph-name="Abreve" unicode="&#x102;" horiz-adv-x="736" 
d="M564 0l-44 104h-312l-44 -104h-176l312 704h140l308 -704h-184zM268 244h192l-96 227zM246 794q-50 42 -54 118h108q2 -27 21 -43.5t47 -16.5q27 0 47 16.5t21 43.5h108q-3 -75 -53.5 -117.5t-122.5 -42.5t-122 42z" />
    <glyph glyph-name="abreve" unicode="&#x103;" horiz-adv-x="540" 
d="M446.5 457q57.5 -51 57.5 -133v-324h-120l-26 44q-30 -28 -68.5 -42t-81.5 -14q-90 0 -139 39.5t-49 104.5q0 72 58 111.5t166 56.5l88 14v2q0 56 -68 56q-30 0 -45 -11.5t-19 -36.5h-161q1 51 29 93t79.5 66.5t120.5 24.5q121 0 178.5 -51zM204.5 122q16.5 -10 39.5 -10
q49 0 88 36v64l-52 -8q-51 -8 -71.5 -20.5t-20.5 -31.5q0 -20 16.5 -30zM154 586q-50 42 -54 118h108q2 -27 21 -43.5t47 -16.5q27 0 47 16.5t21 43.5h108q-3 -75 -53.5 -117.5t-122.5 -42.5t-122 42z" />
    <glyph glyph-name="Aogonek" unicode="&#x104;" horiz-adv-x="736" 
d="M637 -117q21 0 43 6v-97q-38 -8 -70 -8q-65 0 -101.5 27t-36.5 79q0 38 22.5 70t65.5 50l-40 94h-312l-44 -104h-176l312 704h140l308 -704h-92q-39 -19 -52 -40.5t-13 -38.5q0 -38 46 -38zM268 244h192l-96 227z" />
    <glyph glyph-name="aogonek" unicode="&#x105;" horiz-adv-x="540" 
d="M427 -40.5q-13 -21.5 -13 -38.5q0 -38 46 -38q21 0 43 6v-97q-38 -8 -70 -8q-65 0 -101.5 27t-36.5 79q0 37 22 68.5t62 49.5l-21 36q-30 -28 -68.5 -42t-81.5 -14q-90 0 -139 39.5t-49 104.5q0 72 58 111.5t166 56.5l88 14v2q0 56 -68 56q-30 0 -45 -11.5t-19 -36.5
h-161q1 51 29 93t79.5 66.5t120.5 24.5q121 0 178.5 -51t57.5 -133v-324h-25q-39 -19 -52 -40.5zM204.5 122q16.5 -10 39.5 -10q49 0 88 36v64l-52 -8q-51 -8 -71.5 -20.5t-20.5 -31.5q0 -20 16.5 -30z" />
    <glyph glyph-name="Cacute" unicode="&#x106;" horiz-adv-x="744" 
d="M183 35.5q-79 47.5 -123 130.5t-44 186q0 102 45 185.5t125 131t182 47.5q100 0 175 -38.5t119.5 -103t56.5 -142.5h-180q-17 53 -60.5 88.5t-106.5 35.5q-84 0 -130 -57.5t-46 -146.5t46 -146.5t130 -57.5q70 0 111 33.5t60 94.5h178q-11 -77 -55 -142.5t-121 -105.5
t-181 -40q-102 0 -181 47.5zM302 776l64 136h172l-116 -144h-120v8z" />
    <glyph glyph-name="cacute" unicode="&#x107;" horiz-adv-x="552" 
d="M143 22q-60 34 -93.5 93t-33.5 133t33.5 133t93.5 93t137 34q108 0 175.5 -55t86.5 -161h-169q-27 60 -89 60q-45 0 -70.5 -28t-25.5 -76q0 -49 25.5 -76.5t70.5 -27.5q59 0 89 60h171q-21 -103 -89 -159.5t-175 -56.5q-77 0 -137 34zM218 568l64 136h172l-116 -144h-120
v8z" />
    <glyph glyph-name="Ccircumflex" unicode="&#x108;" horiz-adv-x="744" 
d="M183 35.5q-79 47.5 -123 130.5t-44 186q0 102 45 185.5t125 131t182 47.5q100 0 175 -38.5t119.5 -103t56.5 -142.5h-180q-17 53 -60.5 88.5t-106.5 35.5q-84 0 -130 -57.5t-46 -146.5t46 -146.5t130 -57.5q70 0 111 33.5t60 94.5h178q-11 -77 -55 -142.5t-121 -105.5
t-181 -40q-102 0 -181 47.5zM564 764h-138l-66 59l-66 -59h-134l130 148h148z" />
    <glyph glyph-name="ccircumflex" unicode="&#x109;" horiz-adv-x="552" 
d="M143 22q-60 34 -93.5 93t-33.5 133t33.5 133t93.5 93t137 34q108 0 175.5 -55t86.5 -161h-169q-27 60 -89 60q-45 0 -70.5 -28t-25.5 -76q0 -49 25.5 -76.5t70.5 -27.5q59 0 89 60h171q-21 -103 -89 -159.5t-175 -56.5q-77 0 -137 34zM480 556h-138l-66 59l-66 -59h-134
l130 148h148z" />
    <glyph glyph-name="Cdotaccent" unicode="&#x10a;" horiz-adv-x="744" 
d="M183 35.5q-79 47.5 -123 130.5t-44 186q0 102 45 185.5t125 131t182 47.5q100 0 175 -38.5t119.5 -103t56.5 -142.5h-180q-17 53 -60.5 88.5t-106.5 35.5q-84 0 -130 -57.5t-46 -146.5t46 -146.5t130 -57.5q70 0 111 33.5t60 94.5h178q-11 -77 -55 -142.5t-121 -105.5
t-181 -40q-102 0 -181 47.5zM280 912h164v-140h-164v140z" />
    <glyph glyph-name="cdotaccent" unicode="&#x10b;" horiz-adv-x="552" 
d="M143 22q-60 34 -93.5 93t-33.5 133t33.5 133t93.5 93t137 34q108 0 175.5 -55t86.5 -161h-169q-27 60 -89 60q-45 0 -70.5 -28t-25.5 -76q0 -49 25.5 -76.5t70.5 -27.5q59 0 89 60h171q-21 -103 -89 -159.5t-175 -56.5q-77 0 -137 34zM196 704h164v-140h-164v140z" />
    <glyph glyph-name="Ccaron" unicode="&#x10c;" horiz-adv-x="744" 
d="M183 35.5q-79 47.5 -123 130.5t-44 186q0 102 45 185.5t125 131t182 47.5q100 0 175 -38.5t119.5 -103t56.5 -142.5h-180q-17 53 -60.5 88.5t-106.5 35.5q-84 0 -130 -57.5t-46 -146.5t46 -146.5t130 -57.5q70 0 111 33.5t60 94.5h178q-11 -77 -55 -142.5t-121 -105.5
t-181 -40q-102 0 -181 47.5zM430 912h134l-130 -148h-148l-126 148h138l68 -59z" />
    <glyph glyph-name="ccaron" unicode="&#x10d;" horiz-adv-x="552" 
d="M143 22q-60 34 -93.5 93t-33.5 133t33.5 133t93.5 93t137 34q108 0 175.5 -55t86.5 -161h-169q-27 60 -89 60q-45 0 -70.5 -28t-25.5 -76q0 -49 25.5 -76.5t70.5 -27.5q59 0 89 60h171q-21 -103 -89 -159.5t-175 -56.5q-77 0 -137 34zM346 704h134l-130 -148h-148
l-126 148h138l68 -59z" />
    <glyph glyph-name="Dcaron" unicode="&#x10e;" horiz-adv-x="716" 
d="M512 657q86 -47 137 -128t51 -177q0 -97 -51 -177.5t-137 -127.5t-188 -47h-272v704h272q102 0 188 -47zM421.5 181q46.5 25 72.5 69.5t26 101.5t-26 101.5t-72.5 69.5t-105.5 25h-92v-392h92q59 0 105.5 25zM374 912h134l-130 -148h-148l-126 148h138l68 -59z" />
    <glyph glyph-name="dcaron" unicode="&#x10f;" horiz-adv-x="596" 
d="M556 704v-704h-120l-30 50q-45 -62 -134 -62q-71 0 -129.5 34t-92.5 93.5t-34 132.5t35 132.5t94.5 93.5t130.5 34q55 0 108 -29v225h172zM348 145.5q21 9.5 36 25.5v154q-14 17 -35 26t-45 9q-49 0 -80.5 -32.5t-31.5 -79.5t31 -79.5t81 -32.5q23 0 44 9.5zM598 704h120
q-5 -53 -15.5 -90.5t-26.5 -77.5h-90q11 93 12 168z" />
    <glyph glyph-name="Dcroat" unicode="&#x110;" horiz-adv-x="716" 
d="M512 657q86 -47 137 -128t51 -177q0 -97 -51 -177.5t-137 -127.5t-188 -47h-272v306h-52v82h52v316h272q102 0 188 -47zM421.5 181q46.5 25 72.5 69.5t26 101.5t-26 101.5t-72.5 69.5t-105.5 25h-92v-160h157v-82h-157v-150h92q59 0 105.5 25z" />
    <glyph glyph-name="dcroat" unicode="&#x111;" horiz-adv-x="596" 
d="M612 560h-56v-560h-120l-30 50q-45 -62 -134 -62q-71 0 -129.5 34t-92.5 93.5t-34 132.5t35 132.5t94.5 93.5t130.5 34q55 0 108 -29v81h-124v80h124v64h172v-64h56v-80zM348 145.5q21 9.5 36 25.5v154q-14 17 -35 26t-45 9q-49 0 -80.5 -32.5t-31.5 -79.5t31 -79.5
t81 -32.5q23 0 44 9.5z" />
    <glyph glyph-name="Emacron" unicode="&#x112;" horiz-adv-x="584" 
d="M224 156h332v-156h-504v704h496v-156h-324v-124h288v-144h-288v-124zM120 880h360v-104h-360v104z" />
    <glyph glyph-name="emacron" unicode="&#x113;" horiz-adv-x="564" 
d="M217.5 142q26.5 -22 66.5 -22q54 0 84 36h168q-21 -75 -89 -121.5t-163 -46.5q-73 0 -134 31.5t-97.5 90.5t-36.5 138q0 72 33.5 131.5t94 94t136.5 34.5q73 0 133 -30.5t95.5 -88.5t35.5 -137v-48h-361q8 -40 34.5 -62zM218.5 355.5q-25.5 -20.5 -34.5 -51.5h191
q-9 31 -33.5 51.5t-61.5 20.5q-36 0 -61.5 -20.5zM104 688h360v-104h-360v104z" />
    <glyph glyph-name="Ebreve" unicode="&#x114;" horiz-adv-x="584" 
d="M224 156h332v-156h-504v704h496v-156h-324v-124h288v-144h-288v-124zM178 794q-50 42 -54 118h108q2 -27 21 -43.5t47 -16.5q27 0 47 16.5t21 43.5h108q-3 -75 -53.5 -117.5t-122.5 -42.5t-122 42z" />
    <glyph glyph-name="ebreve" unicode="&#x115;" horiz-adv-x="564" 
d="M217.5 142q26.5 -22 66.5 -22q54 0 84 36h168q-21 -75 -89 -121.5t-163 -46.5q-73 0 -134 31.5t-97.5 90.5t-36.5 138q0 72 33.5 131.5t94 94t136.5 34.5q73 0 133 -30.5t95.5 -88.5t35.5 -137v-48h-361q8 -40 34.5 -62zM218.5 355.5q-25.5 -20.5 -34.5 -51.5h191
q-9 31 -33.5 51.5t-61.5 20.5q-36 0 -61.5 -20.5zM162 586q-50 42 -54 118h108q2 -27 21 -43.5t47 -16.5q27 0 47 16.5t21 43.5h108q-3 -75 -53.5 -117.5t-122.5 -42.5t-122 42z" />
    <glyph glyph-name="Edotaccent" unicode="&#x116;" horiz-adv-x="584" 
d="M224 156h332v-156h-504v704h496v-156h-324v-124h288v-144h-288v-124zM216 912h164v-140h-164v140z" />
    <glyph glyph-name="edotaccent" unicode="&#x117;" horiz-adv-x="564" 
d="M217.5 142q26.5 -22 66.5 -22q54 0 84 36h168q-21 -75 -89 -121.5t-163 -46.5q-73 0 -134 31.5t-97.5 90.5t-36.5 138q0 72 33.5 131.5t94 94t136.5 34.5q73 0 133 -30.5t95.5 -88.5t35.5 -137v-48h-361q8 -40 34.5 -62zM218.5 355.5q-25.5 -20.5 -34.5 -51.5h191
q-9 31 -33.5 51.5t-61.5 20.5q-36 0 -61.5 -20.5zM200 704h164v-140h-164v140z" />
    <glyph glyph-name="Eogonek" unicode="&#x118;" horiz-adv-x="584" 
d="M480 -40.5q-13 -21.5 -13 -38.5q0 -38 46 -38q21 0 43 6v-97q-38 -8 -70 -8q-65 0 -101.5 27t-36.5 79q0 33 17.5 62t50.5 48h-364v704h496v-156h-324v-124h288v-144h-288v-124h332v-156h-24q-39 -19 -52 -40.5z" />
    <glyph glyph-name="eogonek" unicode="&#x119;" horiz-adv-x="564" 
d="M217.5 142q26.5 -22 66.5 -22q54 0 84 36h168q-19 -73 -87 -120q-47 -40 -60 -66t-13 -46t10 -30t38 -10q23 0 48 4v-96q-48 -8 -88 -8q-59 0 -95.5 27t-36.5 77t56 101q-8 -1 -24 -1q-73 0 -134 31.5t-97.5 90.5t-36.5 138q0 72 33.5 131.5t94 94t136.5 34.5
q73 0 133 -30.5t95.5 -88.5t35.5 -137v-48h-361q8 -40 34.5 -62zM218.5 355.5q-25.5 -20.5 -34.5 -51.5h191q-9 31 -33.5 51.5t-61.5 20.5q-36 0 -61.5 -20.5z" />
    <glyph glyph-name="Ecaron" unicode="&#x11a;" horiz-adv-x="584" 
d="M224 156h332v-156h-504v704h496v-156h-324v-124h288v-144h-288v-124zM366 912h134l-130 -148h-148l-126 148h138l68 -59z" />
    <glyph glyph-name="ecaron" unicode="&#x11b;" horiz-adv-x="564" 
d="M217.5 142q26.5 -22 66.5 -22q54 0 84 36h168q-21 -75 -89 -121.5t-163 -46.5q-73 0 -134 31.5t-97.5 90.5t-36.5 138q0 72 33.5 131.5t94 94t136.5 34.5q73 0 133 -30.5t95.5 -88.5t35.5 -137v-48h-361q8 -40 34.5 -62zM218.5 355.5q-25.5 -20.5 -34.5 -51.5h191
q-9 31 -33.5 51.5t-61.5 20.5q-36 0 -61.5 -20.5zM350 704h134l-130 -148h-148l-126 148h138l68 -59z" />
    <glyph glyph-name="Gcircumflex" unicode="&#x11c;" horiz-adv-x="776" 
d="M732 0h-116l-39 66q-35 -36 -86.5 -57t-118.5 -21q-96 0 -177.5 46t-130 129t-48.5 189q0 100 47.5 183t132.5 132t192 49q128 0 218.5 -61.5t125.5 -170.5h-185q-27 36 -68 54t-91 18q-54 0 -98 -24.5t-69 -69.5t-25 -106q0 -65 27 -113t71.5 -73.5t97.5 -25.5
q55 0 99.5 17.5t72.5 51.5v43h-200v144h368v-400zM588 764h-138l-66 59l-66 -59h-134l130 148h148z" />
    <glyph glyph-name="gcircumflex" unicode="&#x11d;" horiz-adv-x="596" 
d="M556 496v-492q0 -105 -69 -162.5t-187 -57.5q-222 0 -258 184h166q9 -25 30 -36.5t62 -11.5q45 0 64.5 19t19.5 57v60q-17 -21 -46 -34.5t-66 -13.5q-72 0 -130.5 33t-92 90.5t-33.5 128.5q0 69 35 125.5t94.5 89.5t130.5 33q75 0 131 -48l29 36h120zM346.5 160.5
q22.5 8.5 37.5 24.5v147q-15 15 -37.5 23.5t-46.5 8.5q-48 0 -78 -29.5t-30 -74.5q0 -46 30 -77t78 -31q24 0 46.5 8.5zM484 556h-138l-66 59l-66 -59h-134l130 148h148z" />
    <glyph glyph-name="Gbreve" unicode="&#x11e;" horiz-adv-x="776" 
d="M732 0h-116l-39 66q-35 -36 -86.5 -57t-118.5 -21q-96 0 -177.5 46t-130 129t-48.5 189q0 100 47.5 183t132.5 132t192 49q128 0 218.5 -61.5t125.5 -170.5h-185q-27 36 -68 54t-91 18q-54 0 -98 -24.5t-69 -69.5t-25 -106q0 -65 27 -113t71.5 -73.5t97.5 -25.5
q55 0 99.5 17.5t72.5 51.5v43h-200v144h368v-400zM266 794q-50 42 -54 118h108q2 -27 21 -43.5t47 -16.5q27 0 47 16.5t21 43.5h108q-3 -75 -53.5 -117.5t-122.5 -42.5t-122 42z" />
    <glyph glyph-name="gbreve" unicode="&#x11f;" horiz-adv-x="596" 
d="M556 496v-492q0 -105 -69 -162.5t-187 -57.5q-222 0 -258 184h166q9 -25 30 -36.5t62 -11.5q45 0 64.5 19t19.5 57v60q-17 -21 -46 -34.5t-66 -13.5q-72 0 -130.5 33t-92 90.5t-33.5 128.5q0 69 35 125.5t94.5 89.5t130.5 33q75 0 131 -48l29 36h120zM346.5 160.5
q22.5 8.5 37.5 24.5v147q-15 15 -37.5 23.5t-46.5 8.5q-48 0 -78 -29.5t-30 -74.5q0 -46 30 -77t78 -31q24 0 46.5 8.5zM162 586q-50 42 -54 118h108q2 -27 21 -43.5t47 -16.5q27 0 47 16.5t21 43.5h108q-3 -75 -53.5 -117.5t-122.5 -42.5t-122 42z" />
    <glyph glyph-name="Gdotaccent" unicode="&#x120;" horiz-adv-x="776" 
d="M732 0h-116l-39 66q-35 -36 -86.5 -57t-118.5 -21q-96 0 -177.5 46t-130 129t-48.5 189q0 100 47.5 183t132.5 132t192 49q128 0 218.5 -61.5t125.5 -170.5h-185q-27 36 -68 54t-91 18q-54 0 -98 -24.5t-69 -69.5t-25 -106q0 -65 27 -113t71.5 -73.5t97.5 -25.5
q55 0 99.5 17.5t72.5 51.5v43h-200v144h368v-400zM304 912h164v-140h-164v140z" />
    <glyph glyph-name="gdotaccent" unicode="&#x121;" horiz-adv-x="596" 
d="M556 496v-492q0 -105 -69 -162.5t-187 -57.5q-222 0 -258 184h166q9 -25 30 -36.5t62 -11.5q45 0 64.5 19t19.5 57v60q-17 -21 -46 -34.5t-66 -13.5q-72 0 -130.5 33t-92 90.5t-33.5 128.5q0 69 35 125.5t94.5 89.5t130.5 33q75 0 131 -48l29 36h120zM346.5 160.5
q22.5 8.5 37.5 24.5v147q-15 15 -37.5 23.5t-46.5 8.5q-48 0 -78 -29.5t-30 -74.5q0 -46 30 -77t78 -31q24 0 46.5 8.5zM200 704h164v-140h-164v140z" />
    <glyph glyph-name="Gcommaaccent" unicode="&#x122;" horiz-adv-x="776" 
d="M732 0h-116l-39 66q-35 -36 -86.5 -57t-118.5 -21q-96 0 -177.5 46t-130 129t-48.5 189q0 100 47.5 183t132.5 132t192 49q128 0 218.5 -61.5t125.5 -170.5h-185q-27 36 -68 54t-91 18q-54 0 -98 -24.5t-69 -69.5t-25 -106q0 -65 27 -113t71.5 -73.5t97.5 -25.5
q55 0 99.5 17.5t72.5 51.5v43h-200v144h368v-400zM454 -40v-104q-2 -28 -13 -58t-27 -46h-64q13 22 22.5 48t9.5 44v8h-48v108h120z" />
    <glyph glyph-name="gcommaaccent" unicode="&#x123;" horiz-adv-x="596" 
d="M556 496v-492q0 -105 -69 -162.5t-187 -57.5q-222 0 -258 184h166q9 -25 30 -36.5t62 -11.5q45 0 64.5 19t19.5 57v60q-17 -21 -46 -34.5t-66 -13.5q-72 0 -130.5 33t-92 90.5t-33.5 128.5q0 69 35 125.5t94.5 89.5t130.5 33q75 0 131 -48l29 36h120zM346.5 160.5
q22.5 8.5 37.5 24.5v147q-15 15 -37.5 23.5t-46.5 8.5q-48 0 -78 -29.5t-30 -74.5q0 -46 30 -77t78 -31q24 0 46.5 8.5zM344 688v-112h-120v104q2 63 44 104h72q-19 -21 -29.5 -46t-10.5 -46v-4h44z" />
    <glyph glyph-name="Hcircumflex" unicode="&#x124;" horiz-adv-x="728" 
d="M504 704h172v-704h-172v276h-280v-276h-172v704h172v-272h280v272zM568 764h-138l-66 59l-66 -59h-134l130 148h148z" />
    <glyph glyph-name="hcircumflex" unicode="&#x125;" horiz-adv-x="572" 
d="M440.5 481.5q46.5 -26.5 71 -73t24.5 -104.5v-304h-172v276q0 36 -20 58t-56 22q-25 0 -45 -12t-31 -28v-316h-172v704h172v-245q49 49 120 49q62 0 108.5 -26.5zM336 768h-138l-66 59l-66 -59h-134l130 148h148z" />
    <glyph glyph-name="Hbar" unicode="&#x126;" horiz-adv-x="728" 
d="M728 612v-80h-52v-532h-172v276h-280v-276h-172v532h-52v80h52v92h172v-92h280v92h172v-92h52zM504 432v100h-280v-100h280z" />
    <glyph glyph-name="hbar" unicode="&#x127;" horiz-adv-x="572" 
d="M440.5 481.5q46.5 -26.5 71 -73t24.5 -104.5v-304h-172v276q0 36 -20 58t-56 22q-25 0 -45 -12t-31 -28v-316h-172v560h-56v80h56v64h172v-64h128v-80h-128v-101q49 49 120 49q62 0 108.5 -26.5z" />
    <glyph glyph-name="Itilde" unicode="&#x128;" horiz-adv-x="276" 
d="M52 704h172v-704h-172v704zM187 763q-29 11 -67 29q-34 16 -40 16q-4 0 -6 -2.5t-2 -5.5v-44h-96v100q0 26 15.5 43t44.5 17q24 0 49.5 -9.5t63.5 -27.5q36 -19 47 -19q4 0 6 2.5t2 5.5v44h96v-100q0 -26 -15.5 -43t-44.5 -17q-24 0 -53 11z" />
    <glyph glyph-name="itilde" unicode="&#x129;" horiz-adv-x="252" 
d="M40 496h172v-496h-172v496zM175 555q-29 11 -67 29q-34 16 -40 16q-4 0 -6 -2.5t-2 -5.5v-44h-96v100q0 26 15.5 43t44.5 17q24 0 49.5 -9.5t63.5 -27.5q36 -19 47 -19q4 0 6 2.5t2 5.5v44h96v-100q0 -26 -15.5 -43t-44.5 -17q-24 0 -53 11z" />
    <glyph glyph-name="Imacron" unicode="&#x12a;" horiz-adv-x="276" 
d="M52 704h172v-704h-172v704zM-40 880h360v-104h-360v104z" />
    <glyph glyph-name="imacron" unicode="&#x12b;" horiz-adv-x="252" 
d="M40 496h172v-496h-172v496zM-52 688h360v-104h-360v104z" />
    <glyph glyph-name="Ibreve" unicode="&#x12c;" horiz-adv-x="276" 
d="M52 704h172v-704h-172v704zM18 794q-50 42 -54 118h108q2 -27 21 -43.5t47 -16.5q27 0 47 16.5t21 43.5h108q-3 -75 -53.5 -117.5t-122.5 -42.5t-122 42z" />
    <glyph glyph-name="ibreve" unicode="&#x12d;" horiz-adv-x="252" 
d="M40 496h172v-496h-172v496zM6 586q-50 42 -54 118h108q2 -27 21 -43.5t47 -16.5q27 0 47 16.5t21 43.5h108q-3 -75 -53.5 -117.5t-122.5 -42.5t-122 42z" />
    <glyph glyph-name="Iogonek" unicode="&#x12e;" horiz-adv-x="276" 
d="M240 -111v-97q-38 -8 -70 -8q-65 0 -101.5 27t-36.5 79q0 33 17.5 62t50.5 48h-48v704h172v-704h-8q-39 -19 -52 -40.5t-13 -38.5q0 -38 46 -38q21 0 43 6z" />
    <glyph glyph-name="iogonek" unicode="&#x12f;" horiz-adv-x="252" 
d="M208 704v-140h-164v140h164zM226 -111v-97q-38 -8 -70 -8q-65 0 -102.5 27t-37.5 79q0 35 18.5 63.5t55.5 46.5h-50v496h172v-496h-10q-39 -19 -52 -40.5t-13 -38.5q0 -38 46 -38q20 0 43 6z" />
    <glyph glyph-name="Idotaccent" unicode="&#x130;" horiz-adv-x="276" 
d="M52 704h172v-704h-172v704zM56 912h164v-140h-164v140z" />
    <glyph glyph-name="dotlessi" unicode="&#x131;" horiz-adv-x="252" 
d="M40 496h172v-496h-172v496z" />
    <glyph glyph-name="IJ" unicode="&#x132;" horiz-adv-x="636" 
d="M52 704h172v-704h-172v704zM292 -1v154q30 -5 52 -5q37 0 58.5 22t21.5 54v480h172v-484q0 -109 -62.5 -166.5t-169.5 -57.5q-39 0 -72 3z" />
    <glyph glyph-name="ij" unicode="&#x133;" horiz-adv-x="500" 
d="M44 704h164v-140h-164v140zM292 704h164v-140h-164v140zM40 496h172v-496h-172v496zM240 -84q22 0 35 12t13 36v532h172v-528q0 -91 -49 -137.5t-135 -46.5q-32 0 -60 3v131q16 -2 24 -2z" />
    <glyph glyph-name="Jcircumflex" unicode="&#x134;" horiz-adv-x="572" 
d="M93 45.5q-67 57.5 -76 170.5h165q8 -42 29 -59t61 -17q46 0 67 22.5t21 61.5v480h172v-476q0 -76 -33.5 -130t-91.5 -82t-131 -28q-116 0 -183 57.5zM648 764h-138l-66 59l-66 -59h-134l130 148h148z" />
    <glyph glyph-name="jcircumflex" unicode="&#x135;" horiz-adv-x="252" 
d="M-8 -84q22 0 35 12t13 36v532h172v-528q0 -91 -49 -137.5t-135 -46.5q-32 0 -60 3v131q16 -2 24 -2zM328 556h-138l-66 59l-66 -59h-134l130 148h148z" />
    <glyph glyph-name="Kcommaaccent" unicode="&#x136;" horiz-adv-x="704" 
d="M712 0h-208l-170 271l-110 -131v-140h-172v704h172v-343l276 343h196l-252 -301zM424 -40v-104q-2 -28 -13 -58t-27 -46h-64q13 22 22.5 48t9.5 44v8h-48v108h120z" />
    <glyph glyph-name="kcommaaccent" unicode="&#x137;" horiz-adv-x="564" 
d="M372 0l-104 166l-56 -65v-101h-172v704h172v-392l148 184h196l-177 -203l197 -293h-204zM350 -40v-104q-2 -28 -13 -58t-27 -46h-64q13 22 22.5 48t9.5 44v8h-48v108h120z" />
    <glyph glyph-name="kgreenlandic" unicode="&#x138;" horiz-adv-x="564" 
d="M372 0l-104 166l-56 -65v-101h-172v496h172v-184l148 184h196l-177 -203l197 -293h-204z" />
    <glyph glyph-name="Lacute" unicode="&#x139;" horiz-adv-x="532" 
d="M224 156h300v-156h-472v704h172v-548zM78 776l64 136h172l-116 -144h-120v8z" />
    <glyph glyph-name="lacute" unicode="&#x13a;" horiz-adv-x="252" 
d="M40 704h172v-704h-172v704zM66 776l64 136h172l-116 -144h-120v8z" />
    <glyph glyph-name="Lcommaaccent" unicode="&#x13b;" horiz-adv-x="532" 
d="M224 156h300v-156h-472v704h172v-548zM348 -40v-104q-2 -28 -13 -58t-27 -46h-64q13 22 22.5 48t9.5 44v8h-48v108h120z" />
    <glyph glyph-name="lcommaaccent" unicode="&#x13c;" horiz-adv-x="252" 
d="M40 704h172v-704h-172v704zM186 -40v-104q-2 -28 -13 -58t-27 -46h-64q13 22 22.5 48t9.5 44v8h-48v108h120z" />
    <glyph glyph-name="Lcaron" unicode="&#x13d;" horiz-adv-x="532" 
d="M224 156h300v-156h-472v704h172v-548zM305 677l2 27h124q-6 -59 -19.5 -119.5t-28.5 -96.5h-92q8 68 14 189z" />
    <glyph glyph-name="lcaron" unicode="&#x13e;" horiz-adv-x="252" 
d="M40 704h172v-704h-172v704zM254 704h120q-5 -53 -15.5 -90.5t-26.5 -77.5h-90q11 93 12 168z" />
    <glyph glyph-name="Ldot" unicode="&#x13f;" horiz-adv-x="532" 
d="M224 156h300v-156h-472v704h172v-548zM312 464h172v-172h-172v172z" />
    <glyph glyph-name="ldot" unicode="&#x140;" horiz-adv-x="440" 
d="M40 704h172v-704h-172v704zM260 452h172v-172h-172v172z" />
    <glyph glyph-name="Lslash" unicode="&#x141;" horiz-adv-x="532" 
d="M224 156h300v-156h-472v301l-72 -37v80l72 37v323h172v-236l156 80v-80l-156 -80v-232z" />
    <glyph glyph-name="lslash" unicode="&#x142;" horiz-adv-x="252" 
d="M283 564v-80l-71 -42v-442h-172v339l-45 -27v80l45 27v285h172v-182z" />
    <glyph glyph-name="Nacute" unicode="&#x143;" horiz-adv-x="716" 
d="M492 704h172v-704h-104l-336 376v-376h-172v704h100l340 -380v380zM286 776l64 136h172l-116 -144h-120v8z" />
    <glyph glyph-name="nacute" unicode="&#x144;" horiz-adv-x="572" 
d="M226 568l64 136h172l-116 -144h-120v8zM440.5 481.5q46.5 -26.5 71 -73t24.5 -104.5v-304h-172v276q0 36 -20 58t-56 22q-25 0 -45 -12t-31 -28v-316h-172v496h120l34 -58q52 70 138 70q62 0 108.5 -26.5z" />
    <glyph glyph-name="Ncommaaccent" unicode="&#x145;" horiz-adv-x="716" 
d="M492 704h172v-704h-104l-336 376v-376h-172v704h100l340 -380v380zM432 -40v-104q-2 -28 -13 -58t-27 -46h-64q13 22 22.5 48t9.5 44v8h-48v108h120z" />
    <glyph glyph-name="ncommaaccent" unicode="&#x146;" horiz-adv-x="572" 
d="M440.5 481.5q46.5 -26.5 71 -73t24.5 -104.5v-304h-172v276q0 36 -20 58t-56 22q-25 0 -45 -12t-31 -28v-316h-172v496h120l34 -58q52 70 138 70q62 0 108.5 -26.5zM360 -40v-104q-2 -28 -13 -58t-27 -46h-64q13 22 22.5 48t9.5 44v8h-48v108h120z" />
    <glyph glyph-name="Ncaron" unicode="&#x147;" horiz-adv-x="716" 
d="M492 704h172v-704h-104l-336 376v-376h-172v704h100l340 -380v380zM414 912h134l-130 -148h-148l-126 148h138l68 -59z" />
    <glyph glyph-name="ncaron" unicode="&#x148;" horiz-adv-x="572" 
d="M440.5 481.5q46.5 -26.5 71 -73t24.5 -104.5v-304h-172v276q0 36 -20 58t-56 22q-25 0 -45 -12t-31 -28v-316h-172v496h120l34 -58q52 70 138 70q62 0 108.5 -26.5zM354 704h134l-130 -148h-148l-126 148h138l68 -59z" />
    <glyph glyph-name="napostrophe" unicode="&#x149;" horiz-adv-x="804" 
d="M196 704v-152q0 -50 -16 -93t-44 -71h-96q22 35 35 72t13 72v8h-56v164h164zM672.5 481.5q46.5 -26.5 71 -73t24.5 -104.5v-304h-172v276q0 36 -20 58t-56 22q-25 0 -45 -12t-31 -28v-316h-172v496h120l34 -58q52 70 138 70q62 0 108.5 -26.5z" />
    <glyph glyph-name="Eng" unicode="&#x14a;" horiz-adv-x="716" 
d="M664 704v-736q0 -184 -184 -184q-40 0 -60 2v131q9 -1 24 -1q27 0 37.5 11t10.5 37v112l-268 300v-376h-172v704h100l340 -380v380h172z" />
    <glyph glyph-name="eng" unicode="&#x14b;" horiz-adv-x="572" 
d="M440.5 481.5q46.5 -26.5 71 -73t24.5 -104.5v-336q0 -91 -49 -137.5t-135 -46.5q-34 0 -64 3v132q17 -3 32 -3q24 0 34 11t10 37v312q0 36 -20 58t-56 22q-25 0 -45 -12t-31 -28v-316h-172v496h120l34 -58q52 70 138 70q62 0 108.5 -26.5z" />
    <glyph glyph-name="Omacron" unicode="&#x14c;" horiz-adv-x="800" 
d="M209 36q-88 48 -140.5 131.5t-52.5 184.5q0 100 52.5 183.5t140.5 132t191 48.5t191 -48t140.5 -131.5t52.5 -184.5t-52.5 -184.5t-140.5 -131.5t-191 -48t-191 48zM501 175.5q47 27.5 75 74t28 102.5t-28 102.5t-75 74t-101 27.5t-101 -27.5t-75 -74.5t-28 -102
q0 -56 28 -102.5t75 -74t101 -27.5t101 27.5zM220 880h360v-104h-360v104z" />
    <glyph glyph-name="omacron" unicode="&#x14d;" 
d="M153 22q-65 34 -101 93t-36 133t36 133t101 93t147 34t147 -34t101 -93t36 -133t-36 -133t-101 -93t-147 -34t-147 34zM378 164.5q30 32.5 30 83.5t-30 83.5t-78 32.5t-78 -32.5t-30 -83.5t30 -83.5t78 -32.5t78 32.5zM120 688h360v-104h-360v104z" />
    <glyph glyph-name="Obreve" unicode="&#x14e;" horiz-adv-x="800" 
d="M209 36q-88 48 -140.5 131.5t-52.5 184.5q0 100 52.5 183.5t140.5 132t191 48.5t191 -48t140.5 -131.5t52.5 -184.5t-52.5 -184.5t-140.5 -131.5t-191 -48t-191 48zM501 175.5q47 27.5 75 74t28 102.5t-28 102.5t-75 74t-101 27.5t-101 -27.5t-75 -74.5t-28 -102
q0 -56 28 -102.5t75 -74t101 -27.5t101 27.5zM278 794q-50 42 -54 118h108q2 -27 21 -43.5t47 -16.5q27 0 47 16.5t21 43.5h108q-3 -75 -53.5 -117.5t-122.5 -42.5t-122 42z" />
    <glyph glyph-name="obreve" unicode="&#x14f;" 
d="M153 22q-65 34 -101 93t-36 133t36 133t101 93t147 34t147 -34t101 -93t36 -133t-36 -133t-101 -93t-147 -34t-147 34zM378 164.5q30 32.5 30 83.5t-30 83.5t-78 32.5t-78 -32.5t-30 -83.5t30 -83.5t78 -32.5t78 32.5zM178 586q-50 42 -54 118h108q2 -27 21 -43.5
t47 -16.5q27 0 47 16.5t21 43.5h108q-3 -75 -53.5 -117.5t-122.5 -42.5t-122 42z" />
    <glyph glyph-name="Ohungarumlaut" unicode="&#x150;" horiz-adv-x="800" 
d="M209 36q-88 48 -140.5 131.5t-52.5 184.5q0 100 52.5 183.5t140.5 132t191 48.5t191 -48t140.5 -131.5t52.5 -184.5t-52.5 -184.5t-140.5 -131.5t-191 -48t-191 48zM501 175.5q47 27.5 75 74t28 102.5t-28 102.5t-75 74t-101 27.5t-101 -27.5t-75 -74.5t-28 -102
q0 -56 28 -102.5t75 -74t101 -27.5t101 27.5zM248 764l96 148h144l-144 -156h-96v8zM436 764l96 148h148l-144 -156h-100v8z" />
    <glyph glyph-name="ohungarumlaut" unicode="&#x151;" 
d="M153 22q-65 34 -101 93t-36 133t36 133t101 93t147 34t147 -34t101 -93t36 -133t-36 -133t-101 -93t-147 -34t-147 34zM378 164.5q30 32.5 30 83.5t-30 83.5t-78 32.5t-78 -32.5t-30 -83.5t30 -83.5t78 -32.5t78 32.5zM148 556l96 148h144l-144 -156h-96v8zM336 556
l96 148h148l-144 -156h-100v8z" />
    <glyph glyph-name="OE" unicode="&#x152;" horiz-adv-x="1008" 
d="M980 156v-156h-504q-48 -12 -100 -12q-102 0 -184.5 47.5t-129 130.5t-46.5 186t46.5 186t129 130.5t184.5 47.5q52 0 100 -12h496v-156h-324v-124h288v-144h-288v-124h332zM476 162v380q-36 18 -84 18q-53 0 -98 -27t-71.5 -75t-26.5 -106t26.5 -106t71.5 -75t98 -27
q48 0 84 18z" />
    <glyph glyph-name="oe" unicode="&#x153;" horiz-adv-x="960" 
d="M613.5 142q26.5 -22 66.5 -22q55 0 83 36h169q-21 -75 -89 -121.5t-163 -46.5q-55 0 -104 18t-86 52q-75 -70 -190 -70q-82 0 -147 34t-101 93.5t-36 132.5t36 132.5t101 93.5t147 34q110 0 187 -72q35 34 82 53t103 19q71 0 132.5 -30.5t98.5 -88.5t37 -137v-48h-361
q8 -40 34.5 -62zM614.5 355.5q-25.5 -20.5 -34.5 -51.5h193q-8 34 -33 53t-64 19q-36 0 -61.5 -20.5zM377.5 164.5q30.5 32.5 30.5 83.5q0 50 -30.5 83t-77.5 33t-77.5 -33t-30.5 -83q0 -51 30.5 -83.5t77.5 -32.5t77.5 32.5z" />
    <glyph glyph-name="Racute" unicode="&#x154;" horiz-adv-x="664" 
d="M464 0l-148 232h-92v-232h-172v704h328q71 0 126.5 -31t86.5 -84.5t31 -120.5q0 -69 -35 -122.5t-97 -81.5l176 -264h-204zM224 380h128q41 0 66.5 24t25.5 64q0 39 -26 61.5t-66 22.5h-128v-172zM258 776l64 136h172l-116 -144h-120v8z" />
    <glyph glyph-name="racute" unicode="&#x155;" horiz-adv-x="392" 
d="M380 504v-162q-33 6 -64 6q-37 0 -65 -15.5t-39 -44.5v-288h-172v496h120l37 -63q18 35 53.5 55t77.5 20q31 0 52 -4zM150 568l64 136h172l-116 -144h-120v8z" />
    <glyph glyph-name="Rcommaaccent" unicode="&#x156;" horiz-adv-x="664" 
d="M464 0l-148 232h-92v-232h-172v704h328q71 0 126.5 -31t86.5 -84.5t31 -120.5q0 -69 -35 -122.5t-97 -81.5l176 -264h-204zM224 380h128q41 0 66.5 24t25.5 64q0 39 -26 61.5t-66 22.5h-128v-172zM396 -40v-104q-2 -28 -13 -58t-27 -46h-64q13 22 22.5 48t9.5 44v8h-48
v108h120z" />
    <glyph glyph-name="rcommaaccent" unicode="&#x157;" horiz-adv-x="392" 
d="M380 504v-162q-33 6 -64 6q-37 0 -65 -15.5t-39 -44.5v-288h-172v496h120l37 -63q18 35 53.5 55t77.5 20q31 0 52 -4zM186 -40v-104q-2 -28 -13 -58t-27 -46h-64q13 22 22.5 48t9.5 44v8h-48v108h120z" />
    <glyph glyph-name="Rcaron" unicode="&#x158;" horiz-adv-x="664" 
d="M464 0l-148 232h-92v-232h-172v704h328q71 0 126.5 -31t86.5 -84.5t31 -120.5q0 -69 -35 -122.5t-97 -81.5l176 -264h-204zM224 380h128q41 0 66.5 24t25.5 64q0 39 -26 61.5t-66 22.5h-128v-172zM386 912h134l-130 -148h-148l-126 148h138l68 -59z" />
    <glyph glyph-name="rcaron" unicode="&#x159;" horiz-adv-x="392" 
d="M380 504v-162q-33 6 -64 6q-37 0 -65 -15.5t-39 -44.5v-288h-172v496h120l37 -63q18 35 53.5 55t77.5 20q31 0 52 -4zM278 704h134l-130 -148h-148l-126 148h138l68 -59z" />
    <glyph glyph-name="Sacute" unicode="&#x15a;" horiz-adv-x="648" 
d="M91.5 51q-68.5 63 -69.5 177h179q0 -47 27.5 -65.5t91.5 -18.5q68 0 94 14t26 46q0 26 -26 40.5t-82 23.5l-68 12q-114 20 -175 70t-61 146q0 103 72.5 161.5t219.5 58.5q157 0 222 -64t65 -172h-174q0 41 -26 60.5t-83 19.5q-46 0 -70 -5.5t-33 -17t-9 -33.5
q0 -26 25.5 -40.5t94.5 -27.5l64 -12q112 -21 172 -68t60 -144q0 -224 -308 -224q-160 0 -228.5 63zM258 776l64 136h172l-116 -144h-120v8z" />
    <glyph glyph-name="sacute" unicode="&#x15b;" horiz-adv-x="500" 
d="M76 31q-59 43 -55 125h154q0 -29 17.5 -38.5t55.5 -9.5q42 0 57 8.5t15 27.5q0 16 -13 24t-55 12l-40 4q-97 10 -144.5 49t-47.5 111q0 80 60 122t168 42q114 0 170 -44t55 -124h-160q-2 24 -17.5 36t-47.5 12q-30 0 -43 -8t-13 -24q0 -18 12 -27t56 -13l40 -4
q99 -10 143.5 -49t44.5 -107q0 -80 -60.5 -124t-179.5 -44q-113 0 -172 43zM182 568l64 136h172l-116 -144h-120v8z" />
    <glyph glyph-name="Scircumflex" unicode="&#x15c;" horiz-adv-x="648" 
d="M91.5 51q-68.5 63 -69.5 177h179q0 -47 27.5 -65.5t91.5 -18.5q68 0 94 14t26 46q0 26 -26 40.5t-82 23.5l-68 12q-114 20 -175 70t-61 146q0 103 72.5 161.5t219.5 58.5q157 0 222 -64t65 -172h-174q0 41 -26 60.5t-83 19.5q-46 0 -70 -5.5t-33 -17t-9 -33.5
q0 -26 25.5 -40.5t94.5 -27.5l64 -12q112 -21 172 -68t60 -144q0 -224 -308 -224q-160 0 -228.5 63zM520 764h-138l-66 59l-66 -59h-134l130 148h148z" />
    <glyph glyph-name="scircumflex" unicode="&#x15d;" horiz-adv-x="500" 
d="M76 31q-59 43 -55 125h154q0 -29 17.5 -38.5t55.5 -9.5q42 0 57 8.5t15 27.5q0 16 -13 24t-55 12l-40 4q-97 10 -144.5 49t-47.5 111q0 80 60 122t168 42q114 0 170 -44t55 -124h-160q-2 24 -17.5 36t-47.5 12q-30 0 -43 -8t-13 -24q0 -18 12 -27t56 -13l40 -4
q99 -10 143.5 -49t44.5 -107q0 -80 -60.5 -124t-179.5 -44q-113 0 -172 43zM444 556h-138l-66 59l-66 -59h-134l130 148h148z" />
    <glyph glyph-name="Scedilla" unicode="&#x15e;" horiz-adv-x="648" 
d="M349 -11l-4 -26q42 -8 64.5 -28t22.5 -51q0 -40 -29.5 -66t-78.5 -26q-44 0 -71.5 22t-32.5 62h76q2 -8 10 -12t18 -4q14 0 21 7t7 17q0 13 -10.5 18.5t-33.5 5.5h-36l26 80q-148 5 -211.5 67.5t-64.5 172.5h179q0 -47 27.5 -65.5t91.5 -18.5q68 0 94 14t26 46
q0 26 -26 40.5t-82 23.5l-68 12q-114 20 -175 70t-61 146q0 103 72.5 161.5t219.5 58.5q157 0 222 -64t65 -172h-174q0 41 -26 60.5t-83 19.5q-46 0 -70 -5.5t-33 -17t-9 -33.5q0 -26 25.5 -40.5t94.5 -27.5l64 -12q112 -21 172 -68t60 -144q0 -213 -279 -223z" />
    <glyph glyph-name="scedilla" unicode="&#x15f;" horiz-adv-x="500" 
d="M434.5 37.5q-53.5 -43.5 -158.5 -48.5l-3 -22q42 -8 64.5 -28t22.5 -51q0 -40 -29.5 -66t-78.5 -26q-44 0 -71.5 22t-32.5 62h76q2 -8 10 -12t18 -4q14 0 21 7t7 17q0 13 -10.5 18.5t-33.5 5.5h-36l24 77q-101 4 -154 47t-49 120h154q0 -29 17.5 -38.5t55.5 -9.5
q42 0 57 8.5t15 27.5q0 16 -13 24t-55 12l-40 4q-97 10 -144.5 49t-47.5 111q0 80 60 122t168 42q114 0 170 -44t55 -124h-160q-2 24 -17.5 36t-47.5 12q-30 0 -43 -8t-13 -24q0 -18 12 -27t56 -13l40 -4q99 -10 143.5 -49t44.5 -107q0 -75 -53.5 -118.5z" />
    <glyph glyph-name="Scaron" unicode="&#x160;" horiz-adv-x="648" 
d="M91.5 51q-68.5 63 -69.5 177h179q0 -47 27.5 -65.5t91.5 -18.5q68 0 94 14t26 46q0 26 -26 40.5t-82 23.5l-68 12q-114 20 -175 70t-61 146q0 103 72.5 161.5t219.5 58.5q157 0 222 -64t65 -172h-174q0 41 -26 60.5t-83 19.5q-46 0 -70 -5.5t-33 -17t-9 -33.5
q0 -26 25.5 -40.5t94.5 -27.5l64 -12q112 -21 172 -68t60 -144q0 -224 -308 -224q-160 0 -228.5 63zM386 912h134l-130 -148h-148l-126 148h138l68 -59z" />
    <glyph glyph-name="scaron" unicode="&#x161;" horiz-adv-x="500" 
d="M76 31q-59 43 -55 125h154q0 -29 17.5 -38.5t55.5 -9.5q42 0 57 8.5t15 27.5q0 16 -13 24t-55 12l-40 4q-97 10 -144.5 49t-47.5 111q0 80 60 122t168 42q114 0 170 -44t55 -124h-160q-2 24 -17.5 36t-47.5 12q-30 0 -43 -8t-13 -24q0 -18 12 -27t56 -13l40 -4
q99 -10 143.5 -49t44.5 -107q0 -80 -60.5 -124t-179.5 -44q-113 0 -172 43zM310 704h134l-130 -148h-148l-126 148h138l68 -59z" />
    <glyph glyph-name="uni0162" unicode="&#x162;" horiz-adv-x="632" 
d="M624 704v-156h-220v-548h-172v548h-224v156h616zM380 -40v-104q-2 -28 -13 -58t-27 -46h-64q13 22 22.5 48t9.5 44v8h-48v108h120z" />
    <glyph glyph-name="uni0163" unicode="&#x163;" horiz-adv-x="388" 
d="M232 364v-156q0 -36 19 -54t45 -18q43 0 76 13v-139q-55 -22 -124 -22q-52 0 -94.5 21.5t-68 64t-25.5 102.5v188h-64v132h72v100l156 92h8v-192h140v-132h-140zM280 -40v-104q-2 -28 -13 -58t-27 -46h-64q13 22 22.5 48t9.5 44v8h-48v108h120z" />
    <glyph glyph-name="Tcaron" unicode="&#x164;" horiz-adv-x="632" 
d="M624 704v-156h-220v-548h-172v548h-224v156h616zM386 912h134l-130 -148h-148l-126 148h138l68 -59z" />
    <glyph glyph-name="tcaron" unicode="&#x165;" horiz-adv-x="388" 
d="M232 364v-156q0 -36 19 -54t45 -18q43 0 76 13v-139q-55 -22 -124 -22q-52 0 -94.5 21.5t-68 64t-25.5 102.5v188h-64v132h72v100l156 92h8v-192h140v-132h-140zM270 704h120q-5 -53 -15.5 -90.5t-26.5 -77.5h-90q11 93 12 168z" />
    <glyph glyph-name="Tbar" unicode="&#x166;" horiz-adv-x="632" 
d="M624 548h-220v-164h163v-80h-163v-304h-172v304h-148v80h148v164h-224v156h616v-156z" />
    <glyph glyph-name="tbar" unicode="&#x167;" horiz-adv-x="388" 
d="M232 364v-76h112v-80h-112q0 -36 19 -54t45 -18q43 0 76 13v-139q-55 -22 -124 -22q-52 0 -94.5 21.5t-68 64t-25.5 102.5v32h-52v80h52v76h-64v132h72v100l156 92h8v-192h140v-132h-140z" />
    <glyph glyph-name="Utilde" unicode="&#x168;" horiz-adv-x="708" 
d="M191.5 23.5q-71.5 35.5 -111.5 100.5t-40 152v428h172v-432q0 -60 39.5 -94t104.5 -34q62 0 101 34t39 94v432h172v-428q0 -87 -40 -152t-110.5 -100.5t-161.5 -35.5q-93 0 -164.5 35.5zM403 763q-29 11 -67 29q-34 16 -40 16q-4 0 -6 -2.5t-2 -5.5v-44h-96v100
q0 26 15.5 43t44.5 17q24 0 49.5 -9.5t63.5 -27.5q36 -19 47 -19q4 0 6 2.5t2 5.5v44h96v-100q0 -26 -15.5 -43t-44.5 -17q-24 0 -53 11z" />
    <glyph glyph-name="utilde" unicode="&#x169;" horiz-adv-x="572" 
d="M532 496v-496h-120l-34 58q-52 -70 -138 -70q-63 0 -109 26.5t-70.5 73t-24.5 104.5v304h172v-276q0 -36 20 -58t56 -22q25 0 45.5 12t30.5 28v316h172zM335 555q-29 11 -67 29q-34 16 -40 16q-4 0 -6 -2.5t-2 -5.5v-44h-96v100q0 26 15.5 43t44.5 17q24 0 49.5 -9.5
t63.5 -27.5q36 -19 47 -19q4 0 6 2.5t2 5.5v44h96v-100q0 -26 -15.5 -43t-44.5 -17q-24 0 -53 11z" />
    <glyph glyph-name="Umacron" unicode="&#x16a;" horiz-adv-x="708" 
d="M191.5 23.5q-71.5 35.5 -111.5 100.5t-40 152v428h172v-432q0 -60 39.5 -94t104.5 -34q62 0 101 34t39 94v432h172v-428q0 -87 -40 -152t-110.5 -100.5t-161.5 -35.5q-93 0 -164.5 35.5zM176 880h360v-104h-360v104z" />
    <glyph glyph-name="umacron" unicode="&#x16b;" horiz-adv-x="572" 
d="M532 496v-496h-120l-34 58q-52 -70 -138 -70q-63 0 -109 26.5t-70.5 73t-24.5 104.5v304h172v-276q0 -36 20 -58t56 -22q25 0 45.5 12t30.5 28v316h172zM108 688h360v-104h-360v104z" />
    <glyph glyph-name="Ubreve" unicode="&#x16c;" horiz-adv-x="708" 
d="M191.5 23.5q-71.5 35.5 -111.5 100.5t-40 152v428h172v-432q0 -60 39.5 -94t104.5 -34q62 0 101 34t39 94v432h172v-428q0 -87 -40 -152t-110.5 -100.5t-161.5 -35.5q-93 0 -164.5 35.5zM234 794q-50 42 -54 118h108q2 -27 21 -43.5t47 -16.5q27 0 47 16.5t21 43.5h108
q-3 -75 -53.5 -117.5t-122.5 -42.5t-122 42z" />
    <glyph glyph-name="ubreve" unicode="&#x16d;" horiz-adv-x="572" 
d="M532 496v-496h-120l-34 58q-52 -70 -138 -70q-63 0 -109 26.5t-70.5 73t-24.5 104.5v304h172v-276q0 -36 20 -58t56 -22q25 0 45.5 12t30.5 28v316h172zM166 586q-50 42 -54 118h108q2 -27 21 -43.5t47 -16.5q27 0 47 16.5t21 43.5h108q-3 -75 -53.5 -117.5t-122.5 -42.5
t-122 42z" />
    <glyph glyph-name="Uring" unicode="&#x16e;" horiz-adv-x="708" 
d="M191.5 23.5q-71.5 35.5 -111.5 100.5t-40 152v428h172v-432q0 -60 39.5 -94t104.5 -34q62 0 101 34t39 94v432h172v-428q0 -87 -40 -152t-110.5 -100.5t-161.5 -35.5q-93 0 -164.5 35.5zM276.5 774.5q-32.5 30.5 -32.5 73.5q0 45 32 74.5t80 29.5t80 -29.5t32 -74.5
q0 -44 -32 -74t-80 -30q-47 0 -79.5 30.5zM381.5 822.5q10.5 10.5 10.5 25.5t-10.5 25.5t-25.5 10.5t-25.5 -10.5t-10.5 -25.5t10.5 -25.5t25.5 -10.5t25.5 10.5z" />
    <glyph glyph-name="uring" unicode="&#x16f;" horiz-adv-x="572" 
d="M532 496v-496h-120l-34 58q-52 -70 -138 -70q-63 0 -109 26.5t-70.5 73t-24.5 104.5v304h172v-276q0 -36 20 -58t56 -22q25 0 45.5 12t30.5 28v316h172zM208.5 566.5q-32.5 30.5 -32.5 73.5q0 45 32 74.5t80 29.5t80 -29.5t32 -74.5q0 -44 -32 -74t-80 -30
q-47 0 -79.5 30.5zM313.5 614.5q10.5 10.5 10.5 25.5t-10.5 25.5t-25.5 10.5t-25.5 -10.5t-10.5 -25.5t10.5 -25.5t25.5 -10.5t25.5 10.5z" />
    <glyph glyph-name="Uhungarumlaut" unicode="&#x170;" horiz-adv-x="708" 
d="M191.5 23.5q-71.5 35.5 -111.5 100.5t-40 152v428h172v-432q0 -60 39.5 -94t104.5 -34q62 0 101 34t39 94v432h172v-428q0 -87 -40 -152t-110.5 -100.5t-161.5 -35.5q-93 0 -164.5 35.5zM204 764l96 148h144l-144 -156h-96v8zM392 764l96 148h148l-144 -156h-100v8z" />
    <glyph glyph-name="uhungarumlaut" unicode="&#x171;" horiz-adv-x="572" 
d="M532 496v-496h-120l-34 58q-52 -70 -138 -70q-63 0 -109 26.5t-70.5 73t-24.5 104.5v304h172v-276q0 -36 20 -58t56 -22q25 0 45.5 12t30.5 28v316h172zM136 556l96 148h144l-144 -156h-96v8zM324 556l96 148h148l-144 -156h-100v8z" />
    <glyph glyph-name="Uogonek" unicode="&#x172;" horiz-adv-x="708" 
d="M668 704v-428q0 -102 -54 -173.5t-147 -98.5q-43 -20 -57.5 -42.5t-14.5 -40.5q0 -38 46 -38q21 0 43 6v-97q-38 -8 -70 -8q-65 0 -101.5 27t-36.5 79q0 28 13 54t38 45q-85 5 -150 42t-101 100t-36 145v428h172v-432q0 -60 39.5 -94t104.5 -34q62 0 101 34t39 94v432
h172z" />
    <glyph glyph-name="uogonek" unicode="&#x173;" horiz-adv-x="572" 
d="M548 -111v-97q-38 -8 -70 -8q-65 0 -101.5 27t-36.5 79q0 34 18 63t53 49l-33 56q-52 -70 -138 -70q-63 0 -109 26.5t-70.5 73t-24.5 104.5v304h172v-276q0 -36 20 -58t56 -22q25 0 45.5 12t30.5 28v316h172v-496h-8q-39 -19 -52 -40.5t-13 -38.5q0 -38 46 -38q21 0 43 6
z" />
    <glyph glyph-name="Wcircumflex" unicode="&#x174;" horiz-adv-x="1076" 
d="M904 704h184l-268 -704h-128l-150 399l-158 -399h-124l-272 704h188l147 -416l161 416h108l161 -408zM738 764h-138l-66 59l-66 -59h-134l130 148h148z" />
    <glyph glyph-name="wcircumflex" unicode="&#x175;" horiz-adv-x="848" 
d="M684 496h172l-212 -496h-124l-97 227l-95 -227h-124l-212 496h188l88 -237l96 237h112l109 -244zM624 556h-138l-66 59l-66 -59h-134l130 148h148z" />
    <glyph glyph-name="Ycircumflex" unicode="&#x176;" horiz-adv-x="668" 
d="M492 704h196l-268 -440v-264h-172v264l-268 440h196l162 -263zM534 764h-138l-66 59l-66 -59h-134l130 148h148z" />
    <glyph glyph-name="ycircumflex" unicode="&#x177;" horiz-adv-x="564" 
d="M400 496h172l-304 -704h-168l109 243l-217 461h188l115 -255zM472 556h-138l-66 59l-66 -59h-134l130 148h148z" />
    <glyph glyph-name="Ydieresis" unicode="&#x178;" horiz-adv-x="668" 
d="M492 704h196l-268 -440v-264h-172v264l-268 440h196l162 -263zM158 912h140v-132h-140v132zM370 912h140v-132h-140v132z" />
    <glyph glyph-name="Zacute" unicode="&#x179;" horiz-adv-x="664" 
d="M285 156h355v-156h-616v88l358 460h-358v156h604v-112zM269 776l64 136h172l-116 -144h-120v8z" />
    <glyph glyph-name="zacute" unicode="&#x17a;" horiz-adv-x="484" 
d="M259 140h205v-140h-444v100l207 256h-203v140h432v-104zM178 568l64 136h172l-116 -144h-120v8z" />
    <glyph glyph-name="Zdotaccent" unicode="&#x17b;" horiz-adv-x="664" 
d="M285 156h355v-156h-616v88l358 460h-358v156h604v-112zM247 912h164v-140h-164v140z" />
    <glyph glyph-name="zdotaccent" unicode="&#x17c;" horiz-adv-x="484" 
d="M259 140h205v-140h-444v100l207 256h-203v140h432v-104zM156 704h164v-140h-164v140z" />
    <glyph glyph-name="Zcaron" unicode="&#x17d;" horiz-adv-x="664" 
d="M285 156h355v-156h-616v88l358 460h-358v156h604v-112zM397 912h134l-130 -148h-148l-126 148h138l68 -59z" />
    <glyph glyph-name="zcaron" unicode="&#x17e;" horiz-adv-x="484" 
d="M259 140h205v-140h-444v100l207 256h-203v140h432v-104zM306 704h134l-130 -148h-148l-126 148h138l68 -59z" />
    <glyph glyph-name="Schwa" unicode="&#x18f;" horiz-adv-x="773" 
d="M567 671.5q88 -44.5 139 -126.5t51 -189q0 -103 -50 -187t-138.5 -132.5t-199.5 -48.5q-106 0 -186 44t-123.5 121.5t-43.5 173.5v79h554q-11 77 -67 118t-131 41q-56 0 -100.5 -24t-62.5 -67h-182q19 73 67.5 127.5t120 84.5t158.5 30q106 0 194 -44.5zM495 173
q51 33 69 93h-361q15 -56 60.5 -91t114.5 -35q66 0 117 33z" />
    <glyph glyph-name="florin" unicode="&#x192;" horiz-adv-x="592" 
d="M356 476q0 -21 14 -80h142v-72h-124q20 -82 20 -132q0 -94 -65.5 -149t-178.5 -55q-59 0 -108 19v149q24 -10 40 -13t36 -3q41 0 66.5 20t25.5 60q0 30 -18 104h-122v72h105q-7 28 -12 55t-5 49q0 103 69 159.5t183 56.5q54 0 124 -17v-147l-33 5q-44 7 -67 7
q-92 0 -92 -88z" />
    <glyph glyph-name="Ohorn" unicode="&#x1a0;" horiz-adv-x="800" 
d="M753.5 495q30.5 -67 30.5 -143q0 -101 -52.5 -184.5t-140.5 -131.5t-191 -48t-191 48t-140.5 131.5t-52.5 184.5q0 100 52.5 183.5t140.5 132t191 48.5q92 0 173 -39h24q44 0 44 50q0 29 -13 55h113q12 -33 12 -62q0 -40 -21.5 -67.5t-62.5 -39.5q54 -51 84.5 -118z
M501 175.5q47 27.5 75 74t28 102.5t-28 102.5t-75 74t-101 27.5t-101 -27.5t-75 -74.5t-28 -102q0 -56 28 -102.5t75 -74t101 -27.5t101 27.5z" />
    <glyph glyph-name="ohorn" unicode="&#x1a1;" 
d="M581.5 449q-18.5 -26 -53.5 -40q56 -68 56 -161q0 -74 -36 -133t-101 -93t-147 -34t-147 34t-101 93t-36 133t36 133t101 93t147 34q85 0 155 -38q33 6 33 49q0 29 -13 55h113q12 -33 12 -62q0 -37 -18.5 -63zM378 164.5q30 32.5 30 83.5t-30 83.5t-78 32.5t-78 -32.5
t-30 -83.5t30 -83.5t78 -32.5t78 32.5z" />
    <glyph glyph-name="Uhorn" unicode="&#x1af;" horiz-adv-x="804" 
d="M774.5 636.5q-37.5 -30.5 -106.5 -33.5v-327q0 -87 -40 -152t-110.5 -100.5t-161.5 -35.5q-93 0 -164.5 35.5t-111.5 100.5t-40 152v428h172v-432q0 -60 39.5 -94t104.5 -34q62 0 101 34t39 94v432h172v-26q32 6 32 49q0 29 -13 55h113q12 -33 12 -62q0 -53 -37.5 -83.5z
" />
    <glyph glyph-name="uhorn" unicode="&#x1b0;" horiz-adv-x="686" 
d="M645.5 426.5q-40.5 -30.5 -113.5 -31.5v-395h-120l-34 58q-52 -70 -138 -70q-63 0 -109 26.5t-70.5 73t-24.5 104.5v304h172v-276q0 -36 20 -58t56 -22q25 0 45.5 12t30.5 28v316h172v-27q42 1 42 50q0 29 -13 55h113q12 -33 12 -62q0 -55 -40.5 -85.5z" />
    <glyph glyph-name="Scommaaccent" unicode="&#x218;" horiz-adv-x="648" 
d="M91.5 51q-68.5 63 -69.5 177h179q0 -47 27.5 -65.5t91.5 -18.5q68 0 94 14t26 46q0 26 -26 40.5t-82 23.5l-68 12q-114 20 -175 70t-61 146q0 103 72.5 161.5t219.5 58.5q157 0 222 -64t65 -172h-174q0 41 -26 60.5t-83 19.5q-46 0 -70 -5.5t-33 -17t-9 -33.5
q0 -26 25.5 -40.5t94.5 -27.5l64 -12q112 -21 172 -68t60 -144q0 -224 -308 -224q-160 0 -228.5 63zM384 -40v-104q-2 -28 -13 -58t-27 -46h-64q13 22 22.5 48t9.5 44v8h-48v108h120z" />
    <glyph glyph-name="scommaaccent" unicode="&#x219;" horiz-adv-x="500" 
d="M76 31q-59 43 -55 125h154q0 -29 17.5 -38.5t55.5 -9.5q42 0 57 8.5t15 27.5q0 16 -13 24t-55 12l-40 4q-97 10 -144.5 49t-47.5 111q0 80 60 122t168 42q114 0 170 -44t55 -124h-160q-2 24 -17.5 36t-47.5 12q-30 0 -43 -8t-13 -24q0 -18 12 -27t56 -13l40 -4
q99 -10 143.5 -49t44.5 -107q0 -80 -60.5 -124t-179.5 -44q-113 0 -172 43zM312 -36v-104q-2 -28 -13 -58t-27 -46h-64q13 22 22.5 48t9.5 44v8h-48v108h120z" />
    <glyph glyph-name="uni021A" unicode="&#x21a;" horiz-adv-x="632" 
d="M624 704v-156h-220v-548h-172v548h-224v156h616zM380 -40v-104q-2 -28 -13 -58t-27 -46h-64q13 22 22.5 48t9.5 44v8h-48v108h120z" />
    <glyph glyph-name="uni021B" unicode="&#x21b;" horiz-adv-x="388" 
d="M232 364v-156q0 -36 19 -54t45 -18q43 0 76 13v-139q-55 -22 -124 -22q-52 0 -94.5 21.5t-68 64t-25.5 102.5v188h-64v132h72v100l156 92h8v-192h140v-132h-140zM280 -40v-104q-2 -28 -13 -58t-27 -46h-64q13 22 22.5 48t9.5 44v8h-48v108h120z" />
    <glyph glyph-name="dotlessj" unicode="&#x237;" horiz-adv-x="252" 
d="M-8 -84q22 0 35 12t13 36v532h172v-528q0 -91 -49 -137.5t-135 -46.5q-32 0 -60 3v131q16 -2 24 -2z" />
    <glyph glyph-name="schwa" unicode="&#x259;" horiz-adv-x="564" 
d="M414 476.5q61 -31.5 97.5 -90.5t36.5 -138q0 -72 -33.5 -131.5t-94 -94t-136.5 -34.5q-73 0 -133 30.5t-95.5 88.5t-35.5 137v48h361q-8 40 -34.5 62t-66.5 22q-54 0 -84 -36h-168q21 75 89 121.5t163 46.5q73 0 134 -31.5zM345.5 140.5q25.5 20.5 34.5 51.5h-191
q9 -31 33.5 -51.5t61.5 -20.5q36 0 61.5 20.5z" />
    <glyph glyph-name="h.sups" unicode="&#x2b0;" horiz-adv-x="444" 
d="M369.5 830q42.5 -43 42.5 -109v-225h-120v206q0 30 -19 46.5t-50 16.5q-19 0 -37.5 -8.5t-29.5 -20.5v-240h-120v522h120v-187q37 42 96 42q75 0 117.5 -43z" />
    <glyph glyph-name="j.sups" unicode="&#x2b2;" horiz-adv-x="212" 
d="M60 1022h118v-103h-118v103zM21 432q39 0 39 37v395h120v-391q0 -67 -37 -102t-100 -35q-14 0 -38 2v95q5 -1 16 -1z" />
    <glyph glyph-name="r.sups" unicode="&#x2b3;" horiz-adv-x="285" 
d="M275 870l-1 -112q-19 4 -40 4q-27 0 -47.5 -11t-30.5 -32v-223h-120v368h86l24 -44q15 25 39.5 39t56.5 14q18 0 33 -3z" />
    <glyph glyph-name="w.sups" unicode="&#x2b7;" horiz-adv-x="682" 
d="M555 864h122l-162 -367h-87l-87 188l-89 -188h-85l-162 367h129l79 -190l87 190h80l92 -192z" />
    <glyph glyph-name="y.sups" unicode="&#x2b8;" horiz-adv-x="455" 
d="M328 864h122l-246 -522h-115l85 177l-169 345h129l102 -208z" />
    <glyph glyph-name="circumflex" unicode="&#x2c6;" 
d="M492 556h-138l-66 59l-66 -59h-134l130 148h148z" />
    <glyph glyph-name="caron" unicode="&#x2c7;" 
d="M358 704h134l-130 -148h-148l-126 148h138l68 -59z" />
    <glyph glyph-name="uni02C9" unicode="&#x2c9;" horiz-adv-x="720" 
d="M180 688h360v-104h-360v104z" />
    <glyph glyph-name="breve" unicode="&#x2d8;" 
d="M118 586q-50 42 -54 118h108q2 -27 21 -43.5t47 -16.5q27 0 47 16.5t21 43.5h108q-3 -75 -53.5 -117.5t-122.5 -42.5t-122 42z" />
    <glyph glyph-name="dotaccent" unicode="&#x2d9;" 
d="M44 704h164v-140h-164v140z" />
    <glyph glyph-name="ring" unicode="&#x2da;" 
d="M216.5 566.5q-32.5 30.5 -32.5 73.5q0 45 32 74.5t80 29.5t80 -29.5t32 -74.5q0 -44 -32 -74t-80 -30q-47 0 -79.5 30.5zM321.5 614.5q10.5 10.5 10.5 25.5t-10.5 25.5t-25.5 10.5t-25.5 -10.5t-10.5 -25.5t10.5 -25.5t25.5 -10.5t25.5 10.5z" />
    <glyph glyph-name="ogonek" unicode="&#x2db;" 
d="M188.5 -189q-36.5 27 -36.5 79q0 44 30.5 79.5t85.5 50.5l76 -4v-12q-44 -20 -58.5 -42.5t-14.5 -40.5q0 -38 46 -38q20 0 43 6v-97q-38 -8 -70 -8q-65 0 -101.5 27z" />
    <glyph glyph-name="tilde" unicode="&#x2dc;" 
d="M343 555q-29 11 -67 29q-34 16 -40 16q-4 0 -6 -2.5t-2 -5.5v-44h-96v100q0 26 15.5 43t44.5 17q24 0 49.5 -9.5t63.5 -27.5q36 -19 47 -19q4 0 6 2.5t2 5.5v44h96v-100q0 -26 -15.5 -43t-44.5 -17q-24 0 -53 11z" />
    <glyph glyph-name="hungarumlaut" unicode="&#x2dd;" 
d="M108 556l96 148h144l-144 -156h-96v8zM296 556l96 148h148l-144 -156h-100v8z" />
    <glyph glyph-name="l.sups" unicode="&#x2e1;" horiz-adv-x="188" 
d="M36 1018h120v-522h-120v522z" />
    <glyph glyph-name="s.sups" unicode="&#x2e2;" horiz-adv-x="388" 
d="M65.5 517q-45.5 30 -49.5 84h120q2 -14 15.5 -20t40.5 -6q61 0 61 27q0 14 -15.5 20.5t-51.5 10.5l-37 4q-63 7 -96 36.5t-33 78.5q0 59 46.5 90t127.5 31q80 0 123.5 -30t46.5 -82h-120q-5 24 -51 24q-51 0 -51 -24q0 -14 14 -20.5t42 -9.5l37 -5q56 -7 96.5 -30.5
t40.5 -83.5q0 -59 -47.5 -92t-132.5 -33q-81 0 -126.5 30z" />
    <glyph glyph-name="x.sups" unicode="&#x2e3;" horiz-adv-x="445" 
d="M440 496h-141l-81 102l-79 -102h-134l148 184l-147 184h138l78 -97l76 97h135l-146 -178z" />
    <glyph glyph-name="gravecomb" unicode="&#x300;" horiz-adv-x="0" 
d="M-486 704h172l64 -136v-8h-120z" />
    <glyph glyph-name="acutecomb" unicode="&#x301;" horiz-adv-x="0" 
d="M-402 568l64 136h172l-116 -144h-120v8z" />
    <glyph glyph-name="circumflexcomb" unicode="&#x302;" horiz-adv-x="0" 
d="M-108 556h-138l-66 59l-66 -59h-134l130 148h148z" />
    <glyph glyph-name="tildecomb" unicode="&#x303;" horiz-adv-x="0" 
d="M-257 555q-29 11 -67 29q-34 16 -40 16q-4 0 -6 -2.5t-2 -5.5v-44h-96v100q0 26 15.5 43t44.5 17q24 0 49.5 -9.5t63.5 -27.5q36 -19 47 -19q4 0 6 2.5t2 5.5v44h96v-100q0 -26 -15.5 -43t-44.5 -17q-24 0 -53 11z" />
    <glyph glyph-name="macroncomb" unicode="&#x304;" horiz-adv-x="0" 
d="M-420 688h360v-104h-360v104z" />
    <glyph glyph-name="brevecomb" unicode="&#x306;" horiz-adv-x="0" 
d="M-482 586q-50 42 -54 118h108q2 -27 21 -43.5t47 -16.5q27 0 47 16.5t21 43.5h108q-3 -75 -53.5 -117.5t-122.5 -42.5t-122 42z" />
    <glyph glyph-name="dotaccentcomb" unicode="&#x307;" horiz-adv-x="0" 
d="M-556 704h164v-140h-164v140z" />
    <glyph glyph-name="dieresiscomb" unicode="&#x308;" horiz-adv-x="0" 
d="M-480 700h140v-132h-140v132zM-268 700h140v-132h-140v132z" />
    <glyph glyph-name="hookabovecomb" unicode="&#x309;" horiz-adv-x="0" 
d="M-104 576v-38h-68v90h36q11 0 18.5 6t7.5 19q0 11 -7 17t-19 6q-11 0 -19.5 -4t-10.5 -12h-76q2 40 30.5 62t73.5 22q52 0 80 -25.5t28 -66.5q0 -67 -74 -76z" />
    <glyph glyph-name="ringcomb" unicode="&#x30a;" horiz-adv-x="0" 
d="M-383.5 566.5q-32.5 30.5 -32.5 73.5q0 45 32 74.5t80 29.5t80 -29.5t32 -74.5q0 -44 -32 -74t-80 -30q-47 0 -79.5 30.5zM-278.5 614.5q10.5 10.5 10.5 25.5t-10.5 25.5t-25.5 10.5t-25.5 -10.5t-10.5 -25.5t10.5 -25.5t25.5 -10.5t25.5 10.5z" />
    <glyph glyph-name="hungarumlautcomb" unicode="&#x30b;" horiz-adv-x="0" 
d="M-492 556l96 148h144l-144 -156h-96v8zM-304 556l96 148h148l-144 -156h-100v8z" />
    <glyph glyph-name="caroncomb" unicode="&#x30c;" horiz-adv-x="0" 
d="M-242 704h134l-130 -148h-148l-126 148h138l68 -59z" />
    <glyph glyph-name="commaturnedabovecomb" unicode="&#x312;" horiz-adv-x="0" 
d="M-240 688v-112h-120v104q2 63 44 104h72q-19 -21 -29.5 -46t-10.5 -46v-4h44z" />
    <glyph glyph-name="uni031B" unicode="&#x31b;" horiz-adv-x="0" 
d="M-28 601q12 -33 12 -62q0 -55 -41 -86t-115 -31h-50v74h50q44 0 44 50q0 29 -13 55h113z" />
    <glyph glyph-name="dotbelowcomb" unicode="&#x323;" horiz-adv-x="0" 
d="M-194 -66h164v-140h-164v140z" />
    <glyph glyph-name="commaaccent" unicode="&#x326;" horiz-adv-x="0" 
d="M-244 -40v-104q-2 -28 -13 -58t-27 -46h-64q13 22 22.5 48t9.5 44v8h-48v108h120z" />
    <glyph glyph-name="cedillacomb" unicode="&#x327;" horiz-adv-x="0" 
d="M-282.5 -73q22.5 -20 22.5 -51q0 -40 -29.5 -66t-78.5 -26q-44 0 -71.5 22t-32.5 62h76q2 -8 10 -12t18 -4q14 0 21 7t7 17q0 13 -10.5 18.5t-33.5 5.5h-36l32 100h48l-7 -45q42 -8 64.5 -28z" />
    <glyph glyph-name="ogonekcomb" unicode="&#x328;" horiz-adv-x="0" 
d="M-411.5 -189q-36.5 27 -36.5 79q0 44 30.5 79.5t85.5 50.5l76 -4v-12q-44 -20 -58.5 -42.5t-14.5 -40.5q0 -38 46 -38q20 0 43 6v-97q-38 -8 -70 -8q-65 0 -101.5 27z" />
    <glyph glyph-name="uni0335" unicode="&#x335;" horiz-adv-x="0" 
d="M-544 332h336v-80h-336v80z" />
    <glyph glyph-name="numeralsigngreek" unicode="&#x374;" horiz-adv-x="254" 
d="M20 528l42 176h172l-94 -184h-120v8z" />
    <glyph glyph-name="numeralsignlowergreek" unicode="&#x375;" horiz-adv-x="254" 
d="M10 -176l42 176h172l-94 -184h-120v8z" />
    <glyph glyph-name="questiongreek" unicode="&#x37e;" horiz-adv-x="228" 
d="M32 446h164v-164h-164v164zM32 164h164v-152q0 -50 -16 -93t-44 -71h-96q22 35 35 72t13 72v8h-56v164z" />
    <glyph glyph-name="tonos" unicode="&#x384;" 
d="M226 612q7 39 10 92h144q-7 -87 -72 -172h-108q19 41 26 80z" />
    <glyph glyph-name="dieresistonos" unicode="&#x385;" 
d="M242.5 652q5.5 39 9.5 92h128q-5 -87 -56 -172h-100q13 41 18.5 80zM56 704h132v-132h-132v132zM400 704h132v-132h-132v132z" />
    <glyph glyph-name="Alphatonos" unicode="&#x386;" horiz-adv-x="736" 
d="M564 0l-44 104h-312l-44 -104h-176l312 704h140l308 -704h-184zM268 244h192l-96 227zM18 612q7 39 10 92h144q-7 -87 -72 -172h-108q19 41 26 80z" />
    <glyph glyph-name="anoteleia" unicode="&#x387;" horiz-adv-x="236" 
d="M32 440h172v-172h-172v172z" />
    <glyph glyph-name="Epsilontonos" unicode="&#x388;" horiz-adv-x="740" 
d="M380 156h332v-156h-504v704h496v-156h-324v-124h288v-144h-288v-124zM-5 612q7 39 10 92h144q-7 -87 -72 -172h-108q19 41 26 80z" />
    <glyph glyph-name="Etatonos" unicode="&#x389;" horiz-adv-x="876" 
d="M652 704h172v-704h-172v276h-280v-276h-172v704h172v-272h280v272zM-5 612q7 39 10 92h144q-7 -87 -72 -172h-108q19 41 26 80z" />
    <glyph glyph-name="Iotatonos" unicode="&#x38a;" horiz-adv-x="413" 
d="M189 704h172v-704h-172v704zM-12 612q7 39 10 92h144q-7 -87 -72 -172h-108q19 41 26 80z" />
    <glyph glyph-name="Omicrontonos" unicode="&#x38c;" horiz-adv-x="904" 
d="M313 36q-88 48 -140.5 131.5t-52.5 184.5q0 100 52.5 183.5t140.5 132t191 48.5t191 -48t140.5 -131.5t52.5 -184.5t-52.5 -184.5t-140.5 -131.5t-191 -48t-191 48zM605 175.5q47 27.5 75 74t28 102.5t-28 102.5t-75 74t-101 27.5t-101 -27.5t-75 -74.5t-28 -102
q0 -56 28 -102.5t75 -74t101 -27.5t101 27.5zM18 612q7 39 10 92h144q-7 -87 -72 -172h-108q19 41 26 80z" />
    <glyph glyph-name="Upsilontonos" unicode="&#x38e;" horiz-adv-x="876" 
d="M700 704h196l-268 -440v-264h-172v264l-268 440h196l162 -263zM-4 612q7 39 10 92h144q-7 -87 -72 -172h-108q19 41 26 80z" />
    <glyph glyph-name="Omegatonos" unicode="&#x38f;" horiz-adv-x="924" 
d="M884 144v-144h-344v232q73 9 116.5 55.5t43.5 108.5q0 44 -24.5 80.5t-69 58t-102.5 21.5q-60 0 -104.5 -21.5t-68 -58t-23.5 -80.5q0 -63 43.5 -109.5t116.5 -54.5v-232h-344v144h192q-87 33 -137.5 99.5t-50.5 160.5q0 87 51 158.5t137.5 112.5t187.5 41t187.5 -40.5
t137.5 -112t51 -159.5q0 -93 -51.5 -160t-138.5 -100h194zM18 612q7 39 10 92h144q-7 -87 -72 -172h-108q19 41 26 80z" />
    <glyph glyph-name="iotadieresistonos" unicode="&#x390;" horiz-adv-x="284" 
d="M192 -12q-73 0 -114.5 44.5t-41.5 127.5v336h172v-320q0 -19 10.5 -29.5t25.5 -10.5q16 0 28 4v-140q-30 -12 -80 -12zM63.5 652q5.5 39 9.5 92h128q-5 -87 -56 -172h-100q13 41 18.5 80zM-123 704h132v-132h-132v132zM221 704h132v-132h-132v132z" />
    <glyph glyph-name="Alpha" unicode="&#x391;" horiz-adv-x="736" 
d="M564 0l-44 104h-312l-44 -104h-176l312 704h140l308 -704h-184zM268 244h192l-96 227z" />
    <glyph glyph-name="Beta" unicode="&#x392;" horiz-adv-x="664" 
d="M617 316q27 -43 27 -96q0 -68 -31.5 -117.5t-87.5 -76t-129 -26.5h-344v704h340q57 0 107.5 -23.5t81.5 -68t31 -104.5q0 -72 -70 -123q48 -26 75 -69zM224 556v-136h144q32 0 52 18.5t20 49.5q0 28 -20 48t-52 20h-144zM442.5 166.5q21.5 18.5 21.5 49.5q0 27 -22 47.5
t-54 20.5h-164v-136h164q33 0 54.5 18.5z" />
    <glyph glyph-name="Gamma" unicode="&#x393;" horiz-adv-x="532" 
d="M524 704v-156h-300v-548h-172v704h472z" />
    <glyph glyph-name="uni0394" unicode="&#x394;" horiz-adv-x="720" 
d="M432 704l300 -704h-744l304 704h140zM218 140h272l-136 326z" />
    <glyph glyph-name="Epsilon" unicode="&#x395;" horiz-adv-x="584" 
d="M224 156h332v-156h-504v704h496v-156h-324v-124h288v-144h-288v-124z" />
    <glyph glyph-name="Zeta" unicode="&#x396;" horiz-adv-x="664" 
d="M285 156h355v-156h-616v88l358 460h-358v156h604v-112z" />
    <glyph glyph-name="Eta" unicode="&#x397;" horiz-adv-x="728" 
d="M504 704h172v-704h-172v276h-280v-276h-172v704h172v-272h280v272z" />
    <glyph glyph-name="Theta" unicode="&#x398;" horiz-adv-x="800" 
d="M209 36q-88 48 -140.5 131.5t-52.5 184.5q0 100 52.5 183.5t140.5 132t191 48.5t191 -48t140.5 -131.5t52.5 -184.5t-52.5 -184.5t-140.5 -131.5t-191 -48t-191 48zM501 175.5q47 27.5 75 74t28 102.5t-28 102.5t-75 74t-101 27.5t-101 -27.5t-75 -74.5t-28 -102
q0 -56 28 -102.5t75 -74t101 -27.5t101 27.5zM244 404h304v-104h-304v104z" />
    <glyph glyph-name="Iota" unicode="&#x399;" horiz-adv-x="276" 
d="M52 704h172v-704h-172v704z" />
    <glyph glyph-name="Kappa" unicode="&#x39a;" horiz-adv-x="704" 
d="M704 0h-212l-268 316v-316h-172v704h172v-313l268 313h196l-297 -341z" />
    <glyph glyph-name="Lambda" unicode="&#x39b;" horiz-adv-x="720" 
d="M732 0h-184l-194 466l-194 -466h-172l304 704h140z" />
    <glyph glyph-name="Mu" unicode="&#x39c;" horiz-adv-x="860" 
d="M808 704v-704h-160v331l-164 -331h-112l-160 323v-323h-160v704h144l241 -478l223 478h148z" />
    <glyph glyph-name="Nu" unicode="&#x39d;" horiz-adv-x="716" 
d="M492 704h172v-704h-104l-336 376v-376h-172v704h100l340 -380v380z" />
    <glyph glyph-name="Xi" unicode="&#x39e;" horiz-adv-x="612" 
d="M36 704h540v-156h-540v156zM72 428h468v-152h-468v152zM28 156h556v-156h-556v156z" />
    <glyph glyph-name="Omicron" unicode="&#x39f;" horiz-adv-x="800" 
d="M209 36q-88 48 -140.5 131.5t-52.5 184.5q0 100 52.5 183.5t140.5 132t191 48.5t191 -48t140.5 -131.5t52.5 -184.5t-52.5 -184.5t-140.5 -131.5t-191 -48t-191 48zM501 175.5q47 27.5 75 74t28 102.5t-28 102.5t-75 74t-101 27.5t-101 -27.5t-75 -74.5t-28 -102
q0 -56 28 -102.5t75 -74t101 -27.5t101 27.5z" />
    <glyph glyph-name="Pi" unicode="&#x3a0;" horiz-adv-x="720" 
d="M666 704v-704h-172v548h-270v-548h-172v704h614z" />
    <glyph glyph-name="Rho" unicode="&#x3a1;" horiz-adv-x="632" 
d="M490.5 673q55.5 -31 86.5 -84.5t31 -120.5q0 -64 -30 -117t-85.5 -84t-128.5 -31h-140v-236h-172v704h312q71 0 126.5 -31zM402.5 404q25.5 24 25.5 64q0 39 -26 61.5t-66 22.5h-112v-172h112q41 0 66.5 24z" />
    <glyph glyph-name="Sigma" unicode="&#x3a3;" horiz-adv-x="624" 
d="M273 156h307v-156h-556v88l198 260l-190 244v112h540v-156h-290l138 -180v-24z" />
    <glyph glyph-name="Tau" unicode="&#x3a4;" horiz-adv-x="632" 
d="M624 704v-156h-220v-548h-172v548h-224v156h616z" />
    <glyph glyph-name="Upsilon" unicode="&#x3a5;" horiz-adv-x="668" 
d="M492 704h196l-268 -440v-264h-172v264l-268 440h196l162 -263z" />
    <glyph glyph-name="Phi" unicode="&#x3a6;" horiz-adv-x="828" 
d="M733.5 159.5q-82.5 -75.5 -237.5 -91.5v-68h-164v68q-155 16 -237.5 91.5t-82.5 192.5q0 116 84 191.5t236 92.5v68h164v-68q152 -17 236 -92.5t84 -191.5q0 -117 -82.5 -192.5zM332 210v284q-140 -25 -140 -142t140 -142zM636 352q0 117 -140 142v-284q140 25 140 142z
" />
    <glyph glyph-name="Chi" unicode="&#x3a7;" horiz-adv-x="712" 
d="M716 0h-200l-161 226l-159 -226h-200l259 368l-239 336h196l141 -197l139 197h204l-242 -338z" />
    <glyph glyph-name="Psi" unicode="&#x3a8;" horiz-adv-x="874" 
d="M825 704v-240q0 -138 -76 -222.5t-232 -101.5v-140h-162v140q-157 17 -231.5 101t-74.5 223v240h172v-240q0 -143 134 -172v412h162v-414q70 13 103 55t33 119v240h172z" />
    <glyph glyph-name="uni03A9" unicode="&#x3a9;" horiz-adv-x="840" 
d="M800 144v-144h-344v232q73 9 116.5 55.5t43.5 108.5q0 44 -24.5 80.5t-69 58t-102.5 21.5q-60 0 -104.5 -21.5t-68 -58t-23.5 -80.5q0 -63 43.5 -109.5t116.5 -54.5v-232h-344v144h192q-87 33 -137.5 99.5t-50.5 160.5q0 87 51 158.5t137.5 112.5t187.5 41t187.5 -40.5
t137.5 -112t51 -159.5q0 -93 -51.5 -160t-138.5 -100h194z" />
    <glyph glyph-name="Iotadieresis" unicode="&#x3aa;" horiz-adv-x="276" 
d="M52 704h172v-704h-172v704zM-39 908h140v-132h-140v132zM173 908h140v-132h-140v132z" />
    <glyph glyph-name="Upsilondieresis" unicode="&#x3ab;" horiz-adv-x="668" 
d="M492 704h196l-268 -440v-264h-172v264l-268 440h196l162 -263zM158 908h140v-132h-140v132zM370 908h140v-132h-140v132z" />
    <glyph glyph-name="alphatonos" unicode="&#x3ac;" horiz-adv-x="632" 
d="M620 140v-140q-30 -12 -80 -12q-86 0 -127 61q-49 -61 -141 -61q-71 0 -129.5 34t-92.5 93.5t-34 132.5t35 132.5t94.5 93.5t130.5 34q37 0 73 -13t60 -33l27 34h120v-320q0 -19 10.5 -29.5t25.5 -10.5q16 0 28 4zM348 145.5q21 9.5 36 25.5v154q-14 17 -35 26t-45 9
q-49 0 -80.5 -32.5t-31.5 -79.5t31 -79.5t81 -32.5q23 0 44 9.5zM254 612q7 39 10 92h144q-7 -87 -72 -172h-108q19 41 26 80z" />
    <glyph glyph-name="epsilontonos" unicode="&#x3ad;" horiz-adv-x="508" 
d="M427.5 32q-63.5 -44 -179.5 -44q-72 0 -124.5 20t-80 55.5t-27.5 80.5q0 78 71 113q-63 33 -63 99q0 67 58.5 109.5t173.5 42.5q121 0 177 -51t55 -129h-160q2 60 -72 60q-30 0 -47 -11t-17 -29q0 -20 15 -32t41 -12h76v-112h-72q-37 0 -52.5 -13t-15.5 -31q0 -40 72 -40
q41 0 60.5 12t23.5 44h150q1 -88 -62.5 -132zM214 612q7 39 10 92h144q-7 -87 -72 -172h-108q19 41 26 80z" />
    <glyph glyph-name="etatonos" unicode="&#x3ae;" horiz-adv-x="572" 
d="M440.5 481.5q46.5 -26.5 71 -73t24.5 -104.5v-512h-172v484q0 36 -20 58t-56 22q-25 0 -45 -12t-31 -28v-316h-172v496h120l34 -58q52 70 138 70q62 0 108.5 -26.5zM250 612q7 39 10 92h144q-7 -87 -72 -172h-108q19 41 26 80z" />
    <glyph glyph-name="iotatonos" unicode="&#x3af;" horiz-adv-x="284" 
d="M192 -12q-73 0 -114.5 44.5t-41.5 127.5v336h172v-320q0 -19 10.5 -29.5t25.5 -10.5q16 0 28 4v-140q-30 -12 -80 -12zM75 612q7 39 10 92h144q-7 -87 -72 -172h-108q19 41 26 80z" />
    <glyph glyph-name="upsilondieresistonos" unicode="&#x3b0;" horiz-adv-x="561" 
d="M135 16.5q-51 28.5 -75 74.5t-24 101v304h172v-280q0 -80 68 -80q84 0 84 136q0 61 -13 116t-46 108h176q55 -94 55 -216q0 -129 -63.5 -210.5t-204.5 -81.5q-78 0 -129 28.5zM226.5 652q5.5 39 9.5 92h128q-5 -87 -56 -172h-100q13 41 18.5 80zM40 704h132v-132h-132
v132zM384 704h132v-132h-132v132z" />
    <glyph glyph-name="alpha" unicode="&#x3b1;" horiz-adv-x="632" 
d="M620 140v-140q-30 -12 -80 -12q-86 0 -127 61q-49 -61 -141 -61q-71 0 -129.5 34t-92.5 93.5t-34 132.5t35 132.5t94.5 93.5t130.5 34q37 0 73 -13t60 -33l27 34h120v-320q0 -19 10.5 -29.5t25.5 -10.5q16 0 28 4zM348 145.5q21 9.5 36 25.5v154q-14 17 -35 26t-45 9
q-49 0 -80.5 -32.5t-31.5 -79.5t31 -79.5t81 -32.5q23 0 44 9.5z" />
    <glyph glyph-name="beta" unicode="&#x3b2;" horiz-adv-x="592" 
d="M548 305.5q28 -47.5 28 -101.5q0 -61 -31.5 -110t-87.5 -77.5t-125 -28.5q-70 0 -120 33v-229h-172v676q0 70 28.5 126t85 89t134.5 33q81 0 139 -27.5t87.5 -72.5t29.5 -96q0 -45 -20 -82t-59 -60q55 -25 83 -72.5zM373.5 154q26.5 22 26.5 58q0 34 -26 57t-66 23h-52
v132h44q33 0 52.5 20.5t19.5 55.5q0 32 -23 52t-57 20q-38 0 -59 -25.5t-21 -66.5v-312q15 -16 39 -26t53 -10q43 0 69.5 22z" />
    <glyph glyph-name="gamma" unicode="&#x3b3;" horiz-adv-x="568" 
d="M490.5 250.5q-56.5 -135.5 -122.5 -245.5v-213h-172v219l-204 485h188l119 -325q60 148 101 325h172q-25 -110 -81.5 -245.5z" />
    <glyph glyph-name="delta" unicode="&#x3b4;" 
d="M518.5 396.5q65.5 -64.5 65.5 -164.5q0 -66 -35.5 -122t-100 -89t-148.5 -33t-148.5 32.5t-100 88t-35.5 123.5q0 76 42 130.5t116 80.5q-86 38 -86 125q0 72 65 110t167 38q104 0 180 -26v-132q-83 22 -152 22q-48 0 -68 -7t-20 -25q0 -14 17 -25t55 -23
q121 -39 186.5 -103.5zM377 156.5q31 28.5 31 75.5t-31 75.5t-77 28.5q-45 0 -76.5 -27.5t-31.5 -76.5q0 -47 31 -75.5t77 -28.5t77 28.5z" />
    <glyph glyph-name="epsilon" unicode="&#x3b5;" horiz-adv-x="508" 
d="M427.5 32q-63.5 -44 -179.5 -44q-72 0 -124.5 20t-80 55.5t-27.5 80.5q0 78 71 113q-63 33 -63 99q0 67 58.5 109.5t173.5 42.5q121 0 177 -51t55 -129h-160q2 60 -72 60q-30 0 -47 -11t-17 -29q0 -20 15 -32t41 -12h76v-112h-72q-37 0 -52.5 -13t-15.5 -31q0 -40 72 -40
q41 0 60.5 12t23.5 44h150q1 -88 -62.5 -132z" />
    <glyph glyph-name="zeta" unicode="&#x3b6;" horiz-adv-x="468" 
d="M431 45.5q25 -35.5 25 -69.5q0 -73 -62 -148h-162q60 64 60 104q0 15 -16 31t-56 37l-52 28q-70 38 -109 91.5t-39 132.5q0 83 45.5 159.5t144.5 160.5h-198v132h424v-104q-115 -90 -177.5 -166.5t-62.5 -161.5q0 -32 12 -53.5t34.5 -38t69.5 -44.5l48 -28
q46 -27 71 -62.5z" />
    <glyph glyph-name="eta" unicode="&#x3b7;" horiz-adv-x="572" 
d="M440.5 481.5q46.5 -26.5 71 -73t24.5 -104.5v-512h-172v484q0 36 -20 58t-56 22q-25 0 -45 -12t-31 -28v-316h-172v496h120l34 -58q52 70 138 70q62 0 108.5 -26.5z" />
    <glyph glyph-name="theta" unicode="&#x3b8;" horiz-adv-x="592" 
d="M494.5 625q73.5 -91 73.5 -273t-73.5 -273t-198.5 -91t-198.5 91t-73.5 273t73.5 273t198.5 91t198.5 -91zM231 535q-23 -37 -29 -123h188q-6 85 -29.5 122.5t-64.5 37.5q-42 0 -65 -37zM358.5 167q23.5 35 30.5 113h-186q7 -79 30 -113.5t63 -34.5q39 0 62.5 35z" />
    <glyph glyph-name="iota" unicode="&#x3b9;" horiz-adv-x="284" 
d="M192 -12q-73 0 -114.5 44.5t-41.5 127.5v336h172v-320q0 -19 10.5 -29.5t25.5 -10.5q16 0 28 4v-140q-30 -12 -80 -12z" />
    <glyph glyph-name="kappa" unicode="&#x3ba;" horiz-adv-x="544" 
d="M556 0h-196l-148 202v-202h-172v496h172v-202l148 202h192l-191 -238z" />
    <glyph glyph-name="lambda" unicode="&#x3bb;" horiz-adv-x="556" 
d="M392 0l-119 303l-117 -303h-164l203 502l-11 26q-8 21 -22.5 30.5t-45.5 9.5q-26 0 -47 -7l2 142q35 13 73 13q53 0 88.5 -16t62.5 -53t53 -103l216 -544h-172z" />
    <glyph glyph-name="uni03BC" unicode="&#x3bc;" horiz-adv-x="604" 
d="M592 140v-140q-30 -12 -80 -12q-95 0 -133 71q-36 -71 -119 -71q-35 0 -64 18v-214h-164v704h172v-276q0 -37 20 -58.5t56 -21.5q25 0 45 11.5t31 28.5v316h172v-320q0 -19 10 -29.5t26 -10.5t28 4z" />
    <glyph glyph-name="nu" unicode="&#x3bd;" horiz-adv-x="548" 
d="M556 496q-26 -117 -86.5 -248t-141.5 -248h-112l-224 496h184l118 -284q69 143 103 284h159z" />
    <glyph glyph-name="xi" unicode="&#x3be;" horiz-adv-x="528" 
d="M475 47q25 -35 25 -71q0 -39 -16 -75t-46 -73h-162q60 63 60 96q0 21 -14.5 37t-57.5 39l-52 28q-78 42 -119 86t-41 110q0 57 31 100.5t91 67.5q-49 22 -73.5 60t-24.5 88q0 49 27.5 89t83.5 63.5t137 23.5q103 0 164 -20v-144q-61 24 -132 24q-52 0 -78 -16t-26 -44
q0 -34 29 -53t87 -19h80v-132h-108q-112 0 -112 -68q0 -25 17 -40t66 -42l45 -26l48 -28q46 -26 71 -61z" />
    <glyph glyph-name="omicron" unicode="&#x3bf;" 
d="M153 22q-65 34 -101 93t-36 133t36 133t101 93t147 34t147 -34t101 -93t36 -133t-36 -133t-101 -93t-147 -34t-147 34zM378 164.5q30 32.5 30 83.5t-30 83.5t-78 32.5t-78 -32.5t-30 -83.5t30 -83.5t78 -32.5t78 32.5z" />
    <glyph glyph-name="pi" unicode="&#x3c0;" horiz-adv-x="676" 
d="M552 364v-188q0 -19 10.5 -29.5t25.5 -10.5q19 0 36 7v-139q-29 -16 -88 -16q-73 0 -114.5 44.5t-41.5 127.5v204h-100v-364h-172v364h-96v132h652v-132h-112z" />
    <glyph glyph-name="rho" unicode="&#x3c1;" horiz-adv-x="584" 
d="M442 472.5q62 -35.5 94 -94t32 -126.5q0 -74 -33.5 -134t-92 -95t-130.5 -35q-58 0 -104 24v-220h-172v456q0 131 72.5 195.5t187.5 64.5q84 0 146 -35.5zM365 162q27 30 27 90q0 52 -24 82t-68 30q-48 0 -70 -32.5t-22 -87.5v-76q14 -17 38.5 -26.5t49.5 -9.5
q42 0 69 30z" />
    <glyph glyph-name="sigma1" unicode="&#x3c2;" horiz-adv-x="544" 
d="M301 -114.5q15 24.5 15 38.5q0 19 -8.5 31t-20.5 20t-43 25l-52 28q-57 31 -93.5 59.5t-59.5 71.5t-23 105q0 66 29.5 121.5t87.5 89t139 33.5q108 0 175.5 -55t86.5 -161h-168q-25 60 -90 60q-34 0 -59 -22.5t-25 -57.5q0 -30 11 -47.5t36.5 -33.5t96.5 -55l52 -28
q48 -26 70 -60.5t22 -67.5q0 -42 -16 -78.5t-46 -73.5h-162q30 33 45 57.5z" />
    <glyph glyph-name="sigma" unicode="&#x3c3;" horiz-adv-x="648" 
d="M636 364h-108q56 -56 56 -136q0 -62 -37 -117.5t-102 -89t-145 -33.5q-81 0 -145.5 34.5t-101.5 94t-37 131.5t36.5 128.5t101.5 88t146 31.5h336v-132zM377.5 167.5q30.5 31.5 30.5 80.5q0 48 -30.5 80t-77.5 32t-77.5 -31.5t-30.5 -80.5t30.5 -80.5t77.5 -31.5
t77.5 31.5z" />
    <glyph glyph-name="tau" unicode="&#x3c4;" horiz-adv-x="460" 
d="M312 364v-188q0 -19 11.5 -29.5t28.5 -10.5q23 0 44 8v-141q-43 -15 -92 -15q-80 0 -122 44t-42 128v204h-128v132h436v-132h-136z" />
    <glyph glyph-name="upsilon" unicode="&#x3c5;" horiz-adv-x="561" 
d="M135 16.5q-51 28.5 -75 74.5t-24 101v304h172v-280q0 -80 68 -80q84 0 84 136q0 61 -13 116t-46 108h176q55 -94 55 -216q0 -129 -63.5 -210.5t-204.5 -81.5q-78 0 -129 28.5z" />
    <glyph glyph-name="phi" unicode="&#x3c6;" horiz-adv-x="784" 
d="M690 84.5q-78 -72.5 -215 -90.5v-202h-170v201q-130 17 -201.5 92.5t-71.5 198.5q0 116 73 212h182q-83 -96 -83 -204q0 -64 23 -102t78 -51v121q0 122 62 185t165 63q70 0 123.5 -28.5t83 -81t29.5 -122.5q0 -119 -78 -191.5zM561.5 188.5q30.5 35.5 30.5 91.5
q0 39 -14.5 61.5t-41.5 22.5q-33 0 -47 -22t-14 -66v-137q56 14 86.5 49.5z" />
    <glyph glyph-name="chi" unicode="&#x3c7;" horiz-adv-x="596" 
d="M616 -208h-184l-136 234l-134 -234h-182l228 386l-184 318h184l92 -159l92 159h180l-184 -311z" />
    <glyph glyph-name="psi" unicode="&#x3c8;" horiz-adv-x="748" 
d="M654 91.5q-66 -79.5 -206 -98.5v-201h-144v199q-129 12 -198.5 74.5t-69.5 166.5v264h172v-236q0 -49 22.5 -78.5t73.5 -39.5v474h144v-471q55 14 77.5 52t22.5 99q0 107 -20 200h165q27 -95 27 -200q0 -125 -66 -204.5z" />
    <glyph glyph-name="omega" unicode="&#x3c9;" horiz-adv-x="800" 
d="M754.5 380q17.5 -60 17.5 -112q0 -132 -57.5 -206t-158.5 -74q-58 0 -97.5 19t-61.5 66q-23 -47 -61 -66t-92 -19q-103 0 -159.5 73t-56.5 203q0 65 15.5 121.5t52.5 110.5h177q-40 -60 -54.5 -110.5t-14.5 -117.5q0 -73 14.5 -102.5t49.5 -29.5q32 0 44 29t12 103v124
h152v-124q0 -75 11.5 -103.5t44.5 -28.5q34 0 49 29.5t15 102.5q0 109 -66 228h175q32 -56 49.5 -116z" />
    <glyph glyph-name="iotadieresis" unicode="&#x3ca;" horiz-adv-x="284" 
d="M192 -12q-73 0 -114.5 44.5t-41.5 127.5v336h172v-320q0 -19 10.5 -29.5t25.5 -10.5q16 0 28 4v-140q-30 -12 -80 -12zM-55 700h140v-132h-140v132zM157 700h140v-132h-140v132z" />
    <glyph glyph-name="upsilondieresis" unicode="&#x3cb;" horiz-adv-x="561" 
d="M135 16.5q-51 28.5 -75 74.5t-24 101v304h172v-280q0 -80 68 -80q84 0 84 136q0 61 -13 116t-46 108h176q55 -94 55 -216q0 -129 -63.5 -210.5t-204.5 -81.5q-78 0 -129 28.5zM108 700h140v-132h-140v132zM320 700h140v-132h-140v132z" />
    <glyph glyph-name="omicrontonos" unicode="&#x3cc;" 
d="M153 22q-65 34 -101 93t-36 133t36 133t101 93t147 34t147 -34t101 -93t36 -133t-36 -133t-101 -93t-147 -34t-147 34zM378 164.5q30 32.5 30 83.5t-30 83.5t-78 32.5t-78 -32.5t-30 -83.5t30 -83.5t78 -32.5t78 32.5zM254 612q7 39 10 92h144q-7 -87 -72 -172h-108
q19 41 26 80z" />
    <glyph glyph-name="upsilontonos" unicode="&#x3cd;" horiz-adv-x="561" 
d="M135 16.5q-51 28.5 -75 74.5t-24 101v304h172v-280q0 -80 68 -80q84 0 84 136q0 61 -13 116t-46 108h176q55 -94 55 -216q0 -129 -63.5 -210.5t-204.5 -81.5q-78 0 -129 28.5zM238 612q7 39 10 92h144q-7 -87 -72 -172h-108q19 41 26 80z" />
    <glyph glyph-name="omegatonos" unicode="&#x3ce;" horiz-adv-x="800" 
d="M754.5 380q17.5 -60 17.5 -112q0 -132 -57.5 -206t-158.5 -74q-58 0 -97.5 19t-61.5 66q-23 -47 -61 -66t-92 -19q-103 0 -159.5 73t-56.5 203q0 65 15.5 121.5t52.5 110.5h177q-40 -60 -54.5 -110.5t-14.5 -117.5q0 -73 14.5 -102.5t49.5 -29.5q32 0 44 29t12 103v124
h152v-124q0 -75 11.5 -103.5t44.5 -28.5q34 0 49 29.5t15 102.5q0 109 -66 228h175q32 -56 49.5 -116zM354 612q7 39 10 92h144q-7 -87 -72 -172h-108q19 41 26 80z" />
    <glyph glyph-name="uni0400" unicode="&#x400;" horiz-adv-x="584" 
d="M224 156h332v-156h-504v704h496v-156h-324v-124h288v-144h-288v-124zM118 912h172l64 -136v-8h-120z" />
    <glyph glyph-name="uni0401" unicode="&#x401;" horiz-adv-x="584" 
d="M224 156h332v-156h-504v704h496v-156h-324v-124h288v-144h-288v-124zM116 912h140v-132h-140v132zM328 912h140v-132h-140v132z" />
    <glyph glyph-name="uni0402" unicode="&#x402;" horiz-adv-x="820" 
d="M684.5 417.5q56.5 -30.5 88 -82.5t31.5 -115q0 -65 -32 -118t-89 -83.5t-127 -30.5q-49 0 -84 13v147q30 -12 64 -12q40 0 64 21t24 59t-27.5 59t-68.5 21q-75 0 -124 -56v-240h-172v548h-224v156h616v-156h-220v-161q30 28 69 44.5t83 16.5q72 0 128.5 -30.5z" />
    <glyph glyph-name="uni0403" unicode="&#x403;" horiz-adv-x="532" 
d="M524 704v-156h-300v-548h-172v704h472zM210 776l64 136h172l-116 -144h-120v8z" />
    <glyph glyph-name="uni0404" unicode="&#x404;" horiz-adv-x="752" 
d="M730 240q-18 -70 -65 -127t-121.5 -91t-171.5 -34q-102 0 -183.5 48t-127 131.5t-45.5 184.5q0 103 46.5 186t129 130.5t184.5 47.5q93 0 165.5 -33t119.5 -89t66 -126h-184q-22 41 -64 64.5t-99 23.5q-68 0 -113 -35t-62 -97h283v-144h-283q17 -62 62 -97t113 -35
q122 0 166 92h184z" />
    <glyph glyph-name="uni0405" unicode="&#x405;" horiz-adv-x="648" 
d="M91.5 51q-68.5 63 -69.5 177h179q0 -47 27.5 -65.5t91.5 -18.5q68 0 94 14t26 46q0 26 -26 40.5t-82 23.5l-68 12q-114 20 -175 70t-61 146q0 103 72.5 161.5t219.5 58.5q157 0 222 -64t65 -172h-174q0 41 -26 60.5t-83 19.5q-46 0 -70 -5.5t-33 -17t-9 -33.5
q0 -26 25.5 -40.5t94.5 -27.5l64 -12q112 -21 172 -68t60 -144q0 -224 -308 -224q-160 0 -228.5 63z" />
    <glyph glyph-name="uni0406" unicode="&#x406;" horiz-adv-x="276" 
d="M52 704h172v-704h-172v704z" />
    <glyph glyph-name="uni0407" unicode="&#x407;" horiz-adv-x="276" 
d="M52 704h172v-704h-172v704zM-36 912h140v-132h-140v132zM176 912h140v-132h-140v132z" />
    <glyph glyph-name="uni0408" unicode="&#x408;" horiz-adv-x="572" 
d="M93 45.5q-67 57.5 -76 170.5h165q8 -42 29 -59t61 -17q46 0 67 22.5t21 61.5v480h172v-476q0 -76 -33.5 -130t-91.5 -82t-131 -28q-116 0 -183 57.5z" />
    <glyph glyph-name="uni0409" unicode="&#x409;" horiz-adv-x="1060" 
d="M914.5 420q59.5 -28 90.5 -78t31 -114q0 -67 -31.5 -118.5t-91.5 -80.5t-141 -29h-288v548h-172v-124q0 -165 -27 -261t-77 -135t-124 -40q-45 0 -84 12v148q24 -8 48 -8q36 0 55.5 18t30 74t10.5 168v304h512v-256h116q83 0 142.5 -28zM830.5 171q25.5 19 25.5 57
t-25.5 57t-66.5 19h-108v-152h108q41 0 66.5 19z" />
    <glyph glyph-name="uni040A" unicode="&#x40a;" horiz-adv-x="1092" 
d="M946.5 419q59.5 -29 90.5 -79.5t31 -115.5q0 -67 -31.5 -117.5t-91 -78.5t-141.5 -28h-300v296h-280v-296h-172v704h172v-260h280v260h172v-256h128q83 0 142.5 -29zM862.5 170q25.5 18 25.5 54t-25.5 54t-66.5 18h-120v-144h120q41 0 66.5 18z" />
    <glyph glyph-name="uni040B" unicode="&#x40b;" horiz-adv-x="836" 
d="M729 362.5q67 -65.5 67 -178.5v-184h-172v168q0 52 -31.5 80t-80.5 28q-36 0 -65 -15.5t-43 -36.5v-224h-172v548h-224v156h616v-156h-220v-179q29 28 66 43.5t78 15.5q114 0 181 -65.5z" />
    <glyph glyph-name="uni040C" unicode="&#x40c;" horiz-adv-x="696" 
d="M421 358l283 -358h-212l-212 280h-56v-280h-172v704h172v-280h60l208 280h196zM286 776l64 136h172l-116 -144h-120v8z" />
    <glyph glyph-name="uni040D" unicode="&#x40d;" horiz-adv-x="716" 
d="M664 704v-704h-172v388l-336 -388h-104v704h172v-404l340 404h100zM194 916h172l64 -136v-8h-120z" />
    <glyph glyph-name="uni040E" unicode="&#x40e;" horiz-adv-x="652" 
d="M676 704l-268 -556q-33 -69 -94.5 -112.5t-145.5 -43.5q-33 0 -68 6v148q31 -6 64 -6q31 0 64 18t49 48l-293 498h192l180 -322l144 322h176zM226 794q-50 42 -54 118h108q2 -27 21 -43.5t47 -16.5q27 0 47 16.5t21 43.5h108q-3 -75 -53.5 -117.5t-122.5 -42.5t-122 42z
" />
    <glyph glyph-name="uni040F" unicode="&#x40f;" horiz-adv-x="720" 
d="M496 704h172v-704h-216l-32 -172h-120l-32 172h-216v704h172v-548h272v548z" />
    <glyph glyph-name="uni0410" unicode="&#x410;" horiz-adv-x="736" 
d="M564 0l-44 104h-312l-44 -104h-176l312 704h140l308 -704h-184zM268 244h192l-96 227z" />
    <glyph glyph-name="uni0411" unicode="&#x411;" horiz-adv-x="640" 
d="M494.5 413q59.5 -27 90.5 -76t31 -113q0 -67 -31.5 -117.5t-91 -78.5t-141.5 -28h-300v704h520v-156h-348v-108h128q83 0 142.5 -27zM410.5 167q25.5 19 25.5 57q0 37 -25 54.5t-67 17.5h-120v-148h120q41 0 66.5 19z" />
    <glyph glyph-name="uni0412" unicode="&#x412;" horiz-adv-x="664" 
d="M617 316q27 -43 27 -96q0 -68 -31.5 -117.5t-87.5 -76t-129 -26.5h-344v704h340q57 0 107.5 -23.5t81.5 -68t31 -104.5q0 -72 -70 -123q48 -26 75 -69zM224 556v-136h144q32 0 52 18.5t20 49.5q0 28 -20 48t-52 20h-144zM442.5 166.5q21.5 18.5 21.5 49.5q0 27 -22 47.5
t-54 20.5h-164v-136h164q33 0 54.5 18.5z" />
    <glyph glyph-name="uni0413" unicode="&#x413;" horiz-adv-x="532" 
d="M524 704v-156h-300v-548h-172v704h472z" />
    <glyph glyph-name="uni0414" unicode="&#x414;" horiz-adv-x="800" 
d="M788 156v-312h-112l-36 156h-480l-36 -156h-112v312h65q36 34 51.5 100t15.5 168v280h556v-548h88zM300 269.5q-16 -66.5 -53 -113.5h281v392h-212v-112q0 -100 -16 -166.5z" />
    <glyph glyph-name="uni0415" unicode="&#x415;" horiz-adv-x="584" 
d="M224 156h332v-156h-504v704h496v-156h-324v-124h288v-144h-288v-124z" />
    <glyph glyph-name="uni0416" unicode="&#x416;" horiz-adv-x="1020" 
d="M779 358l249 -358h-204l-184 280h-44v-280h-172v280h-44l-184 -280h-204l249 358l-233 346h196l180 -280h40v280h172v-280h44l180 280h192z" />
    <glyph glyph-name="uni0417" unicode="&#x417;" 
d="M563 302.5q25 -43.5 25 -94.5q0 -63 -36.5 -113.5t-102 -78.5t-149.5 -28q-76 0 -140 25.5t-103.5 74.5t-42.5 116h169q9 -34 40.5 -49t72.5 -15q53 0 82.5 19.5t29.5 52.5q0 34 -28.5 55t-79.5 21h-76v132h72q45 0 72.5 18t27.5 50q0 34 -28.5 55t-79.5 21
q-98 0 -110 -76h-165q6 100 78 164t209 64q80 0 141 -28.5t94 -75.5t33 -100q0 -96 -80 -141q50 -25 75 -68.5z" />
    <glyph glyph-name="uni0418" unicode="&#x418;" horiz-adv-x="716" 
d="M664 704v-704h-172v388l-336 -388h-104v704h172v-404l340 404h100z" />
    <glyph glyph-name="uni0419" unicode="&#x419;" horiz-adv-x="716" 
d="M664 704v-704h-172v388l-336 -388h-104v704h172v-404l340 404h100zM246 798q-50 42 -54 118h108q2 -27 21 -43.5t47 -16.5q27 0 47 16.5t21 43.5h108q-3 -75 -53.5 -117.5t-122.5 -42.5t-122 42z" />
    <glyph glyph-name="uni041A" unicode="&#x41a;" horiz-adv-x="696" 
d="M421 358l283 -358h-212l-212 280h-56v-280h-172v704h172v-280h60l208 280h196z" />
    <glyph glyph-name="uni041B" unicode="&#x41b;" horiz-adv-x="736" 
d="M684 0h-172v548h-200v-124q0 -141 -19.5 -235.5t-71 -147.5t-143.5 -53q-42 0 -78 12v148q24 -8 48 -8q36 0 55.5 18t30 74t10.5 168v304h540v-704z" />
    <glyph glyph-name="uni041C" unicode="&#x41c;" horiz-adv-x="860" 
d="M808 704v-704h-160v331l-164 -331h-112l-160 323v-323h-160v704h144l241 -478l223 478h148z" />
    <glyph glyph-name="uni041D" unicode="&#x41d;" horiz-adv-x="728" 
d="M504 704h172v-704h-172v276h-280v-276h-172v704h172v-272h280v272z" />
    <glyph glyph-name="uni041E" unicode="&#x41e;" horiz-adv-x="800" 
d="M209 36q-88 48 -140.5 131.5t-52.5 184.5q0 100 52.5 183.5t140.5 132t191 48.5t191 -48t140.5 -131.5t52.5 -184.5t-52.5 -184.5t-140.5 -131.5t-191 -48t-191 48zM501 175.5q47 27.5 75 74t28 102.5t-28 102.5t-75 74t-101 27.5t-101 -27.5t-75 -74.5t-28 -102
q0 -56 28 -102.5t75 -74t101 -27.5t101 27.5z" />
    <glyph glyph-name="uni041F" unicode="&#x41f;" horiz-adv-x="728" 
d="M676 704v-704h-172v548h-280v-548h-172v704h624z" />
    <glyph glyph-name="uni0420" unicode="&#x420;" horiz-adv-x="632" 
d="M490.5 673q55.5 -31 86.5 -84.5t31 -120.5q0 -64 -30 -117t-85.5 -84t-128.5 -31h-140v-236h-172v704h312q71 0 126.5 -31zM402.5 404q25.5 24 25.5 64q0 39 -26 61.5t-66 22.5h-112v-172h112q41 0 66.5 24z" />
    <glyph glyph-name="uni0421" unicode="&#x421;" horiz-adv-x="744" 
d="M183 35.5q-79 47.5 -123 130.5t-44 186q0 102 45 185.5t125 131t182 47.5q100 0 175 -38.5t119.5 -103t56.5 -142.5h-180q-17 53 -60.5 88.5t-106.5 35.5q-84 0 -130 -57.5t-46 -146.5t46 -146.5t130 -57.5q70 0 111 33.5t60 94.5h178q-11 -77 -55 -142.5t-121 -105.5
t-181 -40q-102 0 -181 47.5z" />
    <glyph glyph-name="uni0422" unicode="&#x422;" horiz-adv-x="632" 
d="M624 704v-156h-220v-548h-172v548h-224v156h616z" />
    <glyph glyph-name="uni0423" unicode="&#x423;" horiz-adv-x="652" 
d="M676 704l-268 -556q-33 -69 -94.5 -112.5t-145.5 -43.5q-33 0 -68 6v148q31 -6 64 -6q31 0 64 18t49 48l-293 498h192l180 -322l144 322h176z" />
    <glyph glyph-name="uni0424" unicode="&#x424;" horiz-adv-x="864" 
d="M810 211.5q-42 -63.5 -118.5 -98.5t-175.5 -37v-88h-172v88q-96 3 -171.5 38.5t-118 98.5t-42.5 147t42.5 147t118 98.5t171.5 38.5v72h172v-72q99 -2 175.5 -37t118.5 -98.5t42 -148.5t-42 -148.5zM344 220v280h-4q-68 0 -108 -38t-40 -102q0 -66 39.5 -103t108.5 -37h4
zM632.5 257q39.5 37 39.5 103q0 64 -40 102t-108 38h-8v-280h8q69 0 108.5 37z" />
    <glyph glyph-name="uni0425" unicode="&#x425;" horiz-adv-x="712" 
d="M716 0h-200l-161 226l-159 -226h-200l259 368l-239 336h196l141 -197l139 197h204l-242 -338z" />
    <glyph glyph-name="uni0426" unicode="&#x426;" horiz-adv-x="772" 
d="M668 156h92v-312h-112l-36 156h-560v704h172v-548h272v548h172v-548z" />
    <glyph glyph-name="uni0427" unicode="&#x427;" horiz-adv-x="672" 
d="M620 704v-704h-172v284q-34 -31 -73 -45.5t-87 -14.5q-76 0 -134 30t-90 86.5t-32 135.5v228h172v-212q0 -58 32.5 -87t87.5 -29q33 0 70.5 16.5t53.5 35.5v276h172z" />
    <glyph glyph-name="uni0428" unicode="&#x428;" horiz-adv-x="1060" 
d="M836 704h172v-704h-956v704h172v-548h220v548h172v-548h220v548z" />
    <glyph glyph-name="uni0429" unicode="&#x429;" horiz-adv-x="1112" 
d="M1008 156h92v-312h-112l-36 156h-900v704h172v-548h220v548h172v-548h220v548h172v-548z" />
    <glyph glyph-name="uni042A" unicode="&#x42a;" horiz-adv-x="784" 
d="M638.5 420q59.5 -28 90.5 -78t31 -114q0 -67 -31.5 -118.5t-91.5 -80.5t-141 -29h-300v548h-188v156h360v-256h128q83 0 142.5 -28zM554.5 171q25.5 19 25.5 57t-25.5 57t-66.5 19h-120v-152h120q41 0 66.5 19z" />
    <glyph glyph-name="uni042B" unicode="&#x42b;" horiz-adv-x="892" 
d="M494.5 420q59.5 -28 90.5 -78t31 -114q0 -67 -31.5 -118.5t-91.5 -80.5t-141 -29h-300v704h172v-256h128q83 0 142.5 -28zM668 704h172v-704h-172v704zM410.5 171q25.5 19 25.5 57t-25.5 57t-66.5 19h-120v-152h120q41 0 66.5 19z" />
    <glyph glyph-name="uni042C" unicode="&#x42c;" horiz-adv-x="640" 
d="M494.5 420q59.5 -28 90.5 -78t31 -114q0 -67 -31.5 -118.5t-91.5 -80.5t-141 -29h-300v704h172v-256h128q83 0 142.5 -28zM410.5 171q25.5 19 25.5 57t-25.5 57t-66.5 19h-120v-152h120q41 0 66.5 19z" />
    <glyph glyph-name="uni042D" unicode="&#x42d;" horiz-adv-x="752" 
d="M563 668.5q82 -47.5 127.5 -130.5t45.5 -186q0 -102 -44.5 -185t-125.5 -131t-186 -48q-97 0 -171.5 34t-121.5 91t-65 127h180q48 -92 170 -92q68 0 113 35t62 97h-283v144h283q-17 62 -62 97t-113 35q-58 0 -101 -23.5t-66 -64.5h-180q19 70 66 126t119.5 89t165.5 33
q105 0 187 -47.5z" />
    <glyph glyph-name="uni042E" unicode="&#x42e;" horiz-adv-x="1064" 
d="M868.5 668q83.5 -48 131.5 -131.5t48 -184.5t-48 -184.5t-131.5 -131.5t-184.5 -48q-88 0 -163.5 37t-126 102.5t-67.5 148.5h-103v-276h-172v704h172v-272h104q17 82 68 147t125.5 101t162.5 36q101 0 184.5 -48zM778.5 175q42.5 27 66 73.5t23.5 103.5t-23.5 103.5
t-66 73.5t-94.5 27t-94.5 -27t-66 -73.5t-23.5 -103.5t23.5 -103.5t66 -73.5t94.5 -27t94.5 27z" />
    <glyph glyph-name="uni042F" unicode="&#x42f;" horiz-adv-x="664" 
d="M612 0h-172v232h-92l-148 -232h-204l176 264q-62 28 -97 81.5t-35 122.5q0 67 31 121t86.5 84.5t126.5 30.5h328v-704zM440 380v172h-128q-40 0 -66 -23t-26 -61q0 -39 25 -63.5t67 -24.5h128z" />
    <glyph glyph-name="uni0430" unicode="&#x430;" horiz-adv-x="540" 
d="M446.5 457q57.5 -51 57.5 -133v-324h-120l-26 44q-30 -28 -68.5 -42t-81.5 -14q-90 0 -139 39.5t-49 104.5q0 72 58 111.5t166 56.5l88 14v2q0 56 -68 56q-30 0 -45 -11.5t-19 -36.5h-161q1 51 29 93t79.5 66.5t120.5 24.5q121 0 178.5 -51zM204.5 122q16.5 -10 39.5 -10
q49 0 88 36v64l-52 -8q-51 -8 -71.5 -20.5t-20.5 -31.5q0 -20 16.5 -30z" />
    <glyph glyph-name="uni0431" unicode="&#x431;" horiz-adv-x="596" 
d="M467 443q54 -29 83.5 -81.5t29.5 -121.5q0 -71 -33.5 -128.5t-95 -90.5t-143.5 -33q-143 0 -213.5 86t-70.5 238q0 132 32 212.5t95.5 120.5t164.5 51l224 24v-144l-196 -20q-84 -9 -121 -47t-39 -112q27 37 68.5 56t91.5 19q69 0 123 -29zM377 170q27 26 27 66
q0 43 -27.5 67.5t-72.5 24.5q-29 0 -59.5 -16t-47.5 -46q4 -63 34 -92.5t77 -29.5q42 0 69 26z" />
    <glyph glyph-name="uni0432" unicode="&#x432;" horiz-adv-x="544" 
d="M505.5 217.5q22.5 -31.5 22.5 -73.5q0 -70 -51.5 -107t-136.5 -37h-300v496h284q85 0 132.5 -37t47.5 -95q0 -67 -63 -100q42 -15 64.5 -46.5zM212 372v-72h92q19 0 29.5 9.5t10.5 26.5q0 16 -11 26t-29 10h-92zM345 126q11 10 11 26t-11 26t-29 10h-104v-72h104
q18 0 29 10z" />
    <glyph glyph-name="uni0433" unicode="&#x433;" horiz-adv-x="416" 
d="M416 496v-132h-204v-364h-172v496h376z" />
    <glyph glyph-name="uni0434" unicode="&#x434;" horiz-adv-x="636" 
d="M636 132v-272h-104l-28 140h-372l-28 -140h-104v272h61q25 26 34 64.5t9 107.5v192h460v-364h72zM224 132h168v232h-120v-60q0 -109 -48 -172z" />
    <glyph glyph-name="uni0435" unicode="&#x435;" horiz-adv-x="564" 
d="M217.5 142q26.5 -22 66.5 -22q54 0 84 36h168q-21 -75 -89 -121.5t-163 -46.5q-73 0 -134 31.5t-97.5 90.5t-36.5 138q0 72 33.5 131.5t94 94t136.5 34.5q73 0 133 -30.5t95.5 -88.5t35.5 -137v-48h-361q8 -40 34.5 -62zM218.5 355.5q-25.5 -20.5 -34.5 -51.5h191
q-9 31 -33.5 51.5t-61.5 20.5q-36 0 -61.5 -20.5z" />
    <glyph glyph-name="uni0436" unicode="&#x436;" horiz-adv-x="812" 
d="M653 260l171 -260h-188l-128 188h-16v-188h-172v188h-16l-128 -188h-188l178 260l-170 236h184l124 -176h16v176h172v-176h16l124 176h184z" />
    <glyph glyph-name="uni0437" unicode="&#x437;" horiz-adv-x="508" 
d="M492 140q0 -69 -61.5 -110.5t-170.5 -41.5q-111 0 -173.5 45t-66.5 123h161q3 -27 20.5 -37.5t54.5 -10.5q68 0 68 40q0 17 -15.5 28.5t-52.5 11.5h-52v120h48q29 0 44.5 10.5t15.5 29.5t-16 29.5t-48 10.5q-67 0 -70 -48h-155q10 77 66 122.5t163 45.5q110 0 167 -41
t57 -107q0 -68 -68 -99q84 -34 84 -121z" />
    <glyph glyph-name="uni0438" unicode="&#x438;" horiz-adv-x="584" 
d="M412 496h132v-496h-168v250l-212 -250h-124v496h168v-256z" />
    <glyph glyph-name="uni0439" unicode="&#x439;" horiz-adv-x="584" 
d="M412 496h132v-496h-168v250l-212 -250h-124v496h168v-256zM170 586q-50 42 -54 118h108q2 -27 21 -43.5t47 -16.5q27 0 47 16.5t21 43.5h108q-3 -75 -53.5 -117.5t-122.5 -42.5t-122 42z" />
    <glyph glyph-name="uni043A" unicode="&#x43a;" horiz-adv-x="572" 
d="M401 262l183 -262h-192l-132 188h-48v-188h-172v496h172v-176h48l132 176h184z" />
    <glyph glyph-name="uni043B" unicode="&#x43b;" horiz-adv-x="608" 
d="M568 0h-172v364h-124v-80q0 -292 -204 -292q-26 0 -56 5v139q15 -4 32 -4q29 0 44.5 31t15.5 121v212h464v-496z" />
    <glyph glyph-name="uni043C" unicode="&#x43c;" horiz-adv-x="668" 
d="M488 496h140v-496h-164v208l-96 -208h-76l-88 191v-191h-164v496h140l148 -310z" />
    <glyph glyph-name="uni043D" unicode="&#x43d;" horiz-adv-x="584" 
d="M372 496h172v-496h-172v184h-160v-184h-172v496h172v-176h160v176z" />
    <glyph glyph-name="uni043E" unicode="&#x43e;" 
d="M153 22q-65 34 -101 93t-36 133t36 133t101 93t147 34t147 -34t101 -93t36 -133t-36 -133t-101 -93t-147 -34t-147 34zM378 164.5q30 32.5 30 83.5t-30 83.5t-78 32.5t-78 -32.5t-30 -83.5t30 -83.5t78 -32.5t78 32.5z" />
    <glyph glyph-name="uni043F" unicode="&#x43f;" horiz-adv-x="576" 
d="M536 496v-496h-172v364h-152v-364h-172v496h496z" />
    <glyph glyph-name="uni0440" unicode="&#x440;" horiz-adv-x="596" 
d="M453.5 474q58.5 -34 92.5 -93.5t34 -132.5t-35 -132.5t-94.5 -93.5t-130.5 -34q-55 0 -108 29v-225h-172v704h120l30 -50q45 62 134 62q71 0 129.5 -34zM372.5 168.5q31.5 32.5 31.5 79.5t-31 79.5t-81 32.5q-23 0 -44 -9.5t-36 -25.5v-154q14 -17 35 -26t45 -9
q49 0 80.5 32.5z" />
    <glyph glyph-name="uni0441" unicode="&#x441;" horiz-adv-x="552" 
d="M143 22q-60 34 -93.5 93t-33.5 133t33.5 133t93.5 93t137 34q108 0 175.5 -55t86.5 -161h-169q-27 60 -89 60q-45 0 -70.5 -28t-25.5 -76q0 -49 25.5 -76.5t70.5 -27.5q59 0 89 60h171q-21 -103 -89 -159.5t-175 -56.5q-77 0 -137 34z" />
    <glyph glyph-name="uni0442" unicode="&#x442;" horiz-adv-x="476" 
d="M472 496v-132h-148v-364h-172v364h-148v132h468z" />
    <glyph glyph-name="uni0443" unicode="&#x443;" horiz-adv-x="564" 
d="M400 496h172l-304 -704h-168l109 243l-217 461h188l115 -255z" />
    <glyph glyph-name="uni0444" unicode="&#x444;" horiz-adv-x="780" 
d="M693 69.5q-71 -66.5 -217 -81.5v-196h-172v196q-145 15 -216.5 82.5t-71.5 177.5t71.5 177.5t216.5 82.5v196h172v-196q143 -16 215.5 -83t72.5 -177q0 -112 -71 -178.5zM561.5 166.5q26.5 28.5 26.5 81.5t-26.5 80.5t-85.5 35.5v-236q59 10 85.5 38.5zM218.5 165.5
q26.5 -28.5 85.5 -37.5v236q-59 -9 -85.5 -36.5t-26.5 -79.5q0 -54 26.5 -82.5z" />
    <glyph glyph-name="uni0445" unicode="&#x445;" horiz-adv-x="528" 
d="M548 0h-204l-90 123l-86 -123h-188l186 246l-182 250h196l85 -114l79 114h192l-181 -235z" />
    <glyph glyph-name="uni0446" unicode="&#x446;" horiz-adv-x="604" 
d="M532 132h72v-272h-104l-28 140h-432v496h172v-364h148v364h172v-364z" />
    <glyph glyph-name="uni0447" unicode="&#x447;" horiz-adv-x="572" 
d="M532 496v-496h-172v176q-22 -26 -55.5 -41t-76.5 -15q-59 0 -102.5 26.5t-66.5 73t-23 104.5v172h172v-144q0 -36 20 -58t56 -22q26 0 46.5 10t29.5 26v188h172z" />
    <glyph glyph-name="uni0448" unicode="&#x448;" horiz-adv-x="876" 
d="M664 496h172v-496h-796v496h172v-364h140v364h172v-364h140v364z" />
    <glyph glyph-name="uni0449" unicode="&#x449;" horiz-adv-x="908" 
d="M836 132h72v-272h-104l-28 140h-736v496h172v-364h140v364h172v-364h140v364h172v-364z" />
    <glyph glyph-name="uni044A" unicode="&#x44a;" horiz-adv-x="644" 
d="M560 293q52 -47 52 -121q0 -82 -57 -127t-167 -45h-248v364h-136v132h308v-156h92q104 0 156 -47zM424 136q16 12 16 36q0 23 -17 35.5t-43 12.5h-68v-96h68q28 0 44 12z" />
    <glyph glyph-name="uni044B" unicode="&#x44b;" horiz-adv-x="768" 
d="M460 293q52 -47 52 -121q0 -82 -57 -127t-167 -45h-248v496h172v-156h92q104 0 156 -47zM556 496h172v-496h-172v496zM324 136q16 12 16 36q0 23 -17 35.5t-43 12.5h-68v-96h68q28 0 44 12z" />
    <glyph glyph-name="uni044C" unicode="&#x44c;" horiz-adv-x="544" 
d="M460 293q52 -47 52 -121q0 -82 -57 -127t-167 -45h-248v496h172v-156h92q104 0 156 -47zM324 136q16 12 16 36q0 23 -17 35.5t-43 12.5h-68v-96h68q28 0 44 12z" />
    <glyph glyph-name="uni044D" unicode="&#x44d;" horiz-adv-x="564" 
d="M412 474q63 -34 99.5 -93.5t36.5 -132.5t-36.5 -132.5t-99.5 -93.5t-140 -34q-92 0 -161.5 48t-99.5 132h160q34 -44 101 -44q34 0 61.5 19.5t40.5 52.5h-178v100h180q-12 35 -40 55.5t-64 20.5q-63 0 -97 -40h-160q30 82 99 129t158 47q77 0 140 -34z" />
    <glyph glyph-name="uni044E" unicode="&#x44e;" horiz-adv-x="848" 
d="M701.5 474.5q61.5 -33.5 96 -92.5t34.5 -134q0 -73 -35 -132.5t-97 -93.5t-140 -34q-67 0 -122.5 25.5t-92.5 71t-50 103.5h-83v-188h-172v496h172v-176h85q23 85 94 136.5t169 51.5q80 0 141.5 -33.5zM629 166.5q27 30.5 27 81.5t-27 81.5t-69 30.5q-40 0 -68 -30.5
t-28 -81.5t28 -81.5t68 -30.5q42 0 69 30.5z" />
    <glyph glyph-name="uni044F" unicode="&#x44f;" horiz-adv-x="552" 
d="M512 496v-496h-172v152h-47l-109 -152h-184l126 180q-45 20 -69.5 58t-24.5 86q0 81 58.5 126.5t165.5 45.5h256zM220 359.5q-16 -12.5 -16 -35.5q0 -25 16.5 -36.5t43.5 -11.5h76v96h-76q-28 0 -44 -12.5z" />
    <glyph glyph-name="uni0450" unicode="&#x450;" horiz-adv-x="564" 
d="M217.5 142q26.5 -22 66.5 -22q54 0 84 36h168q-21 -75 -89 -121.5t-163 -46.5q-73 0 -134 31.5t-97.5 90.5t-36.5 138q0 72 33.5 131.5t94 94t136.5 34.5q73 0 133 -30.5t95.5 -88.5t35.5 -137v-48h-361q8 -40 34.5 -62zM218.5 355.5q-25.5 -20.5 -34.5 -51.5h191
q-9 31 -33.5 51.5t-61.5 20.5q-36 0 -61.5 -20.5zM110 704h172l64 -136v-8h-120z" />
    <glyph glyph-name="uni0451" unicode="&#x451;" horiz-adv-x="564" 
d="M217.5 142q26.5 -22 66.5 -22q54 0 84 36h168q-21 -75 -89 -121.5t-163 -46.5q-73 0 -134 31.5t-97.5 90.5t-36.5 138q0 72 33.5 131.5t94 94t136.5 34.5q73 0 133 -30.5t95.5 -88.5t35.5 -137v-48h-361q8 -40 34.5 -62zM218.5 355.5q-25.5 -20.5 -34.5 -51.5h191
q-9 31 -33.5 51.5t-61.5 20.5q-36 0 -61.5 -20.5zM108 704h140v-132h-140v132zM320 704h140v-132h-140v132z" />
    <glyph glyph-name="uni0452" unicode="&#x452;" horiz-adv-x="572" 
d="M440.5 481.5q46.5 -26.5 71 -73t24.5 -104.5v-336q0 -91 -49 -137.5t-135 -46.5q-32 0 -60 3v130l24 -1q22 0 35 12t13 36v312q0 36 -20 58t-56 22q-25 0 -45 -12t-31 -28v-316h-172v560h-56v80h56v64h172v-64h128v-80h-128v-101q49 49 120 49q62 0 108.5 -26.5z" />
    <glyph glyph-name="uni0453" unicode="&#x453;" horiz-adv-x="416" 
d="M416 496v-132h-204v-364h-172v496h376zM178 568l64 136h172l-116 -144h-120v8z" />
    <glyph glyph-name="uni0454" unicode="&#x454;" horiz-adv-x="564" 
d="M553 168q-30 -84 -99.5 -132t-161.5 -48q-77 0 -140 34t-99.5 93.5t-36.5 132.5t36.5 132.5t99.5 93.5t140 34q89 0 158 -47t99 -129h-160q-34 40 -97 40q-36 0 -64 -20.5t-40 -55.5h180v-100h-178q13 -33 40.5 -52.5t61.5 -19.5q67 0 101 44h160z" />
    <glyph glyph-name="uni0455" unicode="&#x455;" horiz-adv-x="500" 
d="M76 31q-59 43 -55 125h154q0 -29 17.5 -38.5t55.5 -9.5q42 0 57 8.5t15 27.5q0 16 -13 24t-55 12l-40 4q-97 10 -144.5 49t-47.5 111q0 80 60 122t168 42q114 0 170 -44t55 -124h-160q-2 24 -17.5 36t-47.5 12q-30 0 -43 -8t-13 -24q0 -18 12 -27t56 -13l40 -4
q99 -10 143.5 -49t44.5 -107q0 -80 -60.5 -124t-179.5 -44q-113 0 -172 43z" />
    <glyph glyph-name="uni0456" unicode="&#x456;" horiz-adv-x="252" 
d="M40 496h172v-496h-172v496zM44 704h164v-140h-164v140z" />
    <glyph glyph-name="uni0457" unicode="&#x457;" horiz-adv-x="252" 
d="M40 496h172v-496h-172v496zM-48 704h140v-132h-140v132zM164 704h140v-132h-140v132z" />
    <glyph glyph-name="uni0458" unicode="&#x458;" horiz-adv-x="252" 
d="M-8 -84q22 0 35 12t13 36v532h172v-528q0 -91 -49 -137.5t-135 -46.5q-32 0 -60 3v131q16 -2 24 -2zM44 704h164v-140h-164v140z" />
    <glyph glyph-name="uni0459" unicode="&#x459;" horiz-adv-x="888" 
d="M804 292.5q52 -47.5 52 -120.5q0 -82 -57 -127t-167 -45h-248v364h-112v-80q0 -292 -204 -292q-26 0 -56 5v139q15 -4 32 -4q29 0 44.5 31t15.5 121v212h452v-156h92q104 0 156 -47.5zM668 136q16 12 16 36q0 23 -17 35.5t-43 12.5h-68v-96h68q28 0 44 12z" />
    <glyph glyph-name="uni045A" unicode="&#x45a;" horiz-adv-x="856" 
d="M768.5 282.5q55.5 -45.5 55.5 -118.5q0 -79 -56.5 -121.5t-163.5 -42.5h-252v200h-140v-200h-172v496h172v-168h140v168h172v-168h92q97 0 152.5 -45.5zM638.5 131q13.5 11 13.5 29q0 16 -13 28t-35 12h-80v-80h80q21 0 34.5 11z" />
    <glyph glyph-name="uni045B" unicode="&#x45b;" horiz-adv-x="572" 
d="M440.5 481.5q46.5 -26.5 71 -73t24.5 -104.5v-304h-172v276q0 36 -20 58t-56 22q-25 0 -45 -12t-31 -28v-316h-172v560h-56v80h56v64h172v-64h128v-80h-128v-101q49 49 120 49q62 0 108.5 -26.5z" />
    <glyph glyph-name="uni045C" unicode="&#x45c;" horiz-adv-x="572" 
d="M401 262l183 -262h-192l-132 188h-48v-188h-172v496h172v-176h48l132 176h184zM226 568l64 136h172l-116 -144h-120v8z" />
    <glyph glyph-name="uni045D" unicode="&#x45d;" horiz-adv-x="584" 
d="M412 496h132v-496h-168v250l-212 -250h-124v496h168v-256zM118 704h172l64 -136v-8h-120z" />
    <glyph glyph-name="uni045E" unicode="&#x45e;" horiz-adv-x="564" 
d="M400 496h172l-304 -704h-168l109 243l-217 461h188l115 -255zM162 586q-50 42 -54 118h108q2 -27 21 -43.5t47 -16.5q27 0 47 16.5t21 43.5h108q-3 -75 -53.5 -117.5t-122.5 -42.5t-122 42z" />
    <glyph glyph-name="uni045F" unicode="&#x45f;" horiz-adv-x="572" 
d="M360 496h172v-496h-172l-24 -140h-96l-24 140h-176v496h172v-364h148v364z" />
    <glyph glyph-name="uni0490" unicode="&#x490;" horiz-adv-x="540" 
d="M412 868h112v-320h-300v-548h-172v704h324z" />
    <glyph glyph-name="uni0491" unicode="&#x491;" horiz-adv-x="416" 
d="M320 636h96v-272h-204v-364h-172v496h252z" />
    <glyph glyph-name="uni0492" unicode="&#x492;" horiz-adv-x="584" 
d="M576 548h-300v-132h188v-128h-188v-288h-172v288h-104v128h104v288h472v-156z" />
    <glyph glyph-name="uni0493" unicode="&#x493;" horiz-adv-x="444" 
d="M432 364h-204v-80h160v-112h-160v-172h-172v172h-56v112h56v212h376v-132z" />
    <glyph glyph-name="uni0496" unicode="&#x496;" horiz-adv-x="1080" 
d="M920 156h160v-312h-112l-36 156h-108l-184 280h-44v-280h-172v280h-44l-184 -280h-204l249 358l-233 346h196l180 -280h40v280h172v-280h44l180 280h192l-233 -346z" />
    <glyph glyph-name="uni0497" unicode="&#x497;" horiz-adv-x="844" 
d="M737 132h107v-272h-104l-28 140h-76l-128 188h-16v-188h-172v188h-16l-128 -188h-188l178 260l-170 236h184l124 -176h16v176h172v-176h16l124 176h184l-163 -236z" />
    <glyph glyph-name="uni049A" unicode="&#x49a;" horiz-adv-x="720" 
d="M581 156h139v-312h-112l-36 156h-80l-212 280h-56v-280h-172v704h172v-280h60l208 280h196l-267 -346z" />
    <glyph glyph-name="uni049B" unicode="&#x49b;" 
d="M492 132h108v-272h-104l-28 140h-76l-132 188h-48v-188h-172v496h172v-176h48l132 176h184l-175 -234z" />
    <glyph glyph-name="uni049C" unicode="&#x49c;" horiz-adv-x="752" 
d="M504 358l256 -358h-204l-196 280v-148h-80v148h-56v-280h-172v704h172v-280h56v168h80v-168l188 280h196z" />
    <glyph glyph-name="uni049D" unicode="&#x49d;" horiz-adv-x="624" 
d="M636 0h-192l-116 181v-117h-80v124h-36v-188h-172v496h172v-176h36v108h80v-110l116 178h184l-171 -240z" />
    <glyph glyph-name="uni04A2" unicode="&#x4a2;" horiz-adv-x="780" 
d="M676 156h92v-312h-112l-36 156h-116v276h-280v-276h-172v704h172v-272h280v272h172v-548z" />
    <glyph glyph-name="uni04A3" unicode="&#x4a3;" horiz-adv-x="616" 
d="M544 132h72v-272h-104l-28 140h-112v184h-160v-184h-172v496h172v-176h160v176h172v-364z" />
    <glyph glyph-name="uni04AE" unicode="&#x4ae;" horiz-adv-x="668" 
d="M492 704h196l-268 -440v-264h-172v264l-268 440h196l162 -263z" />
    <glyph glyph-name="uni04AF" unicode="&#x4af;" horiz-adv-x="548" 
d="M388 496h168l-196 -476v-228h-172v228l-196 476h184l106 -274z" />
    <glyph glyph-name="uni04B0" unicode="&#x4b0;" horiz-adv-x="668" 
d="M420 264v-36h159v-80h-159v-148h-172v148h-152v80h152v36l-268 440h196l162 -263l154 263h196z" />
    <glyph glyph-name="uni04B1" unicode="&#x4b1;" horiz-adv-x="548" 
d="M360 20v-48h124v-80h-124v-100h-172v100h-124v80h124v48l-196 476h184l106 -274l106 274h168z" />
    <glyph glyph-name="uni04B2" unicode="&#x4b2;" horiz-adv-x="716" 
d="M604 156h124v-312h-112l-36 156h-64l-161 226l-159 -226h-200l259 368l-239 336h196l141 -197l139 197h204l-242 -338z" />
    <glyph glyph-name="uni04B3" unicode="&#x4b3;" horiz-adv-x="556" 
d="M450 132h106v-272h-104l-28 140h-80l-90 123l-86 -123h-188l186 246l-182 250h196l85 -114l79 114h192l-181 -235z" />
    <glyph glyph-name="uni04B8" unicode="&#x4b8;" horiz-adv-x="676" 
d="M624 704v-704h-172v284q-42 -37 -88 -50v-134h-72v124q-76 0 -134 30t-90 86.5t-32 135.5v228h172v-212q0 -48 22 -76t62 -36v180h72v-179q27 6 52 19.5t36 27.5v276h172z" />
    <glyph glyph-name="uni04B9" unicode="&#x4b9;" horiz-adv-x="572" 
d="M532 496v-496h-172v176q-20 -22 -40 -33v-111h-64v90q-18 -2 -28 -2q-59 0 -102.5 26.5t-66.5 73t-23 104.5v172h172v-144q0 -29 12.5 -49t35.5 -27v120h64v-118q27 9 40 30v188h172z" />
    <glyph glyph-name="uni04BA" unicode="&#x4ba;" horiz-adv-x="672" 
d="M523.5 442q55.5 -30 86 -86.5t30.5 -135.5v-220h-172v204q0 59 -29.5 87.5t-90.5 28.5q-30 0 -69.5 -17t-54.5 -35v-268h-172v704h172v-293q35 31 77 46t95 15q72 0 127.5 -30z" />
    <glyph glyph-name="uni04BB" unicode="&#x4bb;" horiz-adv-x="572" 
d="M440.5 481.5q46.5 -26.5 71 -73t24.5 -104.5v-304h-172v276q0 36 -20 58t-56 22q-25 0 -45 -12t-31 -28v-316h-172v704h172v-245q49 49 120 49q62 0 108.5 -26.5z" />
    <glyph glyph-name="uni04C0" unicode="&#x4c0;" horiz-adv-x="276" 
d="M52 704h172v-704h-172v704z" />
    <glyph glyph-name="uni04CF" unicode="&#x4cf;" horiz-adv-x="252" 
d="M40 704h172v-704h-172v704z" />
    <glyph glyph-name="uni04D8" unicode="&#x4d8;" horiz-adv-x="800" 
d="M597.5 666q88.5 -50 137.5 -134t49 -180q0 -94 -49.5 -178t-136.5 -135t-194 -51q-115 0 -203 49.5t-136.5 134t-48.5 184.5q0 29 5 64h571q-22 60 -73.5 100t-122.5 40q-44 0 -83.5 -18t-67.5 -50h-199q27 61 77 112t120 81.5t153 30.5q113 0 201.5 -50zM520 185
q53 37 73 99h-385q21 -63 72.5 -99.5t119.5 -36.5q67 0 120 37z" />
    <glyph glyph-name="uni04D9" unicode="&#x4d9;" horiz-adv-x="564" 
d="M414 476.5q61 -31.5 97.5 -90.5t36.5 -138q0 -72 -33.5 -131.5t-94 -94t-136.5 -34.5q-73 0 -133 30.5t-95.5 88.5t-35.5 137v48h361q-8 40 -34.5 62t-66.5 22q-54 0 -84 -36h-168q21 75 89 121.5t163 46.5q73 0 134 -31.5zM345.5 140.5q25.5 20.5 34.5 51.5h-191
q9 -31 33.5 -51.5t61.5 -20.5q36 0 61.5 20.5z" />
    <glyph glyph-name="uni04E8" unicode="&#x4e8;" horiz-adv-x="800" 
d="M591 668q88 -48 140.5 -131.5t52.5 -184.5t-52.5 -184.5t-140.5 -131.5t-191 -48t-191 48t-140.5 131.5t-52.5 184.5q0 100 52.5 183.5t140.5 132t191 48.5t191 -48zM283 518q-53 -38 -75 -98h384q-21 60 -74 98t-118 38q-64 0 -117 -38zM518 186q53 38 74 98h-384
q21 -60 74 -98t118 -38t118 38z" />
    <glyph glyph-name="uni04E9" unicode="&#x4e9;" 
d="M447 474q65 -34 101 -93t36 -133t-36 -133t-101 -93t-147 -34t-147 34t-101 93t-36 133t36 133t101 93t147 34t147 -34zM240 347q-26 -17 -38 -47h196q-12 30 -38 47t-60 17t-60 -17zM362 150q26 18 38 50h-200q12 -32 38 -50t62 -18t62 18z" />
    <glyph glyph-name="A.sups" unicode="&#x1d2c;" horiz-adv-x="591" 
d="M455 496l-36 80h-252l-37 -80h-125l245 520h93l243 -520h-131zM213 677h160l-80 174z" />
    <glyph glyph-name="B.sups" unicode="&#x1d2e;" horiz-adv-x="516" 
d="M473 728q21 -31 21 -70q0 -74 -53 -118t-137 -44h-257v522h247q46 0 86.5 -17.5t64.5 -50.5t24 -78q0 -55 -56 -94q39 -19 60 -50zM169 913v-108h111q31 0 48.5 15.5t17.5 39.5q0 21 -19 37t-46 16h-112zM348 614.5q19 13.5 19 38.5q0 21 -21 37t-47 16h-130v-105h132
q28 0 47 13.5z" />
    <glyph glyph-name="D.sups" unicode="&#x1d30;" horiz-adv-x="575" 
d="M404.5 983.5q68.5 -34.5 108.5 -94.5t40 -132t-39.5 -131.5t-108.5 -94.5t-152 -35h-206v522h206q83 0 151.5 -34.5zM376 647q50 42 50 110q0 69 -50 110.5t-127 41.5h-80v-304h80q77 0 127 42z" />
    <glyph glyph-name="E.sups" unicode="&#x1d31;" horiz-adv-x="460" 
d="M169 605h270v-109h-392v522h387v-109h-265v-101h229v-103h-229v-100z" />
    <glyph glyph-name="G.sups" unicode="&#x1d33;" horiz-adv-x="609" 
d="M576 496h-86l-26 46q-26 -25 -66.5 -40t-89.5 -15q-82 0 -147 35.5t-102 97t-37 135.5t36.5 136.5t103 99t151.5 36.5q94 0 161.5 -45t97.5 -125h-131q-45 57 -127 57q-73 0 -119 -43.5t-46 -113.5q0 -72 48.5 -116t121.5 -44q44 0 81.5 15.5t56.5 40.5v33h-159v103h278
v-293z" />
    <glyph glyph-name="H.sups" unicode="&#x1d34;" horiz-adv-x="578" 
d="M409 1018h122v-522h-122v208h-240v-208h-122v522h122v-203h240v203z" />
    <glyph glyph-name="I.sups" unicode="&#x1d35;" horiz-adv-x="216" 
d="M47 1018h122v-522h-122v522z" />
    <glyph glyph-name="J.sups" unicode="&#x1d36;" horiz-adv-x="440" 
d="M67.5 533.5q-50.5 45.5 -57.5 133.5h119q6 -36 24.5 -52.5t50.5 -16.5q36 0 55.5 17t19.5 47v357h122v-355q0 -82 -55.5 -129t-143.5 -47q-84 0 -134.5 45.5z" />
    <glyph glyph-name="K.sups" unicode="&#x1d37;" horiz-adv-x="560" 
d="M555 496h-149l-152 205l-85 -93v-112h-122v522h122v-254l233 254h143l-214 -233z" />
    <glyph glyph-name="L.sups" unicode="&#x1d38;" horiz-adv-x="413" 
d="M169 605h240v-109h-362v522h122v-413z" />
    <glyph glyph-name="M.sups" unicode="&#x1d39;" horiz-adv-x="690" 
d="M643 1018v-522h-114v263l-145 -263h-80l-143 260v-260h-114v522h100l201 -367l194 367h101z" />
    <glyph glyph-name="N.sups" unicode="&#x1d3a;" horiz-adv-x="569" 
d="M402 1018h120v-522h-72l-283 297v-297h-120v522h69l286 -302v302z" />
    <glyph glyph-name="O.sups" unicode="&#x1d3c;" horiz-adv-x="646" 
d="M172.5 523q-69.5 36 -110 98t-40.5 136q0 75 41 137t110 97.5t150 35.5q82 0 151 -36t109.5 -97.5t40.5 -136.5q0 -74 -40.5 -136t-109.5 -98t-151 -36q-81 0 -150.5 36zM408.5 617.5q39.5 20.5 62.5 57.5t23 82q0 47 -23 83.5t-62 56.5t-86 20q-46 0 -85.5 -20.5
t-62.5 -57t-23 -82.5t23 -82.5t62.5 -57t85.5 -20.5t85.5 20.5z" />
    <glyph glyph-name="P.sups" unicode="&#x1d3e;" horiz-adv-x="496" 
d="M380.5 994q44.5 -24 69 -64t24.5 -87q0 -46 -24 -86t-68 -64t-102 -24h-111v-173h-122v522h233q56 0 100.5 -24zM324 792q23 20 23 51q0 30 -23 49t-57 19h-98v-139h98q34 0 57 20z" />
    <glyph glyph-name="R.sups" unicode="&#x1d3f;" horiz-adv-x="527" 
d="M377 496l-133 179h-75v-179h-122v522h230q58 0 103 -22.5t70 -61t25 -86.5q0 -51 -29 -90.5t-79 -59.5l155 -202h-145zM169 780h95q37 0 60.5 19.5t23.5 48.5t-24 46t-60 17h-95v-131z" />
    <glyph glyph-name="T.sups" unicode="&#x1d40;" horiz-adv-x="486" 
d="M482 1018v-109h-177v-413h-122v413h-179v109h478z" />
    <glyph glyph-name="U.sups" unicode="&#x1d41;" horiz-adv-x="563" 
d="M153 513.5q-55 26.5 -85.5 75t-30.5 110.5v319h122v-321q0 -44 33.5 -71.5t88.5 -27.5q56 0 88.5 27.5t32.5 71.5v321h122v-319q0 -63 -29.5 -111t-85 -74.5t-128.5 -26.5t-128 26.5z" />
    <glyph glyph-name="W.sups" unicode="&#x1d42;" horiz-adv-x="877" 
d="M743 1018h129l-213 -522h-87l-135 306l-133 -306h-85l-214 522h133l125 -319l135 319h79l137 -314z" />
    <glyph glyph-name="a.sups" unicode="&#x1d43;" horiz-adv-x="412" 
d="M336 837.5q44 -38.5 44 -97.5v-244h-84l-19 35q-21 -23 -51.5 -35t-65.5 -12q-65 0 -102.5 30.5t-37.5 81.5q0 55 46.5 86.5t125.5 41.5l72 9v3q0 23 -16 35.5t-44 12.5t-43.5 -7t-21.5 -25h-110q7 54 54 89t121 35q88 0 132 -38.5zM184 572q21 0 43 8.5t37 23.5v58
l-44 -6q-80 -11 -80 -48q0 -36 44 -36z" />
    <glyph glyph-name="b.sups" unicode="&#x1d47;" horiz-adv-x="468" 
d="M354.5 847.5q45.5 -25.5 71.5 -69.5t26 -98q0 -53 -26 -97.5t-72.5 -70t-106.5 -25.5q-30 0 -58.5 11t-49.5 27l-17 -29h-86v522h120v-178q33 33 96 33q57 0 102.5 -25.5zM301.5 617q27.5 24 27.5 63q0 38 -28.5 62.5t-70.5 24.5q-48 0 -74 -29v-115q12 -15 32.5 -22.5
t43.5 -7.5q42 0 69.5 24z" />
    <glyph glyph-name="d.sups" unicode="&#x1d48;" horiz-adv-x="464" 
d="M432 1018v-522h-86l-22 38q-34 -47 -107 -47q-57 0 -103 25.5t-72 69.5t-26 98q0 53 26.5 97.5t73.5 70t108 25.5q45 0 88 -24v169h120zM312 622v120q-13 12 -33 18.5t-41 6.5q-42 0 -70 -24.5t-28 -62.5t28.5 -62.5t69.5 -24.5q47 0 74 29z" />
    <glyph glyph-name="e.sups" unicode="&#x1d49;" horiz-adv-x="441" 
d="M167.5 598q26.5 -18 67.5 -18q48 0 70 25h115q-21 -53 -73 -85.5t-124 -32.5q-57 0 -104 23.5t-75 67.5t-28 101q0 56 27 100.5t74.5 69t106.5 24.5q57 0 103 -24t72 -68t26 -102v-26h-290q6 -37 32.5 -55zM166 765q-23 -17 -30 -47h170q-7 27 -29 45.5t-56 18.5
q-32 0 -55 -17z" />
    <glyph glyph-name="g.sups" unicode="&#x1d4d;" horiz-adv-x="464" 
d="M432 864v-368q0 -72 -53 -116t-143 -44q-175 0 -201 137h121q7 -21 26.5 -30.5t52.5 -9.5q40 0 58.5 16.5t18.5 42.5v45q-14 -17 -39 -28t-57 -11q-58 0 -103.5 24.5t-71 67.5t-25.5 96q0 52 26.5 94.5t73.5 67.5t108 25q59 0 105 -37l19 28h84zM279.5 609
q20.5 7 32.5 19v114q-12 13 -32.5 20t-43.5 7q-41 0 -69 -22.5t-28 -60.5t27.5 -61t69.5 -23q23 0 43.5 7z" />
    <glyph glyph-name="k.sups" unicode="&#x1d4f;" horiz-adv-x="454" 
d="M308 496l-93 134l-59 -62v-72h-120v522h120v-308l141 154h139l-142 -150l155 -218h-141z" />
    <glyph glyph-name="m.sups" unicode="&#x1d50;" horiz-adv-x="697" 
d="M623 828.5q42 -44.5 42 -116.5v-216h-120v208q0 31 -18.5 46t-49.5 15q-19 0 -37.5 -7.5t-28.5 -18.5q1 -6 1 -18v-225h-120v206q0 31 -19.5 47t-51.5 16q-18 0 -36 -8.5t-29 -20.5v-240h-120v368h87l25 -43q17 23 43.5 37.5t60.5 14.5q84 0 127 -53q25 27 54 40t71 13
q77 0 119 -44.5z" />
    <glyph glyph-name="o.sups" unicode="&#x1d52;" horiz-adv-x="464" 
d="M120 509.5q-49 25.5 -76.5 70t-27.5 100.5q0 57 27.5 101.5t76.5 69.5t112 25t112 -25t76.5 -69.5t27.5 -101.5q0 -56 -27.5 -100.5t-76.5 -70t-112 -25.5t-112 25.5zM300 610q28 26 28 70t-28 70t-68 26t-68 -26t-28 -70t28 -70t68 -26t68 26z" />
    <glyph glyph-name="p.sups" unicode="&#x1d56;" horiz-adv-x="468" 
d="M354.5 847.5q45.5 -25.5 71.5 -69.5t26 -98q0 -53 -26 -97.5t-73.5 -70t-107.5 -25.5q-47 0 -89 25v-170h-120v522h86l22 -37q35 46 108 46q57 0 102.5 -25.5zM300.5 617.5q28.5 24.5 28.5 62.5t-28.5 62.5t-70.5 24.5q-23 0 -42 -8t-32 -21v-119q14 -13 34 -19.5
t40 -6.5q42 0 70.5 24.5z" />
    <glyph glyph-name="t.sups" unicode="&#x1d57;" horiz-adv-x="313" 
d="M181 769v-132q0 -23 15.5 -34.5t35.5 -11.5q38 0 64 11v-103q-36 -12 -88 -12q-65 0 -106 36.5t-41 94.5v151h-51v95h58v70l108 66h5v-136h122v-95h-122z" />
    <glyph glyph-name="u.sups" unicode="&#x1d58;" horiz-adv-x="444" 
d="M412 864v-368h-87l-25 43q-17 -23 -43.5 -37.5t-60.5 -14.5q-76 0 -118 43t-42 109v225h120v-206q0 -30 20 -46.5t51 -16.5q19 0 37 8.5t28 20.5v240h120z" />
    <glyph glyph-name="v.sups" unicode="&#x1d5b;" horiz-adv-x="446" 
d="M321 864h120l-178 -367h-80l-178 367h128l95 -191z" />
    <glyph glyph-name="i.subs" unicode="&#x1d62;" horiz-adv-x="188" 
d="M36 342h118v-103h-118v103zM36 184h120v-368h-120v368z" />
    <glyph glyph-name="r.subs" unicode="&#x1d63;" horiz-adv-x="285" 
d="M275 190l-1 -112q-19 4 -40 4q-27 0 -47.5 -11t-30.5 -32v-223h-120v368h86l24 -44q15 25 39.5 39t56.5 14q18 0 33 -3z" />
    <glyph glyph-name="u.subs" unicode="&#x1d64;" horiz-adv-x="444" 
d="M412 184v-368h-87l-25 43q-17 -23 -43.5 -37.5t-60.5 -14.5q-76 0 -118 43t-42 109v225h120v-206q0 -30 20 -46.5t51 -16.5q19 0 37 8.5t28 20.5v240h120z" />
    <glyph glyph-name="v.subs" unicode="&#x1d65;" horiz-adv-x="446" 
d="M321 184h120l-178 -367h-80l-178 367h128l95 -191z" />
    <glyph glyph-name="c.sups" unicode="&#x1d9c;" horiz-adv-x="441" 
d="M118 510.5q-48 24.5 -75 68.5t-27 100q0 54 26 98.5t73.5 70t110.5 25.5q79 0 131.5 -40.5t67.5 -116.5h-118q-10 25 -31 38t-50 13q-39 0 -63.5 -23t-24.5 -65q0 -41 23.5 -64t65.5 -23q61 0 80 51h117q-15 -74 -67 -115.5t-132 -41.5q-59 0 -107 24.5z" />
    <glyph glyph-name="f.sups" unicode="&#x1da0;" horiz-adv-x="326" 
d="M316 769h-125v-273h-120v273h-61v95h61v7q0 70 39.5 113t122.5 43q28 0 58 -7v-98q-25 7 -46 7q-24 0 -39 -15t-15 -40v-10h125v-95z" />
    <glyph glyph-name="z.sups" unicode="&#x1dbb;" horiz-adv-x="412" 
d="M200 595h180v-99h-344v71l175 198h-173v99h336v-73z" />
    <glyph glyph-name="Wgrave" unicode="&#x1e80;" horiz-adv-x="1076" 
d="M904 704h184l-268 -704h-128l-150 399l-158 -399h-124l-272 704h188l147 -416l161 416h108l161 -408zM364 912h172l64 -136v-8h-120z" />
    <glyph glyph-name="wgrave" unicode="&#x1e81;" horiz-adv-x="848" 
d="M684 496h172l-212 -496h-124l-97 227l-95 -227h-124l-212 496h188l88 -237l96 237h112l109 -244zM250 704h172l64 -136v-8h-120z" />
    <glyph glyph-name="Wacute" unicode="&#x1e82;" horiz-adv-x="1076" 
d="M904 704h184l-268 -704h-128l-150 399l-158 -399h-124l-272 704h188l147 -416l161 416h108l161 -408zM476 776l64 136h172l-116 -144h-120v8z" />
    <glyph glyph-name="wacute" unicode="&#x1e83;" horiz-adv-x="848" 
d="M684 496h172l-212 -496h-124l-97 227l-95 -227h-124l-212 496h188l88 -237l96 237h112l109 -244zM362 568l64 136h172l-116 -144h-120v8z" />
    <glyph glyph-name="Wdieresis" unicode="&#x1e84;" horiz-adv-x="1076" 
d="M904 704h184l-268 -704h-128l-150 399l-158 -399h-124l-272 704h188l147 -416l161 416h108l161 -408zM362 912h140v-132h-140v132zM574 912h140v-132h-140v132z" />
    <glyph glyph-name="wdieresis" unicode="&#x1e85;" horiz-adv-x="848" 
d="M684 496h172l-212 -496h-124l-97 227l-95 -227h-124l-212 496h188l88 -237l96 237h112l109 -244zM248 704h140v-132h-140v132zM460 704h140v-132h-140v132z" />
    <glyph glyph-name="Germandbls" unicode="&#x1e9e;" horiz-adv-x="732" 
d="M621 392q45 -30 70 -75t25 -97q0 -63 -28 -115.5t-88 -84.5t-152 -32q-84 0 -144 23v145q54 -24 116 -24q56 0 86 26t30 62q0 33 -28.5 56.5t-99.5 23.5q-45 0 -96 -23v122l149 157h-101q-148 0 -148 -136v-420h-172v416q0 86 40.5 151.5t112 101t163.5 35.5h324v-120
l-162 -154q58 -8 103 -38z" />
    <glyph glyph-name="uni1EA0" unicode="&#x1ea0;" horiz-adv-x="736" 
d="M564 0l-44 104h-312l-44 -104h-176l312 704h140l308 -704h-184zM268 244h192l-96 227zM286 -66h164v-140h-164v140z" />
    <glyph glyph-name="uni1EA1" unicode="&#x1ea1;" horiz-adv-x="540" 
d="M446.5 457q57.5 -51 57.5 -133v-324h-120l-26 44q-30 -28 -68.5 -42t-81.5 -14q-90 0 -139 39.5t-49 104.5q0 72 58 111.5t166 56.5l88 14v2q0 56 -68 56q-30 0 -45 -11.5t-19 -36.5h-161q1 51 29 93t79.5 66.5t120.5 24.5q121 0 178.5 -51zM204.5 122q16.5 -10 39.5 -10
q49 0 88 36v64l-52 -8q-51 -8 -71.5 -20.5t-20.5 -31.5q0 -20 16.5 -30zM194 -66h164v-140h-164v140z" />
    <glyph glyph-name="uni1EA2" unicode="&#x1ea2;" horiz-adv-x="736" 
d="M564 0l-44 104h-312l-44 -104h-176l312 704h140l308 -704h-184zM268 244h192l-96 227zM402 784v-38h-68v90h36q11 0 18.5 6t7.5 19q0 11 -7 17t-19 6q-11 0 -19.5 -4t-10.5 -12h-76q2 40 30.5 62t73.5 22q52 0 80 -25.5t28 -66.5q0 -67 -74 -76z" />
    <glyph glyph-name="uni1EA3" unicode="&#x1ea3;" horiz-adv-x="540" 
d="M446.5 457q57.5 -51 57.5 -133v-324h-120l-26 44q-30 -28 -68.5 -42t-81.5 -14q-90 0 -139 39.5t-49 104.5q0 72 58 111.5t166 56.5l88 14v2q0 56 -68 56q-30 0 -45 -11.5t-19 -36.5h-161q1 51 29 93t79.5 66.5t120.5 24.5q121 0 178.5 -51zM204.5 122q16.5 -10 39.5 -10
q49 0 88 36v64l-52 -8q-51 -8 -71.5 -20.5t-20.5 -31.5q0 -20 16.5 -30zM310 576v-38h-68v90h36q11 0 18.5 6t7.5 19q0 11 -7 17t-19 6q-11 0 -19.5 -4t-10.5 -12h-76q2 40 30.5 62t73.5 22q52 0 80 -25.5t28 -66.5q0 -67 -74 -76z" />
    <glyph glyph-name="uni1EA4" unicode="&#x1ea4;" horiz-adv-x="736" 
d="M564 0l-44 104h-312l-44 -104h-176l312 704h140l308 -704h-184zM268 244h192l-96 227zM515 852l40 106h155l-92 -114h-103v8zM164 754l130 135h148l126 -135h-138l-66 54l-66 -54h-134z" />
    <glyph glyph-name="uni1EA5" unicode="&#x1ea5;" horiz-adv-x="540" 
d="M446.5 457q57.5 -51 57.5 -133v-324h-120l-26 44q-30 -28 -68.5 -42t-81.5 -14q-90 0 -139 39.5t-49 104.5q0 72 58 111.5t166 56.5l88 14v2q0 56 -68 56q-30 0 -45 -11.5t-19 -36.5h-161q1 51 29 93t79.5 66.5t120.5 24.5q121 0 178.5 -51zM204.5 122q16.5 -10 39.5 -10
q49 0 88 36v64l-52 -8q-51 -8 -71.5 -20.5t-20.5 -31.5q0 -20 16.5 -30zM406 682l52 122h155l-104 -130h-103v8zM72 556l130 148h148l126 -148h-138l-66 59l-66 -59h-134z" />
    <glyph glyph-name="uni1EA6" unicode="&#x1ea6;" horiz-adv-x="736" 
d="M564 0l-44 104h-312l-44 -104h-176l312 704h140l308 -704h-184zM268 244h192l-96 227zM177 958l40 -106v-8h-103l-92 114h155zM442 889l126 -135h-138l-66 54l-66 -54h-134l130 135h148z" />
    <glyph glyph-name="uni1EA7" unicode="&#x1ea7;" horiz-adv-x="540" 
d="M446.5 457q57.5 -51 57.5 -133v-324h-120l-26 44q-30 -28 -68.5 -42t-81.5 -14q-90 0 -139 39.5t-49 104.5q0 72 58 111.5t166 56.5l88 14v2q0 56 -68 56q-30 0 -45 -11.5t-19 -36.5h-161q1 51 29 93t79.5 66.5t120.5 24.5q121 0 178.5 -51zM204.5 122q16.5 -10 39.5 -10
q49 0 88 36v64l-52 -8q-51 -8 -71.5 -20.5t-20.5 -31.5q0 -20 16.5 -30zM90 804l52 -122v-8h-103l-104 130h155zM350 704l126 -148h-138l-66 59l-66 -59h-134l130 148h148z" />
    <glyph glyph-name="uni1EA8" unicode="&#x1ea8;" horiz-adv-x="736" 
d="M564 0l-44 104h-312l-44 -104h-176l312 704h140l308 -704h-184zM268 244h192l-96 227zM591 877v-32h-68v84h36q11 0 18.5 6t7.5 18q0 10 -7.5 15.5t-19.5 5.5q-25 0 -29 -14h-76q2 39 30.5 60.5t73.5 21.5q51 0 79.5 -25.5t28.5 -64.5q0 -66 -74 -75zM164 754l130 135
h148l126 -135h-138l-66 54l-66 -54h-134z" />
    <glyph glyph-name="uni1EA9" unicode="&#x1ea9;" horiz-adv-x="540" 
d="M446.5 457q57.5 -51 57.5 -133v-324h-120l-26 44q-30 -28 -68.5 -42t-81.5 -14q-90 0 -139 39.5t-49 104.5q0 72 58 111.5t166 56.5l88 14v2q0 56 -68 56q-30 0 -45 -11.5t-19 -36.5h-161q1 51 29 93t79.5 66.5t120.5 24.5q121 0 178.5 -51zM204.5 122q16.5 -10 39.5 -10
q49 0 88 36v64l-52 -8q-51 -8 -71.5 -20.5t-20.5 -31.5q0 -20 16.5 -30zM499 687v-32h-68v84h36q11 0 18.5 6t7.5 18q0 10 -7.5 15.5t-19.5 5.5q-25 0 -29 -14h-76q2 39 30.5 60.5t73.5 21.5q51 0 79.5 -25.5t28.5 -64.5q0 -66 -74 -75zM72 556l130 148h148l126 -148h-138
l-66 59l-66 -59h-134z" />
    <glyph glyph-name="uni1EAA" unicode="&#x1eaa;" horiz-adv-x="736" 
d="M564 0l-44 104h-312l-44 -104h-176l312 704h140l308 -704h-184zM268 244h192l-96 227zM300 920h-96v61q0 25 15.5 43t44.5 18q24 0 49 -5.5t64 -15.5q38 -11 47 -11q4 0 6 2.5t2 5.5v20h96v-61q0 -61 -60 -61q-39 0 -120 23q-34 9 -40 9q-4 0 -6 -2.5t-2 -5.5v-20z
M442 878l126 -124h-138l-66 47l-66 -47h-134l130 124h148z" />
    <glyph glyph-name="uni1EAB" unicode="&#x1eab;" horiz-adv-x="540" 
d="M446.5 457q57.5 -51 57.5 -133v-324h-120l-26 44q-30 -28 -68.5 -42t-81.5 -14q-90 0 -139 39.5t-49 104.5q0 72 58 111.5t166 56.5l88 14v2q0 56 -68 56q-30 0 -45 -11.5t-19 -36.5h-161q1 51 29 93t79.5 66.5t120.5 24.5q121 0 178.5 -51zM204.5 122q16.5 -10 39.5 -10
q49 0 88 36v64l-52 -8q-51 -8 -71.5 -20.5t-20.5 -31.5q0 -20 16.5 -30zM208 730h-96v61q0 25 15.5 43t44.5 18q24 0 49 -5.5t64 -15.5q38 -11 47 -11q4 0 6 2.5t2 5.5v20h96v-61q0 -61 -60 -61q-39 0 -120 23q-34 9 -40 9q-4 0 -6 -2.5t-2 -5.5v-20zM350 690l126 -134h-138
l-66 52l-66 -52h-134l130 134h148z" />
    <glyph glyph-name="uni1EAC" unicode="&#x1eac;" horiz-adv-x="736" 
d="M564 0l-44 104h-312l-44 -104h-176l312 704h140l308 -704h-184zM268 244h192l-96 227zM286 -66h164v-140h-164v140zM568 764h-138l-66 59l-66 -59h-134l130 148h148z" />
    <glyph glyph-name="uni1EAD" unicode="&#x1ead;" horiz-adv-x="540" 
d="M446.5 457q57.5 -51 57.5 -133v-324h-120l-26 44q-30 -28 -68.5 -42t-81.5 -14q-90 0 -139 39.5t-49 104.5q0 72 58 111.5t166 56.5l88 14v2q0 56 -68 56q-30 0 -45 -11.5t-19 -36.5h-161q1 51 29 93t79.5 66.5t120.5 24.5q121 0 178.5 -51zM204.5 122q16.5 -10 39.5 -10
q49 0 88 36v64l-52 -8q-51 -8 -71.5 -20.5t-20.5 -31.5q0 -20 16.5 -30zM194 -66h164v-140h-164v140zM476 556h-138l-66 59l-66 -59h-134l130 148h148z" />
    <glyph glyph-name="uni1EAE" unicode="&#x1eae;" horiz-adv-x="736" 
d="M564 0l-44 104h-312l-44 -104h-176l312 704h140l308 -704h-184zM268 244h192l-96 227zM420 900h-107v8l63 102h159zM244.5 788q-48.5 34 -52.5 95h108q5 -38 68 -38q32 0 49 10t19 28h108q-3 -60 -52.5 -94.5t-123.5 -34.5q-75 0 -123.5 34z" />
    <glyph glyph-name="uni1EAF" unicode="&#x1eaf;" horiz-adv-x="540" 
d="M446.5 457q57.5 -51 57.5 -133v-324h-120l-26 44q-30 -28 -68.5 -42t-81.5 -14q-90 0 -139 39.5t-49 104.5q0 72 58 111.5t166 56.5l88 14v2q0 56 -68 56q-30 0 -45 -11.5t-19 -36.5h-161q1 51 29 93t79.5 66.5t120.5 24.5q121 0 178.5 -51zM204.5 122q16.5 -10 39.5 -10
q49 0 88 36v64l-52 -8q-51 -8 -71.5 -20.5t-20.5 -31.5q0 -20 16.5 -30zM328 711h-107v8l64 121h159zM153 580.5q-49 36.5 -53 102.5h108q5 -43 68 -43q32 0 49 11.5t19 31.5h108q-3 -65 -52.5 -102t-123.5 -37t-123 36.5z" />
    <glyph glyph-name="uni1EB0" unicode="&#x1eb0;" horiz-adv-x="736" 
d="M564 0l-44 104h-312l-44 -104h-176l312 704h140l308 -704h-184zM268 244h192l-96 227zM423 900h-107l-115 110h159l63 -102v-8zM244.5 788q-48.5 34 -52.5 95h108q5 -38 68 -38q32 0 49 10t19 28h108q-3 -60 -52.5 -94.5t-123.5 -34.5q-75 0 -123.5 34z" />
    <glyph glyph-name="uni1EB1" unicode="&#x1eb1;" horiz-adv-x="540" 
d="M446.5 457q57.5 -51 57.5 -133v-324h-120l-26 44q-30 -28 -68.5 -42t-81.5 -14q-90 0 -139 39.5t-49 104.5q0 72 58 111.5t166 56.5l88 14v2q0 56 -68 56q-30 0 -45 -11.5t-19 -36.5h-161q1 51 29 93t79.5 66.5t120.5 24.5q121 0 178.5 -51zM204.5 122q16.5 -10 39.5 -10
q49 0 88 36v64l-52 -8q-51 -8 -71.5 -20.5t-20.5 -31.5q0 -20 16.5 -30zM331 711h-107l-116 129h159l64 -121v-8zM153 580.5q-49 36.5 -53 102.5h108q5 -43 68 -43q32 0 49 11.5t19 31.5h108q-3 -65 -52.5 -102t-123.5 -37t-123 36.5z" />
    <glyph glyph-name="uni1EB2" unicode="&#x1eb2;" horiz-adv-x="736" 
d="M564 0l-44 104h-312l-44 -104h-176l312 704h140l308 -704h-184zM268 244h192l-96 227zM341 990h-76q2 38 30.5 59t73.5 21q51 0 79.5 -24.5t28.5 -61.5q0 -63 -74 -70v-26h-68v73h36q26 0 26 22q0 10 -7.5 15.5t-19.5 5.5q-25 0 -29 -14zM544 893q-3 -65 -52.5 -102
t-123.5 -37t-123 36.5t-53 102.5h108q5 -43 68 -43q32 0 49 11.5t19 31.5h108z" />
    <glyph glyph-name="uni1EB3" unicode="&#x1eb3;" horiz-adv-x="540" 
d="M446.5 457q57.5 -51 57.5 -133v-324h-120l-26 44q-30 -28 -68.5 -42t-81.5 -14q-90 0 -139 39.5t-49 104.5q0 72 58 111.5t166 56.5l88 14v2q0 56 -68 56q-30 0 -45 -11.5t-19 -36.5h-161q1 51 29 93t79.5 66.5t120.5 24.5q121 0 178.5 -51zM204.5 122q16.5 -10 39.5 -10
q49 0 88 36v64l-52 -8q-51 -8 -71.5 -20.5t-20.5 -31.5q0 -20 16.5 -30zM249 802h-76q2 39 30.5 60.5t73.5 21.5q51 0 79.5 -25.5t28.5 -64.5q0 -63 -74 -72v-29h-68v81h36q26 0 26 21q0 10 -7.5 15.5t-19.5 5.5q-25 0 -29 -14zM452 683q-3 -65 -52.5 -102t-123.5 -37
t-123 36.5t-53 102.5h108q5 -43 68 -43q32 0 49 11.5t19 31.5h108z" />
    <glyph glyph-name="uni1EB4" unicode="&#x1eb4;" horiz-adv-x="736" 
d="M564 0l-44 104h-312l-44 -104h-176l312 704h140l308 -704h-184zM268 244h192l-96 227zM350 939q-34 9 -40 9q-4 0 -6 -2.5t-2 -5.5v-20h-96v61q0 25 15.5 43t44.5 18q24 0 49 -5.5t64 -15.5q38 -11 47 -11q4 0 6 2.5t2 5.5v20h96v-61q0 -61 -60 -61q-39 0 -120 23z
M245 790.5q-49 36.5 -53 102.5h108q5 -43 68 -43q32 0 49 11.5t19 31.5h108q-3 -65 -52.5 -102t-123.5 -37t-123 36.5z" />
    <glyph glyph-name="uni1EB5" unicode="&#x1eb5;" horiz-adv-x="540" 
d="M446.5 457q57.5 -51 57.5 -133v-324h-120l-26 44q-30 -28 -68.5 -42t-81.5 -14q-90 0 -139 39.5t-49 104.5q0 72 58 111.5t166 56.5l88 14v2q0 56 -68 56q-30 0 -45 -11.5t-19 -36.5h-161q1 51 29 93t79.5 66.5t120.5 24.5q121 0 178.5 -51zM204.5 122q16.5 -10 39.5 -10
q49 0 88 36v64l-52 -8q-51 -8 -71.5 -20.5t-20.5 -31.5q0 -20 16.5 -30zM325 723q-29 7 -67 19q-35 11 -40 11q-4 0 -6 -2.5t-2 -5.5v-25h-96v76q0 24 15.5 40t44.5 16q24 0 50 -6.5t63 -18.5q8 -2 24 -7t23 -5q4 0 6 2.5t2 5.5v25h96v-76q0 -29 -14.5 -42.5t-45.5 -13.5
q-24 0 -53 7zM153 580.5q-49 36.5 -53 102.5h108q5 -43 68 -43q32 0 49 11.5t19 31.5h108q-3 -65 -52.5 -102t-123.5 -37t-123 36.5z" />
    <glyph glyph-name="uni1EB6" unicode="&#x1eb6;" horiz-adv-x="736" 
d="M564 0l-44 104h-312l-44 -104h-176l312 704h140l308 -704h-184zM268 244h192l-96 227zM286 -66h164v-140h-164v140zM246 794q-50 42 -54 118h108q2 -27 21 -43.5t47 -16.5q27 0 47 16.5t21 43.5h108q-3 -75 -53.5 -117.5t-122.5 -42.5t-122 42z" />
    <glyph glyph-name="uni1EB7" unicode="&#x1eb7;" horiz-adv-x="540" 
d="M446.5 457q57.5 -51 57.5 -133v-324h-120l-26 44q-30 -28 -68.5 -42t-81.5 -14q-90 0 -139 39.5t-49 104.5q0 72 58 111.5t166 56.5l88 14v2q0 56 -68 56q-30 0 -45 -11.5t-19 -36.5h-161q1 51 29 93t79.5 66.5t120.5 24.5q121 0 178.5 -51zM204.5 122q16.5 -10 39.5 -10
q49 0 88 36v64l-52 -8q-51 -8 -71.5 -20.5t-20.5 -31.5q0 -20 16.5 -30zM194 -66h164v-140h-164v140zM154 586q-50 42 -54 118h108q2 -27 21 -43.5t47 -16.5q27 0 47 16.5t21 43.5h108q-3 -75 -53.5 -117.5t-122.5 -42.5t-122 42z" />
    <glyph glyph-name="uni1EB8" unicode="&#x1eb8;" horiz-adv-x="584" 
d="M224 156h332v-156h-504v704h496v-156h-324v-124h288v-144h-288v-124zM222 -66h164v-140h-164v140z" />
    <glyph glyph-name="uni1EB9" unicode="&#x1eb9;" horiz-adv-x="564" 
d="M217.5 142q26.5 -22 66.5 -22q54 0 84 36h168q-21 -75 -89 -121.5t-163 -46.5q-73 0 -134 31.5t-97.5 90.5t-36.5 138q0 72 33.5 131.5t94 94t136.5 34.5q73 0 133 -30.5t95.5 -88.5t35.5 -137v-48h-361q8 -40 34.5 -62zM218.5 355.5q-25.5 -20.5 -34.5 -51.5h191
q-9 31 -33.5 51.5t-61.5 20.5q-36 0 -61.5 -20.5zM210 -66h164v-140h-164v140z" />
    <glyph glyph-name="uni1EBA" unicode="&#x1eba;" horiz-adv-x="584" 
d="M224 156h332v-156h-504v704h496v-156h-324v-124h288v-144h-288v-124zM334 784v-38h-68v90h36q11 0 18.5 6t7.5 19q0 11 -7 17t-19 6q-11 0 -19.5 -4t-10.5 -12h-76q2 40 30.5 62t73.5 22q52 0 80 -25.5t28 -66.5q0 -67 -74 -76z" />
    <glyph glyph-name="uni1EBB" unicode="&#x1ebb;" horiz-adv-x="564" 
d="M217.5 142q26.5 -22 66.5 -22q54 0 84 36h168q-21 -75 -89 -121.5t-163 -46.5q-73 0 -134 31.5t-97.5 90.5t-36.5 138q0 72 33.5 131.5t94 94t136.5 34.5q73 0 133 -30.5t95.5 -88.5t35.5 -137v-48h-361q8 -40 34.5 -62zM218.5 355.5q-25.5 -20.5 -34.5 -51.5h191
q-9 31 -33.5 51.5t-61.5 20.5q-36 0 -61.5 -20.5zM318 576v-38h-68v90h36q11 0 18.5 6t7.5 19q0 11 -7 17t-19 6q-11 0 -19.5 -4t-10.5 -12h-76q2 40 30.5 62t73.5 22q52 0 80 -25.5t28 -66.5q0 -67 -74 -76z" />
    <glyph glyph-name="uni1EBC" unicode="&#x1ebc;" horiz-adv-x="584" 
d="M224 156h332v-156h-504v704h496v-156h-324v-124h288v-144h-288v-124zM347 763q-29 11 -67 29q-34 16 -40 16q-4 0 -6 -2.5t-2 -5.5v-44h-96v100q0 26 15.5 43t44.5 17q24 0 49.5 -9.5t63.5 -27.5q36 -19 47 -19q4 0 6 2.5t2 5.5v44h96v-100q0 -26 -15.5 -43t-44.5 -17
q-24 0 -53 11z" />
    <glyph glyph-name="uni1EBD" unicode="&#x1ebd;" horiz-adv-x="564" 
d="M217.5 142q26.5 -22 66.5 -22q54 0 84 36h168q-21 -75 -89 -121.5t-163 -46.5q-73 0 -134 31.5t-97.5 90.5t-36.5 138q0 72 33.5 131.5t94 94t136.5 34.5q73 0 133 -30.5t95.5 -88.5t35.5 -137v-48h-361q8 -40 34.5 -62zM218.5 355.5q-25.5 -20.5 -34.5 -51.5h191
q-9 31 -33.5 51.5t-61.5 20.5q-36 0 -61.5 -20.5zM331 555q-29 11 -67 29q-34 16 -40 16q-4 0 -6 -2.5t-2 -5.5v-44h-96v100q0 26 15.5 43t44.5 17q24 0 49.5 -9.5t63.5 -27.5q36 -19 47 -19q4 0 6 2.5t2 5.5v44h96v-100q0 -26 -15.5 -43t-44.5 -17q-24 0 -53 11z" />
    <glyph glyph-name="uni1EBE" unicode="&#x1ebe;" horiz-adv-x="584" 
d="M224 156h332v-156h-504v704h496v-156h-324v-124h288v-144h-288v-124zM447 852l40 106h155l-92 -114h-103v8zM96 754l130 135h148l126 -135h-138l-66 54l-66 -54h-134z" />
    <glyph glyph-name="uni1EBF" unicode="&#x1ebf;" horiz-adv-x="564" 
d="M217.5 142q26.5 -22 66.5 -22q54 0 84 36h168q-21 -75 -89 -121.5t-163 -46.5q-73 0 -134 31.5t-97.5 90.5t-36.5 138q0 72 33.5 131.5t94 94t136.5 34.5q73 0 133 -30.5t95.5 -88.5t35.5 -137v-48h-361q8 -40 34.5 -62zM218.5 355.5q-25.5 -20.5 -34.5 -51.5h191
q-9 31 -33.5 51.5t-61.5 20.5q-36 0 -61.5 -20.5zM414 682l52 122h155l-104 -130h-103v8zM80 556l130 148h148l126 -148h-138l-66 59l-66 -59h-134z" />
    <glyph glyph-name="uni1EC0" unicode="&#x1ec0;" horiz-adv-x="584" 
d="M224 156h332v-156h-504v704h496v-156h-324v-124h288v-144h-288v-124zM109 958l40 -106v-8h-103l-92 114h155zM374 889l126 -135h-138l-66 54l-66 -54h-134l130 135h148z" />
    <glyph glyph-name="uni1EC1" unicode="&#x1ec1;" horiz-adv-x="564" 
d="M217.5 142q26.5 -22 66.5 -22q54 0 84 36h168q-21 -75 -89 -121.5t-163 -46.5q-73 0 -134 31.5t-97.5 90.5t-36.5 138q0 72 33.5 131.5t94 94t136.5 34.5q73 0 133 -30.5t95.5 -88.5t35.5 -137v-48h-361q8 -40 34.5 -62zM218.5 355.5q-25.5 -20.5 -34.5 -51.5h191
q-9 31 -33.5 51.5t-61.5 20.5q-36 0 -61.5 -20.5zM98 804l52 -122v-8h-103l-104 130h155zM358 704l126 -148h-138l-66 59l-66 -59h-134l130 148h148z" />
    <glyph glyph-name="uni1EC2" unicode="&#x1ec2;" horiz-adv-x="584" 
d="M224 156h332v-156h-504v704h496v-156h-324v-124h288v-144h-288v-124zM523 877v-32h-68v84h36q11 0 18.5 6t7.5 18q0 10 -7.5 15.5t-19.5 5.5q-25 0 -29 -14h-76q2 39 30.5 60.5t73.5 21.5q51 0 79.5 -25.5t28.5 -64.5q0 -66 -74 -75zM96 754l130 135h148l126 -135h-138
l-66 54l-66 -54h-134z" />
    <glyph glyph-name="uni1EC3" unicode="&#x1ec3;" horiz-adv-x="564" 
d="M217.5 142q26.5 -22 66.5 -22q54 0 84 36h168q-21 -75 -89 -121.5t-163 -46.5q-73 0 -134 31.5t-97.5 90.5t-36.5 138q0 72 33.5 131.5t94 94t136.5 34.5q73 0 133 -30.5t95.5 -88.5t35.5 -137v-48h-361q8 -40 34.5 -62zM218.5 355.5q-25.5 -20.5 -34.5 -51.5h191
q-9 31 -33.5 51.5t-61.5 20.5q-36 0 -61.5 -20.5zM507 687v-32h-68v84h36q11 0 18.5 6t7.5 18q0 10 -7.5 15.5t-19.5 5.5q-25 0 -29 -14h-76q2 39 30.5 60.5t73.5 21.5q51 0 79.5 -25.5t28.5 -64.5q0 -66 -74 -75zM80 556l130 148h148l126 -148h-138l-66 59l-66 -59h-134z
" />
    <glyph glyph-name="uni1EC4" unicode="&#x1ec4;" horiz-adv-x="584" 
d="M224 156h332v-156h-504v704h496v-156h-324v-124h288v-144h-288v-124zM232 920h-96v61q0 25 15.5 43t44.5 18q24 0 49 -5.5t64 -15.5q38 -11 47 -11q4 0 6 2.5t2 5.5v20h96v-61q0 -61 -60 -61q-39 0 -120 23q-34 9 -40 9q-4 0 -6 -2.5t-2 -5.5v-20zM374 878l126 -124h-138
l-66 47l-66 -47h-134l130 124h148z" />
    <glyph glyph-name="uni1EC5" unicode="&#x1ec5;" horiz-adv-x="564" 
d="M217.5 142q26.5 -22 66.5 -22q54 0 84 36h168q-21 -75 -89 -121.5t-163 -46.5q-73 0 -134 31.5t-97.5 90.5t-36.5 138q0 72 33.5 131.5t94 94t136.5 34.5q73 0 133 -30.5t95.5 -88.5t35.5 -137v-48h-361q8 -40 34.5 -62zM218.5 355.5q-25.5 -20.5 -34.5 -51.5h191
q-9 31 -33.5 51.5t-61.5 20.5q-36 0 -61.5 -20.5zM216 730h-96v61q0 25 15.5 43t44.5 18q24 0 49 -5.5t64 -15.5q38 -11 47 -11q4 0 6 2.5t2 5.5v20h96v-61q0 -61 -60 -61q-39 0 -120 23q-34 9 -40 9q-4 0 -6 -2.5t-2 -5.5v-20zM358 690l126 -134h-138l-66 52l-66 -52h-134
l130 134h148z" />
    <glyph glyph-name="uni1EC6" unicode="&#x1ec6;" horiz-adv-x="584" 
d="M224 156h332v-156h-504v704h496v-156h-324v-124h288v-144h-288v-124zM222 -66h164v-140h-164v140zM500 764h-138l-66 59l-66 -59h-134l130 148h148z" />
    <glyph glyph-name="uni1EC7" unicode="&#x1ec7;" horiz-adv-x="564" 
d="M217.5 142q26.5 -22 66.5 -22q54 0 84 36h168q-21 -75 -89 -121.5t-163 -46.5q-73 0 -134 31.5t-97.5 90.5t-36.5 138q0 72 33.5 131.5t94 94t136.5 34.5q73 0 133 -30.5t95.5 -88.5t35.5 -137v-48h-361q8 -40 34.5 -62zM218.5 355.5q-25.5 -20.5 -34.5 -51.5h191
q-9 31 -33.5 51.5t-61.5 20.5q-36 0 -61.5 -20.5zM210 -66h164v-140h-164v140zM484 556h-138l-66 59l-66 -59h-134l130 148h148z" />
    <glyph glyph-name="uni1EC8" unicode="&#x1ec8;" horiz-adv-x="276" 
d="M52 704h172v-704h-172v704zM174 784v-38h-68v90h36q11 0 18.5 6t7.5 19q0 11 -7 17t-19 6q-11 0 -19.5 -4t-10.5 -12h-76q2 40 30.5 62t73.5 22q52 0 80 -25.5t28 -66.5q0 -67 -74 -76z" />
    <glyph glyph-name="uni1EC9" unicode="&#x1ec9;" horiz-adv-x="252" 
d="M40 496h172v-496h-172v496zM162 576v-38h-68v90h36q11 0 18.5 6t7.5 19q0 11 -7 17t-19 6q-11 0 -19.5 -4t-10.5 -12h-76q2 40 30.5 62t73.5 22q52 0 80 -25.5t28 -66.5q0 -67 -74 -76z" />
    <glyph glyph-name="uni1ECA" unicode="&#x1eca;" horiz-adv-x="276" 
d="M52 704h172v-704h-172v704zM56 -66h164v-140h-164v140z" />
    <glyph glyph-name="uni1ECB" unicode="&#x1ecb;" horiz-adv-x="252" 
d="M40 496h172v-496h-172v496zM44 704h164v-140h-164v140zM46 -66h164v-140h-164v140z" />
    <glyph glyph-name="uni1ECC" unicode="&#x1ecc;" horiz-adv-x="800" 
d="M209 36q-88 48 -140.5 131.5t-52.5 184.5q0 100 52.5 183.5t140.5 132t191 48.5t191 -48t140.5 -131.5t52.5 -184.5t-52.5 -184.5t-140.5 -131.5t-191 -48t-191 48zM501 175.5q47 27.5 75 74t28 102.5t-28 102.5t-75 74t-101 27.5t-101 -27.5t-75 -74.5t-28 -102
q0 -56 28 -102.5t75 -74t101 -27.5t101 27.5zM318 -66h164v-140h-164v140z" />
    <glyph glyph-name="uni1ECD" unicode="&#x1ecd;" 
d="M153 22q-65 34 -101 93t-36 133t36 133t101 93t147 34t147 -34t101 -93t36 -133t-36 -133t-101 -93t-147 -34t-147 34zM378 164.5q30 32.5 30 83.5t-30 83.5t-78 32.5t-78 -32.5t-30 -83.5t30 -83.5t78 -32.5t78 32.5zM218 -66h164v-140h-164v140z" />
    <glyph glyph-name="uni1ECE" unicode="&#x1ece;" horiz-adv-x="800" 
d="M209 36q-88 48 -140.5 131.5t-52.5 184.5q0 100 52.5 183.5t140.5 132t191 48.5t191 -48t140.5 -131.5t52.5 -184.5t-52.5 -184.5t-140.5 -131.5t-191 -48t-191 48zM501 175.5q47 27.5 75 74t28 102.5t-28 102.5t-75 74t-101 27.5t-101 -27.5t-75 -74.5t-28 -102
q0 -56 28 -102.5t75 -74t101 -27.5t101 27.5zM434 784v-38h-68v90h36q11 0 18.5 6t7.5 19q0 11 -7 17t-19 6q-11 0 -19.5 -4t-10.5 -12h-76q2 40 30.5 62t73.5 22q52 0 80 -25.5t28 -66.5q0 -67 -74 -76z" />
    <glyph glyph-name="uni1ECF" unicode="&#x1ecf;" 
d="M153 22q-65 34 -101 93t-36 133t36 133t101 93t147 34t147 -34t101 -93t36 -133t-36 -133t-101 -93t-147 -34t-147 34zM378 164.5q30 32.5 30 83.5t-30 83.5t-78 32.5t-78 -32.5t-30 -83.5t30 -83.5t78 -32.5t78 32.5zM334 576v-38h-68v90h36q11 0 18.5 6t7.5 19
q0 11 -7 17t-19 6q-11 0 -19.5 -4t-10.5 -12h-76q2 40 30.5 62t73.5 22q52 0 80 -25.5t28 -66.5q0 -67 -74 -76z" />
    <glyph glyph-name="uni1ED0" unicode="&#x1ed0;" horiz-adv-x="800" 
d="M209 36q-88 48 -140.5 131.5t-52.5 184.5q0 100 52.5 183.5t140.5 132t191 48.5t191 -48t140.5 -131.5t52.5 -184.5t-52.5 -184.5t-140.5 -131.5t-191 -48t-191 48zM501 175.5q47 27.5 75 74t28 102.5t-28 102.5t-75 74t-101 27.5t-101 -27.5t-75 -74.5t-28 -102
q0 -56 28 -102.5t75 -74t101 -27.5t101 27.5zM547 852l40 106h155l-92 -114h-103v8zM196 754l130 135h148l126 -135h-138l-66 54l-66 -54h-134z" />
    <glyph glyph-name="uni1ED1" unicode="&#x1ed1;" 
d="M153 22q-65 34 -101 93t-36 133t36 133t101 93t147 34t147 -34t101 -93t36 -133t-36 -133t-101 -93t-147 -34t-147 34zM378 164.5q30 32.5 30 83.5t-30 83.5t-78 32.5t-78 -32.5t-30 -83.5t30 -83.5t78 -32.5t78 32.5zM430 682l52 122h155l-104 -130h-103v8zM96 556
l130 148h148l126 -148h-138l-66 59l-66 -59h-134z" />
    <glyph glyph-name="uni1ED2" unicode="&#x1ed2;" horiz-adv-x="800" 
d="M209 36q-88 48 -140.5 131.5t-52.5 184.5q0 100 52.5 183.5t140.5 132t191 48.5t191 -48t140.5 -131.5t52.5 -184.5t-52.5 -184.5t-140.5 -131.5t-191 -48t-191 48zM501 175.5q47 27.5 75 74t28 102.5t-28 102.5t-75 74t-101 27.5t-101 -27.5t-75 -74.5t-28 -102
q0 -56 28 -102.5t75 -74t101 -27.5t101 27.5zM209 958l40 -106v-8h-103l-92 114h155zM474 889l126 -135h-138l-66 54l-66 -54h-134l130 135h148z" />
    <glyph glyph-name="uni1ED3" unicode="&#x1ed3;" 
d="M153 22q-65 34 -101 93t-36 133t36 133t101 93t147 34t147 -34t101 -93t36 -133t-36 -133t-101 -93t-147 -34t-147 34zM378 164.5q30 32.5 30 83.5t-30 83.5t-78 32.5t-78 -32.5t-30 -83.5t30 -83.5t78 -32.5t78 32.5zM114 804l52 -122v-8h-103l-104 130h155zM374 704
l126 -148h-138l-66 59l-66 -59h-134l130 148h148z" />
    <glyph glyph-name="uni1ED4" unicode="&#x1ed4;" horiz-adv-x="800" 
d="M209 36q-88 48 -140.5 131.5t-52.5 184.5q0 100 52.5 183.5t140.5 132t191 48.5t191 -48t140.5 -131.5t52.5 -184.5t-52.5 -184.5t-140.5 -131.5t-191 -48t-191 48zM501 175.5q47 27.5 75 74t28 102.5t-28 102.5t-75 74t-101 27.5t-101 -27.5t-75 -74.5t-28 -102
q0 -56 28 -102.5t75 -74t101 -27.5t101 27.5zM623 877v-32h-68v84h36q11 0 18.5 6t7.5 18q0 10 -7.5 15.5t-19.5 5.5q-25 0 -29 -14h-76q2 39 30.5 60.5t73.5 21.5q51 0 79.5 -25.5t28.5 -64.5q0 -66 -74 -75zM196 754l130 135h148l126 -135h-138l-66 54l-66 -54h-134z" />
    <glyph glyph-name="uni1ED5" unicode="&#x1ed5;" 
d="M153 22q-65 34 -101 93t-36 133t36 133t101 93t147 34t147 -34t101 -93t36 -133t-36 -133t-101 -93t-147 -34t-147 34zM378 164.5q30 32.5 30 83.5t-30 83.5t-78 32.5t-78 -32.5t-30 -83.5t30 -83.5t78 -32.5t78 32.5zM523 687v-32h-68v84h36q11 0 18.5 6t7.5 18
q0 10 -7.5 15.5t-19.5 5.5q-25 0 -29 -14h-76q2 39 30.5 60.5t73.5 21.5q51 0 79.5 -25.5t28.5 -64.5q0 -66 -74 -75zM96 556l130 148h148l126 -148h-138l-66 59l-66 -59h-134z" />
    <glyph glyph-name="uni1ED6" unicode="&#x1ed6;" horiz-adv-x="800" 
d="M209 36q-88 48 -140.5 131.5t-52.5 184.5q0 100 52.5 183.5t140.5 132t191 48.5t191 -48t140.5 -131.5t52.5 -184.5t-52.5 -184.5t-140.5 -131.5t-191 -48t-191 48zM501 175.5q47 27.5 75 74t28 102.5t-28 102.5t-75 74t-101 27.5t-101 -27.5t-75 -74.5t-28 -102
q0 -56 28 -102.5t75 -74t101 -27.5t101 27.5zM332 920h-96v61q0 25 15.5 43t44.5 18q24 0 49 -5.5t64 -15.5q38 -11 47 -11q4 0 6 2.5t2 5.5v20h96v-61q0 -61 -60 -61q-39 0 -120 23q-34 9 -40 9q-4 0 -6 -2.5t-2 -5.5v-20zM474 878l126 -124h-138l-66 47l-66 -47h-134
l130 124h148z" />
    <glyph glyph-name="uni1ED7" unicode="&#x1ed7;" 
d="M153 22q-65 34 -101 93t-36 133t36 133t101 93t147 34t147 -34t101 -93t36 -133t-36 -133t-101 -93t-147 -34t-147 34zM378 164.5q30 32.5 30 83.5t-30 83.5t-78 32.5t-78 -32.5t-30 -83.5t30 -83.5t78 -32.5t78 32.5zM232 730h-96v61q0 25 15.5 43t44.5 18q24 0 49 -5.5
t64 -15.5q38 -11 47 -11q4 0 6 2.5t2 5.5v20h96v-61q0 -61 -60 -61q-39 0 -120 23q-34 9 -40 9q-4 0 -6 -2.5t-2 -5.5v-20zM374 690l126 -134h-138l-66 52l-66 -52h-134l130 134h148z" />
    <glyph glyph-name="uni1ED8" unicode="&#x1ed8;" horiz-adv-x="800" 
d="M209 36q-88 48 -140.5 131.5t-52.5 184.5q0 100 52.5 183.5t140.5 132t191 48.5t191 -48t140.5 -131.5t52.5 -184.5t-52.5 -184.5t-140.5 -131.5t-191 -48t-191 48zM501 175.5q47 27.5 75 74t28 102.5t-28 102.5t-75 74t-101 27.5t-101 -27.5t-75 -74.5t-28 -102
q0 -56 28 -102.5t75 -74t101 -27.5t101 27.5zM318 -66h164v-140h-164v140zM600 764h-138l-66 59l-66 -59h-134l130 148h148z" />
    <glyph glyph-name="uni1ED9" unicode="&#x1ed9;" 
d="M153 22q-65 34 -101 93t-36 133t36 133t101 93t147 34t147 -34t101 -93t36 -133t-36 -133t-101 -93t-147 -34t-147 34zM378 164.5q30 32.5 30 83.5t-30 83.5t-78 32.5t-78 -32.5t-30 -83.5t30 -83.5t78 -32.5t78 32.5zM218 -66h164v-140h-164v140zM500 556h-138l-66 59
l-66 -59h-134l130 148h148z" />
    <glyph glyph-name="uni1EDA" unicode="&#x1eda;" horiz-adv-x="800" 
d="M753.5 495q30.5 -67 30.5 -143q0 -101 -52.5 -184.5t-140.5 -131.5t-191 -48t-191 48t-140.5 131.5t-52.5 184.5q0 100 52.5 183.5t140.5 132t191 48.5q92 0 173 -39h24q44 0 44 50q0 29 -13 55h113q12 -33 12 -62q0 -40 -21.5 -67.5t-62.5 -39.5q54 -51 84.5 -118z
M501 175.5q47 27.5 75 74t28 102.5t-28 102.5t-75 74t-101 27.5t-101 -27.5t-75 -74.5t-28 -102q0 -56 28 -102.5t75 -74t101 -27.5t101 27.5zM338 776l64 136h172l-116 -144h-120v8z" />
    <glyph glyph-name="uni1EDB" unicode="&#x1edb;" 
d="M581.5 449q-18.5 -26 -53.5 -40q56 -68 56 -161q0 -74 -36 -133t-101 -93t-147 -34t-147 34t-101 93t-36 133t36 133t101 93t147 34q85 0 155 -38q33 6 33 49q0 29 -13 55h113q12 -33 12 -62q0 -37 -18.5 -63zM378 164.5q30 32.5 30 83.5t-30 83.5t-78 32.5t-78 -32.5
t-30 -83.5t30 -83.5t78 -32.5t78 32.5zM238 568l64 136h172l-116 -144h-120v8z" />
    <glyph glyph-name="uni1EDC" unicode="&#x1edc;" horiz-adv-x="800" 
d="M753.5 495q30.5 -67 30.5 -143q0 -101 -52.5 -184.5t-140.5 -131.5t-191 -48t-191 48t-140.5 131.5t-52.5 184.5q0 100 52.5 183.5t140.5 132t191 48.5q92 0 173 -39h24q44 0 44 50q0 29 -13 55h113q12 -33 12 -62q0 -40 -21.5 -67.5t-62.5 -39.5q54 -51 84.5 -118z
M501 175.5q47 27.5 75 74t28 102.5t-28 102.5t-75 74t-101 27.5t-101 -27.5t-75 -74.5t-28 -102q0 -56 28 -102.5t75 -74t101 -27.5t101 27.5zM226 912h172l64 -136v-8h-120z" />
    <glyph glyph-name="uni1EDD" unicode="&#x1edd;" 
d="M581.5 449q-18.5 -26 -53.5 -40q56 -68 56 -161q0 -74 -36 -133t-101 -93t-147 -34t-147 34t-101 93t-36 133t36 133t101 93t147 34q85 0 155 -38q33 6 33 49q0 29 -13 55h113q12 -33 12 -62q0 -37 -18.5 -63zM378 164.5q30 32.5 30 83.5t-30 83.5t-78 32.5t-78 -32.5
t-30 -83.5t30 -83.5t78 -32.5t78 32.5zM126 704h172l64 -136v-8h-120z" />
    <glyph glyph-name="uni1EDE" unicode="&#x1ede;" horiz-adv-x="800" 
d="M753.5 495q30.5 -67 30.5 -143q0 -101 -52.5 -184.5t-140.5 -131.5t-191 -48t-191 48t-140.5 131.5t-52.5 184.5q0 100 52.5 183.5t140.5 132t191 48.5q92 0 173 -39h24q44 0 44 50q0 29 -13 55h113q12 -33 12 -62q0 -40 -21.5 -67.5t-62.5 -39.5q54 -51 84.5 -118z
M501 175.5q47 27.5 75 74t28 102.5t-28 102.5t-75 74t-101 27.5t-101 -27.5t-75 -74.5t-28 -102q0 -56 28 -102.5t75 -74t101 -27.5t101 27.5zM434 784v-38h-68v90h36q11 0 18.5 6t7.5 19q0 11 -7 17t-19 6q-11 0 -19.5 -4t-10.5 -12h-76q2 40 30.5 62t73.5 22
q52 0 80 -25.5t28 -66.5q0 -67 -74 -76z" />
    <glyph glyph-name="uni1EDF" unicode="&#x1edf;" 
d="M581.5 449q-18.5 -26 -53.5 -40q56 -68 56 -161q0 -74 -36 -133t-101 -93t-147 -34t-147 34t-101 93t-36 133t36 133t101 93t147 34q85 0 155 -38q33 6 33 49q0 29 -13 55h113q12 -33 12 -62q0 -37 -18.5 -63zM378 164.5q30 32.5 30 83.5t-30 83.5t-78 32.5t-78 -32.5
t-30 -83.5t30 -83.5t78 -32.5t78 32.5zM334 576v-38h-68v90h36q11 0 18.5 6t7.5 19q0 11 -7 17t-19 6q-11 0 -19.5 -4t-10.5 -12h-76q2 40 30.5 62t73.5 22q52 0 80 -25.5t28 -66.5q0 -67 -74 -76z" />
    <glyph glyph-name="uni1EE0" unicode="&#x1ee0;" horiz-adv-x="800" 
d="M753.5 495q30.5 -67 30.5 -143q0 -101 -52.5 -184.5t-140.5 -131.5t-191 -48t-191 48t-140.5 131.5t-52.5 184.5q0 100 52.5 183.5t140.5 132t191 48.5q92 0 173 -39h24q44 0 44 50q0 29 -13 55h113q12 -33 12 -62q0 -40 -21.5 -67.5t-62.5 -39.5q54 -51 84.5 -118z
M501 175.5q47 27.5 75 74t28 102.5t-28 102.5t-75 74t-101 27.5t-101 -27.5t-75 -74.5t-28 -102q0 -56 28 -102.5t75 -74t101 -27.5t101 27.5zM447 763q-29 11 -67 29q-34 16 -40 16q-4 0 -6 -2.5t-2 -5.5v-44h-96v100q0 26 15.5 43t44.5 17q24 0 49.5 -9.5t63.5 -27.5
q36 -19 47 -19q4 0 6 2.5t2 5.5v44h96v-100q0 -26 -15.5 -43t-44.5 -17q-24 0 -53 11z" />
    <glyph glyph-name="uni1EE1" unicode="&#x1ee1;" 
d="M235 548h-92v100q0 26 14.5 43t42.5 17q22 0 47 -9.5t62 -27.5q35 -19 45 -19q4 0 6 2.5t2 5.5v44h92v-100q0 -26 -15 -43t-43 -17q-24 0 -52 11t-63 29q-32 16 -38 16q-4 0 -6 -2.5t-2 -5.5v-44zM581.5 449q-18.5 -26 -53.5 -40q56 -68 56 -161q0 -74 -36 -133t-101 -93
t-147 -34t-147 34t-101 93t-36 133t36 133t101 93t147 34q85 0 155 -38q33 6 33 49q0 29 -13 55h113q12 -33 12 -62q0 -37 -18.5 -63zM378 164.5q30 32.5 30 83.5t-30 83.5t-78 32.5t-78 -32.5t-30 -83.5t30 -83.5t78 -32.5t78 32.5z" />
    <glyph glyph-name="uni1EE2" unicode="&#x1ee2;" horiz-adv-x="800" 
d="M753.5 495q30.5 -67 30.5 -143q0 -101 -52.5 -184.5t-140.5 -131.5t-191 -48t-191 48t-140.5 131.5t-52.5 184.5q0 100 52.5 183.5t140.5 132t191 48.5q92 0 173 -39h24q44 0 44 50q0 29 -13 55h113q12 -33 12 -62q0 -40 -21.5 -67.5t-62.5 -39.5q54 -51 84.5 -118z
M501 175.5q47 27.5 75 74t28 102.5t-28 102.5t-75 74t-101 27.5t-101 -27.5t-75 -74.5t-28 -102q0 -56 28 -102.5t75 -74t101 -27.5t101 27.5zM318 -66h164v-140h-164v140z" />
    <glyph glyph-name="uni1EE3" unicode="&#x1ee3;" 
d="M581.5 449q-18.5 -26 -53.5 -40q56 -68 56 -161q0 -74 -36 -133t-101 -93t-147 -34t-147 34t-101 93t-36 133t36 133t101 93t147 34q85 0 155 -38q33 6 33 49q0 29 -13 55h113q12 -33 12 -62q0 -37 -18.5 -63zM378 164.5q30 32.5 30 83.5t-30 83.5t-78 32.5t-78 -32.5
t-30 -83.5t30 -83.5t78 -32.5t78 32.5zM218 -66h164v-140h-164v140z" />
    <glyph glyph-name="uni1EE4" unicode="&#x1ee4;" horiz-adv-x="708" 
d="M191.5 23.5q-71.5 35.5 -111.5 100.5t-40 152v428h172v-432q0 -60 39.5 -94t104.5 -34q62 0 101 34t39 94v432h172v-428q0 -87 -40 -152t-110.5 -100.5t-161.5 -35.5q-93 0 -164.5 35.5zM272 -66h164v-140h-164v140z" />
    <glyph glyph-name="uni1EE5" unicode="&#x1ee5;" horiz-adv-x="572" 
d="M532 496v-496h-120l-34 58q-52 -70 -138 -70q-63 0 -109 26.5t-70.5 73t-24.5 104.5v304h172v-276q0 -36 20 -58t56 -22q25 0 45.5 12t30.5 28v316h172zM206 -66h164v-140h-164v140z" />
    <glyph glyph-name="uni1EE6" unicode="&#x1ee6;" horiz-adv-x="708" 
d="M191.5 23.5q-71.5 35.5 -111.5 100.5t-40 152v428h172v-432q0 -60 39.5 -94t104.5 -34q62 0 101 34t39 94v432h172v-428q0 -87 -40 -152t-110.5 -100.5t-161.5 -35.5q-93 0 -164.5 35.5zM390 784v-38h-68v90h36q11 0 18.5 6t7.5 19q0 11 -7 17t-19 6q-11 0 -19.5 -4
t-10.5 -12h-76q2 40 30.5 62t73.5 22q52 0 80 -25.5t28 -66.5q0 -67 -74 -76z" />
    <glyph glyph-name="uni1EE7" unicode="&#x1ee7;" horiz-adv-x="572" 
d="M532 496v-496h-120l-34 58q-52 -70 -138 -70q-63 0 -109 26.5t-70.5 73t-24.5 104.5v304h172v-276q0 -36 20 -58t56 -22q25 0 45.5 12t30.5 28v316h172zM322 576v-38h-68v90h36q11 0 18.5 6t7.5 19q0 11 -7 17t-19 6q-11 0 -19.5 -4t-10.5 -12h-76q2 40 30.5 62t73.5 22
q52 0 80 -25.5t28 -66.5q0 -67 -74 -76z" />
    <glyph glyph-name="uni1EE8" unicode="&#x1ee8;" horiz-adv-x="804" 
d="M774.5 636.5q-37.5 -30.5 -106.5 -33.5v-327q0 -87 -40 -152t-110.5 -100.5t-161.5 -35.5q-93 0 -164.5 35.5t-111.5 100.5t-40 152v428h172v-432q0 -60 39.5 -94t104.5 -34q62 0 101 34t39 94v432h172v-26q32 6 32 49q0 29 -13 55h113q12 -33 12 -62q0 -53 -37.5 -83.5z
M294 776l64 136h172l-116 -144h-120v8z" />
    <glyph glyph-name="uni1EE9" unicode="&#x1ee9;" horiz-adv-x="686" 
d="M645.5 426.5q-40.5 -30.5 -113.5 -31.5v-395h-120l-34 58q-52 -70 -138 -70q-63 0 -109 26.5t-70.5 73t-24.5 104.5v304h172v-276q0 -36 20 -58t56 -22q25 0 45.5 12t30.5 28v316h172v-27q42 1 42 50q0 29 -13 55h113q12 -33 12 -62q0 -55 -40.5 -85.5zM226 568l64 136
h172l-116 -144h-120v8z" />
    <glyph glyph-name="uni1EEA" unicode="&#x1eea;" horiz-adv-x="804" 
d="M774.5 636.5q-37.5 -30.5 -106.5 -33.5v-327q0 -87 -40 -152t-110.5 -100.5t-161.5 -35.5q-93 0 -164.5 35.5t-111.5 100.5t-40 152v428h172v-432q0 -60 39.5 -94t104.5 -34q62 0 101 34t39 94v432h172v-26q32 6 32 49q0 29 -13 55h113q12 -33 12 -62q0 -53 -37.5 -83.5z
M182 912h172l64 -136v-8h-120z" />
    <glyph glyph-name="uni1EEB" unicode="&#x1eeb;" horiz-adv-x="686" 
d="M645.5 426.5q-40.5 -30.5 -113.5 -31.5v-395h-120l-34 58q-52 -70 -138 -70q-63 0 -109 26.5t-70.5 73t-24.5 104.5v304h172v-276q0 -36 20 -58t56 -22q25 0 45.5 12t30.5 28v316h172v-27q42 1 42 50q0 29 -13 55h113q12 -33 12 -62q0 -55 -40.5 -85.5zM114 704h172
l64 -136v-8h-120z" />
    <glyph glyph-name="uni1EEC" unicode="&#x1eec;" horiz-adv-x="804" 
d="M774.5 636.5q-37.5 -30.5 -106.5 -33.5v-327q0 -87 -40 -152t-110.5 -100.5t-161.5 -35.5q-93 0 -164.5 35.5t-111.5 100.5t-40 152v428h172v-432q0 -60 39.5 -94t104.5 -34q62 0 101 34t39 94v432h172v-26q32 6 32 49q0 29 -13 55h113q12 -33 12 -62q0 -53 -37.5 -83.5z
M390 784v-38h-68v90h36q11 0 18.5 6t7.5 19q0 11 -7 17t-19 6q-11 0 -19.5 -4t-10.5 -12h-76q2 40 30.5 62t73.5 22q52 0 80 -25.5t28 -66.5q0 -67 -74 -76z" />
    <glyph glyph-name="uni1EED" unicode="&#x1eed;" horiz-adv-x="686" 
d="M645.5 426.5q-40.5 -30.5 -113.5 -31.5v-395h-120l-34 58q-52 -70 -138 -70q-63 0 -109 26.5t-70.5 73t-24.5 104.5v304h172v-276q0 -36 20 -58t56 -22q25 0 45.5 12t30.5 28v316h172v-27q42 1 42 50q0 29 -13 55h113q12 -33 12 -62q0 -55 -40.5 -85.5zM322 576v-38h-68
v90h36q11 0 18.5 6t7.5 19q0 11 -7 17t-19 6q-11 0 -19.5 -4t-10.5 -12h-76q2 40 30.5 62t73.5 22q52 0 80 -25.5t28 -66.5q0 -67 -74 -76z" />
    <glyph glyph-name="uni1EEE" unicode="&#x1eee;" horiz-adv-x="804" 
d="M774.5 636.5q-37.5 -30.5 -106.5 -33.5v-327q0 -87 -40 -152t-110.5 -100.5t-161.5 -35.5q-93 0 -164.5 35.5t-111.5 100.5t-40 152v428h172v-432q0 -60 39.5 -94t104.5 -34q62 0 101 34t39 94v432h172v-26q32 6 32 49q0 29 -13 55h113q12 -33 12 -62q0 -53 -37.5 -83.5z
M403 763q-29 11 -67 29q-34 16 -40 16q-4 0 -6 -2.5t-2 -5.5v-44h-96v100q0 26 15.5 43t44.5 17q24 0 49.5 -9.5t63.5 -27.5q36 -19 47 -19q4 0 6 2.5t2 5.5v44h96v-100q0 -26 -15.5 -43t-44.5 -17q-24 0 -53 11z" />
    <glyph glyph-name="uni1EEF" unicode="&#x1eef;" horiz-adv-x="686" 
d="M645.5 426.5q-40.5 -30.5 -113.5 -31.5v-395h-120l-34 58q-52 -70 -138 -70q-63 0 -109 26.5t-70.5 73t-24.5 104.5v304h172v-276q0 -36 20 -58t56 -22q25 0 45.5 12t30.5 28v316h172v-27q42 1 42 50q0 29 -13 55h113q12 -33 12 -62q0 -55 -40.5 -85.5zM335 555
q-29 11 -67 29q-34 16 -40 16q-4 0 -6 -2.5t-2 -5.5v-44h-96v100q0 26 15.5 43t44.5 17q24 0 49.5 -9.5t63.5 -27.5q36 -19 47 -19q4 0 6 2.5t2 5.5v44h96v-100q0 -26 -15.5 -43t-44.5 -17q-24 0 -53 11z" />
    <glyph glyph-name="uni1EF0" unicode="&#x1ef0;" horiz-adv-x="804" 
d="M774.5 636.5q-37.5 -30.5 -106.5 -33.5v-327q0 -87 -40 -152t-110.5 -100.5t-161.5 -35.5q-93 0 -164.5 35.5t-111.5 100.5t-40 152v428h172v-432q0 -60 39.5 -94t104.5 -34q62 0 101 34t39 94v432h172v-26q32 6 32 49q0 29 -13 55h113q12 -33 12 -62q0 -53 -37.5 -83.5z
M272 -66h164v-140h-164v140z" />
    <glyph glyph-name="uni1EF1" unicode="&#x1ef1;" horiz-adv-x="686" 
d="M645.5 426.5q-40.5 -30.5 -113.5 -31.5v-395h-120l-34 58q-52 -70 -138 -70q-63 0 -109 26.5t-70.5 73t-24.5 104.5v304h172v-276q0 -36 20 -58t56 -22q25 0 45.5 12t30.5 28v316h172v-27q42 1 42 50q0 29 -13 55h113q12 -33 12 -62q0 -55 -40.5 -85.5zM206 -66h164v-140
h-164v140z" />
    <glyph glyph-name="Ygrave" unicode="&#x1ef2;" horiz-adv-x="668" 
d="M492 704h196l-268 -440v-264h-172v264l-268 440h196l162 -263zM160 912h172l64 -136v-8h-120z" />
    <glyph glyph-name="ygrave" unicode="&#x1ef3;" horiz-adv-x="564" 
d="M400 496h172l-304 -704h-168l109 243l-217 461h188l115 -255zM98 704h172l64 -136v-8h-120z" />
    <glyph glyph-name="uni1EF4" unicode="&#x1ef4;" horiz-adv-x="668" 
d="M492 704h196l-268 -440v-264h-172v264l-268 440h196l162 -263zM252 -66h164v-140h-164v140z" />
    <glyph glyph-name="uni1EF5" unicode="&#x1ef5;" horiz-adv-x="564" 
d="M400 496h172l-304 -704h-168l109 243l-217 461h188l115 -255zM368 -66h164v-140h-164v140z" />
    <glyph glyph-name="uni1EF6" unicode="&#x1ef6;" horiz-adv-x="668" 
d="M492 704h196l-268 -440v-264h-172v264l-268 440h196l162 -263zM368 784v-38h-68v90h36q11 0 18.5 6t7.5 19q0 11 -7 17t-19 6q-11 0 -19.5 -4t-10.5 -12h-76q2 40 30.5 62t73.5 22q52 0 80 -25.5t28 -66.5q0 -67 -74 -76z" />
    <glyph glyph-name="uni1EF7" unicode="&#x1ef7;" horiz-adv-x="564" 
d="M400 496h172l-304 -704h-168l109 243l-217 461h188l115 -255zM306 576v-38h-68v90h36q11 0 18.5 6t7.5 19q0 11 -7 17t-19 6q-11 0 -19.5 -4t-10.5 -12h-76q2 40 30.5 62t73.5 22q52 0 80 -25.5t28 -66.5q0 -67 -74 -76z" />
    <glyph glyph-name="uni1EF8" unicode="&#x1ef8;" horiz-adv-x="668" 
d="M492 704h196l-268 -440v-264h-172v264l-268 440h196l162 -263zM381 763q-29 11 -67 29q-34 16 -40 16q-4 0 -6 -2.5t-2 -5.5v-44h-96v100q0 26 15.5 43t44.5 17q24 0 49.5 -9.5t63.5 -27.5q36 -19 47 -19q4 0 6 2.5t2 5.5v44h96v-100q0 -26 -15.5 -43t-44.5 -17
q-24 0 -53 11z" />
    <glyph glyph-name="uni1EF9" unicode="&#x1ef9;" horiz-adv-x="564" 
d="M400 496h172l-304 -704h-168l109 243l-217 461h188l115 -255zM319 555q-29 11 -67 29q-34 16 -40 16q-4 0 -6 -2.5t-2 -5.5v-44h-96v100q0 26 15.5 43t44.5 17q24 0 49.5 -9.5t63.5 -27.5q36 -19 47 -19q4 0 6 2.5t2 5.5v44h96v-100q0 -26 -15.5 -43t-44.5 -17
q-24 0 -53 11z" />
    <glyph glyph-name="uni2011" unicode="&#x2011;" horiz-adv-x="384" 
d="M40 360h304v-140h-304v140z" />
    <glyph glyph-name="endash" unicode="&#x2013;" horiz-adv-x="532" 
d="M40 360h452v-140h-452v140z" />
    <glyph glyph-name="emdash" unicode="&#x2014;" horiz-adv-x="1052" 
d="M40 360h972v-140h-972v140z" />
    <glyph glyph-name="uni2015" unicode="&#x2015;" horiz-adv-x="1000" 
d="M40 360h920v-140h-920v140z" />
    <glyph glyph-name="quoteleft" unicode="&#x2018;" horiz-adv-x="228" 
d="M196 552v-164h-164v152q0 50 16 93t44 71h96q-22 -35 -35 -72t-13 -72v-8h56z" />
    <glyph glyph-name="quoteright" unicode="&#x2019;" horiz-adv-x="228" 
d="M196 704v-152q0 -50 -16 -93t-44 -71h-96q22 35 35 72t13 72v8h-56v164h164z" />
    <glyph glyph-name="quotesinglbase" unicode="&#x201a;" horiz-adv-x="228" 
d="M196 164v-152q0 -50 -16 -93t-44 -71h-96q22 35 35 72t13 72v8h-56v164h164z" />
    <glyph glyph-name="quotedblleft" unicode="&#x201c;" horiz-adv-x="440" 
d="M196 552v-164h-164v152q0 50 16 93t44 71h96q-22 -35 -35 -72t-13 -72v-8h56zM408 552v-164h-164v152q0 50 16 93t44 71h96q-22 -35 -35 -72t-13 -72v-8h56z" />
    <glyph glyph-name="quotedblright" unicode="&#x201d;" horiz-adv-x="440" 
d="M196 704v-152q0 -50 -16 -93t-44 -71h-96q22 35 35 72t13 72v8h-56v164h164zM408 704v-152q0 -50 -16 -93t-44 -71h-96q22 35 35 72t13 72v8h-56v164h164z" />
    <glyph glyph-name="quotedblbase" unicode="&#x201e;" horiz-adv-x="440" 
d="M196 164v-152q0 -50 -16 -93t-44 -71h-96q22 35 35 72t13 72v8h-56v164h164zM408 164v-152q0 -50 -16 -93t-44 -71h-96q22 35 35 72t13 72v8h-56v164h164z" />
    <glyph glyph-name="dagger" unicode="&#x2020;" horiz-adv-x="552" 
d="M432 396h112v-144h-112l-90 7l12 -355v-112h-158v112l14 355l-90 -7h-112v144h112l88 -7l-12 203v112h158v-112l-11 -203z" />
    <glyph glyph-name="daggerdbl" unicode="&#x2021;" horiz-adv-x="552" 
d="M432 320l-84 6v-156l84 6h112v-144h-112l-89 7l9 -135v-112h-156v112l11 135l-87 -7h-112v144h112l84 -6v156l-84 -6h-112v144h112l87 -7l-11 135v112h156v-112l-9 -135l89 7h112v-144h-112z" />
    <glyph glyph-name="bullet" unicode="&#x2022;" horiz-adv-x="344" 
d="M44 616l300 -260l-300 -260v164l103 94l-103 90v172z" />
    <glyph glyph-name="ellipsis" unicode="&#x2026;" horiz-adv-x="672" 
d="M32 168h168v-168h-168v168zM252 168h168v-168h-168v168zM472 168h168v-168h-168v168z" />
    <glyph glyph-name="perthousand" unicode="&#x2030;" horiz-adv-x="1224" 
d="M68 375q-48 51 -48 145q0 93 49 144.5t131 51.5q85 0 132.5 -51t47.5 -145q0 -93 -48 -144.5t-132 -51.5t-132 51zM588 704h108l-452 -704h-108zM244.5 450.5q15.5 26.5 15.5 69.5q0 47 -14 71.5t-46 24.5q-30 0 -45 -25t-15 -71q0 -43 15.5 -69.5t44.5 -26.5t44.5 26.5z
M504 35q-48 51 -48 145q0 93 49 144.5t131 51.5q85 0 132.5 -51t47.5 -145t-48 -145t-132 -51t-132 51zM680.5 110.5q15.5 26.5 15.5 69.5q0 47 -14 71.5t-46 24.5q-30 0 -45 -25t-15 -71q0 -43 15.5 -69.5t44.5 -26.5t44.5 26.5zM905.5 43.5q-45.5 51.5 -45.5 144.5
q0 94 46 145t126 51q82 0 127 -50.5t45 -145.5q0 -93 -45.5 -144.5t-126.5 -51.5t-126.5 51.5zM1076.5 118.5q15.5 26.5 15.5 69.5q0 47 -14 71.5t-46 24.5q-30 0 -45 -25t-15 -71q0 -43 15.5 -69.5t44.5 -26.5t44.5 26.5z" />
    <glyph glyph-name="guilsinglleft" unicode="&#x2039;" horiz-adv-x="328" 
d="M316 476l-117 -196l117 -196h-167l-125 196l124 196h168z" />
    <glyph glyph-name="guilsinglright" unicode="&#x203a;" horiz-adv-x="328" 
d="M180 476l124 -196l-125 -196h-167l117 196l-117 196h168z" />
    <glyph glyph-name="fraction" unicode="&#x2044;" horiz-adv-x="32" 
d="M188 704h108l-452 -704h-108z" />
    <glyph glyph-name="zero.superior" unicode="&#x2070;" horiz-adv-x="400" 
d="M73.5 535.5q-45.5 51.5 -45.5 144.5q0 94 46 145t126 51q82 0 127 -50.5t45 -145.5q0 -93 -45.5 -144.5t-126.5 -51.5t-126.5 51.5zM244.5 610.5q15.5 26.5 15.5 69.5q0 47 -14 71.5t-46 24.5q-30 0 -45 -25t-15 -71q0 -43 15.5 -69.5t44.5 -26.5t44.5 26.5z" />
    <glyph glyph-name="i.sups" unicode="&#x2071;" horiz-adv-x="188" 
d="M36 1022h118v-103h-118v103zM36 864h120v-368h-120v368z" />
    <glyph glyph-name="four.superior" unicode="&#x2074;" horiz-adv-x="400" 
d="M356 658v-86h-40v-76h-108v76h-188v64l148 228h148v-206h40zM140 658h68v110z" />
    <glyph glyph-name="five.superior" unicode="&#x2075;" horiz-adv-x="400" 
d="M308 705q40 -35 40 -89q0 -58 -43 -95t-117 -37q-60 0 -103 30.5t-52 85.5h115q10 -28 44 -28q20 0 32 11t12 29t-12 29t-32 11q-30 0 -44 -20h-112l36 232h256v-88h-169l-9 -46q27 10 58 10q60 0 100 -35z" />
    <glyph glyph-name="six.superior" unicode="&#x2076;" horiz-adv-x="400" 
d="M324.5 704.5q35.5 -31.5 35.5 -84.5q0 -59 -42.5 -97.5t-117.5 -38.5q-73 0 -118.5 48.5t-45.5 143.5t44 147.5t120 52.5q66 0 104 -30t47 -86h-104q-7 16 -18.5 22t-28.5 6q-26 0 -38.5 -19t-13.5 -65q29 32 84 32q57 0 92.5 -31.5zM235.5 585q12.5 13 12.5 31
q0 19 -11.5 31.5t-32.5 12.5q-16 0 -30.5 -8.5t-23.5 -24.5q4 -27 18.5 -41t35.5 -14q19 0 31.5 13z" />
    <glyph glyph-name="seven.superior" unicode="&#x2077;" horiz-adv-x="400" 
d="M48 864h304v-68l-160 -300h-116l155 276h-183v92z" />
    <glyph glyph-name="eight.superior" unicode="&#x2078;" horiz-adv-x="400" 
d="M360 600q0 -51 -41 -83.5t-119 -32.5t-119 32.5t-41 83.5q0 59 54 85q-46 24 -46 79q0 49 39 80.5t113 31.5t113 -31.5t39 -80.5q0 -55 -46 -79q54 -26 54 -85zM163.5 781q-11.5 -11 -11.5 -25t11.5 -25t36.5 -11t36.5 11t11.5 25t-11.5 25t-36.5 11t-36.5 -11z
M236.5 583q11.5 11 11.5 25t-11.5 25t-36.5 11t-36.5 -11t-11.5 -25t11.5 -25t36.5 -11t36.5 11z" />
    <glyph glyph-name="nine.superior" unicode="&#x2079;" horiz-adv-x="400" 
d="M318.5 827.5q45.5 -48.5 45.5 -143.5t-44 -147.5t-120 -52.5q-66 0 -104 30t-47 86h104q7 -16 18.5 -22t28.5 -6q26 0 38.5 19t13.5 65q-29 -32 -84 -32q-57 0 -92.5 31.5t-35.5 84.5q0 59 42.5 97.5t117.5 38.5q73 0 118.5 -48.5zM226.5 708.5q14.5 8.5 23.5 24.5
q-4 27 -18.5 41t-35.5 14q-19 0 -31.5 -13t-12.5 -31q0 -19 11.5 -31.5t32.5 -12.5q16 0 30.5 8.5z" />
    <glyph glyph-name="plus.sups" unicode="&#x207a;" horiz-adv-x="400" 
d="M356 564v-92h-108v-96h-96v96h-108v92h108v96h96v-96h108z" />
    <glyph glyph-name="minus.sups" unicode="&#x207b;" horiz-adv-x="400" 
d="M44 564h312v-92h-312v92z" />
    <glyph glyph-name="equal.sups" unicode="&#x207c;" horiz-adv-x="400" 
d="M44 628h312v-92h-312v92zM44 500h312v-92h-312v92z" />
    <glyph glyph-name="parenleft.sups" unicode="&#x207d;" horiz-adv-x="196" 
d="M32 520q0 134 65 236h100q-29 -50 -45 -111t-16 -125t16 -125t45 -111h-100q-65 102 -65 236z" />
    <glyph glyph-name="parenright.sups" unicode="&#x207e;" horiz-adv-x="196" 
d="M164 520q0 -134 -65 -236h-100q29 50 45 111t16 125t-16 125t-45 111h100q65 -102 65 -236z" />
    </font>
</defs>
</svg>
