<svg width="16" height="16" viewBox="0 0 16 16" fill="none" xmlns="http://www.w3.org/2000/svg">
<path d="M3.23714 10.6358C4.78909 12.495 6.72205 14.0026 8.90662 15.0577C9.89559 15.5658 10.9722 15.8829 12.0796 15.9924C12.1565 15.9924 12.2293 15.9988 12.3062 15.9988C12.6891 16.0102 13.0699 15.9381 13.4219 15.7875C13.7739 15.6369 14.0886 15.4115 14.3438 15.127C14.349 15.122 14.3533 15.1163 14.3568 15.1101C14.5588 14.8777 14.7733 14.6563 14.9993 14.447C15.1555 14.2979 15.3157 14.1424 15.4687 13.9829C15.6365 13.8323 15.7705 13.6483 15.8621 13.4427C15.9536 13.2371 16.0006 13.0146 16 12.7897C15.9994 12.5648 15.9512 12.3426 15.8585 12.1375C15.7658 11.9324 15.6308 11.7491 15.4622 11.5995L13.4618 9.60768C13.3138 9.44304 13.1335 9.31044 12.9319 9.21813C12.7303 9.12581 12.5118 9.07575 12.29 9.07106C12.0667 9.07671 11.8467 9.12681 11.6431 9.21842C11.4395 9.31003 11.2564 9.44129 11.1045 9.60446L9.91249 10.7913C9.80243 10.7285 9.68914 10.6721 9.58313 10.6189C9.45764 10.5588 9.33529 10.4923 9.21655 10.4199C8.06985 9.67755 7.05203 8.75448 6.20297 7.68679C5.7931 7.19494 5.45051 6.65116 5.18415 6.06966C5.49733 5.78765 5.79027 5.49275 6.07431 5.2043C6.17384 5.10116 6.27742 4.99883 6.3802 4.8957C6.54665 4.74369 6.68114 4.56029 6.77588 4.35614C6.87061 4.15199 6.92371 3.93115 6.93209 3.70642C6.92513 3.47994 6.87239 3.25718 6.77701 3.05145C6.68162 2.84573 6.54556 2.66126 6.37696 2.50908L5.38727 1.52124C5.27074 1.40522 5.16069 1.29241 5.04739 1.17639C4.82809 0.951583 4.59665 0.719529 4.37249 0.510841C4.22073 0.352654 4.03894 0.226044 3.83765 0.138353C3.63637 0.0506612 3.4196 0.00363458 3.19992 0C2.75266 0.0103615 2.32732 0.194925 2.0152 0.514064L0.769797 1.7533C0.324945 2.1865 0.0539313 2.76629 0.0075015 3.38412C-0.0374909 4.29118 0.12033 5.19687 0.469572 6.03582C1.11534 7.71825 2.05201 9.27509 3.23714 10.6358ZM0.81997 3.45422C0.85184 3.0264 1.04013 2.62506 1.34921 2.32618L2.58733 1.09339C2.74685 0.923539 2.96663 0.822361 3.19992 0.811383C3.31422 0.816827 3.42624 0.845179 3.52927 0.894744C3.63231 0.944309 3.72424 1.01407 3.79956 1.09984C4.02291 1.3053 4.2325 1.52044 4.45908 1.74927C4.57237 1.8653 4.6889 1.98132 4.80543 2.10057L5.79674 3.08922C5.88723 3.16646 5.96149 3.26075 6.01523 3.36668C6.06898 3.4726 6.10116 3.58806 6.10991 3.70642C6.10147 3.82519 6.06944 3.94111 6.01569 4.04747C5.96193 4.15383 5.88751 4.24852 5.79674 4.32603C5.69316 4.42917 5.59039 4.53472 5.48681 4.63786C5.17687 4.94968 4.88717 5.24458 4.56833 5.52418L4.55133 5.5411C4.44949 5.63076 4.37858 5.75007 4.34866 5.88211C4.31874 6.01415 4.33133 6.15222 4.38463 6.27674C4.38463 6.28641 4.39111 6.29366 4.39434 6.30333C4.69226 6.98849 5.08742 7.62751 5.56773 8.20085C6.47041 9.33927 7.55462 10.3225 8.77714 11.1112C8.91924 11.1994 9.06592 11.2801 9.21655 11.3529C9.34205 11.413 9.4644 11.4795 9.58313 11.5519L9.61955 11.5721C9.71929 11.6247 9.83038 11.6523 9.94324 11.6527C10.0368 11.6497 10.1289 11.6282 10.214 11.5894C10.2992 11.5507 10.3758 11.4955 10.4393 11.427L11.6847 10.187C11.7617 10.1003 11.8552 10.0295 11.9598 9.97892C12.0644 9.92831 12.178 9.89881 12.2941 9.89211C12.4072 9.89893 12.5178 9.92858 12.6191 9.97928C12.7203 10.03 12.8102 10.1007 12.8832 10.187L14.8909 12.1828C14.984 12.259 15.0587 12.355 15.1095 12.4638C15.1602 12.5726 15.1857 12.6914 15.1841 12.8114C15.1825 12.9313 15.1537 13.0494 15.1 13.1568C15.0463 13.2642 14.969 13.3581 14.8739 13.4317C14.7339 13.5808 14.5874 13.7234 14.4312 13.8725C14.1868 14.1001 13.9545 14.3402 13.7353 14.592C13.5562 14.7907 13.3355 14.9478 13.0886 15.0521C12.8418 15.1564 12.575 15.2054 12.307 15.1955C12.2504 15.1955 12.1905 15.1955 12.1338 15.1891C11.1319 15.0861 10.1584 14.7961 9.2643 14.3342C7.18442 13.3301 5.34454 11.8943 3.86834 10.1234C2.74511 8.83269 1.85526 7.3578 1.23834 5.76429C0.928731 5.03463 0.785829 4.24559 0.81997 3.45422Z" fill="#15392F"/>
</svg>
