<svg width="18" height="18" viewBox="0 0 18 18" fill="none" xmlns="http://www.w3.org/2000/svg">
<path d="M3.62672 11.9659C5.36543 14.0579 7.53102 15.7542 9.97849 16.9414C11.0865 17.5131 12.2927 17.8699 13.5333 17.9931C13.6195 17.9931 13.7011 18.0003 13.7872 18.0003C14.2162 18.0131 14.6428 17.932 15.0372 17.7625C15.4315 17.5931 15.7841 17.3394 16.0701 17.0194C16.0758 17.0138 16.0807 17.0074 16.0846 17.0003C16.3109 16.7389 16.5512 16.4898 16.8044 16.2542C16.9794 16.0865 17.1589 15.9115 17.3303 15.732C17.5182 15.5626 17.6684 15.3555 17.771 15.1242C17.8735 14.8929 17.9262 14.6425 17.9255 14.3895C17.9248 14.1364 17.8708 13.8864 17.767 13.6556C17.6632 13.4249 17.5119 13.2186 17.323 13.0502L15.0818 10.8091C14.9161 10.6238 14.714 10.4746 14.4882 10.3707C14.2624 10.2669 14.0176 10.2105 13.7691 10.2052C13.5188 10.2116 13.2724 10.268 13.0443 10.3711C12.8162 10.4741 12.611 10.6218 12.4409 10.8054L11.1054 12.1409C10.9821 12.0702 10.8552 12.0067 10.7364 11.9469C10.5958 11.8792 10.4587 11.8045 10.3257 11.7229C9.04102 10.8877 7.90071 9.84903 6.94947 8.64767C6.49027 8.09424 6.10645 7.48239 5.80804 6.82809C6.1589 6.51077 6.4871 6.17895 6.80532 5.85438C6.91684 5.73834 7.03288 5.6232 7.14802 5.50715C7.33451 5.33611 7.48518 5.12975 7.59132 4.90005C7.69746 4.67034 7.75695 4.42185 7.76634 4.16898C7.75854 3.91414 7.69945 3.66349 7.59259 3.43202C7.48573 3.20054 7.33329 2.99298 7.1444 2.82174L6.0356 1.71023C5.90505 1.57968 5.78175 1.45275 5.65482 1.3222C5.40913 1.06925 5.14984 0.808145 4.8987 0.573331C4.72868 0.39534 4.525 0.252879 4.29949 0.154209C4.07399 0.0555389 3.83113 0.00262477 3.58501 -0.00146484C3.08393 0.0101938 2.6074 0.217864 2.25772 0.576958L0.862439 1.97134C0.364051 2.45877 0.0604217 3.11115 0.00840427 3.80633C-0.0420027 4.82695 0.134811 5.84603 0.526083 6.79001C1.24957 8.68307 2.29896 10.4348 3.62672 11.9659ZM0.918649 3.88521C0.954355 3.40383 1.16531 2.95224 1.51158 2.61594L2.8987 1.22882C3.07742 1.0377 3.32365 0.923851 3.58501 0.9115C3.71307 0.917624 3.83857 0.949527 3.954 1.0053C4.06944 1.06107 4.17243 1.13956 4.25682 1.23607C4.50704 1.46726 4.74186 1.70932 4.99571 1.9668C5.12264 2.09736 5.25319 2.22791 5.38374 2.36209L6.49435 3.47451C6.59573 3.56142 6.67893 3.66752 6.73914 3.7867C6.79936 3.90589 6.8354 4.03581 6.84521 4.16898C6.83576 4.30262 6.79987 4.43306 6.73965 4.55273C6.67942 4.67241 6.59605 4.77894 6.49435 4.86617C6.3783 4.98222 6.26316 5.10098 6.14712 5.21703C5.79988 5.56789 5.47531 5.89971 5.11811 6.21431L5.09907 6.23335C4.98497 6.33424 4.90553 6.46849 4.872 6.61706C4.83848 6.76563 4.85258 6.92098 4.9123 7.06109C4.9123 7.07197 4.91956 7.08013 4.92318 7.09101C5.25695 7.86195 5.69967 8.58097 6.23778 9.2261C7.24909 10.507 8.46378 11.6133 9.83343 12.5008C9.99263 12.6 10.157 12.6908 10.3257 12.7728C10.4663 12.8404 10.6034 12.9152 10.7364 12.9967L10.7772 13.0194C10.889 13.0786 11.0134 13.1097 11.1399 13.11C11.2447 13.1067 11.3478 13.0825 11.4432 13.0389C11.5386 12.9953 11.6244 12.9332 11.6956 12.8562L13.0909 11.4609C13.1772 11.3633 13.2819 11.2837 13.3991 11.2268C13.5163 11.1698 13.6435 11.1366 13.7736 11.1291C13.9004 11.1368 14.0242 11.1701 14.1377 11.2272C14.2512 11.2842 14.3518 11.3637 14.4336 11.4609L16.6829 13.7066C16.7872 13.7923 16.8709 13.9003 16.9278 14.0228C16.9847 14.1452 17.0133 14.2788 17.0114 14.4138C17.0096 14.5488 16.9774 14.6816 16.9172 14.8025C16.8571 14.9233 16.7705 15.029 16.6639 15.1119C16.507 15.2796 16.3429 15.4401 16.168 15.6078C15.8941 15.8639 15.6339 16.1341 15.3883 16.4174C15.1877 16.641 14.9403 16.8178 14.6638 16.9351C14.3873 17.0525 14.0883 17.1075 13.7881 17.0964C13.7246 17.0964 13.6575 17.0964 13.5941 17.0892C12.4715 16.9734 11.3809 16.647 10.3792 16.1273C8.04903 14.9975 5.98773 13.382 4.33388 11.3893C3.07548 9.93704 2.07853 8.2775 1.38737 6.48448C1.0405 5.66348 0.8804 4.77566 0.918649 3.88521Z" fill="white"/>
</svg>
