<svg width="19" height="14" viewBox="0 0 19 14" fill="none" xmlns="http://www.w3.org/2000/svg">
<path d="M16.9281 13.2356H2.47235C2.00269 13.2351 1.55237 13.0485 1.22012 12.7165C0.887875 12.3846 0.700812 11.9345 0.699951 11.4648V2.53558C0.700382 2.06564 0.887254 1.61508 1.21955 1.28278C1.55184 0.950487 2.00241 0.763614 2.47235 0.763184H16.9281C17.398 0.763614 17.8486 0.950487 18.1809 1.28278C18.5132 1.61508 18.7001 2.06564 18.7005 2.53558V11.4648C18.7001 11.9347 18.5132 12.3853 18.1809 12.7176C17.8486 13.0499 17.398 13.2368 16.9281 13.2372V13.2356ZM2.47235 1.44058C2.18183 1.44058 1.9032 1.55591 1.69768 1.76123C1.49215 1.96655 1.37655 2.24507 1.37626 2.53558V11.4648C1.37655 11.7551 1.49201 12.0335 1.6973 12.2388C1.90259 12.4441 2.18094 12.5595 2.47126 12.5598H16.9281C17.2183 12.5594 17.4965 12.4439 17.7017 12.2386C17.9069 12.0333 18.0223 11.755 18.0226 11.4648V2.53558C18.0223 2.24525 17.9068 1.9669 17.7015 1.76161C17.4962 1.55632 17.2179 1.44086 16.9276 1.44058H2.47235Z" fill="white"/>
<path d="M9.69969 8.99271C9.61721 8.99275 9.53756 8.96266 9.4757 8.9081L1.31335 1.703L1.76133 1.19482L9.69969 8.20305L17.638 1.19591L18.086 1.70409L9.92422 8.90865C9.86217 8.96317 9.78229 8.99308 9.69969 8.99271Z" fill="white"/>
<path d="M1.12952 12.1719L6.60991 5.92751L7.11903 6.37435L1.63864 12.6187L1.12952 12.1719Z" fill="white"/>
<path d="M12.2954 6.36475L12.8045 5.91791L18.2849 12.1623L17.7758 12.6091L12.2954 6.36475Z" fill="white"/>
</svg>
