<svg width="149" height="16" viewBox="0 0 149 16" fill="none" xmlns="http://www.w3.org/2000/svg">
<path d="M30.9002 15.9548V0.0790939H34.7146V6.25988H39.7741L46.3503 0.0790939H51.4097L43.0452 7.9774L51.5569 15.9661H46.1918L39.6156 9.69491H34.7033V15.9661H30.8889L30.9002 15.9548ZM8.04762 3.37853L5.87442 0.0790939H19.0608L16.9442 3.37853H8.04762ZM133.391 9.79661H141.088L137.24 3.03955L133.38 9.79661H133.391ZM125.638 15.9548L134.636 0.0790939H139.945L148.955 15.9548H144.586L143.035 13.2203H135.372L133.312 9.9774L129.917 15.9548H125.638ZM75.1791 15.9548H66.9617C63.0794 15.9548 60.8383 13.7288 60.8383 10.0452V5.9887C60.8383 2.29378 63.0794 0.0790939 66.9617 0.0790939H75.1791C79.0614 0.0790939 81.3026 2.30508 81.3026 5.9887V10.0452C81.3026 13.7401 79.0614 15.9548 75.1791 15.9548ZM67.0523 12.5311H75.0886C76.5487 12.5311 77.4881 11.6271 77.4881 10.2147V5.79661C77.4881 4.38418 76.5487 3.48022 75.0886 3.48022H67.0523C65.6035 3.48022 64.6527 4.38418 64.6527 5.79661V10.2147C64.6527 11.6271 65.5921 12.5311 67.0523 12.5311ZM95.1341 15.9548V0.0790939H108.558C112.554 0.0790939 114.851 2.36158 114.851 6.14689V9.8983C114.851 13.6836 112.554 15.9661 108.558 15.9661H95.1341V15.9548ZM98.9485 12.5311H108.468C110.041 12.5311 111.048 11.5706 111.048 10.0678V5.9548C111.048 4.45197 110.041 3.49152 108.468 3.49152H98.9485V12.5311ZM0.0792236 15.9548L2.19583 12.5876H14.5106C15.2124 12.5876 15.6651 12.1356 15.6651 11.4463V9.49152H5.08211C1.9355 9.50282 0.531974 8.12429 0.531974 5.06214V3.74011C0.531974 1.45763 1.90154 0.0790939 4.0521 0.0790939H4.2898V5.00565C4.2898 5.69491 4.74255 6.14689 5.44431 6.14689H15.6878C18.0194 6.14689 19.4116 7.52542 19.4116 9.77401V11.5141C19.4116 14.4859 17.9289 15.9548 14.8615 15.9548H0.0792236Z" fill="#15392F"/>
</svg>
